0
SECTION
2
HEADER
9
$INSUNITS
70
4
9
$ACADVER
1
AC1014
9
$HANDSEED
5
FFFF
0
ENDSEC
0
SECTION
2
TABLES
0
TABLE
2
VPORT
5
8
100
AcDbSymbolTable
0
ENDTAB
0
TABLE
2
LTYPE
5
5
100
AcDbSymbolTable
0
LTYPE
5
14
100
AcDbSymbolTableRecord
100
AcDbLinetypeTableRecord
2
BYBLOCK
70
0
0
LTYPE
5
15
100
AcDbSymbolTableRecord
100
AcDbLinetypeTableRecord
2
BYLAYER
70
0
0
ENDTAB
0
TABLE
2
LAYER
5
2
100
AcDbSymbolTable
70
2
0
LAYER
5
50
100
AcDbSymbolTableRecord
100
AcDbLayerTableRecord
2
0
70
0
6
CONTINUOUS
0
ENDTAB
0
TABLE
2
STYLE
5
3
100
AcDbSymbolTable
70
1
0
STYLE
5
11
100
AcDbSymbolTableRecord
100
AcDbTextStyleTableRecord
2
STANDARD
70
0
0
ENDTAB
0
TABLE
2
VIEW
5
6
100
AcDbSymbolTable
70
0
0
ENDTAB
0
TABLE
2
UCS
5
7
100
AcDbSymbolTable
70
0
0
ENDTAB
0
TABLE
2
APPID
5
9
100
AcDbSymbolTable
70
2
0
APPID
5
12
100
AcDbSymbolTableRecord
100
AcDbRegAppTableRecord
2
ACAD
70
0
0
ENDTAB
0
TABLE
2
DIMSTYLE
5
A
100
AcDbSymbolTable
70
1
0
ENDTAB
0
TABLE
2
BLOCK_RECORD
5
1
100
AcDbSymbolTable
70
1
0
BLOCK_RECORD
5
1F
100
AcDbSymbolTableRecord
100
AcDbBlockTableRecord
2
*MODEL_SPACE
0
BLOCK_RECORD
5
1B
100
AcDbSymbolTableRecord
100
AcDbBlockTableRecord
2
*PAPER_SPACE
0
ENDTAB
0
ENDSEC
0
SECTION
2
BLOCKS
0
BLOCK
5
20
100
AcDbEntity
100
AcDbBlockBegin
2
*MODEL_SPACE
0
ENDBLK
5
21
100
AcDbEntity
100
AcDbBlockEnd
0
BLOCK
5
1C
100
AcDbEntity
100
AcDbBlockBegin
2
*PAPER_SPACE
0
ENDBLK
5
1D
100
AcDbEntity
100
AcDbBlockEnd
0
ENDSEC
0
SECTION
2
ENTITIES
0
SPLINE
5
100
100
AcDbEntity
8
0
100
AcDbSpline
70
4
71
3
72
8
73
4
74
0
42
0.000000001
43
0.0000000001
44
0.0000000001
40
0.56063665099260607
40
0.56063665099260607
40
0.56063665099260607
40
0.56063665099260607
40
1
40
1
40
1
40
1
41
1
41
1
41
1
41
1
10
-3.2340053134944546
20
-40.026435248420533
30
0
10
-3.358069194151156
20
-38.907042568810091
30
0
10
-3.1477366621176461
20
-37.313118089800845
30
0
10
-2.7725693738907431
20
-34.470056587868697
30
0
0
SPLINE
5
101
100
AcDbEntity
8
0
100
AcDbSpline
70
4
71
3
72
8
73
4
74
0
42
0.000000001
43
0.0000000001
44
0.0000000001
40
0
40
0
40
0
40
0
40
1
40
1
40
1
40
1
41
1
41
1
41
1
41
1
10
-2.7725693738907431
20
-34.470056587868697
30
0
10
-1.9186809258113158
20
-27.999186220182732
30
0
10
-1.9186809258113158
20
-27.999186220182732
30
0
10
1.9723929369002668
20
-25.899782711678512
30
0
0
SPLINE
5
102
100
AcDbEntity
8
0
100
AcDbSpline
70
4
71
3
72
8
73
4
74
0
42
0.000000001
43
0.0000000001
44
0.0000000001
40
0
40
0
40
0
40
0
40
1
40
1
40
1
40
1
41
1
41
1
41
1
41
1
10
1.9723929369002668
20
-25.899782711678512
30
0
10
5.8634667996118672
20
-23.800371128731719
30
0
10
5.8634667996118672
20
-23.800371128731719
30
0
10
12.585343325490772
20
-27.253261143380172
30
0
0
SPLINE
5
103
100
AcDbEntity
8
0
100
AcDbSpline
70
4
71
3
72
8
73
4
74
0
42
0.000000001
43
0.0000000001
44
0.0000000001
40
0
40
0
40
0
40
0
40
1
40
1
40
1
40
1
41
1
41
1
41
1
41
1
10
12.585343325490772
20
-27.253261143380172
30
0
10
19.307219851369677
20
-30.706143083586053
30
0
10
19.307219851369677
20
-30.706143083586053
30
0
10
20.050310798838744
20
-34.77747080168502
30
0
0
SPLINE
5
104
100
AcDbEntity
8
0
100
AcDbSpline
70
4
71
3
72
8
73
4
74
0
42
0.000000001
43
0.0000000001
44
0.0000000001
40
0
40
0
40
0
40
0
40
1
40
1
40
1
40
1
41
1
41
1
41
1
41
1
10
20.050310798838744
20
-34.77747080168502
30
0
10
20.793401746307829
20
-38.848790445341436
30
0
10
20.793401746307829
20
-38.848790445341436
30
0
10
19.016766004120331
20
-41.473416255328814
30
0
0
SPLINE
5
105
100
AcDbEntity
8
0
100
AcDbSpline
70
4
71
3
72
8
73
4
74
0
42
0.000000001
43
0.0000000001
44
0.0000000001
40
0
40
0
40
0
40
0
40
1
40
1
40
1
40
1
41
1
41
1
41
1
41
1
10
19.016766004120331
20
-41.473416255328814
30
0
10
17.240146410817925
20
-44.098050139758755
30
0
10
17.240146410817925
20
-44.098050139758755
30
0
10
9.6599243445744243
20
-45.181527287178994
30
0
0
SPLINE
5
106
100
AcDbEntity
8
0
100
AcDbSpline
70
4
71
3
72
8
73
4
74
0
42
0.000000001
43
0.0000000001
44
0.0000000001
40
0
40
0
40
0
40
0
40
0.58386868559350535
40
0.58386868559350535
40
0.58386868559350535
40
0.58386868559350535
41
1
41
1
41
1
41
1
10
9.6599243445744243
20
-45.181527287178994
30
0
10
5.2340700502499571
20
-45.814133307906779
30
0
10
3.3923334853810871
20
-46.077380482813695
30
0
10
2.0580469986006618
20
-45.657067355984225
30
0
0
ARC
5
107
100
AcDbEntity
8
0
100
AcDbCircle
10
-5.0582147491970275
20
-47.043183778522888
30
0
40
7.25
210
0
220
-0
230
1
100
AcDbArc
50
11.022150192123615
51
75.42689423784924
0
SPLINE
5
108
100
AcDbEntity
8
0
100
AcDbSpline
70
0
71
3
72
12
73
8
74
0
42
0.000000001
43
0.0000000001
44
0.0000000001
40
0
40
0
40
0
40
0
40
0.11899004347021198
40
0.11899004347021198
40
0.298182417909089
40
0.298182417909089
40
0.64714838529468366
40
0.64714838529468366
40
0.64714838529468366
40
0.64714838529468366
10
54.647052255243167
20
6.2749311797205776
30
0
10
55.043682073630684
20
6.2732272953584154
30
0
10
55.430575072115303
20
6.353219237084641
30
0
10
56.364262790041934
20
6.6921081111870162
30
0
10
56.89502150506614
20
7.0222514351855487
30
0
10
58.289149637370642
20
8.087591171686471
30
0
10
59.19810086551248
20
9.0668338279455458
30
0
10
60.06144320741501
20
10.147361840505599
30
0
0
LINE
5
109
100
AcDbEntity
8
0
100
AcDbLine
10
54.647052255243167
20
6.2749311797205776
30
0
11
36.302646556979212
21
6.3537370197087517
31
0
0
SPLINE
5
110
100
AcDbEntity
8
0
100
AcDbSpline
70
0
71
3
72
10
73
6
74
0
42
0.000000001
43
0.0000000001
44
0.0000000001
40
0.41042816704873508
40
0.41042816704873508
40
0.41042816704873508
40
0.41042816704873508
40
0.44548960755000133
40
0.44548960755000133
40
0.48073755733846646
40
0.48073755733846646
40
0.48073755733846646
40
0.48073755733846646
10
35.643579134066314
20
6.5819520564224625
30
0
10
35.741216911097382
20
6.5152544297147461
30
0
10
35.845793100492116
20
6.4579944880725133
30
0
10
36.068836585157911
20
6.3769989942719967
30
0
10
36.183628339869742
20
6.3547696375371823
30
0
10
36.302646556979219
20
6.3537370197087517
30
0
0
SPLINE
5
111
100
AcDbEntity
8
0
100
AcDbSpline
70
4
71
5
72
16
73
10
74
0
42
0.000000001
43
0.0000000001
44
0.0000000001
40
-0.84046977847104865
40
-0.84046977847104865
40
-0.84046977847104865
40
-0.84046977847104865
40
-0.84046977847104865
40
-0.84046977847104865
40
-0.80000000000000004
40
-0.60000000000000009
40
-0.40000000000000002
40
-0.20000000000000001
40
0
40
0
40
0
40
0
40
0
40
0
41
1
41
1
41
1
41
1
41
1
41
1
41
1
41
1
41
1
41
1
10
35.643579134066314
20
6.5819520564224634
30
0
10
35.611027153033092
20
6.604188891337528
30
0
10
35.418230654155344
20
6.7436919340029755
30
0
10
35.071754789495145
20
7.0771879563858207
30
0
10
34.583284523784641
20
7.7307021311283357
30
0
10
33.96064671842317
20
8.7257085213360526
30
0
10
33.373251073763974
20
9.5082542646685102
30
0
10
32.928595821803398
20
9.8346100794951816
30
0
10
32.629349362967062
20
9.9080278023580135
30
0
10
32.479022750417641
20
9.9086611150131816
30
0
0
LINE
5
112
100
AcDbEntity
8
0
100
AcDbLine
10
32.479022750417649
20
9.9086611150131798
30
0
11
14.104735019452386
21
9.9860703558146326
31
0
0
SPLINE
5
113
100
AcDbEntity
8
0
100
AcDbSpline
70
0
71
3
72
16
73
12
74
0
42
0.000000001
43
0.0000000001
44
0.0000000001
40
0.39283362509510522
40
0.39283362509510522
40
0.39283362509510522
40
0.39283362509510522
40
0.78411088866441525
40
0.78411088866441525
40
1.0391533369309589
40
1.0391533369309589
40
1.1636920271203062
40
1.1636920271203062
40
1.221336092995555
40
1.221336092995555
40
1.2755077263681052
40
1.2755077263681052
40
1.2755077263681052
40
1.2755077263681052
10
11.792296308567041
20
17.815631340759275
30
0
10
12.066501393334017
20
16.181247665668231
30
0
10
12.281030549444312
20
14.468893174492518
30
0
10
12.72903298256638
20
12.149059286977904
30
0
10
12.929981123504394
20
11.363961960548712
30
0
10
13.312807498597463
20
10.548440905001677
30
0
10
13.450601593929562
20
10.340005291476874
30
0
10
13.675206775998756
20
10.133560472047618
30
0
10
13.754690009811856
20
10.078035982397681
30
0
10
13.926992246298669
20
10.004505752360313
30
0
10
14.013976646494321
20
9.9864527127718041
30
0
10
14.104735019452386
20
9.9860703558146326
30
0
0
SPLINE
5
114
100
AcDbEntity
8
0
100
AcDbSpline
70
4
71
5
72
13
73
7
74
0
42
0.000000001
43
0.0000000001
44
0.0000000001
40
-0.46114751629655709
40
-0.46114751629655709
40
-0.46114751629655709
40
-0.46114751629655709
40
-0.46114751629655709
40
-0.46114751629655709
40
-0.40000000000000002
40
-0.22737339763157502
40
-0.22737339763157502
40
-0.22737339763157502
40
-0.22737339763157502
40
-0.22737339763157502
40
-0.22737339763157502
41
1
41
1
41
1
41
1
41
1
41
1
41
1
10
11.792296308567048
20
17.815631340759275
30
0
10
11.74816460459594
20
18.078469985272434
30
0
10
11.574337931464392
20
19.077817669075245
30
0
10
11.377664813431267
20
20.045080843122371
30
0
10
11.145353905265655
20
20.938437692586866
30
0
10
10.864730807662021
20
21.718323771801288
30
0
10
10.626813693055691
20
22.219042746897255
30
0
0
SPLINE
5
115
100
AcDbEntity
8
0
100
AcDbSpline
70
4
71
5
72
12
73
6
74
0
42
0.000000001
43
0.0000000001
44
0.0000000001
40
-0.22737339763155434
40
-0.22737339763155434
40
-0.22737339763155434
40
-0.22737339763155434
40
-0.22737339763155434
40
-0.22737339763155434
40
-0.219326088692544
40
-0.219326088692544
40
-0.219326088692544
40
-0.219326088692544
40
-0.219326088692544
40
-0.219326088692544
41
1
41
1
41
1
41
1
41
1
41
1
10
10.626813693055546
20
22.219042746897554
30
0
10
10.615722745908078
20
22.242384689732191
30
0
10
10.604565093061318
20
22.265563267653512
30
0
10
10.59334029365715
20
22.288577133196586
30
0
10
10.582047910386938
20
22.311424951315328
30
0
10
10.570687509649321
20
22.334105399813659
30
0
0
SPLINE
5
116
100
AcDbEntity
8
0
100
AcDbSpline
70
0
71
3
72
12
73
8
74
0
42
0.000000001
43
0.0000000001
44
0.0000000001
40
0
40
0
40
0
40
0
40
0.077883504481950749
40
0.077883504481950749
40
0.15282040570042726
40
0.15282040570042726
40
0.27093136582077892
40
0.27093136582077892
40
0.27093136582077892
40
0.27093136582077892
10
8.4438485522678945
20
23.960330579485767
30
0
10
8.7034602338743987
20
23.960330579485767
30
0
10
8.9540100302547891
20
23.91480807867503
30
0
10
9.4241990892017817
20
23.718545487680505
30
0
10
9.6284208779091998
20
23.578606189032616
30
0
10
10.09808085063761
20
23.138972382145223
30
0
10
10.348623549442561
20
22.777507385325055
30
0
10
10.570687509649323
20
22.334105399813655
30
0
0
LINE
5
117
100
AcDbEntity
8
0
100
AcDbLine
10
8.4438485522678945
20
23.960330579485767
30
0
11
-9.1532567165823497
21
23.960330579485767
31
0
0
SPLINE
5
118
100
AcDbEntity
8
0
100
AcDbSpline
70
4
71
5
72
13
73
7
74
0
42
0.000000001
43
0.0000000001
44
0.0000000001
40
-1
40
-1
40
-1
40
-1
40
-1
40
-1
40
-0.80000000000000004
40
-0.75315378380768838
40
-0.75315378380768838
40
-0.75315378380768838
40
-0.75315378380768838
40
-0.75315378380768838
40
-0.75315378380768838
41
1
41
1
41
1
41
1
41
1
41
1
41
1
10
-9.1532567165823462
20
23.960330579485767
30
0
10
-9.5381003245191955
20
23.960330579485767
30
0
10
-9.9729480634237646
20
23.91064552850721
30
0
10
-10.358299803686295
20
23.79969467546627
30
0
10
-10.698169929385088
20
23.633192145387284
30
0
10
-10.997396884976228
20
23.418611422763099
30
0
10
-11.052753642987735
20
23.376209571510593
30
0
0
SPLINE
5
119
100
AcDbEntity
8
0
100
AcDbSpline
70
0
71
3
72
10
73
6
74
0
42
0.000000001
43
0.0000000001
44
0.0000000001
40
0
40
0
40
0
40
0
40
0.2343773013268694
40
0.2343773013268694
40
0.33929353030035736
40
0.33929353030035736
40
0.33929353030035736
40
0.33929353030035736
10
-12.73269726700256
20
19.960330579485763
30
0
10
-12.589247286042408
20
20.728305612672923
30
0
10
-12.330045380855656
20
21.690541602000586
30
0
10
-11.637915504637029
20
22.81355187461482
30
0
10
-11.376837249303389
20
23.127945396532859
30
0
10
-11.052753642987751
20
23.376209571510582
30
0
0
SPLINE
5
120
100
AcDbEntity
8
0
100
AcDbSpline
70
0
71
3
72
10
73
6
74
0
42
0.000000001
43
0.0000000001
44
0.0000000001
40
0
40
0
40
0
40
0
40
0.11163084453243191
40
0.11163084453243191
40
0.22456099334150309
40
0.22456099334150309
40
0.22456099334150309
40
0.22456099334150309
10
-12.938540085152873
20
17.725711608306721
30
0
10
-12.938540085152873
20
18.097814423414825
30
0
10
-12.921107483365022
20
18.471010054966492
30
0
10
-12.853103250160983
20
19.21485299241311
30
0
10
-12.801593694187428
20
19.591486083309249
30
0
10
-12.73269726700256
20
19.96033057948576
30
0
0
LINE
5
121
100
AcDbEntity
8
0
100
AcDbLine
10
-12.938540085152873
20
17.725711608306721
30
0
11
-12.938540085152873
21
-49.000000730156884
31
0
0
SPLINE
5
122
100
AcDbEntity
8
0
100
AcDbSpline
70
0
71
3
72
10
73
6
74
0
42
0.000000001
43
0.0000000001
44
0.0000000001
40
0
40
0
40
0
40
0
40
0.079969057320375722
40
0.079969057320375722
40
0.16351344551666525
40
0.16351344551666525
40
0.16351344551666525
40
0.16351344551666525
10
-12.739905706467676
20
-50.616718719568794
30
0
10
-12.806229707355222
20
-50.358538086198507
30
0
10
-12.855384024126927
20
-50.097143703038533
30
0
10
-12.922458912975156
20
-49.555959287058123
30
0
10
-12.938540085152873
20
-49.278709892108679
30
0
10
-12.938540085152873
20
-49.000000730156898
30
0
0
SPLINE
5
123
100
AcDbEntity
8
0
100
AcDbSpline
70
0
71
3
72
12
73
8
74
0
42
0.000000001
43
0.0000000001
44
0.0000000001
40
0
40
0
40
0
40
0
40
0.16836836982644121
40
0.16836836982644121
40
0.34625319799015614
40
0.34625319799015614
40
0.53776692808813265
40
0.53776692808813265
40
0.53776692808813265
40
0.53776692808813265
10
-9.109101145722434
20
-54.489399891684002
30
0
10
-9.6554802335357532
20
-54.361155408413481
30
0
10
-10.157149405307326
20
-54.134523075147136
30
0
10
-11.097610071669051
20
-53.472947920409396
30
0
10
-11.513000739194357
20
-53.039415015489482
30
0
10
-12.215424805357692
20
-52.036860720430198
30
0
10
-12.542410753811637
20
-51.38551088050356
30
0
10
-12.739905706467676
20
-50.616718719568816
30
0
0
LINE
5
124
100
AcDbEntity
8
0
100
AcDbLine
10
-9.109101145722434
20
-54.489399891684002
30
0
11
-9.1096292281839908
21
-54.616718719568809
31
0
0
LINE
5
125
100
AcDbEntity
8
0
100
AcDbLine
10
-9.1096292281839908
20
-54.616718719568809
30
0
11
-1.5950547713119168
21
-54.616718719568809
31
0
0
SPLINE
5
126
100
AcDbEntity
8
0
100
AcDbSpline
70
0
71
3
72
11
73
7
74
0
42
0.000000001
43
0.0000000001
44
0.0000000001
40
-1
40
-1
40
-1
40
-1
40
-0.82115989298640035
40
-0.82115989298640035
40
-0.82115989298640035
40
-0.63851820295347617
40
-0.63851820295347617
40
-0.63851820295347617
40
-0.63851820295347617
10
-1.5950547713119168
20
-54.616718719568809
30
0
10
-0.75971442033622261
20
-54.616718719568809
30
0
10
-0.28353193568900747
20
-54.759902202882216
30
0
10
0.22336572609860245
20
-55.031325281366428
30
0
10
0.74103845157726989
20
-55.308517968152991
30
0
10
1.3181170877042252
20
-55.791148060193507
30
0
10
1.9845203541853029
20
-56.55147411391583
30
0
0
SPLINE
5
127
100
AcDbEntity
8
0
100
AcDbSpline
70
0
71
3
72
12
73
8
74
0
42
0.000000001
43
0.0000000001
44
0.0000000001
40
0
40
0
40
0
40
0
40
0.32305661999932911
40
0.32305661999932911
40
0.67154477363177401
40
0.67154477363177401
40
0.79739786300013749
40
0.79739786300013749
40
0.79739786300013749
40
0.79739786300013749
10
10.467340166086899
20
-65.269933415778524
30
0
10
9.5000980928043468
20
-64.796583308377663
30
0
10
8.2959788224502411
20
-64.044868124732758
30
0
10
5.5076812316356785
20
-61.292699189795343
30
0
10
4.3466629216976731
20
-59.638280157987239
30
0
10
2.843896418704408
20
-57.61228639460343
30
0
10
2.4233049583805339
20
-57.056786738841438
30
0
10
1.9845203541853351
20
-56.551474113915873
30
0
0
SPLINE
5
128
100
AcDbEntity
8
0
100
AcDbSpline
70
0
71
3
72
10
73
6
74
0
42
0.000000001
43
0.0000000001
44
0.0000000001
40
0
40
0
40
0
40
0
40
0.17128231434988248
40
0.17128231434988248
40
0.33888342985490216
40
0.33888342985490216
40
0.33888342985490216
40
0.33888342985490216
10
13.678583456221794
20
-66.326953889446614
30
0
10
13.117237145838557
20
-66.222723376065431
30
0
10
12.561763664468097
20
-66.080190209329075
30
0
10
11.489250579582912
20
-65.726206413095298
30
0
10
10.968911270331446
20
-65.515392895490365
30
0
10
10.467340166086903
20
-65.269933415778524
30
0
0
SPLINE
5
129
100
AcDbEntity
8
0
100
AcDbSpline
70
0
71
3
72
10
73
6
74
0
42
0.000000001
43
0.0000000001
44
0.0000000001
40
0
40
0
40
0
40
0
40
0.054947818929103297
40
0.054947818929103297
40
0.10973044349420763
40
0.10973044349420763
40
0.10973044349420763
40
0.10973044349420763
10
14.764887226523468
20
-66.479838820749706
30
0
10
14.582565519287908
20
-66.462341404613653
30
0
10
14.400607567493758
20
-66.440771161336968
30
0
10
14.038417960684965
20
-66.389738056325953
30
0
10
13.858122427544785
20
-66.360290599436013
30
0
10
13.678583456227802
20
-66.326953889447722
30
0
0
LINE
5
130
100
AcDbEntity
8
0
100
AcDbLine
10
14.764887226523468
20
-66.479838820749706
30
0
11
51.273563264411251
21
-69.983576839097083
31
0
0
SPLINE
5
131
100
AcDbEntity
8
0
100
AcDbSpline
70
0
71
3
72
10
73
6
74
0
42
0.000000001
43
0.0000000001
44
0.0000000001
40
0
40
0
40
0
40
0
40
0.094555947227626641
40
0.094555947227626641
40
0.18912692222010388
40
0.18912692222010388
40
0.18912692222010388
40
0.18912692222010388
10
53.163756369979026
20
-69.929938205334636
30
0
10
52.852316703195967
20
-69.978392904909356
30
0
10
52.535541500842378
20
-70.006498963897585
30
0
10
51.905235868639949
20
-70.024090597033407
30
0
10
51.587355252712406
20
-70.013691459471772
30
0
10
51.273563264411251
20
-69.983576839097083
30
0
0
SPLINE
5
132
100
AcDbEntity
8
0
100
AcDbSpline
70
0
71
3
72
10
73
6
74
0
42
0.000000001
43
0.0000000001
44
0.0000000001
40
0
40
0
40
0
40
0
40
0.063673664319234852
40
0.063673664319234852
40
0.1295385747208409
40
0.1295385747208409
40
0.1295385747208409
40
0.1295385747208409
10
54.421689315030868
20
-69.617990077776227
30
0
10
54.220777673387289
20
-69.686420223060495
30
0
10
54.017261942618461
20
-69.746772383643872
30
0
10
53.598420071381732
20
-69.851762638261931
30
0
10
53.38240133972657
20
-69.895920777715105
30
0
10
53.163756369979026
20
-69.929938205334636
30
0
0
SPLINE
5
133
100
AcDbEntity
8
0
100
AcDbSpline
70
0
71
3
72
10
73
6
74
0
42
0.000000001
43
0.0000000001
44
0.0000000001
40
0
40
0
40
0
40
0
40
0.015471371810846474
40
0.015471371810846474
40
0.10737688154594578
40
0.10737688154594578
40
0.10737688154594578
40
0.10737688154594578
10
59.108173770916309
20
-66.666255363326485
30
0
10
59.061026148311413
20
-66.687152597899782
30
0
10
58.955148487429618
20
-66.745079286371848
30
0
10
57.812433082762304
20
-67.5207620319093
30
0
10
56.481545816166985
20
-68.916406642960027
30
0
10
54.421689315053435
20
-69.617990077768553
30
0
0
LINE
5
134
100
AcDbEntity
8
0
100
AcDbLine
10
59.108173770916309
20
-66.666255363326485
30
0
11
90.0723350274219
21
-66.666255363326457
31
0
0
SPLINE
5
135
100
AcDbEntity
8
0
100
AcDbSpline
70
0
71
3
72
8
73
4
74
0
42
0.000000001
43
0.0000000001
44
0.0000000001
40
0
40
0
40
0
40
0
40
0.11856548987200365
40
0.11856548987200365
40
0.11856548987200365
40
0.11856548987200365
10
90.0723350274219
20
-66.666255363326457
30
0
10
90.414209560767219
20
-66.666255363326457
30
0
10
90.758047509593794
20
-66.660673433934704
30
0
10
91.10855527901208
20
-66.645672404905909
30
0
0
SPLINE
5
136
100
AcDbEntity
8
0
100
AcDbSpline
70
0
71
3
72
17
73
13
74
0
42
0.000000001
43
0.0000000001
44
0.0000000001
40
0.11856548987200374
40
0.11856548987200374
40
0.11856548987200374
40
0.11856548987200374
40
0.36291265934012851
40
0.36291265934012851
40
0.36291265934012851
40
0.61976440982799463
40
0.61976440982799463
40
0.61976440982799463
40
0.80778318786144321
40
0.80778318786144321
40
0.80778318786144321
40
0.95574370616301241
40
0.95574370616301241
40
0.95574370616301241
40
0.95574370616301241
10
91.10855527901208
20
-66.645672404905895
30
0
10
91.830903589860384
20
-66.614757347023101
30
0
10
92.581579656983664
20
-66.543837920930002
30
0
10
93.40177770611399
20
-66.399328140391475
30
0
10
94.263949775159958
20
-66.247423004044975
30
0
10
95.218214862551932
20
-66.026310365646239
30
0
10
96.28695173264596
20
-65.462335562459728
30
0
10
97.069280838726414
20
-65.049498767945494
30
0
10
97.925470422249973
20
-64.406541921736931
30
0
10
98.586194716044389
20
-63.49394511380811
30
0
10
99.1061486801472
20
-62.77578122553156
30
0
10
99.465035860867275
20
-61.920936768983083
30
0
10
99.658895621825124
20
-61.080783803741781
30
0
0
SPLINE
5
137
100
AcDbEntity
8
0
100
AcDbSpline
70
0
71
3
72
8
73
4
74
0
42
0.000000001
43
0.0000000001
44
0.0000000001
40
0
40
0
40
0
40
0
40
0.080399005531781587
40
0.080399005531781587
40
0.080399005531781587
40
0.080399005531781587
10
99.788796730422177
20
-60.334656328270881
30
0
10
99.756866206250251
20
-60.600744029703847
30
0
10
99.71340820202056
20
-60.849112295917124
30
0
10
99.658895621825124
20
-61.080783803741809
30
0
0
LINE
5
138
100
AcDbEntity
8
0
100
AcDbLine
10
99.788796730422177
20
-60.334656328270881
30
0
11
102.78879677512566
21
-35.334655955741781
31
0
0
SPLINE
5
139
100
AcDbEntity
8
0
100
AcDbSpline
70
0
71
3
72
11
73
7
74
0
42
0.000000001
43
0.0000000001
44
0.0000000001
40
-1
40
-1
40
-1
40
-1
40
-0.67801271907320482
40
-0.67801271907320482
40
-0.67801271907320482
40
-0.14534287605048807
40
-0.14534287605048807
40
-0.14534287605048807
40
-0.14534287605048807
10
102.78879677512566
20
-35.334655955741781
30
0
10
103.05886661770167
20
-33.084073934275075
30
0
10
103.20800144039863
20
-30.835681661426161
30
0
10
103.27040996196048
20
-28.615002245336456
30
0
10
103.37365359719956
20
-24.941288946576634
30
0
10
103.27724782322886
20
-21.326259946594416
30
0
10
103.03618936160905
20
-17.713103776760892
30
0
0
SPLINE
5
140
100
AcDbEntity
8
0
100
AcDbSpline
70
0
71
3
72
8
73
4
74
0
42
0.000000001
43
0.0000000001
44
0.0000000001
40
-0.14534287605048793
40
-0.14534287605048793
40
-0.14534287605048793
40
-0.14534287605048793
40
-0.042162298250121626
40
-0.042162298250121626
40
-0.042162298250121626
40
-0.042162298250121626
10
103.03618936160905
20
-17.713103776760889
30
0
10
102.98949523826155
20
-17.01321894909573
30
0
10
102.937373535353
20
-16.313404392745966
30
0
10
102.88022397330606
20
-15.613247197567009
30
0
0
SPLINE
5
141
100
AcDbEntity
8
0
100
AcDbSpline
70
0
71
3
72
8
73
4
74
0
42
0.000000001
43
0.0000000001
44
0.0000000001
40
0
40
0
40
0
40
0
40
0.086160514161820287
40
0.086160514161820287
40
0.086160514161820287
40
0.086160514161820287
10
102.80767421611438
20
-14.754739444979776
30
0
10
102.83266719114923
20
-15.04085161817474
30
0
10
102.8568604946972
20
-15.32701390484489
30
0
10
102.88022397330593
20
-15.613247197565791
30
0
0
LINE
5
142
100
AcDbEntity
8
0
100
AcDbLine
10
102.80767421611438
20
-14.754739444979776
30
0
11
101.32179700736134
21
2.2551426000506769
31
0
0
SPLINE
5
143
100
AcDbEntity
8
0
100
AcDbSpline
70
4
71
5
72
13
73
7
74
0
42
0.000000001
43
0.0000000001
44
0.0000000001
40
-1
40
-1
40
-1
40
-1
40
-1
40
-1
40
-0.80000000000000004
40
-0.78778761763940253
40
-0.78778761763940253
40
-0.78778761763940253
40
-0.78778761763940253
40
-0.78778761763940253
40
-0.78778761763940253
41
1
41
1
41
1
41
1
41
1
41
1
41
1
10
101.32179700736134
20
2.2551426000506791
30
0
10
101.25136970624908
20
3.0613734767425749
30
0
10
101.19177122885515
20
3.9053664458774575
30
0
10
101.1482192093235
20
4.7372005489987163
30
0
10
101.12133665809111
20
5.5573859480879682
30
0
10
101.11303493875715
20
6.3662944263429821
30
0
10
101.11261910588537
20
6.4128081538020876
30
0
0
SPLINE
5
144
100
AcDbEntity
8
0
100
AcDbSpline
70
0
71
3
72
12
73
8
74
0
42
0.000000001
43
0.0000000001
44
0.0000000001
40
0.3754437681884768
40
0.3754437681884768
40
0.3754437681884768
40
0.3754437681884768
40
0.54160639714500647
40
0.54160639714500647
40
1.0123552197798036
40
1.0123552197798036
40
1.3722320472256351
40
1.3722320472256351
40
1.3722320472256351
40
1.3722320472256351
10
103.4064457483301
20
16.969482145140329
30
0
10
103.1205380131662
20
16.512984165470112
30
0
10
102.8617921908677
20
16.034395229410915
30
0
10
101.97520756490796
20
14.10137150196354
30
0
10
101.56254646535977
20
12.519866576935531
30
0
10
101.15885460345953
20
9.3312726518878559
30
0
10
101.09823614847285
20
7.8669880907516561
30
0
10
101.11261910588536
20
6.4128081538020911
30
0
0
LINE
5
145
100
AcDbEntity
8
0
100
AcDbLine
10
105.75924584845851
20
19.766013139087228
30
0
11
110.96135150937766
21
24.546464239728571
31
0
0
SPLINE
5
146
100
AcDbEntity
8
0
100
AcDbSpline
70
0
71
3
72
10
73
6
74
0
42
0.000000001
43
0.0000000001
44
0.0000000001
40
0
40
0
40
0
40
0
40
0.36453521781910175
40
0.36453521781910175
40
0.6982122768853265
40
0.6982122768853265
40
0.6982122768853265
40
0.6982122768853265
10
114.927308568437
20
31.53613686509533
30
0
10
114.74033073205037
20
30.335491385856784
30
0
10
114.31416810223294
20
29.158671518856938
30
0
10
113.21181467325448
20
27.102385872136576
30
0
10
112.38215571752085
20
25.852105740177041
30
0
10
110.96135150937764
20
24.546464239728571
30
0
0
SPLINE
5
147
100
AcDbEntity
8
0
100
AcDbSpline
70
0
71
3
72
12
73
8
74
0
42
0.000000001
43
0.0000000001
44
0.0000000001
40
0
40
0
40
0
40
0
40
0.33416163428397638
40
0.33416163428397638
40
0.50178689468344351
40
0.50178689468344351
40
0.66667014570218841
40
0.66667014570218841
40
0.66667014570218841
40
0.66667014570218841
10
113.27403343357588
20
37.73367771531251
30
0
10
113.95706960652828
20
36.853806887628707
30
0
10
114.48114600762838
20
35.896089017022327
30
0
10
114.91957322957268
20
34.282382625515176
30
0
10
115.00218817059228
20
33.733644342829628
30
0
10
115.04751353998577
20
32.627125324275461
30
0
10
115.0117530549297
20
32.07838236816378
30
0
10
114.92730856843698
20
31.53613686509533
30
0
0
LINE
5
148
100
AcDbEntity
8
0
100
AcDbLine
10
113.27403343357588
20
37.73367771531251
30
0
11
104.59420128744279
21
48.914829456608274
31
0
0
SPLINE
5
149
100
AcDbEntity
8
0
100
AcDbSpline
70
4
71
5
72
13
73
7
74
0
42
0.000000001
43
0.0000000001
44
0.0000000001
40
0
40
0
40
0
40
0
40
0
40
0
40
0.20000000000000001
40
0.23048492457131964
40
0.23048492457131964
40
0.23048492457131964
40
0.23048492457131964
40
0.23048492457131964
40
0.23048492457131964
41
1
41
1
41
1
41
1
41
1
41
1
41
1
10
104.59420128744279
20
48.91482945660826
30
0
10
104.19667033667365
20
49.426919299773211
30
0
10
103.71073575596236
20
49.911835634862513
30
0
10
103.19278440167459
20
50.275595616961695
30
0
10
102.64622596504535
20
50.528477045968629
30
0
10
102.07584748529018
20
50.683537907497239
30
0
10
102.00000151992
20
50.702366539387356
30
0
0
SPLINE
5
150
100
AcDbEntity
8
0
100
AcDbSpline
70
4
71
5
72
12
73
6
74
0
42
0.000000001
43
0.0000000001
44
0.0000000001
40
0.23048492457144729
40
0.23048492457144729
40
0.23048492457144729
40
0.23048492457144729
40
0.23048492457144729
40
0.23048492457144729
40
0.25997235190556878
40
0.25997235190556878
40
0.25997235190556878
40
0.25997235190556878
40
0.25997235190556878
40
0.25997235190556878
41
1
41
1
41
1
41
1
41
1
41
1
10
102.00000151991846
20
50.702366539387768
30
0
10
101.92663731043167
20
50.720579079601237
30
0
10
101.85289392663441
20
50.737219405650002
30
0
10
101.7787817241795
20
50.752315459759984
30
0
10
101.70431137931958
20
50.765895762977934
30
0
10
101.62949384209489
20
50.777989254604066
30
0
0
SPLINE
5
151
100
AcDbEntity
8
0
100
AcDbSpline
70
0
71
3
72
12
73
8
74
0
42
0.000000001
43
0.0000000001
44
0.0000000001
40
0.55462319367094315
40
0.55462319367094315
40
0.55462319367094315
40
0.55462319367094315
40
0.80409092818125838
40
0.80409092818125838
40
0.93208684284392895
40
0.93208684284392895
40
1.0178715438838775
40
1.0178715438838775
40
1.0178715438838775
40
1.0178715438838775
10
97.028749340522182
20
49.944360810465291
30
0
10
97.809414837016618
20
50.266315804362705
30
0
10
98.649750207491437
20
50.550470366215364
30
0
10
99.900750101204608
20
50.789145736971342
30
0
10
100.33459146852587
20
50.839547696595098
30
0
10
101.05651400444886
20
50.843787729355753
30
0
10
101.34475363175652
20
50.824009485733228
30
0
10
101.62949384209469
20
50.777989254604094
30
0
0
SPLINE
5
152
100
AcDbEntity
8
0
100
AcDbSpline
70
4
71
5
72
12
73
6
74
0
42
0.000000001
43
0.0000000001
44
0.0000000001
40
0
40
0
40
0
40
0
40
0
40
0
40
0.093734536076032951
40
0.093734536076032951
40
0.093734536076032951
40
0.093734536076032951
40
0.093734536076032951
40
0.093734536076032951
41
1
41
1
41
1
41
1
41
1
41
1
10
91.931997074059012
20
47.129834576059352
30
0
10
91.652683664480051
20
46.938993028653719
30
0
10
91.371631347941985
20
46.754481172242102
30
0
10
91.088841214760123
20
46.576297401367022
30
0
10
90.804376374748927
20
46.404452837202484
30
0
10
90.518348959738688
20
46.238997161067097
30
0
0
SPLINE
5
153
100
AcDbEntity
8
0
100
AcDbSpline
70
0
71
3
72
8
73
4
74
0
42
0.000000001
43
0.0000000001
44
0.0000000001
40
0.54277676808483832
40
0.54277676808483832
40
0.54277676808483832
40
0.54277676808483832
40
0.7515201238606517
40
0.7515201238606517
40
0.7515201238606517
40
0.7515201238606517
10
88.087137234660688
20
45.03719075104749
30
0
10
88.871842679180702
20
45.359328091285477
30
0
10
89.688056986103931
20
45.758132115694721
30
0
10
90.518348959738688
20
46.238997161067097
30
0
0
SPLINE
5
154
100
AcDbEntity
8
0
100
AcDbSpline
70
0
71
3
72
12
73
8
74
0
42
0.000000001
43
0.0000000001
44
0.0000000001
40
0
40
0
40
0
40
0
40
0.31977148973429409
40
0.31977148973429409
40
0.50977069439153899
40
0.50977069439153899
40
0.69307610763794447
40
0.69307610763794447
40
0.69307610763794447
40
0.69307610763794447
10
77.550347136235771
20
47.464440663741627
30
0
10
78.081894283324033
20
46.54052993942954
30
0
10
78.703830845953291
20
45.76411930834098
30
0
10
79.905350071944213
20
44.827919661970405
30
0
10
80.392133536277598
20
44.551902276128878
30
0
10
81.434966356931454
20
44.15628640412163
30
0
10
81.967225104631098
20
44.039469191093218
30
0
10
82.511842564805832
20
43.985072900194226
30
0
0
SPLINE
5
155
100
AcDbEntity
8
0
100
AcDbSpline
70
0
71
3
72
10
73
6
74
0
42
0.000000001
43
0.0000000001
44
0.0000000001
40
0
40
0
40
0
40
0
40
0.4558640950132492
40
0.4558640950132492
40
0.99583828309972411
40
0.99583828309972411
40
0.99583828309972411
40
0.99583828309972411
10
72.135477624434898
20
55.95182653123085
30
0
10
73.075278631837691
20
54.757759070332447
30
0
10
73.982954815028023
20
53.386030549029194
30
0
10
75.697271161452747
20
50.651447955213015
30
0
10
76.72498206456379
20
48.899052147158628
30
0
10
77.550347136235771
20
47.464440663741627
30
0
0
SPLINE
5
156
100
AcDbEntity
8
0
100
AcDbSpline
70
0
71
3
72
14
73
10
74
0
42
0.000000001
43
0.0000000001
44
0.0000000001
40
0
40
0
40
0
40
0
40
0.077975535102924404
40
0.077975535102924404
40
0.1560818166005043
40
0.1560818166005043
40
0.22021906144771219
40
0.22021906144771219
40
0.28432615194875632
40
0.28432615194875632
40
0.28432615194875632
40
0.28432615194875632
10
69.580837247653406
20
56.456615490386035
30
0
10
69.807192154148467
20
56.584369383220512
30
0
10
70.056295687468349
20
56.666781318539591
30
0
10
70.57249802193185
20
56.731734033290181
30
0
10
70.834694003864811
20
56.713486500296668
30
0
10
71.292394977824813
20
56.589698848505073
30
0
10
71.488492930783224
20
56.501151638831544
30
0
10
71.845091693114995
20
56.265402982838566
30
0
10
72.003315629459635
20
56.119745416744173
30
0
10
72.135477624434898
20
55.95182653123085
30
0
0
LINE
5
157
100
AcDbEntity
8
0
100
AcDbLine
10
69.580837247653406
20
56.456615490386035
30
0
11
68.009341450188131
21
55.569668930190417
31
0
0
SPLINE
5
158
100
AcDbEntity
8
0
100
AcDbSpline
70
0
71
3
72
10
73
6
74
0
42
0.000000001
43
0.0000000001
44
0.0000000001
40
0
40
0
40
0
40
0
40
0.76667619274806109
40
0.76667619274806109
40
2.8802306932773343
40
2.8802306932773343
40
2.8802306932773343
40
2.8802306932773343
10
61.88461089187912
20
48.839642281496978
30
0
10
63.336001296961626
20
50.943090019563016
30
0
10
64.218449151389919
20
52.05223919073709
30
0
10
65.794556103906658
20
53.951788493847516
30
0
10
66.834285696479228
20
54.906471700855633
30
0
10
68.009341450188131
20
55.56966893019041
30
0
0
ARC
5
159
100
AcDbEntity
8
0
100
AcDbCircle
10
66.000000983476653
20
46.000000685453408
30
0
40
4.9999999999999973
210
0
220
0
230
1
100
AcDbArc
50
145.39411286621365
51
259.38956289542358
0
SPLINE
5
160
100
AcDbEntity
8
0
100
AcDbSpline
70
0
71
3
72
18
73
14
74
0
42
0.000000001
43
0.0000000001
44
0.0000000001
40
0.010571421451143901
40
0.010571421451143901
40
0.010571421451143901
40
0.010571421451143901
40
0.26546920555023157
40
0.26546920555023157
40
0.50238646777553797
40
0.50238646777553797
40
0.79969563085645334
40
0.79969563085645334
40
1.1544201963686633
40
1.1544201963686633
40
1.325477497662209
40
1.325477497662209
40
1.5011064567141559
40
1.5011064567141559
40
1.5011064567141559
40
1.5011064567141559
10
71.590194521751485
20
29.465252459007999
30
0
10
71.999348489018132
20
30.207091493383604
30
0
10
72.274140405780301
20
30.990044739489775
30
0
10
72.473851641630318
20
32.615104141160799
30
0
10
72.414852496964187
20
33.396228791908648
30
0
10
72.003145909268355
20
35.12212880694269
30
0
10
71.58137946070832
20
36.048435012227451
30
0
10
70.417095120738594
20
37.871612247728891
30
0
10
69.561129172727249
20
38.834321964002704
30
0
10
68.013046837549197
20
39.962262521887993
30
0
10
67.474833087549783
20
40.275430827840992
30
0
10
66.316220587786802
20
40.783022460649306
30
0
10
65.709974109276516
20
40.967354377364479
30
0
10
65.079348979122869
20
41.085491565828207
30
0
0
SPLINE
5
161
100
AcDbEntity
8
0
100
AcDbSpline
70
4
71
5
72
12
73
6
74
0
42
0.000000001
43
0.0000000001
44
0.0000000001
40
0.99380294505120603
40
0.99380294505120603
40
0.99380294505120603
40
0.99380294505120603
40
0.99380294505120603
40
0.99380294505120603
40
1
40
1
40
1
40
1
40
1
40
1
41
1
41
1
41
1
41
1
41
1
41
1
10
71.590194521751499
20
29.465252459008013
30
0
10
71.580035157109194
20
29.446832419825629
30
0
10
71.569795744866624
20
29.428413554764123
30
0
10
71.559476272959131
20
29.409995866652526
30
0
10
71.549076734191544
20
29.39157935701882
30
0
10
71.538597126366568
20
29.37316402608073
30
0
0
SPLINE
5
162
100
AcDbEntity
8
0
100
AcDbSpline
70
4
71
5
72
12
73
6
74
0
42
0.000000001
43
0.0000000001
44
0.0000000001
40
-0.71204107986479037
40
-0.71204107986479037
40
-0.71204107986479037
40
-0.71204107986479037
40
-0.71204107986479037
40
-0.71204107986479037
40
-0.63561482578420414
40
-0.63561482578420414
40
-0.63561482578420414
40
-0.63561482578420414
40
-0.63561482578420414
40
-0.63561482578420414
41
1
41
1
41
1
41
1
41
1
41
1
10
71.538597126366582
20
29.37316402608073
30
0
10
71.210880292752293
20
28.797282366596512
30
0
10
70.875818434095777
20
28.201294616586353
30
0
10
70.533995314531211
20
27.587595177432668
30
0
10
70.186020822527539
20
26.958723217478465
30
0
10
69.832513587324812
20
26.317303069141452
30
0
0
SPLINE
5
163
100
AcDbEntity
8
0
100
AcDbSpline
70
0
71
3
72
8
73
4
74
0
42
0.000000001
43
0.0000000001
44
0.0000000001
40
0.90696487808918935
40
0.90696487808918935
40
0.90696487808918935
40
0.90696487808918935
40
1.9528705118733156
40
1.9528705118733156
40
1.9528705118733156
40
1.9528705118733156
10
61.99906929756223
20
12.812437468958802
30
0
10
64.628110324145652
20
16.717640004262428
30
0
10
67.348547592611183
20
21.808188503365884
30
0
10
69.832513587324812
20
26.317303069141445
30
0
0
SPLINE
5
164
100
AcDbEntity
8
0
100
AcDbSpline
70
4
71
5
72
12
73
6
74
0
42
0.000000001
43
0.0000000001
44
0.0000000001
40
-0.31903505659684706
40
-0.31903505659684706
40
-0.31903505659684706
40
-0.31903505659684706
40
-0.31903505659684706
40
-0.31903505659684706
40
-0.24061078460021218
40
-0.24061078460021218
40
-0.24061078460021218
40
-0.24061078460021218
40
-0.24061078460021218
40
-0.24061078460021218
41
1
41
1
41
1
41
1
41
1
41
1
10
61.99906929756223
20
12.812437468958802
30
0
10
61.606626359236444
20
12.229147943568952
30
0
10
61.216104520513696
20
11.668278222979541
30
0
10
60.828060197237548
20
11.132613982316645
30
0
10
60.443014816089793
20
10.624819321127173
30
0
10
60.061443207415017
20
10.147361840505596
30
0
0
SPLINE
5
165
100
AcDbEntity
8
0
100
AcDbSpline
70
0
71
3
72
8
73
4
74
0
42
0.000000001
43
0.0000000001
44
0.0000000001
40
0.65038976075234745
40
0.65038976075234745
40
0.65038976075234745
40
0.65038976075234745
40
1.2689124568467525
40
1.2689124568467525
40
1.2689124568467525
40
1.2689124568467525
10
72.090796449160251
20
25.071936415251741
30
0
10
70.174441424390338
20
21.655961190201147
30
0
10
68.075537060769832
20
17.717173112353919
30
0
10
65.917362302089103
20
14.160135232744688
30
0
0
SPLINE
5
166
100
AcDbEntity
8
0
100
AcDbSpline
70
4
71
3
72
8
73
4
74
0
42
0.000000001
43
0.0000000001
44
0.0000000001
40
0.10337853250734044
40
0.10337853250734044
40
0.10337853250734044
40
0.10337853250734044
40
1
40
1
40
1
40
1
41
1
41
1
41
1
41
1
10
72.09079644916028
20
25.071936415251738
30
0
10
76.290095699369004
20
22.694255977177246
30
0
10
76.063200464425279
20
22.064471097084486
30
0
10
73.868400156850626
20
15.972443431204777
30
0
0
SPLINE
5
167
100
AcDbEntity
8
0
100
AcDbSpline
70
4
71
3
72
8
73
4
74
0
42
0.000000001
43
0.0000000001
44
0.0000000001
40
0
40
0
40
0
40
0
40
0.31956596151532374
40
0.31956596151532374
40
0.31956596151532374
40
0.31956596151532374
41
1
41
1
41
1
41
1
10
73.868400156850626
20
15.972443431204777
30
0
10
73.086148676094098
20
13.801176347817956
30
0
10
72.55387814193233
20
12.323772317640216
30
0
10
72.103964417135387
20
11.295399308439308
30
0
0
ARC
5
168
100
AcDbEntity
8
0
100
AcDbCircle
10
66.322013988602819
20
6.9214366609087818
30
0
40
7.2500000000000071
210
0
220
-0
230
1
100
AcDbArc
50
37.106983207364848
51
93.199570800386226
0
ARC
5
169
100
AcDbEntity
8
0
100
AcDbCircle
10
66.322013988602819
20
6.9214366609087818
30
0
40
7.2500000000000089
210
0
220
0
230
1
100
AcDbArc
50
192.30621639958855
51
224.11773954137229
0
SPLINE
5
170
100
AcDbEntity
8
0
100
AcDbSpline
70
4
71
3
72
8
73
4
74
0
42
0.000000001
43
0.0000000001
44
0.0000000001
40
0.0035380409564491353
40
0.0035380409564491353
40
0.0035380409564491353
40
0.0035380409564491353
40
1
40
1
40
1
40
1
41
1
41
1
41
1
41
1
10
61.117160692834517
20
1.8744571513872739
30
0
10
58.755984072280256
20
-1.9908102011125994
30
0
10
58.738147135174259
20
-1.9910718379521664
30
0
10
53.696674375091987
20
-2.0650214735803729
30
0
0
SPLINE
5
171
100
AcDbEntity
8
0
100
AcDbSpline
70
4
71
3
72
8
73
4
74
0
42
0.000000001
43
0.0000000001
44
0.0000000001
40
0
40
0
40
0
40
0
40
0.98945411324266674
40
0.98945411324266674
40
0.98945411324266674
40
0.98945411324266674
41
1
41
1
41
1
41
1
10
53.696674375091987
20
-2.0650214735803729
30
0
10
48.690656921046617
20
-2.1384510415443692
30
0
10
48.637864027871025
20
-2.1392254214527577
30
0
10
45.485189663408008
20
3.3142619968596625
30
0
0
LINE
5
172
100
AcDbEntity
8
0
100
AcDbLine
10
45.485189663408008
20
3.3142619968596625
30
0
11
54.634164656573383
21
3.2749588615482041
31
0
0
SPLINE
5
173
100
AcDbEntity
8
0
100
AcDbSpline
70
0
71
3
72
14
73
10
74
0
42
0.000000001
43
0.0000000001
44
0.0000000001
40
1.9042518299269673
40
1.9042518299269673
40
1.9042518299269673
40
1.9042518299269673
40
1.908917720734173
40
1.908917720734173
40
2.1067424538142152
40
2.1067424538142152
40
2.1936642813426022
40
2.1936642813426022
40
2.2760043272878026
40
2.2760043272878026
40
2.2760043272878026
40
2.2760043272878026
10
59.238601143008353
20
5.3761978297700637
30
0
10
59.222370180263951
20
5.3619573009388022
30
0
10
59.206139700587869
20
5.3477815365329606
30
0
10
58.501788343403902
20
4.7354019666347282
30
0
10
57.728331344506223
20
4.1790743349775763
30
0
10
56.531915370933412
20
3.6300787339209957
30
0
10
56.152940511233815
20
3.4949276523172768
30
0
10
55.390500452352747
20
3.318061632484457
30
0
10
55.014963870125257
20
3.2733229839741678
30
0
10
54.63416465657339
20
3.2749588615482028
30
0
0
ARC
5
174
100
AcDbEntity
8
0
100
AcDbCircle
10
66.322013988602819
20
6.9214366609087818
30
0
40
7.2500000000000071
210
0
220
0
230
1
100
AcDbArc
50
257.94960788081335
51
340.04603212186316
0
SPLINE
5
175
100
AcDbEntity
8
0
100
AcDbSpline
70
4
71
3
72
8
73
4
74
0
42
0.000000001
43
0.0000000001
44
0.0000000001
40
0.57860391860754545
40
0.57860391860754545
40
0.57860391860754545
40
0.57860391860754545
40
1
40
1
40
1
40
1
41
1
41
1
41
1
41
1
10
73.136775467965563
20
4.4472648844563434
30
0
10
73.961960219141062
20
4.1326735979006033
30
0
10
75.040428142905085
20
3.4974358881824381
30
0
10
76.904342107330763
20
2.3995558198156175
30
0
0
SPLINE
5
176
100
AcDbEntity
8
0
100
AcDbSpline
70
4
71
3
72
8
73
4
74
0
42
0.000000001
43
0.0000000001
44
0.0000000001
40
0
40
0
40
0
40
0
40
1
40
1
40
1
40
1
41
1
41
1
41
1
41
1
10
76.904342107330763
20
2.3995558198156175
30
0
10
81.327529808238168
20
-0.20578418415166055
30
0
10
81.327529808238168
20
-0.20578418415166055
30
0
10
81.968357940867548
20
-5.2108646615483067
30
0
0
SPLINE
5
177
100
AcDbEntity
8
0
100
AcDbSpline
70
4
71
3
72
8
73
4
74
0
42
0.000000001
43
0.0000000001
44
0.0000000001
40
0
40
0
40
0
40
0
40
1
40
1
40
1
40
1
41
1
41
1
41
1
41
1
10
81.968357940867548
20
-5.2108646615483067
30
0
10
82.609186073496943
20
-10.215945138944953
30
0
10
82.609186073496943
20
-10.215945138944953
30
0
10
80.418694778636109
20
-12.659602505379688
30
0
0
SPLINE
5
178
100
AcDbEntity
8
0
100
AcDbSpline
70
4
71
3
72
8
73
4
74
0
42
0.000000001
43
0.0000000001
44
0.0000000001
40
0
40
0
40
0
40
0
40
1
40
1
40
1
40
1
41
1
41
1
41
1
41
1
10
80.418694778636109
20
-12.659602505379688
30
0
10
78.22820348377526
20
-15.103259871814423
30
0
10
78.22820348377526
20
-15.103259871814423
30
0
10
72.529956337168812
20
-14.102828365975402
30
0
0
SPLINE
5
179
100
AcDbEntity
8
0
100
AcDbSpline
70
4
71
3
72
8
73
4
74
0
42
0.000000001
43
0.0000000001
44
0.0000000001
40
0
40
0
40
0
40
0
40
1
40
1
40
1
40
1
41
1
41
1
41
1
41
1
10
72.529956337168812
20
-14.102828365975402
30
0
10
66.831701116119831
20
-13.102388785693826
30
0
10
66.831701116119831
20
-13.102388785693826
30
0
10
64.581571988617384
20
-8.6630683485803672
30
0
0
SPLINE
5
180
100
AcDbEntity
8
0
100
AcDbSpline
70
4
71
3
72
8
73
4
74
0
42
0.000000001
43
0.0000000001
44
0.0000000001
40
0
40
0
40
0
40
0
40
1
40
1
40
1
40
1
41
1
41
1
41
1
41
1
10
64.581571988617384
20
-8.6630683485803672
30
0
10
62.331434786672389
20
-4.2237479114669263
30
0
10
62.331434786672389
20
-4.2237479114669263
30
0
10
64.717787834361204
20
-0.31716304462529266
30
0
0
LINE
5
181
100
AcDbEntity
8
0
100
AcDbLine
10
64.717787834361204
20
-0.31716304462529221
30
0
11
64.808417718521326
21
-0.16880496622886598
31
0
0
ARC
5
182
100
AcDbEntity
8
0
100
AcDbCircle
10
-6.0009711696083006
20
15.97503485020075
30
0
40
5
210
0
220
0
230
1
100
AcDbArc
50
300.53401373134278
51
352.75517822116012
0
SPLINE
5
183
100
AcDbEntity
8
0
100
AcDbSpline
70
0
71
3
72
12
73
8
74
0
42
0.000000001
43
0.0000000001
44
0.0000000001
40
0.24427103792360857
40
0.24427103792360857
40
0.24427103792360857
40
0.24427103792360857
40
0.36422422782092867
40
0.36422422782092867
40
0.65163666509629503
40
0.65163666509629503
40
0.96896170953782412
40
0.96896170953782412
40
0.96896170953782412
40
0.96896170953782412
10
1.4377574660953607
20
19.343174796283687
30
0
10
1.1351014812777289
20
19.158415266286664
30
0
10
0.88808484580373148
20
18.957734287674835
30
0
10
0.22786922978698781
20
18.347033591626928
30
0
10
-0.18558380157964827
20
17.802676213146107
30
0
10
-0.83541249578922383
20
16.488167266573132
30
0
10
-0.97720597978504642
20
15.845442617891599
30
0
10
-1.0408894140399316
20
15.344488279297517
30
0
0
SPLINE
5
184
100
AcDbEntity
8
0
100
AcDbSpline
70
4
71
3
72
8
73
4
74
0
42
0.000000001
43
0.0000000001
44
0.0000000001
40
0.29128422978479668
40
0.29128422978479668
40
0.29128422978479668
40
0.29128422978479668
40
1
40
1
40
1
40
1
41
1
41
1
41
1
41
1
10
1.4377574660953614
20
19.343174796283684
30
0
10
2.1094187381162692
20
18.054740566831672
30
0
10
1.6950182948089354
20
16.526489538950834
30
0
10
0.27235135670007793
20
11.279892326977077
30
0
0
SPLINE
5
185
100
AcDbEntity
8
0
100
AcDbSpline
70
4
71
3
72
8
73
4
74
0
42
0.000000001
43
0.0000000001
44
0.0000000001
40
0
40
0
40
0
40
0
40
0.085231926830197646
40
0.085231926830197646
40
0.085231926830197646
40
0.085231926830197646
41
1
41
1
41
1
41
1
10
0.27235135670007793
20
11.279892326977077
30
0
10
0.10125788105212299
20
10.648924143773989
30
0
10
-0.055252967998281249
20
10.071734594593853
30
0
10
-0.20216231079836694
20
9.5432345216617414
30
0
0
ARC
5
186
100
AcDbEntity
8
0
100
AcDbCircle
10
-5.6466962670135459
20
4.7557978380470187
30
0
40
7.2500000000000044
210
0
220
-0
230
1
100
AcDbArc
50
41.325510290312437
51
72.451460516026543
0
SPLINE
5
187
100
AcDbEntity
8
0
100
AcDbSpline
70
4
71
3
72
8
73
4
74
0
42
0.000000001
43
0.0000000001
44
0.0000000001
40
0
40
0
40
0
40
0
40
1
40
1
40
1
40
1
41
1
41
1
41
1
41
1
10
46.766218849375853
20
-22.395022478117301
30
0
10
41.641911153351273
20
-16.607044051501934
30
0
10
41.641911153351273
20
-16.607044051501934
30
0
10
45.123586555674677
20
-11.588689190560348
30
0
0
SPLINE
5
188
100
AcDbEntity
8
0
100
AcDbSpline
70
4
71
3
72
8
73
4
74
0
42
0.000000001
43
0.0000000001
44
0.0000000001
40
0
40
0
40
0
40
0
40
1
40
1
40
1
40
1
41
1
41
1
41
1
41
1
10
45.123586555674677
20
-11.588689190560348
30
0
10
48.605261957998081
20
-6.5703262551762442
30
0
10
48.605261957998081
20
-6.5703262551762442
30
0
10
53.66463498707116
20
-6.4961221281824244
30
0
0
SPLINE
5
189
100
AcDbEntity
8
0
100
AcDbSpline
70
4
71
3
72
8
73
4
74
0
42
0.000000001
43
0.0000000001
44
0.0000000001
40
0
40
0
40
0
40
0
40
1
40
1
40
1
40
1
41
1
41
1
41
1
41
1
10
53.66463498707116
20
-6.4961221281824244
30
0
10
58.724008016144239
20
-6.4219099267460678
30
0
10
58.724008016144239
20
-6.4219099267460678
30
0
10
60.974137143646686
20
-10.861230363859509
30
0
0
SPLINE
5
190
100
AcDbEntity
8
0
100
AcDbSpline
70
4
71
3
72
8
73
4
74
0
42
0.000000001
43
0.0000000001
44
0.0000000001
40
0
40
0
40
0
40
0
40
1
40
1
40
1
40
1
41
1
41
1
41
1
41
1
10
60.974137143646686
20
-10.861230363859509
30
0
10
63.224274345591667
20
-15.30055080097295
30
0
10
63.224274345591667
20
-15.30055080097295
30
0
10
59.091443598623087
20
-21.427203645719839
30
0
0
SPLINE
5
191
100
AcDbEntity
8
0
100
AcDbSpline
70
4
71
3
72
8
73
4
74
0
42
0.000000001
43
0.0000000001
44
0.0000000001
40
0
40
0
40
0
40
0
40
1
40
1
40
1
40
1
41
1
41
1
41
1
41
1
10
59.091443598623087
20
-21.427203645719839
30
0
10
54.958620926097041
20
-27.553856490466746
30
0
10
54.958620926097041
20
-27.553856490466746
30
0
10
53.424573735748737
20
-27.868428697599725
30
0
0
SPLINE
5
192
100
AcDbEntity
8
0
100
AcDbSpline
70
4
71
3
72
8
73
4
74
0
42
0.000000001
43
0.0000000001
44
0.0000000001
40
0
40
0
40
0
40
0
40
1
40
1
40
1
40
1
41
1
41
1
41
1
41
1
10
53.424573735748737
20
-27.868428697599725
30
0
10
51.890526545400419
20
-28.183000904732705
30
0
10
51.890526545400419
20
-28.183000904732705
30
0
10
46.766218849375853
20
-22.395022478117301
30
0
0
SPLINE
5
193
100
AcDbEntity
8
0
100
AcDbSpline
70
4
71
3
72
8
73
4
74
0
42
0.000000001
43
0.0000000001
44
0.0000000001
40
0
40
0
40
0
40
0
40
1
40
1
40
1
40
1
41
1
41
1
41
1
41
1
10
96.339484942312055
20
31.088179375316916
30
0
10
103.16090319589279
20
29.680295349743187
30
0
10
103.16090319589279
20
29.680295349743187
30
0
10
104.10847132638594
20
26.313131691601093
30
0
0
SPLINE
5
194
100
AcDbEntity
8
0
100
AcDbSpline
70
4
71
3
72
8
73
4
74
0
42
0.000000001
43
0.0000000001
44
0.0000000001
40
0
40
0
40
0
40
0
40
1
40
1
40
1
40
1
41
1
41
1
41
1
41
1
10
104.10847132638594
20
26.313131691601093
30
0
10
105.05603541965783
20
22.94596803345901
30
0
10
105.05603541965783
20
22.94596803345901
30
0
10
100.4953762971908
20
18.806645434683773
30
0
0
SPLINE
5
195
100
AcDbEntity
8
0
100
AcDbSpline
70
4
71
3
72
8
73
4
74
0
42
0.000000001
43
0.0000000001
44
0.0000000001
40
0
40
0
40
0
40
0
40
1
40
1
40
1
40
1
41
1
41
1
41
1
41
1
10
100.4953762971908
20
18.806645434683773
30
0
10
95.934713137502456
20
14.667330910351097
30
0
10
95.934713137502456
20
14.667330910351097
30
0
10
90.368563870941614
20
19.73582805950068
30
0
0
SPLINE
5
196
100
AcDbEntity
8
0
100
AcDbSpline
70
4
71
3
72
8
73
4
74
0
42
0.000000001
43
0.0000000001
44
0.0000000001
40
0
40
0
40
0
40
0
40
1
40
1
40
1
40
1
41
1
41
1
41
1
41
1
10
90.368563870941614
20
19.73582805950068
30
0
10
84.802414604380743
20
24.804325208650255
30
0
10
84.802414604380743
20
24.804325208650255
30
0
10
87.160240646556019
20
28.650190267549178
30
0
0
SPLINE
5
197
100
AcDbEntity
8
0
100
AcDbSpline
70
4
71
3
72
8
73
4
74
0
42
0.000000001
43
0.0000000001
44
0.0000000001
40
0
40
0
40
0
40
0
40
1
40
1
40
1
40
1
41
1
41
1
41
1
41
1
10
87.160240646556019
20
28.650190267549178
30
0
10
89.518066688731324
20
32.496063400890655
30
0
10
89.518066688731324
20
32.496063400890655
30
0
10
96.339484942312055
20
31.088179375316916
30
0
0
SPLINE
5
198
100
AcDbEntity
8
0
100
AcDbSpline
70
4
71
3
72
8
73
4
74
0
42
0.000000001
43
0.0000000001
44
0.0000000001
40
0
40
0
40
0
40
0
40
1
40
1
40
1
40
1
41
1
41
1
41
1
41
1
10
98.084565763031435
20
-36.150210816079138
30
0
10
98.136484428599459
20
-36.374417899463332
30
0
10
98.136484428599459
20
-36.374417899463332
30
0
10
94.660925416504327
20
-42.750583130532277
30
0
0
SPLINE
5
199
100
AcDbEntity
8
0
100
AcDbSpline
70
4
71
3
72
8
73
4
74
0
42
0.000000001
43
0.0000000001
44
0.0000000001
40
0
40
0
40
0
40
0
40
1
40
1
40
1
40
1
41
1
41
1
41
1
41
1
10
94.660925416504327
20
-42.750583130532277
30
0
10
91.185370441630482
20
-49.126748361601202
30
0
10
91.185370441630482
20
-49.126748361601202
30
0
10
83.441548057749884
20
-47.707019128813108
30
0
0
SPLINE
5
200
100
AcDbEntity
8
0
100
AcDbSpline
70
4
71
3
72
8
73
4
74
0
42
0.000000001
43
0.0000000001
44
0.0000000001
40
0
40
0
40
0
40
0
40
1
40
1
40
1
40
1
41
1
41
1
41
1
41
1
10
83.441548057749884
20
-47.707019128813108
30
0
10
75.697721636647969
20
-46.287289896025015
30
0
10
75.697721636647969
20
-46.287289896025015
30
0
10
75.228249323720732
20
-43.125507758472125
30
0
0
SPLINE
5
201
100
AcDbEntity
8
0
100
AcDbSpline
70
4
71
3
72
8
73
4
74
0
42
0.000000001
43
0.0000000001
44
0.0000000001
40
0
40
0
40
0
40
0
40
1
40
1
40
1
40
1
41
1
41
1
41
1
41
1
10
75.228249323720732
20
-43.125507758472125
30
0
10
74.75877701079348
20
-39.963729658140501
30
0
10
74.75877701079348
20
-39.963729658140501
30
0
10
78.649099950348329
20
-35.238226753884319
30
0
0
SPLINE
5
202
100
AcDbEntity
8
0
100
AcDbSpline
70
4
71
3
72
8
73
4
74
0
42
0.000000001
43
0.0000000001
44
0.0000000001
40
0
40
0
40
0
40
0
40
1
40
1
40
1
40
1
41
1
41
1
41
1
41
1
10
78.649099950348329
20
-35.238226753884319
30
0
10
82.539422889903193
20
-30.512727886849405
30
0
10
82.539422889903193
20
-30.512727886849405
30
0
10
90.286034993683302
20
-33.219369846993452
30
0
0
SPLINE
5
203
100
AcDbEntity
8
0
100
AcDbSpline
70
4
71
3
72
8
73
4
74
0
42
0.000000001
43
0.0000000001
44
0.0000000001
40
0
40
0
40
0
40
0
40
1
40
1
40
1
40
1
41
1
41
1
41
1
41
1
10
90.286034993683302
20
-33.219369846993452
30
0
10
98.032647097463411
20
-35.926007769916225
30
0
10
98.032647097463411
20
-35.926007769916225
30
0
10
98.084565763031435
20
-36.150210816079138
30
0
0
SPLINE
5
204
100
AcDbEntity
8
0
100
AcDbSpline
70
4
71
3
72
8
73
4
74
0
42
0.000000001
43
0.0000000001
44
0.0000000001
40
0
40
0
40
0
40
0
40
1
40
1
40
1
40
1
41
1
41
1
41
1
41
1
10
62.947555125112338
20
-36.288247448616971
30
0
10
69.790096120392292
20
-40.449960476571079
30
0
10
69.790096120392292
20
-40.449960476571079
30
0
10
70.259568433319529
20
-43.611742614123976
30
0
0
SPLINE
5
205
100
AcDbEntity
8
0
100
AcDbSpline
70
4
71
3
72
8
73
4
74
0
42
0.000000001
43
0.0000000001
44
0.0000000001
40
0
40
0
40
0
40
0
40
1
40
1
40
1
40
1
41
1
41
1
41
1
41
1
10
70.259568433319529
20
-43.611742614123976
30
0
10
70.729040746246767
20
-46.773520714455614
30
0
10
70.729040746246767
20
-46.773520714455614
30
0
10
68.474963216339546
20
-50.144063526803023
30
0
0
SPLINE
5
206
100
AcDbEntity
8
0
100
AcDbSpline
70
4
71
3
72
8
73
4
74
0
42
0.000000001
43
0.0000000001
44
0.0000000001
40
0
40
0
40
0
40
0
40
1
40
1
40
1
40
1
41
1
41
1
41
1
41
1
10
68.474963216339546
20
-50.144063526803023
30
0
10
66.220885686432325
20
-53.514602301929166
30
0
10
66.220885686432325
20
-53.514602301929166
30
0
10
57.817885999237504
20
-51.865409523659721
30
0
0
SPLINE
5
207
100
AcDbEntity
8
0
100
AcDbSpline
70
4
71
3
72
8
73
4
74
0
42
0.000000001
43
0.0000000001
44
0.0000000001
40
0
40
0
40
0
40
0
40
1
40
1
40
1
40
1
41
1
41
1
41
1
41
1
10
57.817885999237504
20
-51.865409523659721
30
0
10
49.414886312042668
20
-50.216212708168996
30
0
10
49.414886312042668
20
-50.216212708168996
30
0
10
48.17491031920413
20
-46.518824536019338
30
0
0
SPLINE
5
208
100
AcDbEntity
8
0
100
AcDbSpline
70
4
71
3
72
8
73
4
74
0
42
0.000000001
43
0.0000000001
44
0.0000000001
40
0
40
0
40
0
40
0
40
1
40
1
40
1
40
1
41
1
41
1
41
1
41
1
10
48.17491031920413
20
-46.518824536019338
30
0
10
46.934934326365592
20
-42.821432326648399
30
0
10
46.934934326365592
20
-42.821432326648399
30
0
10
49.985927037750685
20
-37.788555580788611
30
0
0
SPLINE
5
209
100
AcDbEntity
8
0
100
AcDbSpline
70
4
71
3
72
8
73
4
74
0
42
0.000000001
43
0.0000000001
44
0.0000000001
40
0
40
0
40
0
40
0
40
1
40
1
40
1
40
1
41
1
41
1
41
1
41
1
10
49.985927037750685
20
-37.788555580788611
30
0
10
53.036919749135777
20
-32.75567883492883
30
0
10
53.036919749135777
20
-32.75567883492883
30
0
10
54.570958865041547
20
-32.441110665017128
30
0
0
SPLINE
5
210
100
AcDbEntity
8
0
100
AcDbSpline
70
4
71
3
72
8
73
4
74
0
42
0.000000001
43
0.0000000001
44
0.0000000001
40
0
40
0
40
0
40
0
40
1
40
1
40
1
40
1
41
1
41
1
41
1
41
1
10
54.570958865041547
20
-32.441110665017128
30
0
10
56.105006055389843
20
-32.126538457884152
30
0
10
56.105006055389843
20
-32.126538457884152
30
0
10
62.947555125112338
20
-36.288247448616971
30
0
0
SPLINE
5
211
100
AcDbEntity
8
0
100
AcDbSpline
70
4
71
3
72
8
73
4
74
0
42
0.000000001
43
0.0000000001
44
0.0000000001
40
0
40
0
40
0
40
0
40
1
40
1
40
1
40
1
41
1
41
1
41
1
41
1
10
93.959115056549507
20
11.530119301464392
30
0
10
93.85833793913821
20
10.312372248953814
30
0
10
93.85833793913821
20
10.312372248953814
30
0
10
88.681719967082145
20
6.6941741720698467
30
0
0
SPLINE
5
212
100
AcDbEntity
8
0
100
AcDbSpline
70
4
71
3
72
8
73
4
74
0
42
0.000000001
43
0.0000000001
44
0.0000000001
40
0
40
0
40
0
40
0
40
1
40
1
40
1
40
1
41
1
41
1
41
1
41
1
10
88.681719967082145
20
6.6941741720698467
30
0
10
83.505101995026081
20
3.0759680207433604
30
0
10
83.505101995026081
20
3.0759680207433604
30
0
10
79.08191429411869
20
5.6812999502681016
30
0
0
SPLINE
5
213
100
AcDbEntity
8
0
100
AcDbSpline
70
4
71
3
72
8
73
4
74
0
42
0.000000001
43
0.0000000001
44
0.0000000001
40
0
40
0
40
0
40
0
40
1
40
1
40
1
40
1
41
1
41
1
41
1
41
1
10
79.08191429411869
20
5.6812999502681016
30
0
10
74.658726593211298
20
8.2866399542353797
30
0
10
74.658726593211298
20
8.2866399542353797
30
0
10
77.106574595327189
20
15.081065346386264
30
0
0
SPLINE
5
214
100
AcDbEntity
8
0
100
AcDbSpline
70
4
71
3
72
8
73
4
74
0
42
0.000000001
43
0.0000000001
44
0.0000000001
40
0
40
0
40
0
40
0
40
1
40
1
40
1
40
1
41
1
41
1
41
1
41
1
10
77.106574595327189
20
15.081065346386264
30
0
10
79.554430671885626
20
21.875490738537131
30
0
10
79.554430671885626
20
21.875490738537131
30
0
10
81.241012156362331
20
22.380175695405626
30
0
0
SPLINE
5
215
100
AcDbEntity
8
0
100
AcDbSpline
70
4
71
3
72
8
73
4
74
0
42
0.000000001
43
0.0000000001
44
0.0000000001
40
0
40
0
40
0
40
0
40
1
40
1
40
1
40
1
41
1
41
1
41
1
41
1
10
81.241012156362331
20
22.380175695405626
30
0
10
82.927593640839063
20
22.884860652274106
30
0
10
82.927593640839063
20
22.884860652274106
30
0
10
88.493742907399948
20
17.816363503124535
30
0
0
SPLINE
5
216
100
AcDbEntity
8
0
100
AcDbSpline
70
4
71
3
72
8
73
4
74
0
42
0.000000001
43
0.0000000001
44
0.0000000001
40
0
40
0
40
0
40
0
40
1
40
1
40
1
40
1
41
1
41
1
41
1
41
1
10
88.493742907399948
20
17.816363503124535
30
0
10
94.059892173960804
20
12.74786635397497
30
0
10
94.059892173960804
20
12.74786635397497
30
0
10
93.959115056549507
20
11.530119301464392
30
0
0
SPLINE
5
217
100
AcDbEntity
8
0
100
AcDbSpline
70
4
71
3
72
8
73
4
74
0
42
0.000000001
43
0.0000000001
44
0.0000000001
40
0
40
0
40
0
40
0
40
1
40
1
40
1
40
1
41
1
41
1
41
1
41
1
10
71.898373441254094
20
-18.070423720691373
30
0
10
77.59662866230309
20
-19.070863300972949
30
0
10
77.59662866230309
20
-19.070863300972949
30
0
10
78.498414703562858
20
-23.633294763578725
30
0
0
SPLINE
5
218
100
AcDbEntity
8
0
100
AcDbSpline
70
4
71
3
72
8
73
4
74
0
42
0.000000001
43
0.0000000001
44
0.0000000001
40
0
40
0
40
0
40
0
40
1
40
1
40
1
40
1
41
1
41
1
41
1
41
1
10
78.498414703562858
20
-23.633294763578725
30
0
10
79.400200744822627
20
-28.195734300627073
30
0
10
79.400200744822627
20
-28.195734300627073
30
0
10
75.509877805267777
20
-32.921229130440715
30
0
0
SPLINE
5
219
100
AcDbEntity
8
0
100
AcDbSpline
70
4
71
3
72
8
73
4
74
0
42
0.000000001
43
0.0000000001
44
0.0000000001
40
0
40
0
40
0
40
0
40
1
40
1
40
1
40
1
41
1
41
1
41
1
41
1
10
75.509877805267777
20
-32.921229130440715
30
0
10
71.619554865712928
20
-37.646727997475637
30
0
10
71.619554865712928
20
-37.646727997475637
30
0
10
64.777013870432981
20
-33.485014969521529
30
0
0
SPLINE
5
220
100
AcDbEntity
8
0
100
AcDbSpline
70
4
71
3
72
8
73
4
74
0
42
0.000000001
43
0.0000000001
44
0.0000000001
40
0
40
0
40
0
40
0
40
1
40
1
40
1
40
1
41
1
41
1
41
1
41
1
10
64.777013870432981
20
-33.485014969521529
30
0
10
57.934472875153027
20
-29.323297904346148
30
0
10
57.934472875153027
20
-29.323297904346148
30
0
10
62.067303622121614
20
-23.196645059599241
30
0
0
SPLINE
5
221
100
AcDbEntity
8
0
100
AcDbSpline
70
4
71
3
72
8
73
4
74
0
42
0.000000001
43
0.0000000001
44
0.0000000001
40
0
40
0
40
0
40
0
40
1
40
1
40
1
40
1
41
1
41
1
41
1
41
1
10
62.067303622121614
20
-23.196645059599241
30
0
10
66.20012629464766
20
-17.069992214852352
30
0
10
66.20012629464766
20
-17.069992214852352
30
0
10
71.898373441254094
20
-18.070423720691373
30
0
0
SPLINE
5
222
100
AcDbEntity
8
0
100
AcDbSpline
70
4
71
3
72
8
73
4
74
0
42
0.000000001
43
0.0000000001
44
0.0000000001
40
0
40
0
40
0
40
0
40
1
40
1
40
1
40
1
41
1
41
1
41
1
41
1
10
15.472263364349814
20
-6.060966196073867
30
0
10
21.21172246570886
20
-4.6138161564010183
30
0
10
21.21172246570886
20
-4.6138161564010183
30
0
10
25.515077364797403
20
-10.609792222990375
30
0
0
SPLINE
5
223
100
AcDbEntity
8
0
100
AcDbSpline
70
4
71
3
72
8
73
4
74
0
42
0.000000001
43
0.0000000001
44
0.0000000001
40
0
40
0
40
0
40
0
40
1
40
1
40
1
40
1
41
1
41
1
41
1
41
1
10
25.515077364797403
20
-10.609792222990375
30
0
10
29.818432263885946
20
-16.605768289579732
30
0
10
29.818432263885946
20
-16.605768289579732
30
0
10
25.447357015167693
20
-21.904871517830848
30
0
0
SPLINE
5
224
100
AcDbEntity
8
0
100
AcDbSpline
70
4
71
3
72
8
73
4
74
0
42
0.000000001
43
0.0000000001
44
0.0000000001
40
0
40
0
40
0
40
0
40
1
40
1
40
1
40
1
41
1
41
1
41
1
41
1
10
25.447357015167693
20
-21.904871517830848
30
0
10
21.076281766449423
20
-27.203966671639446
30
0
10
21.076281766449423
20
-27.203966671639446
30
0
10
14.354405240570518
20
-23.751084731433547
30
0
0
SPLINE
5
225
100
AcDbEntity
8
0
100
AcDbSpline
70
4
71
3
72
8
73
4
74
0
42
0.000000001
43
0.0000000001
44
0.0000000001
40
0
40
0
40
0
40
0
40
1
40
1
40
1
40
1
41
1
41
1
41
1
41
1
10
14.354405240570518
20
-23.751084731433547
30
0
10
7.6325287146916132
20
-20.298202791227666
30
0
10
7.6325287146916132
20
-20.298202791227666
30
0
10
8.6826745632837365
20
-13.903155476265923
30
0
0
SPLINE
5
226
100
AcDbEntity
8
0
100
AcDbSpline
70
4
71
3
72
8
73
4
74
0
42
0.000000001
43
0.0000000001
44
0.0000000001
40
0
40
0
40
0
40
0
40
1
40
1
40
1
40
1
41
1
41
1
41
1
41
1
10
8.6826745632837365
20
-13.903155476265923
30
0
10
9.7328204118758599
20
-7.5081162357467157
30
0
10
9.7328204118758599
20
-7.5081162357467157
30
0
10
15.472263364349814
20
-6.060966196073867
30
0
0
SPLINE
5
227
100
AcDbEntity
8
0
100
AcDbSpline
70
4
71
3
72
8
73
4
74
0
42
0.000000001
43
0.0000000001
44
0.0000000001
40
0
40
0
40
0
40
0
40
1
40
1
40
1
40
1
41
1
41
1
41
1
41
1
10
34.321540797109407
20
-39.121767161700888
30
0
10
25.780258206879108
20
-37.807712195727987
30
0
10
25.780258206879108
20
-37.807712195727987
30
0
10
25.037159184967486
20
-33.736392552071578
30
0
0
SPLINE
5
228
100
AcDbEntity
8
0
100
AcDbSpline
70
4
71
3
72
8
73
4
74
0
42
0.000000001
43
0.0000000001
44
0.0000000001
40
0
40
0
40
0
40
0
40
1
40
1
40
1
40
1
41
1
41
1
41
1
41
1
10
25.037159184967486
20
-33.736392552071578
30
0
10
24.294068237498418
20
-29.665072908415162
30
0
10
24.294068237498418
20
-29.665072908415162
30
0
10
28.665143486216689
20
-24.36596968016401
30
0
0
SPLINE
5
229
100
AcDbEntity
8
0
100
AcDbSpline
70
4
71
3
72
8
73
4
74
0
42
0.000000001
43
0.0000000001
44
0.0000000001
40
0
40
0
40
0
40
0
40
1
40
1
40
1
40
1
41
1
41
1
41
1
41
1
10
28.665143486216689
20
-24.36596968016401
30
0
10
33.036218734934941
20
-19.066874526355448
30
0
10
33.036218734934941
20
-19.066874526355448
30
0
10
35.876202039276563
20
-18.930497191760711
30
0
0
SPLINE
5
230
100
AcDbEntity
8
0
100
AcDbSpline
70
4
71
3
72
8
73
4
74
0
42
0.000000001
43
0.0000000001
44
0.0000000001
40
0
40
0
40
0
40
0
40
1
40
1
40
1
40
1
41
1
41
1
41
1
41
1
10
35.876202039276563
20
-18.930497191760711
30
0
10
38.716185343618186
20
-18.794119857165992
30
0
10
38.716185343618186
20
-18.794119857165992
30
0
10
43.840501114085328
20
-24.582090209338823
30
0
0
SPLINE
5
231
100
AcDbEntity
8
0
100
AcDbSpline
70
4
71
3
72
8
73
4
74
0
42
0.000000001
43
0.0000000001
44
0.0000000001
40
0
40
0
40
0
40
0
40
1
40
1
40
1
40
1
41
1
41
1
41
1
41
1
10
43.840501114085328
20
-24.582090209338823
30
0
10
48.964808810109886
20
-30.370068635954226
30
0
10
48.964808810109886
20
-30.370068635954226
30
0
10
45.913816098724794
20
-35.402941344592733
30
0
0
SPLINE
5
232
100
AcDbEntity
8
0
100
AcDbSpline
70
4
71
3
72
8
73
4
74
0
42
0.000000001
43
0.0000000001
44
0.0000000001
40
0
40
0
40
0
40
0
40
1
40
1
40
1
40
1
41
1
41
1
41
1
41
1
10
45.913816098724794
20
-35.402941344592733
30
0
10
42.862823387339702
20
-40.435818090452514
30
0
10
42.862823387339702
20
-40.435818090452514
30
0
10
34.321540797109407
20
-39.121767161700888
30
0
0
LINE
5
233
100
AcDbEntity
8
0
100
AcDbLine
10
37.613997571805243
20
-64.654289912075996
30
0
11
31.872729488263907
21
-64.103300354499268
31
0
0
SPLINE
5
234
100
AcDbEntity
8
0
100
AcDbSpline
70
4
71
3
72
8
73
4
74
0
42
0.000000001
43
0.0000000001
44
0.0000000001
40
0.020482116819396941
40
0.020482116819396941
40
0.020482116819396941
40
0.020482116819396941
40
1
40
1
40
1
40
1
41
1
41
1
41
1
41
1
10
31.872729488263801
20
-64.103300354499254
30
0
10
26.431763309788266
20
-62.75793206771673
30
0
10
26.384003661722314
20
-62.604373531670561
30
0
10
24.052230608815961
20
-55.107173051847781
30
0
0
SPLINE
5
235
100
AcDbEntity
8
0
100
AcDbSpline
70
4
71
3
72
8
73
4
74
0
42
0.000000001
43
0.0000000001
44
0.0000000001
40
0
40
0
40
0
40
0
40
1
40
1
40
1
40
1
41
1
41
1
41
1
41
1
10
24.052230608815961
20
-55.107173051847781
30
0
10
21.67169115975998
20
-47.453199027393026
30
0
10
21.67169115975998
20
-47.453199027393026
30
0
10
23.448318827504924
20
-44.82856918018436
30
0
0
SPLINE
5
236
100
AcDbEntity
8
0
100
AcDbSpline
70
4
71
3
72
8
73
4
74
0
42
0.000000001
43
0.0000000001
44
0.0000000001
40
0
40
0
40
0
40
0
40
1
40
1
40
1
40
1
41
1
41
1
41
1
41
1
10
23.448318827504924
20
-44.82856918018436
30
0
10
25.22493842080733
20
-42.203935295754427
30
0
10
25.22493842080733
20
-42.203935295754427
30
0
10
33.766221011037629
20
-43.517990261727334
30
0
0
SPLINE
5
237
100
AcDbEntity
8
0
100
AcDbSpline
70
4
71
3
72
8
73
4
74
0
42
0.000000001
43
0.0000000001
44
0.0000000001
40
0
40
0
40
0
40
0
40
1
40
1
40
1
40
1
41
1
41
1
41
1
41
1
10
33.766221011037629
20
-43.517990261727334
30
0
10
42.307511675710487
20
-44.832045227700235
30
0
10
42.307511675710487
20
-44.832045227700235
30
0
10
43.547479594106484
20
-48.529433399849893
30
0
0
SPLINE
5
238
100
AcDbEntity
8
0
100
AcDbSpline
70
4
71
3
72
8
73
4
74
0
42
0.000000001
43
0.0000000001
44
0.0000000001
40
0
40
0
40
0
40
0
40
1
40
1
40
1
40
1
41
1
41
1
41
1
41
1
10
43.547479594106484
20
-48.529433399849893
30
0
10
44.787455586945022
20
-52.226825609220825
30
0
10
44.787455586945022
20
-52.226825609220825
30
0
10
41.398531306142615
20
-58.922177591337515
30
0
0
SPLINE
5
239
100
AcDbEntity
8
0
100
AcDbSpline
70
4
71
3
72
8
73
4
74
0
42
0.000000001
43
0.0000000001
44
0.0000000001
40
0
40
0
40
0
40
0
40
0.5137977418705254
40
0.5137977418705254
40
0.5137977418705254
40
0.5137977418705254
41
1
41
1
41
1
41
1
10
41.398531306142615
20
-58.922177591337515
30
0
10
39.657313811926471
20
-62.362236395092594
30
0
10
38.810729934344039
20
-64.034800753576491
30
0
10
37.613997571805228
20
-64.654289912075996
30
0
0
SPLINE
5
240
100
AcDbEntity
8
0
100
AcDbSpline
70
4
71
3
72
8
73
4
74
0
42
0.000000001
43
0.0000000001
44
0.0000000001
40
0.36200386088691822
40
0.36200386088691822
40
0.36200386088691822
40
0.36200386088691822
40
1
40
1
40
1
40
1
41
1
41
1
41
1
41
1
10
99.115134605373996
20
-31.723294240299545
30
0
10
98.008365392539048
20
-32.504675129335524
30
0
10
96.219229660362146
20
-31.879558909467764
30
0
10
91.276918471212198
20
-30.152736940397578
30
0
0
SPLINE
5
241
100
AcDbEntity
8
0
100
AcDbSpline
70
4
71
3
72
8
73
4
74
0
42
0.000000001
43
0.0000000001
44
0.0000000001
40
0
40
0
40
0
40
0
40
1
40
1
40
1
40
1
41
1
41
1
41
1
41
1
10
91.276918471212198
20
-30.152736940397578
30
0
10
83.530302330210802
20
-27.446103054696085
30
0
10
83.530302330210802
20
-27.446103054696085
30
0
10
82.628516288951047
20
-22.883663517647737
30
0
0
SPLINE
5
242
100
AcDbEntity
8
0
100
AcDbSpline
70
4
71
3
72
8
73
4
74
0
42
0.000000001
43
0.0000000001
44
0.0000000001
40
0
40
0
40
0
40
0
40
1
40
1
40
1
40
1
41
1
41
1
41
1
41
1
10
82.628516288951047
20
-22.883663517647737
30
0
10
81.726730247691279
20
-18.321223980599424
30
0
10
81.726730247691279
20
-18.321223980599424
30
0
10
83.917221542552127
20
-15.877566614164689
30
0
0
SPLINE
5
243
100
AcDbEntity
8
0
100
AcDbSpline
70
4
71
3
72
8
73
4
74
0
42
0.000000001
43
0.0000000001
44
0.0000000001
40
0
40
0
40
0
40
0
40
1
40
1
40
1
40
1
41
1
41
1
41
1
41
1
10
83.917221542552127
20
-15.877566614164689
30
0
10
86.107708800191688
20
-13.433909247729954
30
0
10
86.107708800191688
20
-13.433909247729954
30
0
10
92.070163818553098
20
-14.136547238045711
30
0
0
SPLINE
5
244
100
AcDbEntity
8
0
100
AcDbSpline
70
4
71
3
72
8
73
4
74
0
42
0.000000001
43
0.0000000001
44
0.0000000001
40
0
40
0
40
0
40
0
40
0.15593917849101127
40
0.15593917849101127
40
0.15593917849101127
40
0.15593917849101127
41
1
41
1
41
1
41
1
10
92.070163818553098
20
-14.136547238045711
30
0
10
92.999943526345007
20
-14.246116029032127
30
0
10
93.784734150326244
20
-14.338598752763867
30
0
10
94.455727637611844
20
-14.436111813935694
30
0
0
SPLINE
5
245
100
AcDbEntity
8
0
100
AcDbSpline
70
0
71
3
72
14
73
10
74
0
42
0.000000001
43
0.0000000001
44
0.0000000001
40
0
40
0
40
0
40
0
40
0.21416083826490523
40
0.21416083826490523
40
0.40908695243543408
40
0.40908695243543408
40
0.69334126734418744
40
0.69334126734418744
40
0.76401452899857347
40
0.76401452899857347
40
0.76401452899857347
40
0.76401452899857347
10
99.171327853099768
20
-20.301746989541964
30
0
10
99.13783571028317
20
-19.588663625866328
30
0
10
98.987352832840429
20
-18.911878874883332
30
0
10
98.401837968574853
20
-17.677745074904124
30
0
10
98.016886690068517
20
-17.16411465291085
30
0
10
96.899204416740403
20
-16.022275694892251
30
0
10
96.070502529473714
20
-15.430914268963537
30
0
10
94.927480282330734
20
-14.718000860954641
30
0
10
94.694960796992049
20
-14.577595634943103
30
0
10
94.45572763761183
20
-14.436111813935693
30
0
0
SPLINE
5
246
100
AcDbEntity
8
0
100
AcDbSpline
70
0
71
3
72
10
73
6
74
0
42
0.000000001
43
0.0000000001
44
0.0000000001
40
0.31760381374543312
40
0.31760381374543312
40
0.31760381374543312
40
0.31760381374543312
40
0.73934845397194393
40
0.73934845397194393
40
1.4724377951826702
40
1.4724377951826702
40
1.4724377951826702
40
1.4724377951826702
10
99.115134605373996
20
-31.723294240299566
30
0
10
99.213017259592036
20
-30.341915733910362
30
0
10
99.268573958808801
20
-28.966019719886841
30
0
10
99.335234868549804
20
-25.183891782111345
30
0
10
99.283135612337048
20
-22.682253172095074
30
0
10
99.17132785309974
20
-20.301746989541975
30
0
0
CIRCLE
5
247
100
AcDbEntity
8
0
100
AcDbCircle
10
66.000000983476653
20
46.000000685453408
30
0
40
2.0000000000000018
210
-0
220
0
230
1
0
ARC
5
248
100
AcDbEntity
8
0
100
AcDbCircle
10
103.0000015348196
20
37.000000551342964
30
0
40
7.25
210
0
220
-0
230
1
100
AcDbArc
50
67.527171528552842
51
203.48831238676379
0
SPLINE
5
249
100
AcDbEntity
8
0
100
AcDbSpline
70
4
71
3
72
8
73
4
74
0
42
0.000000001
43
0.0000000001
44
0.0000000001
40
0.02165167491543794
40
0.02165167491543794
40
0.02165167491543794
40
0.02165167491543794
40
1
40
1
40
1
40
1
41
1
41
1
41
1
41
1
10
96.350726420607643
20
34.11042610940148
30
0
10
89.962399425947964
20
35.431227298836923
30
0
10
89.940699930001216
20
35.54209949718944
30
0
10
88.938491277252638
20
40.662821048087096
30
0
0
LINE
5
250
100
AcDbEntity
8
0
100
AcDbLine
10
88.938491277252638
20
40.662821048087103
30
0
11
88.758031655566342
21
41.584933012396768
31
0
0
LINE
5
251
100
AcDbEntity
8
0
100
AcDbLine
10
88.758031655566342
20
41.584933012396768
30
0
11
92.531143522338482
21
44.296382215264757
31
0
0
SPLINE
5
252
100
AcDbEntity
8
0
100
AcDbSpline
70
0
71
3
72
10
73
6
74
0
42
0.000000001
43
0.0000000001
44
0.0000000001
40
0.85511958625549478
40
0.85511958625549478
40
0.85511958625549478
40
0.85511958625549478
40
0.92338010006736138
40
0.92338010006736138
40
1.1872460918340266
40
1.1872460918340266
40
1.1872460918340266
40
1.1872460918340266
10
95.790164503483936
20
46.778451603466252
30
0
10
95.574635897839002
20
46.616130158383591
30
0
10
95.357997841048729
20
46.450135972066171
30
0
10
94.299776376332943
20
45.632964024851063
30
0
10
93.437538132837474
20
44.947739246516491
30
0
10
92.531143522338482
20
44.296382215264757
30
0
0
SPLINE
5
253
100
AcDbEntity
8
0
100
AcDbSpline
70
4
71
3
72
8
73
4
74
0
42
0.000000001
43
0.0000000001
44
0.0000000001
40
0.0093242305321807641
40
0.0093242305321807641
40
0.0093242305321807641
40
0.0093242305321807641
40
1
40
1
40
1
40
1
41
1
41
1
41
1
41
1
10
95.790164503483879
20
46.778451603466216
30
0
10
103.15933792644016
20
47.530644106215092
30
0
10
103.18090971548457
20
47.499006680631091
30
0
10
105.49442920322718
20
44.10597328502557
30
0
0
SPLINE
5
254
100
AcDbEntity
8
0
100
AcDbSpline
70
4
71
3
72
8
73
4
74
0
42
0.000000001
43
0.0000000001
44
0.0000000001
40
0
40
0
40
0
40
0
40
0.041213143432581686
40
0.041213143432581686
40
0.041213143432581686
40
0.041213143432581686
41
1
41
1
41
1
41
1
10
105.49442920322718
20
44.10597328502557
30
0
10
105.59067402259289
20
43.964819563177961
30
0
10
105.68295229041345
20
43.829483229914899
30
0
10
105.77127963736368
20
43.69944214586112
30
0
0
SPLINE
5
255
100
AcDbEntity
8
0
100
AcDbSpline
70
4
71
3
72
8
73
4
74
0
42
0.000000001
43
0.0000000001
44
0.0000000001
40
0.73650483508567111
40
0.73650483508567111
40
0.73650483508567111
40
0.73650483508567111
40
1
40
1
40
1
40
1
41
1
41
1
41
1
41
1
10
98.069207056446075
20
10.161363940039355
30
0
10
98.001186532342146
20
10.422656630566042
30
0
10
98.020743890290476
20
10.658977709134946
30
0
10
98.047298173462352
20
10.979846041983592
30
0
0
SPLINE
5
256
100
AcDbEntity
8
0
100
AcDbSpline
70
4
71
3
72
8
73
4
74
0
42
0.000000001
43
0.0000000001
44
0.0000000001
40
0
40
0
40
0
40
0
40
0.5470741994807371
40
0.5470741994807371
40
0.5470741994807371
40
0.5470741994807371
41
1
41
1
41
1
41
1
10
98.047298173462352
20
10.979846041983592
30
0
10
98.102430734296107
20
11.646044035905842
30
0
10
98.127401693546403
20
11.947782295607405
30
0
10
98.885447012845276
20
12.762193595739589
30
0
0
SPLINE
5
257
100
AcDbEntity
8
0
100
AcDbSpline
70
0
71
3
72
8
73
4
74
0
42
0.000000001
43
0.0000000001
44
0.0000000001
40
0.69487623424088707
40
0.69487623424088707
40
0.69487623424088707
40
0.69487623424088707
40
1.1423069643926964
40
1.1423069643926964
40
1.1423069643926964
40
1.1423069643926964
10
98.06920705643428
20
10.16136393999377
30
0
10
98.342307703077552
20
11.215352199279749
30
0
10
98.638648614808858
20
12.096423595313592
30
0
10
98.885447012845304
20
12.762193595739646
30
0
0
CIRCLE
5
258
100
AcDbEntity
8
0
100
AcDbCircle
10
94.000001400709152
20
-8.0000001192092896
30
0
40
2.0000000000000107
210
-0
220
0
230
1
0
SPLINE
5
259
100
AcDbEntity
8
0
100
AcDbSpline
70
4
71
3
72
8
73
4
74
0
42
0.000000001
43
0.0000000001
44
0.0000000001
40
0.25898756784656224
40
0.25898756784656224
40
0.25898756784656224
40
0.25898756784656224
40
1
40
1
40
1
40
1
41
1
41
1
41
1
41
1
10
88.996980607090791
20
-9.8913162253220381
30
0
10
86.539070773971787
20
-9.3566518726472729
30
0
10
86.416087519717848
20
-8.3961102756223287
30
0
10
85.941225906565791
20
-4.6872774346806345
30
0
0
SPLINE
5
260
100
AcDbEntity
8
0
100
AcDbSpline
70
4
71
3
72
8
73
4
74
0
42
0.000000001
43
0.0000000001
44
0.0000000001
40
0
40
0
40
0
40
0
40
1
40
1
40
1
40
1
41
1
41
1
41
1
41
1
10
85.941225906565791
20
-4.6872774346806345
30
0
10
85.300397773936396
20
0.31780304271601167
30
0
10
85.300397773936396
20
0.31780304271601167
30
0
10
90.477011708771187
20
3.9360011195999611
30
0
0
SPLINE
5
261
100
AcDbEntity
8
0
100
AcDbSpline
70
4
71
3
72
8
73
4
74
0
42
0.000000001
43
0.0000000001
44
0.0000000001
40
0
40
0
40
0
40
0
40
0.73095503516542837
40
0.73095503516542837
40
0.73095503516542837
40
0.73095503516542837
41
1
41
1
41
1
41
1
10
90.477011708771187
20
3.9360011195999611
30
0
10
94.260886680573435
20
6.5807471241785942
30
0
10
95.278919189300382
20
7.292302719976826
30
0
10
97.312403544231188
20
5.6213342800004522
30
0
0
SPLINE
5
262
100
AcDbEntity
8
0
100
AcDbSpline
70
0
71
3
72
8
73
4
74
0
42
0.000000001
43
0.0000000001
44
0.0000000001
40
0
40
0
40
0
40
0
40
0.15050900464840986
40
0.15050900464840986
40
0.15050900464840986
40
0.15050900464840986
10
97.250786788881783
20
4.1548616278535349
30
0
10
97.25608667409179
20
4.6565303154437458
30
0
10
97.27759889323012
20
5.1458770246030783
30
0
10
97.312403544221667
20
5.6213342798698296
30
0
0
SPLINE
5
263
100
AcDbEntity
8
0
100
AcDbSpline
70
0
71
3
72
14
73
10
74
0
42
0.000000001
43
0.0000000001
44
0.0000000001
40
0
40
0
40
0
40
0
40
0.71628078244055715
40
0.71628078244055715
40
1.1688289389894098
40
1.1688289389894098
40
1.4085427429814557
40
1.4085427429814557
40
1.6699109178353149
40
1.6699109178353149
40
1.6699109178353149
40
1.6699109178353149
10
90.807817114601647
20
-3.7084673909002741
30
0
10
92.723554993338809
20
-2.2834780595908493
30
0
10
94.027630111485067
20
-1.390291737897229
30
0
10
95.70669394525693
20
0.18966549766641089
30
0
10
96.243241240867292
20
0.82763831026856338
30
0
10
96.824379577526912
20
1.9371881831705431
30
0
10
96.976502057335111
20
2.3362170391416539
30
0
10
97.19411347045407
20
3.2162010954232363
30
0
10
97.245796707369593
20
3.6825178800209128
30
0
10
97.250786788881783
20
4.1548616278535331
30
0
0
ARC
5
264
100
AcDbEntity
8
0
100
AcDbCircle
10
94.000001400709152
20
-8.0000001192092896
30
0
40
5.3485786592906219
210
0
220
0
230
1
100
AcDbArc
50
126.64309321565372
51
200.7083381452845
0
CIRCLE
5
265
100
AcDbEntity
8
0
100
AcDbCircle
10
9.0000001341104507
20
-53.000000789761543
30
0
40
2.000000000000004
210
-0
220
0
230
1
0
SPLINE
5
266
100
AcDbEntity
8
0
100
AcDbSpline
70
4
71
3
72
8
73
4
74
0
42
0.000000001
43
0.0000000001
44
0.0000000001
40
0.69348918072936094
40
0.69348918072936094
40
0.69348918072936094
40
0.69348918072936094
40
1
40
1
40
1
40
1
41
1
41
1
41
1
41
1
10
42.943204619594326
20
-65.165733967774045
30
0
10
43.428458213716262
20
-64.152482097515048
30
0
10
44.148812806669767
20
-62.729304253537123
30
0
10
45.187552289520681
20
-60.677105194741223
30
0
0
SPLINE
5
267
100
AcDbEntity
8
0
100
AcDbSpline
70
4
71
3
72
8
73
4
74
0
42
0.000000001
43
0.0000000001
44
0.0000000001
40
0
40
0
40
0
40
0
40
1
40
1
40
1
40
1
41
1
41
1
41
1
41
1
10
45.187552289520681
20
-60.677105194741223
30
0
10
48.576468495880562
20
-53.981749175403273
30
0
10
48.576468495880562
20
-53.981749175403273
30
0
10
56.979476257517945
20
-55.630945990893998
30
0
0
SPLINE
5
268
100
AcDbEntity
8
0
100
AcDbSpline
70
4
71
3
72
8
73
4
74
0
42
0.000000001
43
0.0000000001
44
0.0000000001
40
0
40
0
40
0
40
0
40
1
40
1
40
1
40
1
41
1
41
1
41
1
41
1
10
56.979476257517945
20
-55.630945990893998
30
0
10
65.382475944712752
20
-57.280142806384724
30
0
10
65.382475944712752
20
-57.280142806384724
30
0
10
66.11416577930747
20
-61.870802520129864
30
0
0
SPLINE
5
269
100
AcDbEntity
8
0
100
AcDbSpline
70
4
71
3
72
8
73
4
74
0
42
0.000000001
43
0.0000000001
44
0.0000000001
40
0
40
0
40
0
40
0
40
0.061396208937637427
40
0.061396208937637427
40
0.061396208937637427
40
0.061396208937637427
41
1
41
1
41
1
41
1
10
66.11416577930747
20
-61.870802520129864
30
0
10
66.1590887612698
20
-62.152651747011596
30
0
10
66.201253642445451
20
-62.417196499870791
30
0
10
66.240213944255629
20
-62.666255363326464
30
0
0
LINE
5
270
100
AcDbEntity
8
0
100
AcDbLine
10
66.240213944255629
20
-62.666255363326457
30
0
11
59.072334565485903
21
-62.666255363326457
31
0
0
SPLINE
5
271
100
AcDbEntity
8
0
100
AcDbSpline
70
0
71
3
72
16
73
12
74
0
42
0.000000001
43
0.0000000001
44
0.0000000001
40
0
40
0
40
0
40
0
40
0.14362394659274461
40
0.14362394659274461
40
0.29119444360359092
40
0.29119444360359092
40
0.56460472206723278
40
0.56460472206723278
40
0.69769816881643731
40
0.69769816881643731
40
0.83250208115287805
40
0.83250208115287805
40
0.83250208115287805
40
0.83250208115287805
10
51.655687610245636
20
-66.001871050829862
30
0
10
52.132244526480761
20
-66.047606223027884
30
0
10
52.589286551109289
20
-66.003328375166532
30
0
10
53.518109369340749
20
-65.714914370597782
30
0
10
53.949001550578437
20
-65.477959449641475
30
0
10
55.111928473528721
20
-64.694543790278786
30
0
10
55.813251382932563
20
-64.039070512537364
30
0
10
56.948441840393329
20
-63.272869693725312
30
0
10
57.338271403851628
20
-63.052907178962627
30
0
10
58.187591620450192
20
-62.743352276461479
30
0
10
58.617901297981433
20
-62.666255363326457
30
0
10
59.072334565485903
20
-62.666255363326457
30
0
0
LINE
5
272
100
AcDbEntity
8
0
100
AcDbLine
10
51.655687610245636
20
-66.001871050829862
30
0
11
42.943204619594326
21
-65.165733967774045
31
0
0
SPLINE
5
273
100
AcDbEntity
8
0
100
AcDbSpline
70
4
71
3
72
8
73
4
74
0
42
0.000000001
43
0.0000000001
44
0.0000000001
40
0.11044616161088634
40
0.11044616161088634
40
0.11044616161088634
40
0.11044616161088634
40
1
40
1
40
1
40
1
41
1
41
1
41
1
41
1
10
12.436941258604728
20
-49.368549880447191
30
0
10
17.798561480374513
20
-48.688937048101749
30
0
10
18.032442674119913
20
-49.440923210811135
30
0
10
20.150046313161667
20
-56.249545183195444
30
0
0
SPLINE
5
274
100
AcDbEntity
8
0
100
AcDbSpline
70
4
71
3
72
8
73
4
74
0
42
0.000000001
43
0.0000000001
44
0.0000000001
40
0
40
0
40
0
40
0
40
0.46271178027977655
40
0.46271178027977655
40
0.46271178027977655
40
0.46271178027977655
41
1
41
1
41
1
41
1
10
20.150046313161667
20
-56.249545183195444
30
0
10
21.251549959660601
20
-59.791129130266057
30
0
10
21.843374892903348
20
-61.693980464177343
30
0
10
21.632825560864624
20
-63.120576668287796
30
0
0
LINE
5
275
100
AcDbEntity
8
0
100
AcDbLine
10
21.632825560864628
20
-63.120576668287796
30
0
11
18.41891315422837
21
-62.812137461259745
31
0
0
SPLINE
5
276
100
AcDbEntity
8
0
100
AcDbSpline
70
0
71
3
72
16
73
12
74
0
42
0.000000001
43
0.0000000001
44
0.0000000001
40
0
40
0
40
0
40
0
40
0.52148149659881793
40
0.52148149659881793
40
0.97354035401723837
40
0.97354035401723837
40
1.2558540343194315
40
1.2558540343194315
40
1.4316110981819525
40
1.4316110981819525
40
1.6261955001824702
40
1.6261955001824702
40
1.6261955001824702
40
1.6261955001824702
10
13.9304656705983
20
-53.830969858683851
30
0
10
13.641575674805676
20
-55.54506755661491
30
0
10
13.798908553024908
20
-57.076539331566956
30
0
10
14.217973428361683
20
-59.059229861660363
30
0
10
14.545094066667561
20
-60.011807047736603
30
0
10
15.377868850333909
20
-61.298380667121258
30
0
10
15.770707055000939
20
-61.731394777520521
30
0
10
16.558284986697661
20
-62.276726538266601
30
0
10
16.88312177661841
20
-62.439430162753041
30
0
10
17.614551284686662
20
-62.694549748837929
30
0
10
18.014015542102211
20
-62.773279433220807
30
0
10
18.41891315422837
20
-62.812137461259738
30
0
0
ARC
5
277
100
AcDbEntity
8
0
100
AcDbCircle
10
9.0000001341104507
20
-53.000000789761543
30
0
40
5.0000000000000018
210
0
220
0
230
1
100
AcDbArc
50
-9.5665925552636022
51
46.576281829419429
0
SPLINE
5
278
100
AcDbEntity
8
0
100
AcDbSpline
70
0
71
3
72
12
73
8
74
0
42
0.000000001
43
0.0000000001
44
0.0000000001
40
0
40
0
40
0
40
0
40
0.045581776436872966
40
0.045581776436872966
40
0.074522964835402813
40
0.074522964835402813
40
0.10500718699577455
40
0.10500718699577455
40
0.10500718699577455
40
0.10500718699577455
10
-9.1912312920667567
20
19.825001129410396
30
0
10
-9.3344761468781687
20
19.774340999958632
30
0
10
-9.4458355930297166
20
19.709566072749556
30
0
10
-9.5905003233144335
20
19.580159870096306
30
0
10
-9.6380749440137912
20
19.523540669069831
30
0
10
-9.7214983863472231
20
19.39318896349182
30
0
10
-9.7550272634928561
20
19.321080594089267
30
0
10
-9.7820569491742262
20
19.246638482605558
30
0
0
ARC
5
279
100
AcDbEntity
8
0
100
AcDbCircle
10
-6.0009711696083006
20
15.97503485020075
30
0
40
5.0000000000000018
210
0
220
0
230
1
100
AcDbArc
50
129.64671676257169
51
139.13183611222027
0
CIRCLE
5
280
100
AcDbEntity
8
0
100
AcDbCircle
10
-6.0009711696083006
20
15.97503485020075
30
0
40
2.000000000000004
210
-0
220
0
230
1
0
LINE
5
281
100
AcDbEntity
8
0
100
AcDbLine
10
-9.9385400851528694
20
-40.421455219677107
30
0
11
-9.9385400851528694
21
-25.340066468247606
31
0
0
SPLINE
5
282
100
AcDbEntity
8
0
100
AcDbSpline
70
4
71
3
72
8
73
4
74
0
42
0.000000001
43
0.0000000001
44
0.0000000001
40
0.17632819240100925
40
0.17632819240100925
40
0.17632819240100925
40
0.17632819240100925
40
1
40
1
40
1
40
1
41
1
41
1
41
1
41
1
10
-9.9385400851528711
20
-25.340066468247603
30
0
10
-6.678693513236893
20
-27.587840599723819
30
0
10
-6.8027069894756735
20
-28.527646385676483
30
0
10
-7.5060175296117926
20
-33.857513227476431
30
0
0
SPLINE
5
283
100
AcDbEntity
8
0
100
AcDbSpline
70
4
71
3
72
8
73
4
74
0
42
0.000000001
43
0.0000000001
44
0.0000000001
40
0
40
0
40
0
40
0
40
0.63520852243780379
40
0.63520852243780379
40
0.63520852243780379
40
0.63520852243780379
41
1
41
1
41
1
41
1
10
-7.5060175296117926
20
-33.857513227476431
30
0
10
-8.0484147490430473
20
-37.967862668143425
30
0
10
-8.2462766321449994
20
-39.467283113901281
30
0
10
-9.9385400851528676
20
-40.421455219677114
30
0
0
SPLINE
5
284
100
AcDbEntity
8
0
100
AcDbSpline
70
0
71
3
72
10
73
6
74
0
42
0.000000001
43
0.0000000001
44
0.0000000001
40
0
40
0
40
0
40
0
40
0.149810192928858
40
0.149810192928858
40
0.45178249438419349
40
0.45178249438419349
40
0.45178249438419349
40
0.45178249438419349
10
77.589797837834283
20
33.146660470020272
30
0
10
77.189407813332878
20
32.848238724265116
30
0
10
76.782473117772099
20
32.409138670650222
30
0
10
75.640357380431098
20
31.001850686245291
30
0
10
74.789776595505927
20
29.695577767012796
30
0
10
73.896536229689275
20
28.204452113972714
30
0
0
SPLINE
5
285
100
AcDbEntity
8
0
100
AcDbSpline
70
0
71
3
72
10
73
6
74
0
42
0.000000001
43
0.0000000001
44
0.0000000001
40
0
40
0
40
0
40
0
40
0.4732674634669119
40
0.4732674634669119
40
0.94748060331973705
40
0.94748060331973705
40
0.94748060331973705
40
0.94748060331973705
10
84.893317785473783
20
38.807656400309412
30
0
10
83.61223984863129
20
37.887042892596028
30
0
10
82.490180470853119
20
37.022957293376983
30
0
10
79.942760668191198
20
35.004085013350917
30
0
10
78.786299480014719
20
34.062304751013841
30
0
10
77.589797837834297
20
33.146660470020286
30
0
0
LINE
5
286
100
AcDbEntity
8
0
100
AcDbLine
10
84.893317785473783
20
38.807656400309412
30
0
11
85.170786409349958
21
39.007052046554506
31
0
0
SPLINE
5
287
100
AcDbEntity
8
0
100
AcDbSpline
70
4
71
3
72
8
73
4
74
0
42
0.000000001
43
0.0000000001
44
0.0000000001
40
0.062576273848361133
40
0.062576273848361133
40
0.062576273848361133
40
0.062576273848361133
40
1
40
1
40
1
40
1
41
1
41
1
41
1
41
1
10
85.170786409349944
20
39.007052046554499
30
0
10
86.005995420743346
20
34.681265139487351
30
0
10
85.86768420439401
20
34.455664360853604
30
0
10
83.657402130320691
20
30.85045163789016
30
0
0
SPLINE
5
288
100
AcDbEntity
8
0
100
AcDbSpline
70
4
71
3
72
8
73
4
74
0
42
0.000000001
43
0.0000000001
44
0.0000000001
40
0
40
0
40
0
40
0
40
1
40
1
40
1
40
1
41
1
41
1
41
1
41
1
10
83.657402130320691
20
30.85045163789016
30
0
10
81.299576088145386
20
27.004578504548693
30
0
10
81.299576088145386
20
27.004578504548693
30
0
10
79.612994603668668
20
26.499901622122746
30
0
0
SPLINE
5
289
100
AcDbEntity
8
0
100
AcDbSpline
70
4
71
3
72
8
73
4
74
0
42
0.000000001
43
0.0000000001
44
0.0000000001
40
0
40
0
40
0
40
0
40
0.88295425469771571
40
0.88295425469771571
40
0.88295425469771571
40
0.88295425469771571
41
1
41
1
41
1
41
1
10
79.612994603668668
20
26.499901622122746
30
0
10
78.123820306055563
20
26.054287892173775
30
0
10
77.949518790506417
20
26.002130701034968
30
0
10
73.896536229689275
20
28.204452113972721
30
0
0
ARC
5
290
100
AcDbEntity
8
0
100
AcDbCircle
10
-5.6466962670135459
20
4.7557978380470187
30
0
40
7.2500000000000044
210
0
220
0
230
1
100
AcDbArc
50
242.87982942530456
51
305.47373926937604
0
SPLINE
5
291
100
AcDbEntity
8
0
100
AcDbSpline
70
4
71
3
72
8
73
4
74
0
42
0.000000001
43
0.0000000001
44
0.0000000001
40
0.5112967699293538
40
0.5112967699293538
40
0.5112967699293538
40
0.5112967699293538
40
1
40
1
40
1
40
1
41
1
41
1
41
1
41
1
10
-1.4393055352498414
20
-1.1484686896657119
30
0
10
-0.30997921333800871
20
-1.4503309723644331
30
0
10
0.52054557058134421
20
-2.227089261529418
30
0
10
2.1448953274438942
20
-3.746281900419568
30
0
0
SPLINE
5
292
100
AcDbEntity
8
0
100
AcDbSpline
70
4
71
3
72
8
73
4
74
0
42
0.000000001
43
0.0000000001
44
0.0000000001
40
0
40
0
40
0
40
0
40
1
40
1
40
1
40
1
41
1
41
1
41
1
41
1
10
2.1448953274438942
20
-3.746281900419568
30
0
10
5.4686911546737171
20
-6.8549019082524154
30
0
10
5.4686911546737171
20
-6.8549019082524154
30
0
10
4.4185614549666852
20
-13.249941148771622
30
0
0
SPLINE
5
293
100
AcDbEntity
8
0
100
AcDbSpline
70
4
71
3
72
8
73
4
74
0
42
0.000000001
43
0.0000000001
44
0.0000000001
40
0
40
0
40
0
40
0
40
1
40
1
40
1
40
1
41
1
41
1
41
1
41
1
10
4.4185614549666852
20
-13.249941148771622
30
0
10
3.3684156063745618
20
-19.644980389290811
30
0
10
3.3684156063745618
20
-19.644980389290811
30
0
10
-0.52265825633703855
20
-21.744391972237587
30
0
0
SPLINE
5
294
100
AcDbEntity
8
0
100
AcDbSpline
70
4
71
3
72
8
73
4
74
0
42
0.000000001
43
0.0000000001
44
0.0000000001
40
0
40
0
40
0
40
0
40
0.97985212027821078
40
0.97985212027821078
40
0.97985212027821078
40
0.97985212027821078
41
1
41
1
41
1
41
1
10
-0.52265825633703855
20
-21.744391972237587
30
0
10
-4.3353352308741107
20
-23.80150486312462
30
0
10
-4.4121525879751164
20
-23.842951326224355
30
0
10
-9.9385400851528676
20
-20.338591082154739
30
0
0
LINE
5
295
100
AcDbEntity
8
0
100
AcDbLine
10
-9.9385400851528694
20
-20.338591082154739
30
0
11
-9.9385400851528694
21
-1.862505132954082
31
0
0
SPLINE
5
296
100
AcDbEntity
8
0
100
AcDbSpline
70
4
71
3
72
8
73
4
74
0
42
0.000000001
43
0.0000000001
44
0.0000000001
40
0.81959007409744355
40
0.81959007409744355
40
0.81959007409744355
40
0.81959007409744355
40
0.89331580432075475
40
0.89331580432075475
40
0.89331580432075475
40
0.89331580432075475
41
1
41
1
41
1
41
1
10
-9.9385400851528676
20
-1.8625051329540803
30
0
10
-9.6360553027146345
20
-1.8051294960499789
30
0
10
-9.3080987063303464
20
-1.7510406393690165
30
0
10
-8.951668739967678
20
-1.6970819030465263
30
0
0
SPLINE
5
297
100
AcDbEntity
8
0
100
AcDbSpline
70
4
71
3
72
8
73
4
74
0
42
0.000000001
43
0.0000000001
44
0.0000000001
40
0.6009438851703407
40
0.6009438851703407
40
0.6009438851703407
40
0.6009438851703407
40
1
40
1
40
1
40
1
41
1
41
1
41
1
41
1
10
23.318770177072274
20
6.9472258219788507
30
0
10
23.268604136854456
20
6.0451653693150273
30
0
10
22.824906583705872
20
5.0969848426103335
30
0
10
22.0865721666366
20
3.519166097627302
30
0
0
SPLINE
5
298
100
AcDbEntity
8
0
100
AcDbSpline
70
4
71
3
72
8
73
4
74
0
42
0.000000001
43
0.0000000001
44
0.0000000001
40
0
40
0
40
0
40
0
40
1
40
1
40
1
40
1
41
1
41
1
41
1
41
1
10
22.0865721666366
20
3.519166097627302
30
0
10
20.236370178416383
20
-0.43471077920374412
30
0
10
20.236370178416383
20
-0.43471077920374412
30
0
10
14.496919151499874
20
-1.8818688933191474
30
0
0
SPLINE
5
299
100
AcDbEntity
8
0
100
AcDbSpline
70
4
71
3
72
8
73
4
74
0
42
0.000000001
43
0.0000000001
44
0.0000000001
40
0
40
0
40
0
40
0
40
1
40
1
40
1
40
1
41
1
41
1
41
1
41
1
10
14.496919151499874
20
-1.8818688933191474
30
0
10
8.7574600501408284
20
-3.3290189329919961
30
0
10
8.7574600501408284
20
-3.3290189329919961
30
0
10
5.4336642229110055
20
-0.22039085071661191
30
0
0
SPLINE
5
300
100
AcDbEntity
8
0
100
AcDbSpline
70
4
71
3
72
8
73
4
74
0
42
0.000000001
43
0.0000000001
44
0.0000000001
40
0
40
0
40
0
40
0
40
1
40
1
40
1
40
1
41
1
41
1
41
1
41
1
10
5.4336642229110055
20
-0.22039085071661191
30
0
10
2.1098683956812003
20
2.8882291571162355
30
0
10
2.1098683956812003
20
2.8882291571162355
30
0
10
4.1172555569360725
20
10.291184911714222
30
0
0
SPLINE
5
301
100
AcDbEntity
8
0
100
AcDbSpline
70
4
71
3
72
8
73
4
74
0
42
0.000000001
43
0.0000000001
44
0.0000000001
40
0
40
0
40
0
40
0
40
0.88001968980455225
40
0.88001968980455225
40
0.88001968980455225
40
0.88001968980455225
41
1
41
1
41
1
41
1
10
4.1172555569360725
20
10.291184911714222
30
0
10
5.8837957839012409
20
16.805931738512367
30
0
10
6.095745828305259
20
17.587573083636418
30
0
10
9.8692834677218872
20
17.761702145275009
30
0
0
SPLINE
5
302
100
AcDbEntity
8
0
100
AcDbSpline
70
0
71
3
72
18
73
14
74
0
42
0.000000001
43
0.0000000001
44
0.0000000001
40
0
40
0
40
0
40
0
40
0.08653530708547319
40
0.08653530708547319
40
0.16724368951183752
40
0.16724368951183752
40
0.27709177222871201
40
0.27709177222871201
40
0.48343472127496689
40
0.48343472127496689
40
0.99592993821689213
40
0.99592993821689213
40
1.0831937101474876
40
1.0831937101474876
40
1.0831937101474876
40
1.0831937101474876
10
14.092096398300306
20
6.9860969783901954
30
0
10
13.803647934451789
20
6.9873121861263421
30
0
10
13.52463911355035
20
7.03761448867641
30
0
10
13.010749617238293
20
7.2542329174754236
30
0
10
12.791814327192611
20
7.4050742047694484
30
0
10
12.33143289788072
20
7.8426244891791068
30
0
10
12.116591526430716
20
8.1531472230715814
30
0
10
11.611153651938954
20
9.0750641050565779
30
0
10
11.363453559824965
20
9.8126653760685176
30
0
10
10.666779990093087
20
12.540322614125161
30
0
10
10.421907757467132
20
14.948431115470198
30
0
10
10.002753944337321
20
17.166525119026815
30
0
10
9.9385214672444153
20
17.474183381372391
30
0
10
9.8692834677218872
20
17.761702145275017
30
0
0
LINE
5
303
100
AcDbEntity
8
0
100
AcDbLine
10
14.092096398300306
20
6.9860969783901954
30
0
11
23.318770177072274
21
6.9472258219788507
31
0
0
SPLINE
5
304
100
AcDbEntity
8
0
100
AcDbSpline
70
4
71
3
72
8
73
4
74
0
42
0.000000001
43
0.0000000001
44
0.0000000001
40
0.87422212299893454
40
0.87422212299893454
40
0.87422212299893454
40
0.87422212299893454
40
1
40
1
40
1
40
1
41
1
41
1
41
1
41
1
10
41.036523899870367
20
3.3333730461947431
30
0
10
41.360306835128156
20
2.7938611461837866
30
0
10
41.718107787312576
20
2.1748278008803572
30
0
10
42.127387011403847
20
1.4667316214106663
30
0
0
SPLINE
5
305
100
AcDbEntity
8
0
100
AcDbSpline
70
4
71
3
72
8
73
4
74
0
42
0.000000001
43
0.0000000001
44
0.0000000001
40
0
40
0
40
0
40
0
40
1
40
1
40
1
40
1
41
1
41
1
41
1
41
1
10
42.127387011403847
20
1.4667316214106663
30
0
10
45.381379282827169
20
-4.1630038801965874
30
0
10
45.381379282827169
20
-4.1630038801965874
30
0
10
41.899703880503779
20
-9.1813668155807093
30
0
0
SPLINE
5
306
100
AcDbEntity
8
0
100
AcDbSpline
70
4
71
3
72
8
73
4
74
0
42
0.000000001
43
0.0000000001
44
0.0000000001
40
0
40
0
40
0
40
0
40
1
40
1
40
1
40
1
41
1
41
1
41
1
41
1
10
41.899703880503779
20
-9.1813668155807093
30
0
10
38.418028478180375
20
-14.199729750964813
30
0
10
38.418028478180375
20
-14.199729750964813
30
0
10
35.578045173838731
20
-14.336107085559551
30
0
0
SPLINE
5
307
100
AcDbEntity
8
0
100
AcDbSpline
70
4
71
3
72
8
73
4
74
0
42
0.000000001
43
0.0000000001
44
0.0000000001
40
0
40
0
40
0
40
0
40
1
40
1
40
1
40
1
41
1
41
1
41
1
41
1
10
35.578045173838731
20
-14.336107085559551
30
0
10
32.738061869497116
20
-14.47248442015427
30
0
10
32.738061869497116
20
-14.47248442015427
30
0
10
28.434698895966033
20
-8.4765083535649133
30
0
0
SPLINE
5
308
100
AcDbEntity
8
0
100
AcDbSpline
70
4
71
3
72
8
73
4
74
0
42
0.000000001
43
0.0000000001
44
0.0000000001
40
0
40
0
40
0
40
0
40
1
40
1
40
1
40
1
41
1
41
1
41
1
41
1
10
28.434698895966033
20
-8.4765083535649133
30
0
10
24.13134399687749
20
-2.4805322869755564
30
0
10
24.13134399687749
20
-2.4805322869755564
30
0
10
25.981545985097707
20
1.4733445898554898
30
0
0
SPLINE
5
309
100
AcDbEntity
8
0
100
AcDbSpline
70
4
71
3
72
8
73
4
74
0
42
0.000000001
43
0.0000000001
44
0.0000000001
40
0
40
0
40
0
40
0
40
0.99363028764237127
40
0.99363028764237127
40
0.99363028764237127
40
0.99363028764237127
41
1
41
1
41
1
41
1
10
25.981545985097707
20
1.4733445898554898
30
0
10
27.819962718849453
20
5.4020364082836601
30
0
10
27.831672904636903
20
5.4270610451088173
30
0
10
33.247747234461308
20
6.2459957253313005
30
0
0
SPLINE
5
310
100
AcDbEntity
8
0
100
AcDbSpline
70
0
71
3
72
14
73
10
74
0
42
0.000000001
43
0.0000000001
44
0.0000000001
40
0
40
0
40
0
40
0
40
0.03425291051190351
40
0.03425291051190351
40
0.092371102648678122
40
0.092371102648678122
40
0.2293553407051723
40
0.2293553407051723
40
0.33015763575665213
40
0.33015763575665213
40
0.33015763575665213
40
0.33015763575665213
10
36.289758958309434
20
3.353764701536377
30
0
10
36.176377547471148
20
3.3672145629173933
30
0
10
36.066805443692694
20
3.4045456011417126
30
0
10
35.789818591845787
20
3.5373390329946703
30
0
10
35.615137475946888
20
3.6646246448412656
30
0
10
35.035569877684175
20
4.170708890688112
30
0
10
34.607761978397136
20
4.6861469682241799
30
0
10
33.863385710564188
20
5.5747804079392305
30
0
10
33.550075660994068
20
5.9462281571911433
30
0
10
33.247747234461315
20
6.2459957253312961
30
0
0
LINE
5
311
100
AcDbEntity
8
0
100
AcDbLine
10
36.289758958309434
20
3.353764701536377
30
0
11
41.036523899870367
21
3.3333730461947431
31
0
0
SPLINE
5
312
100
AcDbEntity
8
0
100
AcDbSpline
70
4
71
3
72
8
73
4
74
0
42
0.000000001
43
0.0000000001
44
0.0000000001
40
0.19431690507221416
40
0.19431690507221416
40
0.19431690507221416
40
0.19431690507221416
40
0.31210525304500619
40
0.31210525304500619
40
0.31210525304500619
40
0.31210525304500619
41
1
41
1
41
1
41
1
10
110.249146244857
20
36.888640895554545
30
0
10
110.43119557336084
20
37.198776165996911
30
0
10
110.6021035718754
20
37.464848233714136
30
0
10
110.77287871002278
20
37.694073441259221
30
0
0
LINE
5
313
100
AcDbEntity
8
0
100
AcDbLine
10
110.77287871002278
20
37.694073441259221
30
0
11
111.6941916969819
21
36.50726013254728
31
0
0
SPLINE
5
314
100
AcDbEntity
8
0
100
AcDbSpline
70
0
71
3
72
14
73
10
74
0
42
0.000000001
43
0.0000000001
44
0.0000000001
40
0
40
0
40
0
40
0
40
0.57241765401706479
40
0.57241765401706479
40
1.0661502827864018
40
1.0661502827864018
40
1.423062510195084
40
1.423062510195084
40
1.8255207350503329
40
1.8255207350503329
40
1.8255207350503329
40
1.8255207350503329
10
109.60807978241732
20
26.019099847409528
30
0
10
111.01301748203517
20
27.310160892733307
30
0
10
111.81327313173645
20
28.588471272094726
30
0
10
112.69458297614122
20
30.478102272446517
30
0
10
112.98125182015583
20
31.432488218485297
30
0
10
113.0864352329675
20
33.096667472512109
30
0
10
113.01172719757412
20
33.780672864301572
30
0
10
112.56699169486878
20
35.204433187918127
30
0
10
112.17843286390934
20
35.88347226710912
30
0
10
111.69419169698189
20
36.50726013254728
30
0
0
LINE
5
315
100
AcDbEntity
8
0
100
AcDbLine
10
109.60807978241732
20
26.019099847409528
30
0
11
108.77900780697416
21
25.257227964011861
31
0
0
SPLINE
5
316
100
AcDbEntity
8
0
100
AcDbSpline
70
4
71
3
72
8
73
4
74
0
42
0.000000001
43
0.0000000001
44
0.0000000001
40
0.68951266459490801
40
0.68951266459490801
40
0.68951266459490801
40
0.68951266459490801
40
1
40
1
40
1
40
1
41
1
41
1
41
1
41
1
10
108.77900780697416
20
25.257227964011854
30
0
10
108.54039683355109
20
25.794073935085908
30
0
10
108.33753675775253
20
26.514934726956746
30
0
10
108.04332885380092
20
27.560398906058296
30
0
0
SPLINE
5
317
100
AcDbEntity
8
0
100
AcDbSpline
70
4
71
3
72
8
73
4
74
0
42
0.000000001
43
0.0000000001
44
0.0000000001
40
0
40
0
40
0
40
0
40
0.5609261810918621
40
0.5609261810918621
40
0.5609261810918621
40
0.5609261810918621
41
1
41
1
41
1
41
1
10
108.04332885380092
20
27.560398906058296
30
0
10
107.51181534562214
20
29.449129157931246
30
0
10
107.27844167978482
20
30.278421162508423
30
0
10
107.54871839288661
20
31.354500135512954
30
0
0
ARC
5
318
100
AcDbEntity
8
0
100
AcDbCircle
10
103.0000015348196
20
37.000000551342964
30
0
40
7.2499999999999893
210
-0
220
0
230
1
100
AcDbArc
50
308.85923722078076
51
359.11990493809196
0
ARC
5
319
100
AcDbEntity
8
0
100
AcDbCircle
10
92.324868071431951
20
-57.61641911508022
30
0
40
7.2500000000000018
210
0
220
0
230
1
100
AcDbArc
50
132.40976321741684
51
224.14919530971855
0
LINE
5
320
100
AcDbEntity
8
0
100
AcDbLine
10
87.122786385616308
20
-62.666255363326457
30
0
11
71.368292425600387
21
-62.666255363326457
31
0
0
SPLINE
5
321
100
AcDbEntity
8
0
100
AcDbSpline
70
4
71
3
72
8
73
4
74
0
42
0.000000001
43
0.0000000001
44
0.0000000001
40
0.88052242031354955
40
0.88052242031354955
40
0.88052242031354955
40
0.88052242031354955
40
1
40
1
40
1
40
1
41
1
41
1
41
1
41
1
10
71.368292425600401
20
-62.666255363326457
30
0
10
71.288729423143693
20
-62.237416323922673
30
0
10
71.211753686026384
20
-61.754466371638628
30
0
10
71.124333155507827
20
-61.205985218697556
30
0
0
SPLINE
5
322
100
AcDbEntity
8
0
100
AcDbSpline
70
4
71
3
72
8
73
4
74
0
42
0.000000001
43
0.0000000001
44
0.0000000001
40
0
40
0
40
0
40
0
40
1
40
1
40
1
40
1
41
1
41
1
41
1
41
1
10
71.124333155507827
20
-61.205985218697556
30
0
10
70.392643320913123
20
-56.615325504952438
30
0
10
70.392643320913123
20
-56.615325504952438
30
0
10
72.646720850820344
20
-53.244782692605028
30
0
0
SPLINE
5
323
100
AcDbEntity
8
0
100
AcDbSpline
70
4
71
3
72
8
73
4
74
0
42
0.000000001
43
0.0000000001
44
0.0000000001
40
0
40
0
40
0
40
0
40
1
40
1
40
1
40
1
41
1
41
1
41
1
41
1
10
72.646720850820344
20
-53.244782692605028
30
0
10
74.900798380727565
20
-49.874243917478879
30
0
10
74.900798380727565
20
-49.874243917478879
30
0
10
82.644616727386904
20
-51.293977187488252
30
0
0
SPLINE
5
324
100
AcDbEntity
8
0
100
AcDbSpline
70
4
71
3
72
8
73
4
74
0
42
0.000000001
43
0.0000000001
44
0.0000000001
40
0
40
0
40
0
40
0
40
0.27165798755029935
40
0.27165798755029935
40
0.27165798755029935
40
0.27165798755029935
41
1
41
1
41
1
41
1
10
82.644616727386904
20
-51.293977187488252
30
0
10
84.748289028882283
20
-51.679657973733782
30
0
10
86.280481946488123
20
-51.960565493751034
30
0
10
87.435263543151237
20
-52.263451007850662
30
0
0
SPLINE
5
325
100
AcDbEntity
8
0
100
AcDbSpline
70
4
71
3
72
8
73
4
74
0
42
0.000000001
43
0.0000000001
44
0.0000000001
40
0.49396297184104404
40
0.49396297184104404
40
0.49396297184104404
40
0.49396297184104404
40
0.94610728557953538
40
0.94610728557953538
40
0.94610728557953538
40
0.94610728557953538
41
1
41
1
41
1
41
1
10
95.240869467612896
20
-50.978690899985033
30
0
10
95.400099004963408
20
-49.707606856392132
30
0
10
96.11062705079587
20
-48.299830689451319
30
0
10
97.514721006565267
20
-45.71281186171084
30
0
0
LINE
5
326
100
AcDbEntity
8
0
100
AcDbLine
10
97.514721006565267
20
-45.712811861710847
30
0
11
96.773273122877896
21
-51.891544225768662
31
0
0
ARC
5
327
100
AcDbEntity
8
0
100
AcDbCircle
10
92.324868071431951
20
-57.61641911508022
30
0
40
7.2499999999999947
210
0
220
-0
230
1
100
AcDbArc
50
52.151687027020216
51
66.283773024943414
0
SPLINE
5
328
100
AcDbEntity
8
0
100
AcDbSpline
70
4
71
5
72
13
73
7
74
0
42
0.000000001
43
0.0000000001
44
0.0000000001
40
0.25067096755453511
40
0.25067096755453511
40
0.25067096755453511
40
0.25067096755453511
40
0.25067096755453511
40
0.25067096755453511
40
0.40000000000000002
40
0.51852500900289167
40
0.51852500900289167
40
0.51852500900289167
40
0.51852500900289167
40
0.51852500900289167
40
0.51852500900289167
41
1
41
1
41
1
41
1
41
1
41
1
41
1
10
88.087137234655287
20
45.037190751045266
30
0
10
87.619102762561667
20
44.844571703523009
30
0
10
86.776635331839017
20
44.531304670842658
30
0
10
85.932027544353033
20
44.279065944896715
30
0
10
85.092057494982896
20
44.096306380900458
30
0
10
84.264828235257454
20
43.997284751213485
30
0
10
83.902004926720593
20
43.971278534118277
30
0
0
SPLINE
5
329
100
AcDbEntity
8
0
100
AcDbSpline
70
4
71
5
72
12
73
6
74
0
42
0.000000001
43
0.0000000001
44
0.0000000001
40
-0.18514891808248199
40
-0.18514891808248199
40
-0.18514891808248199
40
-0.18514891808248199
40
-0.18514891808248199
40
-0.18514891808248199
40
0
40
0
40
0
40
0
40
0
40
0
41
1
41
1
41
1
41
1
41
1
41
1
10
103.40644574833009
20
16.969482145140333
30
0
10
103.77259336329482
20
17.553960689130001
30
0
10
104.18743492666067
20
18.12650455739918
30
0
10
104.65515145744583
20
18.68635943735174
30
0
10
105.17907280903223
20
19.232865789596882
30
0
10
105.75924584845851
20
19.766013139087224
30
0
0
SPLINE
5
330
100
AcDbEntity
8
0
100
AcDbSpline
70
4
71
5
72
13
73
7
74
0
42
0.000000001
43
0.0000000001
44
0.0000000001
40
0.60059888325017907
40
0.60059888325017907
40
0.60059888325017907
40
0.60059888325017907
40
0.60059888325017907
40
0.60059888325017907
40
0.80000000000000004
40
1
40
1
40
1
40
1
40
1
40
1
41
1
41
1
41
1
41
1
41
1
41
1
41
1
10
97.028749340522168
20
49.944360810465284
30
0
10
96.479710737103304
20
49.717923045406742
30
0
10
95.386999135007272
20
49.215825254743173
30
0
10
94.323271572712741
20
48.644010742760635
30
0
10
93.316441531331847
20
48.045814645563439
30
0
10
92.38185585533148
20
47.437201651852348
30
0
10
91.931997074058984
20
47.129834576059352
30
0
0
SPLINE
5
331
100
AcDbEntity
8
0
100
AcDbSpline
70
0
71
3
72
8
73
4
74
0
42
0.000000001
43
0.0000000001
44
0.0000000001
40
0
40
0
40
0
40
0
40
0.13853297345172275
40
0.13853297345172275
40
0.13853297345172275
40
0.13853297345172275
10
82.511842564808248
20
43.98507290019397
30
0
10
82.971332898134463
20
43.939179090934182
30
0
10
83.437584966531631
20
43.938044426687611
30
0
10
83.902004926720636
20
43.971278534118298
30
0
0
ENDSEC
0
SECTION
2
OBJECTS
0
DICTIONARY
5
C
100
AcDbDictionary
3
ACAD_GROUP
350
D
3
ACAD_MLINESTYLE
350
17
0
DICTIONARY
5
D
100
AcDbDictionary
0
DICTIONARY
5
1A
330
C
100
AcDbDictionary
0
DICTIONARY
5
17
100
AcDbDictionary
0
ENDSEC
0
EOF
