0
SECTION
2
HEADER
9
$INSUNITS
70
4
9
$ACADVER
1
AC1014
9
$HANDSEED
5
FFFF
0
ENDSEC
0
SECTION
2
TABLES
0
TABLE
2
VPORT
5
8
100
AcDbSymbolTable
0
ENDTAB
0
TABLE
2
LTYPE
5
5
100
AcDbSymbolTable
0
LTYPE
5
14
100
AcDbSymbolTableRecord
100
AcDbLinetypeTableRecord
2
BYBLOCK
70
0
0
LTYPE
5
15
100
AcDbSymbolTableRecord
100
AcDbLinetypeTableRecord
2
BYLAYER
70
0
0
ENDTAB
0
TABLE
2
LAYER
5
2
100
AcDbSymbolTable
70
2
0
LAYER
5
50
100
AcDbSymbolTableRecord
100
AcDbLayerTableRecord
2
0
70
0
6
CONTINUOUS
0
ENDTAB
0
TABLE
2
STYLE
5
3
100
AcDbSymbolTable
70
1
0
STYLE
5
11
100
AcDbSymbolTableRecord
100
AcDbTextStyleTableRecord
2
STANDARD
70
0
0
ENDTAB
0
TABLE
2
VIEW
5
6
100
AcDbSymbolTable
70
0
0
ENDTAB
0
TABLE
2
UCS
5
7
100
AcDbSymbolTable
70
0
0
ENDTAB
0
TABLE
2
APPID
5
9
100
AcDbSymbolTable
70
2
0
APPID
5
12
100
AcDbSymbolTableRecord
100
AcDbRegAppTableRecord
2
ACAD
70
0
0
ENDTAB
0
TABLE
2
DIMSTYLE
5
A
100
AcDbSymbolTable
70
1
0
ENDTAB
0
TABLE
2
BLOCK_RECORD
5
1
100
AcDbSymbolTable
70
1
0
BLOCK_RECORD
5
1F
100
AcDbSymbolTableRecord
100
AcDbBlockTableRecord
2
*MODEL_SPACE
0
BLOCK_RECORD
5
1B
100
AcDbSymbolTableRecord
100
AcDbBlockTableRecord
2
*PAPER_SPACE
0
ENDTAB
0
ENDSEC
0
SECTION
2
BLOCKS
0
BLOCK
5
20
100
AcDbEntity
100
AcDbBlockBegin
2
*MODEL_SPACE
0
ENDBLK
5
21
100
AcDbEntity
100
AcDbBlockEnd
0
BLOCK
5
1C
100
AcDbEntity
100
AcDbBlockBegin
2
*PAPER_SPACE
0
ENDBLK
5
1D
100
AcDbEntity
100
AcDbBlockEnd
0
ENDSEC
0
SECTION
2
ENTITIES
0
SPLINE
5
100
100
AcDbEntity
8
0
100
AcDbSpline
70
4
71
3
72
8
73
4
74
0
42
0.000000001
43
0.0000000001
44
0.0000000001
40
0.7761301960345246
40
0.7761301960345246
40
0.7761301960345246
40
0.7761301960345246
40
1
40
1
40
1
40
1
41
1
41
1
41
1
41
1
10
85.294615265825172
20
-55.844966183371909
30
0
10
85.051474860971936
20
-55.150224901420486
30
0
10
84.790542161508654
20
-54.27228559490824
30
0
10
84.454345089424038
20
-53.141110295972709
30
0
0
SPLINE
5
101
100
AcDbEntity
8
0
100
AcDbSpline
70
4
71
3
72
8
73
4
74
0
42
0.000000001
43
0.0000000001
44
0.0000000001
40
0
40
0
40
0
40
0
40
1
40
1
40
1
40
1
41
1
41
1
41
1
41
1
10
84.454345089424038
20
-53.141110295972709
30
0
10
82.952584392470982
20
-48.088282998840782
30
0
10
82.952584392470982
20
-48.088282998840782
30
0
10
86.970633247962311
20
-42.03929557678844
30
0
0
SPLINE
5
102
100
AcDbEntity
8
0
100
AcDbSpline
70
4
71
3
72
8
73
4
74
0
42
0.000000001
43
0.0000000001
44
0.0000000001
40
0
40
0
40
0
40
0
40
0.98551909510566893
40
0.98551909510566893
40
0.98551909510566893
40
0.98551909510566893
41
1
41
1
41
1
41
1
10
86.970633247962311
20
-42.03929557678844
30
0
10
90.930497120116485
20
-36.077902966301842
30
0
10
90.987839532243669
20
-35.991576606871611
30
0
10
98.048681398449816
20
-41.263141929336207
30
0
0
LINE
5
103
100
AcDbEntity
8
0
100
AcDbLine
10
98.04868139844983
20
-41.263141929336207
30
0
11
96.773273122877896
21
-51.891544225768662
31
0
0
ARC
5
104
100
AcDbEntity
8
0
100
AcDbCircle
10
92.324868071431951
20
-57.61641911508022
30
0
40
7.2499999999999947
210
0
220
-0
230
1
100
AcDbArc
50
52.151687027020216
51
165.85726520975837
0
SPLINE
5
105
100
AcDbEntity
8
0
100
AcDbSpline
70
4
71
3
72
8
73
4
74
0
42
0.000000001
43
0.0000000001
44
0.0000000001
40
0.7970545869007597
40
0.7970545869007597
40
0.7970545869007597
40
0.7970545869007597
40
1
40
1
40
1
40
1
41
1
41
1
41
1
41
1
10
95.89165156073571
20
35.573865688876708
30
0
10
95.010805433786743
20
35.799296488630908
30
0
10
93.931430254602589
20
36.12233943231
30
0
10
92.577225414779548
20
36.527635316667443
30
0
0
SPLINE
5
106
100
AcDbEntity
8
0
100
AcDbSpline
70
4
71
3
72
8
73
4
74
0
42
0.000000001
43
0.0000000001
44
0.0000000001
40
0
40
0
40
0
40
0
40
0.62227758738196914
40
0.62227758738196914
40
0.62227758738196914
40
0.62227758738196914
41
1
41
1
41
1
41
1
10
92.577225414779548
20
36.527635316667443
30
0
10
88.42491920877103
20
37.770356251259287
30
0
10
86.856500090708678
20
38.239759800884258
30
0
10
86.128093826919084
20
39.69499624909097
30
0
0
LINE
5
107
100
AcDbEntity
8
0
100
AcDbLine
10
86.12809382691907
20
39.69499624909097
30
0
11
92.531143522338482
21
44.296382215264771
31
0
0
SPLINE
5
108
100
AcDbEntity
8
0
100
AcDbSpline
70
0
71
3
72
10
73
6
74
0
42
0.000000001
43
0.0000000001
44
0.0000000001
40
0
40
0
40
0
40
0
40
0.70683393170515407
40
0.70683393170515407
40
0.96243672704796224
40
0.96243672704796224
40
0.96243672704796224
40
0.96243672704796224
10
92.531143522338482
20
44.296382215264757
30
0
10
94.44445771530215
20
45.671335947496829
30
0
10
96.163693327557809
20
47.189980344130014
30
0
10
98.383090681128806
20
48.501918883704064
30
0
10
98.951689960626922
20
48.772295039574175
30
0
10
99.498284627117911
20
48.930177742325313
30
0
0
SPLINE
5
109
100
AcDbEntity
8
0
100
AcDbSpline
70
4
71
3
72
8
73
4
74
0
42
0.000000001
43
0.0000000001
44
0.0000000001
40
0.51286733094421566
40
0.51286733094421566
40
0.51286733094421566
40
0.51286733094421566
40
1
40
1
40
1
40
1
41
1
41
1
41
1
41
1
10
99.498284627117926
20
48.930177742325313
30
0
10
100.63868783955922
20
48.479686616183926
30
0
10
101.14532761564385
20
47.576417757304093
30
0
10
102.13318499223264
20
45.815204273074428
30
0
0
SPLINE
5
110
100
AcDbEntity
8
0
100
AcDbSpline
70
4
71
3
72
8
73
4
74
0
42
0.000000001
43
0.0000000001
44
0.0000000001
40
0
40
0
40
0
40
0
40
0.16976713745994673
40
0.16976713745994673
40
0.16976713745994673
40
0.16976713745994673
41
1
41
1
41
1
41
1
10
102.13318499223264
20
45.815204273074428
30
0
10
102.47745613168883
20
45.201416303868676
30
0
10
102.76328134528946
20
44.691829361202338
30
0
10
102.98856820250498
20
44.249991536089922
30
0
0
ARC
5
111
100
AcDbEntity
8
0
100
AcDbCircle
10
103.0000015348196
20
37.000000551342964
30
0
40
7.2499999999999956
210
0
220
0
230
1
100
AcDbArc
50
90.090356132265697
51
191.34453251174904
0
SPLINE
5
112
100
AcDbEntity
8
0
100
AcDbSpline
70
0
71
3
72
8
73
4
74
0
42
0.000000001
43
0.0000000001
44
0.0000000001
40
1.5145440252161764
40
1.5145440252161764
40
1.5145440252161764
40
1.5145440252161764
40
2.5445931171362499
40
2.5445931171362499
40
2.5445931171362499
40
2.5445931171362499
10
3.6131588656769278
20
-58.651560166313239
30
0
10
4.4370508289055142
20
-59.769461593258654
30
0
10
5.2762315688549215
20
-60.911041176360101
30
0
10
6.2392737297999865
20
-61.97326739979475
30
0
0
SPLINE
5
113
100
AcDbEntity
8
0
100
AcDbSpline
70
0
71
3
72
8
73
4
74
0
42
0.000000001
43
0.0000000001
44
0.0000000001
40
2.4978304761916625
40
2.4978304761916625
40
2.4978304761916625
40
2.4978304761916625
40
3.850139416094895
40
3.850139416094895
40
3.850139416094895
40
3.850139416094895
10
6.2392737297999759
20
-61.973267399794736
30
0
10
7.5567833717094004
20
-63.426468938832983
30
0
10
8.9138060636308438
20
-64.509662998929457
30
0
10
10.467340166086899
20
-65.269933415778524
30
0
0
SPLINE
5
114
100
AcDbEntity
8
0
100
AcDbSpline
70
0
71
3
72
10
73
6
74
0
42
0.000000001
43
0.0000000001
44
0.0000000001
40
0
40
0
40
0
40
0
40
0.16752359114887216
40
0.16752359114887216
40
0.33872667839397425
40
0.33872667839397425
40
0.33872667839397425
40
0.33872667839397425
10
10.467340166086903
20
-65.269933415778524
30
0
10
10.968911270331446
20
-65.515392895490365
30
0
10
11.489250579582912
20
-65.726206413095298
30
0
10
12.561763664468097
20
-66.080190209329075
30
0
10
13.117237145838557
20
-66.222723376065431
30
0
10
13.678583456221794
20
-66.326953889446614
30
0
0
SPLINE
5
115
100
AcDbEntity
8
0
100
AcDbSpline
70
0
71
3
72
10
73
6
74
0
42
0.000000001
43
0.0000000001
44
0.0000000001
40
0
40
0
40
0
40
0
40
0.054782315220300519
40
0.054782315220300519
40
0.10972982387178565
40
0.10972982387178565
40
0.10972982387178565
40
0.10972982387178565
10
13.678583456227802
20
-66.326953889447722
30
0
10
13.858122427544785
20
-66.360290599436013
30
0
10
14.038417960684965
20
-66.389738056325953
30
0
10
14.400607567493758
20
-66.440771161336968
30
0
10
14.582565519287908
20
-66.462341404613653
30
0
10
14.764887226523468
20
-66.479838820749706
30
0
0
LINE
5
116
100
AcDbEntity
8
0
100
AcDbLine
10
14.764887226523468
20
-66.479838820749706
30
0
11
51.273563264411251
21
-69.983576839097083
31
0
0
SPLINE
5
117
100
AcDbEntity
8
0
100
AcDbSpline
70
0
71
3
72
8
73
4
74
0
42
0.000000001
43
0.0000000001
44
0.0000000001
40
0
40
0
40
0
40
0
40
0.096319517754942477
40
0.096319517754942477
40
0.096319517754942477
40
0.096319517754942477
10
51.27356326443681
20
-69.983576839099527
30
0
10
51.593159915576891
20
-70.01424853302602
30
0
10
51.948499725966393
20
-70.027814534415455
30
0
10
52.33579606277813
20
-70.011211545525612
30
0
0
SPLINE
5
118
100
AcDbEntity
8
0
100
AcDbSpline
70
0
71
3
72
8
73
4
74
0
42
0.000000001
43
0.0000000001
44
0.0000000001
40
0.10610430922204482
40
0.10610430922204482
40
0.10610430922204482
40
0.10610430922204482
40
0.18912520823253637
40
0.18912520823253637
40
0.18912520823253637
40
0.18912520823253637
10
52.335796062778144
20
-70.011211545525612
30
0
10
52.612745000133245
20
-69.999339034239256
30
0
10
52.890307304029292
20
-69.972482215468105
30
0
10
53.163756369979026
20
-69.929938205334636
30
0
0
SPLINE
5
119
100
AcDbEntity
8
0
100
AcDbSpline
70
0
71
3
72
10
73
6
74
0
42
0.000000001
43
0.0000000001
44
0.0000000001
40
0
40
0
40
0
40
0
40
0.06638262375048197
40
0.06638262375048197
40
0.13055677772025931
40
0.13055677772025931
40
0.13055677772025931
40
0.13055677772025931
10
53.163756369979026
20
-69.929938205334636
30
0
10
53.38240133972657
20
-69.895920777715105
30
0
10
53.598420071381732
20
-69.851762638261931
30
0
10
54.017261942618461
20
-69.746772383643872
30
0
10
54.220777673387289
20
-69.686420223060495
30
0
10
54.421689315030868
20
-69.617990077776227
30
0
0
SPLINE
5
120
100
AcDbEntity
8
0
100
AcDbSpline
70
0
71
3
72
14
73
10
74
0
42
0.000000001
43
0.0000000001
44
0.0000000001
40
0
40
0
40
0
40
0
40
0.27483303769251566
40
0.27483303769251566
40
0.53116465417876202
40
0.53116465417876202
40
0.67070716938182817
40
0.67070716938182817
40
0.81363091489692163
40
0.81363091489692163
40
0.81363091489692163
40
0.81363091489692163
10
54.421689315053435
20
-69.617990077768553
30
0
10
55.288879186580211
20
-69.322626760776316
30
0
10
56.060773918493155
20
-68.893438835468316
30
0
10
57.52014820050136
20
-67.880458594929678
30
0
10
58.031269454745015
20
-67.43295128369914
30
0
10
58.621770529578313
20
-66.970220890626734
30
0
10
58.764416149877327
20
-66.872229200984918
30
0
10
58.993009391797074
20
-66.724538013081713
30
0
10
59.069950296317202
20
-66.683197148951535
30
0
10
59.108173770916309
20
-66.666255363326457
30
0
0
LINE
5
121
100
AcDbEntity
8
0
100
AcDbLine
10
59.108173770916316
20
-66.666255363326457
30
0
11
90.0723350274219
21
-66.666255363326457
31
0
0
SPLINE
5
122
100
AcDbEntity
8
0
100
AcDbSpline
70
0
71
3
72
10
73
6
74
0
42
0.000000001
43
0.0000000001
44
0.0000000001
40
0
40
0
40
0
40
0
40
0.051543272699155318
40
0.051543272699155318
40
0.10377005320716937
40
0.10377005320716937
40
0.10377005320716937
40
0.10377005320716937
10
90.0723350274219
20
-66.666255363326457
30
0
10
90.244145936419088
20
-66.666255363326457
30
0
10
90.415454704340846
20
-66.664845580200861
30
0
10
90.761238266284238
20
-66.658289778349271
30
0
10
90.934681476546402
20
-66.653113854670238
30
0
10
91.10855527901208
20
-66.645672404905895
30
0
0
SPLINE
5
123
100
AcDbEntity
8
0
100
AcDbSpline
70
0
71
3
72
8
73
4
74
0
42
0.000000001
43
0.0000000001
44
0.0000000001
40
0
40
0
40
0
40
0
40
0.11952127639606544
40
0.11952127639606544
40
0.11952127639606544
40
0.11952127639606544
10
91.10855527901208
20
-66.645672404905895
30
0
10
91.50659516194402
20
-66.628637096820171
30
0
10
91.911216743496595
20
-66.599131180493515
30
0
10
92.31324183451963
20
-66.554952667565487
30
0
0
SPLINE
5
124
100
AcDbEntity
8
0
100
AcDbSpline
70
0
71
3
72
10
73
6
74
0
42
0.000000001
43
0.0000000001
44
0.0000000001
40
0.10833802825758239
40
0.10833802825758239
40
0.10833802825758239
40
0.10833802825758239
40
0.19453393620736625
40
0.19453393620736625
40
0.26929080473601252
40
0.26929080473601252
40
0.26929080473601252
40
0.26929080473601252
10
92.313241834519658
20
-66.554952667565487
30
0
10
93.122628689986584
20
-66.466019359165671
30
0
10
94.031023816257928
20
-66.317144705887969
30
0
10
95.587104874425222
20
-65.828306766505463
30
0
10
96.414901928221823
20
-65.469643279136776
30
0
10
97.196285507433728
20
-64.889651591372456
30
0
0
SPLINE
5
125
100
AcDbEntity
8
0
100
AcDbSpline
70
0
71
3
72
12
73
8
74
0
42
0.000000001
43
0.0000000001
44
0.0000000001
40
0.67265380299134758
40
0.67265380299134758
40
0.67265380299134758
40
0.67265380299134758
40
0.75636186944000028
40
0.75636186944000028
40
1.0076557976670735
40
1.0076557976670735
40
1.2232240722507242
40
1.2232240722507242
40
1.2232240722507242
40
1.2232240722507242
10
97.196285507433728
20
-64.889651591372441
30
0
10
97.420950416345818
20
-64.722891266267112
30
0
10
97.642241354166146
20
-64.537726214475498
30
0
10
98.497895876697015
20
-63.713926807662808
30
0
10
98.89893000529085
20
-63.075329827173682
30
0
10
99.405533758646868
20
-61.99626171985679
30
0
10
99.671267906785573
20
-61.314063191909781
30
0
10
99.788796730422177
20
-60.334656328270881
30
0
0
LINE
5
126
100
AcDbEntity
8
0
100
AcDbLine
10
99.788796730422177
20
-60.334656328270881
30
0
11
102.78879677512566
21
-35.334655955741781
31
0
0
SPLINE
5
127
100
AcDbEntity
8
0
100
AcDbSpline
70
0
71
3
72
10
73
6
74
0
42
0.000000001
43
0.0000000001
44
0.0000000001
40
0
40
0
40
0
40
0
40
0.89936986707636335
40
0.89936986707636335
40
1.1278842389041162
40
1.1278842389041162
40
1.1278842389041162
40
1.1278842389041162
10
102.78879677512566
20
-35.334655955741781
30
0
10
103.14598217922693
20
-32.358110921564503
30
0
10
103.28758363746874
20
-29.355342582123495
30
0
10
103.31401952708767
20
-25.701641157311968
30
0
10
103.31162747625163
20
-24.962689729831709
30
0
10
103.30190363831102
20
-24.224477352995034
30
0
0
SPLINE
5
128
100
AcDbEntity
8
0
100
AcDbSpline
70
0
71
3
72
8
73
4
74
0
42
0.000000001
43
0.0000000001
44
0.0000000001
40
0.83758403071439447
40
0.83758403071439447
40
0.83758403071439447
40
0.83758403071439447
40
1.0695394071900892
40
1.0695394071900892
40
1.0695394071900892
40
1.0695394071900892
10
103.30190363831099
20
-24.224477352995031
30
0
10
103.28503082228245
20
-22.943530292747319
30
0
10
103.24610478852495
20
-21.666497262828443
30
0
10
103.18746709544865
20
-20.390727056941586
30
0
0
SPLINE
5
129
100
AcDbEntity
8
0
100
AcDbSpline
70
0
71
3
72
8
73
4
74
0
42
0.000000001
43
0.0000000001
44
0.0000000001
40
1.5238478610727084
40
1.5238478610727084
40
1.5238478610727084
40
1.5238478610727084
40
1.8002453901197573
40
1.8002453901197573
40
1.8002453901197573
40
1.8002453901197573
10
103.18746709544865
20
-20.390727056941593
30
0
10
103.14647515227593
20
-19.498872392793633
30
0
10
103.09580496570487
20
-18.606664974778017
30
0
10
103.03618936160905
20
-17.713103776760892
30
0
0
SPLINE
5
130
100
AcDbEntity
8
0
100
AcDbSpline
70
0
71
3
72
10
73
6
74
0
42
0.000000001
43
0.0000000001
44
0.0000000001
40
0
40
0
40
0
40
0
40
0.14827688831342564
40
0.14827688831342564
40
0.29673613465429305
40
0.29673613465429305
40
0.29673613465429305
40
0.29673613465429305
10
103.03618936160905
20
-17.713103776760889
30
0
10
103.00328727448237
20
-17.219943825837191
30
0
10
102.96770472685918
20
-16.727033932121287
30
0
10
102.89142838440529
20
-15.740859662609184
30
0
10
102.85073837378279
20
-15.247725162772021
30
0
10
102.80767421611438
20
-14.754739444979778
30
0
0
LINE
5
131
100
AcDbEntity
8
0
100
AcDbLine
10
102.80767421611438
20
-14.754739444979776
30
0
11
101.32179700736134
21
2.2551426000506769
31
0
0
SPLINE
5
132
100
AcDbEntity
8
0
100
AcDbSpline
70
0
71
3
72
12
73
8
74
0
42
0.000000001
43
0.0000000001
44
0.0000000001
40
0
40
0
40
0
40
0
40
0.71981479212627875
40
0.71981479212627875
40
1.0380983629585154
40
1.0380983629585154
40
1.3877578333003151
40
1.3877578333003151
40
1.3877578333003151
40
1.3877578333003151
10
101.32179700736134
20
2.2551426000506791
30
0
10
101.11299703321612
20
4.6454228400958195
30
0
10
100.9032048901409
20
8.3623857298376567
30
0
10
101.73477154965455
20
13.163392814485853
30
0
10
102.15016414049737
20
14.589282397748363
30
0
10
103.56235967328925
20
17.406154348488943
30
0
10
104.54657754772072
20
18.651637174653146
30
0
10
105.75924584845851
20
19.766013139087224
30
0
0
LINE
5
133
100
AcDbEntity
8
0
100
AcDbLine
10
105.75924584845851
20
19.766013139087224
30
0
11
110.96135150937766
21
24.546464239728571
31
0
0
SPLINE
5
134
100
AcDbEntity
8
0
100
AcDbSpline
70
0
71
3
72
10
73
6
74
0
42
0.000000001
43
0.0000000001
44
0.0000000001
40
0
40
0
40
0
40
0
40
0.53411523932250815
40
0.53411523932250815
40
1.1760495750202207
40
1.1760495750202207
40
1.1760495750202207
40
1.1760495750202207
10
110.96135150937764
20
24.546464239728571
30
0
10
112.27228004276326
20
25.751135993584885
30
0
10
113.07653076508544
20
26.905347739112134
30
0
10
114.2524877625498
20
28.990417316474936
30
0
10
114.72698947421405
20
30.249822831668251
30
0
10
114.927308568437
20
31.53613686509533
30
0
0
SPLINE
5
135
100
AcDbEntity
8
0
100
AcDbSpline
70
0
71
3
72
12
73
8
74
0
42
0.000000001
43
0.0000000001
44
0.0000000001
40
0
40
0
40
0
40
0
40
0.25702652168145884
40
0.25702652168145884
40
0.3736148717766028
40
0.3736148717766028
40
0.50166269411511499
40
0.50166269411511499
40
0.50166269411511499
40
0.50166269411511499
10
114.92730856843698
20
31.53613686509533
30
0
10
115.05914291685875
20
32.382688079399109
30
0
10
115.10970550757358
20
33.457160043129448
30
0
10
114.68681686067148
20
35.183302291498457
30
0
10
114.49537531903877
20
35.69903007046004
30
0
10
113.97822926982695
20
36.74203019070498
30
0
10
113.64756211050047
20
37.252507026052122
30
0
10
113.27403343357588
20
37.73367771531251
30
0
0
LINE
5
136
100
AcDbEntity
8
0
100
AcDbLine
10
113.27403343357588
20
37.73367771531251
30
0
11
104.59420128744279
21
48.914829456608267
31
0
0
SPLINE
5
137
100
AcDbEntity
8
0
100
AcDbSpline
70
0
71
3
72
16
73
12
74
0
42
0.000000001
43
0.0000000001
44
0.0000000001
40
0
40
0
40
0
40
0
40
0.20389949235369931
40
0.20389949235369931
40
0.36807055335943217
40
0.36807055335943217
40
0.5593129812325337
40
0.5593129812325337
40
0.79198845588954869
40
0.79198845588954869
40
0.83097049776005294
40
0.83097049776005294
40
0.83097049776005294
40
0.83097049776005294
10
104.5942012874403
20
48.9148294566115
30
0
10
104.17742474987422
20
49.451711003429111
30
0
10
103.68743649609867
20
49.921460508576686
30
0
10
102.62191090581598
20
50.534985904543028
30
0
10
102.11376321765633
20
50.706207815781198
30
0
10
100.93997869810491
20
50.881079437989278
30
0
10
100.29365876375537
20
50.847346090385571
30
0
10
98.901148167125612
20
50.614005547628977
30
0
10
97.878113429347479
20
50.33739237420388
30
0
10
96.205180447637261
20
49.58449043568276
30
0
10
95.962452706908493
20
49.469962923285841
30
0
10
95.718501324920894
20
49.349970655041851
30
0
0
SPLINE
5
138
100
AcDbEntity
8
0
100
AcDbSpline
70
0
71
3
72
8
73
4
74
0
42
0.000000001
43
0.0000000001
44
0.0000000001
40
0.53341055310650265
40
0.53341055310650265
40
0.53341055310650265
40
0.53341055310650265
40
0.8190570608466603
40
0.8190570608466603
40
0.8190570608466603
40
0.8190570608466603
10
95.718501324920894
20
49.349970655041851
30
0
10
94.359723566706521
20
48.681629185035725
30
0
10
93.022129992018648
20
47.874670469383801
30
0
10
91.931997074058984
20
47.129834576059352
30
0
0
SPLINE
5
139
100
AcDbEntity
8
0
100
AcDbSpline
70
0
71
3
72
10
73
6
74
0
42
0.000000001
43
0.0000000001
44
0.0000000001
40
0
40
0
40
0
40
0
40
0.66030374755482446
40
0.66030374755482446
40
0.9914309706074762
40
0.9914309706074762
40
0.9914309706074762
40
0.9914309706074762
10
91.931997074059012
20
47.129834576059352
30
0
10
90.11467436276439
20
45.888144537325886
30
0
10
88.471646294506456
20
45.146885210792448
30
0
10
86.603293557793279
20
44.489006038675207
30
0
10
85.955704692107815
20
44.302164398024132
30
0
10
85.303920396422058
20
44.168655101460423
30
0
0
SPLINE
5
140
100
AcDbEntity
8
0
100
AcDbSpline
70
0
71
3
72
10
73
6
74
0
42
0.000000001
43
0.0000000001
44
0.0000000001
40
0.88018147987544504
40
0.88018147987544504
40
0.88018147987544504
40
0.88018147987544504
40
1.3063813171827336
40
1.3063813171827336
40
1.4820835235181296
40
1.4820835235181296
40
1.4820835235181296
40
1.4820835235181296
10
85.303920396422058
20
44.168655101460423
30
0
10
84.355911911193232
20
43.974468241118601
30
0
10
83.365160104251174
20
43.886373595308008
30
0
10
82.014893549959353
20
44.041337245213242
30
0
10
81.630865193860558
20
44.119548946045548
30
0
10
81.258611409268454
20
44.234994568754608
30
0
0
SPLINE
5
141
100
AcDbEntity
8
0
100
AcDbSpline
70
0
71
3
72
12
73
8
74
0
42
0.000000001
43
0.0000000001
44
0.0000000001
40
0.12946647084097218
40
0.12946647084097218
40
0.12946647084097218
40
0.12946647084097218
40
0.23679759106024742
40
0.23679759106024742
40
0.4212272664605603
40
0.4212272664605603
40
0.63544244949809614
40
0.63544244949809614
40
0.63544244949809614
40
0.63544244949809614
10
81.258611409268454
20
44.234994568754601
30
0
10
80.922651984164077
20
44.33918436249612
30
0
10
80.595857084644464
20
44.473865668143375
30
0
10
79.736172029530536
20
44.931648249120791
30
0
10
79.255041205527505
20
45.303911956205063
30
0
10
78.324828274348263
20
46.255468882553799
30
0
10
77.90637959560155
20
46.845601470994282
30
0
10
77.550347136235771
20
47.464440663741627
30
0
0
SPLINE
5
142
100
AcDbEntity
8
0
100
AcDbSpline
70
0
71
3
72
8
73
4
74
0
42
0.000000001
43
0.0000000001
44
0.0000000001
40
0
40
0
40
0
40
0
40
0.22988204015265573
40
0.22988204015265573
40
0.22988204015265573
40
0.22988204015265573
10
77.550347136235771
20
47.464440663741627
30
0
10
77.168220691156165
20
48.12863521842273
30
0
10
76.742784349954064
20
48.86098376395352
30
0
10
76.303823949501577
20
49.603171571923603
30
0
0
SPLINE
5
143
100
AcDbEntity
8
0
100
AcDbSpline
70
0
71
3
72
10
73
6
74
0
42
0.000000001
43
0.0000000001
44
0.0000000001
40
0.22988204015265598
40
0.22988204015265598
40
0.22988204015265598
40
0.22988204015265598
40
0.49652833241409655
40
0.49652833241409655
40
0.7811762093108946
40
0.7811762093108946
40
0.7811762093108946
40
0.7811762093108946
10
76.303823949501577
20
49.603171571923603
30
0
10
75.794662106529714
20
50.464054949439515
30
0
10
75.26690694242302
20
51.337941148149312
30
0
10
74.234824208130789
20
52.984262427451
30
0
10
73.645638239813792
20
53.88987127742665
30
0
10
73.027726036906003
20
54.757259446345721
30
0
0
SPLINE
5
144
100
AcDbEntity
8
0
100
AcDbSpline
70
0
71
3
72
8
73
4
74
0
42
0.000000001
43
0.0000000001
44
0.0000000001
40
0.7811762093108956
40
0.7811762093108956
40
0.7811762093108956
40
0.7811762093108956
40
0.91571399702245904
40
0.91571399702245904
40
0.91571399702245904
40
0.91571399702245904
10
73.027726036906003
20
54.757259446345721
30
0
10
72.735672072950621
20
55.167227321763477
30
0
10
72.437107091041781
20
55.568590156204223
30
0
10
72.135477624434898
20
55.95182653123085
30
0
0
SPLINE
5
145
100
AcDbEntity
8
0
100
AcDbSpline
70
0
71
3
72
12
73
8
74
0
42
0.000000001
43
0.0000000001
44
0.0000000001
40
0
40
0
40
0
40
0
40
0.077881372065105467
40
0.077881372065105467
40
0.15576746075100367
40
0.15576746075100367
40
0.20314694590068419
40
0.20314694590068419
40
0.20314694590068419
40
0.20314694590068419
10
72.135477624434898
20
55.95182653123085
30
0
10
71.974918824728221
20
56.15582507643402
30
0
10
71.776166104040868
20
56.326624303029206
30
0
10
71.324494295754846
20
56.582723975743264
30
0
10
71.07586329422665
20
56.665586022218434
30
0
10
70.661705406980929
20
56.718716468318405
30
0
10
70.503423808775395
20
56.720161942207156
30
0
10
70.346814579216101
20
56.703064686788295
30
0
0
SPLINE
5
146
100
AcDbEntity
8
0
100
AcDbSpline
70
0
71
3
72
10
73
6
74
0
42
0.000000001
43
0.0000000001
44
0.0000000001
40
0.20314694590068635
40
0.20314694590068635
40
0.20314694590068635
40
0.20314694590068635
40
0.22004633075481128
40
0.22004633075481128
40
0.28432521782345727
40
0.28432521782345727
40
0.28432521782345727
40
0.28432521782345727
10
70.346814579216115
20
56.703064686788295
30
0
10
70.29095496753672
20
56.69696641243263
30
0
10
70.235308105645458
20
56.688509208636134
30
0
10
69.969744158733093
20
56.636576245287387
30
0
10
69.767432202761114
20
56.561929010059195
30
0
10
69.580837247653406
20
56.456615490386035
30
0
0
LINE
5
147
100
AcDbEntity
8
0
100
AcDbLine
10
69.580837247653392
20
56.456615490386035
30
0
11
68.009341450188131
21
55.569668930190417
31
0
0
SPLINE
5
148
100
AcDbEntity
8
0
100
AcDbSpline
70
0
71
3
72
8
73
4
74
0
42
0.000000001
43
0.0000000001
44
0.0000000001
40
0
40
0
40
0
40
0
40
0.17446426913331772
40
0.17446426913331772
40
0.17446426913331772
40
0.17446426913331772
10
68.009341450188131
20
55.56966893019041
30
0
10
67.502889737169752
20
55.283829409975738
30
0
10
67.017509981708073
20
54.941320344922467
30
0
10
66.532300874592124
20
54.52646946853087
30
0
0
SPLINE
5
149
100
AcDbEntity
8
0
100
AcDbSpline
70
0
71
3
72
10
73
6
74
0
42
0.000000001
43
0.0000000001
44
0.0000000001
40
0.17446426913331645
40
0.17446426913331645
40
0.17446426913331645
40
0.17446426913331645
40
0.30954591742982046
40
0.30954591742982046
40
0.46456634514719636
40
0.46456634514719636
40
0.46456634514719636
40
0.46456634514719636
10
66.532300874592124
20
54.52646946853087
30
0
10
66.156620247932636
20
54.205264785998402
30
0
10
65.781064621527747
20
53.840665585473943
30
0
10
64.954216686709984
20
52.948524523151761
30
0
10
63.892714073924424
20
51.749913757238403
30
0
10
61.88461089187912
20
48.839642281496978
30
0
0
ARC
5
150
100
AcDbEntity
8
0
100
AcDbCircle
10
66.000000983476653
20
46.000000685453408
30
0
40
4.9999999999999973
210
0
220
0
230
1
100
AcDbArc
50
145.39411286621365
51
259.38956289542358
0
SPLINE
5
151
100
AcDbEntity
8
0
100
AcDbSpline
70
0
71
3
72
16
73
12
74
0
42
0.000000001
43
0.0000000001
44
0.0000000001
40
0
40
0
40
0
40
0
40
0.27450188555584637
40
0.27450188555584637
40
0.52592056899934625
40
0.52592056899934625
40
0.80199699551123316
40
0.80199699551123316
40
0.99506511506675377
40
0.99506511506675377
40
1.0709722905493371
40
1.0709722905493371
40
1.0709722905493371
40
1.0709722905493371
10
65.079348979122869
20
41.085491565828193
30
0
10
65.978710325735207
20
40.917011091737606
30
0
10
67.044746905732808
20
40.573601931450334
30
0
10
69.167326898312595
20
39.181776563916614
30
0
10
69.999644406354747
20
38.338375256004937
30
0
10
71.343658649275341
20
36.526966380323557
30
0
10
71.908688161331312
20
35.42849255682264
30
0
10
72.406997097434697
20
33.484074451118644
30
0
10
72.478540294225439
20
32.664259959847527
30
0
10
72.339633835095157
20
31.518731550864345
30
0
10
72.275174559357595
20
31.204177688553465
30
0
10
72.187585721401561
20
30.897307163798388
30
0
0
SPLINE
5
152
100
AcDbEntity
8
0
100
AcDbSpline
70
0
71
3
72
8
73
4
74
0
42
0.000000001
43
0.0000000001
44
0.0000000001
40
1.0709722905493371
40
1.0709722905493371
40
1.0709722905493371
40
1.0709722905493371
40
1.2018647005340328
40
1.2018647005340328
40
1.2018647005340328
40
1.2018647005340328
10
72.187585721401561
20
30.897307163798388
30
0
10
72.036549748650145
20
30.368147406725406
30
0
10
71.816691925867929
20
29.86184717630082
30
0
10
71.538597126366568
20
29.37316402608073
30
0
0
SPLINE
5
153
100
AcDbEntity
8
0
100
AcDbSpline
70
0
71
3
72
8
73
4
74
0
42
0.000000001
43
0.0000000001
44
0.0000000001
40
0
40
0
40
0
40
0
40
0.28042450323474438
40
0.28042450323474438
40
0.28042450323474438
40
0.28042450323474438
10
71.538597126366582
20
29.37316402608073
30
0
10
71.076277431766698
20
28.560750974233127
30
0
10
70.599588593955943
20
27.705889149638399
30
0
10
70.111854345333882
20
26.823458973603984
30
0
0
SPLINE
5
154
100
AcDbEntity
8
0
100
AcDbSpline
70
0
71
3
72
10
73
6
74
0
42
0.000000001
43
0.0000000001
44
0.0000000001
40
0.28042450323476376
40
0.28042450323476376
40
0.28042450323476376
40
0.28042450323476376
40
1.583150972196451
40
1.583150972196451
40
1.6649329542187681
40
1.6649329542187681
40
1.6649329542187681
40
1.6649329542187681
10
70.111854345333882
20
26.823458973603984
30
0
10
67.846059779703026
20
22.724084154107224
30
0
10
65.34104007376078
20
18.030223833185087
30
0
10
62.776669820875483
20
13.996501551549141
30
0
10
62.625670489438228
20
13.761916244844596
30
0
10
62.475167426979951
20
13.531252141233484
30
0
0
SPLINE
5
155
100
AcDbEntity
8
0
100
AcDbSpline
70
0
71
3
72
14
73
10
74
0
42
0.000000001
43
0.0000000001
44
0.0000000001
40
1.6649329542184523
40
1.6649329542184523
40
1.6649329542184523
40
1.6649329542184523
40
2.3976098672073176
40
2.3976098672073176
40
2.7774227820313122
40
2.7774227820313122
40
2.9434091328097032
40
2.9434091328097032
40
3.0926173670938035
40
3.0926173670938035
40
3.0926173670938035
40
3.0926173670938035
10
62.475167426979951
20
13.531252141233484
30
0
10
61.126824962410936
20
11.464754617059691
30
0
10
59.818823766559106
20
9.7126479029977411
30
0
10
57.911971930002423
20
7.7911830395547703
30
0
10
57.230230123624573
20
7.2203006044715607
30
0
10
56.229385884269611
20
6.656777737539727
30
0
10
55.906775027117881
20
6.5109843123225941
30
0
10
55.270108936650416
20
6.3234990514678255
30
0
10
54.961331516132326
20
6.2735810656011743
30
0
10
54.647052255243167
20
6.2749311797205776
30
0
0
LINE
5
156
100
AcDbEntity
8
0
100
AcDbLine
10
54.647052255243167
20
6.2749311797205776
30
0
11
36.302646556979212
21
6.3537370197087473
31
0
0
SPLINE
5
157
100
AcDbEntity
8
0
100
AcDbSpline
70
0
71
3
72
20
73
16
74
0
42
0.000000001
43
0.0000000001
44
0.0000000001
40
0
40
0
40
0
40
0
40
0.03992563175534368
40
0.03992563175534368
40
0.090548836100263708
40
0.090548836100263708
40
0.18461254097512117
40
0.18461254097512117
40
0.3555121831070297
40
0.3555121831070297
40
0.43644886760428719
40
0.43644886760428719
40
0.47252857472732845
40
0.47252857472732845
40
0.50535360284927711
40
0.50535360284927711
40
0.50535360284927711
40
0.50535360284927711
10
36.302646556979219
20
6.3537370197087517
30
0
10
36.169566126533553
20
6.3548916431641427
30
0
10
36.04217158078103
20
6.3825528507529503
30
0
10
35.762407653623924
20
6.4952267663893846
30
0
10
35.618713307000839
20
6.5912725746524057
30
0
10
35.249508418732141
20
6.8984707272189629
30
0
10
35.022685397661675
20
7.1680871841714922
30
0
10
34.40839386406607
20
7.9932832121397848
30
0
10
34.029628367926385
20
8.6195672901657172
30
0
10
33.455790805780779
20
9.3390590076703557
30
0
10
33.263711926766227
20
9.5461365332850452
30
0
10
32.972859542464157
20
9.7567394868879713
30
0
10
32.875547575289502
20
9.8136252385643221
30
0
10
32.677336660597696
20
9.8882810312197353
30
0
10
32.579984574878992
20
9.9082357718218734
30
0
10
32.479022750417641
20
9.9086611150131816
30
0
0
LINE
5
158
100
AcDbEntity
8
0
100
AcDbLine
10
32.479022750417641
20
9.9086611150131816
30
0
11
14.104735019452386
21
9.9860703558146326
31
0
0
SPLINE
5
159
100
AcDbEntity
8
0
100
AcDbSpline
70
0
71
3
72
10
73
6
74
0
42
0.000000001
43
0.0000000001
44
0.0000000001
40
0
40
0
40
0
40
0
40
0.027203336632924197
40
0.027203336632924197
40
0.028979641361469671
40
0.028979641361469671
40
0.028979641361469671
40
0.028979641361469671
10
14.104735019452086
20
9.9860703558146362
30
0
10
14.014058035367768
20
9.9864523698877576
30
0
10
13.927145128097401
20
10.004473397964308
30
0
10
13.838285798470743
20
10.042359255769128
30
0
10
13.832874275446095
20
10.044747660937317
30
0
10
13.82749765217552
20
10.047200480758198
30
0
0
SPLINE
5
160
100
AcDbEntity
8
0
100
AcDbSpline
70
0
71
3
72
16
73
12
74
0
42
0.000000001
43
0.0000000001
44
0.0000000001
40
0.028979641361502453
40
0.028979641361502453
40
0.028979641361502453
40
0.028979641361502453
40
0.05643555836641026
40
0.05643555836641026
40
0.10382217080567158
40
0.10382217080567158
40
0.2089604781706362
40
0.2089604781706362
40
0.52177062325375911
40
0.52177062325375911
40
0.91075784607039956
40
0.91075784607039956
40
0.91075784607039956
40
0.91075784607039956
10
13.82749765217552
20
10.047200480758198
30
0
10
13.74439247325479
20
10.085113129611676
30
0
10
13.669628747504506
20
10.138422854028622
30
0
10
13.486417838466449
20
10.307551054802115
30
0
10
13.389592986237339
20
10.443885800214252
30
0
10
13.134398512527065
20
10.881594329195444
30
0
10
12.993065261996383
20
11.269622665462581
30
0
10
12.526015705720994
20
12.88113250406858
30
0
10
12.289799538765404
20
14.591084542185191
30
0
10
11.692189608273885
20
18.542488458818923
30
0
10
11.322683880257147
20
20.754518399786122
30
0
10
10.626813693055833
20
22.21904274689695
30
0
0
SPLINE
5
161
100
AcDbEntity
8
0
100
AcDbSpline
70
0
71
3
72
12
73
8
74
0
42
0.000000001
43
0.0000000001
44
0.0000000001
40
0
40
0
40
0
40
0
40
0.16684791193476858
40
0.16684791193476858
40
0.26434323356138206
40
0.26434323356138206
40
0.36184357310317311
40
0.36184357310317311
40
0.36184357310317311
40
0.36184357310317311
10
10.626813693055546
20
22.219042746897554
30
0
10
10.388127699494605
20
22.721379900167662
30
0
10
10.11598399682037
20
23.125831073499441
30
0
10
9.6143515207498407
20
23.589557461237071
30
0
10
9.4072200995123705
20
23.728705510434818
30
0
10
8.9397116789508555
20
23.917425799634948
30
0
10
8.6958853848486655
20
23.960330579485767
30
0
10
8.4438485522678963
20
23.960330579485767
30
0
0
LINE
5
162
100
AcDbEntity
8
0
100
AcDbLine
10
8.4438485522678945
20
23.960330579485767
30
0
11
-9.153256716582348
21
23.960330579485767
31
0
0
SPLINE
5
163
100
AcDbEntity
8
0
100
AcDbSpline
70
0
71
3
72
14
73
10
74
0
42
0.000000001
43
0.0000000001
44
0.0000000001
40
0
40
0
40
0
40
0
40
0.13151711591173745
40
0.13151711591173745
40
0.23569732328666532
40
0.23569732328666532
40
0.35466513033233077
40
0.35466513033233077
40
0.62504401014587585
40
0.62504401014587585
40
0.62504401014587585
40
0.62504401014587585
10
-9.1532567165823462
20
23.960330579485767
30
0
10
-9.5916471029548038
20
23.960330579485767
30
0
10
-10.025968197043724
20
23.897645526764531
30
0
10
-10.755158082998573
20
23.600191887264007
30
0
10
-11.039104554388535
20
23.412694531782599
30
0
10
-11.577622367114863
20
22.897548704885885
30
0
10
-11.807587355255308
20
22.567513044899847
30
0
10
-12.418957696293848
20
21.423658734958785
30
0
10
-12.628658065565926
20
20.517315729579725
30
0
10
-12.73269726700256
20
19.960330579485763
30
0
0
SPLINE
5
164
100
AcDbEntity
8
0
100
AcDbSpline
70
0
71
3
72
10
73
6
74
0
42
0.000000001
43
0.0000000001
44
0.0000000001
40
0
40
0
40
0
40
0
40
0.1125671719617627
40
0.1125671719617627
40
0.22383921583344926
40
0.22383921583344926
40
0.22383921583344926
40
0.22383921583344926
10
-12.73269726700256
20
19.96033057948576
30
0
10
-12.801593694187428
20
19.591486083309249
30
0
10
-12.853103250160983
20
19.21485299241311
30
0
10
-12.921107483365022
20
18.471010054966492
30
0
10
-12.938540085152873
20
18.097814423414825
30
0
10
-12.938540085152873
20
17.725711608306721
30
0
0
LINE
5
165
100
AcDbEntity
8
0
100
AcDbLine
10
-12.938540085152873
20
17.725711608306721
30
0
11
-12.938540085152873
21
-49.000000730156891
31
0
0
SPLINE
5
166
100
AcDbEntity
8
0
100
AcDbSpline
70
0
71
3
72
12
73
8
74
0
42
0.000000001
43
0.0000000001
44
0.0000000001
40
0
40
0
40
0
40
0
40
0.29720963382609367
40
0.29720963382609367
40
0.61666380769845952
40
0.61666380769845952
40
0.75550453199667567
40
0.75550453199667567
40
0.75550453199667567
40
0.75550453199667567
10
-12.93854008515286
20
-49.000000730156898
30
0
10
-12.938540085152891
20
-49.990699509577212
30
0
10
-12.738409721939014
20
-50.784380249276978
30
0
10
-12.164696515463884
20
-52.156723411613719
30
0
10
-11.73814118725222
20
-52.793638078180606
30
0
10
-11.003002671946085
20
-53.52030538346456
30
0
10
-10.760656937632314
20
-53.719181055387324
30
0
10
-10.499364466949219
20
-53.891164432437279
30
0
0
SPLINE
5
167
100
AcDbEntity
8
0
100
AcDbSpline
70
0
71
3
72
8
73
4
74
0
42
0.000000001
43
0.0000000001
44
0.0000000001
40
0.47324437526846375
40
0.47324437526846375
40
0.47324437526846375
40
0.47324437526846375
40
0.6643853104388393
40
0.6643853104388393
40
0.6643853104388393
40
0.6643853104388393
10
-10.499364466949221
20
-53.891164432437279
30
0
10
-10.073353117157245
20
-54.171566199879337
30
0
10
-9.6100160396961343
20
-54.37182662950579
30
0
10
-9.109101145722434
20
-54.489399891684002
30
0
0
LINE
5
168
100
AcDbEntity
8
0
100
AcDbLine
10
-9.1091011457224358
20
-54.489399891684002
30
0
11
-9.1096292281839926
21
-54.616718719568809
31
0
0
LINE
5
169
100
AcDbEntity
8
0
100
AcDbLine
10
-9.1096292281839926
20
-54.616718719568809
30
0
11
-1.5950547713119168
21
-54.616718719568809
31
0
0
SPLINE
5
170
100
AcDbEntity
8
0
100
AcDbSpline
70
0
71
3
72
14
73
10
74
0
42
0.000000001
43
0.0000000001
44
0.0000000001
40
0
40
0
40
0
40
0
40
0.19543581065093199
40
0.19543581065093199
40
0.46195179935691344
40
0.46195179935691344
40
1.4249330216036848
40
1.4249330216036848
40
1.5139202054720589
40
1.5139202054720589
40
1.5139202054720589
40
1.5139202054720589
10
-1.5950547713119168
20
-54.616718719568809
30
0
10
-0.9436020691421434
20
-54.616718719568809
30
0
10
-0.51064264727044151
20
-54.703801144980019
30
0
10
0.43343338379650537
20
-55.098573410786756
30
0
10
0.87326591696082345
20
-55.457213547945869
30
0
10
1.8961642148042617
20
-56.349873656429772
30
0
10
2.6299645134272156
20
-57.319845104820438
30
0
10
3.4694381802091554
20
-58.456549063519049
30
0
10
3.5410069101205006
20
-58.553660468691042
30
0
10
3.613158865676934
20
-58.651560166313246
30
0
0
CIRCLE
5
171
100
AcDbEntity
8
0
100
AcDbCircle
10
-6.0009711696083006
20
15.97503485020075
30
0
40
2.000000000000004
210
0
220
-0
230
1
0
CIRCLE
5
172
100
AcDbEntity
8
0
100
AcDbCircle
10
66.000000983476653
20
46.000000685453408
30
0
40
2.0000000000000018
210
0
220
-0
230
1
0
CIRCLE
5
173
100
AcDbEntity
8
0
100
AcDbCircle
10
94.000001400709152
20
-8.0000001192092896
30
0
40
2.0000000000000107
210
0
220
-0
230
1
0
CIRCLE
5
174
100
AcDbEntity
8
0
100
AcDbCircle
10
9.0000001341104507
20
-53.000000789761543
30
0
40
2.000000000000004
210
0
220
-0
230
1
0
SPLINE
5
175
100
AcDbEntity
8
0
100
AcDbSpline
70
4
71
3
72
8
73
4
74
0
42
0.000000001
43
0.0000000001
44
0.0000000001
40
0.7020148385547379
40
0.7020148385547379
40
0.7020148385547379
40
0.7020148385547379
40
1
40
1
40
1
40
1
41
1
41
1
41
1
41
1
10
14.194143344969
20
-58.829036769546157
30
0
10
15.172720221466305
20
-59.016815880420936
30
0
10
16.352953579170276
20
-59.419978329144818
30
0
10
18.034162141846469
20
-59.994271672507615
30
0
0
SPLINE
5
176
100
AcDbEntity
8
0
100
AcDbSpline
70
4
71
3
72
8
73
4
74
0
42
0.000000001
43
0.0000000001
44
0.0000000001
40
0
40
0
40
0
40
0
40
1
40
1
40
1
40
1
41
1
41
1
41
1
41
1
10
18.034162141846469
20
-59.994271672507615
30
0
10
23.676090590331576
20
-61.921527211943484
30
0
10
23.676090590331576
20
-61.921527211943484
30
0
10
24.091376310276885
20
-62.874423937595438
30
0
0
SPLINE
5
177
100
AcDbEntity
8
0
100
AcDbSpline
70
4
71
3
72
8
73
4
74
0
42
0.000000001
43
0.0000000001
44
0.0000000001
40
0
40
0
40
0
40
0
40
0.18803204540800275
40
0.18803204540800275
40
0.18803204540800275
40
0.18803204540800275
41
1
41
1
41
1
41
1
10
24.091376310276885
20
-62.874423937595438
30
0
10
24.169461721906991
20
-63.053600060015199
30
0
10
24.232864573871765
20
-63.199085329648106
30
0
10
24.272127976346425
20
-63.373870548499802
30
0
0
LINE
5
178
100
AcDbEntity
8
0
100
AcDbLine
10
24.272127976346422
20
-63.373870548499802
30
0
11
18.41891315422837
21
-62.812137461259745
31
0
0
SPLINE
5
179
100
AcDbEntity
8
0
100
AcDbSpline
70
0
71
3
72
14
73
10
74
0
42
0.000000001
43
0.0000000001
44
0.0000000001
40
0
40
0
40
0
40
0
40
0.18586860289315577
40
0.18586860289315577
40
0.33887834962114116
40
0.33887834962114116
40
0.52183356803911851
40
0.52183356803911851
40
0.62476991008049032
40
0.62476991008049032
40
0.62476991008049032
40
0.62476991008049032
10
18.41891315422837
20
-62.812137461259738
30
0
10
17.802184744231006
20
-62.752950029350117
30
0
10
17.206935824166184
20
-62.602109954242557
30
0
10
16.207114502175457
20
-62.073237711932322
30
0
10
15.818583742231112
20
-61.756597403453213
30
0
10
15.082957703255143
20
-60.911768994721797
30
0
10
14.774753697112855
20
-60.372006181185249
30
0
10
14.40447717702909
20
-59.496119624780661
30
0
10
14.290403544095147
20
-59.166375940467248
30
0
10
14.194143344968996
20
-58.82903676954615
30
0
0
ARC
5
180
100
AcDbEntity
8
0
100
AcDbCircle
10
103.0000015348196
20
37.000000551342964
30
0
40
7.25
210
-0
220
0
230
1
100
AcDbArc
50
-89.130140646524282
51
12.725528884564318
0
LINE
5
181
100
AcDbEntity
8
0
100
AcDbLine
10
110.07191610008138
20
38.59703667542972
30
0
11
111.6941916969819
21
36.507260132547287
31
0
0
SPLINE
5
182
100
AcDbEntity
8
0
100
AcDbSpline
70
0
71
3
72
16
73
12
74
0
42
0.000000001
43
0.0000000001
44
0.0000000001
40
0
40
0
40
0
40
0
40
0.25691807218029461
40
0.25691807218029461
40
0.46744862322475156
40
0.46744862322475156
40
0.72206509388958473
40
0.72206509388958473
40
0.94782392467769616
40
0.94782392467769616
40
1.1888676610730142
40
1.1888676610730142
40
1.1888676610730142
40
1.1888676610730142
10
111.69419169698189
20
36.50726013254728
30
0
10
112.219339765402
20
35.830776977021131
30
0
10
112.62960865785432
20
35.092338442515647
30
0
10
113.04284808830278
20
33.588406484385736
30
0
10
113.09276046619237
20
32.899069381252048
30
0
10
112.94689870128634
20
31.357581992657671
30
0
10
112.69950050717681
20
30.526266957040747
30
0
10
112.04952840234206
20
29.067966131903425
30
0
10
111.66139407081982
20
28.413373116596119
30
0
10
110.74099017690833
20
27.157949282390472
30
0
10
110.20242909493896
20
26.565274417940582
30
0
10
109.60807978241732
20
26.019099847409528
30
0
0
LINE
5
183
100
AcDbEntity
8
0
100
AcDbLine
10
109.60807978241732
20
26.019099847409532
30
0
11
107.32573882557526
21
23.92175310931065
31
0
0
SPLINE
5
184
100
AcDbEntity
8
0
100
AcDbSpline
70
4
71
3
72
8
73
4
74
0
42
0.000000001
43
0.0000000001
44
0.0000000001
40
0.97026488340138728
40
0.97026488340138728
40
0.97026488340138728
40
0.97026488340138728
40
1
40
1
40
1
40
1
41
1
41
1
41
1
41
1
10
107.32573882557529
20
23.92175310931065
30
0
10
107.23683915969715
20
23.966793444856766
30
0
10
107.14537383508446
20
24.01330827559741
30
0
10
107.05110542840768
20
24.061248618009454
30
0
0
SPLINE
5
185
100
AcDbEntity
8
0
100
AcDbSpline
70
4
71
3
72
8
73
4
74
0
42
0.000000001
43
0.0000000001
44
0.0000000001
40
0
40
0
40
0
40
0
40
1
40
1
40
1
40
1
41
1
41
1
41
1
41
1
10
107.05110542840768
20
24.061248618009454
30
0
10
103.88083748028222
20
25.673494925847258
30
0
10
103.88083748028222
20
25.673494925847258
30
0
10
103.23034348591656
20
29.110439557629604
30
0
0
SPLINE
5
186
100
AcDbEntity
8
0
100
AcDbSpline
70
4
71
3
72
8
73
4
74
0
42
0.000000001
43
0.0000000001
44
0.0000000001
40
0
40
0
40
0
40
0
40
0.066299317921122897
40
0.066299317921122897
40
0.066299317921122897
40
0.066299317921122897
41
1
41
1
41
1
41
1
10
103.23034348591656
20
29.110439557629604
30
0
10
103.18721639776771
20
29.338306085827959
30
0
10
103.14694860614708
20
29.551065218629709
30
0
10
103.11006615223539
20
29.750836062935146
30
0
0
SPLINE
5
187
100
AcDbEntity
8
0
100
AcDbSpline
70
4
71
3
72
8
73
4
74
0
42
0.000000001
43
0.0000000001
44
0.0000000001
40
0.67722472336559703
40
0.67722472336559703
40
0.67722472336559703
40
0.67722472336559703
40
1
40
1
40
1
40
1
41
1
41
1
41
1
41
1
10
88.651628332928567
20
-8.0468957742149598
30
0
10
87.664902155230948
20
-8.0099893268839661
30
0
10
86.379907725641075
20
-7.7433877984487669
30
0
10
84.482466026814933
20
-7.3497200553246333
30
0
0
SPLINE
5
188
100
AcDbEntity
8
0
100
AcDbSpline
70
4
71
3
72
8
73
4
74
0
42
0.000000001
43
0.0000000001
44
0.0000000001
40
0
40
0
40
0
40
0
40
1
40
1
40
1
40
1
41
1
41
1
41
1
41
1
10
84.482466026814933
20
-7.3497200553246333
30
0
10
78.603942907699903
20
-6.1300939708364659
30
0
10
78.603942907699903
20
-6.1300939708364659
30
0
10
78.401775529839796
20
-1.0881994401416506
30
0
0
SPLINE
5
189
100
AcDbEntity
8
0
100
AcDbSpline
70
4
71
3
72
8
73
4
74
0
42
0.000000001
43
0.0000000001
44
0.0000000001
40
0
40
0
40
0
40
0
40
1
40
1
40
1
40
1
41
1
41
1
41
1
41
1
10
78.401775529839796
20
-1.0881994401416506
30
0
10
78.199607448245686
20
3.9536870468363006
30
0
10
78.199607448245686
20
3.9536870468363006
30
0
10
83.671869544994934
20
7.1069451552654384
30
0
0
SPLINE
5
190
100
AcDbEntity
8
0
100
AcDbSpline
70
4
71
3
72
8
73
4
74
0
42
0.000000001
43
0.0000000001
44
0.0000000001
40
0
40
0
40
0
40
0
40
1
40
1
40
1
40
1
41
1
41
1
41
1
41
1
10
83.671869544994934
20
7.1069451552654384
30
0
10
89.144136367336642
20
10.260210955544418
30
0
10
89.144136367336642
20
10.260210955544418
30
0
10
93.216827427157511
20
5.1169474009799369
30
0
0
SPLINE
5
191
100
AcDbEntity
8
0
100
AcDbSpline
70
4
71
3
72
8
73
4
74
0
42
0.000000001
43
0.0000000001
44
0.0000000001
40
0
40
0
40
0
40
0
40
0.39678298647988453
40
0.39678298647988453
40
0.39678298647988453
40
0.39678298647988453
41
1
41
1
41
1
41
1
10
93.216827427157511
20
5.1169474009799369
30
0
10
94.832801948883159
20
3.0761879275467026
30
0
10
95.807585273803113
20
1.8451670926694244
30
0
10
96.179184589368916
20
0.83576045703803037
30
0
0
SPLINE
5
192
100
AcDbEntity
8
0
100
AcDbSpline
70
0
71
3
72
10
73
6
74
0
42
0.000000001
43
0.0000000001
44
0.0000000001
40
0.35949554385971416
40
0.35949554385971416
40
0.35949554385971416
40
0.35949554385971416
40
0.4407628290293657
40
0.4407628290293657
40
0.92509241124246877
40
0.92509241124246877
40
0.92509241124246877
40
0.92509241124246877
10
96.179184589368916
20
0.83576045703803481
30
0
10
96.023173526240925
20
0.61815200727030994
30
0
10
95.85358392959327
20
0.40924102329176248
30
0
10
94.596157432838694
20
-0.99773150929535293
30
0
10
93.066863064385018
20
-2.0281141374055394
30
0
10
90.807817114601647
20
-3.7084673909002741
30
0
0
ARC
5
193
100
AcDbEntity
8
0
100
AcDbCircle
10
94.000001400709152
20
-8.0000001192092896
30
0
40
5.3485786592906219
210
0
220
0
230
1
100
AcDbArc
50
126.64309321565372
51
180.5023685184685
0
SPLINE
5
194
100
AcDbEntity
8
0
100
AcDbSpline
70
0
71
3
72
12
73
8
74
0
42
0.000000001
43
0.0000000001
44
0.0000000001
40
0.039814463693726522
40
0.039814463693726522
40
0.039814463693726522
40
0.039814463693726522
40
0.5681325081408648
40
0.5681325081408648
40
0.90739589565669465
40
0.90739589565669465
40
1.191899602214231
40
1.191899602214231
40
1.191899602214231
40
1.191899602214231
10
104.10935633447681
20
20.960377295576613
30
0
10
102.78275895718302
20
19.689744462646889
30
0
10
101.27107721402849
20
17.884155814044082
30
0
10
99.106632728151638
20
13.534829974782683
30
0
10
98.44626785532509
20
11.697832095359452
30
0
10
97.611071850891193
20
8.3116042694031425
30
0
10
97.364343344711301
20
6.7218341887414272
30
0
10
97.281075100795988
20
5.1210983752653814
30
0
0
SPLINE
5
195
100
AcDbEntity
8
0
100
AcDbSpline
70
4
71
3
72
8
73
4
74
0
42
0.000000001
43
0.0000000001
44
0.0000000001
40
0.84900987202344447
40
0.84900987202344447
40
0.84900987202344447
40
0.84900987202344447
40
1
40
1
40
1
40
1
41
1
41
1
41
1
41
1
10
97.281075100796016
20
5.1210983752653574
30
0
10
96.830447806358762
20
5.6806989921190354
30
0
10
96.308360949157432
20
6.3400247955053723
30
0
10
95.693424804826108
20
7.1166068178262147
30
0
0
SPLINE
5
196
100
AcDbEntity
8
0
100
AcDbSpline
70
4
71
3
72
8
73
4
74
0
42
0.000000001
43
0.0000000001
44
0.0000000001
40
0
40
0
40
0
40
0
40
1
40
1
40
1
40
1
41
1
41
1
41
1
41
1
10
95.693424804826108
20
7.1166068178262147
30
0
10
91.620733745005239
20
12.259870372390678
30
0
10
91.620733745005239
20
12.259870372390678
30
0
10
91.827260320165621
20
13.464192181481771
30
0
0
SPLINE
5
197
100
AcDbEntity
8
0
100
AcDbSpline
70
4
71
3
72
8
73
4
74
0
42
0.000000001
43
0.0000000001
44
0.0000000001
40
0
40
0
40
0
40
0
40
1
40
1
40
1
40
1
41
1
41
1
41
1
41
1
10
91.827260320165621
20
13.464192181481771
30
0
10
92.033787599060048
20
14.668522034289712
30
0
10
92.033787599060048
20
14.668522034289712
30
0
10
96.937861090358297
20
18.39459723205956
30
0
0
SPLINE
5
198
100
AcDbEntity
8
0
100
AcDbSpline
70
4
71
3
72
8
73
4
74
0
42
0.000000001
43
0.0000000001
44
0.0000000001
40
0
40
0
40
0
40
0
40
0.89503581301719448
40
0.89503581301719448
40
0.89503581301719448
40
0.89503581301719448
41
1
41
1
41
1
41
1
10
96.937861090358297
20
18.39459723205956
30
0
10
101.32718249473848
20
21.729567976058703
30
0
10
101.78790404735548
20
22.079620468814017
30
0
10
104.10935633447684
20
20.960377295576627
30
0
0
SPLINE
5
199
100
AcDbEntity
8
0
100
AcDbSpline
70
0
71
3
72
14
73
10
74
0
42
0.000000001
43
0.0000000001
44
0.0000000001
40
0.4497025018620211
40
0.4497025018620211
40
0.4497025018620211
40
0.4497025018620211
40
0.72600253718010765
40
0.72600253718010765
40
1.1712147372768715
40
1.1712147372768715
40
1.4037293676498281
40
1.4037293676498281
40
1.6540333848573807
40
1.6540333848573807
40
1.6540333848573807
40
1.6540333848573807
10
94.667004003496672
20
-14.561870743434094
30
0
10
95.266092213434334
20
-14.92090802266581
30
0
10
95.812141646038441
20
-15.269774363727366
30
0
10
97.121673367985167
20
-16.227435168876944
30
0
10
97.804584304910364
20
-16.859165096302334
30
0
10
98.559935990939323
20
-17.985534393286414
30
0
10
98.763909193086548
20
-18.39541319792113
30
0
10
99.066539989609183
20
-19.313152699383672
30
0
10
99.147844152856877
20
-19.80175401947599
30
0
10
99.171327853099768
20
-20.301746989541964
30
0
0
SPLINE
5
200
100
AcDbEntity
8
0
100
AcDbSpline
70
0
71
3
72
8
73
4
74
0
42
0.000000001
43
0.0000000001
44
0.0000000001
40
0
40
0
40
0
40
0
40
0.053322105054133602
40
0.053322105054133602
40
0.053322105054133602
40
0.053322105054133602
10
99.17132785309974
20
-20.301746989541975
30
0
10
99.179666779918591
20
-20.4792916159934
30
0
10
99.187673559565297
20
-20.657510078523384
30
0
10
99.195333937226664
20
-20.836310315771172
30
0
0
SPLINE
5
201
100
AcDbEntity
8
0
100
AcDbSpline
70
4
71
3
72
8
73
4
74
0
42
0.000000001
43
0.0000000001
44
0.0000000001
40
0.34545708857105223
40
0.34545708857105223
40
0.34545708857105223
40
0.34545708857105223
40
1
40
1
40
1
40
1
41
1
41
1
41
1
41
1
10
99.195333937226707
20
-20.836310315771168
30
0
10
96.786522285915908
20
-20.804266458166975
30
0
10
96.37778865216454
20
-19.604147830273732
30
0
10
95.194621054006276
20
-16.130145797611981
30
0
0
SPLINE
5
202
100
AcDbEntity
8
0
100
AcDbSpline
70
4
71
3
72
8
73
4
74
0
42
0.000000001
43
0.0000000001
44
0.0000000001
40
0
40
0
40
0
40
0
40
0.10974204283472391
40
0.10974204283472391
40
0.10974204283472391
40
0.10974204283472391
41
1
41
1
41
1
41
1
10
95.194621054006276
20
-16.130145797611981
30
0
10
94.996249124409388
20
-15.54768734004643
30
0
10
94.819646935607537
20
-15.029149063480487
30
0
10
94.667004003496643
20
-14.561870743434085
30
0
0
SPLINE
5
203
100
AcDbEntity
8
0
100
AcDbSpline
70
0
71
3
72
10
73
6
74
0
42
0.000000001
43
0.0000000001
44
0.0000000001
40
0.4631745218871075
40
0.4631745218871075
40
0.4631745218871075
40
0.4631745218871075
40
0.71493912986905994
40
0.71493912986905994
40
1.4359824060947792
40
1.4359824060947792
40
1.4359824060947792
40
1.4359824060947792
10
99.304076453888825
20
-25.020583520212764
30
0
10
99.311078570490295
20
-25.881351876083741
30
0
10
99.307820125406579
20
-26.739317088364167
30
0
10
99.250240796205532
20
-30.006185039247882
30
0
10
99.110922203385911
20
-32.411135221535204
30
0
10
98.817289421177975
20
-34.858075073268061
30
0
0
LINE
5
204
100
AcDbEntity
8
0
100
AcDbLine
10
98.817289421177975
20
-34.858075073268068
30
0
11
98.51175343372816
21
-37.404208302016599
31
0
0
SPLINE
5
205
100
AcDbEntity
8
0
100
AcDbSpline
70
4
71
3
72
8
73
4
74
0
42
0.000000001
43
0.0000000001
44
0.0000000001
40
0.083883070770714718
40
0.083883070770714718
40
0.083883070770714718
40
0.083883070770714718
40
1
40
1
40
1
40
1
41
1
41
1
41
1
41
1
10
98.511753433728146
20
-37.404208302016585
30
0
10
92.840505256871765
20
-33.167283742536114
30
0
10
92.838032317386421
20
-33.149771999443367
30
0
10
92.808551523912428
20
-32.941008265213732
30
0
0
SPLINE
5
206
100
AcDbEntity
8
0
100
AcDbSpline
70
4
71
3
72
8
73
4
74
0
42
0.000000001
43
0.0000000001
44
0.0000000001
40
0
40
0
40
0
40
0
40
1
40
1
40
1
40
1
41
1
41
1
41
1
41
1
10
92.808551523912428
20
-32.941008265213732
30
0
10
92.776371359423209
20
-32.713129347611734
30
0
10
92.776371359423209
20
-32.713129347611734
30
0
10
94.875701992979174
20
-29.001668244657669
30
0
0
SPLINE
5
207
100
AcDbEntity
8
0
100
AcDbSpline
70
4
71
3
72
8
73
4
74
0
42
0.000000001
43
0.0000000001
44
0.0000000001
40
0
40
0
40
0
40
0
40
0.6676092353663331
40
0.6676092353663331
40
0.6676092353663331
40
0.6676092353663331
41
1
41
1
41
1
41
1
10
94.875701992979174
20
-29.001668244657669
30
0
10
96.277232061908393
20
-26.523859615683108
30
0
10
96.743087713176834
20
-25.700258910882354
30
0
10
99.304076453888825
20
-25.020583520212778
30
0
0
SPLINE
5
208
100
AcDbEntity
8
0
100
AcDbSpline
70
4
71
3
72
8
73
4
74
0
42
0.000000001
43
0.0000000001
44
0.0000000001
40
0.70689739085890047
40
0.70689739085890047
40
0.70689739085890047
40
0.70689739085890047
40
1
40
1
40
1
40
1
41
1
41
1
41
1
41
1
10
13.598297198215441
20
-51.036416284260604
30
0
10
13.206600371983034
20
-49.840730413850494
30
0
10
12.853462869117887
20
-48.217924588094654
30
0
10
12.353903092222859
20
-45.922250779221088
30
0
0
SPLINE
5
209
100
AcDbEntity
8
0
100
AcDbSpline
70
4
71
3
72
8
73
4
74
0
42
0.000000001
43
0.0000000001
44
0.0000000001
40
0
40
0
40
0
40
0
40
1
40
1
40
1
40
1
41
1
41
1
41
1
41
1
10
12.353903092222859
20
-45.922250779221088
30
0
10
10.649510105547684
20
-38.089924752904736
30
0
10
10.649510105547684
20
-38.089924752904736
30
0
10
12.648128732409443
20
-35.630125718630474
30
0
0
SPLINE
5
210
100
AcDbEntity
8
0
100
AcDbSpline
70
4
71
3
72
8
73
4
74
0
42
0.000000001
43
0.0000000001
44
0.0000000001
40
0
40
0
40
0
40
0
40
1
40
1
40
1
40
1
41
1
41
1
41
1
41
1
10
12.648128732409443
20
-35.630125718630474
30
0
10
14.646739667421373
20
-33.170321958763751
30
0
10
14.646739667421373
20
-33.170321958763751
30
0
10
23.040992662141512
20
-35.223798377036246
30
0
0
SPLINE
5
211
100
AcDbEntity
8
0
100
AcDbSpline
70
4
71
3
72
8
73
4
74
0
42
0.000000001
43
0.0000000001
44
0.0000000001
40
0
40
0
40
0
40
0
40
1
40
1
40
1
40
1
41
1
41
1
41
1
41
1
10
23.040992662141512
20
-35.223798377036246
30
0
10
31.435253700578514
20
-37.277275499042787
30
0
10
31.435253700578514
20
-37.277275499042787
30
0
10
32.348254554318359
20
-41.068664317836479
30
0
0
SPLINE
5
212
100
AcDbEntity
8
0
100
AcDbSpline
70
4
71
3
72
8
73
4
74
0
42
0.000000001
43
0.0000000001
44
0.0000000001
40
0
40
0
40
0
40
0
40
1
40
1
40
1
40
1
41
1
41
1
41
1
41
1
10
32.348254554318359
20
-41.068664317836479
30
0
10
33.261263099908028
20
-44.860057862222639
30
0
10
33.261263099908028
20
-44.860057862222639
30
0
10
29.3016963241799
20
-51.234567795856442
30
0
0
SPLINE
5
213
100
AcDbEntity
8
0
100
AcDbSpline
70
4
71
3
72
8
73
4
74
0
42
0.000000001
43
0.0000000001
44
0.0000000001
40
0
40
0
40
0
40
0
40
1
40
1
40
1
40
1
41
1
41
1
41
1
41
1
10
29.3016963241799
20
-51.234567795856442
30
0
10
25.342137240301582
20
-57.609082455082699
30
0
10
25.342137240301582
20
-57.609082455082699
30
0
10
19.700216835533336
20
-55.681827619380854
30
0
0
SPLINE
5
214
100
AcDbEntity
8
0
100
AcDbSpline
70
4
71
3
72
8
73
4
74
0
42
0.000000001
43
0.0000000001
44
0.0000000001
40
0
40
0
40
0
40
0
40
0.65641727596743471
40
0.65641727596743471
40
0.65641727596743471
40
0.65641727596743471
41
1
41
1
41
1
41
1
10
19.700216835533336
20
-55.681827619380854
30
0
10
15.996757532175545
20
-54.416743788091175
30
0
10
14.724312896384133
20
-53.982082839207138
30
0
10
13.805055476696982
20
-51.617451277201276
30
0
0
ARC
5
215
100
AcDbEntity
8
0
100
AcDbCircle
10
9.0000001341104507
20
-53.000000789761543
30
0
40
4.9999999999999991
210
0
220
-0
230
1
100
AcDbArc
50
16.052014719810511
51
23.123658901108506
0
ARC
5
216
100
AcDbEntity
8
0
100
AcDbCircle
10
-5.0582147491970275
20
-47.043183778522888
30
0
40
7.2499999999999947
210
-0
220
0
230
1
100
AcDbArc
50
-31.762283436903843
51
105.30691637102966
0
SPLINE
5
217
100
AcDbEntity
8
0
100
AcDbSpline
70
4
71
3
72
8
73
4
74
0
42
0.000000001
43
0.0000000001
44
0.0000000001
40
0.61052872628930965
40
0.61052872628930965
40
0.61052872628930965
40
0.61052872628930965
40
1
40
1
40
1
40
1
41
1
41
1
41
1
41
1
10
-6.9721385016221671
20
-40.050373480087586
30
0
10
-5.7790503295495297
20
-39.569171693961721
30
0
10
-3.9610040339299237
20
-39.469613138187555
30
0
10
-0.98318134134445812
20
-39.306543733772685
30
0
0
SPLINE
5
218
100
AcDbEntity
8
0
100
AcDbSpline
70
4
71
3
72
8
73
4
74
0
42
0.000000001
43
0.0000000001
44
0.0000000001
40
0
40
0
40
0
40
0
40
1
40
1
40
1
40
1
41
1
41
1
41
1
41
1
10
-0.98318134134445812
20
-39.306543733772685
30
0
10
6.6626265950718633
20
-38.887853450243128
30
0
10
6.6626265950718633
20
-38.887853450243128
30
0
10
8.367003494313348
20
-46.720178069091396
30
0
0
SPLINE
5
219
100
AcDbEntity
8
0
100
AcDbSpline
70
4
71
3
72
8
73
4
74
0
42
0.000000001
43
0.0000000001
44
0.0000000001
40
0
40
0
40
0
40
0
40
0.058301329513596664
40
0.058301329513596664
40
0.058301329513596664
40
0.058301329513596664
41
1
41
1
41
1
41
1
10
8.367003494313348
20
-46.720178069091396
30
0
10
8.4663718714501606
20
-47.176813089609588
30
0
10
8.5599469400882882
20
-47.606825681329084
30
0
10
8.6469427701555883
20
-48.012481316340178
30
0
0
ARC
5
220
100
AcDbEntity
8
0
100
AcDbCircle
10
9.0000001341104507
20
-53.000000789761543
30
0
40
5.0000000000000187
210
0
220
0
230
1
100
AcDbArc
50
94.04910893786564
51
114.08264714170421
0
SPLINE
5
221
100
AcDbEntity
8
0
100
AcDbSpline
70
0
71
3
72
12
73
8
74
0
42
0.000000001
43
0.0000000001
44
0.0000000001
40
0
40
0
40
0
40
0
40
0.42821280194501232
40
0.42821280194501232
40
0.66848514738858067
40
0.66848514738858067
40
0.77827058045334041
40
0.77827058045334041
40
0.77827058045334041
40
0.77827058045334041
10
6.959730251207259
20
-48.435211768906555
30
0
10
5.6565961866018313
20
-49.01765822442789
30
0
10
4.6567233543730904
20
-49.646181962429466
30
0
10
3.0545858257246001
20
-50.41215955678414
30
0
10
2.4885208550465272
20
-50.6355306459498
30
0
10
1.6425701654784086
20
-50.814808019336098
30
0
10
1.3762817830309961
20
-50.849633122115996
30
0
10
1.1060208452446576
20
-50.859556341077301
30
0
0
LINE
5
222
100
AcDbEntity
8
0
100
AcDbLine
10
-9.9385400851528694
20
-33.802649537608993
30
0
11
-9.9385400851528694
21
-16.321144619844585
31
0
0
SPLINE
5
223
100
AcDbEntity
8
0
100
AcDbSpline
70
4
71
3
72
8
73
4
74
0
42
0.000000001
43
0.0000000001
44
0.0000000001
40
0.677855274059605
40
0.677855274059605
40
0.677855274059605
40
0.677855274059605
40
1
40
1
40
1
40
1
41
1
41
1
41
1
41
1
10
-9.9385400851528694
20
-16.321144619844588
30
0
10
-9.2903923886329451
20
-15.848750308092459
30
0
10
-8.4039858062326918
20
-15.466108164509118
30
0
10
-7.0963223324477154
20
-14.901618725204862
30
0
0
SPLINE
5
224
100
AcDbEntity
8
0
100
AcDbSpline
70
4
71
3
72
8
73
4
74
0
42
0.000000001
43
0.0000000001
44
0.0000000001
40
0
40
0
40
0
40
0
40
1
40
1
40
1
40
1
41
1
41
1
41
1
41
1
10
-7.0963223324477154
20
-14.901618725204862
30
0
10
-3.0370794046862857
20
-13.149325469751494
30
0
10
-3.0370794046862857
20
-13.149325469751494
30
0
10
3.3582791577689832
20
-17.174926336709238
30
0
0
SPLINE
5
225
100
AcDbEntity
8
0
100
AcDbSpline
70
4
71
3
72
8
73
4
74
0
42
0.000000001
43
0.0000000001
44
0.0000000001
40
0
40
0
40
0
40
0
40
1
40
1
40
1
40
1
41
1
41
1
41
1
41
1
10
3.3582791577689832
20
-17.174926336709238
30
0
10
9.7536384239582912
20
-21.200519159950101
30
0
10
9.7536384239582912
20
-21.200519159950101
30
0
10
10.139062094786905
20
-25.321118890369988
30
0
0
SPLINE
5
226
100
AcDbEntity
8
0
100
AcDbSpline
70
4
71
3
72
8
73
4
74
0
42
0.000000001
43
0.0000000001
44
0.0000000001
40
0
40
0
40
0
40
0
40
1
40
1
40
1
40
1
41
1
41
1
41
1
41
1
10
10.139062094786905
20
-25.321118890369988
30
0
10
10.524486469349572
20
-29.44171057707301
30
0
10
10.524486469349572
20
-29.44171057707301
30
0
10
8.5258601506379694
20
-31.901504885754797
30
0
0
SPLINE
5
227
100
AcDbEntity
8
0
100
AcDbSpline
70
4
71
3
72
8
73
4
74
0
42
0.000000001
43
0.0000000001
44
0.0000000001
40
0
40
0
40
0
40
0
40
1
40
1
40
1
40
1
41
1
41
1
41
1
41
1
10
8.5258601506379694
20
-31.901504885754797
30
0
10
6.5272492156260373
20
-34.361308645621534
30
0
10
6.5272492156260373
20
-34.361308645621534
30
0
10
-1.1185590726573205
20
-34.780002951009507
30
0
0
SPLINE
5
228
100
AcDbEntity
8
0
100
AcDbSpline
70
4
71
3
72
8
73
4
74
0
42
0.000000001
43
0.0000000001
44
0.0000000001
40
0
40
0
40
0
40
0
40
0.78287683858888024
40
0.78287683858888024
40
0.78287683858888024
40
0.78287683858888024
41
1
41
1
41
1
41
1
10
-1.1185590726573205
20
-34.780002951009507
30
0
10
-7.1042850183767001
20
-35.107785876527011
30
0
10
-8.4039247590518578
20
-35.178955141571954
30
0
10
-9.9385400851528694
20
-33.802649537608993
30
0
0
ARC
5
229
100
AcDbEntity
8
0
100
AcDbCircle
10
-5.6466962670135459
20
4.7557978380470187
30
0
40
7.2500000000000044
210
0
220
0
230
1
100
AcDbArc
50
233.70246838643007
51
287.50102397184008
0
SPLINE
5
230
100
AcDbEntity
8
0
100
AcDbSpline
70
4
71
3
72
8
73
4
74
0
42
0.000000001
43
0.0000000001
44
0.0000000001
40
0.98081681097683437
40
0.98081681097683437
40
0.98081681097683437
40
0.98081681097683437
40
1
40
1
40
1
40
1
41
1
41
1
41
1
41
1
10
-3.4664556481552204
20
-2.1586110914190608
30
0
10
-3.4960255541280834
20
-2.274512598772521
30
0
10
-3.5261956811699231
20
-2.3926565782035878
30
0
10
-3.5569558870556599
20
-2.5131112626144336
30
0
0
SPLINE
5
231
100
AcDbEntity
8
0
100
AcDbSpline
70
4
71
3
72
8
73
4
74
0
42
0.000000001
43
0.0000000001
44
0.0000000001
40
0
40
0
40
0
40
0
40
1
40
1
40
1
40
1
41
1
41
1
41
1
41
1
10
-3.5569558870556599
20
-2.5131112626144336
30
0
10
-5.1604700085540598
20
-8.7922892066808984
30
0
10
-5.1604700085540598
20
-8.7922892066808984
30
0
10
-9.2197129363154868
20
-10.544582462134247
30
0
0
SPLINE
5
232
100
AcDbEntity
8
0
100
AcDbSpline
70
4
71
3
72
8
73
4
74
0
42
0.000000001
43
0.0000000001
44
0.0000000001
40
0
40
0
40
0
40
0
40
0.062773878280593665
40
0.062773878280593665
40
0.062773878280593665
40
0.062773878280593665
41
1
41
1
41
1
41
1
10
-9.2197129363154868
20
-10.544582462134247
30
0
10
-9.4745273577741429
20
-10.654580705663982
30
0
10
-9.713346089756012
20
-10.7576739328433
30
0
10
-9.9385400851528694
20
-10.853250841521501
30
0
0
LINE
5
233
100
AcDbEntity
8
0
100
AcDbLine
10
-9.9385400851528694
20
-10.853250841521501
30
0
11
-9.9385400851528694
21
-1.0873671126196427
31
0
0
LINE
5
234
100
AcDbEntity
8
0
100
AcDbLine
10
17.738569254216277
20
6.9707347124067436
30
0
11
32.126068772044988
21
6.9101214559358848
31
0
0
SPLINE
5
235
100
AcDbEntity
8
0
100
AcDbSpline
70
0
71
3
72
20
73
16
74
0
42
0.000000001
43
0.0000000001
44
0.0000000001
40
0
40
0
40
0
40
0
40
0.028543956941739612
40
0.028543956941739612
40
0.072131826790470949
40
0.072131826790470949
40
0.16343270839484544
40
0.16343270839484544
40
0.30948355030273689
40
0.30948355030273689
40
0.37874369487480297
40
0.37874369487480297
40
0.40912622506964946
40
0.40912622506964946
40
0.43515131672200708
40
0.43515131672200708
40
0.43515131672200708
40
0.43515131672200708
10
32.126068772044988
20
6.9101214559358848
30
0
10
32.221214450835618
20
6.9097206156492543
30
0
10
32.31433232215592
20
6.8895318584088452
30
0
10
32.540130260899346
20
6.8078874068782529
30
0
10
32.676753845162374
20
6.7271757707543518
30
0
10
33.095212726700282
20
6.4184641648561627
30
0
10
33.387323331268306
20
6.1146641986028385
30
0
10
34.129176053372937
20
5.2744240203494002
30
0
10
34.596621631580703
20
4.6734420691027738
30
0
10
35.267068090582619
20
3.9677051198510278
30
0
10
35.48560012349364
20
3.7620770242935957
30
0
10
35.795942444187638
20
3.5438523538044353
30
0
10
35.898217860647101
20
3.4819812611810241
30
0
10
36.095215785091106
20
3.3952887767991422
30
0
10
36.190992863760549
20
3.3654808221156274
30
0
10
36.289758958309434
20
3.353764701536377
30
0
0
LINE
5
236
100
AcDbEntity
8
0
100
AcDbLine
10
36.289758958309434
20
3.353764701536377
30
0
11
37.226586356059698
21
3.3497401792259796
31
0
0
SPLINE
5
237
100
AcDbEntity
8
0
100
AcDbSpline
70
4
71
3
72
8
73
4
74
0
42
0.000000001
43
0.0000000001
44
0.0000000001
40
0.47111461624937812
40
0.47111461624937812
40
0.47111461624937812
40
0.47111461624937812
40
1
40
1
40
1
40
1
41
1
41
1
41
1
41
1
10
37.226586356059705
20
3.3497401792259787
30
0
10
37.175075215676223
20
1.9268705096644647
30
0
10
36.201882653490294
20
0.75683390224724101
30
0
10
34.136159093619298
20
-1.7267158902259361
30
0
0
SPLINE
5
238
100
AcDbEntity
8
0
100
AcDbSpline
70
4
71
3
72
8
73
4
74
0
42
0.000000001
43
0.0000000001
44
0.0000000001
40
0
40
0
40
0
40
0
40
1
40
1
40
1
40
1
41
1
41
1
41
1
41
1
10
34.136159093619298
20
-1.7267158902259361
30
0
10
30.230353368337546
20
-6.4225344338599637
30
0
10
30.230353368337546
20
-6.4225344338599637
30
0
10
27.389290989992784
20
-6.3108719572422807
30
0
0
SPLINE
5
239
100
AcDbEntity
8
0
100
AcDbSpline
70
4
71
3
72
8
73
4
74
0
42
0.000000001
43
0.0000000001
44
0.0000000001
40
0
40
0
40
0
40
0
40
1
40
1
40
1
40
1
41
1
41
1
41
1
41
1
10
27.389290989992784
20
-6.3108719572422807
30
0
10
24.548228611648035
20
-6.1992094806245817
30
0
10
24.548228611648035
20
-6.1992094806245817
30
0
10
20.783824981032822
20
0.1490128830676074
30
0
0
SPLINE
5
240
100
AcDbEntity
8
0
100
AcDbSpline
70
4
71
3
72
8
73
4
74
0
42
0.000000001
43
0.0000000001
44
0.0000000001
40
0
40
0
40
0
40
0
40
0.6089643837395835
40
0.6089643837395835
40
0.6089643837395835
40
0.6089643837395835
41
1
41
1
41
1
41
1
10
20.783824981032822
20
0.1490128830676074
30
0
10
18.49144214230525
20
4.0148537740662995
30
0
10
17.595038806258611
20
5.5265352492426922
30
0
10
17.73856925421628
20
6.9707347124067436
30
0
0
ARC
5
241
100
AcDbEntity
8
0
100
AcDbCircle
10
67.0000009983778
20
4.0000000596046448
30
0
40
7.2500000000000062
210
0
220
0
230
1
100
AcDbArc
50
162.54704818004146
51
347.77907493433338
0
SPLINE
5
242
100
AcDbEntity
8
0
100
AcDbSpline
70
4
71
3
72
8
73
4
74
0
42
0.000000001
43
0.0000000001
44
0.0000000001
40
0.65745999930751919
40
0.65745999930751919
40
0.65745999930751919
40
0.65745999930751919
40
1
40
1
40
1
40
1
41
1
41
1
41
1
41
1
10
74.085706217419713
20
2.4653074034541604
30
0
10
74.283611702269667
20
1.5989766454729817
30
0
10
74.3291412377326
20
0.46351179959385824
30
0
10
74.398391892541852
20
-1.2635360011469787
30
0
0
SPLINE
5
243
100
AcDbEntity
8
0
100
AcDbSpline
70
4
71
3
72
8
73
4
74
0
42
0.000000001
43
0.0000000001
44
0.0000000001
40
0
40
0
40
0
40
0
40
1
40
1
40
1
40
1
41
1
41
1
41
1
41
1
10
74.398391892541852
20
-1.2635360011469787
30
0
10
74.600559974135976
20
-6.3054224881249299
30
0
10
74.600559974135976
20
-6.3054224881249299
30
0
10
72.205425387187077
20
-8.5488671047341729
30
0
0
SPLINE
5
244
100
AcDbEntity
8
0
100
AcDbSpline
70
4
71
3
72
8
73
4
74
0
42
0.000000001
43
0.0000000001
44
0.0000000001
40
0
40
0
40
0
40
0
40
1
40
1
40
1
40
1
41
1
41
1
41
1
41
1
10
72.205425387187077
20
-8.5488671047341729
30
0
10
69.810290800238178
20
-10.792311721343415
30
0
10
69.810290800238178
20
-10.792311721343415
30
0
10
64.220920555331972
20
-9.2990521970004369
30
0
0
SPLINE
5
245
100
AcDbEntity
8
0
100
AcDbSpline
70
4
71
3
72
8
73
4
74
0
42
0.000000001
43
0.0000000001
44
0.0000000001
40
0
40
0
40
0
40
0
40
1
40
1
40
1
40
1
41
1
41
1
41
1
41
1
10
64.220920555331972
20
-9.2990521970004369
30
0
10
58.631542970442958
20
-7.8057839252065531
30
0
10
58.631542970442958
20
-7.8057839252065531
30
0
10
56.7768885335947
20
-3.1872447672381776
30
0
0
SPLINE
5
246
100
AcDbEntity
8
0
100
AcDbSpline
70
4
71
3
72
8
73
4
74
0
42
0.000000001
43
0.0000000001
44
0.0000000001
40
0
40
0
40
0
40
0
40
0.84848791367127385
40
0.84848791367127385
40
0.84848791367127385
40
0.84848791367127385
41
1
41
1
41
1
41
1
10
56.7768885335947
20
-3.1872447672381776
30
0
10
55.20322983489563
20
0.73153048422529787
30
0
10
54.964801522286386
20
1.3252722984279075
30
0
10
56.588825698409508
20
3.6654531875114928
30
0
0
SPLINE
5
247
100
AcDbEntity
8
0
100
AcDbSpline
70
0
71
3
72
10
73
6
74
0
42
0.000000001
43
0.0000000001
44
0.0000000001
40
0.20246655666966909
40
0.20246655666966909
40
0.20246655666966909
40
0.20246655666966909
40
0.45138375071572645
40
0.45138375071572645
40
0.62735392165873516
40
0.62735392165873516
40
0.62735392165873516
40
0.62735392165873516
10
56.588825698409536
20
3.6654531875115004
30
0
10
57.359894341688957
20
3.9728142892605049
30
0
10
58.079467085958456
20
4.4358990674428549
30
0
10
59.185775412427859
20
5.3124582936128641
30
0
10
59.638060323714576
20
5.7243237258257107
30
0
10
60.083765223857299
20
6.174438608913146
30
0
0
SPLINE
5
248
100
AcDbEntity
8
0
100
AcDbSpline
70
0
71
3
72
8
73
4
74
0
42
0.000000001
43
0.0000000001
44
0.0000000001
40
2.9040306454170808
40
2.9040306454170808
40
2.9040306454170808
40
2.9040306454170808
40
3.3318470490355709
40
3.3318470490355709
40
3.3318470490355709
40
3.3318470490355709
10
75.466032305279171
20
30.675170391525146
30
0
10
76.26238118726252
20
31.833520478290517
30
0
10
76.972808757456164
20
32.686801464522837
30
0
10
77.589797837834283
20
33.146660470020272
30
0
0
SPLINE
5
249
100
AcDbEntity
8
0
100
AcDbSpline
70
0
71
3
72
8
73
4
74
0
42
0.000000001
43
0.0000000001
44
0.0000000001
40
0
40
0
40
0
40
0
40
0.18711515345294702
40
0.18711515345294702
40
0.18711515345294702
40
0.18711515345294702
10
77.589797837834297
20
33.146660470020286
30
0
10
78.085118109496307
20
33.525713166664318
30
0
10
78.573462941783404
20
33.909387997041883
30
0
10
79.06631490271576
20
34.300407638193128
30
0
0
SPLINE
5
250
100
AcDbEntity
8
0
100
AcDbSpline
70
4
71
3
72
8
73
4
74
0
42
0.000000001
43
0.0000000001
44
0.0000000001
40
0.019972545683397094
40
0.019972545683397094
40
0.019972545683397094
40
0.019972545683397094
40
0.8561197289374608
40
0.8561197289374608
40
0.8561197289374608
40
0.8561197289374608
41
1
41
1
41
1
41
1
10
79.066314902715717
20
34.300407638193093
30
0
10
76.910235977758731
20
31.388526705613643
30
0
10
76.569130605329875
20
30.955957250830966
30
0
10
75.466032305279157
20
30.675170391525143
30
0
0
SPLINE
5
251
100
AcDbEntity
8
0
100
AcDbSpline
70
4
71
3
72
8
73
4
74
0
42
0.000000001
43
0.0000000001
44
0.0000000001
40
0.10517431003580606
40
0.10517431003580606
40
0.10517431003580606
40
0.10517431003580606
40
1
40
1
40
1
40
1
41
1
41
1
41
1
41
1
10
63.843999462370853
20
-62.666255363326464
30
0
10
59.040501474927893
20
-60.686130630255171
30
0
10
59.009556945116486
20
-60.249733560613443
30
0
10
58.715335572988003
20
-56.100459184645132
30
0
0
SPLINE
5
252
100
AcDbEntity
8
0
100
AcDbSpline
70
4
71
3
72
8
73
4
74
0
42
0.000000001
43
0.0000000001
44
0.0000000001
40
0
40
0
40
0
40
0
40
1
40
1
40
1
40
1
41
1
41
1
41
1
41
1
10
58.715335572988003
20
-56.100459184645132
30
0
10
58.386532396170345
20
-51.463497346073851
30
0
10
58.386532396170345
20
-51.463497346073851
30
0
10
60.925794642824577
20
-48.302236268051999
30
0
0
SPLINE
5
253
100
AcDbEntity
8
0
100
AcDbSpline
70
4
71
3
72
8
73
4
74
0
42
0.000000001
43
0.0000000001
44
0.0000000001
40
0
40
0
40
0
40
0
40
1
40
1
40
1
40
1
41
1
41
1
41
1
41
1
10
60.925794642824577
20
-48.302236268051999
30
0
10
63.465056537611787
20
-45.140979211888556
30
0
10
63.465056537611787
20
-45.140979211888556
30
0
10
71.055669409888182
20
-47.230228207882384
30
0
0
SPLINE
5
254
100
AcDbEntity
8
0
100
AcDbSpline
70
4
71
3
72
8
73
4
74
0
42
0.000000001
43
0.0000000001
44
0.0000000001
40
0
40
0
40
0
40
0
40
1
40
1
40
1
40
1
41
1
41
1
41
1
41
1
10
71.055669409888182
20
-47.230228207882384
30
0
10
78.646290677748453
20
-49.31947388575179
30
0
10
78.646290677748453
20
-49.31947388575179
30
0
10
80.148047352843093
20
-54.372300831016688
30
0
0
SPLINE
5
255
100
AcDbEntity
8
0
100
AcDbSpline
70
4
71
3
72
8
73
4
74
0
42
0.000000001
43
0.0000000001
44
0.0000000001
40
0
40
0
40
0
40
0
40
0.98848772132213147
40
0.98848772132213147
40
0.98848772132213147
40
0.98848772132213147
41
1
41
1
41
1
41
1
10
80.148047352843093
20
-54.372300831016688
30
0
10
81.632519362145359
20
-59.366958572192907
30
0
10
81.64960901760594
20
-59.424458464009895
30
0
10
77.203716918711805
20
-62.666255363326464
30
0
0
LINE
5
256
100
AcDbEntity
8
0
100
AcDbLine
10
77.203716918711805
20
-62.666255363326464
30
0
11
63.843999462370853
21
-62.666255363326464
31
0
0
SPLINE
5
257
100
AcDbEntity
8
0
100
AcDbSpline
70
4
71
3
72
8
73
4
74
0
42
0.000000001
43
0.0000000001
44
0.0000000001
40
0.90227236548157042
40
0.90227236548157042
40
0.90227236548157042
40
0.90227236548157042
40
1
40
1
40
1
40
1
41
1
41
1
41
1
41
1
10
41.394880696131764
20
-65.017141304766412
30
0
10
40.662988721125032
20
-64.804533469923996
30
0
10
39.854860171109088
20
-64.565770375323538
30
0
10
38.959200965604538
20
-64.301146184519467
30
0
0
SPLINE
5
258
100
AcDbEntity
8
0
100
AcDbSpline
70
4
71
3
72
8
73
4
74
0
42
0.000000001
43
0.0000000001
44
0.0000000001
40
0
40
0
40
0
40
0
40
1
40
1
40
1
40
1
41
1
41
1
41
1
41
1
10
38.959200965604538
20
-64.301146184519467
30
0
10
29.794350176730909
20
-61.59337178036624
30
0
10
29.794350176730909
20
-61.59337178036624
30
0
10
29.379064984586126
20
-60.640469021926648
30
0
0
SPLINE
5
259
100
AcDbEntity
8
0
100
AcDbSpline
70
4
71
3
72
8
73
4
74
0
42
0.000000001
43
0.0000000001
44
0.0000000001
40
0
40
0
40
0
40
0
40
1
40
1
40
1
40
1
41
1
41
1
41
1
41
1
10
29.379064984586126
20
-60.640469021926648
30
0
10
28.96378783615819
20
-59.687566967221116
30
0
10
28.96378783615819
20
-59.687566967221116
30
0
10
32.923346920036494
20
-53.31305230799483
30
0
0
SPLINE
5
260
100
AcDbEntity
8
0
100
AcDbSpline
70
4
71
3
72
8
73
4
74
0
42
0.000000001
43
0.0000000001
44
0.0000000001
40
0
40
0
40
0
40
0
40
1
40
1
40
1
40
1
41
1
41
1
41
1
41
1
10
32.923346920036494
20
-53.31305230799483
30
0
10
36.882906003914798
20
-46.938537648768587
30
0
10
36.882906003914798
20
-46.938537648768587
30
0
10
45.110200810690571
20
-49.313829155250076
30
0
0
SPLINE
5
261
100
AcDbEntity
8
0
100
AcDbSpline
70
4
71
3
72
8
73
4
74
0
42
0.000000001
43
0.0000000001
44
0.0000000001
40
0
40
0
40
0
40
0
40
1
40
1
40
1
40
1
41
1
41
1
41
1
41
1
10
45.110200810690571
20
-49.313829155250076
30
0
10
53.337487573749485
20
-51.689119957997534
30
0
10
53.337487573749485
20
-51.689119957997534
30
0
10
53.666290750567143
20
-56.326081796568829
30
0
0
SPLINE
5
262
100
AcDbEntity
8
0
100
AcDbSpline
70
4
71
3
72
8
73
4
74
0
42
0.000000001
43
0.0000000001
44
0.0000000001
40
0
40
0
40
0
40
0
40
1
40
1
40
1
40
1
41
1
41
1
41
1
41
1
10
53.666290750567143
20
-56.326081796568829
30
0
10
53.995093751451329
20
-60.963045646069325
30
0
10
53.995093751451329
20
-60.963045646069325
30
0
10
51.059572840931523
20
-63.985982111906367
30
0
0
SPLINE
5
263
100
AcDbEntity
8
0
100
AcDbSpline
70
4
71
3
72
8
73
4
74
0
42
0.000000001
43
0.0000000001
44
0.0000000001
40
0
40
0
40
0
40
0
40
0.26504211452890947
40
0.26504211452890947
40
0.26504211452890947
40
0.26504211452890947
41
1
41
1
41
1
41
1
10
51.059572840931523
20
-63.985982111906367
30
0
10
50.281536171563523
20
-64.787187584898362
30
0
10
49.709711986225855
20
-65.376039865156443
30
0
10
49.1188095246074
20
-65.75840683461621
30
0
0
LINE
5
264
100
AcDbEntity
8
0
100
AcDbLine
10
49.1188095246074
20
-65.758406834616196
30
0
11
41.394880696131764
21
-65.017141304766412
31
0
0
SPLINE
5
265
100
AcDbEntity
8
0
100
AcDbSpline
70
4
71
3
72
8
73
4
74
0
42
0.000000001
43
0.0000000001
44
0.0000000001
40
0
40
0
40
0
40
0
40
1
40
1
40
1
40
1
41
1
41
1
41
1
41
1
10
37.83250953011359
20
-15.314234330359504
30
0
10
33.232156930722255
20
-9.1016680657813076
30
0
10
33.232156930722255
20
-9.1016680657813076
30
0
10
37.137961952269968
20
-4.4058575658641104
30
0
0
SPLINE
5
266
100
AcDbEntity
8
0
100
AcDbSpline
70
4
71
3
72
8
73
4
74
0
42
0.000000001
43
0.0000000001
44
0.0000000001
40
0
40
0
40
0
40
0
40
1
40
1
40
1
40
1
41
1
41
1
41
1
41
1
10
37.137961952269968
20
-4.4058575658641104
30
0
10
41.043767677551713
20
0.28996097776991636
30
0
10
41.043767677551713
20
0.28996097776991636
30
0
10
46.090355580585779
20
-0.077070678528647907
30
0
0
SPLINE
5
267
100
AcDbEntity
8
0
100
AcDbSpline
70
4
71
3
72
8
73
4
74
0
42
0.000000001
43
0.0000000001
44
0.0000000001
40
0
40
0
40
0
40
0
40
1
40
1
40
1
40
1
41
1
41
1
41
1
41
1
10
46.090355580585779
20
-0.077070678528647907
30
0
10
51.136944187353862
20
-0.44409429111036625
30
0
10
51.136944187353862
20
-0.44409429111036625
30
0
10
52.99159862420214
20
-5.0626334490787217
30
0
0
SPLINE
5
268
100
AcDbEntity
8
0
100
AcDbSpline
70
4
71
3
72
8
73
4
74
0
42
0.000000001
43
0.0000000001
44
0.0000000001
40
0
40
0
40
0
40
0
40
1
40
1
40
1
40
1
41
1
41
1
41
1
41
1
10
52.99159862420214
20
-5.0626334490787217
30
0
10
54.846261104767244
20
-9.6811733107811158
30
0
10
54.846261104767244
20
-9.6811733107811158
30
0
10
50.195184047285622
20
-15.42431245836427
30
0
0
SPLINE
5
269
100
AcDbEntity
8
0
100
AcDbSpline
70
4
71
3
72
8
73
4
74
0
42
0.000000001
43
0.0000000001
44
0.0000000001
40
0
40
0
40
0
40
0
40
1
40
1
40
1
40
1
41
1
41
1
41
1
41
1
10
50.195184047285622
20
-15.42431245836427
30
0
10
45.544115033520846
20
-21.16745230968148
30
0
10
45.544115033520846
20
-21.16745230968148
30
0
10
43.98848858151289
20
-21.34712645230961
30
0
0
SPLINE
5
270
100
AcDbEntity
8
0
100
AcDbSpline
70
4
71
3
72
8
73
4
74
0
42
0.000000001
43
0.0000000001
44
0.0000000001
40
0
40
0
40
0
40
0
40
1
40
1
40
1
40
1
41
1
41
1
41
1
41
1
10
43.98848858151289
20
-21.34712645230961
30
0
10
42.432862129504905
20
-21.526800594937736
30
0
10
42.432862129504905
20
-21.526800594937736
30
0
10
37.83250953011359
20
-15.314234330359504
30
0
0
SPLINE
5
271
100
AcDbEntity
8
0
100
AcDbSpline
70
4
71
3
72
8
73
4
74
0
42
0.000000001
43
0.0000000001
44
0.0000000001
40
0
40
0
40
0
40
0
40
1
40
1
40
1
40
1
41
1
41
1
41
1
41
1
10
52.741396594577701
20
-30.564887767128567
30
0
10
59.195182465497069
20
-35.307130963280713
30
0
10
59.195182465497069
20
-35.307130963280713
30
0
10
59.387300823931341
20
-38.497798773364728
30
0
0
SPLINE
5
272
100
AcDbEntity
8
0
100
AcDbSpline
70
4
71
3
72
8
73
4
74
0
42
0.000000001
43
0.0000000001
44
0.0000000001
40
0
40
0
40
0
40
0
40
1
40
1
40
1
40
1
41
1
41
1
41
1
41
1
10
59.387300823931341
20
-38.497798773364728
30
0
10
59.579419534232656
20
-41.688462561590342
30
0
10
59.579419534232656
20
-41.688462561590342
30
0
10
57.040157287578417
20
-44.849723639612186
30
0
0
SPLINE
5
273
100
AcDbEntity
8
0
100
AcDbSpline
70
4
71
3
72
8
73
4
74
0
42
0.000000001
43
0.0000000001
44
0.0000000001
40
0
40
0
40
0
40
0
40
1
40
1
40
1
40
1
41
1
41
1
41
1
41
1
10
57.040157287578417
20
-44.849723639612186
30
0
10
54.500895392791193
20
-48.010980695775629
30
0
10
54.500895392791193
20
-48.010980695775629
30
0
10
46.273608277865279
20
-45.635693914886602
30
0
0
SPLINE
5
274
100
AcDbEntity
8
0
100
AcDbSpline
70
4
71
3
72
8
73
4
74
0
42
0.000000001
43
0.0000000001
44
0.0000000001
40
0
40
0
40
0
40
0
40
1
40
1
40
1
40
1
41
1
41
1
41
1
41
1
10
46.273608277865279
20
-45.635693914886602
30
0
10
38.046321514806344
20
-43.260403112139151
30
0
10
38.046321514806344
20
-43.260403112139151
30
0
10
37.133312617349652
20
-39.469013589611428
30
0
0
SPLINE
5
275
100
AcDbEntity
8
0
100
AcDbSpline
70
4
71
3
72
8
73
4
74
0
42
0.000000001
43
0.0000000001
44
0.0000000001
40
0
40
0
40
0
40
0
40
1
40
1
40
1
40
1
41
1
41
1
41
1
41
1
10
37.133312617349652
20
-39.469013589611428
30
0
10
36.22030407175999
20
-35.677620045225268
30
0
10
36.22030407175999
20
-35.677620045225268
30
0
10
39.698330945701194
20
-30.929806450728972
30
0
0
SPLINE
5
276
100
AcDbEntity
8
0
100
AcDbSpline
70
4
71
3
72
8
73
4
74
0
42
0.000000001
43
0.0000000001
44
0.0000000001
40
0
40
0
40
0
40
0
40
1
40
1
40
1
40
1
41
1
41
1
41
1
41
1
10
39.698330945701194
20
-30.929806450728972
30
0
10
43.176357819642419
20
-26.181992856232675
30
0
10
43.176357819642419
20
-26.181992856232675
30
0
10
44.731975876066514
20
-26.002322031728941
30
0
0
SPLINE
5
277
100
AcDbEntity
8
0
100
AcDbSpline
70
4
71
3
72
8
73
4
74
0
42
0.000000001
43
0.0000000001
44
0.0000000001
40
0
40
0
40
0
40
0
40
1
40
1
40
1
40
1
41
1
41
1
41
1
41
1
10
44.731975876066514
20
-26.002322031728941
30
0
10
46.28760232807447
20
-25.822647889100814
30
0
10
46.28760232807447
20
-25.822647889100814
30
0
10
52.741396594577701
20
-30.564887767128567
30
0
0
SPLINE
5
278
100
AcDbEntity
8
0
100
AcDbSpline
70
4
71
3
72
8
73
4
74
0
42
0.000000001
43
0.0000000001
44
0.0000000001
40
0
40
0
40
0
40
0
40
1
40
1
40
1
40
1
41
1
41
1
41
1
41
1
10
87.756730984101182
20
-33.489768665732136
30
0
10
87.788911148590415
20
-33.717647583334134
30
0
10
87.788911148590415
20
-33.717647583334134
30
0
10
83.770858271240655
20
-39.766634653519475
30
0
0
SPLINE
5
279
100
AcDbEntity
8
0
100
AcDbSpline
70
4
71
3
72
8
73
4
74
0
42
0.000000001
43
0.0000000001
44
0.0000000001
40
0
40
0
40
0
40
0
40
1
40
1
40
1
40
1
41
1
41
1
41
1
41
1
10
83.770858271240655
20
-39.766634653519475
30
0
10
79.75280941574934
20
-45.815622075571824
30
0
10
79.75280941574934
20
-45.815622075571824
30
0
10
72.162192169747499
20
-43.726376749569404
30
0
0
SPLINE
5
280
100
AcDbEntity
8
0
100
AcDbSpline
70
4
71
3
72
8
73
4
74
0
42
0.000000001
43
0.0000000001
44
0.0000000001
40
0
40
0
40
0
40
0
40
1
40
1
40
1
40
1
41
1
41
1
41
1
41
1
10
72.162192169747499
20
-43.726376749569404
30
0
10
64.571570901887227
20
-41.637131071699976
30
0
10
64.571570901887227
20
-41.637131071699976
30
0
10
64.379452543452928
20
-38.446463261615961
30
0
0
SPLINE
5
281
100
AcDbEntity
8
0
100
AcDbSpline
70
4
71
3
72
8
73
4
74
0
42
0.000000001
43
0.0000000001
44
0.0000000001
40
0
40
0
40
0
40
0
40
1
40
1
40
1
40
1
41
1
41
1
41
1
41
1
10
64.379452543452928
20
-38.446463261615961
30
0
10
64.187333833151612
20
-35.255799473390368
30
0
10
64.187333833151612
20
-35.255799473390368
30
0
10
68.474707634877518
20
-30.887342519678374
30
0
0
SPLINE
5
282
100
AcDbEntity
8
0
100
AcDbSpline
70
4
71
3
72
8
73
4
74
0
42
0.000000001
43
0.0000000001
44
0.0000000001
40
0
40
0
40
0
40
0
40
1
40
1
40
1
40
1
41
1
41
1
41
1
41
1
10
68.474707634877518
20
-30.887342519678374
30
0
10
72.762081084736423
20
-26.518889587824795
30
0
10
72.762081084736423
20
-26.518889587824795
30
0
10
80.24331560030717
20
-29.890393689835904
30
0
0
SPLINE
5
283
100
AcDbEntity
8
0
100
AcDbSpline
70
4
71
3
72
8
73
4
74
0
42
0.000000001
43
0.0000000001
44
0.0000000001
40
0
40
0
40
0
40
0
40
1
40
1
40
1
40
1
41
1
41
1
41
1
41
1
10
80.24331560030717
20
-29.890393689835904
30
0
10
87.724550467744933
20
-33.261893769988575
30
0
10
87.724550467744933
20
-33.261893769988575
30
0
10
87.756730984101182
20
-33.489768665732136
30
0
0
SPLINE
5
284
100
AcDbEntity
8
0
100
AcDbSpline
70
4
71
3
72
8
73
4
74
0
42
0.000000001
43
0.0000000001
44
0.0000000001
40
0
40
0
40
0
40
0
40
1
40
1
40
1
40
1
41
1
41
1
41
1
41
1
10
91.878502561046943
20
33.644852966245125
30
0
10
98.551258080778865
20
31.647800589957249
30
0
10
98.551258080778865
20
31.647800589957249
30
0
10
99.201752778878557
20
28.210864001891753
30
0
0
SPLINE
5
285
100
AcDbEntity
8
0
100
AcDbSpline
70
4
71
3
72
8
73
4
74
0
42
0.000000001
43
0.0000000001
44
0.0000000001
40
0
40
0
40
0
40
0
40
1
40
1
40
1
40
1
41
1
41
1
41
1
41
1
10
99.201752778878557
20
28.210864001891753
30
0
10
99.852243455119819
20
24.77392776569328
30
0
10
99.852243455119819
20
24.77392776569328
30
0
10
94.948173281945984
20
21.047844172339541
30
0
0
SPLINE
5
286
100
AcDbEntity
8
0
100
AcDbSpline
70
4
71
3
72
8
73
4
74
0
42
0.000000001
43
0.0000000001
44
0.0000000001
40
0
40
0
40
0
40
0
40
1
40
1
40
1
40
1
41
1
41
1
41
1
41
1
10
94.948173281945984
20
21.047844172339541
30
0
10
90.044099790647749
20
17.321768974569693
30
0
10
90.044099790647749
20
17.321768974569693
30
0
10
84.940880036161076
20
22.856100835417081
30
0
0
SPLINE
5
287
100
AcDbEntity
8
0
100
AcDbSpline
70
4
71
3
72
8
73
4
74
0
42
0.000000001
43
0.0000000001
44
0.0000000001
40
0
40
0
40
0
40
0
40
1
40
1
40
1
40
1
41
1
41
1
41
1
41
1
10
84.940880036161076
20
22.856100835417081
30
0
10
79.837660281674403
20
28.390432696264455
30
0
10
79.837660281674403
20
28.390432696264455
30
0
10
82.521703309627682
20
32.016164997540301
30
0
0
SPLINE
5
288
100
AcDbEntity
8
0
100
AcDbSpline
70
4
71
3
72
8
73
4
74
0
42
0.000000001
43
0.0000000001
44
0.0000000001
40
0
40
0
40
0
40
0
40
1
40
1
40
1
40
1
41
1
41
1
41
1
41
1
10
82.521703309627682
20
32.016164997540301
30
0
10
85.205747041314993
20
35.641905342533008
30
0
10
85.205747041314993
20
35.641905342533008
30
0
10
91.878502561046943
20
33.644852966245125
30
0
0
SPLINE
5
289
100
AcDbEntity
8
0
100
AcDbSpline
70
4
71
3
72
8
73
4
74
0
42
0.000000001
43
0.0000000001
44
0.0000000001
40
0
40
0
40
0
40
0
40
1
40
1
40
1
40
1
41
1
41
1
41
1
41
1
10
87.802593448913086
20
14.368680121121184
30
0
10
87.596066170018659
20
13.164350268313246
30
0
10
87.596066170018659
20
13.164350268313246
30
0
10
82.123800051410996
20
10.011092511751109
30
0
0
SPLINE
5
290
100
AcDbEntity
8
0
100
AcDbSpline
70
4
71
3
72
8
73
4
74
0
42
0.000000001
43
0.0000000001
44
0.0000000001
40
0
40
0
40
0
40
0
40
1
40
1
40
1
40
1
41
1
41
1
41
1
41
1
10
82.123800051410996
20
10.011092511751109
30
0
10
76.651533229069287
20
6.8578267114721463
30
0
10
76.651533229069287
20
6.8578267114721463
30
0
10
72.47224673218264
20
9.8387507758187205
30
0
0
SPLINE
5
291
100
AcDbEntity
8
0
100
AcDbSpline
70
4
71
3
72
8
73
4
74
0
42
0.000000001
43
0.0000000001
44
0.0000000001
40
0
40
0
40
0
40
0
40
1
40
1
40
1
40
1
41
1
41
1
41
1
41
1
10
72.47224673218264
20
9.8387507758187205
30
0
10
68.292960939030053
20
12.819682883882139
30
0
10
68.292960939030053
20
12.819682883882139
30
0
10
71.323667332068823
20
19.374909425364997
30
0
0
SPLINE
5
292
100
AcDbEntity
8
0
100
AcDbSpline
70
4
71
3
72
8
73
4
74
0
42
0.000000001
43
0.0000000001
44
0.0000000001
40
0
40
0
40
0
40
0
40
1
40
1
40
1
40
1
41
1
41
1
41
1
41
1
10
71.323667332068823
20
19.374909425364997
30
0
10
74.354381768824453
20
25.930135263113804
30
0
10
74.354381768824453
20
25.930135263113804
30
0
10
76.078531493829303
20
26.285904479368838
30
0
0
SPLINE
5
293
100
AcDbEntity
8
0
100
AcDbSpline
70
4
71
3
72
8
73
4
74
0
42
0.000000001
43
0.0000000001
44
0.0000000001
40
0
40
0
40
0
40
0
40
1
40
1
40
1
40
1
41
1
41
1
41
1
41
1
10
76.078531493829303
20
26.285904479368838
30
0
10
77.802681218834167
20
26.641673695623869
30
0
10
77.802681218834167
20
26.641673695623869
30
0
10
82.905900973320854
20
21.107341834776491
30
0
0
SPLINE
5
294
100
AcDbEntity
8
0
100
AcDbSpline
70
4
71
3
72
8
73
4
74
0
42
0.000000001
43
0.0000000001
44
0.0000000001
40
0
40
0
40
0
40
0
40
1
40
1
40
1
40
1
41
1
41
1
41
1
41
1
10
82.905900973320854
20
21.107341834776491
30
0
10
88.009120727807527
20
15.573009973929125
30
0
10
88.009120727807527
20
15.573009973929125
30
0
10
87.802593448913086
20
14.368680121121184
30
0
0
SPLINE
5
295
100
AcDbEntity
8
0
100
AcDbSpline
70
4
71
3
72
8
73
4
74
0
42
0.000000001
43
0.0000000001
44
0.0000000001
40
0
40
0
40
0
40
0
40
1
40
1
40
1
40
1
41
1
41
1
41
1
41
1
10
23.977355378338878
20
-30.892703541579003
30
0
10
15.583102383618739
20
-28.839227123306507
30
0
10
15.583102383618739
20
-28.839227123306507
30
0
10
15.197669965339225
20
-24.718634732869447
30
0
0
SPLINE
5
296
100
AcDbEntity
8
0
100
AcDbSpline
70
4
71
3
72
8
73
4
74
0
42
0.000000001
43
0.0000000001
44
0.0000000001
40
0
40
0
40
0
40
0
40
1
40
1
40
1
40
1
41
1
41
1
41
1
41
1
10
15.197669965339225
20
-24.718634732869447
30
0
10
14.812245590776573
20
-20.598043046166428
30
0
10
14.812245590776573
20
-20.598043046166428
30
0
10
19.628534856264515
20
-15.700068815449724
30
0
0
SPLINE
5
297
100
AcDbEntity
8
0
100
AcDbSpline
70
4
71
3
72
8
73
4
74
0
42
0.000000001
43
0.0000000001
44
0.0000000001
40
0
40
0
40
0
40
0
40
1
40
1
40
1
40
1
41
1
41
1
41
1
41
1
10
19.628534856264515
20
-15.700068815449724
30
0
10
24.444823418018402
20
-10.802102628449912
30
0
10
24.444823418018402
20
-10.802102628449912
30
0
10
27.285885796363146
20
-10.913765105067593
30
0
0
SPLINE
5
298
100
AcDbEntity
8
0
100
AcDbSpline
70
4
71
3
72
8
73
4
74
0
42
0.000000001
43
0.0000000001
44
0.0000000001
40
0
40
0
40
0
40
0
40
1
40
1
40
1
40
1
41
1
41
1
41
1
41
1
10
27.285885796363146
20
-10.913765105067593
30
0
10
30.126948174707895
20
-11.025427581685294
30
0
10
30.126948174707895
20
-11.025427581685294
30
0
10
34.727309521550126
20
-17.237986506280688
30
0
0
SPLINE
5
299
100
AcDbEntity
8
0
100
AcDbSpline
70
4
71
3
72
8
73
4
74
0
42
0.000000001
43
0.0000000001
44
0.0000000001
40
0
40
0
40
0
40
0
40
1
40
1
40
1
40
1
41
1
41
1
41
1
41
1
10
34.727309521550126
20
-17.237986506280688
30
0
10
39.327662120941447
20
-23.450552770858913
30
0
10
39.327662120941447
20
-23.450552770858913
30
0
10
35.849635598867252
20
-28.198362343496775
30
0
0
SPLINE
5
300
100
AcDbEntity
8
0
100
AcDbSpline
70
4
71
3
72
8
73
4
74
0
42
0.000000001
43
0.0000000001
44
0.0000000001
40
0
40
0
40
0
40
0
40
1
40
1
40
1
40
1
41
1
41
1
41
1
41
1
10
35.849635598867252
20
-28.198362343496775
30
0
10
32.371608724926034
20
-32.946175937993083
30
0
10
32.371608724926034
20
-32.946175937993083
30
0
10
23.977355378338878
20
-30.892703541579003
30
0
0
SPLINE
5
301
100
AcDbEntity
8
0
100
AcDbSpline
70
4
71
3
72
8
73
4
74
0
42
0.000000001
43
0.0000000001
44
0.0000000001
40
0
40
0
40
0
40
0
40
1
40
1
40
1
40
1
41
1
41
1
41
1
41
1
10
8.081243800955102
20
3.685113869953931
30
0
10
13.924989964218387
20
4.6265302458705282
30
0
10
13.924989964218387
20
4.6265302458705282
30
0
10
17.689385551116754
20
-1.7216914140876227
30
0
0
SPLINE
5
302
100
AcDbEntity
8
0
100
AcDbSpline
70
4
71
3
72
8
73
4
74
0
42
0.000000001
43
0.0000000001
44
0.0000000001
40
0
40
0
40
0
40
0
40
1
40
1
40
1
40
1
41
1
41
1
41
1
41
1
10
17.689385551116754
20
-1.7216914140876227
30
0
10
21.453781138015117
20
-8.069913074045779
30
0
10
21.453781138015117
20
-8.069913074045779
30
0
10
16.6374918725272
20
-12.967887304762451
30
0
0
SPLINE
5
303
100
AcDbEntity
8
0
100
AcDbSpline
70
4
71
3
72
8
73
4
74
0
42
0.000000001
43
0.0000000001
44
0.0000000001
40
0
40
0
40
0
40
0
40
1
40
1
40
1
40
1
41
1
41
1
41
1
41
1
10
16.6374918725272
20
-12.967887304762451
30
0
10
11.821203310773299
20
-17.865853491762287
30
0
10
11.821203310773299
20
-17.865853491762287
30
0
10
5.4258440445839913
20
-13.840260668521411
30
0
0
SPLINE
5
304
100
AcDbEntity
8
0
100
AcDbSpline
70
4
71
3
72
8
73
4
74
0
42
0.000000001
43
0.0000000001
44
0.0000000001
40
0
40
0
40
0
40
0
40
1
40
1
40
1
40
1
41
1
41
1
41
1
41
1
10
5.4258440445839913
20
-13.840260668521411
30
0
10
-0.96951522160531656
20
-9.814667845280546
30
0
10
-0.96951522160531656
20
-9.814667845280546
30
0
10
0.63399960362712204
20
-3.5354818574972202
30
0
0
SPLINE
5
305
100
AcDbEntity
8
0
100
AcDbSpline
70
4
71
3
72
8
73
4
74
0
42
0.000000001
43
0.0000000001
44
0.0000000001
40
0
40
0
40
0
40
0
40
1
40
1
40
1
40
1
41
1
41
1
41
1
41
1
10
0.63399960362712204
20
-3.5354818574972202
30
0
10
2.2375137251255235
20
2.7436960865692606
30
0
10
2.2375137251255235
20
2.7436960865692606
30
0
10
8.081243800955102
20
3.685113869953931
30
0
0
SPLINE
5
306
100
AcDbEntity
8
0
100
AcDbSpline
70
4
71
3
72
8
73
4
74
0
42
0.000000001
43
0.0000000001
44
0.0000000001
40
0
40
0
40
0
40
0
40
1
40
1
40
1
40
1
41
1
41
1
41
1
41
1
10
63.245942302953878
20
-13.196503577141762
30
0
10
68.8353198878429
20
-14.689771848935642
30
0
10
68.8353198878429
20
-14.689771848935642
30
0
10
69.336032258100332
20
-19.313437714615951
30
0
0
SPLINE
5
307
100
AcDbEntity
8
0
100
AcDbSpline
70
4
71
3
72
8
73
4
74
0
42
0.000000001
43
0.0000000001
44
0.0000000001
40
0
40
0
40
0
40
0
40
1
40
1
40
1
40
1
41
1
41
1
41
1
41
1
10
69.336032258100332
20
-19.313437714615951
30
0
10
69.836743924623718
20
-23.937111624013138
30
0
10
69.836743924623718
20
-23.937111624013138
30
0
10
65.549370826631858
20
-28.305560534008286
30
0
0
SPLINE
5
308
100
AcDbEntity
8
0
100
AcDbSpline
70
4
71
3
72
8
73
4
74
0
42
0.000000001
43
0.0000000001
44
0.0000000001
40
0
40
0
40
0
40
0
40
1
40
1
40
1
40
1
41
1
41
1
41
1
41
1
10
65.549370826631858
20
-28.305560534008286
30
0
10
61.261997376772975
20
-32.674013465861869
30
0
10
61.261997376772975
20
-32.674013465861869
30
0
10
54.808211505853635
20
-27.931770269709723
30
0
0
SPLINE
5
309
100
AcDbEntity
8
0
100
AcDbSpline
70
4
71
3
72
8
73
4
74
0
42
0.000000001
43
0.0000000001
44
0.0000000001
40
0
40
0
40
0
40
0
40
1
40
1
40
1
40
1
41
1
41
1
41
1
41
1
10
54.808211505853635
20
-27.931770269709723
30
0
10
48.354425986801289
20
-23.18952305169914
30
0
10
48.354425986801289
20
-23.18952305169914
30
0
10
53.005503044282904
20
-17.446383904115969
30
0
0
SPLINE
5
310
100
AcDbEntity
8
0
100
AcDbSpline
70
4
71
3
72
8
73
4
74
0
42
0.000000001
43
0.0000000001
44
0.0000000001
40
0
40
0
40
0
40
0
40
1
40
1
40
1
40
1
41
1
41
1
41
1
41
1
10
53.005503044282904
20
-17.446383904115969
30
0
10
57.656572058047679
20
-11.703244052798777
30
0
10
57.656572058047679
20
-11.703244052798777
30
0
10
63.245942302953878
20
-13.196503577141762
30
0
0
SPLINE
5
311
100
AcDbEntity
8
0
100
AcDbSpline
70
4
71
3
72
8
73
4
74
0
42
0.000000001
43
0.0000000001
44
0.0000000001
40
0
40
0
40
0
40
0
40
1
40
1
40
1
40
1
41
1
41
1
41
1
41
1
10
91.369976138862
20
-17.562833514554079
30
0
10
93.177596304049203
20
-22.870356889554078
30
0
10
93.177596304049203
20
-22.870356889554078
30
0
10
91.078269340484695
20
-26.581822366233602
30
0
0
SPLINE
5
312
100
AcDbEntity
8
0
100
AcDbSpline
70
4
71
3
72
8
73
4
74
0
42
0.000000001
43
0.0000000001
44
0.0000000001
40
0
40
0
40
0
40
0
40
1
40
1
40
1
40
1
41
1
41
1
41
1
41
1
10
91.078269340484695
20
-26.581822366233602
30
0
10
88.978942376920145
20
-30.293287842913088
30
0
10
88.978942376920145
20
-30.293287842913088
30
0
10
81.497703135756936
20
-26.921791432751832
30
0
0
SPLINE
5
313
100
AcDbEntity
8
0
100
AcDbSpline
70
4
71
3
72
8
73
4
74
0
42
0.000000001
43
0.0000000001
44
0.0000000001
40
0
40
0
40
0
40
0
40
1
40
1
40
1
40
1
41
1
41
1
41
1
41
1
10
81.497703135756936
20
-26.921791432751832
30
0
10
74.016463894593699
20
-23.550295022590568
30
0
10
74.016463894593699
20
-23.550295022590568
30
0
10
73.515752228070312
20
-18.926621113193377
30
0
0
SPLINE
5
314
100
AcDbEntity
8
0
100
AcDbSpline
70
4
71
3
72
8
73
4
74
0
42
0.000000001
43
0.0000000001
44
0.0000000001
40
0
40
0
40
0
40
0
40
1
40
1
40
1
40
1
41
1
41
1
41
1
41
1
10
73.515752228070312
20
-18.926621113193377
30
0
10
73.015040561546925
20
-14.302947203796226
30
0
10
73.015040561546925
20
-14.302947203796226
30
0
10
75.410175148495838
20
-12.059502587186985
30
0
0
SPLINE
5
315
100
AcDbEntity
8
0
100
AcDbSpline
70
4
71
3
72
8
73
4
74
0
42
0.000000001
43
0.0000000001
44
0.0000000001
40
0
40
0
40
0
40
0
40
1
40
1
40
1
40
1
41
1
41
1
41
1
41
1
10
75.410175148495838
20
-12.059502587186985
30
0
10
77.805305713586279
20
-9.8160576187107207
30
0
10
77.805305713586279
20
-9.8160576187107207
30
0
10
83.683832854559753
20
-11.035684055065907
30
0
0
SPLINE
5
316
100
AcDbEntity
8
0
100
AcDbSpline
70
4
71
3
72
8
73
4
74
0
42
0.000000001
43
0.0000000001
44
0.0000000001
40
0
40
0
40
0
40
0
40
1
40
1
40
1
40
1
41
1
41
1
41
1
41
1
10
83.683832854559753
20
-11.035684055065907
30
0
10
89.562355973674798
20
-12.255310139554073
30
0
10
89.562355973674798
20
-12.255310139554073
30
0
10
91.369976138862
20
-17.562833514554079
30
0
0
SPLINE
5
317
100
AcDbEntity
8
0
100
AcDbSpline
70
4
71
3
72
8
73
4
74
0
42
0.000000001
43
0.0000000001
44
0.0000000001
40
0.065558090599015628
40
0.065558090599015628
40
0.065558090599015628
40
0.065558090599015628
40
0.19881854456791886
40
0.19881854456791886
40
0.19881854456791886
40
0.19881854456791886
41
1
41
1
41
1
41
1
10
-1.9689596711748987
20
11.003737781070575
30
0
10
-2.3212058614906592
20
11.401914023577422
30
0
10
-2.6199230346065319
20
11.752276614225902
30
0
10
-2.8660465561190018
20
12.079877899866267
30
0
0
ARC
5
318
100
AcDbEntity
8
0
100
AcDbCircle
10
-6.0009711696083006
20
15.97503485020075
30
0
40
5.0000000000000044
210
-0
220
0
230
1
100
AcDbArc
50
308.82802425551165
51
352.75517822116012
0
SPLINE
5
319
100
AcDbEntity
8
0
100
AcDbSpline
70
0
71
3
72
14
73
10
74
0
42
0.000000001
43
0.0000000001
44
0.0000000001
40
0
40
0
40
0
40
0
40
0.27829955991983779
40
0.27829955991983779
40
0.5928152839558829
40
0.5928152839558829
40
0.79980421452939721
40
0.79980421452939721
40
1.0241588645393509
40
1.0241588645393509
40
1.0241588645393509
40
1.0241588645393509
10
-1.0408894140399316
20
15.344488279297517
30
0
10
-0.92390219191237732
20
16.264747325791578
30
0
10
-0.63426161516489776
20
16.95793145904647
30
0
10
0.02259529405990314
20
18.098148929393126
30
0
10
0.48950180262506326
20
18.648704159159294
30
0
10
1.4067168953900038
20
19.350751211719086
30
0
10
1.8065920022484603
20
19.57292169519463
30
0
10
2.7117366135374334
20
19.888518559551905
30
0
10
3.1946693330929357
20
19.96033057948577
30
0
10
3.6940967012568571
20
19.96033057948577
30
0
0
LINE
5
320
100
AcDbEntity
8
0
100
AcDbLine
10
3.6940967012568571
20
19.96033057948577
30
0
11
8.4438485522678981
21
19.960330579485763
31
0
0
SPLINE
5
321
100
AcDbEntity
8
0
100
AcDbSpline
70
0
71
3
72
20
73
16
74
0
42
0.000000001
43
0.0000000001
44
0.0000000001
40
0
40
0
40
0
40
0
40
0.030656809215887062
40
0.030656809215887062
40
0.062762828138360136
40
0.062762828138360136
40
0.11277002515612654
40
0.11277002515612654
40
0.21943086261617387
40
0.21943086261617387
40
0.52866335614552606
40
0.52866335614552606
40
0.84921169358964965
40
0.84921169358964965
40
0.86990355603983216
40
0.86990355603983216
40
0.86990355603983216
40
0.86990355603983216
10
8.4438485522678963
20
19.960330579485767
30
0
10
8.546037916320854
20
19.960330579485767
30
0
10
8.6442186338146403
20
19.941062975698202
30
0
10
8.8372325340224425
20
19.860329367261542
30
0
10
8.9253213050929325
20
19.799561264710441
30
0
10
9.1267744826190249
20
19.614445077735997
30
0
10
9.2285899635877957
20
19.471778717436191
30
0
10
9.4902479265237929
20
19.021744153513545
30
0
10
9.6317364751726249
20
18.631557596024134
30
0
10
10.089499861766999
20
17.0296818483212
30
0
10
10.307713942806542
20
15.370301557116925
30
0
10
10.835578024324233
20
11.978967059641704
30
0
10
11.144737991433953
20
10.268821762880176
30
0
10
11.716734799973585
20
8.9287678712278762
30
0
10
11.752280889880886
20
8.8496006378926939
30
0
10
11.788733661641963
20
8.7725883042116752
30
0
0
SPLINE
5
322
100
AcDbEntity
8
0
100
AcDbSpline
70
4
71
3
72
8
73
4
74
0
42
0.000000001
43
0.0000000001
44
0.0000000001
40
0.65216412363200649
40
0.65216412363200649
40
0.65216412363200649
40
0.65216412363200649
40
1
40
1
40
1
40
1
41
1
41
1
41
1
41
1
10
11.788733661641961
20
8.7725883042116752
30
0
10
10.832134653159454
20
8.474335326253879
30
0
10
9.5065054115972778
20
8.260776727894644
30
0
10
7.4738433967358464
20
7.9333152950732639
30
0
0
SPLINE
5
323
100
AcDbEntity
8
0
100
AcDbSpline
70
4
71
3
72
8
73
4
74
0
42
0.000000001
43
0.0000000001
44
0.0000000001
40
0
40
0
40
0
40
0
40
0.70021980670740436
40
0.70021980670740436
40
0.70021980670740436
40
0.70021980670740436
41
1
41
1
41
1
41
1
10
7.4738433967358464
20
7.9333152950732639
30
0
10
3.381936587848493
20
7.2741169022977603
30
0
10
2.1552639737449533
20
7.0765022806933509
30
0
10
0.74375611487281168
20
8.1799208432620851
30
0
0
ARC
5
324
100
AcDbEntity
8
0
100
AcDbCircle
10
-5.6466962670135459
20
4.7557978380470187
30
0
40
7.2500000000000062
210
0
220
-0
230
1
100
AcDbArc
50
28.183232203153487
51
59.517576884675918
0
ENDSEC
0
SECTION
2
OBJECTS
0
DICTIONARY
5
C
100
AcDbDictionary
3
ACAD_GROUP
350
D
3
ACAD_MLINESTYLE
350
17
0
DICTIONARY
5
D
100
AcDbDictionary
0
DICTIONARY
5
1A
330
C
100
AcDbDictionary
0
DICTIONARY
5
17
100
AcDbDictionary
0
ENDSEC
0
EOF
