0
SECTION
2
HEADER
9
$INSUNITS
70
4
9
$ACADVER
1
AC1014
9
$HANDSEED
5
FFFF
0
ENDSEC
0
SECTION
2
TABLES
0
TABLE
2
VPORT
5
8
100
AcDbSymbolTable
0
ENDTAB
0
TABLE
2
LTYPE
5
5
100
AcDbSymbolTable
0
LTYPE
5
14
100
AcDbSymbolTableRecord
100
AcDbLinetypeTableRecord
2
BYBLOCK
70
0
0
LTYPE
5
15
100
AcDbSymbolTableRecord
100
AcDbLinetypeTableRecord
2
BYLAYER
70
0
0
ENDTAB
0
TABLE
2
LAYER
5
2
100
AcDbSymbolTable
70
2
0
LAYER
5
50
100
AcDbSymbolTableRecord
100
AcDbLayerTableRecord
2
0
70
0
6
CONTINUOUS
0
ENDTAB
0
TABLE
2
STYLE
5
3
100
AcDbSymbolTable
70
1
0
STYLE
5
11
100
AcDbSymbolTableRecord
100
AcDbTextStyleTableRecord
2
STANDARD
70
0
0
ENDTAB
0
TABLE
2
VIEW
5
6
100
AcDbSymbolTable
70
0
0
ENDTAB
0
TABLE
2
UCS
5
7
100
AcDbSymbolTable
70
0
0
ENDTAB
0
TABLE
2
APPID
5
9
100
AcDbSymbolTable
70
2
0
APPID
5
12
100
AcDbSymbolTableRecord
100
AcDbRegAppTableRecord
2
ACAD
70
0
0
ENDTAB
0
TABLE
2
DIMSTYLE
5
A
100
AcDbSymbolTable
70
1
0
ENDTAB
0
TABLE
2
BLOCK_RECORD
5
1
100
AcDbSymbolTable
70
1
0
BLOCK_RECORD
5
1F
100
AcDbSymbolTableRecord
100
AcDbBlockTableRecord
2
*MODEL_SPACE
0
BLOCK_RECORD
5
1B
100
AcDbSymbolTableRecord
100
AcDbBlockTableRecord
2
*PAPER_SPACE
0
ENDTAB
0
ENDSEC
0
SECTION
2
BLOCKS
0
BLOCK
5
20
100
AcDbEntity
100
AcDbBlockBegin
2
*MODEL_SPACE
0
ENDBLK
5
21
100
AcDbEntity
100
AcDbBlockEnd
0
BLOCK
5
1C
100
AcDbEntity
100
AcDbBlockBegin
2
*PAPER_SPACE
0
ENDBLK
5
1D
100
AcDbEntity
100
AcDbBlockEnd
0
ENDSEC
0
SECTION
2
ENTITIES
0
CIRCLE
5
100
100
AcDbEntity
8
0
100
AcDbCircle
10
37.669394119644849
20
24.009564291106127
30
0
40
21.999999999999993
210
0
220
0
230
1
0
LINE
5
101
100
AcDbEntity
8
0
100
AcDbLine
10
19.771215536788151
20
45.542218642489978
30
0
11
19.853903092222854
21
45.922250779221088
31
0
0
SPLINE
5
102
100
AcDbEntity
8
0
100
AcDbSpline
70
4
71
3
72
8
73
4
74
0
42
0.000000001
43
0.0000000001
44
0.0000000001
40
-1
40
-1
40
-1
40
-1
40
-0.70689739085890047
40
-0.70689739085890047
40
-0.70689739085890047
40
-0.70689739085890047
41
1
41
1
41
1
41
1
10
19.853903092222854
20
45.922250779221088
30
0
10
20.353462869117884
20
48.217924588094654
30
0
10
20.706600371983033
20
49.840730413850487
30
0
10
21.098297198215434
20
51.036416284260596
30
0
0
ARC
5
103
100
AcDbEntity
8
0
100
AcDbCircle
10
16.500000134110472
20
53.000000789761629
30
0
40
5.0000000000000071
210
-0
220
0
230
1
100
AcDbArc
50
336.87634109889035
51
343.94798528018828
0
SPLINE
5
104
100
AcDbEntity
8
0
100
AcDbSpline
70
4
71
3
72
8
73
4
74
0
42
0.000000001
43
0.0000000001
44
0.0000000001
40
-0.65641727596743471
40
-0.65641727596743471
40
-0.65641727596743471
40
-0.65641727596743471
40
0
40
0
40
0
40
0
41
1
41
1
41
1
41
1
10
21.305055476696975
20
51.617451277201276
30
0
10
22.224312896384127
20
53.982082839207109
30
0
10
23.49675753217554
20
54.416743788091182
30
0
10
27.200216835533332
20
55.68182761938084
30
0
0
SPLINE
5
105
100
AcDbEntity
8
0
100
AcDbSpline
70
4
71
3
72
8
73
4
74
0
42
0.000000001
43
0.0000000001
44
0.0000000001
40
-1
40
-1
40
-1
40
-1
40
-0.040497932061356608
40
-0.040497932061356608
40
-0.040497932061356608
40
-0.040497932061356608
41
1
41
1
41
1
41
1
10
27.200216835533332
20
55.68182761938084
30
0
10
32.613651131053693
20
57.531032619681525
30
0
10
32.832884025372294
20
57.605921598151227
30
0
10
36.33947874077797
20
51.977962977571046
30
0
0
ARC
5
106
100
AcDbEntity
8
0
100
AcDbCircle
10
37.669394119644849
20
24.009564291106127
30
0
40
27.999999999999975
210
0
220
0
230
1
100
AcDbArc
50
92.722400629363676
51
129.73373087133226
0
SPLINE
5
107
100
AcDbEntity
8
0
100
AcDbSpline
70
4
71
3
72
8
73
4
74
0
42
0.000000001
43
0.0000000001
44
0.0000000001
40
-0.83372799672281428
40
-0.83372799672281428
40
-0.83372799672281428
40
-0.83372799672281428
40
0
40
0
40
0
40
0
41
1
41
1
41
1
41
1
10
65.041566953789896
20
29.90567778540828
30
0
10
68.880527728398746
20
32.55324156014175
30
0
10
69.474867549078425
20
31.947662045660476
30
0
10
73.049370826631858
20
28.305560534008283
30
0
0
SPLINE
5
108
100
AcDbEntity
8
0
100
AcDbSpline
70
4
71
3
72
8
73
4
74
0
42
0.000000001
43
0.0000000001
44
0.0000000001
40
-1
40
-1
40
-1
40
-1
40
0
40
0
40
0
40
0
41
1
41
1
41
1
41
1
10
73.049370826631858
20
28.305560534008283
30
0
10
77.336743924623704
20
23.937111624013134
30
0
10
77.336743924623704
20
23.937111624013134
30
0
10
76.836032258100317
20
19.313437714615947
30
0
0
SPLINE
5
109
100
AcDbEntity
8
0
100
AcDbSpline
70
4
71
3
72
8
73
4
74
0
42
0.000000001
43
0.0000000001
44
0.0000000001
40
-1
40
-1
40
-1
40
-1
40
0
40
0
40
0
40
0
41
1
41
1
41
1
41
1
10
76.836032258100317
20
19.313437714615947
30
0
10
76.3353198878429
20
14.68977184893564
30
0
10
76.3353198878429
20
14.68977184893564
30
0
10
70.745942302953878
20
13.19650357714176
30
0
0
SPLINE
5
110
100
AcDbEntity
8
0
100
AcDbSpline
70
4
71
3
72
8
73
4
74
0
42
0.000000001
43
0.0000000001
44
0.0000000001
40
-1
40
-1
40
-1
40
-1
40
-0.29960714674075534
40
-0.29960714674075534
40
-0.29960714674075534
40
-0.29960714674075534
41
1
41
1
41
1
41
1
10
70.745942302953878
20
13.19650357714176
30
0
10
66.831187329201697
20
12.150635278230633
30
0
10
65.658298761326634
20
11.837285661327265
30
0
10
63.708888818839633
20
13.716619337857455
30
0
0
ARC
5
111
100
AcDbEntity
8
0
100
AcDbCircle
10
37.669394119644849
20
24.009564291106127
30
0
40
28.000000000000011
210
-0
220
0
230
1
100
AcDbArc
50
-21.567997951842337
51
12.156079079247517
0
SPLINE
5
112
100
AcDbEntity
8
0
100
AcDbSpline
70
4
71
3
72
8
73
4
74
0
42
0.000000001
43
0.0000000001
44
0.0000000001
40
-0.4561328675011953
40
-0.4561328675011953
40
-0.4561328675011953
40
-0.4561328675011953
40
0
40
0
40
0
40
0
41
1
41
1
41
1
41
1
10
61.606503998482637
20
9.4832168269826589
30
0
10
61.797667785890781
20
8.3150486721231474
30
0
10
61.337571139709169
20
7.1693012798656062
30
0
10
60.491598624202126
20
5.062633449078719
30
0
0
SPLINE
5
113
100
AcDbEntity
8
0
100
AcDbSpline
70
4
71
3
72
8
73
4
74
0
42
0.000000001
43
0.0000000001
44
0.0000000001
40
-1
40
-1
40
-1
40
-1
40
0
40
0
40
0
40
0
41
1
41
1
41
1
41
1
10
60.491598624202126
20
5.062633449078719
30
0
10
58.636944187353862
20
0.4440942911103638
30
0
10
58.636944187353862
20
0.4440942911103638
30
0
10
53.590355580585779
20
0.077070678528645437
30
0
0
SPLINE
5
114
100
AcDbEntity
8
0
100
AcDbSpline
70
4
71
3
72
8
73
4
74
0
42
0.000000001
43
0.0000000001
44
0.0000000001
40
-1
40
-1
40
-1
40
-1
40
-0.88429444284185454
40
-0.88429444284185454
40
-0.88429444284185454
40
-0.88429444284185454
41
1
41
1
41
1
41
1
10
53.590355580585779
20
0.077070678528645437
30
0
10
53.006437315517665
20
0.034603076241943115
30
0
10
52.490081638644085
20
-0.0029507884610061562
30
0
10
52.02742093345644
20
-0.028885451210194157
30
0
0
ARC
5
115
100
AcDbEntity
8
0
100
AcDbCircle
10
37.669394119644849
20
24.009564291106127
30
0
40
28.000000000000004
210
-0
220
0
230
1
100
AcDbArc
50
300.849627480278
51
328.74833350762759
0
ARC
5
116
100
AcDbEntity
8
0
100
AcDbCircle
10
37.669394119644849
20
24.009564291106127
30
0
40
28.000000000000004
210
0
220
0
230
1
100
AcDbArc
50
158.18633347270119
51
194.51988829039664
0
SPLINE
5
117
100
AcDbEntity
8
0
100
AcDbSpline
70
4
71
3
72
8
73
4
74
0
42
0.000000001
43
0.0000000001
44
0.0000000001
40
-0.98440481404686309
40
-0.98440481404686309
40
-0.98440481404686309
40
-0.98440481404686309
40
0
40
0
40
0
40
0
41
1
41
1
41
1
41
1
10
10.563695328538685
20
16.989514929041359
30
0
10
4.4619333475519696
20
13.149751644687345
30
0
10
4.3996159470263132
20
13.176652808914715
30
0
10
0.40367766755227907
20
14.901618725204859
30
0
0
SPLINE
5
118
100
AcDbEntity
8
0
100
AcDbSpline
70
4
71
3
72
8
73
4
74
0
42
0.000000001
43
0.0000000001
44
0.0000000001
40
-1
40
-1
40
-1
40
-1
40
-0.677855274059605
40
-0.677855274059605
40
-0.677855274059605
40
-0.677855274059605
41
1
41
1
41
1
41
1
10
0.40367766755227907
20
14.901618725204859
30
0
10
-0.90398580623269775
20
15.466108164509116
30
0
10
-1.7903923886329498
20
15.848750308092455
30
0
10
-2.4385400851528747
20
16.321144619844585
30
0
0
LINE
5
119
100
AcDbEntity
8
0
100
AcDbLine
10
-2.4385400851528751
20
16.321144619844585
30
0
11
-2.4385400851528747
21
33.802649537608985
31
0
0
SPLINE
5
120
100
AcDbEntity
8
0
100
AcDbSpline
70
4
71
3
72
8
73
4
74
0
42
0.000000001
43
0.0000000001
44
0.0000000001
40
-0.78287683858888024
40
-0.78287683858888024
40
-0.78287683858888024
40
-0.78287683858888024
40
0
40
0
40
0
40
0
41
1
41
1
41
1
41
1
10
-2.4385400851528747
20
33.802649537608985
30
0
10
-0.90392475905186287
20
35.178955141571947
30
0
10
0.3957149816232941
20
35.107785876527004
30
0
10
6.3814409273426742
20
34.7800029510095
30
0
0
SPLINE
5
121
100
AcDbEntity
8
0
100
AcDbSpline
70
4
71
3
72
8
73
4
74
0
42
0.000000001
43
0.0000000001
44
0.0000000001
40
-1
40
-1
40
-1
40
-1
40
-0.68127969791542276
40
-0.68127969791542276
40
-0.68127969791542276
40
-0.68127969791542276
41
1
41
1
41
1
41
1
10
6.3814409273426742
20
34.7800029510095
30
0
10
8.8183152546651105
20
34.646556575515156
30
0
10
10.478508260241188
20
34.555642269130466
30
0
10
11.67427197022543
20
34.414064492305805
30
0
0
ARC
5
122
100
AcDbEntity
8
0
100
AcDbCircle
10
37.669394119644849
20
24.009564291106127
30
0
40
27.999999999999993
210
0
220
0
230
1
100
AcDbArc
50
202.78777065789123
51
240.60635073046967
0
SPLINE
5
123
100
AcDbEntity
8
0
100
AcDbSpline
70
4
71
3
72
8
73
4
74
0
42
0.000000001
43
0.0000000001
44
0.0000000001
40
-0.87403124081360539
40
-0.87403124081360539
40
-0.87403124081360539
40
-0.87403124081360539
40
0
40
0
40
0
40
0
41
1
41
1
41
1
41
1
10
23.926792960552383
20
-0.38594581592197463
30
0
10
21.332260650399917
20
-4.6115917300422744
30
0
10
20.688860511031852
20
-4.5079411931185644
30
0
10
15.581243800955097
20
-3.6851138699539332
30
0
0
SPLINE
5
124
100
AcDbEntity
8
0
100
AcDbSpline
70
4
71
3
72
8
73
4
74
0
42
0.000000001
43
0.0000000001
44
0.0000000001
40
-1
40
-1
40
-1
40
-1
40
0
40
0
40
0
40
0
41
1
41
1
41
1
41
1
10
15.581243800955097
20
-3.6851138699539332
30
0
10
9.7375137251255186
20
-2.7436960865692628
30
0
10
9.7375137251255186
20
-2.7436960865692628
30
0
10
8.1339996036271174
20
3.535481857497218
30
0
0
SPLINE
5
125
100
AcDbEntity
8
0
100
AcDbSpline
70
4
71
3
72
8
73
4
74
0
42
0.000000001
43
0.0000000001
44
0.0000000001
40
-1
40
-1
40
-1
40
-1
40
-0.059280398430064038
40
-0.059280398430064038
40
-0.059280398430064038
40
-0.059280398430064038
41
1
41
1
41
1
41
1
10
8.1339996036271174
20
3.535481857497218
30
0
10
6.6255417761229722
20
9.4424351981082744
30
0
10
6.5361197950935779
20
9.7926017456474952
30
0
10
11.854910521210245
20
13.164637525740178
30
0
0
ARC
5
126
100
AcDbEntity
8
0
100
AcDbCircle
10
37.669394119644849
20
24.009564291106127
30
0
40
28.000000000000004
210
0
220
0
230
1
100
AcDbArc
50
248.07083276874619
51
284.55660013550977
0
SPLINE
5
127
100
AcDbEntity
8
0
100
AcDbSpline
70
4
71
3
72
8
73
4
74
0
42
0.000000001
43
0.0000000001
44
0.0000000001
40
-0.50340071123661545
40
-0.50340071123661545
40
-0.50340071123661545
40
-0.50340071123661545
40
-0.47111461624937812
40
-0.47111461624937812
40
-0.47111461624937812
40
-0.47111461624937812
41
1
41
1
41
1
41
1
10
44.706809814628308
20
-3.0916308916897894
30
0
10
44.716862605601065
20
-3.1769626755715792
30
0
10
44.723441830568134
20
-3.2628803288361978
30
0
10
44.726586356059705
20
-3.3497401792259804
30
0
0
LINE
5
128
100
AcDbEntity
8
0
100
AcDbLine
10
44.726586356059705
20
-3.3497401792259804
30
0
11
43.78975895830942
21
-3.3537647015363792
31
0
0
SPLINE
5
129
100
AcDbEntity
8
0
100
AcDbSpline
70
0
71
3
72
20
73
16
74
0
42
0.000000001
43
0.0000000001
44
0.0000000001
40
-0.43515131672200708
40
-0.43515131672200708
40
-0.43515131672200708
40
-0.43515131672200708
40
-0.40912622506964946
40
-0.40912622506964946
40
-0.37874369487480297
40
-0.37874369487480297
40
-0.30948355030273689
40
-0.30948355030273689
40
-0.16343270839484544
40
-0.16343270839484544
40
-0.072131826790470949
40
-0.072131826790470949
40
-0.028543956941739612
40
-0.028543956941739612
40
0
40
0
40
0
40
0
10
43.789758958309434
20
-3.3537647015363792
30
0
10
43.690992863760542
20
-3.3654808221156296
30
0
10
43.595215785091099
20
-3.3952887767991449
30
0
10
43.398217860647094
20
-3.4819812611810264
30
0
10
43.295942444187638
20
-3.5438523538044375
30
0
10
42.98560012349364
20
-3.7620770242935979
30
0
10
42.767068090582612
20
-3.96770511985103
30
0
10
42.096621631580703
20
-4.6734420691027765
30
0
10
41.62917605337293
20
-5.2744240203494019
30
0
10
40.887323331268291
20
-6.1146641986028403
30
0
10
40.595212726700268
20
-6.4184641648561644
30
0
10
40.176753845162366
20
-6.7271757707543545
30
0
10
40.040130260899346
20
-6.8078874068782547
30
0
10
39.814332322155913
20
-6.889531858408847
30
0
10
39.721214450835618
20
-6.9097206156492561
30
0
10
39.626068772044988
20
-6.9101214559358866
30
0
0
LINE
5
130
100
AcDbEntity
8
0
100
AcDbLine
10
39.626068772044988
20
-6.9101214559358857
30
0
11
25.238569254216277
21
-6.9707347124067454
31
0
0
SPLINE
5
131
100
AcDbEntity
8
0
100
AcDbSpline
70
4
71
3
72
8
73
4
74
0
42
0.000000001
43
0.0000000001
44
0.0000000001
40
-0.6089643837395835
40
-0.6089643837395835
40
-0.6089643837395835
40
-0.6089643837395835
40
-0.10591592475780025
40
-0.10591592475780025
40
-0.10591592475780025
40
-0.10591592475780025
41
1
41
1
41
1
41
1
10
25.238569254216277
20
-6.9707347124067454
30
0
10
25.12000276233266
20
-5.7777218962127623
30
0
10
25.711081924052237
20
-4.5386596898964937
30
0
10
27.212512370647026
20
-1.9645309594983877
30
0
0
ARC
5
132
100
AcDbEntity
8
0
100
AcDbCircle
10
37.669394119644849
20
24.009564291106127
30
0
40
28
210
0
220
-0
230
1
100
AcDbArc
50
19.617902577344754
51
51.730432827853974
0
SPLINE
5
133
100
AcDbEntity
8
0
100
AcDbSpline
70
4
71
3
72
8
73
4
74
0
42
0.000000001
43
0.0000000001
44
0.0000000001
40
-0.94711215939541493
40
-0.94711215939541493
40
-0.94711215939541493
40
-0.94711215939541493
40
0
40
0
40
0
40
0
41
1
41
1
41
1
41
1
10
55.011533144411679
20
45.992517096533774
30
0
10
62.007998022376526
20
48.002138268793203
30
0
10
62.135191471136004
20
47.843788636479132
30
0
10
64.54015728757841
20
44.849723639612179
30
0
0
SPLINE
5
134
100
AcDbEntity
8
0
100
AcDbSpline
70
4
71
3
72
8
73
4
74
0
42
0.000000001
43
0.0000000001
44
0.0000000001
40
-1
40
-1
40
-1
40
-1
40
0
40
0
40
0
40
0
41
1
41
1
41
1
41
1
10
64.54015728757841
20
44.849723639612179
30
0
10
67.079419534232656
20
41.688462561590342
30
0
10
67.079419534232656
20
41.688462561590342
30
0
10
66.887300823931341
20
38.497798773364721
30
0
0
SPLINE
5
135
100
AcDbEntity
8
0
100
AcDbSpline
70
4
71
3
72
8
73
4
74
0
42
0.000000001
43
0.0000000001
44
0.0000000001
40
-1
40
-1
40
-1
40
-1
40
-0.2563282431739986
40
-0.2563282431739986
40
-0.2563282431739986
40
-0.2563282431739986
41
1
41
1
41
1
41
1
10
66.887300823931341
20
38.497798773364721
30
0
10
66.744427826795999
20
36.124989237591372
30
0
10
66.707805442443288
20
35.516771137900079
30
0
10
64.044066694727803
20
33.410449704574717
30
0
0
SPLINE
5
136
100
AcDbEntity
8
0
100
AcDbSpline
70
4
71
3
72
8
73
4
74
0
42
0.000000001
43
0.0000000001
44
0.0000000001
40
-0.08893944467810827
40
-0.08893944467810827
40
-0.08893944467810827
40
-0.08893944467810827
40
0
40
0
40
0
40
0
41
1
41
1
41
1
41
1
10
41.394440700224813
20
51.760672881079792
30
0
10
41.096347889676927
20
52.229584564297397
30
0
10
40.775507906126791
20
52.746106514110792
30
0
10
40.423346920036494
20
53.31305230799483
30
0
0
SPLINE
5
137
100
AcDbEntity
8
0
100
AcDbSpline
70
4
71
3
72
8
73
4
74
0
42
0.000000001
43
0.0000000001
44
0.0000000001
40
-1
40
-1
40
-1
40
-1
40
0
40
0
40
0
40
0
41
1
41
1
41
1
41
1
10
40.423346920036494
20
53.31305230799483
30
0
10
36.463787836158183
20
59.687566967221116
30
0
10
36.463787836158183
20
59.687566967221116
30
0
10
36.879064984586122
20
60.640469021926648
30
0
0
SPLINE
5
138
100
AcDbEntity
8
0
100
AcDbSpline
70
4
71
3
72
8
73
4
74
0
42
0.000000001
43
0.0000000001
44
0.0000000001
40
-1
40
-1
40
-1
40
-1
40
0
40
0
40
0
40
0
41
1
41
1
41
1
41
1
10
36.879064984586122
20
60.640469021926648
30
0
10
37.294350176730909
20
61.59337178036624
30
0
10
37.294350176730909
20
61.59337178036624
30
0
10
46.459200965604531
20
64.301146184519453
30
0
0
SPLINE
5
139
100
AcDbEntity
8
0
100
AcDbSpline
70
4
71
3
72
8
73
4
74
0
42
0.000000001
43
0.0000000001
44
0.0000000001
40
-1
40
-1
40
-1
40
-1
40
-0.90227236548157042
40
-0.90227236548157042
40
-0.90227236548157042
40
-0.90227236548157042
41
1
41
1
41
1
41
1
10
46.459200965604531
20
64.301146184519453
30
0
10
47.354860171109081
20
64.565770375323538
30
0
10
48.162988721125032
20
64.804533469923982
30
0
10
48.894880696131757
20
65.017141304766412
30
0
0
LINE
5
140
100
AcDbEntity
8
0
100
AcDbLine
10
48.894880696131757
20
65.017141304766412
30
0
11
56.6188095246074
21
65.758406834616196
31
0
0
SPLINE
5
141
100
AcDbEntity
8
0
100
AcDbSpline
70
4
71
3
72
8
73
4
74
0
42
0.000000001
43
0.0000000001
44
0.0000000001
40
-0.26504211452890947
40
-0.26504211452890947
40
-0.26504211452890947
40
-0.26504211452890947
40
0
40
0
40
0
40
0
41
1
41
1
41
1
41
1
10
56.6188095246074
20
65.75840683461621
30
0
10
57.209711986225855
20
65.376039865156429
30
0
10
57.781536171563523
20
64.787187584898362
30
0
10
58.559572840931523
20
63.985982111906367
30
0
0
SPLINE
5
142
100
AcDbEntity
8
0
100
AcDbSpline
70
4
71
3
72
8
73
4
74
0
42
0.000000001
43
0.0000000001
44
0.0000000001
40
-1
40
-1
40
-1
40
-1
40
0
40
0
40
0
40
0
41
1
41
1
41
1
41
1
10
58.559572840931523
20
63.985982111906367
30
0
10
61.495093751451329
20
60.963045646069318
30
0
10
61.495093751451329
20
60.963045646069318
30
0
10
61.166290750567143
20
56.326081796568829
30
0
0
SPLINE
5
143
100
AcDbEntity
8
0
100
AcDbSpline
70
4
71
3
72
8
73
4
74
0
42
0.000000001
43
0.0000000001
44
0.0000000001
40
-1
40
-1
40
-1
40
-1
40
0
40
0
40
0
40
0
41
1
41
1
41
1
41
1
10
61.166290750567143
20
56.326081796568829
30
0
10
60.837487573749485
20
51.689119957997534
30
0
10
60.837487573749485
20
51.689119957997534
30
0
10
52.610200810690571
20
49.313829155250076
30
0
0
SPLINE
5
144
100
AcDbEntity
8
0
100
AcDbSpline
70
4
71
3
72
8
73
4
74
0
42
0.000000001
43
0.0000000001
44
0.0000000001
40
-1
40
-1
40
-1
40
-1
40
-0.91735273825022368
40
-0.91735273825022368
40
-0.91735273825022368
40
-0.91735273825022368
41
1
41
1
41
1
41
1
10
52.610200810690571
20
49.313829155250076
30
0
10
51.930237423302401
20
49.117517816381884
30
0
10
51.306471147971962
20
48.937431072121583
30
0
10
50.732022165709402
20
48.775826595502565
30
0
0
ARC
5
145
100
AcDbEntity
8
0
100
AcDbCircle
10
37.669394119644849
20
24.009564291106127
30
0
40
28
210
0
220
-0
230
1
100
AcDbArc
50
62.191204308078454
51
82.354853763171121
0
ARC
5
146
100
AcDbEntity
8
0
100
AcDbCircle
10
73.500000983476653
20
-46.000000685453408
30
0
40
4.9999999999999991
210
0
220
0
230
1
100
AcDbArc
50
100.61043710457648
51
214.60588713378635
0
SPLINE
5
147
100
AcDbEntity
8
0
100
AcDbSpline
70
4
71
5
72
16
73
10
74
0
42
0.000000001
43
0.0000000001
44
0.0000000001
40
0
40
0
40
0
40
0
40
0
40
0
40
0.20000000000000001
40
0.40000000000000002
40
0.60000000000000009
40
0.80000000000000004
40
1
40
1
40
1
40
1
40
1
40
1
41
1
41
1
41
1
41
1
41
1
41
1
41
1
41
1
41
1
41
1
10
69.38461089187912
20
-48.839642281496978
30
0
10
69.58632452703921
20
-49.131978573737001
30
0
10
69.997142279867802
20
-49.721646813009322
30
0
10
70.635525397939901
20
-50.621111474462325
30
0
10
71.529218752980597
20
-51.836518143938079
30
0
10
72.724045113985369
20
-53.305184936571237
30
0
10
73.762961142318645
20
-54.35458283700931
30
0
10
74.607176664021353
20
-55.018753772075982
30
0
10
75.20309673709194
20
-55.396825518647795
30
0
10
75.509341450188131
20
-55.56966893019041
30
0
0
LINE
5
148
100
AcDbEntity
8
0
100
AcDbLine
10
75.509341450188131
20
-55.569668930190417
30
0
11
77.080837247653392
21
-56.456615490386028
31
0
0
SPLINE
5
149
100
AcDbEntity
8
0
100
AcDbSpline
70
0
71
3
72
14
73
10
74
0
42
0.000000001
43
0.0000000001
44
0.0000000001
40
0
40
0
40
0
40
0
40
0.078128894677385485
40
0.078128894677385485
40
0.15625778935477022
40
0.15625778935477022
40
0.22029223592665698
40
0.22029223592665698
40
0.28432668249854182
40
0.28432668249854182
40
0.28432668249854182
40
0.28432668249854182
10
79.635477624434898
20
-55.95182653123085
30
0
10
79.474408536677629
20
-56.156473424703591
30
0
10
79.274907268223302
20
-56.327703407850635
30
0
10
78.821499026285167
20
-56.58405350888156
30
0
10
78.571926882720874
20
-56.66672278007799
30
0
10
78.101755877480244
20
-56.725878499248104
30
0
10
77.88707082907851
20
-56.718450144544761
30
0
10
77.468210245804585
20
-56.636010641391124
30
0
10
77.266722617303117
20
-56.561528522585959
30
0
10
77.080837247653392
20
-56.456615490386035
30
0
0
SPLINE
5
150
100
AcDbEntity
8
0
100
AcDbSpline
70
4
71
5
72
16
73
10
74
0
42
0.000000001
43
0.0000000001
44
0.0000000001
40
-0.44069834196105334
40
-0.44069834196105334
40
-0.44069834196105334
40
-0.44069834196105334
40
-0.44069834196105334
40
-0.44069834196105334
40
-0.40000000000000002
40
-0.30000000000000004
40
-0.20000000000000001
40
-0.10000000000000001
40
0
40
0
40
0
40
0
40
0
40
0
41
1
41
1
41
1
41
1
41
1
41
1
41
1
41
1
41
1
41
1
10
79.635477624434898
20
-55.95182653123085
30
0
10
79.732404876289678
20
-55.828675271972315
30
0
10
80.067178471701098
20
-55.396836898115396
30
0
10
80.638455908515766
20
-54.622439957933352
30
0
10
81.447290308654573
20
-53.443551600582694
30
0
10
82.506369086348528
20
-51.778852284065707
30
0
10
83.497170934416715
20
-50.132267232996867
30
0
10
84.263805933632071
20
-48.825782392189616
30
0
10
84.786270812641419
20
-47.92344594434983
30
0
10
85.050347136235757
20
-47.464440663741627
30
0
0
SPLINE
5
151
100
AcDbEntity
8
0
100
AcDbSpline
70
4
71
5
72
13
73
7
74
0
42
0.000000001
43
0.0000000001
44
0.0000000001
40
-1
40
-1
40
-1
40
-1
40
-1
40
-1
40
-0.80000000000000004
40
-0.61085775741392812
40
-0.61085775741392812
40
-0.61085775741392812
40
-0.61085775741392812
40
-0.61085775741392812
40
-0.61085775741392812
41
1
41
1
41
1
41
1
41
1
41
1
41
1
10
85.050347136235757
20
-47.464440663741627
30
0
10
85.458602656952479
20
-46.754829755441236
30
0
10
86.310211259025436
20
-45.567100542024136
30
0
10
87.273127431780182
20
-44.754497817822639
30
0
10
88.329856116442173
20
-44.267903330551079
30
0
10
89.453192215092116
20
-44.040870793497355
30
0
10
90.011842564805832
20
-43.985072900194226
30
0
0
SPLINE
5
152
100
AcDbEntity
8
0
100
AcDbSpline
70
4
71
5
72
15
73
9
74
0
42
0.000000001
43
0.0000000001
44
0.0000000001
40
-0.61085775741384585
40
-0.61085775741384585
40
-0.61085775741384585
40
-0.61085775741384585
40
-0.61085775741384585
40
-0.61085775741384585
40
-0.60000000000000009
40
-0.40000000000000002
40
-0.20000000000000001
40
0
40
0
40
0
40
0
40
0
40
0
41
1
41
1
41
1
41
1
41
1
41
1
41
1
41
1
41
1
10
90.011842564807012
20
-43.985072900194098
30
0
10
90.043912026887085
20
-43.98186980827024
30
0
10
90.667511095135396
20
-43.923156779972132
30
0
10
91.912812302166202
20
-43.939914454223739
30
0
10
93.827757227425664
20
-44.292251432678647
30
0
10
95.769176882767113
20
-45.003549160479118
30
0
10
97.628263200728725
20
-45.96588043912778
30
0
10
98.836030163095927
20
-46.722638775248356
30
0
10
99.431997074059012
20
-47.129834576059352
30
0
0
SPLINE
5
153
100
AcDbEntity
8
0
100
AcDbSpline
70
4
71
5
72
15
73
9
74
0
42
0.000000001
43
0.0000000001
44
0.0000000001
40
-1
40
-1
40
-1
40
-1
40
-1
40
-1
40
-0.80000000000000004
40
-0.60000000000000009
40
-0.40000000000000002
40
-0.23048492457144729
40
-0.23048492457144729
40
-0.23048492457144729
40
-0.23048492457144729
40
-0.23048492457144729
40
-0.23048492457144729
41
1
41
1
41
1
41
1
41
1
41
1
41
1
41
1
41
1
10
99.431997074058984
20
-47.129834576059352
30
0
10
99.88185585533148
20
-47.437201651852348
30
0
10
100.81784289873855
20
-48.046727232215019
30
0
10
102.33051523668387
20
-48.945343363912919
30
0
10
104.43516979215408
20
-50.021414517836689
30
0
10
106.59518312591476
20
-50.757581606573353
30
0
10
108.13158854414593
20
-50.92203127430048
30
0
10
109.07825094249461
20
-50.807065402840678
30
0
10
109.50000151991846
20
-50.702366539387768
30
0
0
SPLINE
5
154
100
AcDbEntity
8
0
100
AcDbSpline
70
4
71
5
72
13
73
7
74
0
42
0.000000001
43
0.0000000001
44
0.0000000001
40
-0.23048492457131964
40
-0.23048492457131964
40
-0.23048492457131964
40
-0.23048492457131964
40
-0.23048492457131964
40
-0.23048492457131964
40
-0.20000000000000001
40
0
40
0
40
0
40
0
40
0
40
0
41
1
41
1
41
1
41
1
41
1
41
1
41
1
10
109.50000151992002
20
-50.702366539387356
30
0
10
109.57584748529018
20
-50.683537907497239
30
0
10
110.14622596504535
20
-50.528477045968629
30
0
10
110.69278440167459
20
-50.275595616961695
30
0
10
111.21073575596236
20
-49.911835634862513
30
0
10
111.69667033667365
20
-49.426919299773211
30
0
10
112.09420128744279
20
-48.91482945660826
30
0
0
LINE
5
155
100
AcDbEntity
8
0
100
AcDbLine
10
112.09420128744279
20
-48.914829456608267
30
0
11
120.77403343357588
21
-37.73367771531251
31
0
0
SPLINE
5
156
100
AcDbEntity
8
0
100
AcDbSpline
70
4
71
5
72
14
73
8
74
0
42
0.000000001
43
0.0000000001
44
0.0000000001
40
0
40
0
40
0
40
0
40
0
40
0
40
0.20000000000000001
40
0.40000000000000002
40
0.44898385350180597
40
0.44898385350180597
40
0.44898385350180597
40
0.44898385350180597
40
0.44898385350180597
40
0.44898385350180597
41
1
41
1
41
1
41
1
41
1
41
1
41
1
41
1
10
120.77403343357588
20
-37.73367771531251
30
0
10
121.19705924976982
20
-37.188745997542235
30
0
10
121.9071374784275
20
-36.093368338897733
30
0
10
122.39918659344433
20
-34.851490835778122
30
0
10
122.59111474696149
20
-33.601321703501299
30
0
10
122.54208676204662
20
-32.356591403349036
30
0
10
122.44828744542112
20
-31.670849055038843
30
0
10
122.42730856843696
20
-31.53613686509533
30
0
0
SPLINE
5
157
100
AcDbEntity
8
0
100
AcDbSpline
70
4
71
5
72
14
73
8
74
0
42
0.000000001
43
0.0000000001
44
0.0000000001
40
0.44898385350180603
40
0.44898385350180603
40
0.44898385350180603
40
0.44898385350180603
40
0.44898385350180603
40
0.44898385350180603
40
0.60000000000000009
40
0.80000000000000004
40
1
40
1
40
1
40
1
40
1
40
1
41
1
41
1
41
1
41
1
41
1
41
1
41
1
41
1
10
122.42730856843696
20
-31.536136865095322
30
0
10
122.36263115060396
20
-31.120822136725646
30
0
10
122.15650810678119
20
-30.159840939021247
30
0
10
121.64252557718811
20
-28.672777420868005
30
0
10
120.8660244261422
20
-27.241419416552695
30
0
10
119.83431539149936
20
-25.902713919157474
30
0
10
118.94278624032845
20
-24.988876474210961
30
0
10
118.46135150937764
20
-24.546464239728571
30
0
0
LINE
5
158
100
AcDbEntity
8
0
100
AcDbLine
10
118.46135150937766
20
-24.546464239728568
30
0
11
113.25924584845851
21
-19.766013139087217
31
0
0
SPLINE
5
159
100
AcDbEntity
8
0
100
AcDbSpline
70
4
71
5
72
16
73
10
74
0
42
0.000000001
43
0.0000000001
44
0.0000000001
40
0
40
0
40
0
40
0
40
0
40
0
40
0.20000000000000001
40
0.40000000000000002
40
0.60000000000000009
40
0.80000000000000004
40
1
40
1
40
1
40
1
40
1
40
1
41
1
41
1
41
1
41
1
41
1
41
1
41
1
41
1
41
1
41
1
10
113.25924584845851
20
-19.766013139087217
30
0
10
112.63253622959071
20
-19.190101213690141
30
0
10
111.51039234276072
20
-18.007101271266933
30
0
10
110.22064812320284
20
-16.139152302536999
30
0
10
109.1792354022574
20
-13.483182133646249
30
0
10
108.62893857075251
20
-9.9496370132158916
30
0
10
108.5560424782565
20
-6.9736899104072148
30
0
10
108.63903228892973
20
-4.6522193260686393
30
0
10
108.75136970624908
20
-3.0613734767425713
30
0
10
108.82179700736134
20
-2.2551426000506765
30
0
0
LINE
5
160
100
AcDbEntity
8
0
100
AcDbLine
10
108.82179700736134
20
-2.255142600050676
30
0
11
110.30767421611441
21
14.75473944497978
31
0
0
SPLINE
5
161
100
AcDbEntity
8
0
100
AcDbSpline
70
0
71
3
72
8
73
4
74
0
42
0.000000001
43
0.0000000001
44
0.0000000001
40
0
40
0
40
0
40
0
40
0.14534287605048793
40
0.14534287605048793
40
0.14534287605048793
40
0.14534287605048793
10
110.30767421611441
20
14.75473944497978
30
0
10
110.39387066503943
20
15.741490853695206
30
0
10
110.47041479117479
20
16.727227598069891
30
0
10
110.53618936160909
20
17.713103776760889
30
0
0
SPLINE
5
162
100
AcDbEntity
8
0
100
AcDbSpline
70
0
71
3
72
11
73
7
74
0
42
0.000000001
43
0.0000000001
44
0.0000000001
40
0.14534287605048807
40
0.14534287605048807
40
0.14534287605048807
40
0.14534287605048807
40
0.67801271907320482
40
0.67801271907320482
40
0.67801271907320482
40
1
40
1
40
1
40
1
10
110.53618936160908
20
17.713103776760896
30
0
10
110.77724782322886
20
21.326259946594419
30
0
10
110.87365359719959
20
24.941288946576638
30
0
10
110.7704099619605
20
28.615002245336459
30
0
10
110.70800144039863
20
30.835681661426172
30
0
10
110.55886661770171
20
33.084073934275082
30
0
10
110.28879677512566
20
35.334655955741788
30
0
0
LINE
5
163
100
AcDbEntity
8
0
100
AcDbLine
10
110.28879677512566
20
35.334655955741788
30
0
11
107.28879673042218
21
60.334656328270881
31
0
0
SPLINE
5
164
100
AcDbEntity
8
0
100
AcDbSpline
70
0
71
3
72
20
73
16
74
0
42
0.000000001
43
0.0000000001
44
0.0000000001
40
-1
40
-1
40
-1
40
-1
40
-0.99032961220498306
40
-0.99032961220498306
40
-0.99032961220498306
40
-0.80778318786144321
40
-0.80778318786144321
40
-0.80778318786144321
40
-0.61976440982799463
40
-0.61976440982799463
40
-0.61976440982799463
40
-0.36291265934012851
40
-0.36291265934012851
40
-0.36291265934012851
40
-0.11856548987200374
40
-0.11856548987200374
40
-0.11856548987200374
40
-0.11856548987200374
10
107.28879673042218
20
60.334656328270881
30
0
10
107.28236309375367
20
60.388269967175191
30
0
10
107.27535240222905
20
60.442044611941903
30
0
10
107.26773868251709
20
60.495965774327487
30
0
10
107.12401566552612
20
61.513827270534293
30
0
10
106.72768839327497
20
62.607909761929065
30
0
10
106.08619471604439
20
63.49394511380811
30
0
10
105.42547042224997
20
64.406541921736931
30
0
10
104.56928083872641
20
65.049498767945494
30
0
10
103.78695173264596
20
65.462335562459728
30
0
10
102.71821486255193
20
66.026310365646239
30
0
10
101.76394977515996
20
66.247423004044975
30
0
10
100.90177770611399
20
66.399328140391475
30
0
10
100.08157965698366
20
66.543837920930002
30
0
10
99.330903589860384
20
66.614757347023101
30
0
10
98.60855527901208
20
66.645672404905895
30
0
0
SPLINE
5
165
100
AcDbEntity
8
0
100
AcDbSpline
70
0
71
3
72
8
73
4
74
0
42
0.000000001
43
0.0000000001
44
0.0000000001
40
-0.11856548987200365
40
-0.11856548987200365
40
-0.11856548987200365
40
-0.11856548987200365
40
0
40
0
40
0
40
0
10
98.60855527901208
20
66.645672404905909
30
0
10
98.25804750959378
20
66.660673433934704
30
0
10
97.914209560767205
20
66.666255363326457
30
0
10
97.5723350274219
20
66.666255363326457
30
0
0
LINE
5
166
100
AcDbEntity
8
0
100
AcDbLine
10
97.5723350274219
20
66.666255363326457
30
0
11
66.608173770916309
21
66.666255363326457
31
0
0
SPLINE
5
167
100
AcDbEntity
8
0
100
AcDbSpline
70
0
71
3
72
14
73
10
74
0
42
0.000000001
43
0.0000000001
44
0.0000000001
40
0.19862249706136467
40
0.19862249706136467
40
0.19862249706136467
40
0.19862249706136467
40
0.39398882867434026
40
0.39398882867434026
40
0.39398882867434026
40
0.67636728762579179
40
0.67636728762579179
40
0.67636728762579179
40
0.8171783485143963
40
0.8171783485143963
40
0.8171783485143963
40
0.8171783485143963
10
66.608173770916309
20
66.666255363326457
30
0
10
66.538824332110238
20
66.696993105977924
30
0
10
66.340743171879168
20
66.808671691503122
30
0
10
66.013207928288523
20
67.056534445450339
30
0
10
65.539795254908157
20
67.414790148534991
30
0
10
64.853105168336128
20
68.045879327448247
30
0
10
63.806763815897149
20
68.706657226885255
30
0
10
63.284994427270085
20
69.036161245630069
30
0
10
62.649018824957508
20
69.370262949436921
30
0
10
61.921689315053442
20
69.617990077768553
30
0
0
SPLINE
5
168
100
AcDbEntity
8
0
100
AcDbSpline
70
0
71
3
72
11
73
7
74
0
42
0.000000001
43
0.0000000001
44
0.0000000001
40
0.8171783485151245
40
0.8171783485151245
40
0.8171783485151245
40
0.8171783485151245
40
0.8876648911288797
40
0.8876648911288797
40
0.8876648911288797
40
0.89341490714151617
40
0.89341490714151617
40
0.89341490714151617
40
0.89341490714151617
10
61.921689315042144
20
69.61799007777239
30
0
10
61.557606109002549
20
69.741996165628535
30
0
10
61.170631837610401
20
69.844358887545056
30
0
10
60.763632911110783
20
69.913667411785823
30
0
10
60.730431533121191
20
69.919321329674517
30
0
10
60.697136534519984
20
69.924744821135079
30
0
10
60.663756369979026
20
69.929938205334636
30
0
0
SPLINE
5
169
100
AcDbEntity
8
0
100
AcDbSpline
70
0
71
3
72
8
73
4
74
0
42
0.000000001
43
0.0000000001
44
0.0000000001
40
0.89341490714151628
40
0.89341490714151628
40
0.89341490714151628
40
0.89341490714151628
40
1
40
1
40
1
40
1
10
60.663756369979026
20
69.929938205334636
30
0
10
60.045005408345069
20
70.026205300233727
30
0
10
59.396991317124886
20
70.043407235787726
30
0
10
58.773563264411251
20
69.983576839097083
30
0
0
LINE
5
170
100
AcDbEntity
8
0
100
AcDbLine
10
58.773563264411251
20
69.983576839097083
30
0
11
22.264887226523467
21
66.479838820749706
31
0
0
SPLINE
5
171
100
AcDbEntity
8
0
100
AcDbSpline
70
0
71
3
72
8
73
4
74
0
42
0.000000001
43
0.0000000001
44
0.0000000001
40
0
40
0
40
0
40
0
40
0.033623868513582553
40
0.033623868513582553
40
0.033623868513582553
40
0.033623868513582553
10
22.264887226523467
20
66.479838820749706
30
0
10
21.899763582500373
20
66.444797900842516
30
0
10
21.537053213423597
20
66.393514381844184
30
0
10
21.178583456227802
20
66.326953889447722
30
0
0
SPLINE
5
172
100
AcDbEntity
8
0
100
AcDbSpline
70
0
71
3
72
8
73
4
74
0
42
0.000000001
43
0.0000000001
44
0.0000000001
40
0.03362386851367636
40
0.03362386851367636
40
0.03362386851367636
40
0.03362386851367636
40
0.13979111546090431
40
0.13979111546090431
40
0.13979111546090431
40
0.13979111546090431
10
21.178583456224793
20
66.326953889447168
30
0
10
20.046716454664782
20
66.116789368064431
30
0
10
18.95712743805159
20
65.754316720051548
30
0
10
17.967340166086903
20
65.269933415778524
30
0
0
SPLINE
5
173
100
AcDbEntity
8
0
100
AcDbSpline
70
0
71
3
72
20
73
16
74
0
42
0.000000001
43
0.0000000001
44
0.0000000001
40
0.13979111546090439
40
0.13979111546090439
40
0.13979111546090439
40
0.13979111546090439
40
0.17112855423075315
40
0.17112855423075315
40
0.17112855423075315
40
0.38593495030313996
40
0.38593495030313996
40
0.38593495030313996
40
0.63272958992324757
40
0.63272958992324757
40
0.63272958992324757
40
0.82115989298640035
40
0.82115989298640035
40
0.82115989298640035
40
1
40
1
40
1
40
1
10
17.967340166086892
20
65.269933415778524
30
0
10
17.675184167676324
20
65.126957756380122
30
0
10
17.391723458221257
20
64.97336055537771
30
0
10
17.118437371219734
20
64.809923541858652
30
0
10
15.245163684858252
20
63.689624077799067
30
0
10
13.86405047159078
20
62.198938244587758
30
0
10
12.744967313259494
20
60.801058242162149
30
0
10
11.459234067810735
20
59.19501066751485
30
0
10
10.45632219529322
20
57.675880427908353
30
0
10
9.5481530835205568
20
56.624606163257496
30
0
10
8.8547564148273761
20
55.82194720520404
30
0
10
8.2574454782728708
20
55.317303263549277
30
0
10
7.7233657260986019
20
55.031325281366428
30
0
10
7.2164680643109929
20
54.759902202882216
30
0
10
6.7402855796637775
20
54.616718719568809
30
0
10
5.9049452286880832
20
54.616718719568809
30
0
0
LINE
5
174
100
AcDbEntity
8
0
100
AcDbLine
10
5.9049452286880824
20
54.616718719568809
30
0
11
-1.6096292281839908
21
54.616718719568809
31
0
0
LINE
5
175
100
AcDbEntity
8
0
100
AcDbLine
10
-1.6096292281839908
20
54.616718719568809
30
0
11
-1.6091011457224336
21
54.489399891684002
31
0
0
SPLINE
5
176
100
AcDbEntity
8
0
100
AcDbSpline
70
4
71
5
72
16
73
10
74
0
42
0.000000001
43
0.0000000001
44
0.0000000001
40
-0.87150007615642555
40
-0.87150007615642555
40
-0.87150007615642555
40
-0.87150007615642555
40
-0.87150007615642555
40
-0.87150007615642555
40
-0.80000000000000004
40
-0.60000000000000009
40
-0.40000000000000002
40
-0.20000000000000001
40
-0.1845229922154501
40
-0.1845229922154501
40
-0.1845229922154501
40
-0.1845229922154501
40
-0.1845229922154501
40
-0.1845229922154501
41
1
41
1
41
1
41
1
41
1
41
1
41
1
41
1
41
1
41
1
10
-1.6091011457224336
20
54.489399891684002
30
0
10
-1.7284267458114022
20
54.461392139803152
30
0
10
-2.172086544130178
20
54.340906338997939
30
0
10
-2.8811872073545395
20
54.040659171745496
30
0
10
-3.7486732546943475
20
53.4122776080929
30
0
10
-4.4488837327600708
20
52.550830377304962
30
0
10
-4.9131953348281732
20
51.65316392730989
30
0
10
-5.1403688787340753
20
50.996255010492995
30
0
10
-5.2333554894390675
20
50.642216867426704
30
0
10
-5.2399057064676722
20
50.616718719568816
30
0
0
SPLINE
5
177
100
AcDbEntity
8
0
100
AcDbSpline
70
4
71
5
72
12
73
6
74
0
42
0.000000001
43
0.0000000001
44
0.0000000001
40
-0.18452299221544952
40
-0.18452299221544952
40
-0.18452299221544952
40
-0.18452299221544952
40
-0.18452299221544952
40
-0.18452299221544952
40
0
40
0
40
0
40
0
40
0
40
0
41
1
41
1
41
1
41
1
41
1
41
1
10
-5.239905706467674
20
50.616718719568809
30
0
10
-5.3179999778283937
20
50.312719742234975
30
0
10
-5.3777994313024564
20
49.998948753587094
30
0
10
-5.4182880377002993
20
49.675605340779413
30
0
10
-5.438540085152872
20
49.342624497172665
30
0
10
-5.438540085152872
20
49.000000730156898
30
0
0
LINE
5
178
100
AcDbEntity
8
0
100
AcDbLine
10
-5.4385400851528729
20
49.000000730156891
30
0
11
-5.438540085152872
21
-17.725711608306717
31
0
0
SPLINE
5
179
100
AcDbEntity
8
0
100
AcDbSpline
70
4
71
5
72
13
73
7
74
0
42
0.000000001
43
0.0000000001
44
0.0000000001
40
0
40
0
40
0
40
0
40
0
40
0
40
0.20000000000000001
40
0.26608528691014466
40
0.26608528691014466
40
0.26608528691014466
40
0.26608528691014466
40
0.26608528691014466
40
0.26608528691014466
41
1
41
1
41
1
41
1
41
1
41
1
41
1
10
-5.438540085152872
20
-17.725711608306717
30
0
10
-5.438540085152872
20
-18.058465677057892
30
0
10
-5.4231275253107487
20
-18.503991214746282
30
0
10
-5.387222233212321
20
-18.953258126748004
30
0
10
-5.3310058491050052
20
-19.403613952745427
30
0
10
-5.2533345252124057
20
-19.849846779121933
30
0
10
-5.2326972670025622
20
-19.96033057948576
30
0
0
SPLINE
5
180
100
AcDbEntity
8
0
100
AcDbSpline
70
4
71
5
72
15
73
9
74
0
42
0.000000001
43
0.0000000001
44
0.0000000001
40
0.26608528691014477
40
0.26608528691014477
40
0.26608528691014477
40
0.26608528691014477
40
0.26608528691014477
40
0.26608528691014477
40
0.40000000000000002
40
0.60000000000000009
40
0.80000000000000004
40
1
40
1
40
1
40
1
40
1
40
1
41
1
41
1
41
1
41
1
41
1
41
1
41
1
41
1
41
1
10
-5.2326972670025604
20
-19.960330579485763
30
0
10
-5.1908780869498177
20
-20.184214096053022
30
0
10
-5.0728136339396404
20
-20.738951309297153
30
0
10
-4.8271310636704676
20
-21.604593367163673
30
0
10
-4.3484871600064174
20
-22.699011746265519
30
0
10
-3.6047619691447652
20
-23.517740599803059
30
0
10
-2.7427459060674919
20
-23.879818831329416
30
0
10
-2.0381003245191955
20
-23.960330579485767
30
0
10
-1.6532567165823453
20
-23.960330579485767
30
0
0
LINE
5
181
100
AcDbEntity
8
0
100
AcDbLine
10
-1.6532567165823451
20
-23.960330579485767
30
0
11
15.943848552267896
21
-23.960330579485767
31
0
0
SPLINE
5
182
100
AcDbEntity
8
0
100
AcDbSpline
70
4
71
5
72
13
73
7
74
0
42
0.000000001
43
0.0000000001
44
0.0000000001
40
0
40
0
40
0
40
0
40
0
40
0
40
0.20000000000000001
40
0.22737339763155434
40
0.22737339763155434
40
0.22737339763155434
40
0.22737339763155434
40
0.22737339763155434
40
0.22737339763155434
41
1
41
1
41
1
41
1
41
1
41
1
41
1
10
15.943848552267896
20
-23.960330579485767
30
0
10
16.447180889011392
20
-23.960330579485767
30
0
10
16.956722473481513
20
-23.798218369292755
30
0
10
17.395074998039238
20
-23.451996952682283
30
0
10
17.769305977441796
20
-22.942257776972241
30
0
10
18.08908717992189
20
-22.298441746929491
30
0
10
18.126813693055549
20
-22.219042746897543
30
0
0
SPLINE
5
183
100
AcDbEntity
8
0
100
AcDbSpline
70
4
71
5
72
15
73
9
74
0
42
0.000000001
43
0.0000000001
44
0.0000000001
40
0.22737339763157502
40
0.22737339763157502
40
0.22737339763157502
40
0.22737339763157502
40
0.22737339763157502
40
0.22737339763157502
40
0.40000000000000002
40
0.60000000000000009
40
0.80000000000000004
40
1
40
1
40
1
40
1
40
1
40
1
41
1
41
1
41
1
41
1
41
1
41
1
41
1
41
1
41
1
10
18.126813693055695
20
-22.219042746897244
30
0
10
18.364730807662021
20
-21.718323771801277
30
0
10
18.81203281013903
20
-20.475216529683667
30
0
10
19.310786027399768
20
-18.121862469517055
30
0
10
19.756173116684504
20
-14.538486556167776
30
0
10
20.238618740358099
20
-11.55937288120686
30
0
10
20.817473746832359
20
-10.27455668983386
30
0
10
21.32244713560884
20
-9.9872596095748669
30
0
10
21.604735019452388
20
-9.9860703558146291
30
0
0
LINE
5
184
100
AcDbEntity
8
0
100
AcDbLine
10
21.604735019452388
20
-9.9860703558146309
30
0
11
39.979022750417641
21
-9.9086611150131798
31
0
0
SPLINE
5
185
100
AcDbEntity
8
0
100
AcDbSpline
70
4
71
5
72
16
73
10
74
0
42
0.000000001
43
0.0000000001
44
0.0000000001
40
0
40
0
40
0
40
0
40
0
40
0
40
0.20000000000000001
40
0.40000000000000002
40
0.60000000000000009
40
0.80000000000000004
40
1
40
1
40
1
40
1
40
1
40
1
41
1
41
1
41
1
41
1
41
1
41
1
41
1
41
1
41
1
41
1
10
39.979022750417641
20
-9.9086611150131798
30
0
10
40.129349362967055
20
-9.9080278023580135
30
0
10
40.428595821803398
20
-9.8346100794951816
30
0
10
40.873251073763974
20
-9.5082542646685084
30
0
10
41.46064671842317
20
-8.7257085213360508
30
0
10
42.201467889285667
20
-7.5418391952815256
30
0
10
42.81596259030087
20
-6.7581262137696028
30
0
10
43.299026885280711
20
-6.4301160054888316
30
0
10
43.632814081414665
20
-6.3552105087793622
30
0
10
43.802646556979212
20
-6.3537370197087508
30
0
0
LINE
5
186
100
AcDbEntity
8
0
100
AcDbLine
10
43.802646556979219
20
-6.3537370197087508
30
0
11
62.147052255243167
21
-6.2749311797205749
31
0
0
SPLINE
5
187
100
AcDbEntity
8
0
100
AcDbSpline
70
4
71
5
72
15
73
9
74
0
42
0.000000001
43
0.0000000001
44
0.0000000001
40
0
40
0
40
0
40
0
40
0
40
0
40
0.20000000000000001
40
0.40000000000000002
40
0.60000000000000009
40
0.71204107986479037
40
0.71204107986479037
40
0.71204107986479037
40
0.71204107986479037
40
0.71204107986479037
40
0.71204107986479037
41
1
41
1
41
1
41
1
41
1
41
1
41
1
41
1
41
1
10
62.147052255243167
20
-6.2749311797205749
30
0
10
62.960664363189551
20
-6.2714359786960241
30
0
10
64.665892670048237
20
-6.8362777048245
30
0
10
67.457478344793685
20
-9.3972836497170036
30
0
10
71.083940698194766
20
-14.904717825263766
30
0
10
74.730870802266566
20
-21.54755321985521
30
0
10
77.176162965949089
20
-26.057304411203859
30
0
10
78.558163427636586
20
-28.528920071183958
30
0
10
79.038597126366582
20
-29.37316402608073
30
0
0
SPLINE
5
188
100
AcDbEntity
8
0
100
AcDbSpline
70
4
71
5
72
16
73
10
74
0
42
0.000000001
43
0.0000000001
44
0.0000000001
40
0
40
0
40
0
40
0
40
0
40
0
40
0.20000000000000001
40
0.40000000000000002
40
0.60000000000000009
40
0.80000000000000004
40
1
40
1
40
1
40
1
40
1
40
1
41
1
41
1
41
1
41
1
41
1
41
1
41
1
41
1
41
1
41
1
10
72.579348979122869
20
-41.085491565828193
30
0
10
73.220637934927993
20
-40.965356685993655
30
0
10
74.445497185959212
20
-40.61394114813217
30
0
10
76.109734423599619
20
-39.753689479197604
30
0
10
77.985849107587086
20
-38.040143314433024
30
0
10
79.635625505251454
20
-35.324904391768079
30
0
10
80.150940841491249
20
-32.952576230950726
30
0
10
79.886439306767556
20
-31.158595147444615
30
0
10
79.376809645428153
20
-29.967489268966396
30
0
10
79.038597126366568
20
-29.37316402608073
30
0
0
SPLINE
5
189
100
AcDbEntity
8
0
100
AcDbSpline
70
4
71
3
72
8
73
4
74
0
42
0.000000001
43
0.0000000001
44
0.0000000001
40
-1
40
-1
40
-1
40
-1
40
-0.72804416621699397
40
-0.72804416621699397
40
-0.72804416621699397
40
-0.72804416621699397
41
1
41
1
41
1
41
1
10
81.898391892541852
20
1.2635360011469763
30
0
10
81.843411103347592
20
-0.10763444225838359
30
0
10
81.803382660520739
20
-1.1059070844688246
30
0
10
81.690178672013118
20
-1.8926516697010929
30
0
0
LINE
5
190
100
AcDbEntity
8
0
100
AcDbLine
10
81.690178672013133
20
-1.8926516697010927
30
0
11
81.458769358987723
21
-1.9657820517760092
31
0
0
ARC
5
191
100
AcDbEntity
8
0
100
AcDbCircle
10
74.500000998377814
20
-4.0000000596046501
30
0
40
7.2500000000000018
210
0
220
-0
230
1
100
AcDbArc
50
16.294931062379344
51
197.45295181995897
0
SPLINE
5
192
100
AcDbEntity
8
0
100
AcDbSpline
70
0
71
3
72
10
73
6
74
0
42
0.000000001
43
0.0000000001
44
0.0000000001
40
-0.62735392165873516
40
-0.62735392165873516
40
-0.62735392165873516
40
-0.62735392165873516
40
-0.45138375071572645
40
-0.45138375071572645
40
-0.20246655666966909
40
-0.20246655666966909
40
-0.20246655666966909
40
-0.20246655666966909
10
67.583765223857299
20
-6.1744386089131487
30
0
10
67.138060323714569
20
-5.7243237258257125
30
0
10
66.685775412427844
20
-5.3124582936128659
30
0
10
65.579467085958441
20
-4.4358990674428576
30
0
10
64.859894341688943
20
-3.9728142892605072
30
0
10
64.088825698409536
20
-3.6654531875115026
30
0
0
SPLINE
5
193
100
AcDbEntity
8
0
100
AcDbSpline
70
4
71
3
72
8
73
4
74
0
42
0.000000001
43
0.0000000001
44
0.0000000001
40
-0.84848791367127385
40
-0.84848791367127385
40
-0.84848791367127385
40
-0.84848791367127385
40
0
40
0
40
0
40
0
41
1
41
1
41
1
41
1
10
64.088825698409494
20
-3.6654531875114946
30
0
10
62.464801522286386
20
-1.3252722984279099
30
0
10
62.703229834895623
20
-0.73153048422530031
30
0
10
64.2768885335947
20
3.1872447672381754
30
0
0
SPLINE
5
194
100
AcDbEntity
8
0
100
AcDbSpline
70
4
71
3
72
8
73
4
74
0
42
0.000000001
43
0.0000000001
44
0.0000000001
40
-1
40
-1
40
-1
40
-1
40
0
40
0
40
0
40
0
41
1
41
1
41
1
41
1
10
64.2768885335947
20
3.1872447672381754
30
0
10
66.13154297044295
20
7.8057839252065513
30
0
10
66.13154297044295
20
7.8057839252065513
30
0
10
71.720920555331972
20
9.2990521970004352
30
0
0
SPLINE
5
195
100
AcDbEntity
8
0
100
AcDbSpline
70
4
71
3
72
8
73
4
74
0
42
0.000000001
43
0.0000000001
44
0.0000000001
40
-1
40
-1
40
-1
40
-1
40
0
40
0
40
0
40
0
41
1
41
1
41
1
41
1
10
71.720920555331972
20
9.2990521970004352
30
0
10
77.310290800238178
20
10.792311721343413
30
0
10
77.310290800238178
20
10.792311721343413
30
0
10
79.705425387187063
20
8.5488671047341711
30
0
0
SPLINE
5
196
100
AcDbEntity
8
0
100
AcDbSpline
70
4
71
3
72
8
73
4
74
0
42
0.000000001
43
0.0000000001
44
0.0000000001
40
-1
40
-1
40
-1
40
-1
40
0
40
0
40
0
40
0
41
1
41
1
41
1
41
1
10
79.705425387187063
20
8.5488671047341711
30
0
10
82.100559974135976
20
6.3054224881249272
30
0
10
82.100559974135976
20
6.3054224881249272
30
0
10
81.898391892541852
20
1.2635360011469763
30
0
0
SPLINE
5
197
100
AcDbEntity
8
0
100
AcDbSpline
70
4
71
3
72
8
73
4
74
0
42
0.000000001
43
0.0000000001
44
0.0000000001
40
-0.62227758738196914
40
-0.62227758738196914
40
-0.62227758738196914
40
-0.62227758738196914
40
0
40
0
40
0
40
0
41
1
41
1
41
1
41
1
10
93.628093826919084
20
-39.69499624909097
30
0
10
94.356500090708678
20
-38.239759800884258
30
0
10
95.92491920877103
20
-37.770356251259287
30
0
10
100.07722541477955
20
-36.527635316667443
30
0
0
SPLINE
5
198
100
AcDbEntity
8
0
100
AcDbSpline
70
4
71
3
72
8
73
4
74
0
42
0.000000001
43
0.0000000001
44
0.0000000001
40
-1
40
-1
40
-1
40
-1
40
-0.7970545869007597
40
-0.7970545869007597
40
-0.7970545869007597
40
-0.7970545869007597
41
1
41
1
41
1
41
1
10
100.07722541477955
20
-36.527635316667443
30
0
10
101.43143025460259
20
-36.122339432310007
30
0
10
102.51080543378674
20
-35.799296488630915
30
0
10
103.39165156073571
20
-35.573865688876708
30
0
0
ARC
5
199
100
AcDbEntity
8
0
100
AcDbCircle
10
110.50000153481959
20
-37.000000551342993
30
0
40
7.2500000000000124
210
0
220
0
230
1
100
AcDbArc
50
168.65546748825076
51
269.90964386773447
0
SPLINE
5
200
100
AcDbEntity
8
0
100
AcDbSpline
70
4
71
3
72
8
73
4
74
0
42
0.000000001
43
0.0000000001
44
0.0000000001
40
-0.16976713745994673
40
-0.16976713745994673
40
-0.16976713745994673
40
-0.16976713745994673
40
0
40
0
40
0
40
0
41
1
41
1
41
1
41
1
10
110.48856820250498
20
-44.249991536089922
30
0
10
110.26328134528946
20
-44.691829361202338
30
0
10
109.97745613168883
20
-45.201416303868683
30
0
10
109.63318499223264
20
-45.815204273074443
30
0
0
SPLINE
5
201
100
AcDbEntity
8
0
100
AcDbSpline
70
4
71
3
72
8
73
4
74
0
42
0.000000001
43
0.0000000001
44
0.0000000001
40
-1
40
-1
40
-1
40
-1
40
-0.51286733094421566
40
-0.51286733094421566
40
-0.51286733094421566
40
-0.51286733094421566
41
1
41
1
41
1
41
1
10
109.63318499223264
20
-45.815204273074443
30
0
10
108.64532761564385
20
-47.576417757304093
30
0
10
108.13868783955922
20
-48.47968661618394
30
0
10
106.99828462711793
20
-48.930177742325313
30
0
0
SPLINE
5
202
100
AcDbEntity
8
0
100
AcDbSpline
70
0
71
3
72
10
73
6
74
0
42
0.000000001
43
0.0000000001
44
0.0000000001
40
-0.96243672704796224
40
-0.96243672704796224
40
-0.96243672704796224
40
-0.96243672704796224
40
-0.70683393170515407
40
-0.70683393170515407
40
0
40
0
40
0
40
0
10
106.99828462711791
20
-48.930177742325313
30
0
10
106.45168996062692
20
-48.772295039574175
30
0
10
105.88309068112881
20
-48.501918883704072
30
0
10
103.66369332755781
20
-47.189980344130014
30
0
10
101.94445771530215
20
-45.671335947496829
30
0
10
100.03114352233848
20
-44.296382215264757
30
0
0
LINE
5
203
100
AcDbEntity
8
0
100
AcDbLine
10
100.03114352233848
20
-44.296382215264757
30
0
11
93.628093826919084
21
-39.69499624909097
31
0
0
SPLINE
5
204
100
AcDbEntity
8
0
100
AcDbSpline
70
4
71
3
72
8
73
4
74
0
42
0.000000001
43
0.0000000001
44
0.0000000001
40
-1
40
-1
40
-1
40
-1
40
-0.10517431003580606
40
-0.10517431003580606
40
-0.10517431003580606
40
-0.10517431003580606
41
1
41
1
41
1
41
1
10
66.21533557298801
20
56.100459184645132
30
0
10
66.509556945116486
20
60.249733560613436
30
0
10
66.540501474927893
20
60.686130630255164
30
0
10
71.343999462370846
20
62.666255363326457
30
0
0
LINE
5
205
100
AcDbEntity
8
0
100
AcDbLine
10
71.343999462370846
20
62.666255363326457
30
0
11
84.703716918711805
21
62.666255363326457
31
0
0
SPLINE
5
206
100
AcDbEntity
8
0
100
AcDbSpline
70
4
71
3
72
8
73
4
74
0
42
0.000000001
43
0.0000000001
44
0.0000000001
40
-0.98848772132213147
40
-0.98848772132213147
40
-0.98848772132213147
40
-0.98848772132213147
40
0
40
0
40
0
40
0
41
1
41
1
41
1
41
1
10
84.703716918711791
20
62.666255363326457
30
0
10
89.14960901760594
20
59.424458464009895
30
0
10
89.132519362145359
20
59.3669585721929
30
0
10
87.648047352843093
20
54.372300831016688
30
0
0
SPLINE
5
207
100
AcDbEntity
8
0
100
AcDbSpline
70
4
71
3
72
8
73
4
74
0
42
0.000000001
43
0.0000000001
44
0.0000000001
40
-1
40
-1
40
-1
40
-1
40
0
40
0
40
0
40
0
41
1
41
1
41
1
41
1
10
87.648047352843093
20
54.372300831016688
30
0
10
86.146290677748453
20
49.319473885751783
30
0
10
86.146290677748453
20
49.319473885751783
30
0
10
78.555669409888168
20
47.230228207882377
30
0
0
SPLINE
5
208
100
AcDbEntity
8
0
100
AcDbSpline
70
4
71
3
72
8
73
4
74
0
42
0.000000001
43
0.0000000001
44
0.0000000001
40
-1
40
-1
40
-1
40
-1
40
0
40
0
40
0
40
0
41
1
41
1
41
1
41
1
10
78.555669409888168
20
47.230228207882377
30
0
10
70.965056537611787
20
45.140979211888549
30
0
10
70.965056537611787
20
45.140979211888549
30
0
10
68.42579464282457
20
48.302236268051999
30
0
0
SPLINE
5
209
100
AcDbEntity
8
0
100
AcDbSpline
70
4
71
3
72
8
73
4
74
0
42
0.000000001
43
0.0000000001
44
0.0000000001
40
-1
40
-1
40
-1
40
-1
40
0
40
0
40
0
40
0
41
1
41
1
41
1
41
1
10
68.42579464282457
20
48.302236268051999
30
0
10
65.886532396170338
20
51.463497346073851
30
0
10
65.886532396170338
20
51.463497346073851
30
0
10
66.21533557298801
20
56.100459184645132
30
0
0
SPLINE
5
210
100
AcDbEntity
8
0
100
AcDbSpline
70
0
71
3
72
8
73
4
74
0
42
0.000000001
43
0.0000000001
44
0.0000000001
40
-3.3318470490355709
40
-3.3318470490355709
40
-3.3318470490355709
40
-3.3318470490355709
40
-2.9040306454170808
40
-2.9040306454170808
40
-2.9040306454170808
40
-2.9040306454170808
10
85.089797837834283
20
-33.146660470020279
30
0
10
84.472808757456164
20
-32.686801464522844
30
0
10
83.762381187262505
20
-31.83352047829052
30
0
10
82.966032305279157
20
-30.67517039152515
30
0
0
SPLINE
5
211
100
AcDbEntity
8
0
100
AcDbSpline
70
4
71
3
72
8
73
4
74
0
42
0.000000001
43
0.0000000001
44
0.0000000001
40
-0.8561197289374608
40
-0.8561197289374608
40
-0.8561197289374608
40
-0.8561197289374608
40
-0.019972545683397094
40
-0.019972545683397094
40
-0.019972545683397094
40
-0.019972545683397094
41
1
41
1
41
1
41
1
10
82.966032305279143
20
-30.675170391525146
30
0
10
84.06913060532986
20
-30.95595725083097
30
0
10
84.410235977758731
20
-31.388526705613646
30
0
10
86.566314902715717
20
-34.3004076381931
30
0
0
SPLINE
5
212
100
AcDbEntity
8
0
100
AcDbSpline
70
0
71
3
72
8
73
4
74
0
42
0.000000001
43
0.0000000001
44
0.0000000001
40
-0.18711515345294702
40
-0.18711515345294702
40
-0.18711515345294702
40
-0.18711515345294702
40
0
40
0
40
0
40
0
10
86.56631490271576
20
-34.300407638193136
30
0
10
86.073462941783404
20
-33.90938799704189
30
0
10
85.585118109496307
20
-33.525713166664325
30
0
10
85.089797837834297
20
-33.146660470020294
30
0
0
CIRCLE
5
213
100
AcDbEntity
8
0
100
AcDbCircle
10
16.500000134110472
20
53.000000789761629
30
0
40
2.000000000000004
210
0
220
0
230
1
0
SPLINE
5
214
100
AcDbEntity
8
0
100
AcDbSpline
70
4
71
3
72
8
73
4
74
0
42
0.000000001
43
0.0000000001
44
0.0000000001
40
-1
40
-1
40
-1
40
-1
40
0
40
0
40
0
40
0
41
1
41
1
41
1
41
1
10
-1.7197129363154928
20
10.544582462134244
30
0
10
2.3395299914459344
20
8.7922892066808966
30
0
10
2.3395299914459344
20
8.7922892066808966
30
0
10
3.9430441129443343
20
2.5131112626144314
30
0
0
SPLINE
5
215
100
AcDbEntity
8
0
100
AcDbSpline
70
4
71
3
72
8
73
4
74
0
42
0.000000001
43
0.0000000001
44
0.0000000001
40
-1
40
-1
40
-1
40
-1
40
-0.98081681097683437
40
-0.98081681097683437
40
-0.98081681097683437
40
-0.98081681097683437
41
1
41
1
41
1
41
1
10
3.9430441129443343
20
2.5131112626144314
30
0
10
3.9738043188300716
20
2.3926565782035851
30
0
10
4.0039744458719113
20
2.2745125987725183
30
0
10
4.0335443518447738
20
2.1586110914190582
30
0
0
ARC
5
216
100
AcDbEntity
8
0
100
AcDbCircle
10
1.8533037329864488
20
-4.7557978380470232
30
0
40
7.2500000000000018
210
0
220
-0
230
1
100
AcDbArc
50
72.49897602815993
51
126.29753161356993
0
LINE
5
217
100
AcDbEntity
8
0
100
AcDbLine
10
-2.4385400851528747
20
1.087367112619642
30
0
11
-2.4385400851528747
21
10.853250841521497
31
0
0
SPLINE
5
218
100
AcDbEntity
8
0
100
AcDbSpline
70
4
71
3
72
8
73
4
74
0
42
0.000000001
43
0.0000000001
44
0.0000000001
40
-0.062773878280593665
40
-0.062773878280593665
40
-0.062773878280593665
40
-0.062773878280593665
40
0
40
0
40
0
40
0
41
1
41
1
41
1
41
1
10
-2.4385400851528747
20
10.853250841521497
30
0
10
-2.2133460897560173
20
10.757673932843296
30
0
10
-1.9745273577741485
20
10.654580705663978
30
0
10
-1.7197129363154928
20
10.544582462134244
30
0
0
SPLINE
5
219
100
AcDbEntity
8
0
100
AcDbSpline
70
4
71
3
72
8
73
4
74
0
42
0.000000001
43
0.0000000001
44
0.0000000001
40
-1
40
-1
40
-1
40
-1
40
-0.7020148385547379
40
-0.7020148385547379
40
-0.7020148385547379
40
-0.7020148385547379
41
1
41
1
41
1
41
1
10
25.534162141846465
20
59.994271672507615
30
0
10
23.852953579170272
20
59.419978329144811
30
0
10
22.6727202214663
20
59.016815880420936
30
0
10
21.694143344968992
20
58.829036769546157
30
0
0
SPLINE
5
220
100
AcDbEntity
8
0
100
AcDbSpline
70
0
71
3
72
14
73
10
74
0
42
0.000000001
43
0.0000000001
44
0.0000000001
40
-0.62476991008049032
40
-0.62476991008049032
40
-0.62476991008049032
40
-0.62476991008049032
40
-0.52183356803911851
40
-0.52183356803911851
40
-0.33887834962114116
40
-0.33887834962114116
40
-0.18586860289315577
40
-0.18586860289315577
40
0
40
0
40
0
40
0
10
21.694143344968992
20
58.829036769546136
30
0
10
21.790403544095142
20
59.166375940467248
30
0
10
21.904477177029086
20
59.496119624780661
30
0
10
22.27475369711285
20
60.372006181185242
30
0
10
22.58295770325514
20
60.911768994721797
30
0
10
23.318583742231105
20
61.756597403453206
30
0
10
23.70711450217545
20
62.073237711932322
30
0
10
24.70693582416618
20
62.602109954242557
30
0
10
25.302184744231006
20
62.752950029350117
30
0
10
25.918913154228367
20
62.812137461259724
30
0
0
LINE
5
221
100
AcDbEntity
8
0
100
AcDbLine
10
25.918913154228363
20
62.812137461259738
30
0
11
31.772127976346418
21
63.373870548499802
31
0
0
SPLINE
5
222
100
AcDbEntity
8
0
100
AcDbSpline
70
4
71
3
72
8
73
4
74
0
42
0.000000001
43
0.0000000001
44
0.0000000001
40
-0.18803204540800275
40
-0.18803204540800275
40
-0.18803204540800275
40
-0.18803204540800275
40
0
40
0
40
0
40
0
41
1
41
1
41
1
41
1
10
31.772127976346422
20
63.373870548499802
30
0
10
31.732864573871762
20
63.199085329648099
30
0
10
31.669461721906988
20
63.053600060015199
30
0
10
31.591376310276882
20
62.874423937595424
30
0
0
SPLINE
5
223
100
AcDbEntity
8
0
100
AcDbSpline
70
4
71
3
72
8
73
4
74
0
42
0.000000001
43
0.0000000001
44
0.0000000001
40
-1
40
-1
40
-1
40
-1
40
0
40
0
40
0
40
0
41
1
41
1
41
1
41
1
10
31.591376310276882
20
62.874423937595424
30
0
10
31.176090590331572
20
61.921527211943484
30
0
10
31.176090590331572
20
61.921527211943484
30
0
10
25.534162141846465
20
59.994271672507615
30
0
0
SPLINE
5
224
100
AcDbEntity
8
0
100
AcDbSpline
70
0
71
3
72
12
73
8
74
0
42
0.000000001
43
0.0000000001
44
0.0000000001
40
-1.191899602214231
40
-1.191899602214231
40
-1.191899602214231
40
-1.191899602214231
40
-0.90739589565669465
40
-0.90739589565669465
40
-0.5681325081408648
40
-0.5681325081408648
40
-0.039814463693726522
40
-0.039814463693726522
40
-0.039814463693726522
40
-0.039814463693726522
10
104.78107510079599
20
-5.121098375265384
30
0
10
104.8643433447113
20
-6.721834188741429
30
0
10
105.11107185089119
20
-8.3116042694031442
30
0
10
105.94626785532509
20
-11.697832095359455
30
0
10
106.60663272815164
20
-13.534829974782685
30
0
10
108.77107721402849
20
-17.884155814044082
30
0
10
110.28275895718302
20
-19.689744462646892
30
0
10
111.60935633447681
20
-20.960377295576617
30
0
0
SPLINE
5
225
100
AcDbEntity
8
0
100
AcDbSpline
70
4
71
3
72
8
73
4
74
0
42
0.000000001
43
0.0000000001
44
0.0000000001
40
-0.89503581301719448
40
-0.89503581301719448
40
-0.89503581301719448
40
-0.89503581301719448
40
0
40
0
40
0
40
0
41
1
41
1
41
1
41
1
10
111.60935633447684
20
-20.960377295576631
30
0
10
109.28790404735548
20
-22.079620468814021
30
0
10
108.82718249473848
20
-21.729567976058707
30
0
10
104.4378610903583
20
-18.39459723205956
30
0
0
SPLINE
5
226
100
AcDbEntity
8
0
100
AcDbSpline
70
4
71
3
72
8
73
4
74
0
42
0.000000001
43
0.0000000001
44
0.0000000001
40
-1
40
-1
40
-1
40
-1
40
0
40
0
40
0
40
0
41
1
41
1
41
1
41
1
10
104.4378610903583
20
-18.39459723205956
30
0
10
99.533787599060048
20
-14.668522034289715
30
0
10
99.533787599060048
20
-14.668522034289715
30
0
10
99.327260320165621
20
-13.464192181481774
30
0
0
SPLINE
5
227
100
AcDbEntity
8
0
100
AcDbSpline
70
4
71
3
72
8
73
4
74
0
42
0.000000001
43
0.0000000001
44
0.0000000001
40
-1
40
-1
40
-1
40
-1
40
0
40
0
40
0
40
0
41
1
41
1
41
1
41
1
10
99.327260320165621
20
-13.464192181481774
30
0
10
99.120733745005239
20
-12.259870372390679
30
0
10
99.120733745005239
20
-12.259870372390679
30
0
10
103.19342480482611
20
-7.1166068178262165
30
0
0
SPLINE
5
228
100
AcDbEntity
8
0
100
AcDbSpline
70
4
71
3
72
8
73
4
74
0
42
0.000000001
43
0.0000000001
44
0.0000000001
40
-1
40
-1
40
-1
40
-1
40
-0.84900987202344447
40
-0.84900987202344447
40
-0.84900987202344447
40
-0.84900987202344447
41
1
41
1
41
1
41
1
10
103.19342480482611
20
-7.1166068178262165
30
0
10
103.80836094915743
20
-6.340024795505375
30
0
10
104.33044780635876
20
-5.6806989921190372
30
0
10
104.78107510079602
20
-5.1210983752653592
30
0
0
CIRCLE
5
229
100
AcDbEntity
8
0
100
AcDbCircle
10
73.500000983476653
20
-46.000000685453408
30
0
40
2.0000000000000018
210
0
220
0
230
1
0
LINE
5
230
100
AcDbEntity
8
0
100
AcDbLine
10
15.943848552267891
20
-19.96033057948577
30
0
11
11.194096701256854
21
-19.96033057948577
31
0
0
SPLINE
5
231
100
AcDbEntity
8
0
100
AcDbSpline
70
0
71
3
72
14
73
10
74
0
42
0.000000001
43
0.0000000001
44
0.0000000001
40
-1.0241588645393509
40
-1.0241588645393509
40
-1.0241588645393509
40
-1.0241588645393509
40
-0.79980421452939721
40
-0.79980421452939721
40
-0.5928152839558829
40
-0.5928152839558829
40
-0.27829955991983779
40
-0.27829955991983779
40
0
40
0
40
0
40
0
10
11.194096701256854
20
-19.96033057948577
30
0
10
10.69466933309293
20
-19.96033057948577
30
0
10
10.211736613537427
20
-19.888518559551908
30
0
10
9.3065920022484541
20
-19.57292169519463
30
0
10
8.906716895389998
20
-19.350751211719086
30
0
10
7.9895018026250577
20
-18.648704159159298
30
0
10
7.5225952940598972
20
-18.09814892939313
30
0
10
6.8657383848350975
20
-16.957931459046474
30
0
10
6.5760978080876171
20
-16.264747325791582
30
0
10
6.4591105859600626
20
-15.344488279297519
30
0
0
ARC
5
232
100
AcDbEntity
8
0
100
AcDbCircle
10
1.4990288303916943
20
-15.975034850200752
30
0
40
5.0000000000000009
210
0
220
-0
230
1
100
AcDbArc
50
7.2448217788398646
51
51.171975744488314
0
SPLINE
5
233
100
AcDbEntity
8
0
100
AcDbSpline
70
4
71
3
72
8
73
4
74
0
42
0.000000001
43
0.0000000001
44
0.0000000001
40
-0.19881854456791886
40
-0.19881854456791886
40
-0.19881854456791886
40
-0.19881854456791886
40
-0.065558090599015628
40
-0.065558090599015628
40
-0.065558090599015628
40
-0.065558090599015628
41
1
41
1
41
1
41
1
10
4.6339534438809924
20
-12.079877899866268
30
0
10
4.8800769653934628
20
-11.752276614225906
30
0
10
5.1787941385093355
20
-11.401914023577424
30
0
10
5.531040328825096
20
-11.003737781070576
30
0
0
ARC
5
234
100
AcDbEntity
8
0
100
AcDbCircle
10
1.8533037329864488
20
-4.7557978380470232
30
0
40
7.25
210
-0
220
0
230
1
100
AcDbArc
50
300.48242311532408
51
331.81676779684653
0
SPLINE
5
235
100
AcDbEntity
8
0
100
AcDbSpline
70
4
71
3
72
8
73
4
74
0
42
0.000000001
43
0.0000000001
44
0.0000000001
40
-0.70021980670740436
40
-0.70021980670740436
40
-0.70021980670740436
40
-0.70021980670740436
40
0
40
0
40
0
40
0
41
1
41
1
41
1
41
1
10
8.2437561148728058
20
-8.1799208432620869
30
0
10
9.6552639737449475
20
-7.0765022806933526
30
0
10
10.881936587848489
20
-7.274116902297763
30
0
10
14.973843396735841
20
-7.9333152950732666
30
0
0
SPLINE
5
236
100
AcDbEntity
8
0
100
AcDbSpline
70
4
71
3
72
8
73
4
74
0
42
0.000000001
43
0.0000000001
44
0.0000000001
40
-1
40
-1
40
-1
40
-1
40
-0.65216412363200649
40
-0.65216412363200649
40
-0.65216412363200649
40
-0.65216412363200649
41
1
41
1
41
1
41
1
10
14.973843396735841
20
-7.9333152950732666
30
0
10
17.006505411597274
20
-8.2607767278946458
30
0
10
18.33213465315945
20
-8.4743353262538808
30
0
10
19.288733661641956
20
-8.772588304211677
30
0
0
SPLINE
5
237
100
AcDbEntity
8
0
100
AcDbSpline
70
0
71
3
72
20
73
16
74
0
42
0.000000001
43
0.0000000001
44
0.0000000001
40
-0.86990355603983216
40
-0.86990355603983216
40
-0.86990355603983216
40
-0.86990355603983216
40
-0.84921169358964965
40
-0.84921169358964965
40
-0.52866335614552606
40
-0.52866335614552606
40
-0.21943086261617387
40
-0.21943086261617387
40
-0.11277002515612654
40
-0.11277002515612654
40
-0.062762828138360136
40
-0.062762828138360136
40
-0.030656809215887062
40
-0.030656809215887062
40
0
40
0
40
0
40
0
10
19.28873366164196
20
-8.772588304211677
30
0
10
19.252280889880883
20
-8.8496006378926957
30
0
10
19.21673479997358
20
-8.928767871227878
30
0
10
18.644737991433949
20
-10.268821762880178
30
0
10
18.335578024324228
20
-11.978967059641706
30
0
10
17.807713942806537
20
-15.370301557116928
30
0
10
17.589499861766996
20
-17.0296818483212
30
0
10
17.13173647517262
20
-18.631557596024138
30
0
10
16.990247926523786
20
-19.021744153513545
30
0
10
16.72858996358779
20
-19.471778717436191
30
0
10
16.62677448261902
20
-19.614445077735997
30
0
10
16.425321305092929
20
-19.799561264710441
30
0
10
16.337232534022437
20
-19.860329367261546
30
0
10
16.144218633814635
20
-19.941062975698202
30
0
10
16.046037916320849
20
-19.96033057948577
30
0
10
15.943848552267891
20
-19.96033057948577
30
0
0
LINE
5
238
100
AcDbEntity
8
0
100
AcDbLine
10
114.82573882557529
20
-23.921753109310654
30
0
11
117.10807978241732
21
-26.019099847409532
31
0
0
SPLINE
5
239
100
AcDbEntity
8
0
100
AcDbSpline
70
0
71
3
72
16
73
12
74
0
42
0.000000001
43
0.0000000001
44
0.0000000001
40
-1.1888676610730142
40
-1.1888676610730142
40
-1.1888676610730142
40
-1.1888676610730142
40
-0.94782392467769616
40
-0.94782392467769616
40
-0.72206509388958473
40
-0.72206509388958473
40
-0.46744862322475156
40
-0.46744862322475156
40
-0.25691807218029461
40
-0.25691807218029461
40
0
40
0
40
0
40
0
10
117.10807978241732
20
-26.019099847409532
30
0
10
117.70242909493896
20
-26.565274417940586
30
0
10
118.24099017690833
20
-27.157949282390476
30
0
10
119.16139407081982
20
-28.413373116596127
30
0
10
119.54952840234206
20
-29.067966131903429
30
0
10
120.19950050717681
20
-30.526266957040754
30
0
10
120.44689870128634
20
-31.357581992657675
30
0
10
120.59276046619237
20
-32.899069381252055
30
0
10
120.54284808830278
20
-33.588406484385736
30
0
10
120.12960865785432
20
-35.092338442515654
30
0
10
119.719339765402
20
-35.830776977021131
30
0
10
119.19419169698189
20
-36.507260132547287
30
0
0
LINE
5
240
100
AcDbEntity
8
0
100
AcDbLine
10
119.19419169698189
20
-36.507260132547287
30
0
11
117.57191610008138
21
-38.59703667542972
31
0
0
ARC
5
241
100
AcDbEntity
8
0
100
AcDbCircle
10
110.50000153481959
20
-37.000000551342993
30
0
40
7.25
210
-0
220
0
230
1
100
AcDbArc
50
-12.725528884564113
51
89.130140646524154
0
SPLINE
5
242
100
AcDbEntity
8
0
100
AcDbSpline
70
4
71
3
72
8
73
4
74
0
42
0.000000001
43
0.0000000001
44
0.0000000001
40
-0.066299317921122897
40
-0.066299317921122897
40
-0.066299317921122897
40
-0.066299317921122897
40
0
40
0
40
0
40
0
41
1
41
1
41
1
41
1
10
110.61006615223539
20
-29.75083606293515
30
0
10
110.64694860614708
20
-29.551065218629713
30
0
10
110.68721639776771
20
-29.338306085827966
30
0
10
110.73034348591656
20
-29.110439557629611
30
0
0
SPLINE
5
243
100
AcDbEntity
8
0
100
AcDbSpline
70
4
71
3
72
8
73
4
74
0
42
0.000000001
43
0.0000000001
44
0.0000000001
40
-1
40
-1
40
-1
40
-1
40
0
40
0
40
0
40
0
41
1
41
1
41
1
41
1
10
110.73034348591656
20
-29.110439557629611
30
0
10
111.38083748028222
20
-25.673494925847265
30
0
10
111.38083748028222
20
-25.673494925847265
30
0
10
114.55110542840768
20
-24.061248618009458
30
0
0
SPLINE
5
244
100
AcDbEntity
8
0
100
AcDbSpline
70
4
71
3
72
8
73
4
74
0
42
0.000000001
43
0.0000000001
44
0.0000000001
40
-1
40
-1
40
-1
40
-1
40
-0.97026488340138728
40
-0.97026488340138728
40
-0.97026488340138728
40
-0.97026488340138728
41
1
41
1
41
1
41
1
10
114.55110542840768
20
-24.061248618009458
30
0
10
114.64537383508446
20
-24.013308275597414
30
0
10
114.73683915969715
20
-23.966793444856769
30
0
10
114.82573882557529
20
-23.921753109310654
30
0
0
SPLINE
5
245
100
AcDbEntity
8
0
100
AcDbSpline
70
4
71
3
72
8
73
4
74
0
42
0.000000001
43
0.0000000001
44
0.0000000001
40
-1
40
-1
40
-1
40
-1
40
0
40
0
40
0
40
0
41
1
41
1
41
1
41
1
10
106.70175277887856
20
-28.210864001891757
30
0
10
106.05125808077887
20
-31.647800589957257
30
0
10
106.05125808077887
20
-31.647800589957257
30
0
10
99.378502561046943
20
-33.644852966245132
30
0
0
SPLINE
5
246
100
AcDbEntity
8
0
100
AcDbSpline
70
4
71
3
72
8
73
4
74
0
42
0.000000001
43
0.0000000001
44
0.0000000001
40
-1
40
-1
40
-1
40
-1
40
0
40
0
40
0
40
0
41
1
41
1
41
1
41
1
10
99.378502561046943
20
-33.644852966245132
30
0
10
92.705747041314993
20
-35.641905342533015
30
0
10
92.705747041314993
20
-35.641905342533015
30
0
10
90.021703309627682
20
-32.016164997540301
30
0
0
SPLINE
5
247
100
AcDbEntity
8
0
100
AcDbSpline
70
4
71
3
72
8
73
4
74
0
42
0.000000001
43
0.0000000001
44
0.0000000001
40
-1
40
-1
40
-1
40
-1
40
0
40
0
40
0
40
0
41
1
41
1
41
1
41
1
10
90.021703309627682
20
-32.016164997540301
30
0
10
87.337660281674403
20
-28.390432696264458
30
0
10
87.337660281674403
20
-28.390432696264458
30
0
10
92.440880036161076
20
-22.856100835417084
30
0
0
SPLINE
5
248
100
AcDbEntity
8
0
100
AcDbSpline
70
4
71
3
72
8
73
4
74
0
42
0.000000001
43
0.0000000001
44
0.0000000001
40
-1
40
-1
40
-1
40
-1
40
0
40
0
40
0
40
0
41
1
41
1
41
1
41
1
10
92.440880036161076
20
-22.856100835417084
30
0
10
97.544099790647749
20
-17.321768974569693
30
0
10
97.544099790647749
20
-17.321768974569693
30
0
10
102.44817328194598
20
-21.047844172339545
30
0
0
SPLINE
5
249
100
AcDbEntity
8
0
100
AcDbSpline
70
4
71
3
72
8
73
4
74
0
42
0.000000001
43
0.0000000001
44
0.0000000001
40
-1
40
-1
40
-1
40
-1
40
0
40
0
40
0
40
0
41
1
41
1
41
1
41
1
10
102.44817328194598
20
-21.047844172339545
30
0
10
107.35224345511982
20
-24.773927765693283
30
0
10
107.35224345511982
20
-24.773927765693283
30
0
10
106.70175277887856
20
-28.210864001891757
30
0
0
SPLINE
5
250
100
AcDbEntity
8
0
100
AcDbSpline
70
0
71
3
72
10
73
6
74
0
42
0.000000001
43
0.0000000001
44
0.0000000001
40
-1.4359824060947792
40
-1.4359824060947792
40
-1.4359824060947792
40
-1.4359824060947792
40
-0.71493912986905994
40
-0.71493912986905994
40
-0.46317452329339986
40
-0.46317452329339986
40
-0.46317452329339986
40
-0.46317452329339986
10
106.31728942117797
20
34.858075073268054
30
0
10
106.61092220338591
20
32.411135221535197
30
0
10
106.75024079620553
20
30.006185039247878
30
0
10
106.80782012532333
20
26.739317093086754
30
0
10
106.81107857050608
20
25.881351878015401
30
0
10
106.80407645388884
20
25.020583520212764
30
0
0
SPLINE
5
251
100
AcDbEntity
8
0
100
AcDbSpline
70
4
71
3
72
8
73
4
74
0
42
0.000000001
43
0.0000000001
44
0.0000000001
40
-0.6676092353663331
40
-0.6676092353663331
40
-0.6676092353663331
40
-0.6676092353663331
40
0
40
0
40
0
40
0
41
1
41
1
41
1
41
1
10
106.80407645388883
20
25.020583520212774
30
0
10
104.24308771317683
20
25.700258910882351
30
0
10
103.77723206190839
20
26.523859615683104
30
0
10
102.37570199297917
20
29.001668244657665
30
0
0
SPLINE
5
252
100
AcDbEntity
8
0
100
AcDbSpline
70
4
71
3
72
8
73
4
74
0
42
0.000000001
43
0.0000000001
44
0.0000000001
40
-1
40
-1
40
-1
40
-1
40
0
40
0
40
0
40
0
41
1
41
1
41
1
41
1
10
102.37570199297917
20
29.001668244657665
30
0
10
100.27637135942321
20
32.713129347611726
30
0
10
100.27637135942321
20
32.713129347611726
30
0
10
100.30855152391243
20
32.941008265213732
30
0
0
SPLINE
5
253
100
AcDbEntity
8
0
100
AcDbSpline
70
4
71
3
72
8
73
4
74
0
42
0.000000001
43
0.0000000001
44
0.0000000001
40
-1
40
-1
40
-1
40
-1
40
-0.083883070770714718
40
-0.083883070770714718
40
-0.083883070770714718
40
-0.083883070770714718
41
1
41
1
41
1
41
1
10
100.30855152391243
20
32.941008265213732
30
0
10
100.33803231738642
20
33.149771999443367
30
0
10
100.34050525687177
20
33.167283742536107
30
0
10
106.01175343372815
20
37.404208302016585
30
0
0
LINE
5
254
100
AcDbEntity
8
0
100
AcDbLine
10
106.01175343372815
20
37.404208302016585
30
0
11
106.31728942117797
21
34.858075073268054
31
0
0
SPLINE
5
255
100
AcDbEntity
8
0
100
AcDbSpline
70
4
71
3
72
8
73
4
74
0
42
0.000000001
43
0.0000000001
44
0.0000000001
40
-1
40
-1
40
-1
40
-1
40
0
40
0
40
0
40
0
41
1
41
1
41
1
41
1
10
15.867003494313341
20
46.720178069091389
30
0
10
14.16262659507186
20
38.887853450243121
30
0
10
14.16262659507186
20
38.887853450243121
30
0
10
6.5168186586555361
20
39.306543733772678
30
0
0
SPLINE
5
256
100
AcDbEntity
8
0
100
AcDbSpline
70
4
71
3
72
8
73
4
74
0
42
0.000000001
43
0.0000000001
44
0.0000000001
40
-1
40
-1
40
-1
40
-1
40
-0.61052872628930965
40
-0.61052872628930965
40
-0.61052872628930965
40
-0.61052872628930965
41
1
41
1
41
1
41
1
10
6.5168186586555361
20
39.306543733772678
30
0
10
3.5389959660700709
20
39.469613138187547
30
0
10
1.7209496704504645
20
39.569171693961714
30
0
10
0.52786149837782737
20
40.050373480087572
30
0
0
ARC
5
257
100
AcDbEntity
8
0
100
AcDbCircle
10
2.441785250802968
20
47.043183778522881
30
0
40
7.2499999999999973
210
0
220
0
230
1
100
AcDbArc
50
-105.30691637102964
51
31.762283436903989
0
SPLINE
5
258
100
AcDbEntity
8
0
100
AcDbSpline
70
0
71
3
72
12
73
8
74
0
42
0.000000001
43
0.0000000001
44
0.0000000001
40
-0.77827058045334041
40
-0.77827058045334041
40
-0.77827058045334041
40
-0.77827058045334041
40
-0.66848514738858067
40
-0.66848514738858067
40
-0.42821280194501232
40
-0.42821280194501232
40
0
40
0
40
0
40
0
10
8.6060208452446521
20
50.859556341077301
30
0
10
8.8762817830309899
20
50.849633122115989
30
0
10
9.1425701654784035
20
50.814808019336098
30
0
10
9.9885208550465219
20
50.635530645949785
30
0
10
10.554585825724594
20
50.41215955678414
30
0
10
12.156723354373085
20
49.646181962429466
30
0
10
13.156596186601826
20
49.01765822442789
30
0
10
14.459730251207255
20
48.435211768906555
30
0
0
ARC
5
259
100
AcDbEntity
8
0
100
AcDbCircle
10
16.500000134110472
20
53.000000789761629
30
0
40
5.0000000000000924
210
0
220
0
230
1
100
AcDbArc
50
245.91735285829591
51
265.95089106213408
0
SPLINE
5
260
100
AcDbEntity
8
0
100
AcDbSpline
70
4
71
3
72
8
73
4
74
0
42
0.000000001
43
0.0000000001
44
0.0000000001
40
-0.058301329513596664
40
-0.058301329513596664
40
-0.058301329513596664
40
-0.058301329513596664
40
0
40
0
40
0
40
0
41
1
41
1
41
1
41
1
10
16.146942770155583
20
48.012481316340171
30
0
10
16.059946940088285
20
47.606825681329084
30
0
10
15.966371871450153
20
47.176813089609588
30
0
10
15.867003494313341
20
46.720178069091389
30
0
0
SPLINE
5
261
100
AcDbEntity
8
0
100
AcDbSpline
70
4
71
3
72
8
73
4
74
0
42
0.000000001
43
0.0000000001
44
0.0000000001
40
-1
40
-1
40
-1
40
-1
40
0
40
0
40
0
40
0
41
1
41
1
41
1
41
1
10
98.578269340484695
20
26.581822366233595
30
0
10
100.6775963040492
20
22.870356889554074
30
0
10
100.6775963040492
20
22.870356889554074
30
0
10
98.869976138862
20
17.562833514554075
30
0
0
SPLINE
5
262
100
AcDbEntity
8
0
100
AcDbSpline
70
4
71
3
72
8
73
4
74
0
42
0.000000001
43
0.0000000001
44
0.0000000001
40
-1
40
-1
40
-1
40
-1
40
0
40
0
40
0
40
0
41
1
41
1
41
1
41
1
10
98.869976138862
20
17.562833514554075
30
0
10
97.062355973674798
20
12.255310139554069
30
0
10
97.062355973674798
20
12.255310139554069
30
0
10
91.183832854559753
20
11.035684055065904
30
0
0
SPLINE
5
263
100
AcDbEntity
8
0
100
AcDbSpline
70
4
71
3
72
8
73
4
74
0
42
0.000000001
43
0.0000000001
44
0.0000000001
40
-1
40
-1
40
-1
40
-1
40
0
40
0
40
0
40
0
41
1
41
1
41
1
41
1
10
91.183832854559753
20
11.035684055065904
30
0
10
85.305305713586279
20
9.8160576187107189
30
0
10
85.305305713586279
20
9.8160576187107189
30
0
10
82.910175148495838
20
12.059502587186984
30
0
0
SPLINE
5
264
100
AcDbEntity
8
0
100
AcDbSpline
70
4
71
3
72
8
73
4
74
0
42
0.000000001
43
0.0000000001
44
0.0000000001
40
-1
40
-1
40
-1
40
-1
40
0
40
0
40
0
40
0
41
1
41
1
41
1
41
1
10
82.910175148495838
20
12.059502587186984
30
0
10
80.515040561546925
20
14.302947203796224
30
0
10
80.515040561546925
20
14.302947203796224
30
0
10
81.015752228070312
20
18.926621113193377
30
0
0
SPLINE
5
265
100
AcDbEntity
8
0
100
AcDbSpline
70
4
71
3
72
8
73
4
74
0
42
0.000000001
43
0.0000000001
44
0.0000000001
40
-1
40
-1
40
-1
40
-1
40
0
40
0
40
0
40
0
41
1
41
1
41
1
41
1
10
81.015752228070312
20
18.926621113193377
30
0
10
81.516463894593699
20
23.550295022590561
30
0
10
81.516463894593699
20
23.550295022590561
30
0
10
88.997703135756936
20
26.921791432751828
30
0
0
SPLINE
5
266
100
AcDbEntity
8
0
100
AcDbSpline
70
4
71
3
72
8
73
4
74
0
42
0.000000001
43
0.0000000001
44
0.0000000001
40
-1
40
-1
40
-1
40
-1
40
0
40
0
40
0
40
0
41
1
41
1
41
1
41
1
10
88.997703135756936
20
26.921791432751828
30
0
10
96.478942376920145
20
30.293287842913085
30
0
10
96.478942376920145
20
30.293287842913085
30
0
10
98.578269340484695
20
26.581822366233595
30
0
0
SPLINE
5
267
100
AcDbEntity
8
0
100
AcDbSpline
70
4
71
3
72
8
73
4
74
0
42
0.000000001
43
0.0000000001
44
0.0000000001
40
-1
40
-1
40
-1
40
-1
40
0
40
0
40
0
40
0
41
1
41
1
41
1
41
1
10
89.623800051410996
20
-10.011092511751112
30
0
10
95.096066170018659
20
-13.164350268313248
30
0
10
95.096066170018659
20
-13.164350268313248
30
0
10
95.302593448913086
20
-14.368680121121187
30
0
0
SPLINE
5
268
100
AcDbEntity
8
0
100
AcDbSpline
70
4
71
3
72
8
73
4
74
0
42
0.000000001
43
0.0000000001
44
0.0000000001
40
-1
40
-1
40
-1
40
-1
40
0
40
0
40
0
40
0
41
1
41
1
41
1
41
1
10
95.302593448913086
20
-14.368680121121187
30
0
10
95.509120727807527
20
-15.573009973929127
30
0
10
95.509120727807527
20
-15.573009973929127
30
0
10
90.405900973320854
20
-21.107341834776495
30
0
0
SPLINE
5
269
100
AcDbEntity
8
0
100
AcDbSpline
70
4
71
3
72
8
73
4
74
0
42
0.000000001
43
0.0000000001
44
0.0000000001
40
-1
40
-1
40
-1
40
-1
40
0
40
0
40
0
40
0
41
1
41
1
41
1
41
1
10
90.405900973320854
20
-21.107341834776495
30
0
10
85.302681218834167
20
-26.641673695623872
30
0
10
85.302681218834167
20
-26.641673695623872
30
0
10
83.578531493829303
20
-26.285904479368845
30
0
0
SPLINE
5
270
100
AcDbEntity
8
0
100
AcDbSpline
70
4
71
3
72
8
73
4
74
0
42
0.000000001
43
0.0000000001
44
0.0000000001
40
-1
40
-1
40
-1
40
-1
40
0
40
0
40
0
40
0
41
1
41
1
41
1
41
1
10
83.578531493829303
20
-26.285904479368845
30
0
10
81.854381768824439
20
-25.930135263113808
30
0
10
81.854381768824439
20
-25.930135263113808
30
0
10
78.823667332068808
20
-19.374909425365001
30
0
0
SPLINE
5
271
100
AcDbEntity
8
0
100
AcDbSpline
70
4
71
3
72
8
73
4
74
0
42
0.000000001
43
0.0000000001
44
0.0000000001
40
-1
40
-1
40
-1
40
-1
40
0
40
0
40
0
40
0
41
1
41
1
41
1
41
1
10
78.823667332068808
20
-19.374909425365001
30
0
10
75.792960939030039
20
-12.819682883882141
30
0
10
75.792960939030039
20
-12.819682883882141
30
0
10
79.97224673218264
20
-9.838750775818724
30
0
0
SPLINE
5
272
100
AcDbEntity
8
0
100
AcDbSpline
70
4
71
3
72
8
73
4
74
0
42
0.000000001
43
0.0000000001
44
0.0000000001
40
-1
40
-1
40
-1
40
-1
40
0
40
0
40
0
40
0
41
1
41
1
41
1
41
1
10
79.97224673218264
20
-9.838750775818724
30
0
10
84.151533229069287
20
-6.8578267114721481
30
0
10
84.151533229069287
20
-6.8578267114721481
30
0
10
89.623800051410996
20
-10.011092511751112
30
0
0
CIRCLE
5
273
100
AcDbEntity
8
0
100
AcDbCircle
10
101.50000140070922
20
8.0000001192093269
30
0
40
2.0000000000000107
210
0
220
0
230
1
0
SPLINE
5
274
100
AcDbEntity
8
0
100
AcDbSpline
70
0
71
3
72
14
73
10
74
0
42
0.000000001
43
0.0000000001
44
0.0000000001
40
-1.6540333848573807
40
-1.6540333848573807
40
-1.6540333848573807
40
-1.6540333848573807
40
-1.4037293676498281
40
-1.4037293676498281
40
-1.1712147372768715
40
-1.1712147372768715
40
-0.72600253718010765
40
-0.72600253718010765
40
-0.4497025018620211
40
-0.4497025018620211
40
-0.4497025018620211
40
-0.4497025018620211
10
106.67132785309977
20
20.301746989541961
30
0
10
106.64784415285688
20
19.801754019475986
30
0
10
106.56653998960918
20
19.313152699383672
30
0
10
106.26390919308655
20
18.395413197921126
30
0
10
106.05993599093932
20
17.985534393286414
30
0
10
105.30458430491036
20
16.859165096302331
30
0
10
104.62167336798517
20
16.227435168876941
30
0
10
103.31214164603844
20
15.269774363727365
30
0
10
102.76609221343433
20
14.920908022665806
30
0
10
102.16700400349667
20
14.561870743434092
30
0
0
SPLINE
5
275
100
AcDbEntity
8
0
100
AcDbSpline
70
4
71
3
72
8
73
4
74
0
42
0.000000001
43
0.0000000001
44
0.0000000001
40
-0.10974204283472391
40
-0.10974204283472391
40
-0.10974204283472391
40
-0.10974204283472391
40
0
40
0
40
0
40
0
41
1
41
1
41
1
41
1
10
102.16700400349664
20
14.561870743434081
30
0
10
102.31964693560754
20
15.029149063480485
30
0
10
102.49624912440939
20
15.547687340046428
30
0
10
102.69462105400628
20
16.130145797611977
30
0
0
SPLINE
5
276
100
AcDbEntity
8
0
100
AcDbSpline
70
4
71
3
72
8
73
4
74
0
42
0.000000001
43
0.0000000001
44
0.0000000001
40
-1
40
-1
40
-1
40
-1
40
-0.34545708857105223
40
-0.34545708857105223
40
-0.34545708857105223
40
-0.34545708857105223
41
1
41
1
41
1
41
1
10
102.69462105400628
20
16.130145797611977
30
0
10
103.87778865216454
20
19.604147830273732
30
0
10
104.28652228591591
20
20.804266458166971
30
0
10
106.69533393722671
20
20.836310315771165
30
0
0
SPLINE
5
277
100
AcDbEntity
8
0
100
AcDbSpline
70
0
71
3
72
8
73
4
74
0
42
0.000000001
43
0.0000000001
44
0.0000000001
40
-0.053322112338127538
40
-0.053322112338127538
40
-0.053322112338127538
40
-0.053322112338127538
40
0
40
0
40
0
40
0
10
106.69533393722666
20
20.836310315771165
30
0
10
106.68767356052201
20
20.657510100854296
30
0
10
106.67966678105772
20
20.47929164024664
30
0
10
106.67132785309974
20
20.301746989541968
30
0
0
SPLINE
5
278
100
AcDbEntity
8
0
100
AcDbSpline
70
4
71
3
72
8
73
4
74
0
42
0.000000001
43
0.0000000001
44
0.0000000001
40
-1
40
-1
40
-1
40
-1
40
0
40
0
40
0
40
0
41
1
41
1
41
1
41
1
10
91.171869544994934
20
-7.106945155265441
30
0
10
85.699607448245686
20
-3.9536870468363028
30
0
10
85.699607448245686
20
-3.9536870468363028
30
0
10
85.901775529839796
20
1.0881994401416482
30
0
0
SPLINE
5
279
100
AcDbEntity
8
0
100
AcDbSpline
70
4
71
3
72
8
73
4
74
0
42
0.000000001
43
0.0000000001
44
0.0000000001
40
-1
40
-1
40
-1
40
-1
40
0
40
0
40
0
40
0
41
1
41
1
41
1
41
1
10
85.901775529839796
20
1.0881994401416482
30
0
10
86.103942907699903
20
6.1300939708364632
30
0
10
86.103942907699903
20
6.1300939708364632
30
0
10
91.982466026814933
20
7.3497200553246316
30
0
0
SPLINE
5
280
100
AcDbEntity
8
0
100
AcDbSpline
70
4
71
3
72
8
73
4
74
0
42
0.000000001
43
0.0000000001
44
0.0000000001
40
-1
40
-1
40
-1
40
-1
40
-0.67722472336559703
40
-0.67722472336559703
40
-0.67722472336559703
40
-0.67722472336559703
41
1
41
1
41
1
41
1
10
91.982466026814933
20
7.3497200553246316
30
0
10
93.879907725641075
20
7.7433877984487642
30
0
10
95.164902155230948
20
8.0099893268839644
30
0
10
96.151628332928567
20
8.0468957742149563
30
0
0
ARC
5
281
100
AcDbEntity
8
0
100
AcDbCircle
10
101.50000140070922
20
8.0000001192093269
30
0
40
5.3485786592907161
210
0
220
0
230
1
100
AcDbArc
50
179.49763148153224
51
233.35690678434597
0
SPLINE
5
282
100
AcDbEntity
8
0
100
AcDbSpline
70
0
71
3
72
10
73
6
74
0
42
0.000000001
43
0.0000000001
44
0.0000000001
40
-0.92509241124246877
40
-0.92509241124246877
40
-0.92509241124246877
40
-0.92509241124246877
40
-0.4407628290293657
40
-0.4407628290293657
40
-0.35949554385971416
40
-0.35949554385971416
40
-0.35949554385971416
40
-0.35949554385971416
10
98.307817114601647
20
3.7084673909002719
30
0
10
100.56686306438502
20
2.0281141374055367
30
0
10
102.09615743283869
20
0.99773150929535037
30
0
10
103.35358392959327
20
-0.40924102329176487
30
0
10
103.52317352624092
20
-0.61815200727031239
30
0
10
103.67918458936892
20
-0.83576045703803725
30
0
0
SPLINE
5
283
100
AcDbEntity
8
0
100
AcDbSpline
70
4
71
3
72
8
73
4
74
0
42
0.000000001
43
0.0000000001
44
0.0000000001
40
-0.39678298647988453
40
-0.39678298647988453
40
-0.39678298647988453
40
-0.39678298647988453
40
0
40
0
40
0
40
0
41
1
41
1
41
1
41
1
10
103.67918458936892
20
-0.83576045703803281
30
0
10
103.30758527380311
20
-1.8451670926694268
30
0
10
102.33280194888316
20
-3.0761879275467048
30
0
10
100.71682742715751
20
-5.1169474009799387
30
0
0
SPLINE
5
284
100
AcDbEntity
8
0
100
AcDbSpline
70
4
71
3
72
8
73
4
74
0
42
0.000000001
43
0.0000000001
44
0.0000000001
40
-1
40
-1
40
-1
40
-1
40
0
40
0
40
0
40
0
41
1
41
1
41
1
41
1
10
100.71682742715751
20
-5.1169474009799387
30
0
10
96.644136367336642
20
-10.260210955544419
30
0
10
96.644136367336642
20
-10.260210955544419
30
0
10
91.171869544994934
20
-7.106945155265441
30
0
0
SPLINE
5
285
100
AcDbEntity
8
0
100
AcDbSpline
70
4
71
3
72
8
73
4
74
0
42
0.000000001
43
0.0000000001
44
0.0000000001
40
-1
40
-1
40
-1
40
-1
40
0
40
0
40
0
40
0
41
1
41
1
41
1
41
1
10
91.270858271240655
20
39.766634653519468
30
0
10
95.288911148590415
20
33.717647583334134
30
0
10
95.288911148590415
20
33.717647583334134
30
0
10
95.256730984101182
20
33.489768665732129
30
0
0
SPLINE
5
286
100
AcDbEntity
8
0
100
AcDbSpline
70
4
71
3
72
8
73
4
74
0
42
0.000000001
43
0.0000000001
44
0.0000000001
40
-1
40
-1
40
-1
40
-1
40
0
40
0
40
0
40
0
41
1
41
1
41
1
41
1
10
95.256730984101182
20
33.489768665732129
30
0
10
95.224550467744933
20
33.261893769988568
30
0
10
95.224550467744933
20
33.261893769988568
30
0
10
87.74331560030717
20
29.8903936898359
30
0
0
SPLINE
5
287
100
AcDbEntity
8
0
100
AcDbSpline
70
4
71
3
72
8
73
4
74
0
42
0.000000001
43
0.0000000001
44
0.0000000001
40
-1
40
-1
40
-1
40
-1
40
0
40
0
40
0
40
0
41
1
41
1
41
1
41
1
10
87.74331560030717
20
29.8903936898359
30
0
10
80.262081084736408
20
26.518889587824791
30
0
10
80.262081084736408
20
26.518889587824791
30
0
10
75.974707634877504
20
30.88734251967837
30
0
0
SPLINE
5
288
100
AcDbEntity
8
0
100
AcDbSpline
70
4
71
3
72
8
73
4
74
0
42
0.000000001
43
0.0000000001
44
0.0000000001
40
-1
40
-1
40
-1
40
-1
40
0
40
0
40
0
40
0
41
1
41
1
41
1
41
1
10
75.974707634877504
20
30.88734251967837
30
0
10
71.687333833151598
20
35.255799473390368
30
0
10
71.687333833151598
20
35.255799473390368
30
0
10
71.879452543452928
20
38.446463261615961
30
0
0
SPLINE
5
289
100
AcDbEntity
8
0
100
AcDbSpline
70
4
71
3
72
8
73
4
74
0
42
0.000000001
43
0.0000000001
44
0.0000000001
40
-1
40
-1
40
-1
40
-1
40
0
40
0
40
0
40
0
41
1
41
1
41
1
41
1
10
71.879452543452928
20
38.446463261615961
30
0
10
72.071570901887227
20
41.637131071699969
30
0
10
72.071570901887227
20
41.637131071699969
30
0
10
79.662192169747499
20
43.726376749569397
30
0
0
SPLINE
5
290
100
AcDbEntity
8
0
100
AcDbSpline
70
4
71
3
72
8
73
4
74
0
42
0.000000001
43
0.0000000001
44
0.0000000001
40
-1
40
-1
40
-1
40
-1
40
0
40
0
40
0
40
0
41
1
41
1
41
1
41
1
10
79.662192169747499
20
43.726376749569397
30
0
10
87.25280941574934
20
45.815622075571824
30
0
10
87.25280941574934
20
45.815622075571824
30
0
10
91.270858271240655
20
39.766634653519468
30
0
0
CIRCLE
5
291
100
AcDbEntity
8
0
100
AcDbCircle
10
1.4990288303916943
20
-15.975034850200752
30
0
40
2.000000000000004
210
0
220
0
230
1
0
SPLINE
5
292
100
AcDbEntity
8
0
100
AcDbSpline
70
4
71
3
72
8
73
4
74
0
42
0.000000001
43
0.0000000001
44
0.0000000001
40
-0.98551909510566893
40
-0.98551909510566893
40
-0.98551909510566893
40
-0.98551909510566893
40
0
40
0
40
0
40
0
41
1
41
1
41
1
41
1
10
105.54868139844982
20
41.2631419293362
30
0
10
98.487839532243669
20
35.991576606871611
30
0
10
98.430497120116485
20
36.077902966301835
30
0
10
94.470633247962311
20
42.03929557678844
30
0
0
SPLINE
5
293
100
AcDbEntity
8
0
100
AcDbSpline
70
4
71
3
72
8
73
4
74
0
42
0.000000001
43
0.0000000001
44
0.0000000001
40
-1
40
-1
40
-1
40
-1
40
0
40
0
40
0
40
0
41
1
41
1
41
1
41
1
10
94.470633247962311
20
42.03929557678844
30
0
10
90.452584392470982
20
48.088282998840782
30
0
10
90.452584392470982
20
48.088282998840782
30
0
10
91.954345089424038
20
53.141110295972709
30
0
0
SPLINE
5
294
100
AcDbEntity
8
0
100
AcDbSpline
70
4
71
3
72
8
73
4
74
0
42
0.000000001
43
0.0000000001
44
0.0000000001
40
-1
40
-1
40
-1
40
-1
40
-0.7761301960345246
40
-0.7761301960345246
40
-0.7761301960345246
40
-0.7761301960345246
41
1
41
1
41
1
41
1
10
91.954345089424038
20
53.141110295972709
30
0
10
92.290542161508654
20
54.272285594908226
30
0
10
92.551474860971936
20
55.150224901420479
30
0
10
92.794615265825172
20
55.844966183371909
30
0
0
ARC
5
295
100
AcDbEntity
8
0
100
AcDbCircle
10
99.824868071431922
20
57.616419115080191
30
0
40
7.2499999999999662
210
0
220
0
230
1
100
AcDbArc
50
194.14273479024141
51
307.84831297298007
0
LINE
5
296
100
AcDbEntity
8
0
100
AcDbLine
10
104.27327312287788
20
51.891544225768669
30
0
11
105.54868139844982
21
41.2631419293362
31
0
0
ENDSEC
0
SECTION
2
OBJECTS
0
DICTIONARY
5
C
100
AcDbDictionary
3
ACAD_GROUP
350
D
3
ACAD_MLINESTYLE
350
17
0
DICTIONARY
5
D
100
AcDbDictionary
0
DICTIONARY
5
1A
330
C
100
AcDbDictionary
0
DICTIONARY
5
17
100
AcDbDictionary
0
ENDSEC
0
EOF
