0
SECTION
2
HEADER
9
$INSUNITS
70
4
9
$ACADVER
1
AC1014
9
$HANDSEED
5
FFFF
0
ENDSEC
0
SECTION
2
TABLES
0
TABLE
2
VPORT
5
8
100
AcDbSymbolTable
0
ENDTAB
0
TABLE
2
LTYPE
5
5
100
AcDbSymbolTable
0
LTYPE
5
14
100
AcDbSymbolTableRecord
100
AcDbLinetypeTableRecord
2
BYBLOCK
70
0
0
LTYPE
5
15
100
AcDbSymbolTableRecord
100
AcDbLinetypeTableRecord
2
BYLAYER
70
0
0
ENDTAB
0
TABLE
2
LAYER
5
2
100
AcDbSymbolTable
70
2
0
LAYER
5
50
100
AcDbSymbolTableRecord
100
AcDbLayerTableRecord
2
0
70
0
6
CONTINUOUS
0
ENDTAB
0
TABLE
2
STYLE
5
3
100
AcDbSymbolTable
70
1
0
STYLE
5
11
100
AcDbSymbolTableRecord
100
AcDbTextStyleTableRecord
2
STANDARD
70
0
0
ENDTAB
0
TABLE
2
VIEW
5
6
100
AcDbSymbolTable
70
0
0
ENDTAB
0
TABLE
2
UCS
5
7
100
AcDbSymbolTable
70
0
0
ENDTAB
0
TABLE
2
APPID
5
9
100
AcDbSymbolTable
70
2
0
APPID
5
12
100
AcDbSymbolTableRecord
100
AcDbRegAppTableRecord
2
ACAD
70
0
0
ENDTAB
0
TABLE
2
DIMSTYLE
5
A
100
AcDbSymbolTable
70
1
0
ENDTAB
0
TABLE
2
BLOCK_RECORD
5
1
100
AcDbSymbolTable
70
1
0
BLOCK_RECORD
5
1F
100
AcDbSymbolTableRecord
100
AcDbBlockTableRecord
2
*MODEL_SPACE
0
BLOCK_RECORD
5
1B
100
AcDbSymbolTableRecord
100
AcDbBlockTableRecord
2
*PAPER_SPACE
0
ENDTAB
0
ENDSEC
0
SECTION
2
BLOCKS
0
BLOCK
5
20
100
AcDbEntity
100
AcDbBlockBegin
2
*MODEL_SPACE
0
ENDBLK
5
21
100
AcDbEntity
100
AcDbBlockEnd
0
BLOCK
5
1C
100
AcDbEntity
100
AcDbBlockBegin
2
*PAPER_SPACE
0
ENDBLK
5
1D
100
AcDbEntity
100
AcDbBlockEnd
0
ENDSEC
0
SECTION
2
ENTITIES
0
LWPOLYLINE
5
100
100
AcDbEntity
8
0
100
AcDbPolyline
90
4
70
1
43
0.0
10
24.735154813568574
20
3.1225670049371201
10
26.934527911913101
20
6.9319929560700242
10
16.718191683168545
20
6.9750334724056176
10
18.942414235205494
20
3.1225670049371068
0
LINE
5
101
100
AcDbEntity
8
0
100
AcDbLine
10
32.479022750417641
20
9.9086611150131816
30
0
11
14.104735019452386
21
9.9860703558146326
31
0
0
SPLINE
5
102
100
AcDbEntity
8
0
100
AcDbSpline
70
4
71
5
72
13
73
7
74
0
42
0.000000001
43
0.0000000001
44
0.0000000001
40
0.73429658369739736
40
0.73429658369739736
40
0.73429658369739736
40
0.73429658369739736
40
0.73429658369739736
40
0.73429658369739736
40
0.80000000000000004
40
1
40
1
40
1
40
1
40
1
40
1
41
1
41
1
41
1
41
1
41
1
41
1
41
1
10
12.708092449567424
20
12.324404921478491
30
0
10
12.757773145836108
20
12.109786725895106
30
0
10
12.965464955622947
20
11.280457571947631
30
0
10
13.204119761894827
20
10.620112918885319
30
0
10
13.487014249259309
20
10.178099148871313
30
0
10
13.822447135608842
20
9.9872596095748705
30
0
10
14.104735019452386
20
9.9860703558146309
30
0
0
SPLINE
5
103
100
AcDbEntity
8
0
100
AcDbSpline
70
4
71
5
72
14
73
8
74
0
42
0.000000001
43
0.0000000001
44
0.0000000001
40
0.32314382014505372
40
0.32314382014505372
40
0.32314382014505372
40
0.32314382014505372
40
0.32314382014505372
40
0.32314382014505372
40
0.40000000000000002
40
0.60000000000000009
40
0.73429658369745021
40
0.73429658369745021
40
0.73429658369745021
40
0.73429658369745021
40
0.73429658369745021
40
0.73429658369745021
41
1
41
1
41
1
41
1
41
1
41
1
41
1
41
1
10
11.200048954052527
20
20.622567004937089
30
0
10
11.279422690356864
20
20.337019381922943
30
0
10
11.549009919387473
20
19.272026500725353
30
0
10
11.870410062887375
20
17.522393270759341
30
0
10
12.121157497405878
20
15.671536343756598
30
0
10
12.371218466554224
20
13.954271874807782
30
0
10
12.606546013171261
20
12.763080596018064
30
0
10
12.708092449567621
20
12.324404921477621
30
0
0
SPLINE
5
104
100
AcDbEntity
8
0
100
AcDbSpline
70
4
71
5
72
12
73
6
74
0
42
0.000000001
43
0.0000000001
44
0.0000000001
40
0.22737339763159567
40
0.22737339763159567
40
0.22737339763159567
40
0.22737339763159567
40
0.22737339763159567
40
0.22737339763159567
40
0.32314382014505422
40
0.32314382014505422
40
0.32314382014505422
40
0.32314382014505422
40
0.32314382014505422
40
0.32314382014505422
41
1
41
1
41
1
41
1
41
1
41
1
10
10.62681369305583
20
22.219042746896946
30
0
10
10.758806226514841
20
21.941252028968631
30
0
10
10.881351096844611
20
21.640323607897791
30
0
10
10.995191393372316
20
21.318528706054156
30
0
10
11.101141406517831
20
20.978387663150787
30
0
10
11.200048954052528
20
20.622567004937075
30
0
0
SPLINE
5
105
100
AcDbEntity
8
0
100
AcDbSpline
70
4
71
5
72
13
73
7
74
0
42
0.000000001
43
0.0000000001
44
0.0000000001
40
0
40
0
40
0
40
0
40
0
40
0
40
0.20000000000000001
40
0.22737339763155434
40
0.22737339763155434
40
0.22737339763155434
40
0.22737339763155434
40
0.22737339763155434
40
0.22737339763155434
41
1
41
1
41
1
41
1
41
1
41
1
41
1
10
8.4438485522678963
20
23.960330579485767
30
0
10
8.9471808890113884
20
23.960330579485767
30
0
10
9.4567224734815127
20
23.798218369292758
30
0
10
9.8950749980392381
20
23.451996952682286
30
0
10
10.269305977441794
20
22.942257776972248
30
0
10
10.589087179921886
20
22.298441746929498
30
0
10
10.626813693055546
20
22.219042746897554
30
0
0
LINE
5
106
100
AcDbEntity
8
0
100
AcDbLine
10
8.4438485522678963
20
23.960330579485767
30
0
11
-9.1532567165823497
21
23.960330579485767
31
0
0
SPLINE
5
107
100
AcDbEntity
8
0
100
AcDbSpline
70
4
71
5
72
12
73
6
74
0
42
0.000000001
43
0.0000000001
44
0.0000000001
40
0.96641728101086233
40
0.96641728101086233
40
0.96641728101086233
40
0.96641728101086233
40
0.96641728101086233
40
0.96641728101086233
40
1
40
1
40
1
40
1
40
1
40
1
41
1
41
1
41
1
41
1
41
1
41
1
10
-9.4671993492290287
20
23.948993850089416
30
0
10
-9.4062392887826256
20
23.953523594489408
30
0
10
-9.3443675029531228
20
23.956925716600786
30
0
10
-9.2815807403445998
20
23.959195566107731
30
0
10
-9.2178771902828913
20
23.960330579485767
30
0
10
-9.1532567165823462
20
23.960330579485767
30
0
0
SPLINE
5
108
100
AcDbEntity
8
0
100
AcDbSpline
70
4
71
5
72
15
73
9
74
0
42
0.000000001
43
0.0000000001
44
0.0000000001
40
0.26608528691014477
40
0.26608528691014477
40
0.26608528691014477
40
0.26608528691014477
40
0.26608528691014477
40
0.26608528691014477
40
0.40000000000000002
40
0.60000000000000009
40
0.80000000000000004
40
0.96641728101093338
40
0.96641728101093338
40
0.96641728101093338
40
0.96641728101093338
40
0.96641728101093338
40
0.96641728101093338
41
1
41
1
41
1
41
1
41
1
41
1
41
1
41
1
41
1
10
-12.73269726700256
20
19.960330579485763
30
0
10
-12.690878086949818
20
20.184214096053022
30
0
10
-12.572813633939642
20
20.738951309297153
30
0
10
-12.327131063670468
20
21.604593367163673
30
0
10
-11.870389110499966
20
22.648932977947737
30
0
10
-11.172270195471384
20
23.442236007461517
30
0
10
-10.385116459256686
20
23.81615481015476
30
0
10
-9.7692835108186102
20
23.926546955692256
30
0
10
-9.4671993492283839
20
23.948993850089462
30
0
0
SPLINE
5
109
100
AcDbEntity
8
0
100
AcDbSpline
70
4
71
5
72
13
73
7
74
0
42
0.000000001
43
0.0000000001
44
0.0000000001
40
0.067086857125778429
40
0.067086857125778429
40
0.067086857125778429
40
0.067086857125778429
40
0.067086857125778429
40
0.067086857125778429
40
0.20000000000000001
40
0.26608528691014466
40
0.26608528691014466
40
0.26608528691014466
40
0.26608528691014466
40
0.26608528691014466
40
0.26608528691014466
41
1
41
1
41
1
41
1
41
1
41
1
41
1
10
-12.92551046669265
20
18.286110723613067
30
0
10
-12.915186787664565
20
18.50902546670865
30
0
10
-12.892077926951664
20
18.843930129752149
30
0
10
-12.857511246784799
20
19.180088317010732
30
0
10
-12.811422936162838
20
19.516120578780946
30
0
10
-12.753334525212402
20
19.849846779121933
30
0
10
-12.73269726700256
20
19.96033057948576
30
0
0
SPLINE
5
110
100
AcDbEntity
8
0
100
AcDbSpline
70
4
71
5
72
12
73
6
74
0
42
0.000000001
43
0.0000000001
44
0.0000000001
40
0
40
0
40
0
40
0
40
0
40
0
40
0.067086857125777014
40
0.067086857125777014
40
0.067086857125777014
40
0.067086857125777014
40
0.067086857125777014
40
0.067086857125777014
41
1
41
1
41
1
41
1
41
1
41
1
10
-12.938540085152873
20
17.725711608306721
30
0
10
-12.938540085152873
20
17.837328731648377
30
0
10
-12.937236621839315
20
17.949184408225022
30
0
10
-12.934629962699846
20
18.06127839501551
30
0
10
-12.930721261990941
20
18.173596270957052
30
0
10
-12.925510466692653
20
18.286110723613064
30
0
0
LINE
5
111
100
AcDbEntity
8
0
100
AcDbLine
10
-12.938540085152873
20
17.725711608306721
30
0
11
-12.938540085152873
21
-49.000000730156884
31
0
0
SPLINE
5
112
100
AcDbEntity
8
0
100
AcDbSpline
70
4
71
5
72
12
73
6
74
0
42
0.000000001
43
0.0000000001
44
0.0000000001
40
-0.18452299221544857
40
-0.18452299221544857
40
-0.18452299221544857
40
-0.18452299221544857
40
-0.18452299221544857
40
-0.18452299221544857
40
0
40
0
40
0
40
0
40
0
40
0
41
1
41
1
41
1
41
1
41
1
41
1
10
-12.739905706467676
20
-50.616718719568794
30
0
10
-12.817999977828393
20
-50.312719742234961
30
0
10
-12.877799431302455
20
-49.998948753587086
30
0
10
-12.918288037700298
20
-49.675605340779406
30
0
10
-12.938540085152873
20
-49.342624497172665
30
0
10
-12.938540085152873
20
-49.000000730156898
30
0
0
SPLINE
5
113
100
AcDbEntity
8
0
100
AcDbSpline
70
4
71
5
72
16
73
10
74
0
42
0.000000001
43
0.0000000001
44
0.0000000001
40
-0.87150007615642555
40
-0.87150007615642555
40
-0.87150007615642555
40
-0.87150007615642555
40
-0.87150007615642555
40
-0.87150007615642555
40
-0.80000000000000004
40
-0.60000000000000009
40
-0.40000000000000002
40
-0.20000000000000001
40
-0.1845229922154501
40
-0.1845229922154501
40
-0.1845229922154501
40
-0.1845229922154501
40
-0.1845229922154501
40
-0.1845229922154501
41
1
41
1
41
1
41
1
41
1
41
1
41
1
41
1
41
1
41
1
10
-9.109101145722434
20
-54.489399891684002
30
0
10
-9.2284267458114027
20
-54.461392139803152
30
0
10
-9.6720865441301775
20
-54.340906338997939
30
0
10
-10.381187207354541
20
-54.040659171745496
30
0
10
-11.248673254694348
20
-53.4122776080929
30
0
10
-11.948883732760072
20
-52.550830377304962
30
0
10
-12.413195334828174
20
-51.65316392730989
30
0
10
-12.640368878734076
20
-50.996255010492995
30
0
10
-12.73335548943907
20
-50.642216867426704
30
0
10
-12.739905706467676
20
-50.616718719568816
30
0
0
LINE
5
114
100
AcDbEntity
8
0
100
AcDbLine
10
-9.109101145722434
20
-54.489399891684002
30
0
11
-9.1096292281839908
21
-54.616718719568809
31
0
0
LINE
5
115
100
AcDbEntity
8
0
100
AcDbLine
10
-9.1096292281839908
20
-54.616718719568809
30
0
11
-1.5950547713119168
21
-54.616718719568809
31
0
0
SPLINE
5
116
100
AcDbEntity
8
0
100
AcDbSpline
70
0
71
3
72
8
73
4
74
0
42
0.000000001
43
0.0000000001
44
0.0000000001
40
0.86008597152865485
40
0.86008597152865485
40
0.86008597152865485
40
0.86008597152865485
40
1
40
1
40
1
40
1
10
-0.10728091386309385
20
-54.872472861948012
30
0
10
-0.5078375067081019
20
-54.704355336462392
30
0
10
-0.94153339066999464
20
-54.616718719568809
30
0
10
-1.5950547713119168
20
-54.616718719568809
30
0
0
SPLINE
5
117
100
AcDbEntity
8
0
100
AcDbSpline
70
0
71
3
72
14
73
10
74
0
42
0.000000001
43
0.0000000001
44
0.0000000001
40
0.50652018677292276
40
0.50652018677292276
40
0.50652018677292276
40
0.50652018677292276
40
0.63272958992324757
40
0.63272958992324757
40
0.63272958992324757
40
0.82115989298640035
40
0.82115989298640035
40
0.82115989298640035
40
0.86008597152865485
40
0.86008597152865485
40
0.86008597152865485
40
0.86008597152865485
10
3.5409375591633587
20
-58.55357310955489
30
0
10
3.001795857701568
20
-57.8221934495364
30
0
10
2.5125857054479321
20
-57.162221962746159
30
0
10
2.0481530835205568
20
-56.624606163257496
30
0
10
1.3547564148273759
20
-55.82194720520404
30
0
10
0.75744547827287023
20
-55.317303263549277
30
0
10
0.22336572609860245
20
-55.031325281366428
30
0
10
0.11303511555983109
20
-54.972247727412302
30
0
10
0.0041596440570569604
20
-54.91924555567202
30
0
10
-0.10728091386309385
20
-54.872472861948012
30
0
0
SPLINE
5
118
100
AcDbEntity
8
0
100
AcDbSpline
70
0
71
3
72
11
73
7
74
0
42
0.000000001
43
0.0000000001
44
0.0000000001
40
0.19773704110058027
40
0.19773704110058027
40
0.19773704110058027
40
0.19773704110058027
40
0.38593495030313996
40
0.38593495030313996
40
0.38593495030313996
40
0.50652018677294852
40
0.50652018677294852
40
0.50652018677294852
40
0.50652018677294852
10
8.9445172854490096
20
-64.377432995062918
30
0
10
7.407021971919578
20
-63.321739796514493
30
0
10
6.225427460036375
20
-62.02578012467032
30
0
10
5.2449673132594938
20
-60.801058242162149
30
0
10
4.6167508832827835
20
-60.016334445613253
30
0
10
4.0560539287735224
20
-59.252360894387621
30
0
10
3.5409375591630288
20
-58.553573109554442
30
0
0
SPLINE
5
119
100
AcDbEntity
8
0
100
AcDbSpline
70
0
71
3
72
11
73
7
74
0
42
0.000000001
43
0.0000000001
44
0.0000000001
40
0.13979111546090439
40
0.13979111546090439
40
0.13979111546090439
40
0.13979111546090439
40
0.17112855423075315
40
0.17112855423075315
40
0.17112855423075315
40
0.19773704110058032
40
0.19773704110058032
40
0.19773704110058032
40
0.19773704110058032
10
10.467340166086899
20
-65.269933415778524
30
0
10
10.175184167676324
20
-65.126957756380122
30
0
10
9.8917234582212537
20
-64.97336055537771
30
0
10
9.6184373712197324
20
-64.809923541858652
30
0
10
9.3863913092842903
20
-64.671149864143501
30
0
10
9.1618970854468689
20
-64.526692881802177
30
0
10
8.944517285449006
20
-64.377432995062918
30
0
0
SPLINE
5
120
100
AcDbEntity
8
0
100
AcDbSpline
70
0
71
3
72
8
73
4
74
0
42
0.000000001
43
0.0000000001
44
0.0000000001
40
0.033623868513770298
40
0.033623868513770298
40
0.033623868513770298
40
0.033623868513770298
40
0.13979111546090431
40
0.13979111546090431
40
0.13979111546090431
40
0.13979111546090431
10
13.678583456221794
20
-66.326953889446614
30
0
10
12.546716454662857
20
-66.116789368063792
30
0
10
11.457127438050716
20
-65.754316720051136
30
0
10
10.467340166086903
20
-65.269933415778524
30
0
0
SPLINE
5
121
100
AcDbEntity
8
0
100
AcDbSpline
70
0
71
3
72
8
73
4
74
0
42
0.000000001
43
0.0000000001
44
0.0000000001
40
0
40
0
40
0
40
0
40
0.033623868513582553
40
0.033623868513582553
40
0.033623868513582553
40
0.033623868513582553
10
14.764887226523468
20
-66.479838820749706
30
0
10
14.399763582500377
20
-66.444797900842516
30
0
10
14.037053213423601
20
-66.393514381844184
30
0
10
13.678583456227802
20
-66.326953889447722
30
0
0
LINE
5
122
100
AcDbEntity
8
0
100
AcDbLine
10
14.764887226523468
20
-66.479838820749706
30
0
11
51.273563264411251
21
-69.983576839097083
31
0
0
SPLINE
5
123
100
AcDbEntity
8
0
100
AcDbSpline
70
0
71
3
72
8
73
4
74
0
42
0.000000001
43
0.0000000001
44
0.0000000001
40
0.96970265651632848
40
0.96970265651632848
40
0.96970265651632848
40
0.96970265651632848
40
1
40
1
40
1
40
1
10
51.809923762095586
20
-70.01587856981665
30
0
10
51.629974896136076
20
-70.011366734272727
30
0
10
51.450775793329342
20
-70.000583927336962
30
0
10
51.273563264411251
20
-69.983576839097083
30
0
0
SPLINE
5
124
100
AcDbEntity
8
0
100
AcDbSpline
70
0
71
3
72
8
73
4
74
0
42
0.000000001
43
0.0000000001
44
0.0000000001
40
0.89341490714151628
40
0.89341490714151628
40
0.89341490714151628
40
0.89341490714151628
40
0.96970265651632837
40
0.96970265651632837
40
0.96970265651632837
40
0.96970265651632837
10
53.163756369979026
20
-69.929938205334636
30
0
10
52.720888450829875
20
-69.998840899057996
30
0
10
52.26302929572099
20
-70.027239228528543
30
0
10
51.809923762095593
20
-70.01587856981665
30
0
0
SPLINE
5
125
100
AcDbEntity
8
0
100
AcDbSpline
70
0
71
3
72
11
73
7
74
0
42
0.000000001
43
0.0000000001
44
0.0000000001
40
0.8171783485158528
40
0.8171783485158528
40
0.8171783485158528
40
0.8171783485158528
40
0.8876648911288797
40
0.8876648911288797
40
0.8876648911288797
40
0.89341490714151617
40
0.89341490714151617
40
0.89341490714151617
40
0.89341490714151617
10
54.421689315030868
20
-69.617990077776227
30
0
10
54.057606108994555
20
-69.741996165630638
30
0
10
53.670631837606194
20
-69.844358887545781
30
0
10
53.263632911110783
20
-69.913667411785823
30
0
10
53.230431533121191
20
-69.919321329674517
30
0
10
53.197136534519977
20
-69.924744821135079
30
0
10
53.163756369979026
20
-69.929938205334636
30
0
0
SPLINE
5
126
100
AcDbEntity
8
0
100
AcDbSpline
70
0
71
3
72
14
73
10
74
0
42
0.000000001
43
0.0000000001
44
0.0000000001
40
0.19862249706136467
40
0.19862249706136467
40
0.19862249706136467
40
0.19862249706136467
40
0.39398882867434026
40
0.39398882867434026
40
0.39398882867434026
40
0.67636728762579179
40
0.67636728762579179
40
0.67636728762579179
40
0.8171783485143963
40
0.8171783485143963
40
0.8171783485143963
40
0.8171783485143963
10
59.108173770916309
20
-66.666255363326457
30
0
10
59.038824332110238
20
-66.696993105977924
30
0
10
58.840743171879168
20
-66.808671691503122
30
0
10
58.513207928288523
20
-67.056534445450339
30
0
10
58.039795254908164
20
-67.414790148534991
30
0
10
57.353105168336128
20
-68.045879327448247
30
0
10
56.306763815897149
20
-68.706657226885255
30
0
10
55.784994427270085
20
-69.036161245630069
30
0
10
55.149018824957508
20
-69.370262949436921
30
0
10
54.421689315053435
20
-69.617990077768553
30
0
0
LINE
5
127
100
AcDbEntity
8
0
100
AcDbLine
10
59.108173770916309
20
-66.666255363326457
30
0
11
90.0723350274219
21
-66.666255363326457
31
0
0
SPLINE
5
128
100
AcDbEntity
8
0
100
AcDbSpline
70
0
71
3
72
8
73
4
74
0
42
0.000000001
43
0.0000000001
44
0.0000000001
40
-0.11856548987200358
40
-0.11856548987200358
40
-0.11856548987200358
40
-0.11856548987200358
40
0
40
0
40
0
40
0
10
91.10855527901208
20
-66.645672404905895
30
0
10
90.75804750959378
20
-66.660673433934704
30
0
10
90.414209560767205
20
-66.666255363326457
30
0
10
90.0723350274219
20
-66.666255363326457
30
0
0
SPLINE
5
129
100
AcDbEntity
8
0
100
AcDbSpline
70
0
71
3
72
11
73
7
74
0
42
0.000000001
43
0.0000000001
44
0.0000000001
40
-0.46395174565439767
40
-0.46395174565439767
40
-0.46395174565439767
40
-0.46395174565439767
40
-0.36291265934012851
40
-0.36291265934012851
40
-0.36291265934012851
40
-0.11856548987200374
40
-0.11856548987200374
40
-0.11856548987200374
40
-0.11856548987200374
10
94.46336358094932
20
-66.171274682771411
30
0
10
94.094342616025614
20
-66.269107295840683
30
0
10
93.740934741005219
20
-66.339572440250279
30
0
10
93.40177770611399
20
-66.399328140391475
30
0
10
92.581579656983664
20
-66.543837920930002
30
0
10
91.830903589860384
20
-66.614757347023101
30
0
10
91.10855527901208
20
-66.645672404905895
30
0
0
SPLINE
5
130
100
AcDbEntity
8
0
100
AcDbSpline
70
0
71
3
72
14
73
10
74
0
42
0.000000001
43
0.0000000001
44
0.0000000001
40
-0.90895510490815212
40
-0.90895510490815212
40
-0.90895510490815212
40
-0.90895510490815212
40
-0.80778318786144321
40
-0.80778318786144321
40
-0.80778318786144321
40
-0.61976440982799463
40
-0.61976440982799463
40
-0.61976440982799463
40
-0.46395174565441938
40
-0.46395174565441938
40
-0.46395174565441938
40
-0.46395174565441938
10
99.425604886448696
20
-61.877432995062932
30
0
10
99.221952450355104
20
-62.447912983948072
30
0
10
98.941726988627394
20
-63.002881564121381
30
0
10
98.586194716044389
20
-63.49394511380811
30
0
10
97.925470422249973
20
-64.406541921736931
30
0
10
97.069280838726414
20
-65.049498767945494
30
0
10
96.28695173264596
20
-65.462335562459728
30
0
10
95.638629349350609
20
-65.804456713841219
30
0
10
95.032431867076212
20
-66.020406730165661
30
0
10
94.463363580949562
20
-66.171274682771369
30
0
0
SPLINE
5
131
100
AcDbEntity
8
0
100
AcDbSpline
70
0
71
3
72
11
73
7
74
0
42
0.000000001
43
0.0000000001
44
0.0000000001
40
-1
40
-1
40
-1
40
-1
40
-0.99032961220498306
40
-0.99032961220498306
40
-0.99032961220498306
40
-0.90895510490815223
40
-0.90895510490815223
40
-0.90895510490815223
40
-0.90895510490815223
10
99.788796730422177
20
-60.334656328270881
30
0
10
99.782363093753673
20
-60.388269967175191
30
0
10
99.775352402229046
20
-60.442044611941903
30
0
10
99.767738682517091
20
-60.495965774327487
30
0
10
99.703670653045037
20
-60.949702285727824
30
0
10
99.589406434651622
20
-61.418585032373834
30
0
10
99.425604886448653
20
-61.877432995062911
30
0
0
LINE
5
132
100
AcDbEntity
8
0
100
AcDbLine
10
99.788796730422177
20
-60.334656328270881
30
0
11
102.78879677512566
21
-35.334655955741781
31
0
0
SPLINE
5
133
100
AcDbEntity
8
0
100
AcDbSpline
70
0
71
3
72
8
73
4
74
0
42
0.000000001
43
0.0000000001
44
0.0000000001
40
0.86271208174750225
40
0.86271208174750225
40
0.86271208174750225
40
0.86271208174750225
40
1
40
1
40
1
40
1
10
103.07094606272625
20
-32.459040499340986
30
0
10
102.99711417656623
20
-33.415861960483127
30
0
10
102.90394830025213
20
-34.37505991302136
30
0
10
102.78879677512566
20
-35.334655955741781
30
0
0
SPLINE
5
134
100
AcDbEntity
8
0
100
AcDbSpline
70
0
71
3
72
11
73
7
74
0
42
0.000000001
43
0.0000000001
44
0.0000000001
40
0.54532107504846949
40
0.54532107504846949
40
0.54532107504846949
40
0.54532107504846949
40
0.67801271907320482
40
0.67801271907320482
40
0.67801271907320482
40
0.86271208174750502
40
0.86271208174750502
40
0.86271208174750502
40
0.86271208174750502
10
103.31124892955999
20
-25.879608716224155
30
0
10
103.30945825398074
20
-26.788350419444068
30
0
10
103.29612864657236
20
-27.699855529836764
30
0
10
103.27040996196048
20
-28.615002245336456
30
0
10
103.23461098839624
20
-29.888835396991151
30
0
10
103.17027528624692
20
-31.171787284961177
30
0
10
103.07094606272622
20
-32.459040499341036
30
0
0
SPLINE
5
135
100
AcDbEntity
8
0
100
AcDbSpline
70
0
71
3
72
8
73
4
74
0
42
0.000000001
43
0.0000000001
44
0.0000000001
40
0.14534287605048807
40
0.14534287605048807
40
0.14534287605048807
40
0.14534287605048807
40
0.54532107504846938
40
0.54532107504846938
40
0.54532107504846938
40
0.54532107504846938
10
103.03618936160905
20
-17.713103776760892
30
0
10
103.21719853754584
20
-20.426198419602958
30
0
10
103.31664664091139
20
-23.140349040305885
30
0
10
103.31124892956005
20
-25.879608716224158
30
0
0
SPLINE
5
136
100
AcDbEntity
8
0
100
AcDbSpline
70
0
71
3
72
8
73
4
74
0
42
0.000000001
43
0.0000000001
44
0.0000000001
40
0.12783651610458788
40
0.12783651610458788
40
0.12783651610458788
40
0.12783651610458788
40
0.14534287605048793
40
0.14534287605048793
40
0.14534287605048793
40
0.14534287605048793
10
103.01195519959828
20
-17.356865327221112
30
0
10
103.02018819557092
20
-17.475610798661467
30
0
10
103.02826690034638
20
-17.59435627626242
30
0
10
103.03618936160905
20
-17.713103776760889
30
0
0
SPLINE
5
137
100
AcDbEntity
8
0
100
AcDbSpline
70
0
71
3
72
8
73
4
74
0
42
0.000000001
43
0.0000000001
44
0.0000000001
40
0
40
0
40
0
40
0
40
0.12783651610458813
40
0.12783651610458813
40
0.12783651610458813
40
0.12783651610458813
10
102.80767421611438
20
-14.754739444979778
30
0
10
102.88348841513528
20
-15.622637932881284
30
0
10
102.95183547593791
20
-16.489751465799152
30
0
10
103.0119551995983
20
-17.356865327221122
30
0
0
LINE
5
138
100
AcDbEntity
8
0
100
AcDbLine
10
102.80767421611438
20
-14.754739444979778
30
0
11
101.32179700736134
21
2.2551426000506791
31
0
0
SPLINE
5
139
100
AcDbEntity
8
0
100
AcDbSpline
70
4
71
5
72
12
73
6
74
0
42
0.000000001
43
0.0000000001
44
0.0000000001
40
0.95671303947138908
40
0.95671303947138908
40
0.95671303947138908
40
0.95671303947138908
40
0.95671303947138908
40
0.95671303947138908
40
1
40
1
40
1
40
1
40
1
40
1
41
1
41
1
41
1
41
1
41
1
41
1
10
101.2522671339924
20
3.1225670049371197
30
0
10
101.26483382946884
20
2.9500918087396606
30
0
10
101.27807198029615
20
2.7771130818914154
30
0
10
101.29197909917164
20
2.6036291534517577
30
0
10
101.30655408834443
20
2.4296390207322265
30
0
10
101.32179700736134
20
2.2551426000506791
30
0
0
SPLINE
5
140
100
AcDbEntity
8
0
100
AcDbSpline
70
4
71
5
72
14
73
8
74
0
42
0.000000001
43
0.0000000001
44
0.0000000001
40
0.41788222222346411
40
0.41788222222346411
40
0.41788222222346411
40
0.41788222222346411
40
0.41788222222346411
40
0.41788222222346411
40
0.60000000000000009
40
0.80000000000000004
40
0.9567130394713399
40
0.9567130394713399
40
0.9567130394713399
40
0.9567130394713399
40
0.9567130394713399
40
0.9567130394713399
41
1
41
1
41
1
41
1
41
1
41
1
41
1
41
1
10
101.78554832318613
20
13.12256700493708
30
0
10
101.62403724874183
20
12.495630620452928
30
0
10
101.3492016703878
20
11.161449264707702
30
0
10
101.12554538886813
20
9.2278638939986752
30
0
10
101.06687729596111
20
7.2264982441844232
30
0
10
101.12324584889863
20
5.1532707963904354
30
0
10
101.20677156164967
20
3.7469839632887325
30
0
10
101.25226713399238
20
3.1225670049381011
30
0
0
SPLINE
5
141
100
AcDbEntity
8
0
100
AcDbSpline
70
4
71
5
72
14
73
8
74
0
42
0.000000001
43
0.0000000001
44
0.0000000001
40
0
40
0
40
0
40
0
40
0
40
0
40
0.20000000000000001
40
0.40000000000000002
40
0.41788222222346427
40
0.41788222222346427
40
0.41788222222346427
40
0.41788222222346427
40
0.41788222222346427
40
0.41788222222346427
41
1
41
1
41
1
41
1
41
1
41
1
41
1
41
1
10
105.75924584845851
20
19.766013139087224
30
0
10
105.13253622959071
20
19.190101213690145
30
0
10
104.01039234276072
20
18.00710127126694
30
0
10
103.11212370847954
20
16.706130161178784
30
0
10
102.46060324825415
20
15.344996348832554
30
0
10
101.99822168549471
20
13.933131101466213
30
0
10
101.80140716442629
20
13.184126155747041
30
0
10
101.78554832318616
20
13.122567004937078
30
0
0
LINE
5
142
100
AcDbEntity
8
0
100
AcDbLine
10
105.75924584845851
20
19.766013139087224
30
0
11
110.96135150937766
21
24.546464239728571
31
0
0
SPLINE
5
143
100
AcDbEntity
8
0
100
AcDbSpline
70
4
71
5
72
12
73
6
74
0
42
0.000000001
43
0.0000000001
44
0.0000000001
40
0.905602785699128
40
0.905602785699128
40
0.905602785699128
40
0.905602785699128
40
0.905602785699128
40
0.905602785699128
40
1
40
1
40
1
40
1
40
1
40
1
41
1
41
1
41
1
41
1
41
1
41
1
10
112.01827354928751
20
25.622567004937093
30
0
10
111.82265544339485
20
25.401041806876627
30
0
10
111.6192068293978
20
25.182594903521391
30
0
10
111.40786621318131
20
24.967320687491007
30
0
10
111.18858199672488
20
24.755276652267383
30
0
10
110.96135150937764
20
24.546464239728571
30
0
0
SPLINE
5
144
100
AcDbEntity
8
0
100
AcDbSpline
70
4
71
5
72
14
73
8
74
0
42
0.000000001
43
0.0000000001
44
0.0000000001
40
0.4489838535018062
40
0.4489838535018062
40
0.4489838535018062
40
0.4489838535018062
40
0.4489838535018062
40
0.4489838535018062
40
0.60000000000000009
40
0.80000000000000004
40
0.90560278569894848
40
0.90560278569894848
40
0.90560278569894848
40
0.90560278569894848
40
0.90560278569894848
40
0.90560278569894848
41
1
41
1
41
1
41
1
41
1
41
1
41
1
41
1
10
114.927308568437
20
31.53613686509533
30
0
10
114.86263115060396
20
31.120822136725646
30
0
10
114.65650810678119
20
30.159840939021251
30
0
10
114.23057838526159
20
28.927533392166659
30
0
10
113.62437209111246
20
27.733479890132557
30
0
10
112.84204957538651
20
26.598706007162207
30
0
10
112.23711281343935
20
25.870388703820446
30
0
10
112.01827354928936
20
25.622567004939192
30
0
0
SPLINE
5
145
100
AcDbEntity
8
0
100
AcDbSpline
70
4
71
5
72
14
73
8
74
0
42
0.000000001
43
0.0000000001
44
0.0000000001
40
0.15383364670156346
40
0.15383364670156346
40
0.15383364670156346
40
0.15383364670156346
40
0.15383364670156346
40
0.15383364670156346
40
0.20000000000000001
40
0.40000000000000002
40
0.44898385350180597
40
0.44898385350180597
40
0.44898385350180597
40
0.44898385350180597
40
0.44898385350180597
40
0.44898385350180597
41
1
41
1
41
1
41
1
41
1
41
1
41
1
41
1
10
114.50522347785316
20
35.62256700493711
30
0
10
114.55607915535123
20
35.495037977574817
30
0
10
114.80958793871054
20
34.81450103739283
30
0
10
115.00241933384655
20
33.995447832690232
30
0
10
115.07431647314593
20
33.174844448831863
30
0
10
115.04208676204664
20
32.356591403349036
30
0
10
114.94828744542113
20
31.670849055038843
30
0
10
114.92730856843698
20
31.53613686509533
30
0
0
SPLINE
5
146
100
AcDbEntity
8
0
100
AcDbSpline
70
4
71
5
72
12
73
6
74
0
42
0.000000001
43
0.0000000001
44
0.0000000001
40
0
40
0
40
0
40
0
40
0
40
0
40
0.15383364670156427
40
0.15383364670156427
40
0.15383364670156427
40
0.15383364670156427
40
0.15383364670156427
40
0.15383364670156427
41
1
41
1
41
1
41
1
41
1
41
1
10
113.27403343357588
20
37.73367771531251
30
0
10
113.59941145334599
20
37.314533548572768
30
0
10
113.88456719609785
20
36.893758220126813
30
0
10
114.12952744724299
20
36.47135362405691
30
0
10
114.33576425558307
20
36.047514048352568
30
0
10
114.50522347785316
20
35.622567004937089
30
0
0
LINE
5
147
100
AcDbEntity
8
0
100
AcDbLine
10
113.27403343357588
20
37.73367771531251
30
0
11
104.59420128744279
21
48.914829456608267
31
0
0
SPLINE
5
148
100
AcDbEntity
8
0
100
AcDbSpline
70
4
71
5
72
12
73
6
74
0
42
0.000000001
43
0.0000000001
44
0.0000000001
40
-0.083759495878008045
40
-0.083759495878008045
40
-0.083759495878008045
40
-0.083759495878008045
40
-0.083759495878008045
40
-0.083759495878008045
40
0
40
0
40
0
40
0
40
0
40
0
41
1
41
1
41
1
41
1
41
1
41
1
10
103.71978979076104
20
49.82800481234392
30
0
10
103.90294128509593
20
49.67681534796445
30
0
10
104.0820506477672
20
49.510176166378912
30
0
10
104.2569988519281
20
49.327738236339229
30
0
10
104.42771632728113
20
49.129291392146982
30
0
10
104.59420128744279
20
48.91482945660826
30
0
0
SPLINE
5
149
100
AcDbEntity
8
0
100
AcDbSpline
70
4
71
5
72
13
73
7
74
0
42
0.000000001
43
0.0000000001
44
0.0000000001
40
-0.23048492457119493
40
-0.23048492457119493
40
-0.23048492457119493
40
-0.23048492457119493
40
-0.23048492457119493
40
-0.23048492457119493
40
-0.20000000000000001
40
-0.083759495878007462
40
-0.083759495878007462
40
-0.083759495878007462
40
-0.083759495878007462
40
-0.083759495878007462
40
-0.083759495878007462
41
1
41
1
41
1
41
1
41
1
41
1
41
1
10
102.00000151992158
20
50.702366539386965
30
0
10
102.07584748529143
20
50.683537907496898
30
0
10
102.43894727203495
20
50.584827020337322
30
0
10
102.79239392625487
20
50.446474101616019
30
0
10
103.13495248032568
20
50.265110432431364
30
0
10
103.46561416793746
20
50.037823882685508
30
0
10
103.71978979076103
20
49.82800481234392
30
0
0
SPLINE
5
150
100
AcDbEntity
8
0
100
AcDbSpline
70
4
71
5
72
14
73
8
74
0
42
0.000000001
43
0.0000000001
44
0.0000000001
40
-0.66685247353207944
40
-0.66685247353207944
40
-0.66685247353207944
40
-0.66685247353207944
40
-0.66685247353207944
40
-0.66685247353207944
40
-0.60000000000000009
40
-0.40000000000000002
40
-0.23048492457144729
40
-0.23048492457144729
40
-0.23048492457144729
40
-0.23048492457144729
40
-0.23048492457144729
40
-0.23048492457144729
41
1
41
1
41
1
41
1
41
1
41
1
41
1
41
1
10
96.121837853083818
20
49.54384699026285
30
0
10
96.303539311394118
20
49.62911267087496
30
0
10
97.032020396689632
20
49.961436330283888
30
0
10
98.240650227680476
20
50.446710874532918
30
0
10
99.454380959151152
20
50.796028466772547
30
0
10
100.63158854414593
20
50.92203127430048
30
0
10
101.57825094249461
20
50.807065402840678
30
0
10
102.00000151991846
20
50.702366539387768
30
0
0
SPLINE
5
151
100
AcDbEntity
8
0
100
AcDbSpline
70
4
71
5
72
13
73
7
74
0
42
0.000000001
43
0.0000000001
44
0.0000000001
40
-1
40
-1
40
-1
40
-1
40
-1
40
-1
40
-0.80000000000000004
40
-0.66685247353207888
40
-0.66685247353207888
40
-0.66685247353207888
40
-0.66685247353207888
40
-0.66685247353207888
40
-0.66685247353207888
41
1
41
1
41
1
41
1
41
1
41
1
41
1
10
91.931997074058984
20
47.129834576059352
30
0
10
92.38185585533148
20
47.437201651852348
30
0
10
93.161410276124201
20
47.944856500394224
30
0
10
93.99122887864911
20
48.445263769464653
30
0
10
94.862405286481092
20
48.92915852337039
30
0
10
95.759949975920648
20
49.374026580242294
30
0
10
96.121837853083832
20
49.54384699026285
30
0
0
SPLINE
5
152
100
AcDbEntity
8
0
100
AcDbSpline
70
4
71
5
72
12
73
6
74
0
42
0.000000001
43
0.0000000001
44
0.0000000001
40
-0.0091504068665072096
40
-0.0091504068665072096
40
-0.0091504068665072096
40
-0.0091504068665072096
40
-0.0091504068665072096
40
-0.0091504068665072096
40
0
40
0
40
0
40
0
40
0
40
0
41
1
41
1
41
1
41
1
41
1
41
1
10
91.795497905892717
20
47.037287589612646
30
0
10
91.822830861363542
20
47.055676348470676
30
0
10
91.850147265309346
20
47.074125426921903
30
0
10
91.877447105566233
20
47.092634823919283
30
0
10
91.904730375487574
20
47.111204539800582
30
0
10
91.931997074059012
20
47.129834576059352
30
0
0
SPLINE
5
153
100
AcDbEntity
8
0
100
AcDbSpline
70
4
71
5
72
15
73
9
74
0
42
0.000000001
43
0.0000000001
44
0.0000000001
40
-0.6108577574137628
40
-0.6108577574137628
40
-0.6108577574137628
40
-0.6108577574137628
40
-0.6108577574137628
40
-0.6108577574137628
40
-0.60000000000000009
40
-0.40000000000000002
40
-0.20000000000000001
40
-0.0091504068665864517
40
-0.0091504068665864517
40
-0.0091504068665864517
40
-0.0091504068665864517
40
-0.0091504068665864517
40
-0.0091504068665864517
41
1
41
1
41
1
41
1
41
1
41
1
41
1
41
1
41
1
10
82.511842564808248
20
43.98507290019397
30
0
10
82.543912026888066
20
43.98186980827014
30
0
10
83.167511095136121
20
43.923156779972139
30
0
10
84.412812302166714
20
43.939914454223853
30
0
10
86.29907211214244
20
44.286973564520608
30
0
10
88.211019430918341
20
44.982319791595522
30
0
10
90.043173109793372
20
45.922036098765552
30
0
10
91.225415776556275
20
46.653754136129081
30
0
10
91.795497905891494
20
47.037287589611843
30
0
0
SPLINE
5
154
100
AcDbEntity
8
0
100
AcDbSpline
70
4
71
5
72
12
73
6
74
0
42
0.000000001
43
0.0000000001
44
0.0000000001
40
-0.64814085087278905
40
-0.64814085087278905
40
-0.64814085087278905
40
-0.64814085087278905
40
-0.64814085087278905
40
-0.64814085087278905
40
-0.61085775741392812
40
-0.61085775741392812
40
-0.61085775741392812
40
-0.61085775741392812
40
-0.61085775741392812
40
-0.61085775741392812
41
1
41
1
41
1
41
1
41
1
41
1
10
81.966398836119879
20
44.061786571087531
30
0
10
82.074409788925138
20
44.041993841516039
30
0
10
82.18298323229422
20
44.024479575054102
30
0
10
82.292095609868312
20
44.009189873999148
30
0
10
82.401723255050257
20
43.996071596426141
30
0
10
82.511842564805832
20
43.985072900194226
30
0
0
SPLINE
5
155
100
AcDbEntity
8
0
100
AcDbSpline
70
4
71
5
72
13
73
7
74
0
42
0.000000001
43
0.0000000001
44
0.0000000001
40
-1
40
-1
40
-1
40
-1
40
-1
40
-1
40
-0.80000000000000004
40
-0.6481408508727986
40
-0.6481408508727986
40
-0.6481408508727986
40
-0.6481408508727986
40
-0.6481408508727986
40
-0.6481408508727986
41
1
41
1
41
1
41
1
41
1
41
1
41
1
10
77.550347136235771
20
47.464440663741627
30
0
10
77.958602656952479
20
46.754829755441236
30
0
10
78.728620006195982
20
45.680894970954242
30
0
10
79.589638246700545
20
44.913649521659458
30
0
10
80.528724451705529
20
44.416783569012878
30
0
10
81.526455422960694
20
44.142405071130938
30
0
10
81.966398836119765
20
44.061786571087552
30
0
0
SPLINE
5
156
100
AcDbEntity
8
0
100
AcDbSpline
70
4
71
5
72
12
73
6
74
0
42
0.000000001
43
0.0000000001
44
0.0000000001
40
-0.045761236111682195
40
-0.045761236111682195
40
-0.045761236111682195
40
-0.045761236111682195
40
-0.045761236111682195
40
-0.045761236111682195
40
0
40
0
40
0
40
0
40
0
40
0
41
1
41
1
41
1
41
1
41
1
41
1
10
76.95205519325701
20
48.498249482738522
30
0
10
77.070536913151216
20
48.294777385984034
30
0
10
77.189599956028189
20
48.089656722159695
30
0
10
77.309253491456715
20
47.882892493413529
30
0
10
77.429502546280702
20
47.674487153965828
30
0
10
77.550347136235771
20
47.464440663741627
30
0
0
SPLINE
5
157
100
AcDbEntity
8
0
100
AcDbSpline
70
4
71
5
72
16
73
10
74
0
42
0.000000001
43
0.0000000001
44
0.0000000001
40
-0.44069834196105334
40
-0.44069834196105334
40
-0.44069834196105334
40
-0.44069834196105334
40
-0.44069834196105334
40
-0.44069834196105334
40
-0.40000000000000002
40
-0.30000000000000004
40
-0.20000000000000001
40
-0.10000000000000001
40
-0.045761236111682431
40
-0.045761236111682431
40
-0.045761236111682431
40
-0.045761236111682431
40
-0.045761236111682431
40
-0.045761236111682431
41
1
41
1
41
1
41
1
41
1
41
1
41
1
41
1
41
1
41
1
10
72.135477624434898
20
55.95182653123085
30
0
10
72.232404876289678
20
55.828675271972315
30
0
10
72.567178471701098
20
55.396836898115396
30
0
10
73.138455908515766
20
54.622439957933352
30
0
10
73.947290308654573
20
53.443551600582694
30
0
10
74.896396460195092
20
51.951711338036965
30
0
10
75.770855820628029
20
50.507241063876236
30
0
10
76.414602425161092
20
49.418635049939539
30
0
10
76.811624064719723
20
48.739415936083297
30
0
10
76.952055193256982
20
48.498249482738515
30
0
0
SPLINE
5
158
100
AcDbEntity
8
0
100
AcDbSpline
70
0
71
3
72
14
73
10
74
0
42
0.000000001
43
0.0000000001
44
0.0000000001
40
0
40
0
40
0
40
0
40
0.078128894677385485
40
0.078128894677385485
40
0.15625778935477022
40
0.15625778935477022
40
0.22029223592665698
40
0.22029223592665698
40
0.22845948458987747
40
0.22845948458987747
40
0.22845948458987747
40
0.22845948458987747
10
72.135477624434898
20
55.95182653123085
30
0
10
71.974408536677629
20
56.156473424703591
30
0
10
71.774907268223302
20
56.327703407850635
30
0
10
71.321499026285167
20
56.58405350888156
30
0
10
71.071926882720874
20
56.66672278007799
30
0
10
70.601755877480244
20
56.725878499248104
30
0
10
70.38707082907851
20
56.718450144544761
30
0
10
70.150928832086379
20
56.671973035733103
30
0
10
70.124346335021471
20
56.666174578677385
30
0
10
70.097908933394194
20
56.65984091897765
30
0
0
SPLINE
5
159
100
AcDbEntity
8
0
100
AcDbSpline
70
0
71
3
72
8
73
4
74
0
42
0.000000001
43
0.0000000001
44
0.0000000001
40
0.22845948471120003
40
0.22845948471120003
40
0.22845948471120003
40
0.22845948471120003
40
0.28432668249854182
40
0.28432668249854182
40
0.28432668249854182
40
0.28432668249854182
10
70.097908932426861
20
56.659840918745907
30
0
10
69.917066698230116
20
56.616516169441766
30
0
10
69.743013939542749
20
56.548147430367791
30
0
10
69.580837247653392
20
56.456615490386035
30
0
0
LINE
5
160
100
AcDbEntity
8
0
100
AcDbLine
10
69.580837247653392
20
56.456615490386028
30
0
11
68.009341450188131
21
55.569668930190417
31
0
0
SPLINE
5
161
100
AcDbEntity
8
0
100
AcDbSpline
70
4
71
5
72
15
73
9
74
0
42
0.000000001
43
0.0000000001
44
0.0000000001
40
0.23978718099245477
40
0.23978718099245477
40
0.23978718099245477
40
0.23978718099245477
40
0.23978718099245477
40
0.23978718099245477
40
0.40000000000000002
40
0.60000000000000009
40
0.80000000000000004
40
1
40
1
40
1
40
1
40
1
40
1
41
1
41
1
41
1
41
1
41
1
41
1
41
1
41
1
41
1
10
63.146559277011008
20
50.622567004937068
30
0
10
63.322200009186048
20
50.863513767954835
30
0
10
63.722381953228393
20
51.40580230029105
30
0
10
64.363467004309044
20
52.246809217282227
30
0
10
65.275714539054462
20
53.357375666818534
30
0
10
66.262961142318645
20
54.35458283700931
30
0
10
67.107176664021353
20
55.018753772075982
30
0
10
67.70309673709194
20
55.396825518647795
30
0
10
68.009341450188131
20
55.56966893019041
30
0
0
SPLINE
5
162
100
AcDbEntity
8
0
100
AcDbSpline
70
4
71
5
72
13
73
7
74
0
42
0.000000001
43
0.0000000001
44
0.0000000001
40
0
40
0
40
0
40
0
40
0
40
0
40
0.20000000000000001
40
0.2397871809924535
40
0.2397871809924535
40
0.2397871809924535
40
0.2397871809924535
40
0.2397871809924535
40
0.2397871809924535
41
1
41
1
41
1
41
1
41
1
41
1
41
1
10
61.88461089187912
20
48.839642281496978
30
0
10
62.08632452703921
20
49.131978573737001
30
0
10
62.332596604170263
20
49.485465785776732
30
0
10
62.584176812157693
20
49.842537584726031
30
0
10
62.84093610274688
20
50.202202713384494
30
0
10
63.102940734849525
20
50.562730391805118
30
0
10
63.146559277011036
20
50.622567004937068
30
0
0
ARC
5
163
100
AcDbEntity
8
0
100
AcDbCircle
10
66.000000983476653
20
46.000000685453408
30
0
40
4.9999999999999973
210
0
220
0
230
1
100
AcDbArc
50
145.39411286621365
51
259.38956289542358
0
SPLINE
5
164
100
AcDbEntity
8
0
100
AcDbSpline
70
4
71
5
72
13
73
7
74
0
42
0.000000001
43
0.0000000001
44
0.0000000001
40
0
40
0
40
0
40
0
40
0
40
0
40
0.20000000000000001
40
0.26245717038384353
40
0.26245717038384353
40
0.26245717038384353
40
0.26245717038384353
40
0.26245717038384353
40
0.26245717038384353
41
1
41
1
41
1
41
1
41
1
41
1
41
1
10
65.079348979122869
20
41.085491565828193
30
0
10
65.720637934927993
20
40.965356685993655
30
0
10
66.524320667788302
20
40.734777866753547
30
0
10
67.2783348646077
20
40.408585979842535
30
0
10
67.98298513630543
20
39.996170146423353
30
0
10
68.635313745831894
20
39.509925915579942
30
0
10
68.787534325204632
20
39.390205516606159
30
0
0
SPLINE
5
165
100
AcDbEntity
8
0
100
AcDbSpline
70
4
71
5
72
14
73
8
74
0
42
0.000000001
43
0.0000000001
44
0.0000000001
40
0.26245717038442129
40
0.26245717038442129
40
0.26245717038442129
40
0.26245717038442129
40
0.26245717038442129
40
0.26245717038442129
40
0.40000000000000002
40
0.60000000000000009
40
0.74781727299199763
40
0.74781727299199763
40
0.74781727299199763
40
0.74781727299199763
40
0.74781727299199763
40
0.74781727299199763
41
1
41
1
41
1
41
1
41
1
41
1
41
1
41
1
10
68.787534325211681
20
39.390205516600631
30
0
10
69.122753629640087
20
39.12655792679822
30
0
10
69.909533914005735
20
38.431836087994824
30
0
10
70.909474495411956
20
37.280488686543137
30
0
10
71.695141255491123
20
35.97022589841454
30
0
10
72.192627436763146
20
34.578020101209418
30
0
10
72.363977738816203
20
33.558529843695979
30
0
10
72.400624452991423
20
33.122567004937132
30
0
0
SPLINE
5
166
100
AcDbEntity
8
0
100
AcDbSpline
70
4
71
5
72
13
73
7
74
0
42
0.000000001
43
0.0000000001
44
0.0000000001
40
0.74781727299199785
40
0.74781727299199785
40
0.74781727299199785
40
0.74781727299199785
40
0.74781727299199785
40
0.74781727299199785
40
0.80000000000000004
40
1
40
1
40
1
40
1
40
1
40
1
41
1
41
1
41
1
41
1
41
1
41
1
41
1
10
72.400624452991437
20
33.122567004937132
30
0
10
72.413561543784951
20
32.968662597555607
30
0
10
72.454295497237467
20
32.223268225450695
30
0
10
72.386931816711723
20
31.471311194211307
30
0
10
72.198109139829995
20
30.718430090441153
30
0
10
71.876809645428153
20
29.9674892689664
30
0
10
71.538597126366568
20
29.37316402608073
30
0
0
SPLINE
5
167
100
AcDbEntity
8
0
100
AcDbSpline
70
4
71
5
72
13
73
7
74
0
42
0.000000001
43
0.0000000001
44
0.0000000001
40
0.57928303359263178
40
0.57928303359263178
40
0.57928303359263178
40
0.57928303359263178
40
0.57928303359263178
40
0.57928303359263178
40
0.60000000000000009
40
0.71204107986479037
40
0.71204107986479037
40
0.71204107986479037
40
0.71204107986479037
40
0.71204107986479037
40
0.71204107986479037
41
1
41
1
41
1
41
1
41
1
41
1
41
1
10
68.502137096269763
20
23.895883015751572
30
0
10
68.601835492171304
20
24.077431012951749
30
0
10
69.238763167393373
20
25.237701434933776
30
0
10
69.862636985071788
20
26.375742763185958
30
0
10
70.470190583418926
20
27.477369851268012
30
0
10
71.0581634276366
20
28.528920071183961
30
0
10
71.538597126366582
20
29.37316402608073
30
0
0
SPLINE
5
168
100
AcDbEntity
8
0
100
AcDbSpline
70
4
71
5
72
12
73
6
74
0
42
0.000000001
43
0.0000000001
44
0.0000000001
40
0.56127625332347708
40
0.56127625332347708
40
0.56127625332347708
40
0.56127625332347708
40
0.56127625332347708
40
0.56127625332347708
40
0.57928303359263256
40
0.57928303359263256
40
0.57928303359263256
40
0.57928303359263256
40
0.57928303359263256
40
0.57928303359263256
41
1
41
1
41
1
41
1
41
1
41
1
10
68.066631251419835
20
23.103569244395885
30
0
10
68.154161425194957
20
23.26262539607583
30
0
10
68.241485230743791
20
23.421420615725815
30
0
10
68.32859453869159
20
23.579919074568245
30
0
10
68.415481208873643
20
23.738085062633985
30
0
10
68.502137096269749
20
23.895883015751593
30
0
0
SPLINE
5
169
100
AcDbEntity
8
0
100
AcDbSpline
70
4
71
5
72
12
73
6
74
0
42
0.000000001
43
0.0000000001
44
0.0000000001
40
0.4467574914887294
40
0.4467574914887294
40
0.4467574914887294
40
0.4467574914887294
40
0.4467574914887294
40
0.4467574914887294
40
0.56127625332347675
40
0.56127625332347675
40
0.56127625332347675
40
0.56127625332347675
40
0.56127625332347675
40
0.56127625332347675
41
1
41
1
41
1
41
1
41
1
41
1
10
65.220570141883684
20
18.033091687558276
30
0
10
65.798213986748365
20
19.031071381621565
30
0
10
66.373669617040463
20
20.046448287100151
30
0
10
66.944942958598176
20
21.069898239360626
30
0
10
67.509960543271276
20
22.092010638119753
30
0
10
68.066631251419864
20
23.103569244395871
30
0
0
SPLINE
5
170
100
AcDbEntity
8
0
100
AcDbSpline
70
4
71
5
72
13
73
7
74
0
42
0.000000001
43
0.0000000001
44
0.0000000001
40
0.25585127097399296
40
0.25585127097399296
40
0.25585127097399296
40
0.25585127097399296
40
0.25585127097399296
40
0.25585127097399296
40
0.40000000000000002
40
0.44675749148837884
40
0.44675749148837884
40
0.44675749148837884
40
0.44675749148837884
40
0.44675749148837884
40
0.44675749148837884
41
1
41
1
41
1
41
1
41
1
41
1
41
1
10
60.433481215056879
20
10.622567004937121
30
0
10
61.139596802339028
20
11.542471128334155
30
0
10
62.089035959776396
20
12.889969482336083
30
0
10
63.052024222336058
20
14.380905586193615
30
0
10
64.020281725605088
20
15.973800185803185
30
0
10
64.984720777745764
20
17.625621101037151
30
0
10
65.220570141874845
20
18.033091687543006
30
0
0
SPLINE
5
171
100
AcDbEntity
8
0
100
AcDbSpline
70
4
71
5
72
13
73
7
74
0
42
0.000000001
43
0.0000000001
44
0.0000000001
40
0
40
0
40
0
40
0
40
0
40
0
40
0.20000000000000001
40
0.25585127097399302
40
0.25585127097399302
40
0.25585127097399302
40
0.25585127097399302
40
0.25585127097399302
40
0.25585127097399302
41
1
41
1
41
1
41
1
41
1
41
1
41
1
10
54.647052255243167
20
6.2749311797205776
30
0
10
55.460664363189551
20
6.2714359786960259
30
0
10
56.551376437216121
20
6.6327246625188128
30
0
10
57.705841849159505
20
7.4614359387460869
30
0
10
58.914015385549085
20
8.700487938796126
30
0
10
60.159892587042393
20
10.266144754022427
30
0
10
60.433481215056872
20
10.622567004937121
30
0
0
LINE
5
172
100
AcDbEntity
8
0
100
AcDbLine
10
54.647052255243167
20
6.2749311797205776
30
0
11
36.302646556979212
21
6.3537370197087517
31
0
0
SPLINE
5
173
100
AcDbEntity
8
0
100
AcDbSpline
70
4
71
5
72
16
73
10
74
0
42
0.000000001
43
0.0000000001
44
0.0000000001
40
0
40
0
40
0
40
0
40
0
40
0
40
0.20000000000000001
40
0.40000000000000002
40
0.60000000000000009
40
0.80000000000000004
40
1
40
1
40
1
40
1
40
1
40
1
41
1
41
1
41
1
41
1
41
1
41
1
41
1
41
1
41
1
41
1
10
32.479022750417641
20
9.9086611150131816
30
0
10
32.629349362967062
20
9.9080278023580135
30
0
10
32.928595821803398
20
9.8346100794951816
30
0
10
33.373251073763974
20
9.5082542646685102
30
0
10
33.96064671842317
20
8.7257085213360526
30
0
10
34.701467889285674
20
7.5418391952815265
30
0
10
35.315962590300863
20
6.7581262137696037
30
0
10
35.799026885280711
20
6.4301160054888324
30
0
10
36.132814081414665
20
6.3552105087793631
30
0
10
36.302646556979219
20
6.3537370197087517
30
0
0
LINE
5
174
100
AcDbEntity
8
0
100
AcDbLine
10
11.156619347827753
20
10.622567004937121
30
0
11
5.9520331784389224
21
10.622567004937121
31
0
0
LINE
5
175
100
AcDbEntity
8
0
100
AcDbLine
10
5.9520331784389224
20
10.622567004937121
30
0
11
3.0652818324908004
21
15.622567004937098
31
0
0
LINE
5
176
100
AcDbEntity
8
0
100
AcDbLine
10
3.0652818324908004
20
15.622567004937098
30
0
11
5.5696907999374199
21
19.960330579485767
31
0
0
LINE
5
177
100
AcDbEntity
8
0
100
AcDbLine
10
5.5696907999374199
20
19.960330579485767
30
0
11
8.4438485522678981
21
19.960330579485767
31
0
0
SPLINE
5
178
100
AcDbEntity
8
0
100
AcDbSpline
70
4
71
5
72
15
73
9
74
0
42
0.000000001
43
0.0000000001
44
0.0000000001
40
-0.64703839429545851
40
-0.64703839429545851
40
-0.64703839429545851
40
-0.64703839429545851
40
-0.64703839429545851
40
-0.64703839429545851
40
-0.60000000000000009
40
-0.40000000000000002
40
-0.20000000000000001
40
0
40
0
40
0
40
0
40
0
40
0
41
1
41
1
41
1
41
1
41
1
41
1
41
1
41
1
41
1
10
11.156619347826762
20
10.622567004941041
30
0
10
11.113369748952779
20
10.793065094211855
30
0
10
10.894600172877524
20
11.703902235639704
30
0
10
10.572750735091056
20
13.483506435815226
30
0
10
10.223940121329909
20
16.191867308788016
30
0
10
9.8406582436115695
20
18.505685620766304
30
0
10
9.2578068360213912
20
19.695700247586917
30
0
10
8.7371993535767309
20
19.960330579485767
30
0
10
8.4438485522678963
20
19.960330579485767
30
0
0
LWPOLYLINE
5
179
100
AcDbEntity
8
0
100
AcDbPolyline
90
5
70
1
43
0.0
10
18.942414235205494
20
-61.877432995062932
10
18.403620795121363
20
-62.810650608073445
10
18.41891315422837
20
-62.812137461259745
10
25.676962972713284
20
-63.508692577684506
10
24.735154813568556
20
-61.877432995062932
0
LWPOLYLINE
5
180
100
AcDbEntity
8
0
100
AcDbPolyline
90
4
70
1
43
0.0
10
50.832567176287505
20
3.291290166451649
10
44.830114334406403
20
3.3170761388060761
10
44.94241423520549
20
3.1225670049371068
10
50.73515481356857
20
3.1225670049371201
0
LINE
5
181
100
AcDbEntity
8
0
100
AcDbLine
10
43.038625664472427
20
-65.174891526441542
30
0
11
44.94241423520549
21
-61.877432995062932
31
0
0
LINE
5
182
100
AcDbEntity
8
0
100
AcDbLine
10
44.94241423520549
20
-61.877432995062932
30
0
11
50.735154813568556
21
-61.877432995062932
31
0
0
LINE
5
183
100
AcDbEntity
8
0
100
AcDbLine
10
50.735154813568556
20
-61.877432995062932
30
0
11
53.036972441982385
21
-65.8642980772334
31
0
0
SPLINE
5
184
100
AcDbEntity
8
0
100
AcDbSpline
70
4
71
5
72
12
73
6
74
0
42
0.000000001
43
0.0000000001
44
0.0000000001
40
-1
40
-1
40
-1
40
-1
40
-1
40
-1
40
-0.83092783788985236
40
-0.83092783788985236
40
-0.83092783788985236
40
-0.83092783788985236
40
-0.83092783788985236
40
-0.83092783788985236
41
1
41
1
41
1
41
1
41
1
41
1
10
51.655687610245678
20
-66.001871050829862
30
0
10
51.949310507207741
20
-66.030050043299369
30
0
10
52.233967306051916
20
-66.029485337611789
30
0
10
52.509665812665801
20
-66.000201837116279
30
0
10
52.777029338596407
20
-65.944175635752629
30
0
10
53.036972441984403
20
-65.864298077232775
30
0
0
LINE
5
185
100
AcDbEntity
8
0
100
AcDbLine
10
51.655687610245678
20
-66.001871050829862
30
0
11
43.038625664472427
21
-65.174891526441542
31
0
0
LWPOLYLINE
5
186
100
AcDbEntity
8
0
100
AcDbPolyline
90
4
70
1
43
0.0
10
70.94241423520549
20
-61.877432995062932
10
70.486987428545746
20
-62.666255363326457
10
77.190581620228286
20
-62.666255363326457
10
76.735154813568556
20
-61.877432995062932
0
SPLINE
5
187
100
AcDbEntity
8
0
100
AcDbSpline
70
4
71
5
72
12
73
6
74
0
42
0.000000001
43
0.0000000001
44
0.0000000001
40
0.40605307950011077
40
0.40605307950011077
40
0.40605307950011077
40
0.40605307950011077
40
0.40605307950011077
40
0.40605307950011077
40
0.5110092029255785
40
0.5110092029255785
40
0.5110092029255785
40
0.5110092029255785
40
0.5110092029255785
40
0.5110092029255785
41
1
41
1
41
1
41
1
41
1
41
1
10
14.106929564817232
20
-58.502127866730042
30
0
10
14.165016540837435
20
-58.73563864380931
30
0
10
14.229659066683226
20
-58.966128166040775
30
0
10
14.301020143434249
20
-59.192952018365105
30
0
10
14.379329735388362
20
-59.415407801369184
30
0
10
14.464877771078406
20
-59.632753643673283
30
0
0
LINE
5
188
100
AcDbEntity
8
0
100
AcDbLine
10
14.106929564817232
20
-58.502127866730042
30
0
11
14.61228721628328
21
-59.377432995062911
31
0
0
LINE
5
189
100
AcDbEntity
8
0
100
AcDbLine
10
14.61228721628328
20
-59.377432995062911
30
0
11
14.464877771078404
21
-59.632753643673297
31
0
0
LINE
5
190
100
AcDbEntity
8
0
100
AcDbLine
10
97.974966470562606
20
-41.877432995062883
30
0
11
96.94241423520549
21
-41.87743299506289
31
0
0
LINE
5
191
100
AcDbEntity
8
0
100
AcDbLine
10
96.94241423520549
20
-41.87743299506289
30
0
11
94.055662889257377
21
-36.877432995062904
31
0
0
LINE
5
192
100
AcDbEntity
8
0
100
AcDbLine
10
94.055662889257377
20
-36.877432995062904
30
0
11
96.942414235205504
21
-31.877432995062929
31
0
0
LINE
5
193
100
AcDbEntity
8
0
100
AcDbLine
10
96.942414235205504
20
-31.877432995062929
30
0
11
99.104037460021004
21
-31.877432995062911
31
0
0
SPLINE
5
194
100
AcDbEntity
8
0
100
AcDbSpline
70
4
71
5
72
12
73
6
74
0
42
0.000000001
43
0.0000000001
44
0.0000000001
40
-1
40
-1
40
-1
40
-1
40
-1
40
-1
40
-0.84890302697674735
40
-0.84890302697674735
40
-0.84890302697674735
40
-0.84890302697674735
40
-0.84890302697674735
40
-0.84890302697674735
41
1
41
1
41
1
41
1
41
1
41
1
10
98.817289421177975
20
-34.858075073268061
30
0
10
98.888782637084944
20
-34.262298274043196
30
0
10
98.953089539476608
20
-33.666341594839217
30
0
10
99.010214850083429
20
-33.070205168919884
30
0
10
99.060415859595139
20
-32.473897903616489
30
0
10
99.104037460021146
20
-31.877432995060726
30
0
0
LINE
5
195
100
AcDbEntity
8
0
100
AcDbLine
10
98.817289421177975
20
-34.858075073268061
30
0
11
97.974966470562606
21
-41.877432995062883
31
0
0
LINE
5
196
100
AcDbEntity
8
0
100
AcDbLine
10
99.302677175112933
20
-26.87743299506289
30
0
11
96.94241423520549
21
-26.877432995062893
31
0
0
LINE
5
197
100
AcDbEntity
8
0
100
AcDbLine
10
96.94241423520549
20
-26.877432995062893
30
0
11
94.055662889257377
21
-21.877432995062911
31
0
0
LINE
5
198
100
AcDbEntity
8
0
100
AcDbLine
10
94.055662889257377
20
-21.877432995062911
30
0
11
96.94241423520549
21
-16.877432995062929
31
0
0
LINE
5
199
100
AcDbEntity
8
0
100
AcDbLine
10
96.94241423520549
20
-16.877432995062929
30
0
11
97.730548471355675
21
-16.877432995062929
31
0
0
SPLINE
5
200
100
AcDbEntity
8
0
100
AcDbSpline
70
4
71
5
72
13
73
7
74
0
42
0.000000001
43
0.0000000001
44
0.0000000001
40
-1
40
-1
40
-1
40
-1
40
-1
40
-1
40
-0.80000000000000004
40
-0.66632182874905921
40
-0.66632182874905921
40
-0.66632182874905921
40
-0.66632182874905921
40
-0.66632182874905921
40
-0.66632182874905921
41
1
41
1
41
1
41
1
41
1
41
1
41
1
10
99.171327853099768
20
-20.301746989541964
30
0
10
99.147493977593882
20
-19.794298415462151
30
0
10
99.026627739084716
20
-19.00023931625093
30
0
10
98.770578696622408
20
-18.293795635451758
30
0
10
98.396830570881093
20
-17.664130437660187
30
0
10
97.930551252787211
20
-17.096090002112373
30
0
10
97.730548471355661
20
-16.877432995062943
30
0
0
SPLINE
5
201
100
AcDbEntity
8
0
100
AcDbSpline
70
4
71
5
72
13
73
7
74
0
42
0.000000001
43
0.0000000001
44
0.0000000001
40
-0.59576884069279545
40
-0.59576884069279545
40
-0.59576884069279545
40
-0.59576884069279545
40
-0.59576884069279545
40
-0.59576884069279545
40
-0.40000000000000002
40
-0.26312342325683979
40
-0.26312342325683979
40
-0.26312342325683979
40
-0.26312342325683979
40
-0.26312342325683979
40
-0.26312342325683979
41
1
41
1
41
1
41
1
41
1
41
1
41
1
10
99.302677175112933
20
-26.87743299506289
30
0
10
99.310441977520469
20
-26.103611304968727
30
0
10
99.310348929165286
20
-24.78855243009134
30
0
10
99.289831066075521
20
-23.473273811383763
30
0
10
99.251668342240123
20
-22.157982315779453
30
0
10
99.196742665043104
20
-20.842855382844505
30
0
10
99.17132785309974
20
-20.301746989541968
30
0
0
CIRCLE
5
202
100
AcDbEntity
8
0
100
AcDbCircle
10
94.000001400709152
20
-8.0000001192092896
30
0
40
1.9999999999999929
210
-0
220
0
230
1
0
LINE
5
203
100
AcDbEntity
8
0
100
AcDbLine
10
97.157921038745513
20
3.1225670049371135
30
0
11
96.94241423520549
21
3.1225670049371068
31
0
0
LINE
5
204
100
AcDbEntity
8
0
100
AcDbLine
10
96.94241423520549
20
3.1225670049371068
30
0
11
94.055662889257377
21
8.1225670049370891
31
0
0
LINE
5
205
100
AcDbEntity
8
0
100
AcDbLine
10
94.055662889257377
20
8.1225670049370891
30
0
11
96.94241423520549
21
13.122567004937071
31
0
0
LINE
5
206
100
AcDbEntity
8
0
100
AcDbLine
10
96.94241423520549
20
13.122567004937071
30
0
11
99.022043461104801
21
13.122567004937075
31
0
0
SPLINE
5
207
100
AcDbEntity
8
0
100
AcDbSpline
70
4
71
5
72
14
73
8
74
0
42
0.000000001
43
0.0000000001
44
0.0000000001
40
-0.89537870350125115
40
-0.89537870350125115
40
-0.89537870350125115
40
-0.89537870350125115
40
-0.89537870350125115
40
-0.89537870350125115
40
-0.80000000000000004
40
-0.60000000000000009
40
-0.46244596338143557
40
-0.46244596338143557
40
-0.46244596338143557
40
-0.46244596338143557
40
-0.46244596338143557
40
-0.46244596338143557
41
1
41
1
41
1
41
1
41
1
41
1
41
1
41
1
10
97.250786788881783
20
4.1548616278535349
30
0
10
97.255095198764892
20
4.5626807118554291
30
0
10
97.296237966075637
20
5.8226846353950492
30
0
10
97.480351813881981
20
7.6553397334821653
30
0
10
97.832133904909426
20
9.4631072860644778
30
0
10
98.332493187349414
20
11.232967220308897
30
0
10
98.81178547277058
20
12.579911615752327
30
0
10
99.022043461102555
20
13.12256700493127
30
0
0
SPLINE
5
208
100
AcDbEntity
8
0
100
AcDbSpline
70
4
71
5
72
12
73
6
74
0
42
0.000000001
43
0.0000000001
44
0.0000000001
40
0.90950689611304614
40
0.90950689611304614
40
0.90950689611304614
40
0.90950689611304614
40
0.90950689611304614
40
0.90950689611304614
40
1
40
1
40
1
40
1
40
1
40
1
41
1
41
1
41
1
41
1
41
1
41
1
10
97.157921038745513
20
3.1225670049371121
30
0
10
97.192542070795298
20
3.3181996141910779
30
0
10
97.219302189569348
20
3.5191326093956388
30
0
10
97.237993600804131
20
3.7255098502633786
30
0
10
97.248489610787189
20
3.9374187448084443
30
0
10
97.250786788881783
20
4.1548616278535331
30
0
0
LINE
5
209
100
AcDbEntity
8
0
100
AcDbLine
10
109.68302830570907
20
26.088497111988765
30
0
11
107.12422961553358
21
30.52046644971341
31
0
0
SPLINE
5
210
100
AcDbEntity
8
0
100
AcDbSpline
70
4
71
5
72
15
73
9
74
0
42
0.000000001
43
0.0000000001
44
0.0000000001
40
-1
40
-1
40
-1
40
-1
40
-1
40
-1
40
-0.80000000000000004
40
-0.60000000000000009
40
-0.40000000000000002
40
-0.24545089372087259
40
-0.24545089372087259
40
-0.24545089372087259
40
-0.24545089372087259
40
-0.24545089372087259
40
-0.24545089372087259
41
1
41
1
41
1
41
1
41
1
41
1
41
1
41
1
41
1
10
111.30907765424462
20
27.934670725205581
30
0
10
111.58557644029503
20
28.322985619436363
30
0
10
111.94674540387489
20
29.017708706091504
30
0
10
111.91356552339766
20
29.814285988417456
30
0
10
110.96531913890789
20
30.410048670352978
30
0
10
109.40991242413924
20
30.629815376965951
30
0
10
108.19521321018939
20
30.627638085794658
30
0
10
107.4434742336757
20
30.561557747105482
30
0
10
107.12422961553357
20
30.52046644971341
30
0
0
SPLINE
5
211
100
AcDbEntity
8
0
100
AcDbSpline
70
4
71
5
72
13
73
7
74
0
42
0.000000001
43
0.0000000001
44
0.0000000001
40
0.0078209849153769509
40
0.0078209849153769509
40
0.0078209849153769509
40
0.0078209849153769509
40
0.0078209849153769509
40
0.0078209849153769509
40
0.20000000000000001
40
0.20440002626756043
40
0.20440002626756043
40
0.20440002626756043
40
0.20440002626756043
40
0.20440002626756043
40
0.20440002626756043
41
1
41
1
41
1
41
1
41
1
41
1
41
1
10
109.68302830570906
20
26.088497111988772
30
0
10
110.04941793425785
20
26.430335990908191
30
0
10
110.39980718255694
20
26.789925311908735
30
0
10
110.72530068723523
20
27.15960080222078
30
0
10
111.02637653112126
20
27.538604417094838
30
0
10
111.30290052321956
20
27.925995562414059
30
0
10
111.30907765424465
20
27.934670725205571
30
0
0
LINE
5
212
100
AcDbEntity
8
0
100
AcDbLine
10
90.215428715838982
20
41.471086303614236
30
0
11
89.72553587033515
21
40.622567004937125
31
0
0
LINE
5
213
100
AcDbEntity
8
0
100
AcDbLine
10
89.72553587033515
20
40.622567004937125
30
0
11
87.418853108875027
21
40.622567004937125
31
0
0
LINE
5
214
100
AcDbEntity
8
0
100
AcDbLine
10
87.418853108875027
20
40.622567004937125
30
0
11
87.697642825567897
21
40.8229120203478
31
0
0
SPLINE
5
215
100
AcDbEntity
8
0
100
AcDbSpline
70
4
71
5
72
13
73
7
74
0
42
0.000000001
43
0.0000000001
44
0.0000000001
40
0.74760387318066945
40
0.74760387318066945
40
0.74760387318066945
40
0.74760387318066945
40
0.74760387318066945
40
0.74760387318066945
40
0.80000000000000004
40
1
40
1
40
1
40
1
40
1
40
1
41
1
41
1
41
1
41
1
41
1
41
1
41
1
10
90.21542871583901
20
41.471086303614236
30
0
10
90.119409395273422
20
41.493675418832595
30
0
10
89.65259517762135
20
41.580902980587737
30
0
10
89.165258450529379
20
41.560523631308079
30
0
10
88.657692020438674
20
41.415594273262485
30
0
10
88.129353194575458
20
41.133149505280059
30
0
10
87.697642825567897
20
40.8229120203478
30
0
0
LINE
5
216
100
AcDbEntity
8
0
100
AcDbLine
10
73.847551620451938
20
28.122567004937085
30
0
11
76.735154813568556
21
28.122567004937071
31
0
0
LINE
5
217
100
AcDbEntity
8
0
100
AcDbLine
10
76.735154813568556
20
28.122567004937071
30
0
11
79.621906159516669
21
23.122567004937096
31
0
0
LINE
5
218
100
AcDbEntity
8
0
100
AcDbLine
10
79.621906159516669
20
23.122567004937096
30
0
11
76.735154813568556
21
18.122567004937125
31
0
0
LINE
5
219
100
AcDbEntity
8
0
100
AcDbLine
10
76.735154813568556
20
18.122567004937125
30
0
11
72.673645541316091
21
18.122567004937114
31
0
0
SPLINE
5
220
100
AcDbEntity
8
0
100
AcDbSpline
70
4
71
5
72
14
73
8
74
0
42
0.000000001
43
0.0000000001
44
0.0000000001
40
-1
40
-1
40
-1
40
-1
40
-1
40
-1
40
-0.80000000000000004
40
-0.60000000000000009
40
-0.43229946486940163
40
-0.43229946486940163
40
-0.43229946486940163
40
-0.43229946486940163
40
-0.43229946486940163
40
-0.43229946486940163
41
1
41
1
41
1
41
1
41
1
41
1
41
1
41
1
10
71.629619137697901
20
24.246471281007409
30
0
10
71.370911411152207
20
23.781721725463349
30
0
10
70.999065150526931
20
22.865787485911966
30
0
10
70.884129561584004
20
21.604317049218004
30
0
10
71.262507653484036
20
20.390633584920941
30
0
10
71.930959560263133
20
19.212510556819179
30
0
10
72.434041408988094
20
18.462230823582427
30
0
10
72.673645541315835
20
18.122567004937487
30
0
0
SPLINE
5
221
100
AcDbEntity
8
0
100
AcDbSpline
70
4
71
5
72
12
73
6
74
0
42
0.000000001
43
0.0000000001
44
0.0000000001
40
0.22746416279651999
40
0.22746416279651999
40
0.22746416279651999
40
0.22746416279651999
40
0.22746416279651999
40
0.22746416279651999
40
0.3322463081145336
40
0.3322463081145336
40
0.3322463081145336
40
0.3322463081145336
40
0.3322463081145336
40
0.3322463081145336
41
1
41
1
41
1
41
1
41
1
41
1
10
73.847551620451753
20
28.122567004936773
30
0
10
73.431131229064519
20
27.425505000563444
30
0
10
73.000081753925755
20
26.683851791641857
30
0
10
72.555412808052111
20
25.902821589405004
30
0
10
72.098220711195324
20
25.088279818842935
30
0
10
71.629619137697901
20
24.246471281007409
30
0
0
LINE
5
222
100
AcDbEntity
8
0
100
AcDbLine
10
97.374966470562597
20
-46.877432995062939
30
0
11
97.261820246969833
21
-47.820318191669216
31
0
0
SPLINE
5
223
100
AcDbEntity
8
0
100
AcDbSpline
70
4
71
5
72
14
73
8
74
0
42
0.000000001
43
0.0000000001
44
0.0000000001
40
-0.4825149617133036
40
-0.4825149617133036
40
-0.4825149617133036
40
-0.4825149617133036
40
-0.4825149617133036
40
-0.4825149617133036
40
-0.40000000000000002
40
-0.20000000000000001
40
0
40
0
40
0
40
0
40
0
40
0
41
1
41
1
41
1
41
1
41
1
41
1
41
1
41
1
10
95.167964122662198
20
-49.950870745484259
30
0
10
95.279530071151655
20
-49.925088184574669
30
0
10
95.655102336769673
20
-49.826985334162792
30
0
10
96.253814303417983
20
-49.598427648669706
30
0
10
96.747772871624008
20
-49.243392148834964
30
0
10
97.079968146615272
20
-48.716105845025758
30
0
10
97.223242454173203
20
-48.141799798307794
30
0
10
97.261820246969833
20
-47.820318191669216
30
0
0
LINE
5
224
100
AcDbEntity
8
0
100
AcDbLine
10
95.167964122662198
20
-49.950870745484259
30
0
11
96.94241423520549
21
-46.877432995062932
31
0
0
LINE
5
225
100
AcDbEntity
8
0
100
AcDbLine
10
96.94241423520549
20
-46.877432995062932
30
0
11
97.374966470562597
21
-46.877432995062939
31
0
0
CIRCLE
5
226
100
AcDbEntity
8
0
100
AcDbCircle
10
9.0000001341104507
20
-53.000000789761543
30
0
40
1.9999999999999973
210
-0
220
0
230
1
0
LWPOLYLINE
5
227
100
AcDbEntity
8
0
100
AcDbPolyline
90
6
70
1
43
0.0
10
76.735154813568556
20
-1.8774329950629287
10
70.94241423520549
20
-1.8774329950629287
10
68.055662889257377
20
-6.8774329950629021
10
70.94241423520549
20
-11.87743299506289
10
76.735154813568556
20
-11.877432995062875
10
79.621906159516669
20
-6.8774329950629021
0
LWPOLYLINE
5
228
100
AcDbEntity
8
0
100
AcDbPolyline
90
6
70
1
43
0.0
10
89.725535870335136
20
20.622567004937082
10
83.95203317843891
20
20.622567004937082
10
81.065281832490797
20
15.622567004937098
10
83.952033178438924
20
10.622567004937121
10
89.72553587033515
20
10.622567004937121
10
92.612287216283278
20
15.622567004937098
0
LWPOLYLINE
5
229
100
AcDbEntity
8
0
100
AcDbPolyline
90
6
70
1
43
0.0
10
24.735154813568556
20
-31.877432995062925
10
18.942414235205494
20
-31.877432995062929
10
16.05566288925737
20
-36.877432995062904
10
18.942414235205483
20
-41.87743299506289
10
24.735154813568553
20
-41.877432995062875
10
27.621906159516666
20
-36.877432995062897
0
LWPOLYLINE
5
230
100
AcDbEntity
8
0
100
AcDbPolyline
90
6
70
1
43
0.0
10
5.9520331784388958
20
-34.377432995062904
10
11.72553587033514
20
-34.377432995062911
10
14.61228721628328
20
-29.377432995062915
10
11.725535870335158
20
-24.377432995062911
10
5.9520331784389136
20
-24.377432995062904
10
3.0652818324907738
20
-29.377432995062893
0
LWPOLYLINE
5
231
100
AcDbEntity
8
0
100
AcDbPolyline
90
6
70
1
43
0.0
10
18.942414235205494
20
-26.877432995062893
10
24.735154813568574
20
-26.877432995062879
10
27.621906159516687
20
-21.877432995062907
10
24.735154813568574
20
-16.877432995062925
10
18.942414235205494
20
-16.877432995062929
10
16.05566288925738
20
-21.877432995062911
0
LWPOLYLINE
5
232
100
AcDbEntity
8
0
100
AcDbPolyline
90
6
70
1
43
0.0
10
37.725535870335143
20
-9.3774329950629198
10
31.952033178438917
20
-9.3774329950629198
10
29.065281832490804
20
-14.377432995062902
10
31.952033178438928
20
-19.377432995062879
10
37.72553587033515
20
-19.377432995062879
10
40.612287216283278
20
-14.377432995062902
0
LWPOLYLINE
5
233
100
AcDbEntity
8
0
100
AcDbPolyline
90
6
70
1
43
0.0
10
50.73515481356857
20
-16.877432995062925
10
44.94241423520549
20
-16.877432995062929
10
42.055662889257377
20
-21.877432995062911
10
44.94241423520549
20
-26.877432995062893
10
50.73515481356857
20
-26.877432995062879
10
53.621906159516683
20
-21.877432995062907
0
LWPOLYLINE
5
234
100
AcDbEntity
8
0
100
AcDbPolyline
90
6
70
1
43
0.0
10
83.95203317843891
20
-34.377432995062904
10
89.72553587033515
20
-34.377432995062911
10
92.612287216283278
20
-29.377432995062915
10
89.725535870335165
20
-24.377432995062911
10
83.952033178438924
20
-24.377432995062904
10
81.065281832490768
20
-29.377432995062893
0
LWPOLYLINE
5
235
100
AcDbEntity
8
0
100
AcDbPolyline
90
6
70
1
43
0.0
10
24.735154813568574
20
-46.877432995062932
10
18.942414235205494
20
-46.877432995062932
10
16.05566288925738
20
-51.877432995062911
10
18.942414235205494
20
-56.87743299506289
10
24.735154813568574
20
-56.877432995062875
10
27.621906159516687
20
-51.877432995062911
0
LWPOLYLINE
5
236
100
AcDbEntity
8
0
100
AcDbPolyline
90
6
70
1
43
0.0
10
37.725535870335143
20
-39.377432995062918
10
31.952033178438917
20
-39.377432995062918
10
29.065281832490804
20
-44.377432995062904
10
31.952033178438928
20
-49.377432995062875
10
37.72553587033515
20
-49.377432995062875
10
40.612287216283278
20
-44.377432995062904
0
LWPOLYLINE
5
237
100
AcDbEntity
8
0
100
AcDbPolyline
90
6
70
1
43
0.0
10
50.73515481356857
20
-46.877432995062932
10
44.94241423520549
20
-46.877432995062932
10
42.055662889257377
20
-51.877432995062911
10
44.94241423520549
20
-56.87743299506289
10
50.73515481356857
20
-56.877432995062875
10
53.621906159516683
20
-51.877432995062911
0
LWPOLYLINE
5
238
100
AcDbEntity
8
0
100
AcDbPolyline
90
6
70
1
43
0.0
10
89.725535870335136
20
-39.377432995062918
10
83.95203317843891
20
-39.377432995062918
10
81.065281832490797
20
-44.377432995062904
10
83.952033178438924
20
-49.377432995062875
10
89.72553587033515
20
-49.377432995062875
10
92.612287216283278
20
-44.377432995062904
0
LWPOLYLINE
5
239
100
AcDbEntity
8
0
100
AcDbPolyline
90
6
70
1
43
0.0
10
44.94241423520549
20
-41.87743299506289
10
50.735154813568556
20
-41.877432995062875
10
53.621906159516669
20
-36.877432995062897
10
50.735154813568556
20
-31.877432995062925
10
44.94241423520549
20
-31.877432995062929
10
42.055662889257377
20
-36.877432995062904
0
LWPOLYLINE
5
240
100
AcDbEntity
8
0
100
AcDbPolyline
90
6
70
1
43
0.0
10
63.725535870335143
20
-9.3774329950629198
10
57.952033178438917
20
-9.3774329950629198
10
55.065281832490804
20
-14.377432995062902
10
57.952033178438924
20
-19.377432995062879
10
63.72553587033515
20
-19.377432995062879
10
66.612287216283278
20
-14.377432995062902
0
LWPOLYLINE
5
241
100
AcDbEntity
8
0
100
AcDbPolyline
90
6
70
1
43
0.0
10
76.73515481356857
20
-16.877432995062925
10
70.94241423520549
20
-16.877432995062929
10
68.055662889257377
20
-21.877432995062911
10
70.94241423520549
20
-26.877432995062893
10
76.73515481356857
20
-26.877432995062879
10
79.621906159516683
20
-21.877432995062907
0
LWPOLYLINE
5
242
100
AcDbEntity
8
0
100
AcDbPolyline
90
6
70
1
43
0.0
10
57.952033178438896
20
-34.377432995062904
10
63.725535870335143
20
-34.377432995062911
10
66.612287216283278
20
-29.377432995062915
10
63.725535870335158
20
-24.377432995062911
10
57.952033178438917
20
-24.377432995062904
10
55.065281832490776
20
-29.377432995062893
0
LWPOLYLINE
5
243
100
AcDbEntity
8
0
100
AcDbPolyline
90
6
70
1
43
0.0
10
57.952033178438924
20
-49.37743299506289
10
63.72553587033515
20
-49.37743299506289
10
66.612287216283264
20
-44.377432995062911
10
63.725535870335143
20
-39.377432995062932
10
57.952033178438917
20
-39.377432995062932
10
55.065281832490797
20
-44.377432995062911
0
LWPOLYLINE
5
244
100
AcDbEntity
8
0
100
AcDbPolyline
90
6
70
1
43
0.0
10
76.73515481356857
20
-46.877432995062932
10
70.94241423520549
20
-46.877432995062932
10
68.055662889257377
20
-51.877432995062911
10
70.94241423520549
20
-56.87743299506289
10
76.73515481356857
20
-56.877432995062875
10
79.621906159516683
20
-51.877432995062911
0
LWPOLYLINE
5
245
100
AcDbEntity
8
0
100
AcDbPolyline
90
6
70
1
43
0.0
10
70.94241423520549
20
-41.87743299506289
10
76.735154813568556
20
-41.877432995062875
10
79.621906159516669
20
-36.877432995062897
10
76.735154813568556
20
-31.877432995062925
10
70.94241423520549
20
-31.877432995062929
10
68.055662889257377
20
-36.877432995062904
0
LWPOLYLINE
5
246
100
AcDbEntity
8
0
100
AcDbPolyline
90
6
70
1
43
0.0
10
31.952033178438896
20
-34.377432995062904
10
37.725535870335143
20
-34.377432995062911
10
40.612287216283285
20
-29.377432995062915
10
37.725535870335158
20
-24.377432995062911
10
31.952033178438914
20
-24.377432995062904
10
29.065281832490776
20
-29.377432995062893
0
LWPOLYLINE
5
247
100
AcDbEntity
8
0
100
AcDbPolyline
90
6
70
1
43
0.0
10
11.72553587033514
20
-9.3774329950629198
10
5.9520331784389136
20
-9.3774329950629198
10
3.0652818324908004
20
-14.377432995062902
10
5.9520331784389224
20
-19.377432995062879
10
11.725535870335149
20
-19.377432995062879
10
14.612287216283271
20
-14.377432995062902
0
LWPOLYLINE
5
248
100
AcDbEntity
8
0
100
AcDbPolyline
90
6
70
1
43
0.0
10
83.95203317843891
20
-4.3774329950629021
10
89.72553587033515
20
-4.3774329950629109
10
92.612287216283278
20
0.62256700493708461
10
89.725535870335165
20
5.6225670049370891
10
83.952033178438924
20
5.6225670049370979
10
81.065281832490768
20
0.62256700493710682
0
LWPOLYLINE
5
249
100
AcDbEntity
8
0
100
AcDbPolyline
90
6
70
1
43
0.0
10
50.735154813568556
20
-1.8774329950629287
10
44.94241423520549
20
-1.8774329950629287
10
42.055662889257377
20
-6.8774329950629021
10
44.94241423520549
20
-11.87743299506289
10
50.735154813568556
20
-11.877432995062875
10
53.621906159516669
20
-6.8774329950629021
0
LWPOLYLINE
5
250
100
AcDbEntity
8
0
100
AcDbPolyline
90
6
70
1
43
0.0
10
24.735154813568556
20
-1.8774329950629287
10
18.942414235205494
20
-1.8774329950629287
10
16.05566288925737
20
-6.8774329950629021
10
18.942414235205483
20
-11.87743299506289
10
24.735154813568553
20
-11.877432995062875
10
27.621906159516666
20
-6.8774329950629021
0
LWPOLYLINE
5
251
100
AcDbEntity
8
0
100
AcDbPolyline
90
6
70
1
43
0.0
10
83.95203317843891
20
25.622567004937096
10
89.72553587033515
20
25.622567004937089
10
92.612287216283278
20
30.622567004937085
10
89.725535870335165
20
35.622567004937089
10
83.952033178438924
20
35.622567004937096
10
81.065281832490768
20
30.622567004937107
0
LINE
5
252
100
AcDbEntity
8
0
100
AcDbLine
10
104.67917094186976
20
21.489701709888145
30
0
11
104.4059741214982
21
21.238648746768177
31
0
0
SPLINE
5
253
100
AcDbEntity
8
0
100
AcDbSpline
70
4
71
5
72
12
73
6
74
0
42
0.000000001
43
0.0000000001
44
0.0000000001
40
-0.19391150195054224
40
-0.19391150195054224
40
-0.19391150195054224
40
-0.19391150195054224
40
-0.19391150195054224
40
-0.19391150195054224
40
0
40
0
40
0
40
0
40
0
40
0
41
1
41
1
41
1
41
1
41
1
41
1
10
101.66893162066967
20
18.122567004969202
30
0
10
102.14240161912356
20
18.792958962579341
30
0
10
102.65116026534264
20
19.441543620504333
30
0
10
103.19707539615194
20
20.066210843547584
30
0
10
103.7820030684275
20
20.66525341383042
30
0
10
104.40597412149819
20
21.238648746768177
30
0
0
LINE
5
254
100
AcDbEntity
8
0
100
AcDbLine
10
101.66893162066967
20
18.122567004969202
30
0
11
96.94241423520549
21
18.12256700493711
31
0
0
LINE
5
255
100
AcDbEntity
8
0
100
AcDbLine
10
96.94241423520549
20
18.12256700493711
30
0
11
94.055662889257377
21
23.122567004937096
31
0
0
LINE
5
256
100
AcDbEntity
8
0
100
AcDbLine
10
94.055662889257377
20
23.122567004937096
30
0
11
96.942414235205504
21
28.122567004937071
31
0
0
LINE
5
257
100
AcDbEntity
8
0
100
AcDbLine
10
96.942414235205504
20
28.122567004937071
30
0
11
102.73515481356854
21
28.122567004937071
31
0
0
LINE
5
258
100
AcDbEntity
8
0
100
AcDbLine
10
102.73515481356854
20
28.122567004937071
30
0
11
105.62190615951666
21
23.122567004937096
31
0
0
LINE
5
259
100
AcDbEntity
8
0
100
AcDbLine
10
105.62190615951666
20
23.122567004937096
30
0
11
104.67917094186976
21
21.489701709888145
31
0
0
LINE
5
260
100
AcDbEntity
8
0
100
AcDbLine
10
81.817816551861171
20
-60.680861363472033
30
0
11
81.065281832490768
21
-59.37743299506289
31
0
0
LINE
5
261
100
AcDbEntity
8
0
100
AcDbLine
10
81.065281832490768
20
-59.37743299506289
30
0
11
83.365652279651471
21
-55.393074504350665
31
0
0
ARC
5
262
100
AcDbEntity
8
0
100
AcDbCircle
10
90.21721342093096
20
-56.826988702383161
30
0
40
7.0000000000007354
210
0
220
0
230
1
100
AcDbArc
50
168.17958105741741
51
177.40679082407232
0
SPLINE
5
263
100
AcDbEntity
8
0
100
AcDbSpline
70
4
71
5
72
14
73
8
74
0
42
0.000000001
43
0.0000000001
44
0.0000000001
40
-0.5014799726445448
40
-0.5014799726445448
40
-0.5014799726445448
40
-0.5014799726445448
40
-0.5014799726445448
40
-0.5014799726445448
40
-0.40000000000000002
40
-0.20000000000000001
40
0
40
0
40
0
40
0
40
0
40
0
41
1
41
1
41
1
41
1
41
1
41
1
41
1
41
1
10
81.817816551860716
20
-60.680861363472687
30
0
10
81.919033735864545
20
-60.53854928104289
30
0
10
82.207077361033427
20
-60.10346159972103
30
0
10
82.62407025736681
20
-59.324693121018356
30
0
10
82.937243572541519
20
-58.480400296589906
30
0
10
83.133491384233125
20
-57.598905822388289
30
0
10
83.207800338932742
20
-56.876387263165853
30
0
10
83.224381845850587
20
-56.510276589307018
30
0
0
CIRCLE
5
264
100
AcDbEntity
8
0
100
AcDbCircle
10
-6.0009711696083006
20
15.97503485020075
30
0
40
1.9999999999999973
210
-0
220
0
230
1
0
LINE
5
265
100
AcDbEntity
8
0
100
AcDbLine
10
4.5950499295601741
20
-47.027069062985021
30
0
11
3.0652818324908004
21
-44.377432995062904
31
0
0
LINE
5
266
100
AcDbEntity
8
0
100
AcDbLine
10
3.0652818324908004
20
-44.377432995062904
30
0
11
5.9520331784389136
21
-39.377432995062918
31
0
0
LINE
5
267
100
AcDbEntity
8
0
100
AcDbLine
10
5.9520331784389136
20
-39.377432995062918
30
0
11
11.72553587033514
21
-39.377432995062918
31
0
0
LINE
5
268
100
AcDbEntity
8
0
100
AcDbLine
10
11.72553587033514
20
-39.377432995062918
30
0
11
14.612287216283271
21
-44.377432995062904
31
0
0
LINE
5
269
100
AcDbEntity
8
0
100
AcDbLine
10
14.612287216283271
20
-44.377432995062904
30
0
11
11.960412835911654
21
-48.97061415715676
31
0
0
ARC
5
270
100
AcDbEntity
8
0
100
AcDbCircle
10
9.0000001341104507
20
-53.000000789761543
30
0
40
5.0000000000000009
210
0
220
-0
230
1
100
AcDbArc
50
53.695068729525609
51
99.788619169190966
0
SPLINE
5
271
100
AcDbEntity
8
0
100
AcDbSpline
70
4
71
5
72
14
73
8
74
0
42
0.000000001
43
0.0000000001
44
0.0000000001
40
-0.52149805617500467
40
-0.52149805617500467
40
-0.52149805617500467
40
-0.52149805617500467
40
-0.52149805617500467
40
-0.52149805617500467
40
-0.40000000000000002
40
-0.20000000000000001
40
0
40
0
40
0
40
0
40
0
40
0
41
1
41
1
41
1
41
1
41
1
41
1
41
1
41
1
10
4.595049929560183
20
-47.027069062985014
30
0
10
4.7261136078939794
20
-47.142256085731837
30
0
10
5.0851650398706294
20
-47.431469161949487
30
0
10
5.7172973413287975
20
-47.830012591912492
30
0
10
6.4203833064750508
20
-48.094753423838483
30
0
10
7.1907512349284222
20
-48.181963579894578
30
0
10
7.8232626482519514
20
-48.129151006231524
30
0
10
8.1499313275468097
20
-48.07279234845246
30
0
0
LINE
5
272
100
AcDbEntity
8
0
100
AcDbLine
10
-9.7476959356987543
20
-36.536840489026858
30
0
11
-7.0575857647945117
21
-31.877432995062929
31
0
0
LINE
5
273
100
AcDbEntity
8
0
100
AcDbLine
10
-7.0575857647945117
20
-31.877432995062929
30
0
11
-1.2648451864314447
21
-31.877432995062925
31
0
0
LINE
5
274
100
AcDbEntity
8
0
100
AcDbLine
10
-1.2648451864314447
20
-31.877432995062925
30
0
11
1.6219061595166639
21
-36.877432995062897
31
0
0
LINE
5
275
100
AcDbEntity
8
0
100
AcDbLine
10
1.6219061595166639
20
-36.877432995062897
30
0
11
0.17589299029694083
21
-39.382001272565134
31
0
0
ARC
5
276
100
AcDbEntity
8
0
100
AcDbCircle
10
-4.0000000596046457
20
-45.000000670552282
30
0
40
7.0000000000000213
210
0
220
-0
230
1
100
AcDbArc
50
53.376353815296049
51
113.55436581704036
0
SPLINE
5
277
100
AcDbEntity
8
0
100
AcDbSpline
70
4
71
5
72
15
73
9
74
0
42
0.000000001
43
0.0000000001
44
0.0000000001
40
-0.73689692199591716
40
-0.73689692199591716
40
-0.73689692199591716
40
-0.73689692199591716
40
-0.73689692199591716
40
-0.73689692199591716
40
-0.60000000000000009
40
-0.40000000000000002
40
-0.20000000000000001
40
0
40
0
40
0
40
0
40
0
40
0
41
1
41
1
41
1
41
1
41
1
41
1
41
1
41
1
41
1
10
-9.747695935699296
20
-36.53684048902452
30
0
10
-9.7082002994867498
20
-36.707183630460996
30
0
10
-9.5984471425530806
20
-37.11906868301859
30
0
10
-9.3738458593662095
20
-37.739872797383789
30
0
10
-8.9509324580990661
20
-38.468127307889546
30
0
10
-8.3299423919446394
20
-38.882274177379969
30
0
10
-7.6438639114516871
20
-38.885128469151283
30
0
10
-7.094802806013611
20
-38.712910670817429
30
0
10
-6.7973334320877665
20
-38.583231545580389
30
0
0
LWPOLYLINE
5
278
100
AcDbEntity
8
0
100
AcDbPolyline
90
7
70
1
43
0.0
10
-7.0575857647945117
20
-16.877432995062929
10
-9.9385400851528694
20
-21.867392252208656
10
-9.9385400851528694
20
-21.887473737917155
10
-7.0575857647945117
20
-26.877432995062893
10
-1.2648451864314314
20
-26.877432995062879
10
1.6219061595166817
20
-21.877432995062907
10
-1.2648451864314314
20
-16.877432995062925
0
LINE
5
279
100
AcDbEntity
8
0
100
AcDbLine
10
-0.20532866254029336
20
-3.7125694459011682
30
0
11
1.6219061595166639
21
-6.8774329950629021
31
0
0
LINE
5
280
100
AcDbEntity
8
0
100
AcDbLine
10
1.6219061595166639
20
-6.8774329950629021
30
0
11
-1.2648451864314492
21
-11.877432995062875
31
0
0
LINE
5
281
100
AcDbEntity
8
0
100
AcDbLine
10
-1.2648451864314492
20
-11.877432995062875
30
0
11
-7.0575857647945206
21
-11.87743299506289
31
0
0
LINE
5
282
100
AcDbEntity
8
0
100
AcDbLine
10
-7.0575857647945206
20
-11.87743299506289
30
0
11
-9.6976456883140454
21
-7.3047150725006755
31
0
0
SPLINE
5
283
100
AcDbEntity
8
0
100
AcDbSpline
70
4
71
5
72
15
73
9
74
0
42
0.000000001
43
0.0000000001
44
0.0000000001
40
0
40
0
40
0
40
0
40
0
40
0
40
0.20000000000000001
40
0.40000000000000002
40
0.60000000000000009
40
0.77763055847171936
40
0.77763055847171936
40
0.77763055847171936
40
0.77763055847171936
40
0.77763055847171936
40
0.77763055847171936
41
1
41
1
41
1
41
1
41
1
41
1
41
1
41
1
41
1
10
-5.0581647976684749
20
-3.9017333584077498
30
0
10
-5.4846204755906536
20
-3.7626326571675861
30
0
10
-6.2794616548164841
20
-3.5931334807541275
30
0
10
-7.2976606476033119
20
-3.6646941227257046
30
0
10
-8.3180463621550125
20
-4.3001728180653425
30
0
10
-9.0387626364282578
20
-5.3857712000882607
30
0
10
-9.429774920941469
20
-6.3304207953360301
30
0
10
-9.6217721688437301
20
-6.9879729590332769
30
0
10
-9.6976456883140312
20
-7.3047150725006249
30
0
0
ARC
5
284
100
AcDbEntity
8
0
100
AcDbCircle
10
-2.8874695507804997
20
2.7531958031339188
30
0
40
6.9999999999999822
210
0
220
0
230
1
100
AcDbArc
50
251.93478386566986
51
292.52974331755257
0
LWPOLYLINE
5
285
100
AcDbEntity
8
0
100
AcDbPolyline
90
7
70
1
43
0.0
10
5.9520331784389136
20
5.6225670049370979
10
4.104736169351197
20
2.4229547285271771
42
-0.094282201033789273
10
3.4949517275567743
20
-0.12164308379999933
10
5.9520331784388958
20
-4.3774329950629021
10
11.72553587033514
20
-4.3774329950629109
10
14.61228721628328
20
0.62256700493708461
10
11.725535870335158
20
5.6225670049370891
0
LINE
5
286
100
AcDbEntity
8
0
100
AcDbLine
10
-1.5576005171788854
20
13.12256700493708
30
0
11
-1.2648451864314314
21
13.122567004937075
31
0
0
LINE
5
287
100
AcDbEntity
8
0
100
AcDbLine
10
-1.2648451864314314
20
13.122567004937075
30
0
11
1.5598606381893143
21
8.2300330002581674
31
0
0
SPLINE
5
288
100
AcDbEntity
8
0
100
AcDbSpline
70
4
71
5
72
16
73
10
74
0
42
0.000000001
43
0.0000000001
44
0.0000000001
40
-0.86632158924091152
40
-0.86632158924091152
40
-0.86632158924091152
40
-0.86632158924091152
40
-0.86632158924091152
40
-0.86632158924091152
40
-0.80000000000000004
40
-0.60000000000000009
40
-0.40000000000000002
40
-0.20000000000000001
40
-0.11889165587804927
40
-0.11889165587804927
40
-0.11889165587804927
40
-0.11889165587804927
40
-0.11889165587804927
40
-0.11889165587804927
41
1
41
1
41
1
41
1
41
1
41
1
41
1
41
1
41
1
41
1
10
-1.5576005171788858
20
13.12256700493708
30
0
10
-1.5612429595346364
20
13.020612958080902
30
0
10
-1.5578566411639407
20
12.615050151959981
30
0
10
-1.4288704361428453
20
11.931326833827294
30
0
10
-0.97879067613692594
20
11.013157913224545
30
0
10
-0.20134522984763087
20
10.052749602884322
30
0
10
0.5939482354090746
20
9.2208506377997352
30
0
10
1.1508910182314107
20
8.6510371836656503
30
0
10
1.4688487124693048
20
8.3239312293439411
30
0
10
1.5598606381893154
20
8.2300330002581692
30
0
0
LINE
5
289
100
AcDbEntity
8
0
100
AcDbLine
10
64.136003077768862
20
4.9116169468210256
30
0
11
66.612287216283278
21
0.62256700493708461
31
0
0
LINE
5
290
100
AcDbEntity
8
0
100
AcDbLine
10
66.612287216283278
20
0.62256700493708461
30
0
11
63.725535870335143
21
-4.3774329950629109
31
0
0
LINE
5
291
100
AcDbEntity
8
0
100
AcDbLine
10
63.725535870335143
20
-4.3774329950629109
30
0
11
57.952033178438896
21
-4.3774329950629021
31
0
0
LINE
5
292
100
AcDbEntity
8
0
100
AcDbLine
10
57.952033178438896
20
-4.3774329950629021
30
0
11
55.065281832490776
21
0.62256700493710682
31
0
0
LINE
5
293
100
AcDbEntity
8
0
100
AcDbLine
10
55.065281832490776
20
0.62256700493710682
30
0
11
56.898891574299036
21
3.7984722390022534
31
0
0
SPLINE
5
294
100
AcDbEntity
8
0
100
AcDbSpline
70
4
71
5
72
12
73
6
74
0
42
0.000000001
43
0.0000000001
44
0.0000000001
40
0.85385462453760974
40
0.85385462453760974
40
0.85385462453760974
40
0.85385462453760974
40
0.85385462453760974
40
0.85385462453760974
40
0.91219087283452382
40
0.91219087283452382
40
0.91219087283452382
40
0.91219087283452382
40
0.91219087283452382
40
0.91219087283452382
41
1
41
1
41
1
41
1
41
1
41
1
10
58.420642862830626
20
4.7142967590177038
30
0
10
58.115171296106887
20
4.4884005405341547
30
0
10
57.810193559498174
20
4.2831903542000411
30
0
10
57.505782822460446
20
4.0993999301722397
30
0
10
57.20199991269547
20
3.9376617849481428
30
0
10
56.898891574278124
20
3.7984722389926553
30
0
0
SPLINE
5
295
100
AcDbEntity
8
0
100
AcDbSpline
70
4
71
5
72
15
73
9
74
0
42
0.000000001
43
0.0000000001
44
0.0000000001
40
0.33387862126823931
40
0.33387862126823931
40
0.33387862126823931
40
0.33387862126823931
40
0.33387862126823931
40
0.33387862126823931
40
0.40000000000000002
40
0.60000000000000009
40
0.80000000000000004
40
1
40
1
40
1
40
1
40
1
40
1
41
1
41
1
41
1
41
1
41
1
41
1
41
1
41
1
41
1
10
64.136003077768848
20
4.9116169468210256
30
0
10
64.02046155856668
20
4.9536519568246291
30
0
10
63.554425598012223
20
5.1189155281651955
30
0
10
62.731980164466201
20
5.3779923561018181
30
0
10
61.55126446455597
20
5.6416642632962111
30
0
10
60.38981460037941
20
5.6525789770930839
30
0
10
59.385203994232924
20
5.3333746446205046
30
0
10
58.738345645055119
20
4.9492379611595121
30
0
10
58.420642862830618
20
4.7142967590177047
30
0
0
LWPOLYLINE
5
296
100
AcDbEntity
8
0
100
AcDbPolyline
90
5
70
1
43
0.0
10
76.73515481356857
20
13.122567004937075
10
76.264948148203487
20
13.12256700493708
42
-0.49724661214678678
10
71.304191473066879
20
3.122567004937113
10
76.73515481356857
20
3.1225670049371201
10
79.621906159516683
20
8.1225670049370926
0
LINE
5
297
100
AcDbEntity
8
0
100
AcDbLine
10
64.713484736649463
20
-62.666255363326442
30
0
11
59.072334565485917
21
-62.666255363326442
31
0
0
SPLINE
5
298
100
AcDbEntity
8
0
100
AcDbSpline
70
4
71
5
72
13
73
7
74
0
42
0.000000001
43
0.0000000001
44
0.0000000001
40
-0.23310815693019005
40
-0.23310815693019005
40
-0.23310815693019005
40
-0.23310815693019005
40
-0.23310815693019005
40
-0.23310815693019005
40
-0.20000000000000001
40
0
40
0
40
0
40
0
40
0
40
0
41
1
41
1
41
1
41
1
41
1
41
1
41
1
10
57.232627604060006
20
-63.131385988990388
30
0
10
57.281046541989085
20
-63.10647824694972
30
0
10
57.623541771825153
20
-62.935921965205388
30
0
10
57.977610384058863
20
-62.800508484132429
30
0
10
58.345970956113824
20
-62.708682522232095
30
0
10
58.730502164371032
20
-62.666255363326457
30
0
10
59.072334565485903
20
-62.666255363326457
30
0
0
LINE
5
299
100
AcDbEntity
8
0
100
AcDbLine
10
57.232627604060006
20
-63.131385988990388
30
0
11
55.065281832490776
21
-59.37743299506289
31
0
0
LINE
5
300
100
AcDbEntity
8
0
100
AcDbLine
10
55.065281832490776
20
-59.37743299506289
30
0
11
57.952033178438917
21
-54.377432995062904
31
0
0
LINE
5
301
100
AcDbEntity
8
0
100
AcDbLine
10
57.952033178438917
20
-54.377432995062904
30
0
11
63.725535870335158
21
-54.377432995062911
31
0
0
LINE
5
302
100
AcDbEntity
8
0
100
AcDbLine
10
63.725535870335158
20
-54.377432995062911
30
0
11
66.612287216283278
21
-59.377432995062911
31
0
0
LINE
5
303
100
AcDbEntity
8
0
100
AcDbLine
10
66.612287216283278
20
-59.377432995062911
30
0
11
64.713484736649463
21
-62.666255363326442
31
0
0
LINE
5
304
100
AcDbEntity
8
0
100
AcDbLine
10
91.746967348814493
20
-12.878655019808232
30
0
11
92.612287216283278
21
-14.377432995062902
31
0
0
LINE
5
305
100
AcDbEntity
8
0
100
AcDbLine
10
92.612287216283278
20
-14.377432995062902
30
0
11
89.72553587033515
21
-19.377432995062879
31
0
0
LINE
5
306
100
AcDbEntity
8
0
100
AcDbLine
10
89.72553587033515
20
-19.377432995062879
30
0
11
83.952033178438924
21
-19.377432995062879
31
0
0
LINE
5
307
100
AcDbEntity
8
0
100
AcDbLine
10
83.952033178438924
20
-19.377432995062879
30
0
11
81.065281832490797
21
-14.377432995062902
31
0
0
LINE
5
308
100
AcDbEntity
8
0
100
AcDbLine
10
81.065281832490797
20
-14.377432995062902
30
0
11
83.95203317843891
21
-9.3774329950629198
31
0
0
LINE
5
309
100
AcDbEntity
8
0
100
AcDbLine
10
83.95203317843891
20
-9.3774329950629198
30
0
11
88.831832252244993
21
-9.3774329950629216
31
0
0
ARC
5
310
100
AcDbEntity
8
0
100
AcDbCircle
10
94.000001400709152
20
-8.0000001192092896
30
0
40
5.3485786592906308
210
0
220
0
230
1
100
AcDbArc
50
194.92370012020231
51
239.47723219525329
0
SPLINE
5
311
100
AcDbEntity
8
0
100
AcDbSpline
70
4
71
5
72
12
73
6
74
0
42
0.000000001
43
0.0000000001
44
0.0000000001
40
-0.047008185418351556
40
-0.047008185418351556
40
-0.047008185418351556
40
-0.047008185418351556
40
-0.047008185418351556
40
-0.047008185418351556
40
0
40
0
40
0
40
0
40
0
40
0
41
1
41
1
41
1
41
1
41
1
41
1
10
91.746967348814309
20
-12.878655019808123
30
0
10
91.653583443247086
20
-12.824376180525697
30
0
10
91.560543493064088
20
-12.770115867149945
30
0
10
91.467857244029204
20
-12.715869619792702
30
0
10
91.375529852744236
20
-12.661635139219975
30
0
10
91.283561467430786
20
-12.607412382455296
30
0
0
LWPOLYLINE
5
312
100
AcDbEntity
8
0
100
AcDbPolyline
90
7
70
1
43
0.0
10
31.789130548536765
20
-64.095277363385819
10
34.729170156299269
20
-64.377432995062904
10
37.725535870335143
20
-64.377432995062918
10
40.612287216283285
20
-59.377432995062911
10
37.725535870335158
20
-54.377432995062911
10
31.952033178438914
20
-54.377432995062904
10
29.065281832490776
20
-59.37743299506289
0
SPLINE
5
313
100
AcDbEntity
8
0
100
AcDbSpline
70
4
71
5
72
14
73
8
74
0
42
0.000000001
43
0.0000000001
44
0.0000000001
40
-1
40
-1
40
-1
40
-1
40
-1
40
-1
40
-0.80000000000000004
40
-0.60000000000000009
40
-0.41690625157485728
40
-0.41690625157485728
40
-0.41690625157485728
40
-0.41690625157485728
40
-0.41690625157485728
40
-0.41690625157485728
41
1
41
1
41
1
41
1
41
1
41
1
41
1
41
1
10
36.289758958309434
20
3.353764701536377
30
0
10
36.146263519677383
20
3.3707868372122318
30
0
10
35.846824759103363
20
3.4710749724780978
30
0
10
35.374069108325081
20
3.8101991481642949
30
0
10
34.859092890236198
20
4.3744443908969801
30
0
10
34.329385126828711
20
5.0191763272903875
30
0
10
33.983634195123969
20
5.4322965903906635
30
0
10
33.819820115473597
20
5.6225670049371637
30
0
0
LINE
5
314
100
AcDbEntity
8
0
100
AcDbLine
10
36.289758958309434
20
3.353764701536377
30
0
11
39.042256351699869
21
3.3419402318468556
31
0
0
LINE
5
315
100
AcDbEntity
8
0
100
AcDbLine
10
39.042256351699869
20
3.3419402318468556
30
0
11
40.612287216283285
21
0.62256700493708461
31
0
0
LINE
5
316
100
AcDbEntity
8
0
100
AcDbLine
10
40.612287216283285
20
0.62256700493708461
30
0
11
37.725535870335143
21
-4.3774329950629109
31
0
0
LINE
5
317
100
AcDbEntity
8
0
100
AcDbLine
10
37.725535870335143
20
-4.3774329950629109
30
0
11
31.952033178438896
21
-4.3774329950629021
31
0
0
LINE
5
318
100
AcDbEntity
8
0
100
AcDbLine
10
31.952033178438896
20
-4.3774329950629021
30
0
11
29.065281832490776
21
0.62256700493710682
31
0
0
LINE
5
319
100
AcDbEntity
8
0
100
AcDbLine
10
29.065281832490776
20
0.62256700493710682
30
0
11
31.952033178438914
21
5.6225670049370979
31
0
0
LINE
5
320
100
AcDbEntity
8
0
100
AcDbLine
10
31.952033178438914
20
5.6225670049370979
30
0
11
33.819820115473604
21
5.6225670049371637
31
0
0
CIRCLE
5
321
100
AcDbEntity
8
0
100
AcDbCircle
10
66.000000983476653
20
46.000000685453408
30
0
40
2.0000000000000018
210
-0
220
0
230
1
0
ENDSEC
0
SECTION
2
OBJECTS
0
DICTIONARY
5
C
100
AcDbDictionary
3
ACAD_GROUP
350
D
3
ACAD_MLINESTYLE
350
17
0
DICTIONARY
5
D
100
AcDbDictionary
0
DICTIONARY
5
1A
330
C
100
AcDbDictionary
0
DICTIONARY
5
17
100
AcDbDictionary
0
ENDSEC
0
EOF
