0
SECTION
2
HEADER
9
$INSUNITS
70
4
9
$ACADVER
1
AC1014
9
$HANDSEED
5
FFFF
0
ENDSEC
0
SECTION
2
TABLES
0
TABLE
2
VPORT
5
8
100
AcDbSymbolTable
0
ENDTAB
0
TABLE
2
LTYPE
5
5
100
AcDbSymbolTable
0
LTYPE
5
14
100
AcDbSymbolTableRecord
100
AcDbLinetypeTableRecord
2
BYBLOCK
70
0
0
LTYPE
5
15
100
AcDbSymbolTableRecord
100
AcDbLinetypeTableRecord
2
BYLAYER
70
0
0
ENDTAB
0
TABLE
2
LAYER
5
2
100
AcDbSymbolTable
70
2
0
LAYER
5
50
100
AcDbSymbolTableRecord
100
AcDbLayerTableRecord
2
0
70
0
6
CONTINUOUS
0
ENDTAB
0
TABLE
2
STYLE
5
3
100
AcDbSymbolTable
70
1
0
STYLE
5
11
100
AcDbSymbolTableRecord
100
AcDbTextStyleTableRecord
2
STANDARD
70
0
0
ENDTAB
0
TABLE
2
VIEW
5
6
100
AcDbSymbolTable
70
0
0
ENDTAB
0
TABLE
2
UCS
5
7
100
AcDbSymbolTable
70
0
0
ENDTAB
0
TABLE
2
APPID
5
9
100
AcDbSymbolTable
70
2
0
APPID
5
12
100
AcDbSymbolTableRecord
100
AcDbRegAppTableRecord
2
ACAD
70
0
0
ENDTAB
0
TABLE
2
DIMSTYLE
5
A
100
AcDbSymbolTable
70
1
0
ENDTAB
0
TABLE
2
BLOCK_RECORD
5
1
100
AcDbSymbolTable
70
1
0
BLOCK_RECORD
5
1F
100
AcDbSymbolTableRecord
100
AcDbBlockTableRecord
2
*MODEL_SPACE
0
BLOCK_RECORD
5
1B
100
AcDbSymbolTableRecord
100
AcDbBlockTableRecord
2
*PAPER_SPACE
0
ENDTAB
0
ENDSEC
0
SECTION
2
BLOCKS
0
BLOCK
5
20
100
AcDbEntity
100
AcDbBlockBegin
2
*MODEL_SPACE
0
ENDBLK
5
21
100
AcDbEntity
100
AcDbBlockEnd
0
BLOCK
5
1C
100
AcDbEntity
100
AcDbBlockBegin
2
*PAPER_SPACE
0
ENDBLK
5
1D
100
AcDbEntity
100
AcDbBlockEnd
0
ENDSEC
0
SECTION
2
ENTITIES
0
LINE
5
100
100
AcDbEntity
8
0
100
AcDbLine
10
-105.49961854669993
20
44.486960799537243
30
0
11
-103.01435955084881
21
47.68841187384303
31
0
0
SPLINE
5
101
100
AcDbEntity
8
0
100
AcDbSpline
70
4
71
5
72
13
73
7
74
0
42
0.000000001
43
0.0000000001
44
0.0000000001
40
0
40
0
40
0
40
0
40
0
40
0
40
0.20000000000000001
40
0.28205101099515689
40
0.28205101099515689
40
0.28205101099515689
40
0.28205101099515689
40
0.28205101099515689
40
0.28205101099515689
41
1
41
1
41
1
41
1
41
1
41
1
41
1
10
-103.01435955084881
20
47.68841187384303
30
0
10
-102.65258271761574
20
48.154444119716175
30
0
10
-102.1223697160361
20
48.667574207907229
30
0
10
-101.56395895223184
20
48.977686532110276
30
0
10
-100.9812087111119
20
49.107294964579026
30
0
10
-100.38000182868876
20
49.087520754133195
30
0
10
-100.20369837806776
20
49.069923377483697
30
0
0
SPLINE
5
102
100
AcDbEntity
8
0
100
AcDbSpline
70
4
71
3
72
8
73
4
74
0
42
0.000000001
43
0.0000000001
44
0.0000000001
40
0.29629675808052347
40
0.29629675808052347
40
0.29629675808052347
40
0.29629675808052347
40
1
40
1
40
1
40
1
41
1
41
1
41
1
41
1
10
-100.20369837806771
20
49.069923377483697
30
0
10
-97.472695614286224
20
47.367766990130292
30
0
10
-97.461870313481057
20
47.321018694623646
30
0
10
-97.42533498020471
20
47.163243443184875
30
0
0
SPLINE
5
103
100
AcDbEntity
8
0
100
AcDbSpline
70
4
71
3
72
8
73
4
74
0
42
0.000000001
43
0.0000000001
44
0.0000000001
40
0
40
0
40
0
40
0
40
0.95176362745296239
40
0.95176362745296239
40
0.95176362745296239
40
0.95176362745296239
41
1
41
1
41
1
41
1
10
-97.42533498020471
20
47.163243443184875
30
0
10
-97.375920682731163
20
46.949851296202489
30
0
10
-97.373537116269091
20
46.939558033102031
30
0
10
-98.897604306236673
20
43.593620692407946
30
0
0
ARC
5
104
100
AcDbEntity
8
0
100
AcDbCircle
10
-103.06208346887234
20
37.659009222061023
30
0
40
7.2499999999999893
210
0
220
-0
230
1
100
AcDbArc
50
54.941611076592729
51
109.64623976690943
0
ARC
5
105
100
AcDbEntity
8
0
100
AcDbCircle
10
-103.06208346887234
20
37.659009222061023
30
0
40
7.2499999999999964
210
0
220
0
230
1
100
AcDbArc
50
174.70999449138296
51
187.20008753656464
0
SPLINE
5
106
100
AcDbEntity
8
0
100
AcDbSpline
70
4
71
3
72
8
73
4
74
0
42
0.000000001
43
0.0000000001
44
0.0000000001
40
0.063052011264598598
40
0.063052011264598598
40
0.063052011264598598
40
0.063052011264598598
40
0.1432993792756955
40
0.1432993792756955
40
0.1432993792756955
40
0.1432993792756955
41
1
41
1
41
1
41
1
10
-110.25491366513293
20
36.75033228950366
30
0
10
-110.81459322187757
20
36.607430715330366
30
0
10
-111.32710180088333
20
36.480141841303961
30
0
10
-111.79745215300231
20
36.371422013112181
30
0
0
SPLINE
5
107
100
AcDbEntity
8
0
100
AcDbSpline
70
4
71
5
72
12
73
6
74
0
42
0.000000001
43
0.0000000001
44
0.0000000001
40
0.98771060520329856
40
0.98771060520329856
40
0.98771060520329856
40
0.98771060520329856
40
0.98771060520329856
40
0.98771060520329856
40
1
40
1
40
1
40
1
40
1
40
1
41
1
41
1
41
1
41
1
41
1
41
1
10
-111.79745215300233
20
36.371422013112195
30
0
10
-111.77723532201637
20
36.398592870832445
30
0
10
-111.7568009481619
20
36.425762118021709
30
0
10
-111.73614891955715
20
36.452929746299667
30
0
10
-111.71527917306298
20
36.480095751262731
30
0
10
-111.69419169698189
20
36.50726013254728
30
0
0
LINE
5
108
100
AcDbEntity
8
0
100
AcDbLine
10
-111.69419169698187
20
36.50726013254728
30
0
11
-110.28120423888234
21
38.327436711030714
31
0
0
SPLINE
5
109
100
AcDbEntity
8
0
100
AcDbSpline
70
4
71
3
72
8
73
4
74
0
42
0.000000001
43
0.0000000001
44
0.0000000001
40
0.80963974032395492
40
0.80963974032395492
40
0.80963974032395492
40
0.80963974032395492
40
1
40
1
40
1
40
1
41
1
41
1
41
1
41
1
10
-95.961385954613604
20
39.12276972535372
30
0
10
-95.756397042124263
20
39.642357243472915
30
0
10
-95.483928305745422
20
40.240403255998274
30
0
10
-95.147397472575335
20
40.979060195300761
30
0
0
SPLINE
5
110
100
AcDbEntity
8
0
100
AcDbSpline
70
4
71
3
72
8
73
4
74
0
42
0.000000001
43
0.0000000001
44
0.0000000001
40
0
40
0
40
0
40
0
40
0.55703556248585373
40
0.55703556248585373
40
0.55703556248585373
40
0.55703556248585373
41
1
41
1
41
1
41
1
10
-95.147397472575335
20
40.979060195300761
30
0
10
-94.162634989755873
20
43.140531210147337
30
0
10
-93.726420230468719
20
44.097986002441978
30
0
10
-92.194253567623008
20
44.054284967310942
30
0
0
LINE
5
111
100
AcDbEntity
8
0
100
AcDbLine
10
-92.194253567622994
20
44.054284967310949
30
0
11
-84.893317785479553
21
38.80765640031359
31
0
0
SPLINE
5
112
100
AcDbEntity
8
0
100
AcDbSpline
70
4
71
5
72
14
73
8
74
0
42
0.000000001
43
0.0000000001
44
0.0000000001
40
0
40
0
40
0
40
0
40
0
40
0
40
0.20000000000000001
40
0.40000000000000002
40
0.45565118992665021
40
0.45565118992665021
40
0.45565118992665021
40
0.45565118992665021
40
0.45565118992665021
40
0.45565118992665021
41
1
41
1
41
1
41
1
41
1
41
1
41
1
41
1
10
-84.893317785473783
20
38.807656400309412
30
0
10
-84.23711054350963
20
38.336090047133162
30
0
10
-82.935385962742146
20
37.374340789062117
30
0
10
-81.476874889615232
20
36.236433775048546
30
0
10
-80.03602721598466
20
35.068564971771956
30
0
10
-78.588306612596426
20
33.915833490578137
30
0
10
-77.768633990871038
20
33.283518034598785
30
0
10
-77.589797837834297
20
33.146660470020286
30
0
0
SPLINE
5
113
100
AcDbEntity
8
0
100
AcDbSpline
70
4
71
5
72
12
73
6
74
0
42
0.000000001
43
0.0000000001
44
0.0000000001
40
0
40
0
40
0
40
0
40
0
40
0
40
0.079211414849758438
40
0.079211414849758438
40
0.079211414849758438
40
0.079211414849758438
40
0.079211414849758438
40
0.079211414849758438
41
1
41
1
41
1
41
1
41
1
41
1
10
-77.589797837834283
20
33.146660470020272
30
0
10
-77.387944147762383
20
32.996213338742763
30
0
10
-77.175402793267025
20
32.808895076616871
30
0
10
-76.952177749995698
20
32.584721108838274
30
0
10
-76.718401320946583
20
32.324295366651008
30
0
10
-76.474296878105491
20
32.028670654687446
30
0
0
SPLINE
5
114
100
AcDbEntity
8
0
100
AcDbSpline
70
4
71
3
72
8
73
4
74
0
42
0.000000001
43
0.0000000001
44
0.0000000001
40
0.27247436371837269
40
0.27247436371837269
40
0.27247436371837269
40
0.27247436371837269
40
1
40
1
40
1
40
1
41
1
41
1
41
1
41
1
10
-76.474296878105463
20
32.02867065468741
30
0
10
-76.245357313296751
20
30.139801288904295
30
0
10
-76.679582969489132
20
29.65538999453441
30
0
10
-78.273221542552122
20
27.877566614164692
30
0
0
SPLINE
5
115
100
AcDbEntity
8
0
100
AcDbSpline
70
4
71
3
72
8
73
4
74
0
42
0.000000001
43
0.0000000001
44
0.0000000001
40
0
40
0
40
0
40
0
40
1
40
1
40
1
40
1
41
1
41
1
41
1
41
1
10
-78.273221542552122
20
27.877566614164692
30
0
10
-80.463708800191682
20
25.433909247729957
30
0
10
-80.463708800191682
20
25.433909247729957
30
0
10
-86.426163818553078
20
26.136547238045715
30
0
0
SPLINE
5
116
100
AcDbEntity
8
0
100
AcDbSpline
70
4
71
3
72
8
73
4
74
0
42
0.000000001
43
0.0000000001
44
0.0000000001
40
0
40
0
40
0
40
0
40
1
40
1
40
1
40
1
41
1
41
1
41
1
41
1
10
-86.426163818553078
20
26.136547238045715
30
0
10
-92.388614799693229
20
26.839185228361472
30
0
10
-92.388614799693229
20
26.839185228361472
30
0
10
-94.651937566315141
20
31.968967396431943
30
0
0
SPLINE
5
117
100
AcDbEntity
8
0
100
AcDbSpline
70
4
71
3
72
8
73
4
74
0
42
0.000000001
43
0.0000000001
44
0.0000000001
40
0
40
0
40
0
40
0
40
0.31244351219238925
40
0.31244351219238925
40
0.31244351219238925
40
0.31244351219238925
41
1
41
1
41
1
41
1
10
-94.651937566315141
20
31.968967396431943
30
0
10
-95.359098080743493
20
33.571734553805769
30
0
10
-95.845310880360088
20
34.673727511303099
30
0
10
-96.125688003597602
20
35.549763397289652
30
0
0
ARC
5
118
100
AcDbEntity
8
0
100
AcDbCircle
10
-103.06208346887234
20
37.659009222061023
30
0
40
7.2499999999999556
210
-0
220
0
230
1
100
AcDbArc
50
-16.913669428351703
51
11.647970920814238
0
ARC
5
119
100
AcDbEntity
8
0
100
AcDbCircle
10
-103.06208346887234
20
37.659009222061023
30
0
40
7.25
210
0
220
0
230
1
100
AcDbArc
50
217.85770735343908
51
304.18416297935551
0
SPLINE
5
120
100
AcDbEntity
8
0
100
AcDbSpline
70
4
71
3
72
8
73
4
74
0
42
0.000000001
43
0.0000000001
44
0.0000000001
40
0.89472304953470105
40
0.89472304953470105
40
0.89472304953470105
40
0.89472304953470105
40
1
40
1
40
1
40
1
41
1
41
1
41
1
41
1
10
-98.988636570751893
20
31.661548895540086
30
0
10
-98.788628892610404
20
31.231632778946533
30
0
10
-98.575437734584881
20
30.748439543673332
30
0
10
-98.337161590769881
20
30.208391720467603
30
0
0
SPLINE
5
121
100
AcDbEntity
8
0
100
AcDbSpline
70
4
71
3
72
8
73
4
74
0
42
0.000000001
43
0.0000000001
44
0.0000000001
40
0
40
0
40
0
40
0
40
1
40
1
40
1
40
1
41
1
41
1
41
1
41
1
10
-98.337161590769881
20
30.208391720467603
30
0
10
-96.07383882414797
20
25.078609552397133
30
0
10
-96.07383882414797
20
25.078609552397133
30
0
10
-99.152631841217485
20
20.521410328560854
30
0
0
SPLINE
5
122
100
AcDbEntity
8
0
100
AcDbSpline
70
4
71
3
72
8
73
4
74
0
42
0.000000001
43
0.0000000001
44
0.0000000001
40
0
40
0
40
0
40
0
40
0.30283692862222211
40
0.30283692862222211
40
0.30283692862222211
40
0.30283692862222211
41
1
41
1
41
1
41
1
10
-99.152631841217485
20
20.521410328560854
30
0
10
-100.08500406237036
20
19.141322112494706
30
0
10
-100.7350195437366
20
18.179175573009744
30
0
10
-101.24730480087067
20
17.501825408290689
30
0
0
SPLINE
5
123
100
AcDbEntity
8
0
100
AcDbSpline
70
4
71
5
72
13
73
7
74
0
42
0.000000001
43
0.0000000001
44
0.0000000001
40
-0.22940642565314645
40
-0.22940642565314645
40
-0.22940642565314645
40
-0.22940642565314645
40
-0.22940642565314645
40
-0.22940642565314645
40
-0.20000000000000001
40
0
40
0
40
0
40
0
40
0
40
0
41
1
41
1
41
1
41
1
41
1
41
1
41
1
10
-101.24730480087229
20
17.501825408293151
30
0
10
-101.31524438129723
20
17.605845184644249
30
0
10
-101.85140515692549
20
18.413629655305247
30
0
10
-102.43591872705693
20
19.192090045841212
30
0
10
-103.07186476799195
20
19.937601539988155
30
0
10
-103.76241141707456
20
20.647249755816112
30
0
10
-104.40597412149819
20
21.238648746768177
30
0
0
LINE
5
124
100
AcDbEntity
8
0
100
AcDbLine
10
-104.4059741214982
20
21.238648746768177
30
0
11
-109.60807978241732
21
26.019099847409528
31
0
0
SPLINE
5
125
100
AcDbEntity
8
0
100
AcDbSpline
70
4
71
5
72
15
73
9
74
0
42
0.000000001
43
0.0000000001
44
0.0000000001
40
0
40
0
40
0
40
0
40
0
40
0
40
0.20000000000000001
40
0.40000000000000002
40
0.60000000000000009
40
0.60098396803191301
40
0.60098396803191301
40
0.60098396803191301
40
0.60098396803191301
40
0.60098396803191301
40
0.60098396803191301
41
1
41
1
41
1
41
1
41
1
41
1
41
1
41
1
41
1
10
-109.60807978241732
20
26.019099847409528
30
0
10
-109.99341979953894
20
26.373206286040517
30
0
10
-110.71244461417565
20
27.102443507058645
30
0
10
-111.63612088994684
20
28.25931379253969
30
0
10
-112.33817958978918
20
29.498502676853946
30
0
10
-112.79553214499798
20
30.786230179194412
30
0
10
-112.96741849487535
20
31.658664681705009
30
0
10
-113.01616488901186
20
32.098395849380566
30
0
10
-113.01640264229408
20
32.100548723393189
30
0
0
SPLINE
5
126
100
AcDbEntity
8
0
100
AcDbSpline
70
4
71
3
72
8
73
4
74
0
42
0.000000001
43
0.0000000001
44
0.0000000001
40
0.75849594203218684
40
0.75849594203218684
40
0.75849594203218684
40
0.75849594203218684
40
0.98942996707562991
40
0.98942996707562991
40
0.98942996707562991
40
0.98942996707562991
41
1
41
1
41
1
41
1
10
-113.01640264229412
20
32.100548723393189
30
0
10
-111.95632179422492
20
32.384957940815163
30
0
10
-110.58055564174396
20
32.74307669795526
30
0
10
-108.78622890797389
20
33.209665563495946
30
0
0
LINE
5
127
100
AcDbEntity
8
0
100
AcDbLine
10
17.757941904222299
20
-50.616718719568816
30
0
11
1.5950547713119168
21
-50.616718719568809
31
0
0
SPLINE
5
128
100
AcDbEntity
8
0
100
AcDbSpline
70
4
71
5
72
12
73
6
74
0
42
0.000000001
43
0.0000000001
44
0.0000000001
40
-1
40
-1
40
-1
40
-1
40
-1
40
-1
40
-0.98670049149054495
40
-0.98670049149054495
40
-0.98670049149054495
40
-0.98670049149054495
40
-0.98670049149054495
40
-0.98670049149054495
41
1
41
1
41
1
41
1
41
1
41
1
10
1.5950547713119168
20
-50.616718719568809
30
0
10
1.5319684977289139
20
-50.616718719568809
30
0
10
1.4691888749364022
20
-50.61722762950442
30
0
10
1.406715881919848
20
-50.618245414666575
30
0
10
1.3445493672050119
20
-50.619771826217139
30
0
10
1.2826890542584215
20
-50.621806410120939
30
0
0
SPLINE
5
129
100
AcDbEntity
8
0
100
AcDbSpline
70
4
71
3
72
8
73
4
74
0
42
0.000000001
43
0.0000000001
44
0.0000000001
40
0.95964988497094916
40
0.95964988497094916
40
0.95964988497094916
40
0.95964988497094916
40
1
40
1
40
1
40
1
41
1
41
1
41
1
41
1
10
1.2826890542584239
20
-50.621806410120939
30
0
10
1.3936196697024852
20
-50.249384789526147
30
0
10
1.5092420073700552
20
-49.861333157625538
30
0
10
1.6297258832901473
20
-49.45696523347123
30
0
0
SPLINE
5
130
100
AcDbEntity
8
0
100
AcDbSpline
70
4
71
3
72
8
73
4
74
0
42
0.000000001
43
0.0000000001
44
0.0000000001
40
0
40
0
40
0
40
0
40
1
40
1
40
1
40
1
41
1
41
1
41
1
41
1
10
1.6297258832901473
20
-49.45696523347123
30
0
10
4.6156870344131828
20
-39.435483910229038
30
0
10
4.6156870344131828
20
-39.435483910229038
30
0
10
10.815017936512801
20
-40.60306445120397
30
0
0
SPLINE
5
131
100
AcDbEntity
8
0
100
AcDbSpline
70
4
71
3
72
8
73
4
74
0
42
0.000000001
43
0.0000000001
44
0.0000000001
40
0
40
0
40
0
40
0
40
0.86886995458793614
40
0.86886995458793614
40
0.86886995458793614
40
0.86886995458793614
41
1
41
1
41
1
41
1
10
10.815017936512801
20
-40.60306445120397
30
0
10
16.201430295895683
20
-41.617540102818616
30
0
10
16.907750793189663
20
-41.750568341084282
30
0
10
17.876652164416861
20
-42.904747306224564
30
0
0
ARC
5
132
100
AcDbEntity
8
0
100
AcDbCircle
10
23.955816628808158
20
-46.855223152864042
30
0
40
7.2499999999999876
210
0
220
0
230
1
100
AcDbArc
50
146.98263302169664
51
211.25360012629531
0
ARC
5
133
100
AcDbEntity
8
0
100
AcDbCircle
10
23.955816628808158
20
-46.855223152864042
30
0
40
7.2499999999999956
210
0
220
-0
230
1
100
AcDbArc
50
52.936561007503421
51
105.1808609185298
0
SPLINE
5
134
100
AcDbEntity
8
0
100
AcDbSpline
70
4
71
3
72
8
73
4
74
0
42
0.000000001
43
0.0000000001
44
0.0000000001
40
0.11185924231340612
40
0.11185924231340612
40
0.11185924231340612
40
0.11185924231340612
40
1
40
1
40
1
40
1
41
1
41
1
41
1
41
1
10
22.057282256879056
20
-39.858218991181424
30
0
10
21.159814862924158
20
-38.553654880947249
30
0
10
21.503303904018072
20
-37.744568931376428
30
0
10
24.574029523019966
20
-30.511496966666208
30
0
0
SPLINE
5
135
100
AcDbEntity
8
0
100
AcDbSpline
70
4
71
3
72
8
73
4
74
0
42
0.000000001
43
0.0000000001
44
0.0000000001
40
0
40
0
40
0
40
0
40
0.534127563300411
40
0.534127563300411
40
0.534127563300411
40
0.534127563300411
41
1
41
1
41
1
41
1
10
24.574029523019966
20
-30.511496966666208
30
0
10
26.420762913247287
20
-26.161529835610967
30
0
10
27.281105097686982
20
-24.135000048703141
30
0
10
28.325383789553253
20
-23.239620883443447
30
0
0
LINE
5
136
100
AcDbEntity
8
0
100
AcDbLine
10
28.32538378955325
20
-23.239620883443447
30
0
11
28.325383789553253
21
-41.069950226913356
31
0
0
SPLINE
5
137
100
AcDbEntity
8
0
100
AcDbSpline
70
4
71
3
72
8
73
4
74
0
42
0.000000001
43
0.0000000001
44
0.0000000001
40
0.1368034531151579
40
0.1368034531151579
40
0.1368034531151579
40
0.1368034531151579
40
0.25034377752920639
40
0.25034377752920639
40
0.25034377752920639
40
0.25034377752920639
41
1
41
1
41
1
41
1
10
-95.39041044504593
20
-50.358795029898182
30
0
10
-96.018058272898799
20
-50.155305959378694
30
0
10
-96.560282357320119
20
-49.968005768068195
30
0
10
-97.025940031809796
20
-49.785986651336309
30
0
0
LINE
5
138
100
AcDbEntity
8
0
100
AcDbLine
10
-97.025940031809796
20
-49.785986651336316
30
0
11
-98.052309604266014
21
-41.232906880867716
31
0
0
SPLINE
5
139
100
AcDbEntity
8
0
100
AcDbSpline
70
4
71
3
72
8
73
4
74
0
42
0.000000001
43
0.0000000001
44
0.0000000001
40
0.19664734178239104
40
0.19664734178239104
40
0.19664734178239104
40
0.19664734178239104
40
1
40
1
40
1
40
1
41
1
41
1
41
1
41
1
10
-98.052309604266
20
-41.232906880867716
30
0
10
-97.089507500398014
20
-38.52479487712106
30
0
10
-95.892198122388535
20
-38.402528218727738
30
0
10
-89.803586055949324
20
-37.780772250479671
30
0
0
SPLINE
5
140
100
AcDbEntity
8
0
100
AcDbSpline
70
4
71
3
72
8
73
4
74
0
42
0.000000001
43
0.0000000001
44
0.0000000001
40
0
40
0
40
0
40
0
40
1
40
1
40
1
40
1
41
1
41
1
41
1
41
1
10
-89.803586055949324
20
-37.780772250479671
30
0
10
-82.224579193308955
20
-37.006836932486507
30
0
10
-82.224579193308955
20
-37.006836932486507
30
0
10
-83.752231425161199
20
-45.233014402375829
30
0
0
SPLINE
5
141
100
AcDbEntity
8
0
100
AcDbSpline
70
4
71
3
72
8
73
4
74
0
42
0.000000001
43
0.0000000001
44
0.0000000001
40
0
40
0
40
0
40
0
40
0.59229120429995386
40
0.59229120429995386
40
0.59229120429995386
40
0.59229120429995386
41
1
41
1
41
1
41
1
10
-83.752231425161199
20
-45.233014402375829
30
0
10
-84.657046405316436
20
-50.10530696280172
30
0
10
-85.025947431206902
20
-52.091783494911255
30
0
10
-86.725203765355857
20
-52.428930620801992
30
0
0
ARC
5
142
100
AcDbEntity
8
0
100
AcDbCircle
10
-92.386950005484891
20
-56.957410444361408
30
0
40
7.2500000000000018
210
0
220
-0
230
1
100
AcDbArc
50
38.654148313745083
51
114.47337884154948
0
SPLINE
5
143
100
AcDbEntity
8
0
100
AcDbSpline
70
4
71
3
72
8
73
4
74
0
42
0.000000001
43
0.0000000001
44
0.0000000001
40
0.54102468062012854
40
0.54102468062012854
40
0.54102468062012854
40
0.54102468062012854
40
1
40
1
40
1
40
1
41
1
41
1
41
1
41
1
10
-59.945023936071806
20
3.2769916384082998
30
0
10
-59.078968152921625
20
2.5886611514843008
30
0
10
-57.958662584011826
20
1.1899082700333847
30
0
10
-55.887951932465036
20
-1.3954689439000934
30
0
0
SPLINE
5
144
100
AcDbEntity
8
0
100
AcDbSpline
70
4
71
3
72
8
73
4
74
0
42
0.000000001
43
0.0000000001
44
0.0000000001
40
0
40
0
40
0
40
0
40
1
40
1
40
1
40
1
41
1
41
1
41
1
41
1
10
-55.887951932465036
20
-1.3954689439000934
30
0
10
-51.376373309011257
20
-7.0284019247554053
30
0
10
-51.376373309011257
20
-7.0284019247554053
30
0
10
-55.166056396678094
20
-12.1058859284582
30
0
0
SPLINE
5
145
100
AcDbEntity
8
0
100
AcDbSpline
70
4
71
3
72
8
73
4
74
0
42
0.000000001
43
0.0000000001
44
0.0000000001
40
0
40
0
40
0
40
0
40
1
40
1
40
1
40
1
41
1
41
1
41
1
41
1
10
-55.166056396678094
20
-12.1058859284582
30
0
10
-58.955739484344917
20
-17.183369932161003
30
0
10
-58.955739484344917
20
-17.183369932161003
30
0
10
-64.813997858876988
20
-13.975119377758336
30
0
0
SPLINE
5
146
100
AcDbEntity
8
0
100
AcDbSpline
70
4
71
3
72
8
73
4
74
0
42
0.000000001
43
0.0000000001
44
0.0000000001
40
0
40
0
40
0
40
0
40
1
40
1
40
1
40
1
41
1
41
1
41
1
41
1
10
-64.813997858876988
20
-13.975119377758336
30
0
10
-70.672256233409058
20
-10.766868823355651
30
0
10
-70.672256233409058
20
-10.766868823355651
30
0
10
-68.224400156850621
20
-3.9724434312047752
30
0
0
SPLINE
5
147
100
AcDbEntity
8
0
100
AcDbSpline
70
4
71
3
72
8
73
4
74
0
42
0.000000001
43
0.0000000001
44
0.0000000001
40
0
40
0
40
0
40
0
40
0.074637079482120658
40
0.074637079482120658
40
0.074637079482120658
40
0.074637079482120658
41
1
41
1
41
1
41
1
10
-68.224400156850621
20
-3.9724434312047752
30
0
10
-68.041699328303736
20
-3.4653273631754722
30
0
10
-67.872634756018556
20
-2.9960609574223316
30
0
10
-67.715070844852278
20
-2.5615249609100967
30
0
0
ARC
5
148
100
AcDbEntity
8
0
100
AcDbCircle
10
-67.062082932430869
20
4.6590087303229568
30
0
40
7.2500000000000071
210
0
220
0
230
1
100
AcDbArc
50
264.83252127883941
51
349.01085325679895
0
ARC
5
149
100
AcDbEntity
8
0
100
AcDbCircle
10
-67.062082932430869
20
4.6590087303229568
30
0
40
7.2499999999999964
210
0
220
-0
230
1
100
AcDbArc
50
65.754927227172928
51
132.4349531691667
0
SPLINE
5
150
100
AcDbEntity
8
0
100
AcDbSpline
70
4
71
3
72
8
73
4
74
0
42
0.000000001
43
0.0000000001
44
0.0000000001
40
0.055267472791113853
40
0.055267472791113853
40
0.055267472791113853
40
0.055267472791113853
40
1
40
1
40
1
40
1
41
1
41
1
41
1
41
1
10
-71.954040407642168
20
10.009826617405684
30
0
10
-75.685487213635113
20
12.221072170180676
30
0
10
-75.718946759622042
20
12.482402333253514
30
0
10
-76.324357940867557
20
17.210864661548307
30
0
0
SPLINE
5
151
100
AcDbEntity
8
0
100
AcDbSpline
70
4
71
3
72
8
73
4
74
0
42
0.000000001
43
0.0000000001
44
0.0000000001
40
0
40
0
40
0
40
0
40
1
40
1
40
1
40
1
41
1
41
1
41
1
41
1
10
-76.324357940867557
20
17.210864661548307
30
0
10
-76.965186073496938
20
22.215945138944953
30
0
10
-76.965186073496938
20
22.215945138944953
30
0
10
-74.774694778636103
20
24.659602505379688
30
0
0
SPLINE
5
152
100
AcDbEntity
8
0
100
AcDbSpline
70
4
71
3
72
8
73
4
74
0
42
0.000000001
43
0.0000000001
44
0.0000000001
40
0
40
0
40
0
40
0
40
0.36638985402498064
40
0.36638985402498064
40
0.36638985402498064
40
0.36638985402498064
41
1
41
1
41
1
41
1
10
-74.774694778636103
20
24.659602505379688
30
0
10
-73.972120992869051
20
25.554933771154779
30
0
10
-73.463602099313462
20
26.122224745158533
30
0
10
-72.861132605617442
20
26.432460105710604
30
0
0
SPLINE
5
153
100
AcDbEntity
8
0
100
AcDbSpline
70
4
71
5
72
14
73
8
74
0
42
0.000000001
43
0.0000000001
44
0.0000000001
40
0.27560220415196857
40
0.27560220415196857
40
0.27560220415196857
40
0.27560220415196857
40
0.27560220415196857
40
0.27560220415196857
40
0.40000000000000002
40
0.60000000000000009
40
0.63827811947188207
40
0.63827811947188207
40
0.63827811947188207
40
0.63827811947188207
40
0.63827811947188207
40
0.63827811947188207
41
1
41
1
41
1
41
1
41
1
41
1
41
1
41
1
10
-72.861132605617456
20
26.4324601057106
30
0
10
-72.336395074397473
20
25.515747093268203
30
0
10
-70.919535432960359
20
22.989130230779374
30
0
10
-69.20782687907672
20
19.840911001579041
30
0
10
-67.395664594808849
20
16.567689487715615
30
0
10
-65.526780956690885
20
13.460159641502887
30
0
10
-64.284783565656809
20
11.569115627844752
30
0
10
-64.084939721414898
20
11.269539594111549
30
0
0
SPLINE
5
154
100
AcDbEntity
8
0
100
AcDbSpline
70
4
71
3
72
8
73
4
74
0
42
0.000000001
43
0.0000000001
44
0.0000000001
40
0.94621348664550486
40
0.94621348664550486
40
0.94621348664550486
40
0.94621348664550486
40
1
40
1
40
1
40
1
41
1
41
1
41
1
41
1
10
-57.74917230432407
20
-62.903162357366767
30
0
10
-57.93711849020967
20
-62.706612768595214
30
0
10
-58.134746234432015
20
-62.498520106851515
30
0
10
-58.343607920522508
20
-62.278598635977723
30
0
0
SPLINE
5
155
100
AcDbEntity
8
0
100
AcDbSpline
70
4
71
3
72
8
73
4
74
0
42
0.000000001
43
0.0000000001
44
0.0000000001
40
0
40
0
40
0
40
0
40
1
40
1
40
1
40
1
41
1
41
1
41
1
41
1
10
-58.343607920522508
20
-62.278598635977723
30
0
10
-62.226768829539438
20
-58.189813973095241
30
0
10
-62.226768829539438
20
-58.189813973095241
30
0
10
-60.685333524261928
20
-53.572863874421735
30
0
0
SPLINE
5
156
100
AcDbEntity
8
0
100
AcDbSpline
70
4
71
3
72
8
73
4
74
0
42
0.000000001
43
0.0000000001
44
0.0000000001
40
0
40
0
40
0
40
0
40
1
40
1
40
1
40
1
41
1
41
1
41
1
41
1
10
-60.685333524261928
20
-53.572863874421735
30
0
10
-59.143906293426973
20
-48.955913775748236
30
0
10
-59.143906293426973
20
-48.955913775748236
30
0
10
-50.707050468638563
20
-47.501222206737815
30
0
0
SPLINE
5
157
100
AcDbEntity
8
0
100
AcDbSpline
70
4
71
3
72
8
73
4
74
0
42
0.000000001
43
0.0000000001
44
0.0000000001
40
0
40
0
40
0
40
0
40
1
40
1
40
1
40
1
41
1
41
1
41
1
41
1
10
-50.707050468638563
20
-47.501222206737815
30
0
10
-42.270202718292687
20
-46.04651448884232
30
0
10
-42.270202718292687
20
-46.04651448884232
30
0
10
-41.857808639720105
20
-46.45790733653925
30
0
0
SPLINE
5
158
100
AcDbEntity
8
0
100
AcDbSpline
70
4
71
3
72
8
73
4
74
0
42
0.000000001
43
0.0000000001
44
0.0000000001
40
0
40
0
40
0
40
0
40
1
40
1
40
1
40
1
41
1
41
1
41
1
41
1
10
-41.857808639720105
20
-46.45790733653925
30
0
10
-41.445414561147508
20
-46.869300184236195
30
0
10
-41.445414561147508
20
-46.869300184236195
30
0
10
-41.859576942637588
20
-54.365854876822453
30
0
0
SPLINE
5
159
100
AcDbEntity
8
0
100
AcDbSpline
70
4
71
3
72
8
73
4
74
0
42
0.000000001
43
0.0000000001
44
0.0000000001
40
0
40
0
40
0
40
0
40
1
40
1
40
1
40
1
41
1
41
1
41
1
41
1
10
-41.859576942637588
20
-54.365854876822453
30
0
10
-42.273739324127646
20
-61.862425718293814
30
0
10
-42.273739324127646
20
-61.862425718293814
30
0
10
-48.36709316781662
20
-64.114904508577013
30
0
0
SPLINE
5
160
100
AcDbEntity
8
0
100
AcDbSpline
70
4
71
3
72
8
73
4
74
0
42
0.000000001
43
0.0000000001
44
0.0000000001
40
0
40
0
40
0
40
0
40
0.42946119066337074
40
0.42946119066337074
40
0.42946119066337074
40
0.42946119066337074
41
1
41
1
41
1
41
1
10
-48.36709316781662
20
-64.114904508577013
30
0
10
-50.983952164660508
20
-65.082256731796022
30
0
10
-52.476971780921666
20
-65.634168717440545
30
0
10
-53.636376753580123
20
-65.625189437655763
30
0
0
SPLINE
5
161
100
AcDbEntity
8
0
100
AcDbSpline
70
4
71
5
72
15
73
9
74
0
42
0.000000001
43
0.0000000001
44
0.0000000001
40
-0.75092837681144609
40
-0.75092837681144609
40
-0.75092837681144609
40
-0.75092837681144609
40
-0.75092837681144609
40
-0.75092837681144609
40
-0.60000000000000009
40
-0.40000000000000002
40
-0.20000000000000001
40
-0.16391024901757439
40
-0.16391024901757439
40
-0.16391024901757439
40
-0.16391024901757439
40
-0.16391024901757439
40
-0.16391024901757439
41
1
41
1
41
1
41
1
41
1
41
1
41
1
41
1
41
1
10
-53.636376753580109
20
-65.625189437655763
30
0
10
-53.857080553623085
20
-65.517356045147807
30
0
10
-54.359208838833766
20
-65.231000699322635
30
0
10
-55.11405392511368
20
-64.672955681651899
30
0
10
-55.892887610534991
20
-63.992958049008664
30
0
10
-56.699635130397382
20
-63.39437309505815
30
0
10
-57.336100840853177
20
-63.06225411709466
30
0
10
-57.694120876665345
20
-62.923404140090682
30
0
10
-57.749172304323878
20
-62.90316235736681
30
0
0
SPLINE
5
162
100
AcDbEntity
8
0
100
AcDbSpline
70
4
71
3
72
8
73
4
74
0
42
0.000000001
43
0.0000000001
44
0.0000000001
40
0.43566349332031329
40
0.43566349332031329
40
0.43566349332031329
40
0.43566349332031329
40
1
40
1
40
1
40
1
41
1
41
1
41
1
41
1
10
-90.650124112442512
20
-3.8303939233948325
30
0
10
-89.23424309270176
20
-3.6293452498520669
30
0
10
-87.865745103690273
20
-4.8754900842336513
30
0
10
-84.724563870941623
20
-7.7358280595006779
30
0
0
SPLINE
5
163
100
AcDbEntity
8
0
100
AcDbSpline
70
4
71
3
72
8
73
4
74
0
42
0.000000001
43
0.0000000001
44
0.0000000001
40
0
40
0
40
0
40
0
40
1
40
1
40
1
40
1
41
1
41
1
41
1
41
1
10
-84.724563870941623
20
-7.7358280595006779
30
0
10
-79.158414604380752
20
-12.804325208650251
30
0
10
-79.158414604380752
20
-12.804325208650251
30
0
10
-81.516240646556042
20
-16.650190267549174
30
0
0
SPLINE
5
164
100
AcDbEntity
8
0
100
AcDbSpline
70
4
71
3
72
8
73
4
74
0
42
0.000000001
43
0.0000000001
44
0.0000000001
40
0
40
0
40
0
40
0
40
1
40
1
40
1
40
1
41
1
41
1
41
1
41
1
10
-81.516240646556042
20
-16.650190267549174
30
0
10
-83.874066688731332
20
-20.496063400890652
30
0
10
-83.874066688731332
20
-20.496063400890652
30
0
10
-90.695484942312063
20
-19.088179375316912
30
0
0
SPLINE
5
165
100
AcDbEntity
8
0
100
AcDbSpline
70
4
71
3
72
8
73
4
74
0
42
0.000000001
43
0.0000000001
44
0.0000000001
40
0
40
0
40
0
40
0
40
0.67281362285646273
40
0.67281362285646273
40
0.67281362285646273
40
0.67281362285646273
41
1
41
1
41
1
41
1
10
-90.695484942312063
20
-19.088179375316912
30
0
10
-95.285028070522912
20
-18.140935823508912
30
0
10
-96.786664059386254
20
-17.831010637520276
30
0
10
-97.566577866913192
20
-16.70407690204631
30
0
0
SPLINE
5
166
100
AcDbEntity
8
0
100
AcDbSpline
70
4
71
5
72
15
73
9
74
0
42
0.000000001
43
0.0000000001
44
0.0000000001
40
-0.64484904794302922
40
-0.64484904794302922
40
-0.64484904794302922
40
-0.64484904794302922
40
-0.64484904794302922
40
-0.64484904794302922
40
-0.60000000000000009
40
-0.40000000000000002
40
-0.20000000000000001
40
0
40
0
40
0
40
0
40
0
40
0
41
1
41
1
41
1
41
1
41
1
41
1
41
1
41
1
41
1
10
-97.566577866913178
20
-16.704076902046317
30
0
10
-97.49671679481834
20
-16.632587574378434
30
0
10
-97.107693616987376
20
-16.247484734684178
30
0
10
-96.328673192278131
20
-15.597259879262232
30
0
10
-95.057866226741936
20
-14.756278252206585
30
0
10
-93.702696847278276
20
-13.993936383497005
30
0
10
-92.470418570738417
20
-13.299921691467375
30
0
10
-91.674848152908936
20
-12.838107340289213
30
0
10
-91.283561467430786
20
-12.607412382455296
30
0
0
ARC
5
167
100
AcDbEntity
8
0
100
AcDbCircle
10
-94.000001400709152
20
-8.0000001192092896
30
0
40
5.3485786592906344
210
-0
220
0
230
1
100
AcDbArc
50
-59.477232195253094
51
51.221473797678911
0
SPLINE
5
168
100
AcDbEntity
8
0
100
AcDbSpline
70
4
71
5
72
15
73
9
74
0
42
0.000000001
43
0.0000000001
44
0.0000000001
40
-0.71099101497102057
40
-0.71099101497102057
40
-0.71099101497102057
40
-0.71099101497102057
40
-0.71099101497102057
40
-0.71099101497102057
40
-0.60000000000000009
40
-0.40000000000000002
40
-0.20000000000000001
40
0
40
0
40
0
40
0
40
0
40
0
41
1
41
1
41
1
41
1
41
1
41
1
41
1
41
1
41
1
10
-2.1825304105336754
20
-50.692815043124284
30
0
10
-2.3380857798495365
20
-50.651376027063897
30
0
10
-2.7710937217803173
20
-50.519787789441544
30
0
10
-3.4705867652442581
20
-50.239198840198895
30
0
10
-4.4240410172776894
20
-49.747948190332316
30
0
10
-5.3657613923754353
20
-49.217160405080989
30
0
10
-6.1613825127544342
20
-48.804688118829461
30
0
10
-6.693354150173664
20
-48.554270751475315
30
0
10
-6.959730251207259
20
-48.435211768906555
30
0
0
ARC
5
169
100
AcDbEntity
8
0
100
AcDbCircle
10
-9.0000001341104507
20
-53.000000789761543
30
0
40
4.9999999999999929
210
0
220
-0
230
1
100
AcDbArc
50
65.917352858295715
51
189.56659255526358
0
SPLINE
5
170
100
AcDbEntity
8
0
100
AcDbSpline
70
4
71
5
72
12
73
6
74
0
42
0.000000001
43
0.0000000001
44
0.0000000001
40
0
40
0
40
0
40
0
40
0
40
0
40
0.17466263901811688
40
0.17466263901811688
40
0.17466263901811688
40
0.17466263901811688
40
0.17466263901811688
40
0.17466263901811688
41
1
41
1
41
1
41
1
41
1
41
1
10
-13.9304656705983
20
-53.830969858683851
30
0
10
-13.863581276953326
20
-54.227821209869667
30
0
10
-13.814734981465215
20
-54.627857143993985
30
0
10
-13.78391551285789
20
-55.031071342553247
30
0
10
-13.770721193417554
20
-55.436574657029702
30
0
10
-13.774922902765072
20
-55.842831086790639
30
0
0
SPLINE
5
171
100
AcDbEntity
8
0
100
AcDbSpline
70
4
71
3
72
8
73
4
74
0
42
0.000000001
43
0.0000000001
44
0.0000000001
40
0.59117507662577484
40
0.59117507662577484
40
0.59117507662577484
40
0.59117507662577484
40
1
40
1
40
1
40
1
41
1
41
1
41
1
41
1
10
-13.77492290276507
20
-55.842831086790653
30
0
10
-14.534603893458671
20
-54.939043133943166
30
0
10
-15.311204654829758
20
-53.517941780665055
30
0
10
-16.624860781545479
20
-51.114083077099153
30
0
0
SPLINE
5
172
100
AcDbEntity
8
0
100
AcDbSpline
70
4
71
3
72
8
73
4
74
0
42
0.000000001
43
0.0000000001
44
0.0000000001
40
0
40
0
40
0
40
0
40
1
40
1
40
1
40
1
41
1
41
1
41
1
41
1
10
-16.624860781545479
20
-51.114083077099153
30
0
10
-19.838101341441316
20
-45.234144824332219
30
0
10
-19.838101341441316
20
-45.234144824332219
30
0
10
-16.674349039907284
20
-40.124879814770047
30
0
0
SPLINE
5
173
100
AcDbEntity
8
0
100
AcDbSpline
70
4
71
3
72
8
73
4
74
0
42
0.000000001
43
0.0000000001
44
0.0000000001
40
0
40
0
40
0
40
0
40
1
40
1
40
1
40
1
41
1
41
1
41
1
41
1
10
-16.674349039907284
20
-40.124879814770047
30
0
10
-13.510596738373257
20
-35.015614805207882
30
0
10
-13.510596738373257
20
-35.015614805207882
30
0
10
-7.1620662869165574
20
-35.637540667838088
30
0
0
SPLINE
5
174
100
AcDbEntity
8
0
100
AcDbSpline
70
4
71
3
72
8
73
4
74
0
42
0.000000001
43
0.0000000001
44
0.0000000001
40
0
40
0
40
0
40
0
40
0.24063151749760198
40
0.24063151749760198
40
0.24063151749760198
40
0.24063151749760198
41
1
41
1
41
1
41
1
10
-7.1620662869165574
20
-35.637540667838088
30
0
10
-5.6344097705027956
20
-35.787199517864529
30
0
10
-4.4743555598487781
20
-35.900845731702155
30
0
10
-3.5783184677476094
20
-36.004945779200717
30
0
0
ARC
5
175
100
AcDbEntity
8
0
100
AcDbCircle
10
-3.3560001341104324
20
-41.000000789761408
30
0
40
4.9999999999998685
210
0
220
-0
230
1
100
AcDbArc
50
70.176911034958778
51
92.54842062810323
0
SPLINE
5
176
100
AcDbEntity
8
0
100
AcDbSpline
70
4
71
3
72
8
73
4
74
0
42
0.000000001
43
0.0000000001
44
0.0000000001
40
0.46762606622688108
40
0.46762606622688108
40
0.46762606622688108
40
0.46762606622688108
40
1
40
1
40
1
40
1
41
1
41
1
41
1
41
1
10
-1.6604148970351138
20
-36.29627984737855
30
0
10
-0.57610595362526373
20
-36.538850796878741
30
0
10
-0.30580134634051392
20
-36.856900440470675
30
0
10
0.27223445364332299
20
-37.537037127799024
30
0
0
SPLINE
5
177
100
AcDbEntity
8
0
100
AcDbSpline
70
4
71
3
72
8
73
4
74
0
42
0.000000001
43
0.0000000001
44
0.0000000001
40
0
40
0
40
0
40
0
40
1
40
1
40
1
40
1
41
1
41
1
41
1
41
1
10
0.27223445364332299
20
-37.537037127799024
30
0
10
1.3580047427465214
20
-38.814591576244666
30
0
10
1.3580047427465214
20
-38.814591576244666
30
0
10
-1.6279564083765319
20
-48.836072899486844
30
0
0
SPLINE
5
178
100
AcDbEntity
8
0
100
AcDbSpline
70
4
71
3
72
8
73
4
74
0
42
0.000000001
43
0.0000000001
44
0.0000000001
40
0
40
0
40
0
40
0
40
0.066031903218342083
40
0.066031903218342083
40
0.066031903218342083
40
0.066031903218342083
41
1
41
1
41
1
41
1
10
-1.6279564083765319
20
-48.836072899486844
30
0
10
-1.8251251061212175
20
-49.4978103843276
30
0
10
-2.0092743794987413
20
-50.115852083613397
30
0
10
-2.1825304105336811
20
-50.692815043124298
30
0
0
SPLINE
5
179
100
AcDbEntity
8
0
100
AcDbSpline
70
4
71
3
72
8
73
4
74
0
42
0.000000001
43
0.0000000001
44
0.0000000001
40
0
40
0
40
0
40
0
40
1
40
1
40
1
40
1
41
1
41
1
41
1
41
1
10
-50.420496577138707
20
-29.067140684114115
30
0
10
-43.972618184601274
20
-32.274632240917505
30
0
10
-43.972618184601274
20
-32.274632240917505
30
0
10
-43.284215436493383
20
-37.350146080639192
30
0
0
SPLINE
5
180
100
AcDbEntity
8
0
100
AcDbSpline
70
4
71
3
72
8
73
4
74
0
42
0.000000001
43
0.0000000001
44
0.0000000001
40
0
40
0
40
0
40
0
40
1
40
1
40
1
40
1
41
1
41
1
41
1
41
1
10
-43.284215436493383
20
-37.350146080639192
30
0
10
-42.595812688385458
20
-42.425659920360872
30
0
10
-42.595812688385458
20
-42.425659920360872
30
0
10
-51.032660438731334
20
-43.880367638256374
30
0
0
SPLINE
5
181
100
AcDbEntity
8
0
100
AcDbSpline
70
4
71
3
72
8
73
4
74
0
42
0.000000001
43
0.0000000001
44
0.0000000001
40
0
40
0
40
0
40
0
40
1
40
1
40
1
40
1
41
1
41
1
41
1
41
1
10
-51.032660438731334
20
-43.880367638256374
30
0
10
-59.469508189077203
20
-45.335075356151876
30
0
10
-59.469508189077203
20
-45.335075356151876
30
0
10
-62.02328480294846
20
-40.854389549877467
30
0
0
SPLINE
5
182
100
AcDbEntity
8
0
100
AcDbSpline
70
4
71
3
72
8
73
4
74
0
42
0.000000001
43
0.0000000001
44
0.0000000001
40
0
40
0
40
0
40
0
40
1
40
1
40
1
40
1
41
1
41
1
41
1
41
1
10
-62.02328480294846
20
-40.854389549877467
30
0
10
-64.577061416819717
20
-36.373703743603052
30
0
10
-64.577061416819717
20
-36.373703743603052
30
0
10
-60.722718193247928
20
-31.116676435456895
30
0
0
SPLINE
5
183
100
AcDbEntity
8
0
100
AcDbSpline
70
4
71
3
72
8
73
4
74
0
42
0.000000001
43
0.0000000001
44
0.0000000001
40
0
40
0
40
0
40
0
40
1
40
1
40
1
40
1
41
1
41
1
41
1
41
1
10
-60.722718193247928
20
-31.116676435456895
30
0
10
-56.868374969676132
20
-25.859649127310746
30
0
10
-56.868374969676132
20
-25.859649127310746
30
0
10
-50.420496577138707
20
-29.067140684114115
30
0
0
SPLINE
5
184
100
AcDbEntity
8
0
100
AcDbSpline
70
4
71
3
72
8
73
4
74
0
42
0.000000001
43
0.0000000001
44
0.0000000001
40
0
40
0
40
0
40
0
40
1
40
1
40
1
40
1
41
1
41
1
41
1
41
1
10
-44.612719617401567
20
-8.8814703400792983
30
0
10
-40.640360341583694
20
-8.5192992941401702
30
0
10
-40.640360341583694
20
-8.5192992941401702
30
0
10
-37.472829200938349
20
-14.207711769726101
30
0
0
SPLINE
5
185
100
AcDbEntity
8
0
100
AcDbSpline
70
4
71
3
72
8
73
4
74
0
42
0.000000001
43
0.0000000001
44
0.0000000001
40
0
40
0
40
0
40
0
40
1
40
1
40
1
40
1
41
1
41
1
41
1
41
1
10
-37.472829200938349
20
-14.207711769726101
30
0
10
-34.305289985850457
20
-19.896124245312041
30
0
10
-34.305289985850457
20
-19.896124245312041
30
0
10
-38.434689094737166
20
-24.525412092195182
30
0
0
SPLINE
5
186
100
AcDbEntity
8
0
100
AcDbSpline
70
4
71
3
72
8
73
4
74
0
42
0.000000001
43
0.0000000001
44
0.0000000001
40
0
40
0
40
0
40
0
40
1
40
1
40
1
40
1
41
1
41
1
41
1
41
1
10
-38.434689094737166
20
-24.525412092195182
30
0
10
-42.564096278066444
20
-29.154699939078313
30
0
10
-42.564096278066444
20
-29.154699939078313
30
0
10
-49.011966596161322
20
-25.947208382274933
30
0
0
SPLINE
5
187
100
AcDbEntity
8
0
100
AcDbSpline
70
4
71
3
72
8
73
4
74
0
42
0.000000001
43
0.0000000001
44
0.0000000001
40
0
40
0
40
0
40
0
40
1
40
1
40
1
40
1
41
1
41
1
41
1
41
1
10
-49.011966596161322
20
-25.947208382274933
30
0
10
-55.459844988698769
20
-22.739716825471554
30
0
10
-55.459844988698769
20
-22.739716825471554
30
0
10
-55.812140991404647
20
-21.069155035005238
30
0
0
SPLINE
5
188
100
AcDbEntity
8
0
100
AcDbSpline
70
4
71
3
72
8
73
4
74
0
42
0.000000001
43
0.0000000001
44
0.0000000001
40
0
40
0
40
0
40
0
40
1
40
1
40
1
40
1
41
1
41
1
41
1
41
1
10
-55.812140991404647
20
-21.069155035005238
30
0
10
-56.164436994110545
20
-19.398593244538933
30
0
10
-56.164436994110545
20
-19.398593244538933
30
0
10
-52.374753906443708
20
-14.321117315278675
30
0
0
SPLINE
5
189
100
AcDbEntity
8
0
100
AcDbSpline
70
4
71
3
72
8
73
4
74
0
42
0.000000001
43
0.0000000001
44
0.0000000001
40
0
40
0
40
0
40
0
40
1
40
1
40
1
40
1
41
1
41
1
41
1
41
1
10
-52.374753906443708
20
-14.321117315278675
30
0
10
-48.585070818776892
20
-9.2436333115758806
30
0
10
-48.585070818776892
20
-9.2436333115758806
30
0
10
-44.612719617401567
20
-8.8814703400792983
30
0
0
SPLINE
5
190
100
AcDbEntity
8
0
100
AcDbSpline
70
4
71
3
72
8
73
4
74
0
42
0.000000001
43
0.0000000001
44
0.0000000001
40
0
40
0
40
0
40
0
40
1
40
1
40
1
40
1
41
1
41
1
41
1
41
1
10
-60.213608441864459
20
-22.082263415640817
30
0
10
-59.86131243915856
20
-23.752825206107133
30
0
10
-59.86131243915856
20
-23.752825206107133
30
0
10
-63.715663737172889
20
-29.009844439810735
30
0
0
SPLINE
5
191
100
AcDbEntity
8
0
100
AcDbSpline
70
4
71
3
72
8
73
4
74
0
42
0.000000001
43
0.0000000001
44
0.0000000001
40
0
40
0
40
0
40
0
40
1
40
1
40
1
40
1
41
1
41
1
41
1
41
1
10
-63.715663737172889
20
-29.009844439810735
30
0
10
-67.570006960744664
20
-34.266871747956891
30
0
10
-67.570006960744664
20
-34.266871747956891
30
0
10
-72.946229189748578
20
-33.715645704255707
30
0
0
SPLINE
5
192
100
AcDbEntity
8
0
100
AcDbSpline
70
4
71
3
72
8
73
4
74
0
42
0.000000001
43
0.0000000001
44
0.0000000001
40
0
40
0
40
0
40
0
40
1
40
1
40
1
40
1
41
1
41
1
41
1
41
1
10
-72.946229189748578
20
-33.715645704255707
30
0
10
-78.322451418752493
20
-33.164419660554543
30
0
10
-78.322451418752493
20
-33.164419660554543
30
0
10
-79.346839795624234
20
-27.930372215893087
30
0
0
SPLINE
5
193
100
AcDbEntity
8
0
100
AcDbSpline
70
4
71
3
72
8
73
4
74
0
42
0.000000001
43
0.0000000001
44
0.0000000001
40
0
40
0
40
0
40
0
40
1
40
1
40
1
40
1
41
1
41
1
41
1
41
1
10
-79.346839795624234
20
-27.930372215893087
30
0
10
-80.371228172495989
20
-22.69632477123163
30
0
10
-80.371228172495989
20
-22.69632477123163
30
0
10
-78.013402130320685
20
-18.85045163789016
30
0
0
SPLINE
5
194
100
AcDbEntity
8
0
100
AcDbSpline
70
4
71
3
72
8
73
4
74
0
42
0.000000001
43
0.0000000001
44
0.0000000001
40
0
40
0
40
0
40
0
40
1
40
1
40
1
40
1
41
1
41
1
41
1
41
1
10
-78.013402130320685
20
-18.85045163789016
30
0
10
-75.655576088145395
20
-15.004578504548691
30
0
10
-75.655576088145395
20
-15.004578504548691
30
0
10
-73.968994603668662
20
-14.499901622122744
30
0
0
SPLINE
5
195
100
AcDbEntity
8
0
100
AcDbSpline
70
4
71
3
72
8
73
4
74
0
42
0.000000001
43
0.0000000001
44
0.0000000001
40
0
40
0
40
0
40
0
40
1
40
1
40
1
40
1
41
1
41
1
41
1
41
1
10
-73.968994603668662
20
-14.499901622122744
30
0
10
-72.282413119191943
20
-13.995216665254251
30
0
10
-72.282413119191943
20
-13.995216665254251
30
0
10
-66.424154744659873
20
-17.203467219656936
30
0
0
SPLINE
5
196
100
AcDbEntity
8
0
100
AcDbSpline
70
4
71
3
72
8
73
4
74
0
42
0.000000001
43
0.0000000001
44
0.0000000001
40
0
40
0
40
0
40
0
40
1
40
1
40
1
40
1
41
1
41
1
41
1
41
1
10
-66.424154744659873
20
-17.203467219656936
30
0
10
-60.565896370127803
20
-20.411717774059603
30
0
10
-60.565896370127803
20
-20.411717774059603
30
0
10
-60.213608441864459
20
-22.082263415640817
30
0
0
SPLINE
5
197
100
AcDbEntity
8
0
100
AcDbSpline
70
4
71
3
72
8
73
4
74
0
42
0.000000001
43
0.0000000001
44
0.0000000001
40
0
40
0
40
0
40
0
40
1
40
1
40
1
40
1
41
1
41
1
41
1
41
1
10
-26.234892735992894
20
-18.593103005077669
30
0
10
-30.796072660004093
20
-18.103654521292675
30
0
10
-30.796072660004093
20
-18.103654521292675
30
0
10
-33.963611875091992
20
-12.415250120149279
30
0
0
SPLINE
5
198
100
AcDbEntity
8
0
100
AcDbSpline
70
4
71
3
72
8
73
4
74
0
42
0.000000001
43
0.0000000001
44
0.0000000001
40
0
40
0
40
0
40
0
40
1
40
1
40
1
40
1
41
1
41
1
41
1
41
1
10
-33.963611875091992
20
-12.415250120149279
30
0
10
-37.131151090179884
20
-6.7268376445633482
30
0
10
-37.131151090179884
20
-6.7268376445633482
30
0
10
-34.915378715708847
20
-3.1050222174189823
30
0
0
SPLINE
5
199
100
AcDbEntity
8
0
100
AcDbSpline
70
4
71
3
72
8
73
4
74
0
42
0.000000001
43
0.0000000001
44
0.0000000001
40
0
40
0
40
0
40
0
40
1
40
1
40
1
40
1
41
1
41
1
41
1
41
1
10
-34.915378715708847
20
-3.1050222174189823
30
0
10
-32.699598266795277
20
0.51680128416793814
30
0
10
-32.699598266795277
20
0.51680128416793814
30
0
10
-27.178770846242728
20
1.3514241123336301
30
0
0
SPLINE
5
200
100
AcDbEntity
8
0
100
AcDbSpline
70
4
71
3
72
8
73
4
74
0
42
0.000000001
43
0.0000000001
44
0.0000000001
40
0
40
0
40
0
40
0
40
1
40
1
40
1
40
1
41
1
41
1
41
1
41
1
10
-27.178770846242728
20
1.3514241123336301
30
0
10
-21.657943425690156
20
2.1860469404993221
30
0
10
-21.657943425690156
20
2.1860469404993221
30
0
10
-18.251521827891494
20
-3.0423968410355062
30
0
0
SPLINE
5
201
100
AcDbEntity
8
0
100
AcDbSpline
70
4
71
3
72
8
73
4
74
0
42
0.000000001
43
0.0000000001
44
0.0000000001
40
0
40
0
40
0
40
0
40
1
40
1
40
1
40
1
41
1
41
1
41
1
41
1
10
-18.251521827891494
20
-3.0423968410355062
30
0
10
-14.845100230092827
20
-8.2708406225703346
30
0
10
-14.845100230092827
20
-8.2708406225703346
30
0
10
-18.259402483815961
20
-13.6766960557165
30
0
0
SPLINE
5
202
100
AcDbEntity
8
0
100
AcDbSpline
70
4
71
3
72
8
73
4
74
0
42
0.000000001
43
0.0000000001
44
0.0000000001
40
0
40
0
40
0
40
0
40
1
40
1
40
1
40
1
41
1
41
1
41
1
41
1
10
-18.259402483815961
20
-13.6766960557165
30
0
10
-21.673704737539119
20
-19.082551488862663
30
0
10
-21.673704737539119
20
-19.082551488862663
30
0
10
-26.234892735992894
20
-18.593103005077669
30
0
0
ARC
5
203
100
AcDbEntity
8
0
100
AcDbCircle
10
-67.062082932430869
20
4.6590087303229568
30
0
40
7.2500000000000266
210
0
220
0
230
1
100
AcDbArc
50
163.92884915201896
51
238.08838425426882
0
SPLINE
5
204
100
AcDbEntity
8
0
100
AcDbSpline
70
4
71
3
72
8
73
4
74
0
42
0.000000001
43
0.0000000001
44
0.0000000001
40
0.91530803048484521
40
0.91530803048484521
40
0.91530803048484521
40
0.91530803048484521
40
1
40
1
40
1
40
1
41
1
41
1
41
1
41
1
10
-70.894508611161427
20
-1.4952591722798276
30
0
10
-71.065506210648067
20
-1.9789333868233239
30
0
10
-71.255261526954257
20
-2.5056320782012258
30
0
10
-71.462574595327183
20
-3.0810653463862625
30
0
0
SPLINE
5
205
100
AcDbEntity
8
0
100
AcDbSpline
70
4
71
3
72
8
73
4
74
0
42
0.000000001
43
0.0000000001
44
0.0000000001
40
0
40
0
40
0
40
0
40
1
40
1
40
1
40
1
41
1
41
1
41
1
41
1
10
-71.462574595327183
20
-3.0810653463862625
30
0
10
-73.910430671885621
20
-9.8754907385371293
30
0
10
-73.910430671885621
20
-9.8754907385371293
30
0
10
-75.597012156362339
20
-10.380175695405622
30
0
0
SPLINE
5
206
100
AcDbEntity
8
0
100
AcDbSpline
70
4
71
3
72
8
73
4
74
0
42
0.000000001
43
0.0000000001
44
0.0000000001
40
0
40
0
40
0
40
0
40
1
40
1
40
1
40
1
41
1
41
1
41
1
41
1
10
-75.597012156362339
20
-10.380175695405622
30
0
10
-77.283593640839058
20
-10.884860652274106
30
0
10
-77.283593640839058
20
-10.884860652274106
30
0
10
-82.849742907399957
20
-5.8163635031245331
30
0
0
SPLINE
5
207
100
AcDbEntity
8
0
100
AcDbSpline
70
4
71
3
72
8
73
4
74
0
42
0.000000001
43
0.0000000001
44
0.0000000001
40
0
40
0
40
0
40
0
40
1
40
1
40
1
40
1
41
1
41
1
41
1
41
1
10
-82.849742907399957
20
-5.8163635031245331
30
0
10
-88.415892173960799
20
-0.74786635397496859
30
0
10
-88.415892173960799
20
-0.74786635397496859
30
0
10
-88.315115056549516
20
0.46988069853560965
30
0
0
SPLINE
5
208
100
AcDbEntity
8
0
100
AcDbSpline
70
4
71
3
72
8
73
4
74
0
42
0.000000001
43
0.0000000001
44
0.0000000001
40
0
40
0
40
0
40
0
40
1
40
1
40
1
40
1
41
1
41
1
41
1
41
1
10
-88.315115056549516
20
0.46988069853560965
30
0
10
-88.214337939138233
20
1.6876277510461879
30
0
10
-88.214337939138233
20
1.6876277510461879
30
0
10
-83.03771996708214
20
5.3058258279301551
30
0
0
SPLINE
5
209
100
AcDbEntity
8
0
100
AcDbSpline
70
4
71
3
72
8
73
4
74
0
42
0.000000001
43
0.0000000001
44
0.0000000001
40
0
40
0
40
0
40
0
40
0.95337424460486608
40
0.95337424460486608
40
0.95337424460486608
40
0.95337424460486608
41
1
41
1
41
1
41
1
10
-83.03771996708214
20
5.3058258279301551
30
0
10
-78.102465718365224
20
8.7553303842757231
30
0
10
-77.872355760951748
20
8.9161661399542922
30
0
10
-74.028743245036992
20
6.6660324194604668
30
0
0
SPLINE
5
210
100
AcDbEntity
8
0
100
AcDbSpline
70
4
71
3
72
8
73
4
74
0
42
0.000000001
43
0.0000000001
44
0.0000000001
40
0
40
0
40
0
40
0
40
1
40
1
40
1
40
1
41
1
41
1
41
1
41
1
10
-95.94174901854494
20
18.54045081775763
30
0
10
-92.862956001475467
20
23.097650041593887
30
0
10
-92.862956001475467
20
23.097650041593887
30
0
10
-86.900505020335316
20
22.395003976835596
30
0
0
SPLINE
5
211
100
AcDbEntity
8
0
100
AcDbSpline
70
4
71
3
72
8
73
4
74
0
42
0.000000001
43
0.0000000001
44
0.0000000001
40
0
40
0
40
0
40
0
40
1
40
1
40
1
40
1
41
1
41
1
41
1
41
1
10
-86.900505020335316
20
22.395003976835596
30
0
10
-80.93805403919518
20
21.692365986519839
30
0
10
-80.93805403919518
20
21.692365986519839
30
0
10
-80.297225906565785
20
16.687277434680638
30
0
0
SPLINE
5
212
100
AcDbEntity
8
0
100
AcDbSpline
70
4
71
3
72
8
73
4
74
0
42
0.000000001
43
0.0000000001
44
0.0000000001
40
0
40
0
40
0
40
0
40
1
40
1
40
1
40
1
41
1
41
1
41
1
41
1
10
-80.297225906565785
20
16.687277434680638
30
0
10
-79.656397773936391
20
11.68219695728399
30
0
10
-79.656397773936391
20
11.68219695728399
30
0
10
-84.833011708771195
20
8.0639988804000406
30
0
0
SPLINE
5
213
100
AcDbEntity
8
0
100
AcDbSpline
70
4
71
3
72
8
73
4
74
0
42
0.000000001
43
0.0000000001
44
0.0000000001
40
0
40
0
40
0
40
0
40
1
40
1
40
1
40
1
41
1
41
1
41
1
41
1
10
-84.833011708771195
20
8.0639988804000406
30
0
10
-90.009629680827288
20
4.4457927290735366
30
0
10
-90.009629680827288
20
4.4457927290735366
30
0
10
-94.515087876831501
20
9.2145261987187421
30
0
0
SPLINE
5
214
100
AcDbEntity
8
0
100
AcDbSpline
70
4
71
3
72
8
73
4
74
0
42
0.000000001
43
0.0000000001
44
0.0000000001
40
0
40
0
40
0
40
0
40
1
40
1
40
1
40
1
41
1
41
1
41
1
41
1
10
-94.515087876831501
20
9.2145261987187421
30
0
10
-99.020546072835742
20
13.98325966836393
30
0
10
-99.020546072835742
20
13.98325966836393
30
0
10
-95.94174901854494
20
18.54045081775763
30
0
0
SPLINE
5
215
100
AcDbEntity
8
0
100
AcDbSpline
70
4
71
3
72
8
73
4
74
0
42
0.000000001
43
0.0000000001
44
0.0000000001
40
0
40
0
40
0
40
0
40
1
40
1
40
1
40
1
41
1
41
1
41
1
41
1
10
4.4009068627009729
20
-33.865055189119019
30
0
10
3.3151365735977745
20
-32.58750074067337
30
0
10
3.3151365735977745
20
-32.58750074067337
30
0
10
5.5579098839411945
20
-24.292787402457236
30
0
0
SPLINE
5
216
100
AcDbEntity
8
0
100
AcDbSpline
70
4
71
3
72
8
73
4
74
0
42
0.000000001
43
0.0000000001
44
0.0000000001
40
0
40
0
40
0
40
0
40
1
40
1
40
1
40
1
41
1
41
1
41
1
41
1
10
5.5579098839411945
20
-24.292787402457236
30
0
10
7.8006831942846322
20
-15.998074064241088
30
0
10
7.8006831942846322
20
-15.998074064241088
30
0
10
13.837104143584744
20
-16.004896968192099
30
0
0
SPLINE
5
217
100
AcDbEntity
8
0
100
AcDbSpline
70
4
71
3
72
8
73
4
74
0
42
0.000000001
43
0.0000000001
44
0.0000000001
40
0
40
0
40
0
40
0
40
1
40
1
40
1
40
1
41
1
41
1
41
1
41
1
10
13.837104143584744
20
-16.004896968192099
30
0
10
19.873541241769949
20
-16.011727946585658
30
0
10
19.873541241769949
20
-16.011727946585658
30
0
10
22.336924471343515
20
-18.600684906627968
30
0
0
SPLINE
5
218
100
AcDbEntity
8
0
100
AcDbSpline
70
4
71
3
72
8
73
4
74
0
42
0.000000001
43
0.0000000001
44
0.0000000001
40
0
40
0
40
0
40
0
40
1
40
1
40
1
40
1
41
1
41
1
41
1
41
1
10
22.336924471343515
20
-18.600684906627968
30
0
10
24.800307700917116
20
-21.189649941112833
30
0
10
24.800307700917116
20
-21.189649941112833
30
0
10
21.342815254017673
20
-29.333710330313671
30
0
0
SPLINE
5
219
100
AcDbEntity
8
0
100
AcDbSpline
70
4
71
3
72
8
73
4
74
0
42
0.000000001
43
0.0000000001
44
0.0000000001
40
0
40
0
40
0
40
0
40
1
40
1
40
1
40
1
41
1
41
1
41
1
41
1
10
21.342815254017673
20
-29.333710330313671
30
0
10
17.885338956003373
20
-37.477770719514524
30
0
10
17.885338956003373
20
-37.477770719514524
30
0
10
11.686008053903754
20
-36.310190178539585
30
0
0
SPLINE
5
220
100
AcDbEntity
8
0
100
AcDbSpline
70
4
71
3
72
8
73
4
74
0
42
0.000000001
43
0.0000000001
44
0.0000000001
40
0
40
0
40
0
40
0
40
1
40
1
40
1
40
1
41
1
41
1
41
1
41
1
10
11.686008053903754
20
-36.310190178539585
30
0
10
5.4866771518041357
20
-35.142609637564647
30
0
10
5.4866771518041357
20
-35.142609637564647
30
0
10
4.4009068627009729
20
-33.865055189119019
30
0
0
SPLINE
5
221
100
AcDbEntity
8
0
100
AcDbSpline
70
4
71
3
72
8
73
4
74
0
42
0.000000001
43
0.0000000001
44
0.0000000001
40
0
40
0
40
0
40
0
40
1
40
1
40
1
40
1
41
1
41
1
41
1
41
1
10
-78.801516169423877
20
-37.550166171378109
30
0
10
-78.758002998545777
20
-37.507064797069845
30
0
10
-78.758002998545777
20
-37.507064797069845
30
0
10
-73.381780769541876
20
-38.058290840771008
30
0
0
SPLINE
5
222
100
AcDbEntity
8
0
100
AcDbSpline
70
4
71
3
72
8
73
4
74
0
42
0.000000001
43
0.0000000001
44
0.0000000001
40
0
40
0
40
0
40
0
40
1
40
1
40
1
40
1
41
1
41
1
41
1
41
1
10
-73.381780769541876
20
-38.058290840771008
30
0
10
-68.005558540537962
20
-38.609516884472185
30
0
10
-68.005558540537962
20
-38.609516884472185
30
0
10
-65.451790001109259
20
-43.090218839631696
30
0
0
SPLINE
5
223
100
AcDbEntity
8
0
100
AcDbSpline
70
4
71
3
72
8
73
4
74
0
42
0.000000001
43
0.0000000001
44
0.0000000001
40
0
40
0
40
0
40
0
40
1
40
1
40
1
40
1
41
1
41
1
41
1
41
1
10
-65.451790001109259
20
-43.090218839631696
30
0
10
-62.898013387238009
20
-47.570904645906111
30
0
10
-62.898013387238009
20
-47.570904645906111
30
0
10
-64.439440618072965
20
-52.18785474457961
30
0
0
SPLINE
5
224
100
AcDbEntity
8
0
100
AcDbSpline
70
4
71
3
72
8
73
4
74
0
42
0.000000001
43
0.0000000001
44
0.0000000001
40
0
40
0
40
0
40
0
40
1
40
1
40
1
40
1
41
1
41
1
41
1
41
1
10
-64.439440618072965
20
-52.18785474457961
30
0
10
-65.980867848907934
20
-56.804788694368028
30
0
10
-65.980867848907934
20
-56.804788694368028
30
0
10
-72.437668500458216
20
-58.088285932527207
30
0
0
SPLINE
5
225
100
AcDbEntity
8
0
100
AcDbSpline
70
4
71
3
72
8
73
4
74
0
42
0.000000001
43
0.0000000001
44
0.0000000001
40
0
40
0
40
0
40
0
40
1
40
1
40
1
40
1
41
1
41
1
41
1
41
1
10
-72.437668500458216
20
-58.088285932527207
30
0
10
-78.894469152008512
20
-59.371783170686385
30
0
10
-78.894469152008512
20
-59.371783170686385
30
0
10
-80.397397440786193
20
-56.708718976960803
30
0
0
SPLINE
5
226
100
AcDbEntity
8
0
100
AcDbSpline
70
4
71
3
72
8
73
4
74
0
42
0.000000001
43
0.0000000001
44
0.0000000001
40
0
40
0
40
0
40
0
40
1
40
1
40
1
40
1
41
1
41
1
41
1
41
1
10
-80.397397440786193
20
-56.708718976960803
30
0
10
-81.90032976678512
20
-54.0456547832352
30
0
10
-81.90032976678512
20
-54.0456547832352
30
0
10
-80.372681572154193
20
-45.819461164460797
30
0
0
SPLINE
5
227
100
AcDbEntity
8
0
100
AcDbSpline
70
4
71
3
72
8
73
4
74
0
42
0.000000001
43
0.0000000001
44
0.0000000001
40
0
40
0
40
0
40
0
40
1
40
1
40
1
40
1
41
1
41
1
41
1
41
1
10
-80.372681572154193
20
-45.819461164460797
30
0
10
-78.845029340301977
20
-37.593283694571468
30
0
10
-78.845029340301977
20
-37.593283694571468
30
0
10
-78.801516169423877
20
-37.550166171378109
30
0
0
SPLINE
5
228
100
AcDbEntity
8
0
100
AcDbSpline
70
4
71
3
72
8
73
4
74
0
42
0.000000001
43
0.0000000001
44
0.0000000001
40
0
40
0
40
0
40
0
40
1
40
1
40
1
40
1
41
1
41
1
41
1
41
1
10
-19.544450014943891
20
-27.956258878694207
30
0
10
-16.995873342071988
20
-32.474232460644068
30
0
10
-16.995873342071988
20
-32.474232460644068
30
0
10
-20.159633718048575
20
-37.583513619091335
30
0
0
SPLINE
5
229
100
AcDbEntity
8
0
100
AcDbSpline
70
4
71
3
72
8
73
4
74
0
42
0.000000001
43
0.0000000001
44
0.0000000001
40
0
40
0
40
0
40
0
40
1
40
1
40
1
40
1
41
1
41
1
41
1
41
1
10
-20.159633718048575
20
-37.583513619091335
30
0
10
-23.323386019582586
20
-42.692778628653514
30
0
10
-23.323386019582586
20
-42.692778628653514
30
0
10
-30.297992597137899
20
-42.692294162100772
30
0
0
SPLINE
5
230
100
AcDbEntity
8
0
100
AcDbSpline
70
4
71
3
72
8
73
4
74
0
42
0.000000001
43
0.0000000001
44
0.0000000001
40
0
40
0
40
0
40
0
40
1
40
1
40
1
40
1
41
1
41
1
41
1
41
1
10
-30.297992597137899
20
-42.692294162100772
30
0
10
-37.272599174693248
20
-42.69179354666295
30
0
10
-37.272599174693248
20
-42.69179354666295
30
0
10
-37.685001327708385
20
-42.2804168478511
30
0
0
SPLINE
5
231
100
AcDbEntity
8
0
100
AcDbSpline
70
4
71
3
72
8
73
4
74
0
42
0.000000001
43
0.0000000001
44
0.0000000001
40
0
40
0
40
0
40
0
40
1
40
1
40
1
40
1
41
1
41
1
41
1
41
1
10
-37.685001327708385
20
-42.2804168478511
30
0
10
-38.097395406280967
20
-41.869024000154162
30
0
10
-38.097395406280967
20
-41.869024000154162
30
0
10
-38.785798154388893
20
-36.793510160432483
30
0
0
SPLINE
5
232
100
AcDbEntity
8
0
100
AcDbSpline
70
4
71
3
72
8
73
4
74
0
42
0.000000001
43
0.0000000001
44
0.0000000001
40
0
40
0
40
0
40
0
40
1
40
1
40
1
40
1
41
1
41
1
41
1
41
1
10
-38.785798154388893
20
-36.793510160432483
30
0
10
-39.474200902496783
20
-31.7179963207108
30
0
10
-39.474200902496783
20
-31.7179963207108
30
0
10
-35.344793719167519
20
-27.088692324942578
30
0
0
SPLINE
5
233
100
AcDbEntity
8
0
100
AcDbSpline
70
4
71
3
72
8
73
4
74
0
42
0.000000001
43
0.0000000001
44
0.0000000001
40
0
40
0
40
0
40
0
40
1
40
1
40
1
40
1
41
1
41
1
41
1
41
1
10
-35.344793719167519
20
-27.088692324942578
30
0
10
-31.215386535838256
20
-22.459404478059444
30
0
10
-31.215386535838256
20
-22.459404478059444
30
0
10
-26.654206611827036
20
-22.948836812959339
30
0
0
SPLINE
5
234
100
AcDbEntity
8
0
100
AcDbSpline
70
4
71
3
72
8
73
4
74
0
42
0.000000001
43
0.0000000001
44
0.0000000001
40
0
40
0
40
0
40
0
40
1
40
1
40
1
40
1
41
1
41
1
41
1
41
1
10
-26.654206611827036
20
-22.948836812959339
30
0
10
-22.09301861337326
20
-23.438285296744333
30
0
10
-22.09301861337326
20
-23.438285296744333
30
0
10
-19.544450014943891
20
-27.956258878694207
30
0
0
SPLINE
5
235
100
AcDbEntity
8
0
100
AcDbSpline
70
4
71
3
72
8
73
4
74
0
42
0.000000001
43
0.0000000001
44
0.0000000001
40
0
40
0
40
0
40
0
40
1
40
1
40
1
40
1
41
1
41
1
41
1
41
1
10
-5.9124009630233143
20
-10.354612010306354
30
0
10
-0.41276895415287562
20
-10.236717074698447
30
0
10
-0.41276895415287562
20
-10.236717074698447
30
0
10
1.8131610690404809
20
-12.605669698701538
30
0
0
SPLINE
5
236
100
AcDbEntity
8
0
100
AcDbSpline
70
4
71
3
72
8
73
4
74
0
42
0.000000001
43
0.0000000001
44
0.0000000001
40
0
40
0
40
0
40
0
40
1
40
1
40
1
40
1
41
1
41
1
41
1
41
1
10
1.8131610690404809
20
-12.605669698701538
30
0
10
4.0390910922338374
20
-14.974614248262084
30
0
10
4.0390910922338374
20
-14.974614248262084
30
0
10
1.7963177818904175
20
-23.269335660920774
30
0
0
SPLINE
5
237
100
AcDbEntity
8
0
100
AcDbSpline
70
4
71
3
72
8
73
4
74
0
42
0.000000001
43
0.0000000001
44
0.0000000001
40
0
40
0
40
0
40
0
40
1
40
1
40
1
40
1
41
1
41
1
41
1
41
1
10
1.7963177818904175
20
-23.269335660920774
30
0
10
-0.44645552845300251
20
-31.564048999136915
30
0
10
-0.44645552845300251
20
-31.564048999136915
30
0
10
-6.7949859799097201
20
-30.942106987621614
30
0
0
SPLINE
5
238
100
AcDbEntity
8
0
100
AcDbSpline
70
4
71
3
72
8
73
4
74
0
42
0.000000001
43
0.0000000001
44
0.0000000001
40
0
40
0
40
0
40
0
40
1
40
1
40
1
40
1
41
1
41
1
41
1
41
1
10
-6.7949859799097201
20
-30.942106987621614
30
0
10
-13.14351643136642
20
-30.320164976106312
30
0
10
-13.14351643136642
20
-30.320164976106312
30
0
10
-15.692093104238323
20
-25.802191394156448
30
0
0
SPLINE
5
239
100
AcDbEntity
8
0
100
AcDbSpline
70
4
71
3
72
8
73
4
74
0
42
0.000000001
43
0.0000000001
44
0.0000000001
40
0
40
0
40
0
40
0
40
1
40
1
40
1
40
1
41
1
41
1
41
1
41
1
10
-15.692093104238323
20
-25.802191394156448
30
0
10
-18.240669777110242
20
-21.28420973776403
30
0
10
-18.240669777110242
20
-21.28420973776403
30
0
10
-14.826359448944553
20
-15.878362379060418
30
0
0
SPLINE
5
240
100
AcDbEntity
8
0
100
AcDbSpline
70
4
71
3
72
8
73
4
74
0
42
0.000000001
43
0.0000000001
44
0.0000000001
40
0
40
0
40
0
40
0
40
1
40
1
40
1
40
1
41
1
41
1
41
1
41
1
10
-14.826359448944553
20
-15.878362379060418
30
0
10
-11.412049120778862
20
-10.472506945914262
30
0
10
-11.412049120778862
20
-10.472506945914262
30
0
10
-5.9124009630233143
20
-10.354612010306354
30
0
0
SPLINE
5
241
100
AcDbEntity
8
0
100
AcDbSpline
70
4
71
3
72
8
73
4
74
0
42
0.000000001
43
0.0000000001
44
0.0000000001
40
0.14250273405525357
40
0.14250273405525357
40
0.14250273405525357
40
0.14250273405525357
40
1
40
1
40
1
40
1
41
1
41
1
41
1
41
1
10
-99.273634903341033
20
-23.160582376955055
30
0
10
-97.823193421534782
20
-20.641579673365129
30
0
10
-96.98964541001618
20
-20.813619027530343
30
0
10
-91.140297907705133
20
-22.020889577851914
30
0
0
SPLINE
5
242
100
AcDbEntity
8
0
100
AcDbSpline
70
4
71
3
72
8
73
4
74
0
42
0.000000001
43
0.0000000001
44
0.0000000001
40
0
40
0
40
0
40
0
40
1
40
1
40
1
40
1
41
1
41
1
41
1
41
1
10
-91.140297907705133
20
-22.020889577851914
30
0
10
-84.318879654124402
20
-23.428773603425643
30
0
10
-84.318879654124402
20
-23.428773603425643
30
0
10
-83.294491277252661
20
-28.662821048087093
30
0
0
SPLINE
5
243
100
AcDbEntity
8
0
100
AcDbSpline
70
4
71
3
72
8
73
4
74
0
42
0.000000001
43
0.0000000001
44
0.0000000001
40
0
40
0
40
0
40
0
40
1
40
1
40
1
40
1
41
1
41
1
41
1
41
1
10
-83.294491277252661
20
-28.662821048087093
30
0
10
-82.27010290038092
20
-33.896868492748553
30
0
10
-82.27010290038092
20
-33.896868492748553
30
0
10
-82.313612034037718
20
-33.939969867056817
30
0
0
SPLINE
5
244
100
AcDbEntity
8
0
100
AcDbSpline
70
4
71
3
72
8
73
4
74
0
42
0.000000001
43
0.0000000001
44
0.0000000001
40
0
40
0
40
0
40
0
40
1
40
1
40
1
40
1
41
1
41
1
41
1
41
1
10
-82.313612034037718
20
-33.939969867056817
30
0
10
-82.357121167694558
20
-33.983071241365089
30
0
10
-82.357121167694558
20
-33.983071241365089
30
0
10
-89.936128030334928
20
-34.757006559358253
30
0
0
SPLINE
5
245
100
AcDbEntity
8
0
100
AcDbSpline
70
4
71
3
72
8
73
4
74
0
42
0.000000001
43
0.0000000001
44
0.0000000001
40
0
40
0
40
0
40
0
40
0.86002668092124634
40
0.86002668092124634
40
0.86002668092124634
40
0.86002668092124634
41
1
41
1
41
1
41
1
10
-89.936128030334928
20
-34.757006559358253
30
0
10
-96.454276147090866
20
-35.422611582139645
30
0
10
-97.366642973240118
20
-35.51577852637385
30
0
10
-98.979866196758877
20
-33.350144826669073
30
0
0
SPLINE
5
246
100
AcDbEntity
8
0
100
AcDbSpline
70
4
71
5
72
14
73
8
74
0
42
0.000000001
43
0.0000000001
44
0.0000000001
40
-0.92353695845350392
40
-0.92353695845350392
40
-0.92353695845350392
40
-0.92353695845350392
40
-0.92353695845350392
40
-0.92353695845350392
40
-0.80000000000000004
40
-0.60000000000000009
40
-0.40774036021177362
40
-0.40774036021177362
40
-0.40774036021177362
40
-0.40774036021177362
40
-0.40774036021177362
40
-0.40774036021177362
41
1
41
1
41
1
41
1
41
1
41
1
41
1
41
1
10
-98.979866196760625
20
-33.350144826650812
30
0
10
-99.026529896753601
20
-32.862743371508657
30
0
10
-99.136473552705468
20
-31.58596018103259
30
0
10
-99.261839654614363
20
-29.549235916035286
30
0
10
-99.31652750170413
20
-27.510893487302177
30
0
10
-99.317626601634842
20
-25.471698977502967
30
0
10
-99.292123916515052
20
-23.920753041130986
30
0
10
-99.273634903341033
20
-23.160582376955059
30
0
0
SPLINE
5
247
100
AcDbEntity
8
0
100
AcDbSpline
70
4
71
3
72
8
73
4
74
0
42
0.000000001
43
0.0000000001
44
0.0000000001
40
0.11750860009568498
40
0.11750860009568498
40
0.11750860009568498
40
0.11750860009568498
40
1
40
1
40
1
40
1
41
1
41
1
41
1
41
1
10
-34.907235707212827
20
-64.394521947832544
30
0
10
-37.985820598066951
20
-62.032667158874339
30
0
10
-37.942871822847323
20
-61.255271970892373
30
0
10
-37.577377083018433
20
-54.639626925772653
30
0
0
SPLINE
5
248
100
AcDbEntity
8
0
100
AcDbSpline
70
4
71
3
72
8
73
4
74
0
42
0.000000001
43
0.0000000001
44
0.0000000001
40
0
40
0
40
0
40
0
40
1
40
1
40
1
40
1
41
1
41
1
41
1
41
1
10
-37.577377083018433
20
-54.639626925772653
30
0
10
-37.163214701528375
20
-47.1430560843013
30
0
10
-37.163214701528375
20
-47.1430560843013
30
0
10
-30.188608123973026
20
-47.143556699739122
30
0
0
SPLINE
5
249
100
AcDbEntity
8
0
100
AcDbSpline
70
4
71
3
72
8
73
4
74
0
42
0.000000001
43
0.0000000001
44
0.0000000001
40
0
40
0
40
0
40
0
40
1
40
1
40
1
40
1
41
1
41
1
41
1
41
1
10
-30.188608123973026
20
-47.143556699739122
30
0
10
-23.214001546417713
20
-47.144057315176944
30
0
10
-23.214001546417713
20
-47.144057315176944
30
0
10
-20.000752912079321
20
-53.023995567943885
30
0
0
SPLINE
5
250
100
AcDbEntity
8
0
100
AcDbSpline
70
4
71
3
72
8
73
4
74
0
42
0.000000001
43
0.0000000001
44
0.0000000001
40
0
40
0
40
0
40
0
40
0.95317642522989776
40
0.95317642522989776
40
0.95317642522989776
40
0.95317642522989776
41
1
41
1
41
1
41
1
10
-20.000752912079321
20
-53.023995567943885
30
0
10
-16.937967761794098
20
-58.628614092288799
30
0
10
-16.794557212304959
20
-58.89104236682136
30
0
10
-22.083688412427939
20
-63.163845980832647
30
0
0
LINE
5
251
100
AcDbEntity
8
0
100
AcDbLine
10
-22.083688412427939
20
-63.163845980832647
30
0
11
-34.907235707212827
21
-64.394521947832544
31
0
0
SPLINE
5
252
100
AcDbEntity
8
0
100
AcDbSpline
70
4
71
3
72
8
73
4
74
0
42
0.000000001
43
0.0000000001
44
0.0000000001
40
0.93987573665264634
40
0.93987573665264634
40
0.93987573665264634
40
0.93987573665264634
40
1
40
1
40
1
40
1
41
1
41
1
41
1
41
1
10
-97.573222487635718
20
7.8160452830781573
30
0
10
-97.333467059535252
20
7.5628209560736419
30
0
10
-97.078866607132341
20
7.293342992691926
30
0
10
-96.807979252055276
20
7.006626405729639
30
0
0
SPLINE
5
253
100
AcDbEntity
8
0
100
AcDbSpline
70
4
71
3
72
8
73
4
74
0
42
0.000000001
43
0.0000000001
44
0.0000000001
40
0
40
0
40
0
40
0
40
1
40
1
40
1
40
1
41
1
41
1
41
1
41
1
10
-96.807979252055276
20
7.006626405729639
30
0
10
-92.302521056051063
20
2.2378929360844513
30
0
10
-92.302521056051063
20
2.2378929360844513
30
0
10
-92.40329817346236
20
1.0201539580164098
30
0
0
SPLINE
5
254
100
AcDbEntity
8
0
100
AcDbSpline
70
4
71
3
72
8
73
4
74
0
42
0.000000001
43
0.0000000001
44
0.0000000001
40
0
40
0
40
0
40
0
40
0.67283555987849875
40
0.67283555987849875
40
0.67283555987849875
40
0.67283555987849875
41
1
41
1
41
1
41
1
10
-92.40329817346236
20
1.0201539580164098
30
0
10
-92.471104601678732
20
0.20081043815006333
30
0
10
-92.493288453802776
20
-0.06724962579418986
30
0
10
-93.88971433452555
20
-1.4157755786439286
30
0
0
SPLINE
5
255
100
AcDbEntity
8
0
100
AcDbSpline
70
4
71
5
72
15
73
9
74
0
42
0.000000001
43
0.0000000001
44
0.0000000001
40
0.35390349043084562
40
0.35390349043084562
40
0.35390349043084562
40
0.35390349043084562
40
0.35390349043084562
40
0.35390349043084562
40
0.40000000000000002
40
0.60000000000000009
40
0.80000000000000004
40
1
40
1
40
1
40
1
40
1
40
1
41
1
41
1
41
1
41
1
41
1
41
1
41
1
41
1
41
1
10
-93.88971433452555
20
-1.4157755786439161
30
0
10
-93.966777308217658
20
-1.3550519868530624
30
0
10
-94.375952681365476
20
-1.029669555287918
30
0
10
-95.09413949932366
20
-0.42692711740478018
30
0
10
-96.045691594777466
20
0.49983715476115997
30
0
10
-96.780018686826082
20
1.5686146609681209
30
0
10
-97.155459686647703
20
2.7672041367997973
30
0
10
-97.245709765338717
20
3.6742882499821676
30
0
10
-97.250786788881783
20
4.1548616278535331
30
0
0
SPLINE
5
256
100
AcDbEntity
8
0
100
AcDbSpline
70
4
71
5
72
13
73
7
74
0
42
0.000000001
43
0.0000000001
44
0.0000000001
40
-0.89537870350125115
40
-0.89537870350125115
40
-0.89537870350125115
40
-0.89537870350125115
40
-0.89537870350125115
40
-0.89537870350125115
40
-0.80000000000000004
40
-0.7224714902198478
40
-0.7224714902198478
40
-0.7224714902198478
40
-0.7224714902198478
40
-0.7224714902198478
40
-0.7224714902198478
41
1
41
1
41
1
41
1
41
1
41
1
41
1
10
-97.250786788881783
20
4.1548616278535349
30
0
10
-97.255095198764892
20
4.5626807118554291
30
0
10
-97.279179132907956
20
5.3002551021565463
30
0
10
-97.33220898591955
20
6.0345292296249404
30
0
10
-97.412896163985408
20
6.765111170566529
30
0
10
-97.519994446041522
20
7.4913528830741472
30
0
10
-97.573222487635718
20
7.8160452830781306
30
0
0
SPLINE
5
257
100
AcDbEntity
8
0
100
AcDbSpline
70
4
71
3
72
8
73
4
74
0
42
0.000000001
43
0.0000000001
44
0.0000000001
40
0.93712347445070299
40
0.93712347445070299
40
0.93712347445070299
40
0.93712347445070299
40
1
40
1
40
1
40
1
41
1
41
1
41
1
41
1
10
-72.855936376040489
20
-62.666255363326464
30
0
10
-72.499284728536921
20
-62.595108869234252
30
0
10
-72.118830699910802
20
-62.51948127408437
30
0
10
-71.712850016469773
20
-62.438779427196806
30
0
0
SPLINE
5
258
100
AcDbEntity
8
0
100
AcDbSpline
70
4
71
3
72
8
73
4
74
0
42
0.000000001
43
0.0000000001
44
0.0000000001
40
0
40
0
40
0
40
0
40
0.71276024200351729
40
0.71276024200351729
40
0.71276024200351729
40
0.71276024200351729
41
1
41
1
41
1
41
1
10
-71.712850016469773
20
-62.438779427196806
30
0
10
-67.110699221502315
20
-61.523953625115617
30
0
10
-65.788778540892551
20
-61.261179283116874
30
0
10
-64.002974652394627
20
-62.666255363326457
30
0
0
LINE
5
259
100
AcDbEntity
8
0
100
AcDbLine
10
-64.002974652394627
20
-62.666255363326442
30
0
11
-72.855936376040489
21
-62.666255363326464
31
0
0
LINE
5
260
100
AcDbEntity
8
0
100
AcDbLine
10
0.61962576266904945
20
19.960330579485767
30
0
11
14.685397016052368
21
19.960330579485767
31
0
0
SPLINE
5
261
100
AcDbEntity
8
0
100
AcDbSpline
70
4
71
5
72
16
73
10
74
0
42
0.000000001
43
0.0000000001
44
0.0000000001
40
0
40
0
40
0
40
0
40
0
40
0
40
0.20000000000000001
40
0.40000000000000002
40
0.60000000000000009
40
0.80000000000000004
40
1
40
1
40
1
40
1
40
1
40
1
41
1
41
1
41
1
41
1
41
1
41
1
41
1
41
1
41
1
41
1
10
14.685397016052368
20
19.960330579485767
30
0
10
14.937268139119546
20
19.960330579485767
30
0
10
15.442450798778113
20
19.933513901616621
30
0
10
16.204519270759725
20
19.812900338457958
30
0
10
17.208220012535595
20
19.504063473214089
30
0
10
18.309016704427915
20
18.887135410363292
30
0
10
18.908140943068609
20
18.182236597617184
30
0
10
19.096779989708537
20
17.500261775967438
30
0
10
19.086285257211372
20
16.96862044654975
30
0
10
19.046942776911319
20
16.683535608466244
30
0
0
ARC
5
262
100
AcDbEntity
8
0
100
AcDbCircle
10
24.000000357627883
20
16.000000238418586
30
0
40
5.0000000000000009
210
0
220
0
230
1
100
AcDbArc
50
172.14265669101422
51
178.94908279865521
0
SPLINE
5
263
100
AcDbEntity
8
0
100
AcDbSpline
70
4
71
3
72
8
73
4
74
0
42
0.000000001
43
0.0000000001
44
0.0000000001
40
0.35907385131624081
40
0.35907385131624081
40
0.35907385131624081
40
0.35907385131624081
40
1
40
1
40
1
40
1
41
1
41
1
41
1
41
1
10
19.000841403278585
20
16.091704922864093
30
0
10
18.119466761562091
20
14.165258357121997
30
0
10
16.729996921518765
20
13.97736504812503
30
0
10
12.860403424387163
20
13.454093001697212
30
0
0
SPLINE
5
264
100
AcDbEntity
8
0
100
AcDbSpline
70
4
71
3
72
8
73
4
74
0
42
0.000000001
43
0.0000000001
44
0.0000000001
40
0
40
0
40
0
40
0
40
1
40
1
40
1
40
1
41
1
41
1
41
1
41
1
10
12.860403424387163
20
13.454093001697212
30
0
10
6.8229004997859288
20
12.637661892586722
30
0
10
6.8229004997859288
20
12.637661892586722
30
0
10
3.4991046725561059
20
15.74628190041957
30
0
0
SPLINE
5
265
100
AcDbEntity
8
0
100
AcDbSpline
70
4
71
3
72
8
73
4
74
0
42
0.000000001
43
0.0000000001
44
0.0000000001
40
0
40
0
40
0
40
0
40
0.59075997582749495
40
0.59075997582749495
40
0.59075997582749495
40
0.59075997582749495
41
1
41
1
41
1
41
1
10
3.4991046725561059
20
15.74628190041957
30
0
10
1.5355391300062871
20
17.58273018110377
30
0
10
0.73196951990890136
20
18.334278319882529
30
0
10
0.61962576266904945
20
19.960330579485767
30
0
0
SPLINE
5
266
100
AcDbEntity
8
0
100
AcDbSpline
70
4
71
5
72
13
73
7
74
0
42
0.000000001
43
0.0000000001
44
0.0000000001
40
-0.24708215966362476
40
-0.24708215966362476
40
-0.24708215966362476
40
-0.24708215966362476
40
-0.24708215966362476
40
-0.24708215966362476
40
-0.20000000000000001
40
0
40
0
40
0
40
0
40
0
40
0
41
1
41
1
41
1
41
1
41
1
41
1
41
1
10
-9.7907976003100252
20
18.070412922388762
30
0
10
-9.754452331098042
20
18.205559423393304
30
0
10
-9.5580987539216338
20
18.889245949440713
30
0
10
-9.3299823287209875
20
19.43166779306403
30
0
10
-9.0587814063254051
20
19.796866994690593
30
0
10
-8.7371993535767309
20
19.960330579485767
30
0
10
-8.4438485522678963
20
19.960330579485767
30
0
0
LINE
5
267
100
AcDbEntity
8
0
100
AcDbLine
10
-8.4438485522678981
20
19.960330579485767
30
0
11
-4.8305082780907851
21
19.960330579485767
31
0
0
SPLINE
5
268
100
AcDbEntity
8
0
100
AcDbSpline
70
4
71
3
72
8
73
4
74
0
42
0.000000001
43
0.0000000001
44
0.0000000001
40
0.52932085441943899
40
0.52932085441943899
40
0.52932085441943899
40
0.52932085441943899
40
0.99781932538388063
40
0.99781932538388063
40
0.99781932538388063
40
0.99781932538388063
41
1
41
1
41
1
41
1
10
-4.8305082780907851
20
19.96033057948576
30
0
10
-5.6928867622256192
20
19.106626570862584
30
0
10
-7.113589546821375
20
18.745461033997458
30
0
10
-9.7907976003100234
20
18.070412922388769
30
0
0
LINE
5
269
100
AcDbEntity
8
0
100
AcDbLine
10
-17.129801743655495
20
6.9732993958114609
30
0
11
-14.092096398300304
21
6.9860969783901954
31
0
0
SPLINE
5
270
100
AcDbEntity
8
0
100
AcDbSpline
70
4
71
5
72
14
73
8
74
0
42
0.000000001
43
0.0000000001
44
0.0000000001
40
-1
40
-1
40
-1
40
-1
40
-1
40
-1
40
-0.80000000000000004
40
-0.60000000000000009
40
-0.50228760487878099
40
-0.50228760487878099
40
-0.50228760487878099
40
-0.50228760487878099
40
-0.50228760487878099
40
-0.50228760487878099
41
1
41
1
41
1
41
1
41
1
41
1
41
1
41
1
10
-14.092096398300306
20
6.9860969783901954
30
0
10
-13.573534995257299
20
6.988281631482943
30
0
10
-12.654127407167699
20
7.2567805196463251
30
0
10
-11.802778609742413
20
8.2474906733320346
30
0
10
-11.251605840169736
20
9.8943554480100921
30
0
10
-10.868983546144861
20
11.845756711003194
30
0
10
-10.671824571594104
20
13.041189995244121
30
0
10
-10.609536633350039
20
13.433721895606219
30
0
0
SPLINE
5
271
100
AcDbEntity
8
0
100
AcDbSpline
70
4
71
3
72
8
73
4
74
0
42
0.000000001
43
0.0000000001
44
0.0000000001
40
0.88553978358842422
40
0.88553978358842422
40
0.88553978358842422
40
0.88553978358842422
40
1
40
1
40
1
40
1
41
1
41
1
41
1
41
1
10
-10.609536633350039
20
13.43372189560621
30
0
10
-10.091603406773482
20
13.569544254178659
30
0
10
-9.5098579581243783
20
13.716226862395731
30
0
10
-8.852919151499874
20
13.881868893319149
30
0
0
SPLINE
5
272
100
AcDbEntity
8
0
100
AcDbSpline
70
4
71
3
72
8
73
4
74
0
42
0.000000001
43
0.0000000001
44
0.0000000001
40
0
40
0
40
0
40
0
40
1
40
1
40
1
40
1
41
1
41
1
41
1
41
1
10
-8.852919151499874
20
13.881868893319149
30
0
10
-3.1134600501408283
20
15.329018932991998
30
0
10
-3.1134600501408283
20
15.329018932991998
30
0
10
0.21033577708899465
20
12.220390850716614
30
0
0
SPLINE
5
273
100
AcDbEntity
8
0
100
AcDbSpline
70
4
71
3
72
8
73
4
74
0
42
0.000000001
43
0.0000000001
44
0.0000000001
40
0
40
0
40
0
40
0
40
1
40
1
40
1
40
1
41
1
41
1
41
1
41
1
10
0.21033577708899465
20
12.220390850716614
30
0
10
3.5341316043187998
20
9.1117708428837663
30
0
10
3.5341316043187998
20
9.1117708428837663
30
0
10
1.5267444430639276
20
1.70881508828578
30
0
0
SPLINE
5
274
100
AcDbEntity
8
0
100
AcDbSpline
70
4
71
3
72
8
73
4
74
0
42
0.000000001
43
0.0000000001
44
0.0000000001
40
0
40
0
40
0
40
0
40
1
40
1
40
1
40
1
41
1
41
1
41
1
41
1
10
1.5267444430639276
20
1.70881508828578
30
0
10
-0.48064271819096227
20
-5.6941406663122063
30
0
10
-0.48064271819096227
20
-5.6941406663122063
30
0
10
-5.9802908759464923
20
-5.8120356019201136
30
0
0
SPLINE
5
275
100
AcDbEntity
8
0
100
AcDbSpline
70
4
71
3
72
8
73
4
74
0
42
0.000000001
43
0.0000000001
44
0.0000000001
40
0
40
0
40
0
40
0
40
1
40
1
40
1
40
1
41
1
41
1
41
1
41
1
10
-5.9802908759464923
20
-5.8120356019201136
30
0
10
-11.479922884816931
20
-5.9299305375280209
30
0
10
-11.479922884816931
20
-5.9299305375280209
30
0
10
-14.886352557058151
20
-0.70148675599319255
30
0
0
SPLINE
5
276
100
AcDbEntity
8
0
100
AcDbSpline
70
4
71
3
72
8
73
4
74
0
42
0.000000001
43
0.0000000001
44
0.0000000001
40
0
40
0
40
0
40
0
40
0.85399974153738301
40
0.85399974153738301
40
0.85399974153738301
40
0.85399974153738301
41
1
41
1
41
1
41
1
10
-14.886352557058151
20
-0.70148675599319255
30
0
10
-17.795435721145573
20
3.7636028820802885
30
0
10
-18.220162614991583
20
4.4155071232977701
30
0
10
-17.129801743655495
20
6.9732993958114617
30
0
0
SPLINE
5
277
100
AcDbEntity
8
0
100
AcDbSpline
70
4
71
5
72
13
73
7
74
0
42
0.000000001
43
0.0000000001
44
0.0000000001
40
-0.3307107719031821
40
-0.3307107719031821
40
-0.3307107719031821
40
-0.3307107719031821
40
-0.3307107719031821
40
-0.3307107719031821
40
-0.20000000000000001
40
0
40
0
40
0
40
0
40
0
40
0
41
1
41
1
41
1
41
1
41
1
41
1
41
1
10
-33.438343581763128
20
6.0495961977744415
30
0
10
-33.324178326897503
20
6.1713086262002683
30
0
10
-33.038804004251524
20
6.4614927054598166
30
0
10
-32.764235276665808
20
6.6962215000416467
30
0
10
-32.505227405615933
20
6.8506872923219895
30
0
10
-32.264732375887618
20
6.9095372784996005
30
0
10
-32.126068772044988
20
6.9101214559358848
30
0
0
LINE
5
278
100
AcDbEntity
8
0
100
AcDbLine
10
-32.126068772044988
20
6.9101214559358857
30
0
11
-22.666302609398919
21
6.9499746098394031
31
0
0
SPLINE
5
279
100
AcDbEntity
8
0
100
AcDbSpline
70
4
71
3
72
8
73
4
74
0
42
0.000000001
43
0.0000000001
44
0.0000000001
40
0.50355563482694243
40
0.50355563482694243
40
0.50355563482694243
40
0.50355563482694243
40
1
40
1
40
1
40
1
41
1
41
1
41
1
41
1
10
-22.666302609398919
20
6.9499746098394048
30
0
10
-23.587654671982214
20
6.3611446605251647
30
0
10
-24.967791729844254
20
6.152499505235415
30
0
10
-27.708575393870476
20
5.7381557051477561
30
0
0
SPLINE
5
280
100
AcDbEntity
8
0
100
AcDbSpline
70
4
71
3
72
8
73
4
74
0
42
0.000000001
43
0.0000000001
44
0.0000000001
40
0
40
0
40
0
40
0
40
0.5772744136557717
40
0.5772744136557717
40
0.5772744136557717
40
0.5772744136557717
41
1
41
1
41
1
41
1
10
-27.708575393870476
20
5.7381557051477561
30
0
10
-30.895607805964662
20
5.2563493013946854
30
0
10
-32.242847951065244
20
5.0526774068637632
30
0
10
-33.43834358175836
20
6.0495961977795254
30
0
0
SPLINE
5
281
100
AcDbEntity
8
0
100
AcDbSpline
70
4
71
5
72
12
73
6
74
0
42
0.000000001
43
0.0000000001
44
0.0000000001
40
0.96290334599686744
40
0.96290334599686744
40
0.96290334599686744
40
0.96290334599686744
40
0.96290334599686744
40
0.96290334599686744
40
1
40
1
40
1
40
1
40
1
40
1
41
1
41
1
41
1
41
1
41
1
41
1
10
-55.586774887510146
20
3.3667309520963014
30
0
10
-55.39562724363708
20
3.3292695698720882
30
0
10
-55.204788306891821
20
3.3013157162680029
30
0
10
-55.01426346242517
20
3.282929330697963
30
0
10
-54.824055544743032
20
3.2741431081684285
30
0
10
-54.63416465657339
20
3.2749588615482028
30
0
0
LINE
5
282
100
AcDbEntity
8
0
100
AcDbLine
10
-54.63416465657339
20
3.2749588615482033
30
0
11
-37.201250090236783
21
3.3498490214388688
31
0
0
SPLINE
5
283
100
AcDbEntity
8
0
100
AcDbSpline
70
4
71
3
72
8
73
4
74
0
42
0.000000001
43
0.0000000001
44
0.0000000001
40
0.46888415498730307
40
0.46888415498730307
40
0.46888415498730307
40
0.46888415498730307
40
1
40
1
40
1
40
1
41
1
41
1
41
1
41
1
10
-37.201250090236769
20
3.3498490214388688
30
0
10
-36.972469418161019
20
2.0834962608023258
30
0
10
-37.524269221041003
20
1.1815470197474853
30
0
10
-38.701105326528349
20
-0.74206082978469645
30
0
0
SPLINE
5
284
100
AcDbEntity
8
0
100
AcDbSpline
70
4
71
3
72
8
73
4
74
0
42
0.000000001
43
0.0000000001
44
0.0000000001
40
0
40
0
40
0
40
0
40
1
40
1
40
1
40
1
41
1
41
1
41
1
41
1
10
-38.701105326528349
20
-0.74206082978469645
30
0
10
-40.916885775441926
20
-4.3638843313716169
30
0
10
-40.916885775441926
20
-4.3638843313716169
30
0
10
-44.889236976817244
20
-4.7260473028681904
30
0
0
SPLINE
5
285
100
AcDbEntity
8
0
100
AcDbSpline
70
4
71
3
72
8
73
4
74
0
42
0.000000001
43
0.0000000001
44
0.0000000001
40
0
40
0
40
0
40
0
40
1
40
1
40
1
40
1
41
1
41
1
41
1
41
1
10
-44.889236976817244
20
-4.7260473028681904
30
0
10
-48.861596252635124
20
-5.0882183488073185
30
0
10
-48.861596252635124
20
-5.0882183488073185
30
0
10
-53.373174876088896
20
0.54471463204799342
30
0
0
SPLINE
5
286
100
AcDbEntity
8
0
100
AcDbSpline
70
4
71
3
72
8
73
4
74
0
42
0.000000001
43
0.0000000001
44
0.0000000001
40
0
40
0
40
0
40
0
40
0.20372625012899082
40
0.20372625012899082
40
0.20372625012899082
40
0.20372625012899082
41
1
41
1
41
1
41
1
10
-53.373174876088896
20
0.54471463204799342
30
0
10
-54.292301871207243
20
1.692290945465561
30
0
10
-55.024178570217813
20
2.6060758398137152
30
0
10
-55.586774887510131
20
3.3667309520963018
30
0
0
SPLINE
5
287
100
AcDbEntity
8
0
100
AcDbSpline
70
0
71
3
72
12
73
8
74
0
42
0.000000001
43
0.0000000001
44
0.0000000001
40
0.2543383401649395
40
0.2543383401649395
40
0.2543383401649395
40
0.2543383401649395
40
0.298182417909089
40
0.298182417909089
40
0.66892526683259157
40
0.66892526683259157
40
0.67430384028304524
40
0.67430384028304524
40
0.67430384028304524
40
0.67430384028304524
10
-57.010857600390111
20
7.1253954069769865
30
0
10
-57.133099148079523
20
7.2086958307214664
30
0
10
-57.252287220930434
20
7.2952603177841135
30
0
10
-58.346631950498534
20
8.1315169708308446
30
0
10
-59.311497865811127
20
9.1901234788909587
30
0
10
-60.235759862556179
20
10.367619075940331
30
0
10
-60.248981282401473
20
10.384499366622602
30
0
10
-60.262207035573468
20
10.401421407769941
30
0
0
SPLINE
5
288
100
AcDbEntity
8
0
100
AcDbSpline
70
4
71
5
72
14
73
8
74
0
42
0.000000001
43
0.0000000001
44
0.0000000001
40
0.24884784254186354
40
0.24884784254186354
40
0.24884784254186354
40
0.24884784254186354
40
0.24884784254186354
40
0.24884784254186354
40
0.40000000000000002
40
0.60000000000000009
40
0.64273828866617178
40
0.64273828866617178
40
0.64273828866617178
40
0.64273828866617178
40
0.64273828866617178
40
0.64273828866617178
41
1
41
1
41
1
41
1
41
1
41
1
41
1
41
1
10
-60.262207035573482
20
10.40142140776994
30
0
10
-61.000386469493755
20
11.345904689173775
30
0
10
-62.743976913869261
20
13.795143082902408
30
0
10
-64.753500073531612
20
17.098387169045346
30
0
10
-66.75868134273145
20
20.700847973733229
30
0
10
-68.674003599055325
20
24.213604611472789
30
0
10
-69.800261611154596
20
26.259120250486916
30
0
10
-69.996774689669436
20
26.615116003159429
30
0
0
SPLINE
5
289
100
AcDbEntity
8
0
100
AcDbSpline
70
0
71
3
72
8
73
4
74
0
42
0.000000001
43
0.0000000001
44
0.0000000001
40
1.9759663968892704
40
1.9759663968892704
40
1.9759663968892704
40
1.9759663968892704
40
2.1983547981602127
40
2.1983547981602127
40
2.1983547981602127
40
2.1983547981602127
10
-69.996774689667077
20
26.615116003155158
30
0
10
-70.522852922069291
20
27.568139677894635
30
0
10
-71.037816669574653
20
28.493165652747159
30
0
10
-71.538597126366568
20
29.37316402608073
30
0
0
SPLINE
5
290
100
AcDbEntity
8
0
100
AcDbSpline
70
0
71
3
72
10
73
6
74
0
42
0.000000001
43
0.0000000001
44
0.0000000001
40
0
40
0
40
0
40
0
40
0.26546920555023157
40
0.26546920555023157
40
0.42488603235872691
40
0.42488603235872691
40
0.42488603235872691
40
0.42488603235872691
10
-71.538597126366568
20
29.37316402608073
30
0
10
-71.976260884775414
20
30.142250339740293
30
0
10
-72.269847670821349
20
30.955114560052209
30
0
10
-72.442381055580384
20
32.359026552341732
30
0
10
-72.436893361835345
20
32.885009815349953
30
0
10
-72.370689743944837
20
33.405940027211848
30
0
0
SPLINE
5
291
100
AcDbEntity
8
0
100
AcDbSpline
70
4
71
5
72
15
73
9
74
0
42
0.000000001
43
0.0000000001
44
0.0000000001
40
-0.72856834141357085
40
-0.72856834141357085
40
-0.72856834141357085
40
-0.72856834141357085
40
-0.72856834141357085
40
-0.72856834141357085
40
-0.60000000000000009
40
-0.40000000000000002
40
-0.20000000000000001
40
0
40
0
40
0
40
0
40
0
40
0
41
1
41
1
41
1
41
1
41
1
41
1
41
1
41
1
41
1
10
-72.370689743944823
20
33.405940027211848
30
0
10
-72.322668785749414
20
33.783798046511009
30
0
10
-72.132082737446282
20
34.743269422270011
30
0
10
-71.565542575357625
20
36.252203610004415
30
0
10
-70.318331628117619
20
38.193145120199958
30
0
10
-68.609734423599619
20
39.753689479197604
30
0
10
-66.945497185959212
20
40.61394114813217
30
0
10
-65.720637934927993
20
40.965356685993655
30
0
10
-65.079348979122869
20
41.085491565828193
30
0
0
ARC
5
292
100
AcDbEntity
8
0
100
AcDbCircle
10
-66.000000983476653
20
46.000000685453408
30
0
40
5.0000000000000009
210
-0
220
0
230
1
100
AcDbArc
50
-79.389562895423381
51
34.605887133786361
0
SPLINE
5
293
100
AcDbEntity
8
0
100
AcDbSpline
70
0
71
3
72
10
73
6
74
0
42
0.000000001
43
0.0000000001
44
0.0000000001
40
0
40
0
40
0
40
0
40
0.76667619274806109
40
0.76667619274806109
40
2.8802306932773343
40
2.8802306932773343
40
2.8802306932773343
40
2.8802306932773343
10
-61.88461089187912
20
48.839642281496978
30
0
10
-63.336001296961626
20
50.943090019563016
30
0
10
-64.218449151389919
20
52.05223919073709
30
0
10
-65.794556103906658
20
53.951788493847516
30
0
10
-66.834285696479228
20
54.906471700855633
30
0
10
-68.009341450188131
20
55.56966893019041
30
0
0
LINE
5
294
100
AcDbEntity
8
0
100
AcDbLine
10
-68.009341450188131
20
55.569668930190403
30
0
11
-69.580837247653392
21
56.456615490386028
31
0
0
SPLINE
5
295
100
AcDbEntity
8
0
100
AcDbSpline
70
0
71
3
72
8
73
4
74
0
42
0.000000001
43
0.0000000001
44
0.0000000001
40
0
40
0
40
0
40
0
40
0.029632822296944569
40
0.029632822296944569
40
0.029632822296944569
40
0.029632822296944569
10
-69.580837247653406
20
56.456615490386035
30
0
10
-69.666858263236762
20
56.505165441330391
30
0
10
-69.756164495105907
20
56.547167482182374
30
0
10
-69.847989583195286
20
56.58236745027822
30
0
0
SPLINE
5
296
100
AcDbEntity
8
0
100
AcDbSpline
70
0
71
3
72
14
73
10
74
0
42
0.000000001
43
0.0000000001
44
0.0000000001
40
-0.25471268571933614
40
-0.25471268571933614
40
-0.25471268571933614
40
-0.25471268571933614
40
-0.22029223592665698
40
-0.22029223592665698
40
-0.15625778935477022
40
-0.15625778935477022
40
-0.078128894677385485
40
-0.078128894677385485
40
0
40
0
40
0
40
0
10
-69.847989583195286
20
56.582367450278213
30
0
10
-69.954785261334266
20
56.623305882976524
30
0
10
-70.065065427882928
20
56.655073531066691
30
0
10
-70.38707082907851
20
56.718450144544761
30
0
10
-70.601755877480244
20
56.725878499248104
30
0
10
-71.071926882720874
20
56.66672278007799
30
0
10
-71.321499026285167
20
56.58405350888156
30
0
10
-71.774907268223302
20
56.327703407850635
30
0
10
-71.974408536677629
20
56.156473424703591
30
0
10
-72.135477624434898
20
55.95182653123085
30
0
0
SPLINE
5
297
100
AcDbEntity
8
0
100
AcDbSpline
70
4
71
5
72
16
73
10
74
0
42
0.000000001
43
0.0000000001
44
0.0000000001
40
-0.44069834196105334
40
-0.44069834196105334
40
-0.44069834196105334
40
-0.44069834196105334
40
-0.44069834196105334
40
-0.44069834196105334
40
-0.40000000000000002
40
-0.30000000000000004
40
-0.20000000000000001
40
-0.10000000000000001
40
0
40
0
40
0
40
0
40
0
40
0
41
1
41
1
41
1
41
1
41
1
41
1
41
1
41
1
41
1
41
1
10
-72.135477624434898
20
55.95182653123085
30
0
10
-72.232404876289678
20
55.828675271972315
30
0
10
-72.567178471701098
20
55.396836898115396
30
0
10
-73.138455908515766
20
54.622439957933352
30
0
10
-73.947290308654573
20
53.443551600582694
30
0
10
-75.006369086348528
20
51.778852284065707
30
0
10
-75.997170934416715
20
50.132267232996867
30
0
10
-76.763805933632071
20
48.825782392189616
30
0
10
-77.286270812641419
20
47.92344594434983
30
0
10
-77.550347136235771
20
47.464440663741627
30
0
0
SPLINE
5
298
100
AcDbEntity
8
0
100
AcDbSpline
70
4
71
5
72
13
73
7
74
0
42
0.000000001
43
0.0000000001
44
0.0000000001
40
-1
40
-1
40
-1
40
-1
40
-1
40
-1
40
-0.80000000000000004
40
-0.67822608972091225
40
-0.67822608972091225
40
-0.67822608972091225
40
-0.67822608972091225
40
-0.67822608972091225
40
-0.67822608972091225
41
1
41
1
41
1
41
1
41
1
41
1
41
1
10
-77.550347136235771
20
47.464440663741627
30
0
10
-77.958602656952479
20
46.754829755441236
30
0
10
-78.662780718155147
20
45.772720306685116
30
0
10
-79.443063151243095
20
45.047096249393483
30
0
10
-80.289558897992706
20
44.550187943037528
30
0
10
-81.187837580341494
20
44.246125111316715
30
0
10
-81.534392919619023
20
44.15676524674808
30
0
0
SPLINE
5
299
100
AcDbEntity
8
0
100
AcDbSpline
70
0
71
3
72
12
73
8
74
0
42
0.000000001
43
0.0000000001
44
0.0000000001
40
0.5831749844550298
40
0.5831749844550298
40
0.5831749844550298
40
0.5831749844550298
40
0.82587058763117493
40
0.82587058763117493
40
1.2312477138006162
40
1.2312477138006162
40
1.6677517016742329
40
1.6677517016742329
40
1.6677517016742329
40
1.6677517016742329
10
-81.534392919614845
20
44.156765246749174
30
0
10
-82.235510454281666
20
43.975980936585813
30
0
10
-82.961863414101714
20
43.923557759075649
30
0
10
-84.892798690767819
20
44.016258771342301
30
0
10
-86.132049028613139
20
44.31968020177672
30
0
10
-88.496254355916989
20
45.159339291288525
30
0
10
-90.124918618657659
20
45.895143949383211
30
0
10
-91.931997074056525
20
47.129834576057661
30
0
0
SPLINE
5
300
100
AcDbEntity
8
0
100
AcDbSpline
70
0
71
3
72
12
73
8
74
0
42
0.000000001
43
0.0000000001
44
0.0000000001
40
0
40
0
40
0
40
0
40
0.61557524510350037
40
0.61557524510350037
40
0.90431428475483411
40
0.90431428475483411
40
1.0752731401317601
40
1.0752731401317601
40
1.0752731401317601
40
1.0752731401317601
10
-91.931997074058984
20
47.129834576059352
30
0
10
-93.626215647829014
20
48.287413421804828
30
0
10
-96.153085455338442
20
49.760028469522013
30
0
10
-99.48004519560277
20
50.765725061709084
30
0
10
-100.39205528157453
20
50.885150004962803
30
0
10
-101.66133918010721
20
50.795283916943077
30
0
10
-102.11548711022348
20
50.698641801245834
30
0
10
-102.54941871791387
20
50.526279351631885
30
0
0
SPLINE
5
301
100
AcDbEntity
8
0
100
AcDbSpline
70
4
71
5
72
12
73
6
74
0
42
0.000000001
43
0.0000000001
44
0.0000000001
40
-0.18558383747248597
40
-0.18558383747248597
40
-0.18558383747248597
40
-0.18558383747248597
40
-0.18558383747248597
40
-0.18558383747248597
40
0
40
0
40
0
40
0
40
0
40
0
41
1
41
1
41
1
41
1
41
1
41
1
10
-102.54941871791161
20
50.526279351632795
30
0
10
-102.99573624143676
20
50.348997078811621
30
0
10
-103.42525592677734
20
50.104565965050767
30
0
10
-103.83566976013066
20
49.786563886963506
30
0
10
-104.22532469065366
20
49.390007447734433
30
0
10
-104.59420128744279
20
48.91482945660826
30
0
0
LINE
5
302
100
AcDbEntity
8
0
100
AcDbLine
10
-104.59420128744281
20
48.91482945660826
30
0
11
-113.27403343357588
21
37.73367771531251
31
0
0
SPLINE
5
303
100
AcDbEntity
8
0
100
AcDbSpline
70
4
71
5
72
12
73
6
74
0
42
0.000000001
43
0.0000000001
44
0.0000000001
40
0
40
0
40
0
40
0
40
0
40
0
40
0.12980597284373582
40
0.12980597284373582
40
0.12980597284373582
40
0.12980597284373582
40
0.12980597284373582
40
0.12980597284373582
41
1
41
1
41
1
41
1
41
1
41
1
10
-113.27403343357588
20
37.73367771531251
30
0
10
-113.54858982162122
20
37.380000756519614
30
0
10
-113.79450750737375
20
37.025162392705468
30
0
10
-114.01180258351235
20
36.66916376183493
30
0
10
-114.20122383288768
20
36.312103537814032
30
0
10
-114.36383716291513
20
35.954152618978448
30
0
0
SPLINE
5
304
100
AcDbEntity
8
0
100
AcDbSpline
70
0
71
3
72
12
73
8
74
0
42
0.000000001
43
0.0000000001
44
0.0000000001
40
0.21208058368310179
40
0.21208058368310179
40
0.21208058368310179
40
0.21208058368310179
40
0.3331678372606961
40
0.3331678372606961
40
0.61300090344199654
40
0.61300090344199654
40
0.66565996679781059
40
0.66565996679781059
40
0.66565996679781059
40
0.66565996679781059
10
-114.3638371629151
20
35.954152618978434
30
0
10
-114.52757139026644
20
35.593734336446744
30
0
10
-114.66433652019921
20
35.219816879222023
30
0
10
-115.01630257217359
20
33.930917801179525
30
0
10
-115.08145095562186
20
33.011429093088765
30
0
10
-114.97955047940472
20
31.911678554658344
30
0
10
-114.95811574823561
20
31.737812454227623
30
0
10
-114.93168235893874
20
31.564513878459355
30
0
0
LINE
5
305
100
AcDbEntity
8
0
100
AcDbLine
10
-114.93168235893874
20
31.564513878459355
30
0
11
-114.92730856843698
21
31.53613686509533
31
0
0
SPLINE
5
306
100
AcDbEntity
8
0
100
AcDbSpline
70
4
71
5
72
14
73
8
74
0
42
0.000000001
43
0.0000000001
44
0.0000000001
40
0.4489838535018062
40
0.4489838535018062
40
0.4489838535018062
40
0.4489838535018062
40
0.4489838535018062
40
0.4489838535018062
40
0.60000000000000009
40
0.80000000000000004
40
1
40
1
40
1
40
1
40
1
40
1
41
1
41
1
41
1
41
1
41
1
41
1
41
1
41
1
10
-114.927308568437
20
31.53613686509533
30
0
10
-114.86263115060396
20
31.120822136725646
30
0
10
-114.65650810678119
20
30.159840939021251
30
0
10
-114.14252557718811
20
28.672777420868005
30
0
10
-113.36602442614219
20
27.241419416552695
30
0
10
-112.33431539149936
20
25.902713919157478
30
0
10
-111.44278624032845
20
24.988876474210965
30
0
10
-110.96135150937764
20
24.546464239728571
30
0
0
LINE
5
307
100
AcDbEntity
8
0
100
AcDbLine
10
-110.96135150937766
20
24.546464239728568
30
0
11
-105.75924584845851
21
19.766013139087224
31
0
0
SPLINE
5
308
100
AcDbEntity
8
0
100
AcDbSpline
70
4
71
5
72
13
73
7
74
0
42
0.000000001
43
0.0000000001
44
0.0000000001
40
0
40
0
40
0
40
0
40
0
40
0
40
0.20000000000000001
40
0.24503991614511422
40
0.24503991614511422
40
0.24503991614511422
40
0.24503991614511422
40
0.24503991614511422
40
0.24503991614511422
41
1
41
1
41
1
41
1
41
1
41
1
41
1
10
-105.75924584845851
20
19.766013139087224
30
0
10
-105.13253622959071
20
19.190101213690145
30
0
10
-104.44511111976178
20
18.465395696962503
30
0
10
-103.85612696799397
20
17.717310565890113
30
0
10
-103.35725412403669
20
16.947495440944024
30
0
10
-102.93814997218668
20
16.157754304400132
30
0
10
-102.86374530933512
20
16.011932767045927
30
0
0
SPLINE
5
309
100
AcDbEntity
8
0
100
AcDbSpline
70
0
71
3
72
10
73
6
74
0
42
0.000000001
43
0.0000000001
44
0.0000000001
40
0.48781213977382504
40
0.48781213977382504
40
0.48781213977382504
40
0.48781213977382504
40
0.54160639714500647
40
0.54160639714500647
40
0.95230878836599486
40
0.95230878836599486
40
0.95230878836599486
40
0.95230878836599486
10
-102.86374530933529
20
16.011932767046243
30
0
10
-102.78312607428967
20
15.853931637222916
30
0
10
-102.70537473214122
20
15.693357667680164
30
0
10
-102.05879256373663
20
14.283612182958409
30
0
10
-101.67203630528945
20
12.920796498514393
30
0
10
-101.43045944288542
20
11.393409583246285
30
0
0
SPLINE
5
310
100
AcDbEntity
8
0
100
AcDbSpline
70
4
71
5
72
14
73
8
74
0
42
0.000000001
43
0.0000000001
44
0.0000000001
40
0.51685252419059247
40
0.51685252419059247
40
0.51685252419059247
40
0.51685252419059247
40
0.51685252419059247
40
0.51685252419059247
40
0.60000000000000009
40
0.80000000000000004
40
1
40
1
40
1
40
1
40
1
40
1
41
1
41
1
41
1
41
1
41
1
41
1
41
1
41
1
10
-101.43045944288542
20
11.393409583246324
30
0
10
-101.38384235731829
20
11.098669740139808
30
0
10
-101.24234980943868
20
10.08910406995205
30
0
10
-101.0946407217363
20
8.3328878579110608
30
0
10
-101.07220509302194
20
6.5215737477169302
30
0
10
-101.13903228892973
20
4.652219326068642
30
0
10
-101.25136970624908
20
3.0613734767425749
30
0
10
-101.32179700736134
20
2.2551426000506791
30
0
0
LINE
5
311
100
AcDbEntity
8
0
100
AcDbLine
10
-101.32179700736134
20
2.2551426000506796
30
0
11
-102.80767421611438
21
-14.754739444979776
31
0
0
SPLINE
5
312
100
AcDbEntity
8
0
100
AcDbSpline
70
0
71
3
72
8
73
4
74
0
42
0.000000001
43
0.0000000001
44
0.0000000001
40
0
40
0
40
0
40
0
40
0.37469952164260933
40
0.37469952164260933
40
0.37469952164260933
40
0.37469952164260933
10
-102.80767421611438
20
-14.754739444979778
30
0
10
-103.02989197495575
20
-17.298622508759287
30
0
10
-103.18795767259964
20
-19.835761826986523
30
0
10
-103.26272822582933
20
-22.385932154242603
30
0
0
SPLINE
5
313
100
AcDbEntity
8
0
100
AcDbSpline
70
0
71
3
72
10
73
6
74
0
42
0.000000001
43
0.0000000001
44
0.0000000001
40
0.76707740758009635
40
0.76707740758009635
40
0.76707740758009635
40
0.76707740758009635
40
1.0239644487143647
40
1.0239644487143647
40
2.1935871588313351
40
2.1935871588313351
40
2.1935871588313351
40
2.1935871588313351
10
-103.26272822582931
20
-22.385932154242742
30
0
10
-103.28773938452103
20
-23.238978065913582
30
0
10
-103.30342229419517
20
-24.093202296804268
30
0
10
-103.33483608105304
20
-28.847686206637434
30
0
10
-103.15437826660505
20
-31.940971254018343
30
0
10
-102.89150754697206
20
-34.424671483420461
30
0
0
SPLINE
5
314
100
AcDbEntity
8
0
100
AcDbSpline
70
0
71
3
72
8
73
4
74
0
42
0.000000001
43
0.0000000001
44
0.0000000001
40
0.95659463591256821
40
0.95659463591256821
40
0.95659463591256821
40
0.95659463591256821
40
1
40
1
40
1
40
1
10
-102.89150754697206
20
-34.424671483420454
30
0
10
-102.85941242028487
20
-34.727918165390264
30
0
10
-102.82520343010999
20
-35.03126716420563
30
0
10
-102.78879677512566
20
-35.334655955741781
30
0
0
LINE
5
315
100
AcDbEntity
8
0
100
AcDbLine
10
-102.78879677512566
20
-35.334655955741773
30
0
11
-99.788796730422177
21
-60.334656328270881
31
0
0
SPLINE
5
316
100
AcDbEntity
8
0
100
AcDbSpline
70
0
71
3
72
20
73
16
74
0
42
0.000000001
43
0.0000000001
44
0.0000000001
40
-1
40
-1
40
-1
40
-1
40
-0.99032961220498306
40
-0.99032961220498306
40
-0.99032961220498306
40
-0.80778318786144321
40
-0.80778318786144321
40
-0.80778318786144321
40
-0.61976440982799463
40
-0.61976440982799463
40
-0.61976440982799463
40
-0.36291265934012851
40
-0.36291265934012851
40
-0.36291265934012851
40
-0.15971621943882053
40
-0.15971621943882053
40
-0.15971621943882053
40
-0.15971621943882053
10
-99.788796730422177
20
-60.334656328270881
30
0
10
-99.782363093753673
20
-60.388269967175191
30
0
10
-99.775352402229046
20
-60.442044611941903
30
0
10
-99.767738682517091
20
-60.495965774327487
30
0
10
-99.624015665526116
20
-61.513827270534293
30
0
10
-99.227688393274974
20
-62.607909761929065
30
0
10
-98.586194716044389
20
-63.49394511380811
30
0
10
-97.925470422249973
20
-64.406541921736931
30
0
10
-97.069280838726414
20
-65.049498767945494
30
0
10
-96.28695173264596
20
-65.462335562459728
30
0
10
-95.218214862551932
20
-66.026310365646239
30
0
10
-94.263949775159958
20
-66.247423004044975
30
0
10
-93.40177770611399
20
-66.399328140391475
30
0
10
-92.719709958163179
20
-66.519500897048601
30
0
10
-92.085719470284175
20
-66.588782949682184
30
0
10
-91.476116371748333
20
-66.626488841970712
30
0
0
SPLINE
5
317
100
AcDbEntity
8
0
100
AcDbSpline
70
0
71
3
72
8
73
4
74
0
42
0.000000001
43
0.0000000001
44
0.0000000001
40
0.8520401560838663
40
0.8520401560838663
40
0.8520401560838663
40
0.8520401560838663
40
0.87280412458607959
40
0.87280412458607959
40
0.87280412458607959
40
0.87280412458607959
10
-91.476116371748347
20
-66.626488841970712
30
0
10
-91.018079073891144
20
-66.654819906984372
30
0
10
-90.557761721846362
20
-66.666255363326457
30
0
10
-90.0723350274219
20
-66.666255363326457
30
0
0
LINE
5
318
100
AcDbEntity
8
0
100
AcDbLine
10
-90.072335027421886
20
-66.666255363326457
30
0
11
-59.108173770916309
21
-66.666255363326457
31
0
0
SPLINE
5
319
100
AcDbEntity
8
0
100
AcDbSpline
70
0
71
3
72
14
73
10
74
0
42
0.000000001
43
0.0000000001
44
0.0000000001
40
0
40
0
40
0
40
0
40
0.015471371811003607
40
0.015471371811003607
40
0.074816054009993901
40
0.074816054009993901
40
0.097463200820700771
40
0.097463200820700771
40
0.11558717598475524
40
0.11558717598475524
40
0.11558717598475524
40
0.11558717598475524
10
-59.108173770916309
20
-66.666255363326457
30
0
10
-59.06102614831093
20
-66.687152597899967
30
0
10
-58.955148487428708
20
-66.745079286372459
30
0
10
-58.158948633217804
20
-67.285544993221549
30
0
10
-57.537747767266524
20
-67.912214465277501
30
0
10
-56.003367997073575
20
-68.903556550972226
30
0
10
-55.213318227673781
20
-69.38125012215329
30
0
10
-53.34938313654164
20
-69.948991661641401
30
0
10
-52.602015637601419
20
-70.022162388553085
30
0
10
-51.956071886824482
20
-70.018162327805143
30
0
0
SPLINE
5
320
100
AcDbEntity
8
0
100
AcDbSpline
70
0
71
3
72
8
73
4
74
0
42
0.000000001
43
0.0000000001
44
0.0000000001
40
0.96150837255613453
40
0.96150837255613453
40
0.96150837255613453
40
0.96150837255613453
40
1
40
1
40
1
40
1
10
-51.956071886824482
20
-70.018162327805157
30
0
10
-51.727053354536636
20
-70.016744111373072
30
0
10
-51.49870507082661
20
-70.005183700595921
30
0
10
-51.273563264411251
20
-69.983576839097083
30
0
0
LINE
5
321
100
AcDbEntity
8
0
100
AcDbLine
10
-51.273563264411266
20
-69.983576839097083
30
0
11
-14.764887226523467
21
-66.479838820749706
31
0
0
SPLINE
5
322
100
AcDbEntity
8
0
100
AcDbSpline
70
0
71
3
72
11
73
7
74
0
42
0.000000001
43
0.0000000001
44
0.0000000001
40
0
40
0
40
0
40
0
40
0.17112855423075315
40
0.17112855423075315
40
0.17112855423075315
40
0.26486295477409827
40
0.26486295477409827
40
0.26486295477409827
40
0.26486295477409827
10
-14.764887226523468
20
-66.479838820749706
30
0
10
-12.906591792971682
20
-66.301498188701046
30
0
10
-11.110807354083398
20
-65.702425958431945
30
0
10
-9.6184373712197324
20
-64.809923541858652
30
0
10
-8.8010027451784101
20
-64.321061940841574
30
0
10
-8.077283381708078
20
-63.761672823424092
30
0
10
-7.4281574522895832
20
-63.170243417368241
30
0
0
SPLINE
5
323
100
AcDbEntity
8
0
100
AcDbSpline
70
0
71
3
72
14
73
10
74
0
42
0.000000001
43
0.0000000001
44
0.0000000001
40
0.76281101104698179
40
0.76281101104698179
40
0.76281101104698179
40
0.76281101104698179
40
0.81787155567554426
40
0.81787155567554426
40
1.2322193411784115
40
1.2322193411784115
40
1.4965190503842831
40
1.4965190503842831
40
1.5723306974105737
40
1.5723306974105737
40
1.5723306974105737
40
1.5723306974105737
10
-7.428157452289577
20
-63.170243417368219
30
0
10
-7.2368330504469824
20
-62.995924579963088
30
0
10
-7.0432593143268809
20
-62.810851296328352
30
0
10
-5.3745850238471498
20
-61.134804470659319
30
0
10
-4.1880977179008099
20
-59.415005863207014
30
0
10
-2.390263474965491
20
-57.007847609437619
30
0
10
-1.5583341353691229
20
-55.946918172728033
30
0
10
-0.40399496235514998
20
-55.121900380143501
30
0
10
-0.17834121619530807
20
-55.001225390248898
30
0
10
0.0098647597521015276
20
-54.915195439469485
30
0
0
SPLINE
5
324
100
AcDbEntity
8
0
100
AcDbSpline
70
0
71
3
72
8
73
4
74
0
42
0.000000001
43
0.0000000001
44
0.0000000001
40
0.84867834679106402
40
0.84867834679106402
40
0.84867834679106402
40
0.84867834679106402
40
1
40
1
40
1
40
1
10
0.0098647597521022909
20
-54.915195439469485
30
0
10
0.43857768756337334
20
-54.719228484156602
30
0
10
0.88824976536231426
20
-54.616718719568809
30
0
10
1.5950547713119168
20
-54.616718719568809
30
0
0
LINE
5
325
100
AcDbEntity
8
0
100
AcDbLine
10
1.5950547713119165
20
-54.616718719568809
30
0
11
25.00000037252903
21
-54.616718719568809
31
0
0
SPLINE
5
326
100
AcDbEntity
8
0
100
AcDbSpline
70
4
71
5
72
15
73
9
74
0
42
0.000000001
43
0.0000000001
44
0.0000000001
40
0
40
0
40
0
40
0
40
0
40
0
40
0.20000000000000001
40
0.40000000000000002
40
0.60000000000000009
40
0.76446581845911088
40
0.76446581845911088
40
0.76446581845911088
40
0.76446581845911088
40
0.76446581845911088
40
0.76446581845911088
41
1
41
1
41
1
41
1
41
1
41
1
41
1
41
1
41
1
10
25.00000037252903
20
-54.616718719568809
30
0
10
25.648382628988632
20
-54.616718719568809
30
0
10
26.854922997840159
20
-54.501246125175662
30
0
10
28.394291772316713
20
-53.981932646169525
30
0
10
29.899438038166029
20
-52.751347674748473
30
0
10
30.960244054835144
20
-51.045246434564291
30
0
10
31.535190407859869
20
-49.627114759457513
30
0
10
31.818310551518895
20
-48.661512354985781
30
0
10
31.92780183816317
20
-48.21666019416142
30
0
0
SPLINE
5
327
100
AcDbEntity
8
0
100
AcDbSpline
70
0
71
3
72
10
73
6
74
0
42
0.000000001
43
0.0000000001
44
0.0000000001
40
1.0295936773527419
40
1.0295936773527419
40
1.0295936773527419
40
1.0295936773527419
40
1.0436899788246377
40
1.0436899788246377
40
1.3668247757004308
40
1.3668247757004308
40
1.3668247757004308
40
1.3668247757004308
10
31.927801838163198
20
-48.216660194161285
30
0
10
31.939083184307265
20
-48.170825211643447
30
0
10
31.950109020139344
20
-48.124966615349017
30
0
10
32.207795651655132
20
-47.027508974033438
30
0
10
32.32538378955325
20
-45.955611235189089
30
0
10
32.32538378955325
20
-44.86622086563515
30
0
0
LINE
5
328
100
AcDbEntity
8
0
100
AcDbLine
10
32.32538378955325
20
-44.866220865635157
30
0
11
32.32538378955325
21
16.000000238418579
31
0
0
SPLINE
5
329
100
AcDbEntity
8
0
100
AcDbSpline
70
4
71
5
72
15
73
9
74
0
42
0.000000001
43
0.0000000001
44
0.0000000001
40
0
40
0
40
0
40
0
40
0
40
0
40
0.20000000000000001
40
0.40000000000000002
40
0.60000000000000009
40
0.71085188416102874
40
0.71085188416102874
40
0.71085188416102874
40
0.71085188416102874
40
0.71085188416102874
40
0.71085188416102874
41
1
41
1
41
1
41
1
41
1
41
1
41
1
41
1
41
1
10
32.32538378955325
20
16.000000238418579
30
0
10
32.32538378955325
20
16.452187097095489
30
0
10
32.274963636720727
20
17.351867277967095
30
0
10
32.048191660369099
20
18.687286918265059
30
0
10
31.534625833771091
20
20.222688579093617
30
0
10
30.760762904395115
20
21.594765339311085
30
0
10
30.060146737438487
20
22.421986648012293
30
0
10
29.574320303044566
20
22.847373719801062
30
0
10
29.393208871283612
20
22.988310893631983
30
0
0
SPLINE
5
330
100
AcDbEntity
8
0
100
AcDbSpline
70
0
71
3
72
12
73
8
74
0
42
0.000000001
43
0.0000000001
44
0.0000000001
40
1.0967861949377078
40
1.0967861949377078
40
1.0967861949377078
40
1.0967861949377078
40
1.2716944747181111
40
1.2716944747181111
40
1.4328662105761754
40
1.4328662105761754
40
1.60766953787183
40
1.60766953787183
40
1.60766953787183
40
1.60766953787183
10
29.393208871283623
20
22.988310893631979
30
0
10
29.110680594830693
20
23.208168560392384
30
0
10
28.805024018095629
20
23.396655230658432
30
0
10
28.168892586664036
20
23.68554763949696
30
0
10
27.852573838125654
20
23.78712166695021
30
0
10
27.168436831814965
20
23.928396749898567
30
0
10
26.807200143399417
20
23.96033057948577
30
0
10
26.443848820488792
20
23.96033057948577
30
0
0
LINE
5
331
100
AcDbEntity
8
0
100
AcDbLine
10
26.443848820488796
20
23.960330579485767
30
0
11
-8.4438485522678963
21
23.960330579485767
31
0
0
SPLINE
5
332
100
AcDbEntity
8
0
100
AcDbSpline
70
4
71
5
72
13
73
7
74
0
42
0.000000001
43
0.0000000001
44
0.0000000001
40
0
40
0
40
0
40
0
40
0
40
0
40
0.20000000000000001
40
0.22737339763155434
40
0.22737339763155434
40
0.22737339763155434
40
0.22737339763155434
40
0.22737339763155434
40
0.22737339763155434
41
1
41
1
41
1
41
1
41
1
41
1
41
1
10
-8.4438485522678963
20
23.960330579485767
30
0
10
-8.9471808890113884
20
23.960330579485767
30
0
10
-9.4567224734815127
20
23.798218369292758
30
0
10
-9.8950749980392381
20
23.451996952682286
30
0
10
-10.269305977441794
20
22.942257776972248
30
0
10
-10.589087179921886
20
22.298441746929498
30
0
10
-10.626813693055546
20
22.219042746897554
30
0
0
SPLINE
5
333
100
AcDbEntity
8
0
100
AcDbSpline
70
4
71
5
72
13
73
7
74
0
42
0.000000001
43
0.0000000001
44
0.0000000001
40
0.22737339763159567
40
0.22737339763159567
40
0.22737339763159567
40
0.22737339763159567
40
0.22737339763159567
40
0.22737339763159567
40
0.40000000000000002
40
0.47245792521659796
40
0.47245792521659796
40
0.47245792521659796
40
0.47245792521659796
40
0.47245792521659796
40
0.47245792521659796
41
1
41
1
41
1
41
1
41
1
41
1
41
1
10
-10.626813693055833
20
22.21904274689695
30
0
10
-10.86473080766212
20
21.718323771801007
30
0
10
-11.158930951366589
20
20.900705412737448
30
0
10
-11.400030956773319
20
19.958370834783427
30
0
10
-11.602635293326253
20
18.936909396762783
30
0
10
-11.781489704702967
20
17.884637428080104
30
0
10
-11.832668792345107
20
17.572100112712022
30
0
0
SPLINE
5
334
100
AcDbEntity
8
0
100
AcDbSpline
70
0
71
3
72
10
73
6
74
0
42
0.000000001
43
0.0000000001
44
0.0000000001
40
0.69562303986943486
40
0.69562303986943486
40
0.69562303986943486
40
0.69562303986943486
40
1.016003820326246
40
1.016003820326246
40
1.0739145870331299
40
1.0739145870331299
40
1.0739145870331299
40
1.0739145870331299
10
-11.832668792345109
20
17.572100112712022
30
0
10
-12.060649701687254
20
16.179880269732575
30
0
10
-12.248846925973416
20
14.749624476295038
30
0
10
-12.510402800402844
20
13.28175382048105
30
0
10
-12.55151618541775
20
13.063276780539299
30
0
10
-12.594123118073746
20
12.852451427833092
30
0
0
SPLINE
5
335
100
AcDbEntity
8
0
100
AcDbSpline
70
4
71
5
72
13
73
7
74
0
42
0.000000001
43
0.0000000001
44
0.0000000001
40
0.70322009268130614
40
0.70322009268130614
40
0.70322009268130614
40
0.70322009268130614
40
0.70322009268130614
40
0.70322009268130614
40
0.80000000000000004
40
1
40
1
40
1
40
1
40
1
40
1
41
1
41
1
41
1
41
1
41
1
41
1
41
1
10
-12.594123118074734
20
12.852451427828198
30
0
10
-12.663062621446313
20
12.511328652550386
30
0
10
-12.883528494094314
20
11.521065370724779
30
0
10
-13.138664166000748
20
10.72694411276936
30
0
10
-13.447782246810116
20
10.200419611705358
30
0
10
-13.822447135608842
20
9.9872596095748705
30
0
10
-14.104735019452386
20
9.9860703558146309
30
0
0
LINE
5
336
100
AcDbEntity
8
0
100
AcDbLine
10
-14.104735019452388
20
9.9860703558146326
30
0
11
-32.479022750417641
21
9.9086611150131816
31
0
0
SPLINE
5
337
100
AcDbEntity
8
0
100
AcDbSpline
70
4
71
5
72
15
73
9
74
0
42
0.000000001
43
0.0000000001
44
0.0000000001
40
0
40
0
40
0
40
0
40
0
40
0
40
0.20000000000000001
40
0.40000000000000002
40
0.60000000000000009
40
0.60167816430609888
40
0.60167816430609888
40
0.60167816430609888
40
0.60167816430609888
40
0.60167816430609888
40
0.60167816430609888
41
1
41
1
41
1
41
1
41
1
41
1
41
1
41
1
41
1
10
-32.479022750417641
20
9.9086611150131816
30
0
10
-32.629349362967062
20
9.9080278023580135
30
0
10
-32.928595821803398
20
9.8346100794951816
30
0
10
-33.373251073763974
20
9.5082542646685102
30
0
10
-33.815029990263895
20
8.9197034067512284
30
0
10
-34.259784961643696
20
8.2380748434124289
30
0
10
-34.560825817269425
20
7.7968849132174922
30
0
10
-34.713380062383912
20
7.5855507355271286
30
0
10
-34.714649563973808
20
7.5837929323910869
30
0
0
SPLINE
5
338
100
AcDbEntity
8
0
100
AcDbSpline
70
0
71
3
72
14
73
10
74
0
42
0.000000001
43
0.0000000001
44
0.0000000001
40
0.28969199884758978
40
0.28969199884758978
40
0.28969199884758978
40
0.28969199884758978
40
0.32490640418427441
40
0.32490640418427441
40
0.40770889244303776
40
0.40770889244303776
40
0.44548960755000133
40
0.44548960755000133
40
0.48073755733846646
40
0.48073755733846646
40
0.48073755733846646
40
0.48073755733846646
10
-34.714649563973808
20
7.5837929323910878
30
0
10
-34.800261492401134
20
7.4652512011556276
30
0
10
-34.886521414278661
20
7.3504193657125994
30
0
10
-35.178546687451878
20
6.9862453245979239
30
0
10
-35.39294751213766
20
6.7585051264518068
30
0
10
-35.725035592846496
20
6.5242377688980921
30
0
10
-35.837166706758381
20
6.4611270566890253
30
0
10
-36.068836585157911
20
6.3769989942719967
30
0
10
-36.183628339869742
20
6.3547696375371823
30
0
10
-36.302646556979219
20
6.3537370197087517
30
0
0
LINE
5
339
100
AcDbEntity
8
0
100
AcDbLine
10
-36.302646556979219
20
6.3537370197087517
30
0
11
-54.647052255243182
21
6.2749311797205776
31
0
0
SPLINE
5
340
100
AcDbEntity
8
0
100
AcDbSpline
70
4
71
5
72
12
73
6
74
0
42
0.000000001
43
0.0000000001
44
0.0000000001
40
0
40
0
40
0
40
0
40
0
40
0
40
0.11046903661254784
40
0.11046903661254784
40
0.11046903661254784
40
0.11046903661254784
40
0.11046903661254784
40
0.11046903661254784
41
1
41
1
41
1
41
1
41
1
41
1
10
-54.647052255243167
20
6.2749311797205776
30
0
10
-55.096446983948866
20
6.2730006222708301
30
0
10
-55.557740659550007
20
6.3582988247749661
30
0
10
-56.030925725435296
20
6.5307765527341406
30
0
10
-56.515552188582049
20
6.7878739057655446
30
0
10
-57.010857600389869
20
7.1253954069768266
30
0
0
ARC
5
341
100
AcDbEntity
8
0
100
AcDbCircle
10
24.544298146624783
20
4.9437584637052376
30
0
40
7.2500000000000044
210
-0
220
0
230
1
100
AcDbArc
50
297.6110899910218
51
301.43487342545683
0
LINE
5
342
100
AcDbEntity
8
0
100
AcDbLine
10
28.325383789553253
20
-1.2421845816872967
30
0
11
28.325383789553253
21
-14.717588772117844
31
0
0
SPLINE
5
343
100
AcDbEntity
8
0
100
AcDbSpline
70
4
71
3
72
8
73
4
74
0
42
0.000000001
43
0.0000000001
44
0.0000000001
40
0.89966753953364931
40
0.89966753953364931
40
0.89966753953364931
40
0.89966753953364931
40
1
40
1
40
1
40
1
41
1
41
1
41
1
41
1
10
28.325383789553253
20
-14.717588772117843
30
0
10
28.11181888295593
20
-14.516405926743436
30
0
10
27.879188773080614
20
-14.29293253245493
30
0
10
27.620615356064921
20
-14.044537003586179
30
0
0
SPLINE
5
344
100
AcDbEntity
8
0
100
AcDbSpline
70
4
71
3
72
8
73
4
74
0
42
0.000000001
43
0.0000000001
44
0.0000000001
40
0
40
0
40
0
40
0
40
1
40
1
40
1
40
1
41
1
41
1
41
1
41
1
10
27.620615356064913
20
-14.044537003586189
30
0
10
25.114812421775625
20
-11.496606757281027
30
0
10
25.114812421775625
20
-11.496606757281027
30
0
10
27.374533199719369
20
-3.4961429951947687
30
0
0
SPLINE
5
345
100
AcDbEntity
8
0
100
AcDbSpline
70
4
71
3
72
8
73
4
74
0
42
0.000000001
43
0.0000000001
44
0.0000000001
40
0
40
0
40
0
40
0
40
0.091658076644497405
40
0.091658076644497405
40
0.091658076644497405
40
0.091658076644497405
41
1
41
1
41
1
41
1
10
27.374533199719366
20
-3.4961429951947887
30
0
10
27.566819305752688
20
-2.7588064369425238
30
0
10
27.741480837141523
20
-2.0890527294593317
30
0
10
27.904437936470039
20
-1.4805672279684559
30
0
0
SPLINE
5
346
100
AcDbEntity
8
0
100
AcDbSpline
70
4
71
3
72
8
73
4
74
0
42
0.000000001
43
0.0000000001
44
0.0000000001
40
0.93740214566586144
40
0.93740214566586144
40
0.93740214566586144
40
0.93740214566586144
40
1
40
1
40
1
40
1
41
1
41
1
41
1
41
1
10
22.701461802958253
20
-2.0681210425656653
30
0
10
22.57055339023254
20
-2.5067289585227903
30
0
10
22.430220479567314
20
-2.9739372374361643
30
0
10
22.28051641572015
20
-3.4723447577021904
30
0
0
SPLINE
5
347
100
AcDbEntity
8
0
100
AcDbSpline
70
4
71
3
72
8
73
4
74
0
42
0.000000001
43
0.0000000001
44
0.0000000001
40
0
40
0
40
0
40
0
40
1
40
1
40
1
40
1
41
1
41
1
41
1
41
1
10
22.28051641572015
20
-3.4723447577021904
30
0
10
19.888995724802207
20
-11.434407211925821
30
0
10
19.888995724802207
20
-11.434407211925821
30
0
10
13.852558626616966
20
-11.427576233532264
30
0
0
SPLINE
5
348
100
AcDbEntity
8
0
100
AcDbSpline
70
4
71
3
72
8
73
4
74
0
42
0.000000001
43
0.0000000001
44
0.0000000001
40
0
40
0
40
0
40
0
40
1
40
1
40
1
40
1
41
1
41
1
41
1
41
1
10
13.852558626616966
20
-11.427576233532264
30
0
10
7.8161215284317631
20
-11.420745255138716
30
0
10
7.8161215284317631
20
-11.420745255138716
30
0
10
5.5901915052384066
20
-9.0518007055781613
30
0
0
SPLINE
5
349
100
AcDbEntity
8
0
100
AcDbSpline
70
4
71
3
72
8
73
4
74
0
42
0.000000001
43
0.0000000001
44
0.0000000001
40
0
40
0
40
0
40
0
40
1
40
1
40
1
40
1
41
1
41
1
41
1
41
1
10
5.5901915052384066
20
-9.0518007055781613
30
0
10
3.36426148204505
20
-6.6828561560176158
30
0
10
3.36426148204505
20
-6.6828561560176158
30
0
10
5.3716486432999222
20
0.720107673022925
30
0
0
SPLINE
5
350
100
AcDbEntity
8
0
100
AcDbSpline
70
4
71
3
72
8
73
4
74
0
42
0.000000001
43
0.0000000001
44
0.0000000001
40
0
40
0
40
0
40
0
40
1
40
1
40
1
40
1
41
1
41
1
41
1
41
1
10
5.3716486432999222
20
0.720107673022925
30
0
10
7.3790358045548121
20
8.1230634276209113
30
0
10
7.3790358045548121
20
8.1230634276209113
30
0
10
13.416538729156029
20
8.9394864622888459
30
0
0
SPLINE
5
351
100
AcDbEntity
8
0
100
AcDbSpline
70
4
71
3
72
8
73
4
74
0
42
0.000000001
43
0.0000000001
44
0.0000000001
40
0
40
0
40
0
40
0
40
0.46597647394546832
40
0.46597647394546832
40
0.46597647394546832
40
0.46597647394546832
41
1
41
1
41
1
41
1
10
13.416538729156029
20
8.9394864622888459
30
0
10
16.229873053397164
20
9.3199241517315556
30
0
10
17.732259769198656
20
9.52308682809179
30
0
10
18.798546367749189
20
9.3651650832719113
30
0
0
ARC
5
352
100
AcDbEntity
8
0
100
AcDbCircle
10
24.544298146624783
20
4.9437584637052376
30
0
40
7.2500000000000018
210
0
220
0
230
1
100
AcDbArc
50
142.42140086016207
51
255.2747421411845
0
ARC
5
353
100
AcDbEntity
8
0
100
AcDbCircle
10
-92.386950005484891
20
-56.957410444361408
30
0
40
7.2499999999999973
210
-0
220
0
230
1
100
AcDbArc
50
308.05430405014096
51
355.70443797236783
0
SPLINE
5
354
100
AcDbEntity
8
0
100
AcDbSpline
70
4
71
3
72
8
73
4
74
0
42
0.000000001
43
0.0000000001
44
0.0000000001
40
0.78208668996082398
40
0.78208668996082398
40
0.78208668996082398
40
0.78208668996082398
40
1
40
1
40
1
40
1
41
1
41
1
41
1
41
1
10
-85.15731570369276
20
-57.500446228035415
30
0
10
-84.879855974214507
20
-57.878947097114732
30
0
10
-84.623715577379755
20
-58.3328054030261
30
0
10
-84.296206619456456
20
-58.913122536327649
30
0
0
SPLINE
5
355
100
AcDbEntity
8
0
100
AcDbSpline
70
4
71
3
72
8
73
4
74
0
42
0.000000001
43
0.0000000001
44
0.0000000001
40
0
40
0
40
0
40
0
40
0.99617849388144264
40
0.99617849388144264
40
0.99617849388144264
40
0.99617849388144264
41
1
41
1
41
1
41
1
10
-84.296206619456456
20
-58.913122536327649
30
0
10
-82.799017758537076
20
-61.566009813942806
30
0
10
-82.793296242144422
20
-61.576147838906053
30
0
10
-83.267502430283628
20
-62.666255363326464
30
0
0
LINE
5
356
100
AcDbEntity
8
0
100
AcDbLine
10
-83.267502430283628
20
-62.666255363326464
30
0
11
-87.917991548393687
21
-62.666255363326457
31
0
0
CIRCLE
5
357
100
AcDbEntity
8
0
100
AcDbCircle
10
-66.000000983476653
20
46.000000685453408
30
0
40
2.0000000000000018
210
0
220
-0
230
1
0
CIRCLE
5
358
100
AcDbEntity
8
0
100
AcDbCircle
10
24.000000357627883
20
16.000000238418586
30
0
40
2.0000000000000018
210
0
220
-0
230
1
0
CIRCLE
5
359
100
AcDbEntity
8
0
100
AcDbCircle
10
-9.0000001341104507
20
-53.000000789761543
30
0
40
1.9999999999999996
210
0
220
-0
230
1
0
CIRCLE
5
360
100
AcDbEntity
8
0
100
AcDbCircle
10
-94.000001400709152
20
-8.0000001192092896
30
0
40
1.9999999999999929
210
0
220
-0
230
1
0
ENDSEC
0
SECTION
2
OBJECTS
0
DICTIONARY
5
C
100
AcDbDictionary
3
ACAD_GROUP
350
D
3
ACAD_MLINESTYLE
350
17
0
DICTIONARY
5
D
100
AcDbDictionary
0
DICTIONARY
5
1A
330
C
100
AcDbDictionary
0
DICTIONARY
5
17
100
AcDbDictionary
0
ENDSEC
0
EOF
