0
SECTION
2
HEADER
9
$INSUNITS
70
4
9
$ACADVER
1
AC1014
9
$HANDSEED
5
FFFF
0
ENDSEC
0
SECTION
2
TABLES
0
TABLE
2
VPORT
5
8
100
AcDbSymbolTable
0
ENDTAB
0
TABLE
2
LTYPE
5
5
100
AcDbSymbolTable
0
LTYPE
5
14
100
AcDbSymbolTableRecord
100
AcDbLinetypeTableRecord
2
BYBLOCK
70
0
0
LTYPE
5
15
100
AcDbSymbolTableRecord
100
AcDbLinetypeTableRecord
2
BYLAYER
70
0
0
ENDTAB
0
TABLE
2
LAYER
5
2
100
AcDbSymbolTable
70
2
0
LAYER
5
50
100
AcDbSymbolTableRecord
100
AcDbLayerTableRecord
2
0
70
0
6
CONTINUOUS
0
ENDTAB
0
TABLE
2
STYLE
5
3
100
AcDbSymbolTable
70
1
0
STYLE
5
11
100
AcDbSymbolTableRecord
100
AcDbTextStyleTableRecord
2
STANDARD
70
0
0
ENDTAB
0
TABLE
2
VIEW
5
6
100
AcDbSymbolTable
70
0
0
ENDTAB
0
TABLE
2
UCS
5
7
100
AcDbSymbolTable
70
0
0
ENDTAB
0
TABLE
2
APPID
5
9
100
AcDbSymbolTable
70
2
0
APPID
5
12
100
AcDbSymbolTableRecord
100
AcDbRegAppTableRecord
2
ACAD
70
0
0
ENDTAB
0
TABLE
2
DIMSTYLE
5
A
100
AcDbSymbolTable
70
1
0
ENDTAB
0
TABLE
2
BLOCK_RECORD
5
1
100
AcDbSymbolTable
70
1
0
BLOCK_RECORD
5
1F
100
AcDbSymbolTableRecord
100
AcDbBlockTableRecord
2
*MODEL_SPACE
0
BLOCK_RECORD
5
1B
100
AcDbSymbolTableRecord
100
AcDbBlockTableRecord
2
*PAPER_SPACE
0
ENDTAB
0
ENDSEC
0
SECTION
2
BLOCKS
0
BLOCK
5
20
100
AcDbEntity
100
AcDbBlockBegin
2
*MODEL_SPACE
0
ENDBLK
5
21
100
AcDbEntity
100
AcDbBlockEnd
0
BLOCK
5
1C
100
AcDbEntity
100
AcDbBlockBegin
2
*PAPER_SPACE
0
ENDBLK
5
1D
100
AcDbEntity
100
AcDbBlockEnd
0
ENDSEC
0
SECTION
2
ENTITIES
0
CIRCLE
5
100
100
AcDbEntity
8
0
100
AcDbCircle
10
-70
20
10
30
0
40
5
210
0
220
0
230
1
0
CIRCLE
5
101
100
AcDbEntity
8
0
100
AcDbCircle
10
22.000000327825546
20
2.0000000298023224
30
0
40
5
210
0
220
0
230
1
0
CIRCLE
5
102
100
AcDbEntity
8
0
100
AcDbCircle
10
-90.217213420930236
20
-56.826988702382977
30
0
40
5
210
0
220
0
230
1
0
CIRCLE
5
103
100
AcDbEntity
8
0
100
AcDbCircle
10
22.000000327825539
20
-44.000000655651093
30
0
40
5
210
0
220
0
230
1
0
CIRCLE
5
104
100
AcDbEntity
8
0
100
AcDbCircle
10
-101.6057816442477
20
36.044975831397039
30
0
40
5
210
0
220
0
230
1
0
LINE
5
105
100
AcDbEntity
8
0
100
AcDbLine
10
-14.104735019452388
20
9.9860703558146291
30
0
11
-32.479022750417641
21
9.9086611150131798
31
0
0
SPLINE
5
106
100
AcDbEntity
8
0
100
AcDbSpline
70
4
71
5
72
16
73
10
74
0
42
0.000000001
43
0.0000000001
44
0.0000000001
40
0
40
0
40
0
40
0
40
0
40
0
40
0.20000000000000001
40
0.40000000000000002
40
0.60000000000000009
40
0.80000000000000004
40
1
40
1
40
1
40
1
40
1
40
1
41
1
41
1
41
1
41
1
41
1
41
1
41
1
41
1
41
1
41
1
10
-32.479022750417641
20
9.9086611150131816
30
0
10
-32.629349362967062
20
9.9080278023580135
30
0
10
-32.928595821803398
20
9.8346100794951816
30
0
10
-33.373251073763974
20
9.5082542646685102
30
0
10
-33.96064671842317
20
8.7257085213360526
30
0
10
-34.701467889285674
20
7.5418391952815265
30
0
10
-35.315962590300863
20
6.7581262137696037
30
0
10
-35.799026885280711
20
6.4301160054888324
30
0
10
-36.132814081414665
20
6.3552105087793631
30
0
10
-36.302646556979219
20
6.3537370197087517
30
0
0
LINE
5
107
100
AcDbEntity
8
0
100
AcDbLine
10
-36.302646556979212
20
6.3537370197087517
30
0
11
-54.647052255243167
21
6.274931179720582
31
0
0
SPLINE
5
108
100
AcDbEntity
8
0
100
AcDbSpline
70
4
71
5
72
13
73
7
74
0
42
0.000000001
43
0.0000000001
44
0.0000000001
40
0
40
0
40
0
40
0
40
0
40
0
40
0.20000000000000001
40
0.2479298172774993
40
0.2479298172774993
40
0.2479298172774993
40
0.2479298172774993
40
0.2479298172774993
40
0.2479298172774993
41
1
41
1
41
1
41
1
41
1
41
1
41
1
10
-54.647052255243167
20
6.2749311797205776
30
0
10
-55.460664363189551
20
6.2714359786960259
30
0
10
-56.517606719529283
20
6.6215387435703761
30
0
10
-57.634415771971859
20
7.4105682722101918
30
0
10
-58.801950751910312
20
8.5865821988426223
30
0
10
-60.005816092679972
20
10.074134915678046
30
0
10
-60.239794867930954
20
10.372780265683515
30
0
0
SPLINE
5
109
100
AcDbEntity
8
0
100
AcDbSpline
70
4
71
5
72
13
73
7
74
0
42
0.000000001
43
0.0000000001
44
0.0000000001
40
0.24792981727749944
40
0.24792981727749944
40
0.24792981727749944
40
0.24792981727749944
40
0.24792981727749944
40
0.24792981727749944
40
0.40000000000000002
40
0.44635747111986041
40
0.44635747111986041
40
0.44635747111986041
40
0.44635747111986041
40
0.44635747111986041
40
0.44635747111986041
41
1
41
1
41
1
41
1
41
1
41
1
41
1
10
-60.239794867930954
20
10.372780265683517
30
0
10
-60.982155200740067
20
11.320312627044643
30
0
10
-61.967203448788304
20
12.702119046760243
30
0
10
-62.967630300782474
20
14.242604326267752
30
0
10
-63.974175824137035
20
15.895263203032323
30
0
10
-64.976637226587485
20
17.611777909412996
30
0
10
-65.210481166248314
20
18.015663822904614
30
0
0
SPLINE
5
110
100
AcDbEntity
8
0
100
AcDbSpline
70
4
71
5
72
13
73
7
74
0
42
0.000000001
43
0.0000000001
44
0.0000000001
40
0.44635747112020924
40
0.44635747112020924
40
0.44635747112020924
40
0.44635747112020924
40
0.44635747112020924
40
0.44635747112020924
40
0.60000000000000009
40
0.71204107986479037
40
0.71204107986479037
40
0.71204107986479037
40
0.71204107986479037
40
0.71204107986479037
40
0.71204107986479037
41
1
41
1
41
1
41
1
41
1
41
1
41
1
10
-65.210481166257097
20
18.015663822919809
30
0
10
-65.98550994554077
20
19.354262577958551
30
0
10
-67.318968671188699
20
21.723465284209979
30
0
10
-68.626366347003511
20
24.119505162628275
30
0
10
-69.881475825776889
20
26.424492768670863
30
0
10
-71.0581634276366
20
28.528920071183954
30
0
10
-71.538597126366582
20
29.37316402608073
30
0
0
SPLINE
5
111
100
AcDbEntity
8
0
100
AcDbSpline
70
4
71
5
72
13
73
7
74
0
42
0.000000001
43
0.0000000001
44
0.0000000001
40
-1
40
-1
40
-1
40
-1
40
-1
40
-1
40
-0.80000000000000004
40
-0.76473309850267224
40
-0.76473309850267224
40
-0.76473309850267224
40
-0.76473309850267224
40
-0.76473309850267224
40
-0.76473309850267224
41
1
41
1
41
1
41
1
41
1
41
1
41
1
10
-71.538597126366568
20
29.37316402608073
30
0
10
-71.876809645428153
20
29.9674892689664
30
0
10
-72.176557123764297
20
30.668058742428457
30
0
10
-72.361004184906875
20
31.370316929148593
30
0
10
-72.439096897105699
20
32.071938077656995
30
0
10
-72.421556558411226
20
32.768494959071369
30
0
10
-72.416814974662714
20
32.872780265683524
30
0
0
SPLINE
5
112
100
AcDbEntity
8
0
100
AcDbSpline
70
4
71
5
72
14
73
8
74
0
42
0.000000001
43
0.0000000001
44
0.0000000001
40
-0.76473309850267213
40
-0.76473309850267213
40
-0.76473309850267213
40
-0.76473309850267213
40
-0.76473309850267213
40
-0.76473309850267213
40
-0.60000000000000009
40
-0.40000000000000002
40
-0.27762202772985206
40
-0.27762202772985206
40
-0.27762202772985206
40
-0.27762202772985206
40
-0.27762202772985206
40
-0.27762202772985206
41
1
41
1
41
1
41
1
41
1
41
1
41
1
41
1
10
-72.416814974662714
20
32.872780265683531
30
0
10
-72.394666848529113
20
33.359901077468606
30
0
10
-72.243589510192606
20
34.432160814175113
30
0
10
-71.764558582557328
20
35.835027630848245
30
0
10
-70.992669640163228
20
37.158061183159973
30
0
10
-70.002632199860557
20
38.3234530360306
30
0
10
-69.263033903533582
20
39.000437320318923
30
0
10
-68.970548378892062
20
39.242524160604695
30
0
0
SPLINE
5
113
100
AcDbEntity
8
0
100
AcDbSpline
70
4
71
5
72
13
73
7
74
0
42
0.000000001
43
0.0000000001
44
0.0000000001
40
-0.27762202772985228
40
-0.27762202772985228
40
-0.27762202772985228
40
-0.27762202772985228
40
-0.27762202772985228
40
-0.27762202772985228
40
-0.20000000000000001
40
0
40
0
40
0
40
0
40
0
40
0
41
1
41
1
41
1
41
1
41
1
41
1
41
1
10
-68.970548378892062
20
39.242524160604695
30
0
10
-68.785030355646924
20
39.396075253837481
30
0
10
-68.104635520012437
20
39.923819817674456
30
0
10
-67.365303394972955
20
40.370571831067458
30
0
10
-66.570757707315366
20
40.721454950501446
30
0
10
-65.720637934927993
20
40.965356685993655
30
0
10
-65.079348979122869
20
41.085491565828193
30
0
0
ARC
5
114
100
AcDbEntity
8
0
100
AcDbCircle
10
-66.000000983476653
20
46.000000685453408
30
0
40
4.9999999999999991
210
-0
220
0
230
1
100
AcDbArc
50
-79.389562895423538
51
34.605887133786361
0
SPLINE
5
115
100
AcDbEntity
8
0
100
AcDbSpline
70
4
71
5
72
13
73
7
74
0
42
0.000000001
43
0.0000000001
44
0.0000000001
40
0
40
0
40
0
40
0
40
0
40
0
40
0.20000000000000001
40
0.20654844220225074
40
0.20654844220225074
40
0.20654844220225074
40
0.20654844220225074
40
0.20654844220225074
40
0.20654844220225074
41
1
41
1
41
1
41
1
41
1
41
1
41
1
10
-61.88461089187912
20
48.839642281496978
30
0
10
-62.08632452703921
20
49.131978573737001
30
0
10
-62.298458944228649
20
49.436466214331602
30
0
10
-62.514531885853231
20
49.743613545034684
30
0
10
-62.734460873552244
20
50.052787025554153
30
0
10
-62.958270952126689
20
50.362945983461543
30
0
10
-62.965370561787452
20
50.372780265683453
30
0
0
SPLINE
5
116
100
AcDbEntity
8
0
100
AcDbSpline
70
4
71
5
72
15
73
9
74
0
42
0.000000001
43
0.0000000001
44
0.0000000001
40
0.20654844220225041
40
0.20654844220225041
40
0.20654844220225041
40
0.20654844220225041
40
0.20654844220225041
40
0.20654844220225041
40
0.40000000000000002
40
0.60000000000000009
40
0.80000000000000004
40
1
40
1
40
1
40
1
40
1
40
1
41
1
41
1
41
1
41
1
41
1
41
1
41
1
41
1
41
1
10
-62.965370561787452
20
50.37278026568346
30
0
10
-63.1751044963952
20
50.663300843997163
30
0
10
-63.60859785067565
20
51.255874888642524
30
0
10
-64.283838092867938
20
52.149478050384808
30
0
10
-65.232549215941049
20
53.313774838443976
30
0
10
-66.262961142318645
20
54.35458283700931
30
0
10
-67.107176664021353
20
55.018753772075982
30
0
10
-67.70309673709194
20
55.396825518647795
30
0
10
-68.009341450188131
20
55.56966893019041
30
0
0
LINE
5
117
100
AcDbEntity
8
0
100
AcDbLine
10
-68.009341450188131
20
55.569668930190417
30
0
11
-69.580837247653392
21
56.456615490386035
31
0
0
SPLINE
5
118
100
AcDbEntity
8
0
100
AcDbSpline
70
0
71
3
72
10
73
6
74
0
42
0.000000001
43
0.0000000001
44
0.0000000001
40
-0.28432668249854182
40
-0.28432668249854182
40
-0.28432668249854182
40
-0.28432668249854182
40
-0.22029223592665698
40
-0.22029223592665698
40
-0.19841805843081389
40
-0.19841805843081389
40
-0.19841805843081389
40
-0.19841805843081389
10
-69.580837247653392
20
56.456615490386035
30
0
10
-69.766722617303117
20
56.561528522585959
30
0
10
-69.968210245804585
20
56.636010641391124
30
0
10
-70.249181959559252
20
56.691311066895736
30
0
10
-70.321336555476435
20
56.701448698209646
30
0
10
-70.393779010857855
20
56.707631924894955
30
0
0
SPLINE
5
119
100
AcDbEntity
8
0
100
AcDbSpline
70
0
71
3
72
12
73
8
74
0
42
0.000000001
43
0.0000000001
44
0.0000000001
40
-0.198418058261219
40
-0.198418058261219
40
-0.198418058261219
40
-0.198418058261219
40
-0.15625778935477022
40
-0.15625778935477022
40
-0.078128894677385485
40
-0.078128894677385485
40
0
40
0
40
0
40
0
10
-70.39377901062025
20
56.707631924874669
30
0
10
-70.533404559690553
20
56.719549105737613
30
0
10
-70.674099450805087
20
56.716776414985858
30
0
10
-71.071926882720874
20
56.66672278007799
30
0
10
-71.321499026285167
20
56.58405350888156
30
0
10
-71.774907268223302
20
56.327703407850635
30
0
10
-71.974408536677629
20
56.156473424703591
30
0
10
-72.135477624434898
20
55.95182653123085
30
0
0
SPLINE
5
120
100
AcDbEntity
8
0
100
AcDbSpline
70
4
71
5
72
16
73
10
74
0
42
0.000000001
43
0.0000000001
44
0.0000000001
40
-0.44069834196105334
40
-0.44069834196105334
40
-0.44069834196105334
40
-0.44069834196105334
40
-0.44069834196105334
40
-0.44069834196105334
40
-0.40000000000000002
40
-0.30000000000000004
40
-0.20000000000000001
40
-0.10000000000000001
40
-0.035385901264106477
40
-0.035385901264106477
40
-0.035385901264106477
40
-0.035385901264106477
40
-0.035385901264106477
40
-0.035385901264106477
41
1
41
1
41
1
41
1
41
1
41
1
41
1
41
1
41
1
41
1
10
-72.135477624434898
20
55.95182653123085
30
0
10
-72.232404876289678
20
55.828675271972315
30
0
10
-72.567178471701098
20
55.396836898115396
30
0
10
-73.138455908515766
20
54.622439957933352
30
0
10
-73.947290308654573
20
53.443551600582694
30
0
10
-74.921330288853568
20
51.912519421061425
30
0
10
-75.822099944046343
20
50.422535348200093
30
0
10
-76.493496130598572
20
49.285099807228931
30
0
10
-76.918628083486453
20
48.556147128059308
30
0
10
-77.08667041306569
20
48.266738887427579
30
0
0
SPLINE
5
121
100
AcDbEntity
8
0
100
AcDbSpline
70
4
71
5
72
12
73
6
74
0
42
0.000000001
43
0.0000000001
44
0.0000000001
40
-0.035385901264205481
40
-0.035385901264205481
40
-0.035385901264205481
40
-0.035385901264205481
40
-0.035385901264205481
40
-0.035385901264205481
40
0
40
0
40
0
40
0
40
0
40
0
41
1
41
1
41
1
41
1
41
1
41
1
10
-77.086670413064425
20
48.266738887429803
30
0
10
-77.178698769089365
20
48.108244508828307
30
0
10
-77.271078068656152
20
47.948766169059397
30
0
10
-77.363811662338591
20
47.788305648064451
30
0
10
-77.456901349106531
20
47.626863819135124
30
0
10
-77.550347136235771
20
47.464440663741627
30
0
0
SPLINE
5
122
100
AcDbEntity
8
0
100
AcDbSpline
70
4
71
5
72
13
73
7
74
0
42
0.000000001
43
0.0000000001
44
0.0000000001
40
-1
40
-1
40
-1
40
-1
40
-1
40
-1
40
-0.80000000000000004
40
-0.64969911647596534
40
-0.64969911647596534
40
-0.64969911647596534
40
-0.64969911647596534
40
-0.64969911647596534
40
-0.64969911647596534
41
1
41
1
41
1
41
1
41
1
41
1
41
1
10
-77.550347136235771
20
47.464440663741627
30
0
10
-77.958602656952479
20
46.754829755441236
30
0
10
-78.725209858834049
20
45.685651066223791
30
0
10
-79.582013712217844
20
44.920451279876872
30
0
10
-80.516252357227472
20
44.423400836687641
30
0
10
-81.508787873886504
20
44.147291789351598
30
0
10
-81.943836819350665
20
44.065962647432784
30
0
0
SPLINE
5
123
100
AcDbEntity
8
0
100
AcDbSpline
70
4
71
5
72
12
73
6
74
0
42
0.000000001
43
0.0000000001
44
0.0000000001
40
-0.64969911647595346
40
-0.64969911647595346
40
-0.64969911647595346
40
-0.64969911647595346
40
-0.64969911647595346
40
-0.64969911647595346
40
-0.61085775741392812
40
-0.61085775741392812
40
-0.61085775741392812
40
-0.61085775741392812
40
-0.61085775741392812
40
-0.61085775741392812
41
1
41
1
41
1
41
1
41
1
41
1
10
-81.943836819350821
20
44.065962647432755
30
0
10
-82.056263918274908
20
44.044945243346973
30
0
10
-82.169304714575048
20
44.026408080571606
30
0
10
-82.282932583836413
20
44.010290146609663
30
0
10
-82.397120763231129
20
43.996531292455302
30
0
10
-82.511842564805832
20
43.985072900194226
30
0
0
SPLINE
5
124
100
AcDbEntity
8
0
100
AcDbSpline
70
4
71
5
72
15
73
9
74
0
42
0.000000001
43
0.0000000001
44
0.0000000001
40
-0.6108577574137628
40
-0.6108577574137628
40
-0.6108577574137628
40
-0.6108577574137628
40
-0.6108577574137628
40
-0.6108577574137628
40
-0.60000000000000009
40
-0.40000000000000002
40
-0.20000000000000001
40
-0.010122263180227771
40
-0.010122263180227771
40
-0.010122263180227771
40
-0.010122263180227771
40
-0.010122263180227771
40
-0.010122263180227771
41
1
41
1
41
1
41
1
41
1
41
1
41
1
41
1
41
1
10
-82.511842564808248
20
43.98507290019397
30
0
10
-82.543912026888066
20
43.98186980827014
30
0
10
-83.167511095136121
20
43.923156779972139
30
0
10
-84.412812302166714
20
43.939914454223853
30
0
10
-86.296025492379812
20
44.286413006988369
30
0
10
-88.204843279304214
20
44.980074503197969
30
0
10
-90.03413191310392
20
45.917401119891956
30
0
10
-91.213655982053098
20
46.646480486814369
30
0
10
-91.780980998416794
20
47.027529127906639
30
0
0
SPLINE
5
125
100
AcDbEntity
8
0
100
AcDbSpline
70
4
71
5
72
12
73
6
74
0
42
0.000000001
43
0.0000000001
44
0.0000000001
40
-0.010122263180142576
40
-0.010122263180142576
40
-0.010122263180142576
40
-0.010122263180142576
40
-0.010122263180142576
40
-0.010122263180142576
40
0
40
0
40
0
40
0
40
0
40
0
41
1
41
1
41
1
41
1
41
1
41
1
10
-91.780980998418073
20
47.027529127907492
30
0
10
-91.811224739577497
20
47.047842592214437
30
0
10
-91.84144823163102
20
47.068229869985018
30
0
10
-91.871651456528198
20
47.088690959400203
30
0
10
-91.90183440446188
20
47.10922586075106
30
0
10
-91.931997074059012
20
47.129834576059352
30
0
0
SPLINE
5
126
100
AcDbEntity
8
0
100
AcDbSpline
70
4
71
5
72
13
73
7
74
0
42
0.000000001
43
0.0000000001
44
0.0000000001
40
-1
40
-1
40
-1
40
-1
40
-1
40
-1
40
-0.80000000000000004
40
-0.66801912214565307
40
-0.66801912214565307
40
-0.66801912214565307
40
-0.66801912214565307
40
-0.66801912214565307
40
-0.66801912214565307
41
1
41
1
41
1
41
1
41
1
41
1
41
1
10
-91.931997074058984
20
47.129834576059352
30
0
10
-92.38185585533148
20
47.437201651852348
30
0
10
-93.15868035615793
20
47.943078744961056
30
0
10
-93.985417615058765
20
48.441758930285403
30
0
10
-94.853254495988836
20
48.924074266249995
30
0
10
-95.74737947931844
20
49.367792182529413
30
0
10
-96.105985850479868
20
49.536400981154706
30
0
0
SPLINE
5
127
100
AcDbEntity
8
0
100
AcDbSpline
70
4
71
5
72
14
73
8
74
0
42
0.000000001
43
0.0000000001
44
0.0000000001
40
-0.66801912214565229
40
-0.66801912214565229
40
-0.66801912214565229
40
-0.66801912214565229
40
-0.66801912214565229
40
-0.66801912214565229
40
-0.60000000000000009
40
-0.40000000000000002
40
-0.23048492457144729
40
-0.23048492457144729
40
-0.23048492457144729
40
-0.23048492457144729
40
-0.23048492457144729
40
-0.23048492457144729
41
1
41
1
41
1
41
1
41
1
41
1
41
1
41
1
10
-96.10598585047984
20
49.536400981154678
30
0
10
-96.290801188571109
20
49.623297072883815
30
0
10
-97.022326525359276
20
49.957541205443363
30
0
10
-98.23416003729875
20
50.444841445172557
30
0
10
-99.451233640794896
20
50.795691592499793
30
0
10
-100.63158854414593
20
50.92203127430048
30
0
10
-101.57825094249461
20
50.807065402840678
30
0
10
-102.00000151991846
20
50.702366539387768
30
0
0
SPLINE
5
128
100
AcDbEntity
8
0
100
AcDbSpline
70
4
71
5
72
13
73
7
74
0
42
0.000000001
43
0.0000000001
44
0.0000000001
40
-0.23048492457119493
40
-0.23048492457119493
40
-0.23048492457119493
40
-0.23048492457119493
40
-0.23048492457119493
40
-0.23048492457119493
40
-0.20000000000000001
40
-0.067259199978387446
40
-0.067259199978387446
40
-0.067259199978387446
40
-0.067259199978387446
40
-0.067259199978387446
40
-0.067259199978387446
41
1
41
1
41
1
41
1
41
1
41
1
41
1
10
-102.00000151992158
20
50.702366539386965
30
0
10
-102.07584748529146
20
50.683537907496898
30
0
10
-102.47978037080807
20
50.573726293890964
30
0
10
-102.87176692089524
20
50.414855268225331
30
0
10
-103.25010691513562
20
50.202287004747831
30
0
10
-103.61344657308726
20
49.932082969014573
30
0
10
-103.89861309093033
20
49.673064858327081
30
0
0
SPLINE
5
129
100
AcDbEntity
8
0
100
AcDbSpline
70
4
71
5
72
12
73
6
74
0
42
0.000000001
43
0.0000000001
44
0.0000000001
40
-0.067259199978387543
40
-0.067259199978387543
40
-0.067259199978387543
40
-0.067259199978387543
40
-0.067259199978387543
40
-0.067259199978387543
40
0
40
0
40
0
40
0
40
0
40
0
41
1
41
1
41
1
41
1
41
1
41
1
10
-103.89861309093034
20
49.673064858327088
30
0
10
-104.0431057551875
20
49.541821480993832
30
0
10
-104.18495043594407
20
49.400493628307586
30
0
10
-104.324095960043
20
49.248930213521746
30
0
10
-104.46051321886588
20
49.087043222449921
30
0
10
-104.59420128744279
20
48.91482945660826
30
0
0
LINE
5
130
100
AcDbEntity
8
0
100
AcDbLine
10
-104.59420128744279
20
48.91482945660826
30
0
11
-113.27403343357588
21
37.733677715312517
31
0
0
SPLINE
5
131
100
AcDbEntity
8
0
100
AcDbSpline
70
4
71
5
72
12
73
6
74
0
42
0.000000001
43
0.0000000001
44
0.0000000001
40
0
40
0
40
0
40
0
40
0
40
0
40
0.17190786284671436
40
0.17190786284671436
40
0.17190786284671436
40
0.17190786284671436
40
0.17190786284671436
40
0.17190786284671436
41
1
41
1
41
1
41
1
41
1
41
1
10
-113.27403343357588
20
37.73367771531251
30
0
10
-113.63764075353031
20
37.265287480316125
30
0
10
-113.95101896562647
20
36.794860269709474
30
0
10
-114.21420544919675
20
36.322398726704897
30
0
10
-114.42949143158147
20
35.848205527455164
30
0
10
-114.59972903505003
20
35.372780265683481
30
0
0
SPLINE
5
132
100
AcDbEntity
8
0
100
AcDbSpline
70
4
71
5
72
14
73
8
74
0
42
0.000000001
43
0.0000000001
44
0.0000000001
40
0.17190786284677045
40
0.17190786284677045
40
0.17190786284677045
40
0.17190786284677045
40
0.17190786284677045
40
0.17190786284677045
40
0.20000000000000001
40
0.40000000000000002
40
0.44898385350180597
40
0.44898385350180597
40
0.44898385350180597
40
0.44898385350180597
40
0.44898385350180597
40
0.44898385350180597
41
1
41
1
41
1
41
1
41
1
41
1
41
1
41
1
10
-114.59972903505033
20
35.372780265682707
30
0
10
-114.62754822857687
20
35.2950891616306
30
0
10
-114.84365673350317
20
34.664014553330787
30
0
10
-115.01083443720202
20
33.894953495296406
30
0
10
-115.07234281108751
20
33.124736801726129
30
0
10
-115.04208676204667
20
32.356591403349036
30
0
10
-114.94828744542116
20
31.670849055038843
30
0
10
-114.92730856843698
20
31.53613686509533
30
0
0
SPLINE
5
133
100
AcDbEntity
8
0
100
AcDbSpline
70
4
71
5
72
14
73
8
74
0
42
0.000000001
43
0.0000000001
44
0.0000000001
40
0.4489838535018062
40
0.4489838535018062
40
0.4489838535018062
40
0.4489838535018062
40
0.4489838535018062
40
0.4489838535018062
40
0.60000000000000009
40
0.80000000000000004
40
0.92702684375082967
40
0.92702684375082967
40
0.92702684375082967
40
0.92702684375082967
40
0.92702684375082967
40
0.92702684375082967
41
1
41
1
41
1
41
1
41
1
41
1
41
1
41
1
10
-114.927308568437
20
31.53613686509533
30
0
10
-114.86263115060396
20
31.120822136725646
30
0
10
-114.65650810678119
20
30.159840939021251
30
0
10
-114.21059423121886
20
28.869714877514738
30
0
10
-113.56709016821755
20
27.621516748052461
30
0
10
-112.73076977140447
20
26.439372643022729
30
0
10
-112.06507594738997
20
25.667081144096471
30
0
10
-111.79224911132462
20
25.37278026568351
30
0
0
SPLINE
5
134
100
AcDbEntity
8
0
100
AcDbSpline
70
4
71
5
72
12
73
6
74
0
42
0.000000001
43
0.0000000001
44
0.0000000001
40
0.92702684375083177
40
0.92702684375083177
40
0.92702684375083177
40
0.92702684375083177
40
0.92702684375083177
40
0.92702684375083177
40
1
40
1
40
1
40
1
40
1
40
1
41
1
41
1
41
1
41
1
41
1
41
1
10
-111.79224911132467
20
25.372780265683488
30
0
10
-111.63551818147323
20
25.203713135063246
30
0
10
-111.47408393439346
20
25.03652044767664
30
0
10
-111.30792096569178
20
24.871237616645555
30
0
10
-111.13701056860489
20
24.70788532529571
30
0
10
-110.96135150937764
20
24.546464239728571
30
0
0
LINE
5
135
100
AcDbEntity
8
0
100
AcDbLine
10
-110.96135150937766
20
24.546464239728571
30
0
11
-105.75924584845851
21
19.766013139087228
31
0
0
SPLINE
5
136
100
AcDbEntity
8
0
100
AcDbSpline
70
4
71
5
72
14
73
8
74
0
42
0.000000001
43
0.0000000001
44
0.0000000001
40
0
40
0
40
0
40
0
40
0
40
0
40
0.20000000000000001
40
0.40000000000000002
40
0.43236158793573626
40
0.43236158793573626
40
0.43236158793573626
40
0.43236158793573626
40
0.43236158793573626
40
0.43236158793573626
41
1
41
1
41
1
41
1
41
1
41
1
41
1
41
1
10
-105.75924584845851
20
19.766013139087224
30
0
10
-105.13253622959071
20
19.190101213690145
30
0
10
-104.01039234276072
20
18.00710127126694
30
0
10
-103.08099924476241
20
16.661052300761945
30
0
10
-102.41574991120801
20
15.250599195497394
30
0
10
-101.95083679572878
20
13.786187947112552
30
0
10
-101.75025458244689
20
12.984685848638321
30
0
10
-101.72325207743818
20
12.872780265683467
30
0
0
SPLINE
5
137
100
AcDbEntity
8
0
100
AcDbSpline
70
4
71
5
72
14
73
8
74
0
42
0.000000001
43
0.0000000001
44
0.0000000001
40
0.43236158793573631
40
0.43236158793573631
40
0.43236158793573631
40
0.43236158793573631
40
0.43236158793573631
40
0.43236158793573631
40
0.60000000000000009
40
0.80000000000000004
40
0.96922993203765617
40
0.96922993203765617
40
0.96922993203765617
40
0.96922993203765617
40
0.96922993203765617
40
0.96922993203765617
41
1
41
1
41
1
41
1
41
1
41
1
41
1
41
1
10
-101.72325207743816
20
12.87278026568347
30
0
10
-101.58337460695046
20
12.293090719393859
30
0
10
-101.33152795723319
20
11.005425469480008
30
0
10
-101.11748508652141
20
9.0752499724147722
30
0
10
-101.06589825830585
20
7.077678141221682
30
0
10
-101.12735972925739
20
5.0086728906423028
30
0
10
-101.21883573776394
20
3.5493502168980835
30
0
10
-101.27099699043325
20
2.8727802656836907
30
0
0
SPLINE
5
138
100
AcDbEntity
8
0
100
AcDbSpline
70
4
71
5
72
12
73
6
74
0
42
0.000000001
43
0.0000000001
44
0.0000000001
40
0.96922993203766472
40
0.96922993203766472
40
0.96922993203766472
40
0.96922993203766472
40
0.96922993203766472
40
0.96922993203766472
40
1
40
1
40
1
40
1
40
1
40
1
41
1
41
1
41
1
41
1
41
1
41
1
10
-101.27099699043326
20
2.8727802656835202
30
0
10
-101.28048115951793
20
2.7497635916857526
30
0
10
-101.29030369287878
20
2.6264918428363293
30
0
10
-101.3004639787884
20
2.502964565305914
30
0
10
-101.3109617431532
20
2.3791814943963931
30
0
10
-101.32179700736134
20
2.2551426000506791
30
0
0
LINE
5
139
100
AcDbEntity
8
0
100
AcDbLine
10
-101.32179700736137
20
2.2551426000506787
30
0
11
-102.80767421611438
21
-14.754739444979776
31
0
0
SPLINE
5
140
100
AcDbEntity
8
0
100
AcDbSpline
70
0
71
3
72
8
73
4
74
0
42
0.000000001
43
0.0000000001
44
0.0000000001
40
0
40
0
40
0
40
0
40
0.12978524379199488
40
0.12978524379199488
40
0.12978524379199488
40
0.12978524379199488
10
-102.80767421611438
20
-14.754739444979778
30
0
10
-102.88464411957119
20
-15.635868094847279
30
0
10
-102.95391749293231
20
-16.516187675767782
30
0
10
-103.01469883942332
20
-17.396519933815661
30
0
0
SPLINE
5
141
100
AcDbEntity
8
0
100
AcDbSpline
70
0
71
3
72
8
73
4
74
0
42
0.000000001
43
0.0000000001
44
0.0000000001
40
0.12978524379199494
40
0.12978524379199494
40
0.12978524379199494
40
0.12978524379199494
40
0.56808957889904466
40
0.56808957889904466
40
0.56808957889904466
40
0.56808957889904466
10
-103.0146988394233
20
-17.396519933815661
30
0
10
-103.2199666101057
20
-20.369534690835071
30
0
10
-103.32838156365864
20
-23.342694032359212
30
0
10
-103.30930362891661
20
-26.347649071261795
30
0
0
SPLINE
5
142
100
AcDbEntity
8
0
100
AcDbSpline
70
0
71
3
72
11
73
7
74
0
42
0.000000001
43
0.0000000001
44
0.0000000001
40
0.56808957889904443
40
0.56808957889904443
40
0.56808957889904443
40
0.56808957889904443
40
0.67801271907320482
40
0.67801271907320482
40
0.67801271907320482
40
0.86418406531554248
40
0.86418406531554248
40
0.86418406531554248
40
0.86418406531554248
10
-103.30930362891661
20
-26.347649071261788
30
0
10
-103.3045190390166
20
-27.10126720254873
30
0
10
-103.29171558820745
20
-27.85688517302825
30
0
10
-103.27040996196048
20
-28.615002245336456
30
0
10
-103.23432568421285
20
-29.898987362003417
30
0
10
-103.16924801166053
20
-31.192237139870844
30
0
10
-103.06856454340526
20
-32.489818069897886
30
0
0
SPLINE
5
143
100
AcDbEntity
8
0
100
AcDbSpline
70
0
71
3
72
8
73
4
74
0
42
0.000000001
43
0.0000000001
44
0.0000000001
40
0.86418406531554104
40
0.86418406531554104
40
0.86418406531554104
40
0.86418406531554104
40
1
40
1
40
1
40
1
10
-103.06856454340526
20
-32.489818069897865
30
0
10
-102.99511382381621
20
-33.436430802723848
30
0
10
-102.90271366027085
20
-34.385348579531993
30
0
10
-102.78879677512566
20
-35.334655955741781
30
0
0
LINE
5
144
100
AcDbEntity
8
0
100
AcDbLine
10
-102.78879677512565
20
-35.334655955741781
30
0
11
-99.788796730422177
21
-60.334656328270881
31
0
0
SPLINE
5
145
100
AcDbEntity
8
0
100
AcDbSpline
70
0
71
3
72
11
73
7
74
0
42
0.000000001
43
0.0000000001
44
0.0000000001
40
-1
40
-1
40
-1
40
-1
40
-0.99032961220498306
40
-0.99032961220498306
40
-0.99032961220498306
40
-0.89412078222006841
40
-0.89412078222006841
40
-0.89412078222006841
40
-0.89412078222006841
10
-99.788796730422177
20
-60.334656328270881
30
0
10
-99.782363093753673
20
-60.388269967175191
30
0
10
-99.775352402229046
20
-60.442044611941903
30
0
10
-99.767738682517091
20
-60.495965774327487
30
0
10
-99.691991248096883
20
-61.032417057823771
30
0
10
-99.546078274412508
20
-61.590040143137522
30
0
10
-99.331088621954819
20
-62.127219734316512
30
0
0
SPLINE
5
146
100
AcDbEntity
8
0
100
AcDbSpline
70
0
71
3
72
14
73
10
74
0
42
0.000000001
43
0.0000000001
44
0.0000000001
40
-0.89412078221934543
40
-0.89412078221934543
40
-0.89412078221934543
40
-0.89412078221934543
40
-0.80778318786144321
40
-0.80778318786144321
40
-0.80778318786144321
40
-0.61976440982799463
40
-0.61976440982799463
40
-0.61976440982799463
40
-0.49288782442009982
40
-0.49288782442009982
40
-0.49288782442009982
40
-0.49288782442009982
10
-99.331088621950002
20
-62.127219734328634
30
0
10
-99.138157376366422
20
-62.609283528762063
30
0
10
-98.889597103064929
20
-63.074883710264373
30
0
10
-98.586194716044389
20
-63.49394511380811
30
0
10
-97.925470422249973
20
-64.406541921736931
30
0
10
-97.069280838726414
20
-65.049498767945494
30
0
10
-96.28695173264596
20
-65.462335562459728
30
0
10
-95.759029752283766
20
-65.740921155699723
30
0
10
-95.25903940644028
20
-65.935846824623937
30
0
10
-94.784283372088538
20
-66.080096294853007
30
0
0
SPLINE
5
147
100
AcDbEntity
8
0
100
AcDbSpline
70
0
71
3
72
11
73
7
74
0
42
0.000000001
43
0.0000000001
44
0.0000000001
40
-0.49288782441998963
40
-0.49288782441998963
40
-0.49288782441998963
40
-0.49288782441998963
40
-0.36291265934012851
40
-0.36291265934012851
40
-0.36291265934012851
40
0
40
0
40
0
40
0
10
-94.784283372087273
20
-66.080096294853391
30
0
10
-94.297932846975399
20
-66.227868625306769
30
0
10
-93.838064228548205
20
-66.322459304046731
30
0
10
-93.40177770611399
20
-66.399328140391475
30
0
10
-92.183591893512201
20
-66.613958941599662
30
0
10
-91.118765959314075
20
-66.666255363326457
30
0
10
-90.0723350274219
20
-66.666255363326457
30
0
0
LINE
5
148
100
AcDbEntity
8
0
100
AcDbLine
10
-90.0723350274219
20
-66.666255363326471
30
0
11
-59.108173770916309
21
-66.666255363326457
31
0
0
SPLINE
5
149
100
AcDbEntity
8
0
100
AcDbSpline
70
0
71
3
72
17
73
13
74
0
42
0.000000001
43
0.0000000001
44
0.0000000001
40
0.19862249706136467
40
0.19862249706136467
40
0.19862249706136467
40
0.19862249706136467
40
0.39398882867434026
40
0.39398882867434026
40
0.39398882867434026
40
0.67636728762579179
40
0.67636728762579179
40
0.67636728762579179
40
0.8876648911288797
40
0.8876648911288797
40
0.8876648911288797
40
0.95473648345431239
40
0.95473648345431239
40
0.95473648345431239
40
0.95473648345431239
10
-59.108173770916309
20
-66.666255363326457
30
0
10
-59.038824332110238
20
-66.696993105977924
30
0
10
-58.840743171879168
20
-66.808671691503122
30
0
10
-58.513207928288523
20
-67.056534445450339
30
0
10
-58.039795254908164
20
-67.414790148534991
30
0
10
-57.353105168336128
20
-68.045879327448247
30
0
10
-56.306763815897149
20
-68.706657226885255
30
0
10
-55.523809545810465
20
-69.201102827011042
30
0
10
-54.483694139946195
20
-69.705901155542307
30
0
10
-53.263632911110783
20
-69.913667411785823
30
0
10
-52.87635237410592
20
-69.979618058677772
30
0
10
-52.476333562710963
20
-70.014216260656212
30
0
10
-52.076995022495041
20
-70.017968573050553
30
0
0
SPLINE
5
150
100
AcDbEntity
8
0
100
AcDbSpline
70
0
71
3
72
8
73
4
74
0
42
0.000000001
43
0.0000000001
44
0.0000000001
40
0.95473648345431261
40
0.95473648345431261
40
0.95473648345431261
40
0.95473648345431261
40
1
40
1
40
1
40
1
10
-52.076995022495034
20
-70.017968573050553
30
0
10
-51.807499905476021
20
-70.020500835194014
30
0
10
-51.538314602729415
20
-70.008985027783822
30
0
10
-51.273563264411251
20
-69.983576839097083
30
0
0
LINE
5
151
100
AcDbEntity
8
0
100
AcDbLine
10
-51.273563264411251
20
-69.983576839097083
30
0
11
-14.764887226523467
21
-66.479838820749706
31
0
0
SPLINE
5
152
100
AcDbEntity
8
0
100
AcDbSpline
70
0
71
3
72
11
73
7
74
0
42
0.000000001
43
0.0000000001
44
0.0000000001
40
0
40
0
40
0
40
0
40
0.17112855423075315
40
0.17112855423075315
40
0.17112855423075315
40
0.18260748681040029
40
0.18260748681040029
40
0.18260748681040029
40
0.18260748681040029
10
-14.764887226523468
20
-66.479838820749706
30
0
10
-12.906591792971682
20
-66.301498188701046
30
0
10
-11.110807354083398
20
-65.702425958431945
30
0
10
-9.6184373712197324
20
-64.809923541858652
30
0
10
-9.5183324267574445
20
-64.750056413821085
30
0
10
-9.4196329320494971
20
-64.689131583143819
30
0
10
-9.3223037685184309
20
-64.627219734316498
30
0
0
SPLINE
5
153
100
AcDbEntity
8
0
100
AcDbSpline
70
0
71
3
72
11
73
7
74
0
42
0.000000001
43
0.0000000001
44
0.0000000001
40
0.1826074868104004
40
0.1826074868104004
40
0.1826074868104004
40
0.1826074868104004
40
0.38593495030313996
40
0.38593495030313996
40
0.38593495030313996
40
0.49488229724648014
40
0.49488229724648014
40
0.49488229724648014
40
0.49488229724648014
10
-9.3223037685184309
20
-64.627219734316512
30
0
10
-7.598302707676817
20
-63.530569057534514
30
0
10
-6.3042483411124373
20
-62.124237627680273
30
0
10
-5.2449673132594938
20
-60.801058242162149
30
0
10
-4.6773811364117543
20
-60.092069495113392
30
0
10
-4.1649105036214573
20
-59.40001898777102
30
0
10
-3.6913752769245045
20
-58.757678334504284
30
0
0
SPLINE
5
154
100
AcDbEntity
8
0
100
AcDbSpline
70
0
71
3
72
14
73
10
74
0
42
0.000000001
43
0.0000000001
44
0.0000000001
40
0.49488229724646038
40
0.49488229724646038
40
0.49488229724646038
40
0.49488229724646038
40
0.63272958992324757
40
0.63272958992324757
40
0.63272958992324757
40
0.82115989298640035
40
0.82115989298640035
40
0.82115989298640035
40
0.83515805809785115
40
0.83515805809785115
40
0.83515805809785115
40
0.83515805809785115
10
-3.691375276924763
20
-58.757678334504647
30
0
10
-3.0922276077188924
20
-57.94494702425888
30
0
10
-2.5554114807987456
20
-57.211796028750406
30
0
10
-2.0481530835205568
20
-56.624606163257496
30
0
10
-1.3547564148273759
20
-55.82194720520404
30
0
10
-0.75744547827287023
20
-55.317303263549277
30
0
10
-0.22336572609860245
20
-55.031325281366428
30
0
10
-0.18368985426649864
20
-55.010080465921369
30
0
10
-0.14420215894272034
20
-54.989621310254144
30
0
10
-0.10471568310575179
20
-54.969954980453473
30
0
0
SPLINE
5
155
100
AcDbEntity
8
0
100
AcDbSpline
70
0
71
3
72
8
73
4
74
0
42
0.000000001
43
0.0000000001
44
0.0000000001
40
0.83515805809782118
40
0.83515805809782118
40
0.83515805809782118
40
0.83515805809782118
40
1
40
1
40
1
40
1
10
-0.10471568310600544
20
-54.969954980453593
30
0
10
0.360275785705505
20
-54.738364913568311
30
0
10
0.82509814411301952
20
-54.616718719568809
30
0
10
1.5950547713119168
20
-54.616718719568809
30
0
0
LINE
5
156
100
AcDbEntity
8
0
100
AcDbLine
10
1.5950547713119168
20
-54.616718719568816
30
0
11
25.000000372529037
21
-54.616718719568809
31
0
0
SPLINE
5
157
100
AcDbEntity
8
0
100
AcDbSpline
70
4
71
5
72
12
73
6
74
0
42
0.000000001
43
0.0000000001
44
0.0000000001
40
0
40
0
40
0
40
0
40
0
40
0
40
0.042985741884160711
40
0.042985741884160711
40
0.042985741884160711
40
0.042985741884160711
40
0.042985741884160711
40
0.042985741884160711
41
1
41
1
41
1
41
1
41
1
41
1
10
25.00000037252903
20
-54.616718719568809
30
0
10
25.139356334121242
20
-54.616718719568809
30
0
10
25.276628372862682
20
-54.614051628840706
30
0
10
25.411816870426765
20
-54.608717965644786
30
0
10
25.544927772524517
20
-54.600726747360014
30
0
10
25.675971502438838
20
-54.590094043065761
30
0
0
SPLINE
5
158
100
AcDbEntity
8
0
100
AcDbSpline
70
4
71
5
72
16
73
10
74
0
42
0.000000001
43
0.0000000001
44
0.0000000001
40
0.042985741884192359
40
0.042985741884192359
40
0.042985741884192359
40
0.042985741884192359
40
0.042985741884192359
40
0.042985741884192359
40
0.20000000000000001
40
0.40000000000000002
40
0.60000000000000009
40
0.80000000000000004
40
0.84353929318523146
40
0.84353929318523146
40
0.84353929318523146
40
0.84353929318523146
40
0.84353929318523146
40
0.84353929318523146
41
1
41
1
41
1
41
1
41
1
41
1
41
1
41
1
41
1
41
1
10
25.675971502439324
20
-54.590094043065719
30
0
10
26.154635662492041
20
-54.551255905037777
30
0
10
27.180295452559715
20
-54.382811579110033
30
0
10
28.562154938120969
20
-53.84203812958966
30
0
10
30.027888316716961
20
-52.596970626655775
30
0
10
31.117142252123688
20
-50.787183836597819
30
0
10
31.724746890661429
20
-49.134744468038832
30
0
10
32.012114171522917
20
-47.929040099187993
30
0
10
32.12883097792168
20
-47.249296622986947
30
0
10
32.148376189084743
20
-47.127219734316547
30
0
0
SPLINE
5
159
100
AcDbEntity
8
0
100
AcDbSpline
70
4
71
5
72
12
73
6
74
0
42
0.000000001
43
0.0000000001
44
0.0000000001
40
0.84353929318523246
40
0.84353929318523246
40
0.84353929318523246
40
0.84353929318523246
40
0.84353929318523246
40
0.84353929318523246
40
1
40
1
40
1
40
1
40
1
40
1
41
1
41
1
41
1
41
1
41
1
41
1
10
32.148376189084743
20
-47.127219734316526
30
0
10
32.218612918477795
20
-46.688530107320062
30
0
10
32.271789440564845
20
-46.242683797240154
30
0
10
32.307515501558356
20
-45.790235080979087
30
0
10
32.32538378955325
20
-45.331414614357044
30
0
10
32.32538378955325
20
-44.86622086563515
30
0
0
LINE
5
160
100
AcDbEntity
8
0
100
AcDbLine
10
32.32538378955325
20
-44.866220865635157
30
0
11
32.32538378955325
21
16.000000238418579
31
0
0
SPLINE
5
161
100
AcDbEntity
8
0
100
AcDbSpline
70
4
71
5
72
12
73
6
74
0
42
0.000000001
43
0.0000000001
44
0.0000000001
40
0
40
0
40
0
40
0
40
0
40
0
40
0.16733530052392595
40
0.16733530052392595
40
0.16733530052392595
40
0.16733530052392595
40
0.16733530052392595
40
0.16733530052392595
41
1
41
1
41
1
41
1
41
1
41
1
10
32.32538378955325
20
16.000000238418579
30
0
10
32.32538378955325
20
16.378334357866933
30
0
10
32.307736041019155
20
16.755025674846028
30
0
10
32.272452132094728
20
17.130072234928921
30
0
10
32.22007859004524
20
17.502975482697874
30
0
10
32.151182910503856
20
17.872780265683517
30
0
0
SPLINE
5
162
100
AcDbEntity
8
0
100
AcDbSpline
70
4
71
5
72
16
73
10
74
0
42
0.000000001
43
0.0000000001
44
0.0000000001
40
0.16733530052392628
40
0.16733530052392628
40
0.16733530052392628
40
0.16733530052392628
40
0.16733530052392628
40
0.16733530052392628
40
0.20000000000000001
40
0.40000000000000002
40
0.60000000000000009
40
0.80000000000000004
40
1
40
1
40
1
40
1
40
1
40
1
41
1
41
1
41
1
41
1
41
1
41
1
41
1
41
1
41
1
41
1
10
32.151182910503849
20
17.87278026568352
30
0
10
32.13773412438178
20
17.944968035169214
30
0
10
32.037456514778285
20
18.458307386956285
30
0
10
31.791979743725577
20
19.401106901691652
30
0
10
31.28036682871112
20
20.733410411989937
30
0
10
30.335655555825451
20
22.316616078083605
30
0
10
29.069377933091346
20
23.416359829462969
30
0
10
27.867031368002536
20
23.861377209976553
30
0
10
26.939290070595963
20
23.96033057948577
30
0
10
26.443848820488792
20
23.96033057948577
30
0
0
LINE
5
163
100
AcDbEntity
8
0
100
AcDbLine
10
26.443848820488796
20
23.96033057948577
30
0
11
-8.4438485522678963
21
23.960330579485767
31
0
0
SPLINE
5
164
100
AcDbEntity
8
0
100
AcDbSpline
70
4
71
5
72
13
73
7
74
0
42
0.000000001
43
0.0000000001
44
0.0000000001
40
0
40
0
40
0
40
0
40
0
40
0
40
0.20000000000000001
40
0.22737339763155434
40
0.22737339763155434
40
0.22737339763155434
40
0.22737339763155434
40
0.22737339763155434
40
0.22737339763155434
41
1
41
1
41
1
41
1
41
1
41
1
41
1
10
-8.4438485522678963
20
23.960330579485767
30
0
10
-8.9471808890113884
20
23.960330579485767
30
0
10
-9.4567224734815127
20
23.798218369292758
30
0
10
-9.8950749980392381
20
23.451996952682286
30
0
10
-10.269305977441794
20
22.942257776972248
30
0
10
-10.589087179921886
20
22.298441746929498
30
0
10
-10.626813693055546
20
22.219042746897554
30
0
0
SPLINE
5
165
100
AcDbEntity
8
0
100
AcDbSpline
70
4
71
5
72
12
73
6
74
0
42
0.000000001
43
0.0000000001
44
0.0000000001
40
0.22737339763159567
40
0.22737339763159567
40
0.22737339763159567
40
0.22737339763159567
40
0.22737339763159567
40
0.22737339763159567
40
0.33643139194571237
40
0.33643139194571237
40
0.33643139194571237
40
0.33643139194571237
40
0.33643139194571237
40
0.33643139194571237
41
1
41
1
41
1
41
1
41
1
41
1
10
-10.626813693055833
20
22.21904274689695
30
0
10
-10.777119398989791
20
21.902710232731806
30
0
10
-10.915173962033631
20
21.556374181875047
30
0
10
-11.042074666909375
20
21.1833884005455
30
0
10
-11.159038525055028
20
20.787525593047395
30
0
10
-11.267330135766292
20
20.372780265683474
30
0
0
SPLINE
5
166
100
AcDbEntity
8
0
100
AcDbSpline
70
4
71
5
72
14
73
8
74
0
42
0.000000001
43
0.0000000001
44
0.0000000001
40
0.33643139194571225
40
0.33643139194571225
40
0.33643139194571225
40
0.33643139194571225
40
0.33643139194571225
40
0.33643139194571225
40
0.40000000000000002
40
0.60000000000000009
40
0.75489566596707969
40
0.75489566596707969
40
0.75489566596707969
40
0.75489566596707969
40
0.75489566596707969
40
0.75489566596707969
41
1
41
1
41
1
41
1
41
1
41
1
41
1
41
1
10
-11.267330135766292
20
20.372780265683474
30
0
10
-11.330452027931702
20
20.131030146186436
30
0
10
-11.5799517840912
20
19.102084126347041
30
0
10
-11.902493850710558
20
17.314927851837439
30
0
10
-12.15419033142901
20
15.430776810459957
30
0
10
-12.408806859680769
20
13.697198422256363
30
0
10
-12.665308324418842
20
12.47426054294589
30
0
10
-12.787685613474311
20
11.997593329813139
30
0
0
SPLINE
5
167
100
AcDbEntity
8
0
100
AcDbSpline
70
4
71
5
72
13
73
7
74
0
42
0.000000001
43
0.0000000001
44
0.0000000001
40
0.75489566596707824
40
0.75489566596707824
40
0.75489566596707824
40
0.75489566596707824
40
0.75489566596707824
40
0.75489566596707824
40
0.80000000000000004
40
1
40
1
40
1
40
1
40
1
40
1
41
1
41
1
41
1
41
1
41
1
41
1
41
1
10
-12.787685613474304
20
11.997593329813164
30
0
10
-12.823320865688363
20
11.858791788340394
30
0
10
-13.021772800117953
20
11.130826800463849
30
0
10
-13.248299232392903
20
10.553086921043786
30
0
10
-13.513019220207823
20
10.163304008391078
30
0
10
-13.822447135608842
20
9.9872596095748705
30
0
10
-14.104735019452386
20
9.9860703558146309
30
0
0
LWPOLYLINE
5
168
100
AcDbEntity
8
0
100
AcDbPolyline
90
4
70
1
43
0.0
10
-45.066477718386579
20
2.8727802656835166
10
-44.809913272910045
20
3.3171629206645932
10
-51.100181352588066
20
3.2901405211427202
10
-50.859218296749646
20
2.8727802656835211
0
LWPOLYLINE
5
169
100
AcDbEntity
8
0
100
AcDbPolyline
90
4
70
1
43
0.0
10
-16.697991592007565
20
6.9751185735939627
10
-27.202154880379901
20
6.9308654674429633
10
-24.859218296749646
20
2.8727802656835211
10
-19.066477718386579
20
2.8727802656835166
0
SPLINE
5
170
100
AcDbEntity
8
0
100
AcDbSpline
70
4
71
5
72
15
73
9
74
0
42
0.000000001
43
0.0000000001
44
0.0000000001
40
-0.66096728519241899
40
-0.66096728519241899
40
-0.66096728519241899
40
-0.66096728519241899
40
-0.66096728519241899
40
-0.66096728519241899
40
-0.60000000000000009
40
-0.40000000000000002
40
-0.20000000000000001
40
0
40
0
40
0
40
0
40
0
40
0
41
1
41
1
41
1
41
1
41
1
41
1
41
1
41
1
41
1
10
-11.22208038411296
20
10.37278026568351
30
0
10
-11.163501739738116
20
10.589056954459281
30
0
10
-10.924923312633492
20
11.537829946764091
30
0
10
-10.587752555488731
20
13.366717030131474
30
0
10
-10.232191086812929
20
16.142057400895258
30
0
10
-9.8406582436115695
20
18.505685620766304
30
0
10
-9.2578068360213912
20
19.695700247586917
30
0
10
-8.7371993535767309
20
19.960330579485767
30
0
10
-8.4438485522678963
20
19.960330579485767
30
0
0
LINE
5
171
100
AcDbEntity
8
0
100
AcDbLine
10
-8.4438485522678945
20
19.960330579485767
30
0
11
-5.8379687242665712
21
19.960330579485767
31
0
0
LINE
5
172
100
AcDbEntity
8
0
100
AcDbLine
10
-5.8379687242665712
20
19.960330579485767
30
0
11
-3.189345315671881
21
15.37278026568349
31
0
0
LINE
5
173
100
AcDbEntity
8
0
100
AcDbLine
10
-3.189345315671881
20
15.37278026568349
30
0
11
-6.0760966616200029
21
10.372780265683513
31
0
0
LINE
5
174
100
AcDbEntity
8
0
100
AcDbLine
10
-6.0760966616200029
20
10.372780265683513
30
0
11
-11.22208038411296
21
10.37278026568351
31
0
0
LINE
5
175
100
AcDbEntity
8
0
100
AcDbLine
10
28.325383789553253
20
-12.127219734316483
30
0
11
27.140781703250369
21
-12.127219734316483
31
0
0
LINE
5
176
100
AcDbEntity
8
0
100
AcDbLine
10
27.140781703250369
20
-12.127219734316483
30
0
11
24.254030357302256
21
-7.1272197343165011
31
0
0
LINE
5
177
100
AcDbEntity
8
0
100
AcDbLine
10
24.254030357302256
20
-7.1272197343165011
30
0
11
25.12422624092391
21
-5.6199962513464978
31
0
0
SPLINE
5
178
100
AcDbEntity
8
0
100
AcDbSpline
70
4
71
5
72
14
73
8
74
0
42
0.000000001
43
0.0000000001
44
0.0000000001
40
0.50230797691012186
40
0.50230797691012186
40
0.50230797691012186
40
0.50230797691012186
40
0.50230797691012186
40
0.50230797691012186
40
0.60000000000000009
40
0.80000000000000004
40
1
40
1
40
1
40
1
40
1
40
1
41
1
41
1
41
1
41
1
41
1
41
1
41
1
41
1
10
25.124226240923907
20
-5.6199962513464952
30
0
10
25.337054754659306
20
-5.6620667114081851
30
0
10
25.972708465421533
20
-5.8029108895215238
30
0
10
26.956650799713419
20
-6.1173084517919198
30
0
10
27.739739062431795
20
-6.6399189231593088
30
0
10
28.20157716740637
20
-7.5019147760269691
30
0
10
28.325383789553253
20
-8.4568982379521298
30
0
10
28.325383789553253
20
-9.0000001341104507
30
0
0
LINE
5
179
100
AcDbEntity
8
0
100
AcDbLine
10
28.32538378955325
20
-9.0000001341104507
30
0
11
28.325383789553253
21
-12.127219734316483
31
0
0
LINE
5
180
100
AcDbEntity
8
0
100
AcDbLine
10
-0.064466032370248422
20
19.960330579485767
30
0
11
6.9833479736138226
21
19.96033057948577
31
0
0
SPLINE
5
181
100
AcDbEntity
8
0
100
AcDbSpline
70
4
71
5
72
12
73
6
74
0
42
0.000000001
43
0.0000000001
44
0.0000000001
40
-1
40
-1
40
-1
40
-1
40
-1
40
-1
40
-0.95844860282003452
40
-0.95844860282003452
40
-0.95844860282003452
40
-0.95844860282003452
40
-0.95844860282003452
40
-0.95844860282003452
41
1
41
1
41
1
41
1
41
1
41
1
10
6.9833479736138226
20
19.96033057948577
30
0
10
7.1710512125694192
20
19.881453755163463
30
0
10
7.3574109463115303
20
19.802117816721903
30
0
10
7.5424272921934641
20
19.722322804264071
30
0
10
7.7260983291271081
20
19.642068061299273
30
0
10
7.9084196801347497
20
19.561352092089152
30
0
0
LINE
5
182
100
AcDbEntity
8
0
100
AcDbLine
10
7.9084196801347497
20
19.561352092089152
30
0
11
6.9335222816134312
21
17.872780265683502
31
0
0
LINE
5
183
100
AcDbEntity
8
0
100
AcDbLine
10
6.9335222816134312
20
17.872780265683502
30
0
11
1.1407817032503642
21
17.872780265683517
31
0
0
LINE
5
184
100
AcDbEntity
8
0
100
AcDbLine
10
1.1407817032503642
20
17.872780265683517
30
0
11
-0.064466032370248422
21
19.960330579485767
31
0
0
CIRCLE
5
185
100
AcDbEntity
8
0
100
AcDbCircle
10
24.000000357627883
20
16.000000238418586
30
0
40
1.9999999999999973
210
0
220
0
230
1
0
LINE
5
186
100
AcDbEntity
8
0
100
AcDbLine
10
28.325383789553253
20
-17.12721973431653
30
0
11
28.325383789553253
21
-25.855445133514635
31
0
0
SPLINE
5
187
100
AcDbEntity
8
0
100
AcDbSpline
70
4
71
5
72
12
73
6
74
0
42
0.000000001
43
0.0000000001
44
0.0000000001
40
-1
40
-1
40
-1
40
-1
40
-1
40
-1
40
-0.92443331889678548
40
-0.92443331889678548
40
-0.92443331889678548
40
-0.92443331889678548
40
-0.92443331889678548
40
-0.92443331889678548
41
1
41
1
41
1
41
1
41
1
41
1
10
28.325383789553271
20
-25.855445133514635
30
0
10
28.325383789553271
20
-26.116963404365585
30
0
10
28.319990274094149
20
-26.374888799181964
30
0
10
28.309204893227509
20
-26.629222383212372
30
0
10
28.293066763386673
20
-26.879987419718514
30
0
10
28.271637701797193
20
-27.12721973431649
30
0
0
LINE
5
188
100
AcDbEntity
8
0
100
AcDbLine
10
28.271637701797196
20
-27.127219734316498
30
0
11
27.140781703250365
21
-27.12721973431648
31
0
0
LINE
5
189
100
AcDbEntity
8
0
100
AcDbLine
10
27.140781703250365
20
-27.12721973431648
30
0
11
24.254030357302252
21
-22.127219734316515
31
0
0
LINE
5
190
100
AcDbEntity
8
0
100
AcDbLine
10
24.254030357302252
20
-22.127219734316515
30
0
11
27.140781703250365
21
-17.127219734316522
31
0
0
LINE
5
191
100
AcDbEntity
8
0
100
AcDbLine
10
27.140781703250365
20
-17.127219734316522
30
0
11
28.325383789553253
21
-17.12721973431653
31
0
0
LINE
5
192
100
AcDbEntity
8
0
100
AcDbLine
10
-14.577172240963534
20
-59.902924911910432
30
0
11
-14.73635069946436
21
-59.627219734316519
31
0
0
LINE
5
193
100
AcDbEntity
8
0
100
AcDbLine
10
-14.73635069946436
20
-59.627219734316519
30
0
11
-14.122547719589456
21
-58.564081787336008
31
0
0
SPLINE
5
194
100
AcDbEntity
8
0
100
AcDbSpline
70
4
71
5
72
12
73
6
74
0
42
0.000000001
43
0.0000000001
44
0.0000000001
40
0.41163012269156007
40
0.41163012269156007
40
0.41163012269156007
40
0.41163012269156007
40
0.41163012269156007
40
0.41163012269156007
40
0.53742645043053272
40
0.53742645043053272
40
0.53742645043053272
40
0.53742645043053272
40
0.53742645043053272
40
0.53742645043053272
41
1
41
1
41
1
41
1
41
1
41
1
10
-14.122547719589454
20
-58.564081787336015
30
0
10
-14.19384190266133
20
-58.843175928397372
30
0
10
-14.274591593308337
20
-59.117781616195586
30
0
10
-14.365089664387263
20
-59.386778782340116
30
0
10
-14.465766411402408
20
-59.648929727753561
30
0
10
-14.577172240959273
20
-59.902924911900719
30
0
0
LWPOLYLINE
5
195
100
AcDbEntity
8
0
100
AcDbPolyline
90
4
70
1
43
0.0
10
-25.65562999021023
20
-63.506645251132234
10
-18.657803759341832
20
-62.835063795112369
10
-19.066477718386572
20
-62.127219734316547
10
-24.859218296749642
20
-62.127219734316519
0
LINE
5
196
100
AcDbEntity
8
0
100
AcDbLine
10
-43.292819156649607
20
-65.199286478524527
30
0
11
-51.65568761024474
21
-66.001871050829777
31
0
0
SPLINE
5
197
100
AcDbEntity
8
0
100
AcDbSpline
70
4
71
5
72
12
73
6
74
0
42
0.000000001
43
0.0000000001
44
0.0000000001
40
-1
40
-1
40
-1
40
-1
40
-1
40
-1
40
-0.83315539313585185
40
-0.83315539313585185
40
-0.83315539313585185
40
-0.83315539313585185
40
-0.83315539313585185
40
-0.83315539313585185
41
1
41
1
41
1
41
1
41
1
41
1
10
-51.655687610244748
20
-66.001871050829777
30
0
10
-51.945441974290709
20
-66.029678780155166
30
0
10
-52.226464943651074
20
-66.029495228322489
30
0
10
-52.49876401972962
20
-66.001344327274708
30
0
10
-52.762930407454689
20
-65.94710038483521
30
0
10
-53.019835561564562
20
-65.869518612691252
30
0
0
LINE
5
198
100
AcDbEntity
8
0
100
AcDbLine
10
-53.019835561564562
20
-65.869518612691252
30
0
11
-50.859218296749646
21
-62.127219734316519
31
0
0
LINE
5
199
100
AcDbEntity
8
0
100
AcDbLine
10
-50.859218296749646
20
-62.127219734316519
30
0
11
-45.066477718386579
21
-62.127219734316547
31
0
0
LINE
5
200
100
AcDbEntity
8
0
100
AcDbLine
10
-45.066477718386579
20
-62.127219734316547
30
0
11
-43.292819156649607
21
-65.199286478524527
31
0
0
LINE
5
201
100
AcDbEntity
8
0
100
AcDbLine
10
-97.344992061852167
20
-47.12721973431654
30
0
11
-97.066477718386594
21
-47.12721973431654
31
0
0
LINE
5
202
100
AcDbEntity
8
0
100
AcDbLine
10
-97.066477718386594
20
-47.12721973431654
30
0
11
-95.485296012665671
21
-49.865906784623597
31
0
0
SPLINE
5
203
100
AcDbEntity
8
0
100
AcDbSpline
70
4
71
5
72
14
73
8
74
0
42
0.000000001
43
0.0000000001
44
0.0000000001
40
-0.43456283522811534
40
-0.43456283522811534
40
-0.43456283522811534
40
-0.43456283522811534
40
-0.43456283522811534
40
-0.43456283522811534
40
-0.40000000000000002
40
-0.20000000000000001
40
0
40
0
40
0
40
0
40
0
40
0
41
1
41
1
41
1
41
1
41
1
41
1
41
1
41
1
10
-95.485296012665657
20
-49.865906784623597
30
0
10
-95.52997932077119
20
-49.85215807426863
30
0
10
-95.83044185667903
20
-49.755051120871549
30
0
10
-96.350395455189343
20
-49.526159902138822
30
0
10
-96.78078629319252
20
-49.190990665895683
30
0
10
-97.079968146615272
20
-48.716105845025758
30
0
10
-97.223242454173203
20
-48.141799798307794
30
0
10
-97.261820246969833
20
-47.820318191669216
30
0
0
LINE
5
204
100
AcDbEntity
8
0
100
AcDbLine
10
-97.261820246969819
20
-47.820318191669216
30
0
11
-97.344992061852167
21
-47.12721973431654
31
0
0
LWPOLYLINE
5
205
100
AcDbEntity
8
0
100
AcDbPolyline
90
4
70
1
43
0.0
10
-77.17043066226131
20
-62.666255363326457
10
-70.755265352874915
20
-62.666255363326457
10
-71.066477718386579
20
-62.127219734316547
10
-76.859218296749646
20
-62.127219734316519
0
LINE
5
206
100
AcDbEntity
8
0
100
AcDbLine
10
-97.944992061852162
20
-42.12721973431649
30
0
11
-98.817289421177975
21
-34.858075073268061
31
0
0
SPLINE
5
207
100
AcDbEntity
8
0
100
AcDbSpline
70
4
71
5
72
12
73
6
74
0
42
0.000000001
43
0.0000000001
44
0.0000000001
40
-1
40
-1
40
-1
40
-1
40
-1
40
-1
40
-0.86155882694133568
40
-0.86155882694133568
40
-0.86155882694133568
40
-0.86155882694133568
40
-0.86155882694133568
40
-0.86155882694133568
41
1
41
1
41
1
41
1
41
1
41
1
10
-98.817289421177975
20
-34.858075073268061
30
0
10
-98.882794404354428
20
-34.312200213464394
30
0
10
-98.942266500775787
20
-33.76617434500502
30
0
10
-98.995709342307265
20
-33.219997570393865
30
0
10
-99.043304559993572
20
-32.673676175700862
30
0
10
-99.085305260346786
20
-32.127219734313243
30
0
0
LINE
5
208
100
AcDbEntity
8
0
100
AcDbLine
10
-99.0853052603468
20
-32.127219734313243
30
0
11
-97.066477718386579
21
-32.127219734316547
31
0
0
LINE
5
209
100
AcDbEntity
8
0
100
AcDbLine
10
-97.066477718386579
20
-32.127219734316547
30
0
11
-94.179726372438466
21
-37.127219734316519
31
0
0
LINE
5
210
100
AcDbEntity
8
0
100
AcDbLine
10
-94.179726372438466
20
-37.127219734316519
30
0
11
-97.066477718386579
21
-42.127219734316498
31
0
0
LINE
5
211
100
AcDbEntity
8
0
100
AcDbLine
10
-97.066477718386579
20
-42.127219734316498
30
0
11
-97.944992061852162
21
-42.12721973431649
31
0
0
SPLINE
5
212
100
AcDbEntity
8
0
100
AcDbSpline
70
4
71
5
72
14
73
8
74
0
42
0.000000001
43
0.0000000001
44
0.0000000001
40
-0.60840778516223315
40
-0.60840778516223315
40
-0.60840778516223315
40
-0.60840778516223315
40
-0.60840778516223315
40
-0.60840778516223315
40
-0.60000000000000009
40
-0.40000000000000002
40
-0.26312342325683979
40
-0.26312342325683979
40
-0.26312342325683979
40
-0.26312342325683979
40
-0.26312342325683979
40
-0.26312342325683979
41
1
41
1
41
1
41
1
41
1
41
1
41
1
41
1
10
-99.29984273004608
20
-27.127219734316498
30
0
10
-99.300263743362109
20
-27.093987371814457
30
0
10
-99.310335388867287
20
-26.270235159814646
30
0
10
-99.312126529179281
20
-24.905231051753347
30
0
10
-99.291758386277422
20
-23.539978865234072
30
0
10
-99.252366981926997
20
-22.174710372956174
30
0
10
-99.196742665043104
20
-20.842855382844498
30
0
10
-99.17132785309974
20
-20.301746989541964
30
0
0
SPLINE
5
213
100
AcDbEntity
8
0
100
AcDbSpline
70
4
71
5
72
13
73
7
74
0
42
0.000000001
43
0.0000000001
44
0.0000000001
40
-1
40
-1
40
-1
40
-1
40
-1
40
-1
40
-0.80000000000000004
40
-0.69630221035368334
40
-0.69630221035368334
40
-0.69630221035368334
40
-0.69630221035368334
40
-0.69630221035368334
40
-0.69630221035368334
41
1
41
1
41
1
41
1
41
1
41
1
41
1
10
-99.171327853099768
20
-20.301746989541964
30
0
10
-99.147493977593882
20
-19.794298415462151
30
0
10
-99.037487352526128
20
-19.071584093530568
30
0
10
-98.81549849554753
20
-18.421448308340871
30
0
10
-98.494709226224231
20
-17.835720572053894
30
0
10
-98.0935742978902
20
-17.303268187178332
30
0
10
-97.947998540589879
20
-17.127219734316821
30
0
0
LINE
5
214
100
AcDbEntity
8
0
100
AcDbLine
10
-97.947998540589879
20
-17.127219734316824
30
0
11
-97.066477718386594
21
-17.127219734316537
31
0
0
LINE
5
215
100
AcDbEntity
8
0
100
AcDbLine
10
-97.066477718386594
20
-17.127219734316537
30
0
11
-94.179726372438481
21
-22.127219734316501
31
0
0
LINE
5
216
100
AcDbEntity
8
0
100
AcDbLine
10
-94.179726372438481
20
-22.127219734316501
30
0
11
-97.066477718386594
21
-27.127219734316483
31
0
0
LINE
5
217
100
AcDbEntity
8
0
100
AcDbLine
10
-97.066477718386594
20
-27.127219734316483
30
0
11
-99.29984273004608
21
-27.127219734316498
31
0
0
CIRCLE
5
218
100
AcDbEntity
8
0
100
AcDbCircle
10
-94.000001400709152
20
-8.0000001192092896
30
0
40
1.9999999999999929
210
0
220
0
230
1
0
SPLINE
5
219
100
AcDbEntity
8
0
100
AcDbSpline
70
4
71
5
72
12
73
6
74
0
42
0.000000001
43
0.0000000001
44
0.0000000001
40
0.88607186257665926
40
0.88607186257665926
40
0.88607186257665926
40
0.88607186257665926
40
0.88607186257665926
40
0.88607186257665926
40
1
40
1
40
1
40
1
40
1
40
1
41
1
41
1
41
1
41
1
41
1
41
1
10
-97.107857820848906
20
2.8727802656831978
30
0
10
-97.161584315252369
20
3.1122411138310833
30
0
10
-97.203131793589549
20
3.3599087431093313
30
0
10
-97.232007429353544
20
3.6161247367858156
30
0
10
-97.247894709702209
20
3.8811074786728925
30
0
10
-97.250786788881783
20
4.1548616278535331
30
0
0
SPLINE
5
220
100
AcDbEntity
8
0
100
AcDbSpline
70
4
71
5
72
14
73
8
74
0
42
0.000000001
43
0.0000000001
44
0.0000000001
40
-0.89537870350125115
40
-0.89537870350125115
40
-0.89537870350125115
40
-0.89537870350125115
40
-0.89537870350125115
40
-0.89537870350125115
40
-0.80000000000000004
40
-0.60000000000000009
40
-0.47508295921177979
40
-0.47508295921177979
40
-0.47508295921177979
40
-0.47508295921177979
40
-0.47508295921177979
40
-0.47508295921177979
41
1
41
1
41
1
41
1
41
1
41
1
41
1
41
1
10
-97.250786788881783
20
4.1548616278535349
30
0
10
-97.255095198764906
20
4.5626807118554291
30
0
10
-97.296237966075665
20
5.8226846353950474
30
0
10
-97.474977662861704
20
7.6018458470494208
30
0
10
-97.811740227328585
20
9.357551207824379
30
0
10
-98.289058047199219
20
11.077887828563803
30
0
10
-98.740762566486893
20
12.377934195043562
30
0
10
-98.926722550750767
20
12.872780265683472
30
0
0
LINE
5
221
100
AcDbEntity
8
0
100
AcDbLine
10
-98.926722550750782
20
12.872780265683472
30
0
11
-97.066477718386594
21
12.872780265683463
31
0
0
LINE
5
222
100
AcDbEntity
8
0
100
AcDbLine
10
-97.066477718386594
20
12.872780265683463
30
0
11
-94.179726372438481
21
7.8727802656834989
31
0
0
LINE
5
223
100
AcDbEntity
8
0
100
AcDbLine
10
-94.179726372438481
20
7.8727802656834989
30
0
11
-97.066477718386594
21
2.8727802656835166
31
0
0
LINE
5
224
100
AcDbEntity
8
0
100
AcDbLine
10
-97.066477718386594
20
2.8727802656835166
30
0
11
-97.107857820848906
21
2.8727802656831978
31
0
0
SPLINE
5
225
100
AcDbEntity
8
0
100
AcDbSpline
70
4
71
5
72
13
73
7
74
0
42
0.000000001
43
0.0000000001
44
0.0000000001
40
0.0064477526213822774
40
0.0064477526213822774
40
0.0064477526213822774
40
0.0064477526213822774
40
0.0064477526213822774
40
0.0064477526213822774
40
0.20000000000000001
40
0.20440002626756043
40
0.20440002626756043
40
0.20440002626756043
40
0.20440002626756043
40
0.20440002626756043
40
0.20440002626756043
41
1
41
1
41
1
41
1
41
1
41
1
41
1
10
-109.66992578250239
20
26.076288864870044
30
0
10
-110.03961985824061
20
26.420291085199345
30
0
10
-110.39298225723388
20
26.782179407566986
30
0
10
-110.72109306844848
20
27.15430603865439
30
0
10
-111.02444483141713
20
27.535898238310459
30
0
10
-111.30290052321955
20
27.925995562414059
30
0
10
-111.30907765424462
20
27.934670725205571
30
0
0
SPLINE
5
226
100
AcDbEntity
8
0
100
AcDbSpline
70
4
71
5
72
15
73
9
74
0
42
0.000000001
43
0.0000000001
44
0.0000000001
40
-1
40
-1
40
-1
40
-1
40
-1
40
-1
40
-0.80000000000000004
40
-0.60000000000000009
40
-0.40000000000000002
40
-0.26101918787480849
40
-0.26101918787480849
40
-0.26101918787480849
40
-0.26101918787480849
40
-0.26101918787480849
40
-0.26101918787480849
41
1
41
1
41
1
41
1
41
1
41
1
41
1
41
1
41
1
10
-111.30907765424462
20
27.934670725205581
30
0
10
-111.58557644029503
20
28.322985619436363
30
0
10
-111.94674540387489
20
29.017708706091504
30
0
10
-111.91356552339766
20
29.814285988417456
30
0
10
-110.98488390748464
20
30.397756549666429
30
0
10
-109.47383805825916
20
30.620586606294967
30
0
10
-108.29734194892082
20
30.62743355103672
30
0
10
-107.5757794199524
20
30.572414994264573
30
0
10
-107.28584113415062
20
30.539915926006678
30
0
0
LINE
5
227
100
AcDbEntity
8
0
100
AcDbLine
10
-107.28584113415064
20
30.539915926006678
30
0
11
-107.18934531567186
21
30.372780265683499
31
0
0
LINE
5
228
100
AcDbEntity
8
0
100
AcDbLine
10
-107.18934531567186
20
30.372780265683499
30
0
11
-109.66992578250239
21
26.076288864870044
31
0
0
CIRCLE
5
229
100
AcDbEntity
8
0
100
AcDbCircle
10
-66.000000983476653
20
46.000000685453408
30
0
40
2.0000000000000018
210
0
220
0
230
1
0
SPLINE
5
230
100
AcDbEntity
8
0
100
AcDbSpline
70
4
71
5
72
13
73
7
74
0
42
0.000000001
43
0.0000000001
44
0.0000000001
40
0.72219930982623204
40
0.72219930982623204
40
0.72219930982623204
40
0.72219930982623204
40
0.72219930982623204
40
0.72219930982623204
40
0.80000000000000004
40
1
40
1
40
1
40
1
40
1
40
1
41
1
41
1
41
1
41
1
41
1
41
1
41
1
10
-90.44611106714197
20
41.405968860993212
30
0
10
-90.306106629265187
20
41.452084805073284
30
0
10
-89.799137380043675
20
41.583284463913657
30
0
10
-89.267224717358275
20
41.588305749680586
30
0
10
-88.710871192969577
20
41.444023338687394
30
0
10
-88.129353194575458
20
41.133149505280059
30
0
10
-87.697642825567897
20
40.8229120203478
30
0
0
LINE
5
231
100
AcDbEntity
8
0
100
AcDbLine
10
-87.697642825567897
20
40.822912020347786
30
0
11
-87.071262857490922
21
40.372780265683517
31
0
0
LINE
5
232
100
AcDbEntity
8
0
100
AcDbLine
10
-87.071262857490922
20
40.372780265683517
30
0
11
-89.849599353516226
21
40.372780265683517
31
0
0
LINE
5
233
100
AcDbEntity
8
0
100
AcDbLine
10
-89.849599353516226
20
40.372780265683517
30
0
11
-90.44611106714197
21
41.405968860993212
31
0
0
LINE
5
234
100
AcDbEntity
8
0
100
AcDbLine
10
8.9481854600857584
20
-50.616718719568809
30
0
11
1.5950547713119168
21
-50.616718719568809
31
0
0
SPLINE
5
235
100
AcDbEntity
8
0
100
AcDbSpline
70
4
71
5
72
12
73
6
74
0
42
0.000000001
43
0.0000000001
44
0.0000000001
40
-1
40
-1
40
-1
40
-1
40
-1
40
-1
40
-0.92558590774904104
40
-0.92558590774904104
40
-0.92558590774904104
40
-0.92558590774904104
40
-0.92558590774904104
40
-0.92558590774904104
41
1
41
1
41
1
41
1
41
1
41
1
10
1.5950547713119168
20
-50.616718719568809
30
0
10
1.2420712171574664
20
-50.616718719568809
30
0
10
0.89868792934392805
20
-50.632651080015599
30
0
10
0.56490122676344035
20
-50.664509720936252
30
0
10
0.24057956239520362
20
-50.712078690567886
30
0
10
-0.074506860451454826
20
-50.774981149048841
30
0
0
SPLINE
5
236
100
AcDbEntity
8
0
100
AcDbSpline
70
4
71
5
72
12
73
6
74
0
42
0.000000001
43
0.0000000001
44
0.0000000001
40
-1
40
-1
40
-1
40
-1
40
-1
40
-1
40
-0.87402326961124766
40
-0.87402326961124766
40
-0.87402326961124766
40
-0.87402326961124766
40
-0.87402326961124766
40
-0.87402326961124766
41
1
41
1
41
1
41
1
41
1
41
1
10
-0.074506860451414997
20
-50.774981149048841
30
0
10
-0.26644019182601625
20
-50.813297869581675
30
0
10
-0.45647551128453279
20
-50.840994980567743
30
0
10
-0.64461393455029792
20
-50.858078834909868
30
0
10
-0.83091325134452221
20
-50.864887841330564
30
0
10
-1.015461426282668
20
-50.861942388136413
30
0
0
LINE
5
237
100
AcDbEntity
8
0
100
AcDbLine
10
-1.015461426282668
20
-50.861942388136413
30
0
11
1.1407817032503598
21
-47.127219734316519
31
0
0
LINE
5
238
100
AcDbEntity
8
0
100
AcDbLine
10
1.1407817032503598
20
-47.127219734316519
30
0
11
6.9335222816134223
21
-47.12721973431654
31
0
0
LINE
5
239
100
AcDbEntity
8
0
100
AcDbLine
10
6.9335222816134223
20
-47.12721973431654
30
0
11
8.9481854600857584
21
-50.616718719568809
31
0
0
LINE
5
240
100
AcDbEntity
8
0
100
AcDbLine
10
-34.032262049863725
20
5.3727802656834882
30
0
11
-32.076096661619992
21
5.37278026568349
31
0
0
LINE
5
241
100
AcDbEntity
8
0
100
AcDbLine
10
-32.076096661619992
20
5.37278026568349
30
0
11
-29.189345315671854
21
0.37278026568349887
31
0
0
LINE
5
242
100
AcDbEntity
8
0
100
AcDbLine
10
-29.189345315671854
20
0.37278026568349887
30
0
11
-32.076096661619978
21
-4.62721973431651
31
0
0
LINE
5
243
100
AcDbEntity
8
0
100
AcDbLine
10
-32.076096661619978
20
-4.62721973431651
30
0
11
-37.849599353516219
21
-4.6272197343165189
31
0
0
LINE
5
244
100
AcDbEntity
8
0
100
AcDbLine
10
-37.849599353516219
20
-4.6272197343165189
30
0
11
-40.736350699464353
21
0.37278026568347666
31
0
0
LINE
5
245
100
AcDbEntity
8
0
100
AcDbLine
10
-40.736350699464353
20
0.37278026568347666
30
0
11
-39.022055290203504
21
3.3420270137053718
31
0
0
LINE
5
246
100
AcDbEntity
8
0
100
AcDbLine
10
-39.022055290203504
20
3.3420270137053718
30
0
11
-36.289758958309434
21
3.3537647015363792
31
0
0
SPLINE
5
247
100
AcDbEntity
8
0
100
AcDbSpline
70
4
71
5
72
14
73
8
74
0
42
0.000000001
43
0.0000000001
44
0.0000000001
40
-1
40
-1
40
-1
40
-1
40
-1
40
-1
40
-0.80000000000000004
40
-0.60000000000000009
40
-0.46421680676201948
40
-0.46421680676201948
40
-0.46421680676201948
40
-0.46421680676201948
40
-0.46421680676201948
40
-0.46421680676201948
41
1
41
1
41
1
41
1
41
1
41
1
41
1
41
1
10
-36.289758958309434
20
3.353764701536377
30
0
10
-36.146263519677383
20
3.3707868372122318
30
0
10
-35.846824759103363
20
3.4710749724780978
30
0
10
-35.412427146576384
20
3.7826835847194182
30
0
10
-34.942382330442769
20
4.2843639327125196
30
0
10
-34.458016408278539
20
4.8639080681145872
30
0
10
-34.154572406691713
20
5.227603320708468
30
0
10
-34.032262049862901
20
5.3727802656844714
30
0
0
CIRCLE
5
248
100
AcDbEntity
8
0
100
AcDbCircle
10
-9.0000001341104507
20
-53.000000789761543
30
0
40
1.9999999999999973
210
0
220
0
230
1
0
SPLINE
5
249
100
AcDbEntity
8
0
100
AcDbSpline
70
4
71
5
72
14
73
8
74
0
42
0.000000001
43
0.0000000001
44
0.0000000001
40
-0.73717510455071222
40
-0.73717510455071222
40
-0.73717510455071222
40
-0.73717510455071222
40
-0.73717510455071222
40
-0.73717510455071222
40
-0.60000000000000009
40
-0.40000000000000002
40
-0.22761357780722266
40
-0.22761357780722266
40
-0.22761357780722266
40
-0.22761357780722266
40
-0.22761357780722266
40
-0.22761357780722266
41
1
41
1
41
1
41
1
41
1
41
1
41
1
41
1
10
12.361970294043083
20
17.275128029457864
30
0
10
12.860501546564622
20
16.973332124253872
30
0
10
14.040597483955469
20
16.216044058839479
30
0
10
15.642103244054798
20
15.009407734056543
30
0
10
16.900711205035144
20
13.685593433739506
30
0
10
17.644281506624214
20
12.185776049102996
30
0
10
17.82670300426015
20
10.966356363182957
30
0
10
17.826059040489707
20
10.372780265685437
30
0
0
LINE
5
250
100
AcDbEntity
8
0
100
AcDbLine
10
17.826059040489707
20
10.372780265685437
30
0
11
14.150400646483776
21
10.372780265683513
31
0
0
LINE
5
251
100
AcDbEntity
8
0
100
AcDbLine
10
14.150400646483776
20
10.372780265683513
30
0
11
11.263649300535654
21
15.37278026568349
31
0
0
LINE
5
252
100
AcDbEntity
8
0
100
AcDbLine
10
11.263649300535654
20
15.37278026568349
30
0
11
12.361970294043083
21
17.275128029457864
31
0
0
ARC
5
253
100
AcDbEntity
8
0
100
AcDbCircle
10
22.000000327825546
20
2.0000000298023224
30
0
40
7.0000000000000018
210
0
220
0
230
1
100
AcDbArc
50
151.19528746878797
51
249.17473965724753
0
SPLINE
5
254
100
AcDbEntity
8
0
100
AcDbSpline
70
4
71
5
72
12
73
6
74
0
42
0.000000001
43
0.0000000001
44
0.0000000001
40
0
40
0
40
0
40
0
40
0
40
0
40
0.022978178918845592
40
0.022978178918845592
40
0.022978178918845592
40
0.022978178918845592
40
0.022978178918845592
40
0.022978178918845592
41
1
41
1
41
1
41
1
41
1
41
1
10
19.511366836217899
20
-4.5426831617062433
30
0
10
19.557257204668893
20
-4.5601384326595413
30
0
10
19.603360443250523
20
-4.5773194184638637
30
0
10
19.649676518913644
20
-4.5942261593148839
30
0
10
19.696204934209206
20
-4.610859234709503
30
0
10
19.742944750907611
20
-4.6272197343164665
30
0
0
LINE
5
255
100
AcDbEntity
8
0
100
AcDbLine
10
19.742944750907611
20
-4.6272197343164674
30
0
11
14.150400646483785
21
-4.6272197343165189
31
0
0
LINE
5
256
100
AcDbEntity
8
0
100
AcDbLine
10
14.150400646483785
20
-4.6272197343165189
30
0
11
11.263649300535645
21
0.37278026568347666
31
0
0
LINE
5
257
100
AcDbEntity
8
0
100
AcDbLine
10
11.263649300535645
20
0.37278026568347666
30
0
11
14.150400646483767
21
5.3727802656834811
31
0
0
LINE
5
258
100
AcDbEntity
8
0
100
AcDbLine
10
14.150400646483767
20
5.3727802656834811
30
0
11
15.866130955198718
21
5.3727802656834855
31
0
0
LWPOLYLINE
5
259
100
AcDbEntity
8
0
100
AcDbPolyline
90
7
70
1
43
0.0
10
-37.331928437374124
20
-64.627219734316526
10
-31.767797566033693
20
-64.093230036833532
10
-29.189345315671854
20
-59.627219734316498
10
-32.076096661619992
20
-54.627219734316512
10
-37.84959935351624
20
-54.627219734316519
10
-40.736350699464353
20
-59.627219734316519
10
-37.849599353516219
20
-64.627219734316526
0
SPLINE
5
260
100
AcDbEntity
8
0
100
AcDbSpline
70
4
71
5
72
13
73
7
74
0
42
0.000000001
43
0.0000000001
44
0.0000000001
40
-0.23523215968654443
40
-0.23523215968654443
40
-0.23523215968654443
40
-0.23523215968654443
40
-0.23523215968654443
40
-0.23523215968654443
40
-0.20000000000000001
40
0
40
0
40
0
40
0
40
0
40
0
41
1
41
1
41
1
41
1
41
1
41
1
41
1
10
-57.217105646793442
20
-63.139403653391838
30
0
10
-57.268569495649402
20
-63.112711932040071
30
0
10
-57.613866869407829
20
-62.939634342674715
30
0
10
-57.970898972464013
20
-62.802185959610753
30
0
10
-58.342467237681142
20
-62.709069104167483
30
0
10
-58.730502164371032
20
-62.666255363326457
30
0
10
-59.072334565485903
20
-62.666255363326457
30
0
0
LINE
5
261
100
AcDbEntity
8
0
100
AcDbLine
10
-59.072334565485903
20
-62.666255363326442
30
0
11
-64.981762660978603
21
-62.666255363326457
31
0
0
LINE
5
262
100
AcDbEntity
8
0
100
AcDbLine
10
-64.981762660978603
20
-62.666255363326457
30
0
11
-66.736350699464367
21
-59.627219734316519
31
0
0
LINE
5
263
100
AcDbEntity
8
0
100
AcDbLine
10
-66.736350699464367
20
-59.627219734316519
30
0
11
-63.84959935351624
21
-54.627219734316519
31
0
0
LINE
5
264
100
AcDbEntity
8
0
100
AcDbLine
10
-63.84959935351624
20
-54.627219734316519
30
0
11
-58.076096661619999
21
-54.627219734316512
31
0
0
LINE
5
265
100
AcDbEntity
8
0
100
AcDbLine
10
-58.076096661619999
20
-54.627219734316512
30
0
11
-55.189345315671858
21
-59.627219734316498
31
0
0
LINE
5
266
100
AcDbEntity
8
0
100
AcDbLine
10
-55.189345315671858
20
-59.627219734316498
30
0
11
-57.217105646793442
21
-63.139403653391838
31
0
0
SPLINE
5
267
100
AcDbEntity
8
0
100
AcDbSpline
70
4
71
5
72
12
73
6
74
0
42
0.000000001
43
0.0000000001
44
0.0000000001
40
-0.043952635083590166
40
-0.043952635083590166
40
-0.043952635083590166
40
-0.043952635083590166
40
-0.043952635083590166
40
-0.043952635083590166
40
0
40
0
40
0
40
0
40
0
40
0
41
1
41
1
41
1
41
1
41
1
41
1
10
-91.716631956552774
20
-12.861015062163563
30
0
10
-91.62940188346461
20
-12.810268768728005
30
0
10
-91.542474114975946
20
-12.759537934756406
30
0
10
-91.455856128164044
20
-12.708819144665846
30
0
10
-91.369551871930227
20
-12.658110638941789
30
0
10
-91.283561467430786
20
-12.607412382455296
30
0
0
ARC
5
268
100
AcDbEntity
8
0
100
AcDbCircle
10
-94.000001400709152
20
-8.0000001192092896
30
0
40
5.3485786592906237
210
-0
220
0
230
1
100
AcDbArc
50
300.52276780474665
51
342.28791302265586
0
LINE
5
269
100
AcDbEntity
8
0
100
AcDbLine
10
-88.904959693438315
20
-9.6272197343165296
30
0
11
-84.076096661619999
21
-9.6272197343165278
31
0
0
LINE
5
270
100
AcDbEntity
8
0
100
AcDbLine
10
-84.076096661619999
20
-9.6272197343165278
30
0
11
-81.189345315671886
21
-14.62721973431651
31
0
0
LINE
5
271
100
AcDbEntity
8
0
100
AcDbLine
10
-81.189345315671886
20
-14.62721973431651
30
0
11
-84.076096661619999
21
-19.627219734316487
31
0
0
LINE
5
272
100
AcDbEntity
8
0
100
AcDbLine
10
-84.076096661619999
20
-19.627219734316487
30
0
11
-89.849599353516226
21
-19.627219734316487
31
0
0
LINE
5
273
100
AcDbEntity
8
0
100
AcDbLine
10
-89.849599353516226
20
-19.627219734316487
30
0
11
-92.736350699464353
21
-14.62721973431651
31
0
0
LINE
5
274
100
AcDbEntity
8
0
100
AcDbLine
10
-92.736350699464353
20
-14.62721973431651
30
0
11
-91.716631956552774
21
-12.861015062163563
31
0
0
LINE
5
275
100
AcDbEntity
8
0
100
AcDbLine
10
-105.25064789284289
20
22.01485782884096
30
0
11
-105.74596964269774
21
22.872780265683499
31
0
0
LINE
5
276
100
AcDbEntity
8
0
100
AcDbLine
10
-105.74596964269774
20
22.872780265683499
30
0
11
-102.85921829674963
21
27.872780265683474
31
0
0
LINE
5
277
100
AcDbEntity
8
0
100
AcDbLine
10
-102.85921829674963
20
27.872780265683474
30
0
11
-97.066477718386579
21
27.872780265683453
31
0
0
LINE
5
278
100
AcDbEntity
8
0
100
AcDbLine
10
-97.066477718386579
20
27.872780265683453
30
0
11
-94.179726372438466
21
22.872780265683481
31
0
0
LINE
5
279
100
AcDbEntity
8
0
100
AcDbLine
10
-94.179726372438466
20
22.872780265683481
30
0
11
-97.066477718386579
21
17.872780265683502
31
0
0
LINE
5
280
100
AcDbEntity
8
0
100
AcDbLine
10
-97.066477718386579
20
17.872780265683502
30
0
11
-101.49529202359318
21
17.872780265683517
31
0
0
SPLINE
5
281
100
AcDbEntity
8
0
100
AcDbSpline
70
4
71
5
72
13
73
7
74
0
42
0.000000001
43
0.0000000001
44
0.0000000001
40
-0.20829282293389723
40
-0.20829282293389723
40
-0.20829282293389723
40
-0.20829282293389723
40
-0.20829282293389723
40
-0.20829282293389723
40
-0.20000000000000001
40
0
40
0
40
0
40
0
40
0
40
0
41
1
41
1
41
1
41
1
41
1
41
1
41
1
10
-101.49529202359307
20
17.872780265683367
30
0
10
-101.51509538326212
20
17.901723922073533
30
0
10
-102.01410312954438
20
18.627728756039438
30
0
10
-102.55344082495321
20
19.329013748609164
30
0
10
-103.13541977769289
20
20.002914577566578
30
0
10
-103.76241141707456
20
20.647249755816112
30
0
10
-104.40597412149819
20
21.238648746768177
30
0
0
LINE
5
282
100
AcDbEntity
8
0
100
AcDbLine
10
-104.4059741214982
20
21.238648746768177
30
0
11
-105.25064789284289
21
22.01485782884096
31
0
0
LINE
5
283
100
AcDbEntity
8
0
100
AcDbLine
10
-57.27461335270624
20
3.9845704532264401
30
0
11
-55.189345315671858
21
0.37278026568349887
31
0
0
LINE
5
284
100
AcDbEntity
8
0
100
AcDbLine
10
-55.189345315671858
20
0.37278026568349887
30
0
11
-58.076096661619978
21
-4.62721973431651
31
0
0
LINE
5
285
100
AcDbEntity
8
0
100
AcDbLine
10
-58.076096661619978
20
-4.62721973431651
30
0
11
-63.849599353516226
21
-4.6272197343165189
31
0
0
LINE
5
286
100
AcDbEntity
8
0
100
AcDbLine
10
-63.849599353516226
20
-4.6272197343165189
30
0
11
-66.736350699464367
21
0.37278026568347666
31
0
0
LINE
5
287
100
AcDbEntity
8
0
100
AcDbLine
10
-66.736350699464367
20
0.37278026568347666
30
0
11
-64.110509280323043
21
4.9208710162550284
31
0
0
SPLINE
5
288
100
AcDbEntity
8
0
100
AcDbSpline
70
4
71
5
72
13
73
7
74
0
42
0.000000001
43
0.0000000001
44
0.0000000001
40
0.33679595096584158
40
0.33679595096584158
40
0.33679595096584158
40
0.33679595096584158
40
0.33679595096584158
40
0.33679595096584158
40
0.40000000000000002
40
0.50562602873174234
40
0.50562602873174234
40
0.50562602873174234
40
0.50562602873174234
40
0.50562602873174234
40
0.50562602873174234
41
1
41
1
41
1
41
1
41
1
41
1
41
1
10
-64.110509280323043
20
4.920871016255024
30
0
10
-64.000023536872291
20
4.9608861535300495
30
0
10
-63.704292711453157
20
5.0653674504886892
30
0
10
-63.407165204651861
20
5.1628044628034377
30
0
10
-63.109226979699145
20
5.2514145415736309
30
0
10
-62.811090446204567
20
5.3290591223668038
30
0
10
-62.624638317112002
20
5.372780265684062
30
0
0
LINE
5
289
100
AcDbEntity
8
0
100
AcDbLine
10
-62.624638317112009
20
5.3727802656840629
30
0
11
-59.686730035444583
21
5.3727802656834882
31
0
0
SPLINE
5
290
100
AcDbEntity
8
0
100
AcDbSpline
70
4
71
5
72
12
73
6
74
0
42
0.000000001
43
0.0000000001
44
0.0000000001
40
0.84481928854592125
40
0.84481928854592125
40
0.84481928854592125
40
0.84481928854592125
40
0.84481928854592125
40
0.84481928854592125
40
1
40
1
40
1
40
1
40
1
40
1
41
1
41
1
41
1
41
1
41
1
41
1
10
-59.686730035442167
20
5.3727802656827208
30
0
10
-59.427145481287965
20
5.2897963760175006
30
0
10
-59.170502590425073
20
5.1837585397738373
30
0
10
-58.917103739576326
20
5.0530695971821773
30
0
10
-58.667149581713304
20
4.8965884735089151
30
0
10
-58.420642862830618
20
4.7142967590177047
30
0
0
SPLINE
5
291
100
AcDbEntity
8
0
100
AcDbSpline
70
4
71
5
72
12
73
6
74
0
42
0.000000001
43
0.0000000001
44
0.0000000001
40
0.85385462453760974
40
0.85385462453760974
40
0.85385462453760974
40
0.85385462453760974
40
0.85385462453760974
40
0.85385462453760974
40
0.89774422653344721
40
0.89774422653344721
40
0.89774422653344721
40
0.89774422653344721
40
0.89774422653344721
40
0.89774422653344721
41
1
41
1
41
1
41
1
41
1
41
1
10
-58.420642862830611
20
4.7142967590177003
30
0
10
-58.190819624690377
20
4.54434247825652
30
0
10
-57.961275913615431
20
4.3860972968057386
30
0
10
-57.732042889736235
20
4.2398736828544905
30
0
10
-57.503147758884445
20
4.1059516757293686
30
0
10
-57.27461335270624
20
3.9845704532264392
30
0
0
LWPOLYLINE
5
292
100
AcDbEntity
8
0
100
AcDbPolyline
90
7
70
1
43
0.0
10
-89.851313071074642
20
-4.6242514884351484
42
-0.00017881450857640843
10
-89.848899601198369
20
-4.6272197343165189
10
-84.076096661619971
20
-4.62721973431651
10
-81.189345315671858
20
0.37278026568349887
10
-84.076096661619999
20
5.37278026568349
10
-89.84959935351624
20
5.3727802656834811
10
-92.736350699464367
20
0.37278026568347666
0
LWPOLYLINE
5
293
100
AcDbEntity
8
0
100
AcDbPolyline
90
6
70
1
43
0.0
10
-89.849599353516226
20
25.372780265683481
10
-84.076096661619971
20
25.372780265683488
10
-81.189345315671858
20
30.372780265683499
10
-84.076096661619999
20
35.372780265683488
10
-89.84959935351624
20
35.372780265683481
10
-92.736350699464367
20
30.372780265683478
0
LWPOLYLINE
5
294
100
AcDbEntity
8
0
100
AcDbPolyline
90
6
70
1
43
0.0
10
1.1407817032503598
20
2.8727802656835211
10
6.9335222816134268
20
2.8727802656835166
10
9.8202736275615408
20
7.8727802656834989
10
6.9335222816134223
20
12.872780265683463
10
1.1407817032503598
20
12.872780265683478
10
-1.7459696426977533
20
7.8727802656834855
0
LWPOLYLINE
5
295
100
AcDbEntity
8
0
100
AcDbPolyline
90
6
70
1
43
0.0
10
-45.066477718386579
20
-2.1272197343165455
10
-50.859218296749646
20
-2.1272197343165278
10
-53.745969642697759
20
-7.1272197343165011
10
-50.859218296749646
20
-12.127219734316483
10
-45.066477718386579
20
-12.127219734316498
10
-42.179726372438466
20
-7.1272197343165189
0
LWPOLYLINE
5
296
100
AcDbEntity
8
0
100
AcDbPolyline
90
6
70
1
43
0.0
10
14.150400646483785
20
-34.627219734316519
10
19.923903338380029
20
-34.627219734316512
10
22.810654684328149
20
-29.627219734316501
10
19.923903338380011
20
-24.627219734316512
10
14.150400646483767
20
-24.627219734316519
10
11.263649300535645
20
-29.627219734316522
0
LWPOLYLINE
5
297
100
AcDbEntity
8
0
100
AcDbPolyline
90
6
70
1
43
0.0
10
6.9335222816134312
20
-32.127219734316547
10
1.1407817032503598
20
-32.127219734316526
10
-1.7459696426977489
20
-37.127219734316498
10
1.1407817032503642
20
-42.127219734316483
10
6.9335222816134312
20
-42.127219734316498
10
9.8202736275615443
20
-37.127219734316519
0
LWPOLYLINE
5
298
100
AcDbEntity
8
0
100
AcDbPolyline
90
6
70
1
43
0.0
10
-6.0760966616199941
20
-9.6272197343165278
10
-11.84959935351622
20
-9.6272197343165278
10
-14.736350699464351
20
-14.62721973431651
10
-11.849599353516229
20
-19.627219734316487
10
-6.0760966616200029
20
-19.627219734316487
10
-3.189345315671881
20
-14.62721973431651
0
LWPOLYLINE
5
299
100
AcDbEntity
8
0
100
AcDbPolyline
90
6
70
1
43
0.0
10
-24.859218296749646
20
-27.12721973431648
10
-19.066477718386579
20
-27.127219734316483
10
-16.179726372438466
20
-22.127219734316501
10
-19.066477718386583
20
-17.127219734316537
10
-24.859218296749646
20
-17.127219734316522
10
-27.745969642697759
20
-22.127219734316515
0
LWPOLYLINE
5
300
100
AcDbEntity
8
0
100
AcDbPolyline
90
6
70
1
43
0.0
10
-50.859218296749646
20
-42.127219734316483
10
-45.066477718386579
20
-42.127219734316498
10
-42.179726372438466
20
-37.127219734316519
10
-45.066477718386579
20
-32.127219734316547
10
-50.859218296749646
20
-32.127219734316526
10
-53.745969642697759
20
-37.127219734316498
0
LWPOLYLINE
5
301
100
AcDbEntity
8
0
100
AcDbPolyline
90
6
70
1
43
0.0
10
-37.849599353516219
20
-34.627219734316519
10
-32.076096661619978
20
-34.627219734316512
10
-29.189345315671854
20
-29.627219734316501
10
-32.076096661619992
20
-24.627219734316512
10
-37.84959935351624
20
-24.627219734316519
10
-40.736350699464353
20
-29.627219734316522
0
LWPOLYLINE
5
302
100
AcDbEntity
8
0
100
AcDbPolyline
90
6
70
1
43
0.0
10
-19.066477718386583
20
-47.12721973431654
10
-24.859218296749646
20
-47.127219734316519
10
-27.745969642697759
20
-52.127219734316519
10
-24.859218296749646
20
-57.127219734316483
10
-19.066477718386579
20
-57.127219734316483
10
-16.179726372438466
20
-52.127219734316498
0
LWPOLYLINE
5
303
100
AcDbEntity
8
0
100
AcDbPolyline
90
6
70
1
43
0.0
10
-32.076096661619999
20
-39.627219734316526
10
-37.849599353516226
20
-39.627219734316526
10
-40.736350699464353
20
-44.627219734316512
10
-37.849599353516233
20
-49.627219734316483
10
-32.076096661620007
20
-49.627219734316483
10
-29.189345315671886
20
-44.627219734316512
0
LWPOLYLINE
5
304
100
AcDbEntity
8
0
100
AcDbPolyline
90
6
70
1
43
0.0
10
-45.066477718386579
20
-47.12721973431654
10
-50.859218296749646
20
-47.127219734316519
10
-53.745969642697759
20
-52.127219734316519
10
-50.859218296749646
20
-57.127219734316483
10
-45.066477718386579
20
-57.127219734316483
10
-42.179726372438466
20
-52.127219734316498
0
LWPOLYLINE
5
305
100
AcDbEntity
8
0
100
AcDbPolyline
90
6
70
1
43
0.0
10
-71.066477718386579
20
-47.12721973431654
10
-76.859218296749646
20
-47.127219734316519
10
-79.745969642697759
20
-52.127219734316519
10
-76.859218296749646
20
-57.127219734316483
10
-71.066477718386579
20
-57.127219734316483
10
-68.179726372438466
20
-52.127219734316498
0
LWPOLYLINE
5
306
100
AcDbEntity
8
0
100
AcDbPolyline
90
6
70
1
43
0.0
10
-84.076096661619999
20
-39.627219734316526
10
-89.849599353516226
20
-39.627219734316526
10
-92.736350699464353
20
-44.627219734316512
10
-89.849599353516226
20
-49.627219734316483
10
-84.076096661619999
20
-49.627219734316483
10
-81.189345315671886
20
-44.627219734316512
0
LWPOLYLINE
5
307
100
AcDbEntity
8
0
100
AcDbPolyline
90
6
70
1
43
0.0
10
-45.066477718386579
20
-17.127219734316537
10
-50.859218296749646
20
-17.127219734316522
10
-53.745969642697759
20
-22.127219734316515
10
-50.859218296749646
20
-27.12721973431648
10
-45.066477718386579
20
-27.127219734316483
10
-42.179726372438466
20
-22.127219734316501
0
LWPOLYLINE
5
308
100
AcDbEntity
8
0
100
AcDbPolyline
90
6
70
1
43
0.0
10
-58.076096661619999
20
-9.6272197343165278
10
-63.849599353516226
20
-9.6272197343165278
10
-66.736350699464353
20
-14.62721973431651
10
-63.849599353516233
20
-19.627219734316487
10
-58.076096661620007
20
-19.627219734316487
10
-55.189345315671886
20
-14.62721973431651
0
LWPOLYLINE
5
309
100
AcDbEntity
8
0
100
AcDbPolyline
90
6
70
1
43
0.0
10
-76.859218296749646
20
-42.127219734316483
10
-71.066477718386579
20
-42.127219734316498
10
-68.179726372438466
20
-37.127219734316519
10
-71.066477718386579
20
-32.127219734316547
10
-76.859218296749646
20
-32.127219734316526
10
-79.745969642697759
20
-37.127219734316498
0
LWPOLYLINE
5
310
100
AcDbEntity
8
0
100
AcDbPolyline
90
6
70
1
43
0.0
10
-63.849599353516226
20
-34.627219734316519
10
-58.076096661619978
20
-34.627219734316512
10
-55.189345315671858
20
-29.627219734316501
10
-58.076096661619999
20
-24.627219734316512
10
-63.84959935351624
20
-24.627219734316519
10
-66.736350699464367
20
-29.627219734316522
0
LWPOLYLINE
5
311
100
AcDbEntity
8
0
100
AcDbPolyline
90
6
70
1
43
0.0
10
-63.849599353516233
20
-49.627219734316498
10
-58.076096661620007
20
-49.627219734316498
10
-55.189345315671872
20
-44.627219734316519
10
-58.076096661619999
20
-39.62721973431654
10
-63.849599353516226
20
-39.62721973431654
10
-66.736350699464339
20
-44.627219734316519
0
LWPOLYLINE
5
312
100
AcDbEntity
8
0
100
AcDbPolyline
90
6
70
1
43
0.0
10
-89.849599353516226
20
-34.627219734316519
10
-84.076096661619971
20
-34.627219734316512
10
-81.189345315671858
20
-29.627219734316501
10
-84.076096661619999
20
-24.627219734316512
10
-89.84959935351624
20
-24.627219734316519
10
-92.736350699464367
20
-29.627219734316522
0
LWPOLYLINE
5
313
100
AcDbEntity
8
0
100
AcDbPolyline
90
6
70
1
43
0.0
10
-71.066477718386579
20
-17.127219734316537
10
-76.859218296749646
20
-17.127219734316522
10
-79.745969642697759
20
-22.127219734316515
10
-76.859218296749646
20
-27.12721973431648
10
-71.066477718386579
20
-27.127219734316483
10
-68.179726372438466
20
-22.127219734316501
0
LWPOLYLINE
5
314
100
AcDbEntity
8
0
100
AcDbPolyline
90
6
70
1
43
0.0
10
-32.076096661619999
20
-9.6272197343165278
10
-37.849599353516226
20
-9.6272197343165278
10
-40.736350699464353
20
-14.62721973431651
10
-37.849599353516233
20
-19.627219734316487
10
-32.076096661620007
20
-19.627219734316487
10
-29.189345315671886
20
-14.62721973431651
0
LWPOLYLINE
5
315
100
AcDbEntity
8
0
100
AcDbPolyline
90
6
70
1
43
0.0
10
-19.066477718386572
20
-32.127219734316547
10
-24.859218296749642
20
-32.127219734316526
10
-27.745969642697752
20
-37.127219734316498
10
-24.859218296749638
20
-42.127219734316483
10
-19.066477718386572
20
-42.127219734316498
10
-16.179726372438459
20
-37.127219734316519
0
LWPOLYLINE
5
316
100
AcDbEntity
8
0
100
AcDbPolyline
90
6
70
1
43
0.0
10
-11.84959935351622
20
-34.627219734316519
10
-6.0760966616199763
20
-34.627219734316512
10
-3.1893453156718543
20
-29.627219734316501
10
-6.0760966616199941
20
-24.627219734316512
10
-11.849599353516238
20
-24.627219734316519
10
-14.73635069946436
20
-29.627219734316522
0
LWPOLYLINE
5
317
100
AcDbEntity
8
0
100
AcDbPolyline
90
6
70
1
43
0.0
10
1.1407817032503598
20
-27.12721973431648
10
6.9335222816134268
20
-27.127219734316483
10
9.8202736275615408
20
-22.127219734316501
10
6.9335222816134223
20
-17.127219734316537
10
1.1407817032503598
20
-17.127219734316522
10
-1.7459696426977533
20
-22.127219734316515
0
LWPOLYLINE
5
318
100
AcDbEntity
8
0
100
AcDbPolyline
90
6
70
1
43
0.0
10
19.923903338380011
20
-9.6272197343165278
10
14.150400646483785
20
-9.6272197343165278
10
11.263649300535654
20
-14.62721973431651
10
14.150400646483776
20
-19.627219734316487
10
19.923903338380001
20
-19.627219734316487
10
22.810654684328124
20
-14.62721973431651
0
LWPOLYLINE
5
319
100
AcDbEntity
8
0
100
AcDbPolyline
90
6
70
1
43
0.0
10
-84.076096661619999
20
20.372780265683474
10
-89.849599353516226
20
20.372780265683474
10
-92.736350699464353
20
15.37278026568349
10
-89.849599353516226
20
10.372780265683513
10
-84.076096661619999
20
10.372780265683513
10
-81.189345315671886
20
15.37278026568349
0
LWPOLYLINE
5
320
100
AcDbEntity
8
0
100
AcDbPolyline
90
6
70
1
43
0.0
10
-71.066477718386579
20
-2.1272197343165455
10
-76.859218296749646
20
-2.1272197343165278
10
-79.745969642697759
20
-7.1272197343165011
10
-76.859218296749646
20
-12.127219734316483
10
-71.066477718386579
20
-12.127219734316498
10
-68.179726372438466
20
-7.1272197343165189
0
LWPOLYLINE
5
321
100
AcDbEntity
8
0
100
AcDbPolyline
90
6
70
1
43
0.0
10
-19.066477718386572
20
-2.1272197343165455
10
-24.859218296749642
20
-2.1272197343165278
10
-27.745969642697752
20
-7.1272197343165011
10
-24.859218296749638
20
-12.127219734316483
10
-19.066477718386572
20
-12.127219734316498
10
-16.179726372438459
20
-7.1272197343165189
0
LWPOLYLINE
5
322
100
AcDbEntity
8
0
100
AcDbPolyline
90
6
70
1
43
0.0
10
-11.84959935351622
20
-4.6272197343165189
10
-6.0760966616199763
20
-4.62721973431651
10
-3.1893453156718543
20
0.37278026568349887
10
-6.0760966616199941
20
5.37278026568349
10
-11.849599353516238
20
5.3727802656834811
10
-14.73635069946436
20
0.37278026568347666
0
LWPOLYLINE
5
323
100
AcDbEntity
8
0
100
AcDbPolyline
90
6
70
1
43
0.0
10
6.9335222816134312
20
-2.1272197343165455
10
1.1407817032503598
20
-2.1272197343165278
10
-1.7459696426977489
20
-7.1272197343165011
10
1.1407817032503642
20
-12.127219734316483
10
6.9335222816134312
20
-12.127219734316498
10
9.8202736275615443
20
-7.1272197343165189
0
SPLINE
5
324
100
AcDbEntity
8
0
100
AcDbSpline
70
4
71
5
72
14
73
8
74
0
42
0.000000001
43
0.0000000001
44
0.0000000001
40
-0.50370921594216611
40
-0.50370921594216611
40
-0.50370921594216611
40
-0.50370921594216611
40
-0.50370921594216611
40
-0.50370921594216611
40
-0.40000000000000002
40
-0.20000000000000001
40
0
40
0
40
0
40
0
40
0
40
0
41
1
41
1
41
1
41
1
41
1
41
1
41
1
41
1
10
-81.806678639204307
20
-60.696472415881459
30
0
10
-81.910501919467691
20
-60.551407142238453
30
0
10
-82.201510196038726
20
-60.113843358290438
30
0
10
-82.621283630177643
20
-59.332198704067721
30
0
10
-82.936371186518656
20
-58.48431882924465
30
0
10
-83.133491384233125
20
-57.598905822388289
30
0
10
-83.207800338932742
20
-56.876387263165853
30
0
10
-83.224381845850587
20
-56.510276589307018
30
0
0
ARC
5
325
100
AcDbEntity
8
0
100
AcDbCircle
10
-90.217213420930236
20
-56.826988702382977
30
0
40
7.0000000000000178
210
0
220
-0
230
1
100
AcDbArc
50
2.593209175926154
51
6.4759352174232125
0
LINE
5
326
100
AcDbEntity
8
0
100
AcDbLine
10
-83.261878219536641
20
-56.037487444464503
30
0
11
-81.189345315671858
21
-59.627219734316498
31
0
0
LINE
5
327
100
AcDbEntity
8
0
100
AcDbLine
10
-81.189345315671858
20
-59.627219734316498
30
0
11
-81.806678639204307
21
-60.696472415881459
31
0
0
SPLINE
5
328
100
AcDbEntity
8
0
100
AcDbSpline
70
4
71
5
72
12
73
6
74
0
42
0.000000001
43
0.0000000001
44
0.0000000001
40
-0.18460138330035242
40
-0.18460138330035242
40
-0.18460138330035242
40
-0.18460138330035242
40
-0.18460138330035242
40
-0.18460138330035242
40
0
40
0
40
0
40
0
40
0
40
0
41
1
41
1
41
1
41
1
41
1
41
1
10
-5.733222777517879
20
-49.03334474646315
30
0
10
-5.9781505395657888
20
-48.905396050024976
30
0
10
-6.2231260914778233
20
-48.780599312484576
30
0
10
-6.4683287817307731
20
-48.660235484906138
30
0
10
-6.7138632675624788
20
-48.545104033289178
30
0
10
-6.959730251207259
20
-48.435211768906555
30
0
0
ARC
5
329
100
AcDbEntity
8
0
100
AcDbCircle
10
-9.0000001341104507
20
-53.000000789761543
30
0
40
5.0000000000000009
210
0
220
-0
230
1
100
AcDbArc
50
65.917352858295786
51
128.99144318480532
0
LINE
5
330
100
AcDbEntity
8
0
100
AcDbLine
10
-12.14602174151273
20
-49.113801097805663
30
0
11
-14.736350699464351
21
-44.627219734316512
31
0
0
LINE
5
331
100
AcDbEntity
8
0
100
AcDbLine
10
-14.736350699464351
20
-44.627219734316512
30
0
11
-11.84959935351622
21
-39.627219734316526
31
0
0
LINE
5
332
100
AcDbEntity
8
0
100
AcDbLine
10
-11.84959935351622
20
-39.627219734316526
30
0
11
-6.0760966616199941
21
-39.627219734316526
31
0
0
LINE
5
333
100
AcDbEntity
8
0
100
AcDbLine
10
-6.0760966616199941
20
-39.627219734316526
30
0
11
-3.189345315671881
21
-44.627219734316512
31
0
0
LINE
5
334
100
AcDbEntity
8
0
100
AcDbLine
10
-3.189345315671881
20
-44.627219734316512
30
0
11
-5.733222777517879
21
-49.03334474646315
31
0
0
ARC
5
335
100
AcDbEntity
8
0
100
AcDbCircle
10
22.000000327825539
20
-44.000000655651093
30
0
40
7.0000000000000027
210
0
220
0
230
1
100
AcDbArc
50
141.34107654708416
51
171.08447545714054
0
SPLINE
5
336
100
AcDbEntity
8
0
100
AcDbSpline
70
4
71
5
72
15
73
9
74
0
42
0.000000001
43
0.0000000001
44
0.0000000001
40
-1
40
-1
40
-1
40
-1
40
-1
40
-1
40
-0.80000000000000004
40
-0.60000000000000009
40
-0.40000000000000002
40
-0.34354856233829978
40
-0.34354856233829978
40
-0.34354856233829978
40
-0.34354856233829978
40
-0.34354856233829978
40
-0.34354856233829978
41
1
41
1
41
1
41
1
41
1
41
1
41
1
41
1
41
1
10
15.08457495750541
20
-42.915154146907696
30
0
10
15.028928834802782
20
-43.269874013355377
30
0
10
14.925211828434579
20
-44.005385268942888
30
0
10
14.792308300704198
20
-45.186758590029051
30
0
10
14.655331700397095
20
-46.562958452998082
30
0
10
14.414657051249247
20
-47.875485100058349
30
0
10
14.137645151403442
20
-48.682133979142051
30
0
10
13.936003243301517
20
-49.088016492804726
30
0
10
13.889266332221224
20
-49.174921834414093
30
0
0
LINE
5
337
100
AcDbEntity
8
0
100
AcDbLine
10
13.889266332221224
20
-49.174921834414093
30
0
11
11.263649300535654
21
-44.627219734316512
31
0
0
LINE
5
338
100
AcDbEntity
8
0
100
AcDbLine
10
11.263649300535654
20
-44.627219734316512
30
0
11
14.150400646483785
21
-39.627219734316526
31
0
0
LINE
5
339
100
AcDbEntity
8
0
100
AcDbLine
10
14.150400646483785
20
-39.627219734316526
30
0
11
16.533851133556094
21
-39.627219734316526
31
0
0
LWPOLYLINE
5
340
100
AcDbEntity
8
0
100
AcDbPolyline
90
6
70
1
43
0.0
10
-70.955221795947921
20
3.0654811759902101
42
-0.50069022221420523
10
-76.383348145377909
20
12.872780265683474
10
-76.859218296749646
20
12.872780265683478
10
-79.745969642697759
20
7.8727802656834855
10
-76.859218296749646
20
2.8727802656835211
10
-71.066477718386579
20
2.8727802656835166
0
SPLINE
5
341
100
AcDbEntity
8
0
100
AcDbSpline
70
4
71
5
72
12
73
6
74
0
42
0.000000001
43
0.0000000001
44
0.0000000001
40
0.23490666710727906
40
0.23490666710727906
40
0.23490666710727906
40
0.23490666710727906
40
0.23490666710727906
40
0.23490666710727906
40
0.3322463081145336
40
0.3322463081145336
40
0.3322463081145336
40
0.3322463081145336
40
0.3322463081145336
40
0.3322463081145336
41
1
41
1
41
1
41
1
41
1
41
1
10
-73.6989289130385
20
27.872780265681367
30
0
10
-73.308253581919857
20
27.213607814190723
30
0
10
-72.905140291406653
20
26.516920937525732
30
0
10
-72.490408033986469
20
25.786972889783492
30
0
10
-72.064936708274828
20
25.028487535981583
30
0
10
-71.629619137697901
20
24.246471281007413
30
0
0
SPLINE
5
342
100
AcDbEntity
8
0
100
AcDbSpline
70
4
71
5
72
14
73
8
74
0
42
0.000000001
43
0.0000000001
44
0.0000000001
40
-1
40
-1
40
-1
40
-1
40
-1
40
-1
40
-0.80000000000000004
40
-0.60000000000000009
40
-0.40758056168047568
40
-0.40758056168047568
40
-0.40758056168047568
40
-0.40758056168047568
40
-0.40758056168047568
40
-0.40758056168047568
41
1
41
1
41
1
41
1
41
1
41
1
41
1
41
1
10
-71.629619137697901
20
24.246471281007409
30
0
10
-71.370911411152207
20
23.781721725463349
30
0
10
-70.999065150526931
20
22.865787485911966
30
0
10
-70.879125018659991
20
21.549389911280468
30
0
10
-71.296393729325473
20
20.28503140454103
30
0
10
-72.019910156011221
20
19.058817769488236
30
0
10
-72.571160287247181
20
18.260823004239029
30
0
10
-72.852299199955738
20
17.872780265683513
30
0
0
LINE
5
343
100
AcDbEntity
8
0
100
AcDbLine
10
-72.852299199955752
20
17.872780265683513
30
0
11
-76.859218296749646
21
17.872780265683517
31
0
0
LINE
5
344
100
AcDbEntity
8
0
100
AcDbLine
10
-76.859218296749646
20
17.872780265683517
30
0
11
-79.745969642697759
21
22.872780265683499
31
0
0
LINE
5
345
100
AcDbEntity
8
0
100
AcDbLine
10
-79.745969642697759
20
22.872780265683499
30
0
11
-76.859218296749646
21
27.872780265683474
31
0
0
LINE
5
346
100
AcDbEntity
8
0
100
AcDbLine
10
-76.859218296749646
20
27.872780265683474
30
0
11
-73.6989289130385
21
27.872780265681367
31
0
0
ENDSEC
0
SECTION
2
OBJECTS
0
DICTIONARY
5
C
100
AcDbDictionary
3
ACAD_GROUP
350
D
3
ACAD_MLINESTYLE
350
17
0
DICTIONARY
5
D
100
AcDbDictionary
0
DICTIONARY
5
1A
330
C
100
AcDbDictionary
0
DICTIONARY
5
17
100
AcDbDictionary
0
ENDSEC
0
EOF
