0
SECTION
2
HEADER
9
$INSUNITS
70
4
9
$ACADVER
1
AC1014
9
$HANDSEED
5
FFFF
0
ENDSEC
0
SECTION
2
TABLES
0
TABLE
2
VPORT
5
8
100
AcDbSymbolTable
0
ENDTAB
0
TABLE
2
LTYPE
5
5
100
AcDbSymbolTable
0
LTYPE
5
14
100
AcDbSymbolTableRecord
100
AcDbLinetypeTableRecord
2
BYBLOCK
70
0
0
LTYPE
5
15
100
AcDbSymbolTableRecord
100
AcDbLinetypeTableRecord
2
BYLAYER
70
0
0
ENDTAB
0
TABLE
2
LAYER
5
2
100
AcDbSymbolTable
70
2
0
LAYER
5
50
100
AcDbSymbolTableRecord
100
AcDbLayerTableRecord
2
0
70
0
6
CONTINUOUS
0
ENDTAB
0
TABLE
2
STYLE
5
3
100
AcDbSymbolTable
70
1
0
STYLE
5
11
100
AcDbSymbolTableRecord
100
AcDbTextStyleTableRecord
2
STANDARD
70
0
0
ENDTAB
0
TABLE
2
VIEW
5
6
100
AcDbSymbolTable
70
0
0
ENDTAB
0
TABLE
2
UCS
5
7
100
AcDbSymbolTable
70
0
0
ENDTAB
0
TABLE
2
APPID
5
9
100
AcDbSymbolTable
70
2
0
APPID
5
12
100
AcDbSymbolTableRecord
100
AcDbRegAppTableRecord
2
ACAD
70
0
0
ENDTAB
0
TABLE
2
DIMSTYLE
5
A
100
AcDbSymbolTable
70
1
0
ENDTAB
0
TABLE
2
BLOCK_RECORD
5
1
100
AcDbSymbolTable
70
1
0
BLOCK_RECORD
5
1F
100
AcDbSymbolTableRecord
100
AcDbBlockTableRecord
2
*MODEL_SPACE
0
BLOCK_RECORD
5
1B
100
AcDbSymbolTableRecord
100
AcDbBlockTableRecord
2
*PAPER_SPACE
0
ENDTAB
0
ENDSEC
0
SECTION
2
BLOCKS
0
BLOCK
5
20
100
AcDbEntity
100
AcDbBlockBegin
2
*MODEL_SPACE
0
ENDBLK
5
21
100
AcDbEntity
100
AcDbBlockEnd
0
BLOCK
5
1C
100
AcDbEntity
100
AcDbBlockBegin
2
*PAPER_SPACE
0
ENDBLK
5
1D
100
AcDbEntity
100
AcDbBlockEnd
0
ENDSEC
0
SECTION
2
ENTITIES
0
ELLIPSE
5
100
100
AcDbEntity
8
0
100
AcDbEllipse
10
-4.0414516778508291
20
-38.831906284999917
30
0
11
30.314014746427269
21
0
31
0.0
40
0.86602540378443871
41
4.5886733322319717
42
4.8454021071884164
0
SPLINE
5
101
100
AcDbEntity
8
0
100
AcDbSpline
70
0
71
3
72
10
73
6
74
0
42
0.000000001
43
0.0000000001
44
0.0000000001
40
-0.015653810152421451
40
-0.015653810152421451
40
-0.015653810152421451
40
-0.015653810152421451
40
-0.0078230200811351975
40
-0.0078230200811351975
40
0
40
0
40
0
40
0
10
-7.9378100938676983
20
-64.866852239532037
30
0
10
-7.91186598862362
20
-64.869724676035304
30
0
10
-7.8859209199978171
20
-64.872587486752749
30
0
10
-7.8340542117556975
20
-64.878291077042419
30
0
10
-7.8081327754473122
20
-64.881131853551736
30
0
10
-7.7822101917525615
20
-64.883963052949767
30
0
0
ELLIPSE
5
102
100
AcDbEntity
8
0
100
AcDbEllipse
10
-4.0414516778508291
20
-38.831906284999917
30
0
11
30.314014746427269
21
0
31
0.0
40
0.86602540378443871
41
3.3368954937546342
42
4.5834991751340075
0
ELLIPSE
5
103
100
AcDbEntity
8
0
100
AcDbEllipse
10
-54.168637318410276
20
-47.419747070220708
30
0
11
20.784609690826528
21
2.2204460492503131e-15
31
0.0
40
0.8660254037844386
41
0.19530284016484079
42
1.5707963267948961
0
LINE
5
104
100
AcDbEntity
8
0
100
AcDbLine
10
-54.168637318410276
20
-29.419747070220712
30
0
11
-55.88803541370649
21
-29.419747070220723
31
0
0
SPLINE
5
105
100
AcDbEntity
8
0
100
AcDbSpline
70
0
71
3
72
16
73
12
74
0
42
0.000000001
43
0.0000000001
44
0.0000000001
40
-1.774050937593399
40
-1.774050937593399
40
-1.774050937593399
40
-1.774050937593399
40
-1.5910978049689708
40
-1.5910978049689708
40
-1.3105444119610243
40
-1.3105444119610243
40
-0.96563727975775182
40
-0.96563727975775182
40
-0.5945513946073725
40
-0.5945513946073725
40
0
40
0
40
0
40
0
10
-67.940132623410776
20
-19.610779432570062
30
0
10
-67.940132623410776
20
-20.452471637923267
30
0
10
-67.84143760438026
20
-21.07653035282565
30
0
10
-67.643917827102783
20
-22.05565298788132
30
0
10
-67.462379206141819
20
-22.637098173487587
30
0
10
-66.929785007925318
20
-23.874335755638597
30
0
10
-66.378964315807494
20
-24.912673064991996
30
0
10
-64.133611414623218
20
-27.090591388242732
30
0
10
-62.785704484576598
20
-27.811490571297366
30
0
10
-59.818126654800672
20
-29.050810310935077
30
0
10
-57.869873395731062
20
-29.419747070220723
30
0
10
-55.88803541370649
20
-29.419747070220723
30
0
0
LINE
5
106
100
AcDbEntity
8
0
100
AcDbLine
10
-67.940132623410776
20
-19.610779432570062
30
0
11
-67.940132623410776
21
57.56035388902135
31
0
0
SPLINE
5
107
100
AcDbEntity
8
0
100
AcDbSpline
70
0
71
3
72
16
73
12
74
0
42
0.000000001
43
0.0000000001
44
0.0000000001
40
-1.1377586484708804
40
-1.1377586484708804
40
-1.1377586484708804
40
-1.1377586484708804
40
-0.9079422582829948
40
-0.9079422582829948
40
-0.68132175392355609
40
-0.68132175392355609
40
-0.51097039637053232
40
-0.51097039637053232
40
-0.33761534159994272
40
-0.33761534159994272
40
0
40
0
40
0
40
0
10
-56.622038778003358
20
67.112873127765596
30
0
10
-57.735757261983096
20
67.112873127765596
30
0
10
-58.845658741503051
20
66.97337863511396
30
0
10
-60.974149787215353
20
66.428334796142607
30
0
10
-61.986284119749797
20
66.02719089641694
30
0
10
-63.658743248462144
20
65.102882971617518
30
0
10
-64.702864047205708
20
64.448363803981266
30
0
10
-66.626638031189913
20
62.383148881892467
30
0
10
-67.089497962449229
20
61.398750335653453
30
0
10
-67.725606404216435
20
59.825008861701136
30
0
10
-67.940132623410776
20
58.685738361021158
30
0
10
-67.940132623410776
20
57.56035388902135
30
0
0
LINE
5
108
100
AcDbEntity
8
0
100
AcDbLine
10
-56.622038778003358
20
67.112873127765596
30
0
11
-36.735152570012943
21
67.112873127765596
31
0
0
SPLINE
5
109
100
AcDbEntity
8
0
100
AcDbSpline
70
0
71
3
72
20
73
16
74
0
42
0.000000001
43
0.0000000001
44
0.0000000001
40
-1.9661517232769712
40
-1.9661517232769712
40
-1.9661517232769712
40
-1.9661517232769712
40
-1.8166034713929737
40
-1.8166034713929737
40
-1.5745300370092767
40
-1.5745300370092767
40
-1.1594743329215835
40
-1.1594743329215835
40
-0.59702861213186442
40
-0.59702861213186442
40
-0.38089394146841704
40
-0.38089394146841704
40
-0.22155891229341393
40
-0.22155891229341393
40
0
40
0
40
0
40
0
10
-20.797594642186748
20
81.000001162290573
30
0
10
-22.502540447363849
20
81.000001162290573
30
0
10
-23.688064138590526
20
80.657681009456766
30
0
10
-25.414494965035864
20
80.034040594501704
30
0
10
-26.41547427993077
20
79.446023909912483
30
0
10
-28.748198591836783
20
77.45334300516032
30
0
10
-29.719809846406964
20
75.838727986536071
30
0
10
-31.264822677723156
20
72.903485698392927
30
0
10
-32.096708426485861
20
70.894735931313036
30
0
10
-33.209653143288534
20
69.034322706560701
30
0
10
-33.608349580064171
20
68.458904165103135
30
0
10
-34.443768562871959
20
67.696247519245347
30
0
10
-34.770110583370382
20
67.511688081398589
30
0
10
-35.487237054407501
20
67.214766995344235
30
0
10
-35.996622862368227
20
67.112873127765596
30
0
10
-36.735152570012943
20
67.112873127765596
30
0
0
LINE
5
110
100
AcDbEntity
8
0
100
AcDbLine
10
-20.797594642186748
20
81.000001162290573
30
0
11
48.000000715255737
21
81.000001162290573
31
0
0
SPLINE
5
111
100
AcDbEntity
8
0
100
AcDbSpline
70
0
71
3
72
14
73
10
74
0
42
0.000000001
43
0.0000000001
44
0.0000000001
40
-0.90340431358438
40
-0.90340431358438
40
-0.90340431358438
40
-0.90340431358438
40
-0.65361489224300584
40
-0.65361489224300584
40
-0.49304217842507558
40
-0.49304217842507558
40
-0.3282887437917314
40
-0.3282887437917314
40
0
40
0
40
0
40
0
10
57.94602016050581
20
71.566543238932809
30
0
10
57.66084204350021
20
73.049469447361929
30
0
10
57.121452466058429
20
74.467291650989011
30
0
10
55.860586537645887
20
76.601127579026908
30
0
10
55.07846822743501
20
77.731593651840527
30
0
10
52.794340263928191
20
79.734002389823431
30
0
10
51.729721653788829
20
80.200595411894753
30
0
10
50.202022068089171
20
80.791052904144962
30
0
10
49.094296527894841
20
81.000001162290573
30
0
10
48.000000715255737
20
81.000001162290573
30
0
0
LINE
5
112
100
AcDbEntity
8
0
100
AcDbLine
10
57.94602016050581
20
71.566543238932809
30
0
11
62.946020235011616
21
45.566542851502625
31
0
0
SPLINE
5
113
100
AcDbEntity
8
0
100
AcDbSpline
70
0
71
3
72
10
73
6
74
0
42
0.000000001
43
0.0000000001
44
0.0000000001
40
-2.2312892333643806
40
-2.2312892333643806
40
-2.2312892333643806
40
-2.2312892333643806
40
-1.1028719037654282
40
-1.1028719037654282
40
0
40
0
40
0
40
0
10
64.000000908970833
20
25.00000037252903
30
0
10
64.000000908970833
20
28.312311313240439
30
0
10
64.0422513884008
20
31.70609512677505
30
0
10
63.860397299249243
20
38.434558430349078
30
0
10
63.640268516865113
20
41.956451785864388
30
0
10
62.946020235011616
20
45.566542851502625
30
0
0
LINE
5
114
100
AcDbEntity
8
0
100
AcDbLine
10
64.000000908970833
20
25.00000037252903
30
0
11
64.000000908970833
21
1.7991441397369545
31
0
0
SPLINE
5
115
100
AcDbEntity
8
0
100
AcDbSpline
70
0
71
3
72
11
73
7
74
0
42
0.000000001
43
0.0000000001
44
0.0000000001
40
0.76089125636519794
40
0.76089125636519794
40
0.76089125636519794
40
0.76089125636519794
40
0.82652397584203174
40
0.82652397584203174
40
0.82652397584203174
40
1
40
1
40
1
40
1
10
63.061671874699016
20
-5.3961761224893401
30
0
10
63.228865594293225
20
-4.7565483329661333
30
0
10
63.374513247280746
20
-4.1102488811264095
30
0
10
63.499145334068395
20
-3.4590124387726373
30
0
10
63.828564548612199
20
-1.7377077342465936
30
0
10
64.000000908970833
20
0.023492274309122596
30
0
10
64.000000908970833
20
1.7991441397369545
30
0
0
SPLINE
5
116
100
AcDbEntity
8
0
100
AcDbSpline
70
0
71
3
72
14
73
10
74
0
42
0.000000001
43
0.0000000001
44
0.0000000001
40
0
40
0
40
0
40
0
40
0.78128894677385352
40
0.78128894677385352
40
1.5625778935477075
40
1.5625778935477075
40
2.1330780690659665
40
2.1330780690659665
40
2.7035782445842256
40
2.7035782445842256
40
2.7035782445842256
40
2.7035782445842256
10
73.209832616620346
20
-28.211573259752804
30
0
10
70.897544027927054
20
-27.01337390801757
30
0
10
68.841397155821895
20
-25.374988616129677
30
0
10
65.472855528639727
20
-21.402285742576108
30
0
10
64.192665867515601
20
-19.105949365671954
30
0
10
62.801494668351936
20
-14.820117832633438
30
0
10
62.475338594361524
20
-12.936825758618831
30
0
10
62.364684117546744
20
-9.1351012904422397
30
0
10
62.58074916264804
20
-7.2360271168164552
30
0
10
63.061671874699016
20
-5.3961761224893401
30
0
0
SPLINE
5
117
100
AcDbEntity
8
0
100
AcDbSpline
70
0
71
3
72
8
73
4
74
0
42
0.000000001
43
0.0000000001
44
0.0000000001
40
-2.8494959567137719
40
-2.8494959567137719
40
-2.8494959567137719
40
-2.8494959567137719
40
-2.7926163016748604
40
-2.7926163016748604
40
-2.7926163016748604
40
-2.7926163016748604
10
73.69357503463614
20
-28.465713540409816
30
0
10
73.534560184855735
20
-28.380983446373833
30
0
10
73.373263958224285
20
-28.296261359897692
30
0
10
73.209832616620304
20
-28.211573259752814
30
0
0
SPLINE
5
118
100
AcDbEntity
8
0
100
AcDbSpline
70
0
71
3
72
17
73
13
74
0
42
0.000000001
43
0.0000000001
44
0.0000000001
40
0
40
0
40
0
40
0
40
0.090925948236170409
40
0.090925948236170409
40
0.090925948236170409
40
0.16225453342741136
40
0.16225453342741136
40
0.16225453342741136
40
0.2465207069203183
40
0.2465207069203183
40
0.2465207069203183
40
0.29746731305650143
40
0.29746731305650143
40
0.29746731305650143
40
0.29746731305650143
10
78.66013657167683
20
-46.115325902502974
30
0
10
80.157743543229728
20
-43.886173083296775
30
0
10
81.173341361482855
20
-41.828627623247094
30
0
10
81.556954106929936
20
-39.758517181206813
30
0
10
81.857886403209079
20
-38.134579769668122
30
0
10
81.712216710627786
20
-36.477743524769643
30
0
10
81.058298461197538
20
-35.003690333085856
30
0
10
80.285772432412188
20
-33.262273176763905
30
0
10
78.895093186801319
20
-31.841664247436803
30
0
10
77.174511232791872
20
-30.596401871694464
30
0
10
76.134262132797772
20
-29.843526914123348
30
0
10
74.957976450002789
20
-29.139442132243765
30
0
10
73.693575034635217
20
-28.465713540409318
30
0
0
LINE
5
119
100
AcDbEntity
8
0
100
AcDbLine
10
78.66013657167683
20
-46.115325902502974
30
0
11
66.283812091653886
21
-64.537194343357427
31
0
0
SPLINE
5
120
100
AcDbEntity
8
0
100
AcDbSpline
70
0
71
3
72
23
73
19
74
0
42
0.000000001
43
0.0000000001
44
0.0000000001
40
-0.00120346036994258
40
-0.00120346036994258
40
-0.00120346036994258
40
-0.00120346036994258
40
0
40
0
40
0
40
0.37515300725217637
40
0.37515300725217637
40
0.37515300725217637
40
0.69641392948604397
40
0.69641392948604397
40
0.69641392948604397
40
0.9094634022701571
40
0.9094634022701571
40
0.9094634022701571
40
0.97653333938247799
40
0.97653333938247799
40
0.97653333938247799
40
1
40
1
40
1
40
1
10
66.283812091653886
20
-64.537194343357427
30
0
10
66.279801044109718
20
-64.542902866303848
30
0
10
66.275789996565848
20
-64.548611389249857
30
0
10
66.271778949021993
20
-64.554319912195837
30
0
10
64.904679310603584
20
-66.49997614539285
30
0
10
63.196174342432514
20
-68.31233209537362
30
0
10
61.289570025384641
20
-69.786429961919907
30
0
10
59.64716005725915
20
-71.056265033812039
30
0
10
57.884060118937448
20
-72.064887226108738
30
0
10
56.001814039807023
20
-72.483268985546175
30
0
10
54.800337081911401
20
-72.75033079491395
30
0
10
53.481940423950348
20
-72.771055598745178
30
0
10
52.173330703101691
20
-72.390522266122844
30
0
10
51.761368305190345
20
-72.270726866704123
30
0
10
51.351239232772286
20
-72.115409802677036
30
0
10
50.940819246309772
20
-71.92707427897308
30
0
10
50.794622060321402
20
-71.859986601726888
30
0
10
50.648047275408743
20
-71.78826055128286
30
0
10
50.50105046990052
20
-71.711859882444443
30
0
0
LINE
5
121
100
AcDbEntity
8
0
100
AcDbLine
10
50.50105046990052
20
-71.711859882444443
30
0
11
45.711699272670302
21
-69.222624599370036
31
0
0
SPLINE
5
122
100
AcDbEntity
8
0
100
AcDbSpline
70
4
71
5
72
16
73
10
74
0
42
0.000000001
43
0.0000000001
44
0.0000000001
40
0
40
0
40
0
40
0
40
0
40
0
40
0.20000000000000001
40
0.40000000000000002
40
0.60000000000000009
40
0.80000000000000004
40
0.9768788719285002
40
0.9768788719285002
40
0.9768788719285002
40
0.9768788719285002
40
0.9768788719285002
40
0.9768788719285002
41
1
41
1
41
1
41
1
41
1
41
1
41
1
41
1
41
1
41
1
10
45.711699272670302
20
-69.222624599370036
30
0
10
44.485880316184286
20
-68.58551287557097
30
0
10
41.99542754106627
20
-67.485532812073757
30
0
10
38.143416638792708
20
-66.357785372974163
30
0
10
32.81384021468245
20
-65.722243824461515
30
0
10
26.144560714135274
20
-65.664114321433644
30
0
10
20.833034195413759
20
-65.641538342246946
30
0
10
16.934576515243986
20
-65.410199078900163
30
0
10
14.414595806147092
20
-65.13348528765934
30
0
10
13.237999403558527
20
-64.975185764329026
30
0
0
SPLINE
5
123
100
AcDbEntity
8
0
100
AcDbSpline
70
0
71
3
72
10
73
6
74
0
42
0.000000001
43
0.0000000001
44
0.0000000001
40
0
40
0
40
0
40
0
40
0.68899911157938254
40
0.68899911157938254
40
1.3297272574959287
40
1.3297272574959287
40
1.3297272574959287
40
1.3297272574959287
10
-0.021169108769579781
20
-64.852717448057732
30
0
10
2.2602289740400416
20
-64.588356023427849
30
0
10
4.5569165012789972
20
-64.471829180912096
30
0
10
8.9889476168499254
20
-64.532890784410299
30
0
10
11.121294836498237
20
-64.690403894132089
30
0
10
13.237999403571441
20
-64.975185764330774
30
0
0
CIRCLE
5
124
100
AcDbEntity
8
0
100
AcDbCircle
10
29.591124118334204
20
55.200001162290576
30
0
40
2.5
210
0
220
-0
230
1
0
CIRCLE
5
125
100
AcDbEntity
8
0
100
AcDbCircle
10
-59.528499587654196
20
-21.768579562639836
30
0
40
2.0000000000000009
210
0
220
0
230
1
0
CIRCLE
5
126
100
AcDbEntity
8
0
100
AcDbCircle
10
-60
20
60
30
0
40
2.0000000000000009
210
0
220
0
230
1
0
CIRCLE
5
127
100
AcDbEntity
8
0
100
AcDbCircle
10
-2.720441528976373
20
74.580319332510342
30
0
40
2.0000000000000009
210
0
220
0
230
1
0
CIRCLE
5
128
100
AcDbEntity
8
0
100
AcDbCircle
10
55.582670992472586
20
32.346347408773887
30
0
40
2.0000000000000009
210
0
220
0
230
1
0
CIRCLE
5
129
100
AcDbEntity
8
0
100
AcDbCircle
10
54.000000804662704
20
-17.00000025331974
30
0
40
2.0000000000000009
210
0
220
0
230
1
0
CIRCLE
5
130
100
AcDbEntity
8
0
100
AcDbCircle
10
31.000000461935997
20
-60.000000894069672
30
0
40
2.0000000000000009
210
0
220
0
230
1
0
ENDSEC
0
SECTION
2
OBJECTS
0
DICTIONARY
5
C
100
AcDbDictionary
3
ACAD_GROUP
350
D
3
ACAD_MLINESTYLE
350
17
0
DICTIONARY
5
D
100
AcDbDictionary
0
DICTIONARY
5
1A
330
C
100
AcDbDictionary
0
DICTIONARY
5
17
100
AcDbDictionary
0
ENDSEC
0
EOF
