0
SECTION
2
HEADER
9
$INSUNITS
70
4
9
$ACADVER
1
AC1014
9
$HANDSEED
5
FFFF
0
ENDSEC
0
SECTION
2
TABLES
0
TABLE
2
VPORT
5
8
100
AcDbSymbolTable
0
ENDTAB
0
TABLE
2
LTYPE
5
5
100
AcDbSymbolTable
0
LTYPE
5
14
100
AcDbSymbolTableRecord
100
AcDbLinetypeTableRecord
2
BYBLOCK
70
0
0
LTYPE
5
15
100
AcDbSymbolTableRecord
100
AcDbLinetypeTableRecord
2
BYLAYER
70
0
0
ENDTAB
0
TABLE
2
LAYER
5
2
100
AcDbSymbolTable
70
2
0
LAYER
5
50
100
AcDbSymbolTableRecord
100
AcDbLayerTableRecord
2
0
70
0
6
CONTINUOUS
0
ENDTAB
0
TABLE
2
STYLE
5
3
100
AcDbSymbolTable
70
1
0
STYLE
5
11
100
AcDbSymbolTableRecord
100
AcDbTextStyleTableRecord
2
STANDARD
70
0
0
ENDTAB
0
TABLE
2
VIEW
5
6
100
AcDbSymbolTable
70
0
0
ENDTAB
0
TABLE
2
UCS
5
7
100
AcDbSymbolTable
70
0
0
ENDTAB
0
TABLE
2
APPID
5
9
100
AcDbSymbolTable
70
2
0
APPID
5
12
100
AcDbSymbolTableRecord
100
AcDbRegAppTableRecord
2
ACAD
70
0
0
ENDTAB
0
TABLE
2
DIMSTYLE
5
A
100
AcDbSymbolTable
70
1
0
ENDTAB
0
TABLE
2
BLOCK_RECORD
5
1
100
AcDbSymbolTable
70
1
0
BLOCK_RECORD
5
1F
100
AcDbSymbolTableRecord
100
AcDbBlockTableRecord
2
*MODEL_SPACE
0
BLOCK_RECORD
5
1B
100
AcDbSymbolTableRecord
100
AcDbBlockTableRecord
2
*PAPER_SPACE
0
ENDTAB
0
ENDSEC
0
SECTION
2
BLOCKS
0
BLOCK
5
20
100
AcDbEntity
100
AcDbBlockBegin
2
*MODEL_SPACE
0
ENDBLK
5
21
100
AcDbEntity
100
AcDbBlockEnd
0
BLOCK
5
1C
100
AcDbEntity
100
AcDbBlockBegin
2
*PAPER_SPACE
0
ENDBLK
5
1D
100
AcDbEntity
100
AcDbBlockEnd
0
ENDSEC
0
SECTION
2
ENTITIES
0
SPLINE
5
100
100
AcDbEntity
8
0
100
AcDbSpline
70
4
71
5
72
14
73
8
74
0
42
0.000000001
43
0.0000000001
44
0.0000000001
40
0.53793943271613431
40
0.53793943271613431
40
0.53793943271613431
40
0.53793943271613431
40
0.53793943271613431
40
0.53793943271613431
40
0.60000000000000009
40
0.80000000000000004
40
1
40
1
40
1
40
1
40
1
40
1
41
1
41
1
41
1
41
1
41
1
41
1
41
1
41
1
10
73.085320703368723
20
38.492119662090438
30
0
10
72.855579176035178
20
38.27922546186366
30
0
10
71.892360215163919
20
37.374202172226852
30
0
10
70.249275193468733
20
35.730532725293635
30
0
10
68.733210997317528
20
33.979592746534443
30
0
10
67.400760348605104
20
32.076992307669848
30
0
10
66.40937347132693
20
30.296671238132152
30
0
10
65.954242462533884
20
29.373164026080726
30
0
0
SPLINE
5
101
100
AcDbEntity
8
0
100
AcDbSpline
70
4
71
5
72
13
73
7
74
0
42
0.000000001
43
0.0000000001
44
0.0000000001
40
0.48943621050987385
40
0.48943621050987385
40
0.48943621050987385
40
0.48943621050987385
40
0.48943621050987385
40
0.48943621050987385
40
0.60000000000000009
40
0.71204107986479037
40
0.71204107986479037
40
0.71204107986479037
40
0.71204107986479037
40
0.71204107986479037
40
0.71204107986479037
41
1
41
1
41
1
41
1
41
1
41
1
41
1
10
61.411309296528636
20
19.912051534808832
30
0
10
61.890157397463277
20
20.893090178093576
30
0
10
62.847023239495989
20
22.881320420600293
30
0
10
63.782875962290639
20
24.861707606878163
30
0
10
64.684363749316674
20
26.765710940758439
30
0
10
65.538174674599617
20
28.528920071183958
30
0
10
65.954242462533898
20
29.37316402608073
30
0
0
SPLINE
5
102
100
AcDbEntity
8
0
100
AcDbSpline
70
4
71
5
72
14
73
8
74
0
42
0.000000001
43
0.0000000001
44
0.0000000001
40
0.080177493707861633
40
0.080177493707861633
40
0.080177493707861633
40
0.080177493707861633
40
0.080177493707861633
40
0.080177493707861633
40
0.20000000000000001
40
0.40000000000000002
40
0.48943621050972819
40
0.48943621050972819
40
0.48943621050972819
40
0.48943621050972819
40
0.48943621050972819
40
0.48943621050972819
41
1
41
1
41
1
41
1
41
1
41
1
41
1
41
1
10
52.791828519386321
20
6.7239277348956525
30
0
10
53.245793878453981
20
6.9924451429336587
30
0
10
54.488037627234732
20
7.9713304149908213
30
0
10
56.176149867795324
20
10.081818277971223
30
0
10
57.957288083341524
20
13.080775411901669
30
0
10
59.762822786070245
20
16.564015649190345
30
0
10
61.023964038599033
20
19.118479072935681
30
0
10
61.411309296525467
20
19.912051534802373
30
0
0
SPLINE
5
103
100
AcDbEntity
8
0
100
AcDbSpline
70
4
71
5
72
12
73
6
74
0
42
0.000000001
43
0.0000000001
44
0.0000000001
40
0
40
0
40
0
40
0
40
0
40
0
40
0.080177493707861633
40
0.080177493707861633
40
0.080177493707861633
40
0.080177493707861633
40
0.080177493707861633
40
0.080177493707861633
41
1
41
1
41
1
41
1
41
1
41
1
10
51.325735494976293
20
6.2749311797205776
30
0
10
51.608204314801533
20
6.2735299974298098
30
0
10
51.896101423830444
20
6.3180786037902656
30
0
10
52.189424320027683
20
6.4085581750907501
30
0
10
52.488064177890301
20
6.5442532024590783
30
0
10
52.791828519386321
20
6.7239277348956525
30
0
0
LINE
5
104
100
AcDbEntity
8
0
100
AcDbLine
10
51.325735494976293
20
6.2749311797205776
30
0
11
35.439014142951692
21
6.3537370197087517
31
0
0
SPLINE
5
105
100
AcDbEntity
8
0
100
AcDbSpline
70
4
71
5
72
13
73
7
74
0
42
0.000000001
43
0.0000000001
44
0.0000000001
40
0.7219945361529444
40
0.7219945361529444
40
0.7219945361529444
40
0.7219945361529444
40
0.7219945361529444
40
0.7219945361529444
40
0.80000000000000004
40
1
40
1
40
1
40
1
40
1
40
1
41
1
41
1
41
1
41
1
41
1
41
1
41
1
10
34.462896657093019
20
7.004005484714007
30
0
10
34.515387019083562
20
6.9371090712884325
30
0
10
34.703408052977885
20
6.7102251297362105
30
0
10
34.895035209213994
20
6.5287774516520081
30
0
10
35.091028563203785
20
6.4072708521728883
30
0
10
35.291934904725188
20
6.3552105087793631
30
0
10
35.439014142951692
20
6.3537370197087517
30
0
0
SPLINE
5
106
100
AcDbEntity
8
0
100
AcDbSpline
70
4
71
5
72
15
73
9
74
0
42
0.000000001
43
0.0000000001
44
0.0000000001
40
0
40
0
40
0
40
0
40
0
40
0
40
0.20000000000000001
40
0.40000000000000002
40
0.60000000000000009
40
0.7219945361529444
40
0.7219945361529444
40
0.7219945361529444
40
0.7219945361529444
40
0.7219945361529444
40
0.7219945361529444
41
1
41
1
41
1
41
1
41
1
41
1
41
1
41
1
41
1
10
32.12765879195441
20
9.9086611150131816
30
0
10
32.257845457287068
20
9.9080278023580135
30
0
10
32.517000492631865
20
9.8346100794951816
30
0
10
32.9020832367559
20
9.5082542646685102
30
0
10
33.361181106623569
20
8.8020120759487845
30
0
10
33.823990146824848
20
7.9617451424096259
30
0
10
34.165853425443039
20
7.4056491641207742
30
0
10
34.380805774637764
20
7.1086263218152377
30
0
10
34.462896657093019
20
7.004005484714007
30
0
0
LINE
5
107
100
AcDbEntity
8
0
100
AcDbLine
10
32.12765879195441
20
9.9086611150131816
30
0
11
16.215058840493764
21
9.9860703558146326
31
0
0
SPLINE
5
108
100
AcDbEntity
8
0
100
AcDbSpline
70
4
71
5
72
15
73
9
74
0
42
0.000000001
43
0.0000000001
44
0.0000000001
40
0.35610797568063024
40
0.35610797568063024
40
0.35610797568063024
40
0.35610797568063024
40
0.35610797568063024
40
0.35610797568063024
40
0.40000000000000002
40
0.60000000000000009
40
0.80000000000000004
40
1
40
1
40
1
40
1
40
1
40
1
41
1
41
1
41
1
41
1
41
1
41
1
41
1
41
1
41
1
10
13.840017205929321
20
19.992721044200422
30
0
10
13.875666710341692
20
19.820632041897571
30
0
10
14.06753512997363
20
18.849365200081703
30
0
10
14.357867434572331
20
16.944518149041841
30
0
10
14.683772549861697
20
14.042108434147867
30
0
10
15.031967438274641
20
11.559372881206862
30
0
10
15.533270578989155
20
10.274556689833862
30
0
10
15.970590361904705
20
9.9872596095748705
30
0
10
16.215058840493764
20
9.9860703558146309
30
0
0
SPLINE
5
109
100
AcDbEntity
8
0
100
AcDbSpline
70
4
71
5
72
12
73
6
74
0
42
0.000000001
43
0.0000000001
44
0.0000000001
40
0.22737339763157502
40
0.22737339763157502
40
0.22737339763157502
40
0.22737339763157502
40
0.22737339763157502
40
0.22737339763157502
40
0.35610797568063024
40
0.35610797568063024
40
0.35610797568063024
40
0.35610797568063024
40
0.35610797568063024
40
0.35610797568063024
41
1
41
1
41
1
41
1
41
1
41
1
10
13.203090619470558
20
22.219042746897255
30
0
10
13.356744596972071
20
21.84563653316339
30
0
10
13.495614891117009
20
21.430423429050123
30
0
10
13.621264516692506
20
20.978919775348395
30
0
10
13.735457801815453
20
20.497455228642302
30
0
10
13.840017205929321
20
19.992721044200422
30
0
0
SPLINE
5
110
100
AcDbEntity
8
0
100
AcDbSpline
70
4
71
5
72
13
73
7
74
0
42
0.000000001
43
0.0000000001
44
0.0000000001
40
0
40
0
40
0
40
0
40
0
40
0
40
0.20000000000000001
40
0.22737339763155434
40
0.22737339763155434
40
0.22737339763155434
40
0.22737339763155434
40
0.22737339763155434
40
0.22737339763155434
41
1
41
1
41
1
41
1
41
1
41
1
41
1
10
11.312587351972452
20
23.960330579485767
30
0
10
11.748485942138501
20
23.960330579485767
30
0
10
12.189761898574202
20
23.798218369292758
30
0
10
12.569386320654235
20
23.451996952682286
30
0
10
12.893479855699981
20
22.942257776972248
30
0
10
13.170418500700476
20
22.298441746929498
30
0
10
13.203090619470434
20
22.219042746897554
30
0
0
LINE
5
111
100
AcDbEntity
8
0
100
AcDbLine
10
11.312587351972452
20
23.960330579485767
30
0
11
-3.9269528439208523
21
23.960330579485767
31
0
0
SPLINE
5
112
100
AcDbEntity
8
0
100
AcDbSpline
70
4
71
5
72
15
73
9
74
0
42
0.000000001
43
0.0000000001
44
0.0000000001
40
0.26608528691014477
40
0.26608528691014477
40
0.26608528691014477
40
0.26608528691014477
40
0.26608528691014477
40
0.26608528691014477
40
0.40000000000000002
40
0.60000000000000009
40
0.80000000000000004
40
1
40
1
40
1
40
1
40
1
40
1
41
1
41
1
41
1
41
1
41
1
41
1
41
1
41
1
41
1
10
-7.0268392919209122
20
19.960330579485763
30
0
10
-6.9906228196298015
20
20.184214096053022
30
0
10
-6.888376004039074
20
20.738951309297153
30
0
10
-6.6756086569189153
20
21.604593367163673
30
0
10
-6.2610908769792957
20
22.699011746265523
30
0
10
-5.6170059682586748
20
23.517740599803062
30
0
10
-4.8704781591635067
20
23.879818831329423
30
0
10
-4.260237184878223
20
23.960330579485767
30
0
10
-3.9269528439208528
20
23.960330579485767
30
0
0
SPLINE
5
113
100
AcDbEntity
8
0
100
AcDbSpline
70
4
71
5
72
13
73
7
74
0
42
0.000000001
43
0.0000000001
44
0.0000000001
40
0
40
0
40
0
40
0
40
0
40
0
40
0.20000000000000001
40
0.26608528691014466
40
0.26608528691014466
40
0.26608528691014466
40
0.26608528691014466
40
0.26608528691014466
40
0.26608528691014466
41
1
41
1
41
1
41
1
41
1
41
1
41
1
10
-7.2051044016256638
20
17.725711608306721
30
0
10
-7.2051044016256638
20
18.058465677057896
30
0
10
-7.1917567332650378
20
18.503991214746286
30
0
10
-7.1606618381774982
20
18.953258126748008
30
0
10
-7.1119770214316569
20
19.403613952745427
30
0
10
-7.0447116817950963
20
19.849846779121933
30
0
10
-7.0268392919209122
20
19.96033057948576
30
0
0
LINE
5
114
100
AcDbEntity
8
0
100
AcDbLine
10
-7.2051044016256638
20
17.725711608306721
30
0
11
-7.2051044016256638
21
-49.000000730156884
31
0
0
SPLINE
5
115
100
AcDbEntity
8
0
100
AcDbSpline
70
4
71
5
72
12
73
6
74
0
42
0.000000001
43
0.0000000001
44
0.0000000001
40
-0.18452299221544952
40
-0.18452299221544952
40
-0.18452299221544952
40
-0.18452299221544952
40
-0.18452299221544952
40
-0.18452299221544952
40
0
40
0
40
0
40
0
40
0
40
0
41
1
41
1
41
1
41
1
41
1
41
1
10
-7.0330819836193426
20
-50.616718719568809
30
0
10
-7.1007136065077612
20
-50.312719742234975
30
0
10
-7.1525014523487247
20
-49.998948753587094
30
0
10
-7.1875656140530868
20
-49.675605340779413
30
0
10
-7.2051044016256638
20
-49.342624497172665
30
0
10
-7.2051044016256638
20
-49.000000730156898
30
0
0
SPLINE
5
116
100
AcDbEntity
8
0
100
AcDbSpline
70
4
71
5
72
16
73
10
74
0
42
0.000000001
43
0.0000000001
44
0.0000000001
40
-0.87150007615642555
40
-0.87150007615642555
40
-0.87150007615642555
40
-0.87150007615642555
40
-0.87150007615642555
40
-0.87150007615642555
40
-0.80000000000000004
40
-0.60000000000000009
40
-0.40000000000000002
40
-0.20000000000000001
40
-0.1845229922154501
40
-0.1845229922154501
40
-0.1845229922154501
40
-0.1845229922154501
40
-0.1845229922154501
40
-0.1845229922154501
41
1
41
1
41
1
41
1
41
1
41
1
41
1
41
1
41
1
41
1
10
-3.888712997837565
20
-54.489399891684002
30
0
10
-3.9920519988364345
20
-54.461392139803152
30
0
10
-4.3762726548183748
20
-54.340906338997939
30
0
10
-4.9903718430110651
20
-54.040659171745496
30
0
10
-5.7416367974358886
20
-53.4122776080929
30
0
10
-6.3480368594368519
20
-52.550830377304962
30
0
10
-6.7501425020996813
20
-51.65316392730989
30
0
10
-6.9468805621899312
20
-50.996255010492995
30
0
10
-7.0274093292722686
20
-50.642216867426704
30
0
10
-7.0330819836193399
20
-50.616718719568816
30
0
0
LINE
5
117
100
AcDbEntity
8
0
100
AcDbLine
10
-3.888712997837565
20
-54.489399891684002
30
0
11
-3.889170330664566
21
-54.616718719568809
31
0
0
LINE
5
118
100
AcDbEntity
8
0
100
AcDbLine
10
-3.889170330664566
20
-54.616718719568809
30
0
11
2.6186420476163015
21
-54.616718719568809
31
0
0
SPLINE
5
119
100
AcDbEntity
8
0
100
AcDbSpline
70
0
71
3
72
11
73
7
74
0
42
0.000000001
43
0.0000000001
44
0.0000000001
40
0.74174549841211546
40
0.74174549841211546
40
0.74174549841211546
40
0.74174549841211546
40
0.82115989298640035
40
0.82115989298640035
40
0.82115989298640035
40
1
40
1
40
1
40
1
10
4.8095488230478569
20
-55.515363283691826
30
0
10
4.5930328206474726
20
-55.311217372073244
30
0
10
4.3883733308825477
20
-55.151851374820815
30
0
10
4.1934403931361466
20
-55.031325281366428
30
0
10
3.7544541409091439
20
-54.759902202882216
30
0
10
3.342068012367462
20
-54.616718719568809
30
0
10
2.6186420476163015
20
-54.616718719568809
30
0
0
SPLINE
5
120
100
AcDbEntity
8
0
100
AcDbSpline
70
0
71
3
72
17
73
13
74
0
42
0.000000001
43
0.0000000001
44
0.0000000001
40
0.13979111546090439
40
0.13979111546090439
40
0.13979111546090439
40
0.13979111546090439
40
0.17112855423075315
40
0.17112855423075315
40
0.17112855423075315
40
0.38593495030313996
40
0.38593495030313996
40
0.38593495030313996
40
0.63272958992324757
40
0.63272958992324757
40
0.63272958992324757
40
0.74174549841211546
40
0.74174549841211546
40
0.74174549841211546
40
0.74174549841211546
10
13.064982493884481
20
-65.269933415778524
30
0
10
12.811967977392918
20
-65.126957756380122
30
0
10
12.566483802030069
20
-64.97336055537771
30
0
10
12.329811108185904
20
-64.809923541858652
30
0
10
10.707508507555939
20
-63.689624077799067
30
0
10
9.5114293793639515
20
-62.198938244587758
30
0
10
8.5422749353017355
20
-60.801058242162149
30
0
10
7.4287972822528969
20
-59.19501066751485
30
0
10
6.5602501228957077
20
-57.675880427908353
30
0
10
5.7737526011682334
20
-56.624606163257496
30
0
10
5.4263352423984283
20
-56.160229711612146
30
0
10
5.1067706155275143
20
-55.795604065463067
30
0
10
4.8095488230478569
20
-55.515363283691826
30
0
0
SPLINE
5
121
100
AcDbEntity
8
0
100
AcDbSpline
70
0
71
3
72
8
73
4
74
0
42
0.000000001
43
0.0000000001
44
0.0000000001
40
0.060233997276812945
40
0.060233997276812945
40
0.060233997276812945
40
0.060233997276812945
40
0.13979111546090431
40
0.13979111546090431
40
0.13979111546090431
40
0.13979111546090431
10
15.116624189451414
20
-66.140698447842283
30
0
10
14.398184671979608
20
-65.927427862332536
30
0
10
13.707316602253831
20
-65.632909200613611
30
0
10
13.064982493884481
20
-65.269933415778524
30
0
0
SPLINE
5
122
100
AcDbEntity
8
0
100
AcDbSpline
70
0
71
3
72
8
73
4
74
0
42
0.000000001
43
0.0000000001
44
0.0000000001
40
0.03362386851367636
40
0.03362386851367636
40
0.03362386851367636
40
0.03362386851367636
40
0.060233997276812945
40
0.060233997276812945
40
0.060233997276812945
40
0.060233997276812945
10
15.846000760876219
20
-66.326953889447168
30
0
10
15.60031360619891
20
-66.274277521393486
30
0
10
15.356926609961581
20
-66.212032828364613
30
0
10
15.116624189451414
20
-66.140698447842283
30
0
0
SPLINE
5
123
100
AcDbEntity
8
0
100
AcDbSpline
70
0
71
3
72
8
73
4
74
0
42
0.000000001
43
0.0000000001
44
0.0000000001
40
0
40
0
40
0
40
0
40
0.033623868513582553
40
0.033623868513582553
40
0.033623868513582553
40
0.033623868513582553
10
16.786767422181686
20
-66.479838820749706
30
0
10
16.470561070935346
20
-66.444797900842516
30
0
10
16.156444677098825
20
-66.393514381844184
30
0
10
15.846000760878823
20
-66.326953889447722
30
0
0
LINE
5
124
100
AcDbEntity
8
0
100
AcDbLine
10
16.786767422181686
20
-66.479838820749706
30
0
11
48.404208329528721
21
-69.983576839097083
31
0
0
SPLINE
5
125
100
AcDbEntity
8
0
100
AcDbSpline
70
0
71
3
72
8
73
4
74
0
42
0.000000001
43
0.0000000001
44
0.0000000001
40
0.89341490714151628
40
0.89341490714151628
40
0.89341490714151628
40
0.89341490714151628
40
1
40
1
40
1
40
1
10
50.041163577008618
20
-69.929938205334636
30
0
10
49.505309525617562
20
-70.026205300233727
30
0
10
48.944112860610588
20
-70.043407235787726
30
0
10
48.404208329528721
20
-69.983576839097083
30
0
0
SPLINE
5
126
100
AcDbEntity
8
0
100
AcDbSpline
70
0
71
3
72
11
73
7
74
0
42
0.000000001
43
0.0000000001
44
0.0000000001
40
0.8171783485151245
40
0.8171783485151245
40
0.8171783485151245
40
0.8171783485151245
40
0.8876648911288797
40
0.8876648911288797
40
0.8876648911288797
40
0.89341490714151617
40
0.89341490714151617
40
0.89341490714151617
40
0.89341490714151617
10
51.130565463690665
20
-69.61799007777239
30
0
10
50.815260158169082
20
-69.741996165628535
30
0
10
50.480130608532498
20
-69.844358887545056
30
0
10
50.127659198870838
20
-69.913667411785823
30
0
10
50.098905962091209
20
-69.919321329674517
30
0
10
50.070071647483587
20
-69.924744821135079
30
0
10
50.041163577008618
20
-69.929938205334636
30
0
0
SPLINE
5
127
100
AcDbEntity
8
0
100
AcDbSpline
70
0
71
3
72
14
73
10
74
0
42
0.000000001
43
0.0000000001
44
0.0000000001
40
0.32944326358699616
40
0.32944326358699616
40
0.32944326358699616
40
0.32944326358699616
40
0.39398882867434026
40
0.39398882867434026
40
0.39398882867434026
40
0.67636728762579179
40
0.67636728762579179
40
0.67636728762579179
40
0.8171783485143963
40
0.8171783485143963
40
0.8171783485143963
40
0.8171783485143963
10
54.918378246777202
20
-66.853468403252947
30
0
10
54.849115767399461
20
-66.907620376322882
30
0
10
54.767638712685141
20
-66.974644995075025
30
0
10
54.673924522818893
20
-67.056534445450339
30
0
10
54.263937121197998
20
-67.414790148534991
30
0
10
53.669246061699674
20
-68.045879327448247
30
0
10
52.763087869457351
20
-68.706657226885255
30
0
10
52.311222323989242
20
-69.036161245630069
30
0
10
51.760451296199435
20
-69.370262949436921
30
0
10
51.130565463700428
20
-69.617990077768553
30
0
0
SPLINE
5
128
100
AcDbEntity
8
0
100
AcDbSpline
70
0
71
3
72
8
73
4
74
0
42
0.000000001
43
0.0000000001
44
0.0000000001
40
0.19862249706136467
40
0.19862249706136467
40
0.19862249706136467
40
0.19862249706136467
40
0.32944326358588583
40
0.32944326358588583
40
0.32944326358588583
40
0.32944326358588583
10
55.189180056918573
20
-66.666255363326457
30
0
10
55.148963901523658
20
-66.686837901892332
30
0
10
55.058759241683674
20
-66.743713339270471
30
0
10
54.918378246780783
20
-66.853468403250147
30
0
0
LINE
5
129
100
AcDbEntity
8
0
100
AcDbLine
10
55.189180056918573
20
-66.666255363326457
30
0
11
82.004930311930309
21
-66.666255363326457
31
0
0
SPLINE
5
130
100
AcDbEntity
8
0
100
AcDbSpline
70
0
71
3
72
8
73
4
74
0
42
0.000000001
43
0.0000000001
44
0.0000000001
40
-0.11856548987200365
40
-0.11856548987200365
40
-0.11856548987200365
40
-0.11856548987200365
40
0
40
0
40
0
40
0
10
82.902323373723291
20
-66.645672404905909
30
0
10
82.598774741183234
20
-66.660673433934704
30
0
10
82.301002342714298
20
-66.666255363326457
30
0
10
82.004930311930309
20
-66.666255363326457
30
0
0
SPLINE
5
131
100
AcDbEntity
8
0
100
AcDbSpline
70
0
71
3
72
14
73
10
74
0
42
0.000000001
43
0.0000000001
44
0.0000000001
40
-0.66462077402723096
40
-0.66462077402723096
40
-0.66462077402723096
40
-0.66462077402723096
40
-0.61976440982799463
40
-0.61976440982799463
40
-0.61976440982799463
40
-0.36291265934012851
40
-0.36291265934012851
40
-0.36291265934012851
40
-0.11856548987200374
40
-0.11856548987200374
40
-0.11856548987200374
40
-0.11856548987200374
10
87.879614667211982
20
-65.127029164818666
30
0
10
87.713862607325581
20
-65.252253579357458
30
0
10
87.548584065562608
20
-65.363843497979431
30
0
10
87.386946253437486
20
-65.462335562459728
30
0
10
86.461392973974981
20
-66.026310365646239
30
0
10
85.634975166348951
20
-66.247423004044975
30
0
10
84.88831225212175
20
-66.399328140391475
30
0
10
84.177999905440458
20
-66.543837920930002
30
0
10
83.527895361298732
20
-66.614757347023101
30
0
10
82.902323373723291
20
-66.645672404905895
30
0
0
SPLINE
5
132
100
AcDbEntity
8
0
100
AcDbSpline
70
0
71
3
72
14
73
10
74
0
42
0.000000001
43
0.0000000001
44
0.0000000001
40
-1
40
-1
40
-1
40
-1
40
-0.99032961220498306
40
-0.99032961220498306
40
-0.99032961220498306
40
-0.80778318786144321
40
-0.80778318786144321
40
-0.80778318786144321
40
-0.66462077402736208
40
-0.66462077402736208
40
-0.66462077402736208
40
-0.66462077402736208
10
90.419632981627146
20
-60.334656328270881
30
0
10
90.414061288833508
20
-60.388269967175191
30
0
10
90.407989851875072
20
-60.442044611941903
30
0
10
90.401396177187223
20
-60.495965774327487
30
0
10
90.2769283933645
20
-61.513827270534293
30
0
10
89.933698907382436
20
-62.607909761929065
30
0
10
89.378149086533639
20
-63.49394511380811
30
0
10
88.942457981414393
20
-64.18882018557953
30
0
10
88.408624662002865
20
-64.727366156538181
30
0
10
87.879614667213446
20
-65.127029164817571
30
0
0
LINE
5
133
100
AcDbEntity
8
0
100
AcDbLine
10
90.419632981627146
20
-60.334656328270881
30
0
11
93.017709231694823
21
-35.334655955741781
31
0
0
SPLINE
5
134
100
AcDbEntity
8
0
100
AcDbSpline
70
0
71
3
72
11
73
7
74
0
42
0.000000001
43
0.0000000001
44
0.0000000001
40
0.6731436781797433
40
0.6731436781797433
40
0.6731436781797433
40
0.6731436781797433
40
0.67801271907320482
40
0.67801271907320482
40
0.67801271907320482
40
1
40
1
40
1
40
1
10
93.437207069704129
20
-28.514274620017854
30
0
10
93.436418631036389
20
-28.54784562070483
30
0
10
93.435615782024371
20
-28.581421481347622
30
0
10
93.434798486291356
20
-28.615002245336456
30
0
10
93.380751121206146
20
-30.835681661426161
30
0
10
93.251596576161703
20
-33.084073934275075
30
0
10
93.017709231694823
20
-35.334655955741781
30
0
0
SPLINE
5
135
100
AcDbEntity
8
0
100
AcDbSpline
70
0
71
3
72
8
73
4
74
0
42
0.000000001
43
0.0000000001
44
0.0000000001
40
0.49855620948710244
40
0.49855620948710244
40
0.49855620948710244
40
0.49855620948710244
40
0.6731436781797433
40
0.6731436781797433
40
0.6731436781797433
40
0.6731436781797433
10
93.468114268061697
20
-24.919789295856067
30
0
10
93.475221235199172
20
-26.113036181453985
30
0
10
93.465477834775115
20
-27.310531180670424
30
0
10
93.437207069704129
20
-28.514274620017854
30
0
0
SPLINE
5
136
100
AcDbEntity
8
0
100
AcDbSpline
70
0
71
3
72
8
73
4
74
0
42
0.000000001
43
0.0000000001
44
0.0000000001
40
0.42603253534346747
40
0.42603253534346747
40
0.42603253534346747
40
0.42603253534346747
40
0.49855620948710139
40
0.49855620948710139
40
0.49855620948710139
40
0.49855620948710139
10
93.450654804279168
20
-23.434819959607395
30
0
10
93.459302141785372
20
-23.929172284552859
30
0
10
93.465162032298849
20
-24.424114268593016
30
0
10
93.468114268061697
20
-24.919789295856045
30
0
0
SPLINE
5
137
100
AcDbEntity
8
0
100
AcDbSpline
70
0
71
3
72
8
73
4
74
0
42
0.000000001
43
0.0000000001
44
0.0000000001
40
0.37712595709031221
40
0.37712595709031221
40
0.37712595709031221
40
0.37712595709031221
40
0.42603253534346397
40
0.42603253534346397
40
0.42603253534346397
40
0.42603253534346397
10
93.42939479186137
20
-22.435476085422245
30
0
10
93.437724485189904
20
-22.768351875095547
30
0
10
93.444823443783079
20
-23.101451842919101
30
0
10
93.450654804279125
20
-23.434819959607314
30
0
0
SPLINE
5
138
100
AcDbEntity
8
0
100
AcDbSpline
70
0
71
3
72
8
73
4
74
0
42
0.000000001
43
0.0000000001
44
0.0000000001
40
0.14534287605048807
40
0.14534287605048807
40
0.14534287605048807
40
0.14534287605048807
40
0.37712595709073271
40
0.37712595709073271
40
0.37712595709073271
40
0.37712595709073271
10
93.231957496297383
20
-17.713103776760892
30
0
10
93.322797393462224
20
-19.285313054784293
30
0
10
93.389917853323595
20
-20.857876938444676
30
0
10
93.429394791861583
20
-22.435476085430828
30
0
0
SPLINE
5
139
100
AcDbEntity
8
0
100
AcDbSpline
70
0
71
3
72
8
73
4
74
0
42
0.000000001
43
0.0000000001
44
0.0000000001
40
0.13169964681885096
40
0.13169964681885096
40
0.13169964681885096
40
0.13169964681885096
40
0.14534287605048793
40
0.14534287605048793
40
0.14534287605048793
40
0.14534287605048793
10
93.215670681425294
20
-17.435476085430818
30
0
10
93.221181267921196
20
-17.528018056978457
30
0
10
93.226610472973533
20
-17.620560302561167
30
0
10
93.231957496297397
20
-17.713103776760889
30
0
0
SPLINE
5
140
100
AcDbEntity
8
0
100
AcDbSpline
70
0
71
3
72
8
73
4
74
0
42
0.000000001
43
0.0000000001
44
0.0000000001
40
0
40
0
40
0
40
0
40
0.13169964681885271
40
0.13169964681885271
40
0.13169964681885271
40
0.13169964681885271
10
93.034057575149504
20
-14.754739444979778
30
0
10
93.101698707074618
20
-15.648865222294685
30
0
10
93.162476361887613
20
-16.542157886211367
30
0
10
93.21567068142528
20
-17.435476085430849
30
0
0
LINE
5
141
100
AcDbEntity
8
0
100
AcDbLine
10
93.034057575149504
20
-14.754739444979778
30
0
11
91.747250165465061
21
2.2551426000506791
31
0
0
SPLINE
5
142
100
AcDbEntity
8
0
100
AcDbSpline
70
4
71
5
72
12
73
6
74
0
42
0.000000001
43
0.0000000001
44
0.0000000001
40
0.86209622553236709
40
0.86209622553236709
40
0.86209622553236709
40
0.86209622553236709
40
0.86209622553236709
40
0.86209622553236709
40
1
40
1
40
1
40
1
40
1
40
1
41
1
41
1
41
1
41
1
41
1
41
1
10
91.596248920322211
20
4.9837327992994442
30
0
10
91.614351648064087
20
4.4480627542891531
30
0
10
91.638695934575878
20
3.9074640432685035
30
0
10
91.669010958501929
20
3.3618269174759541
30
0
10
91.705195146323106
20
2.8110540049914845
30
0
10
91.747250165465061
20
2.2551426000506791
30
0
0
SPLINE
5
143
100
AcDbEntity
8
0
100
AcDbSpline
70
4
71
5
72
13
73
7
74
0
42
0.000000001
43
0.0000000001
44
0.0000000001
40
0.74190200446288546
40
0.74190200446288546
40
0.74190200446288546
40
0.74190200446288546
40
0.74190200446288546
40
0.74190200446288546
40
0.80000000000000004
40
0.86209622553238696
40
0.86209622553238696
40
0.86209622553238696
40
0.86209622553238696
40
0.86209622553238696
40
0.86209622553238696
41
1
41
1
41
1
41
1
41
1
41
1
41
1
10
91.567087178018753
20
7.2814111213868529
30
0
10
91.564822057180976
20
7.062770565221868
30
0
10
91.562844188253763
20
6.608730157381741
30
0
10
91.566274728899401
20
6.1511216862068903
30
0
10
91.574769090449237
20
5.6898830376616063
30
0
10
91.588097504097817
20
5.2249378573499552
30
0
10
91.596248920322253
20
4.983732799299057
30
0
0
SPLINE
5
144
100
AcDbEntity
8
0
100
AcDbSpline
70
4
71
5
72
12
73
6
74
0
42
0.000000001
43
0.0000000001
44
0.0000000001
40
0.69832236112281809
40
0.69832236112281809
40
0.69832236112281809
40
0.69832236112281809
40
0.69832236112281809
40
0.69832236112281809
40
0.74190200446288546
40
0.74190200446288546
40
0.74190200446288546
40
0.74190200446288546
40
0.74190200446288546
40
0.74190200446288546
41
1
41
1
41
1
41
1
41
1
41
1
10
91.583150411971246
20
8.096793057926865
30
0
10
91.578381676912599
20
7.9346398024991398
30
0
10
91.574413297496477
20
7.7720267676707921
30
0
10
91.571221905534202
20
7.6089524061591973
30
0
10
91.568786258293713
20
7.4454146703777475
30
0
10
91.567087178018753
20
7.2814111213868529
30
0
0
SPLINE
5
145
100
AcDbEntity
8
0
100
AcDbSpline
70
4
71
5
72
15
73
9
74
0
42
0.000000001
43
0.0000000001
44
0.0000000001
40
0
40
0
40
0
40
0
40
0
40
0
40
0.20000000000000001
40
0.40000000000000002
40
0.60000000000000009
40
0.69832236112281365
40
0.69832236112281365
40
0.69832236112281365
40
0.69832236112281365
40
0.69832236112281365
40
0.69832236112281365
41
1
41
1
41
1
41
1
41
1
41
1
41
1
41
1
41
1
10
95.590193589848994
20
19.766013139087224
30
0
10
95.04744713911343
20
19.190101213690145
30
0
10
94.075642026417256
20
18.00710127126694
30
0
10
92.958690767895988
20
16.139152302537006
30
0
10
92.171428436643936
20
13.820748103272571
30
0
10
91.780867431551357
20
11.372150976667699
30
0
10
91.638914562078767
20
9.5655470096616888
30
0
10
91.593909409856479
20
8.4626356788266595
30
0
10
91.583150411971246
20
8.096793057926952
30
0
0
LINE
5
146
100
AcDbEntity
8
0
100
AcDbLine
10
95.590193589848994
20
19.766013139087224
30
0
11
100.09534924537583
21
24.546464239728571
31
0
0
SPLINE
5
147
100
AcDbEntity
8
0
100
AcDbSpline
70
4
71
5
72
14
73
8
74
0
42
0.000000001
43
0.0000000001
44
0.0000000001
40
0.44898385350180603
40
0.44898385350180603
40
0.44898385350180603
40
0.44898385350180603
40
0.44898385350180603
40
0.44898385350180603
40
0.60000000000000009
40
0.80000000000000004
40
1
40
1
40
1
40
1
40
1
40
1
41
1
41
1
41
1
41
1
41
1
41
1
41
1
41
1
10
103.52996880883943
20
31.53613686509533
30
0
10
103.47395652194486
20
31.120822136725653
30
0
10
103.29544872968896
20
30.159840939021258
30
0
10
102.85032680195997
20
28.672777420868009
30
0
10
102.17785707908635
20
27.241419416552702
30
0
10
101.28437084577173
20
25.902713919157478
30
0
10
100.51228395264333
20
24.988876474210965
30
0
10
100.09534924537581
20
24.546464239728571
30
0
0
SPLINE
5
148
100
AcDbEntity
8
0
100
AcDbSpline
70
4
71
5
72
13
73
7
74
0
42
0.000000001
43
0.0000000001
44
0.0000000001
40
0.23933434983781449
40
0.23933434983781449
40
0.23933434983781449
40
0.23933434983781449
40
0.23933434983781449
40
0.23933434983781449
40
0.40000000000000002
40
0.44898385350180597
40
0.44898385350180597
40
0.44898385350180597
40
0.44898385350180597
40
0.44898385350180597
40
0.44898385350180597
41
1
41
1
41
1
41
1
41
1
41
1
41
1
10
103.47692220360645
20
34.43884135212835
30
0
10
103.55971617597368
20
33.993174028214611
30
0
10
103.62676419852684
20
33.410994231779306
30
0
10
103.64403627695447
20
32.828873663094612
30
0
10
103.61653655450588
20
32.248258155840517
30
0
10
103.54813704925057
20
31.670849055038843
30
0
10
103.52996880883941
20
31.53613686509533
30
0
0
SPLINE
5
149
100
AcDbEntity
8
0
100
AcDbSpline
70
4
71
5
72
13
73
7
74
0
42
0.000000001
43
0.0000000001
44
0.0000000001
40
0
40
0
40
0
40
0
40
0
40
0
40
0.20000000000000001
40
0.23933434983781024
40
0.23933434983781024
40
0.23933434983781024
40
0.23933434983781024
40
0.23933434983781024
40
0.23933434983781024
41
1
41
1
41
1
41
1
41
1
41
1
41
1
10
102.09819054260457
20
37.73367771531251
30
0
10
102.46454164588516
20
37.188745997542235
30
0
10
102.83248576979695
20
36.533342248145871
30
0
10
103.11618792392267
20
35.87399621136467
30
0
10
103.32186344443812
20
35.211656976982376
30
0
10
103.45665248776945
20
34.547950140549645
30
0
10
103.47692220360643
20
34.438841352128421
30
0
0
LINE
5
150
100
AcDbEntity
8
0
100
AcDbLine
10
102.09819054260457
20
37.73367771531251
30
0
11
94.581235403468497
21
48.91482945660826
31
0
0
SPLINE
5
151
100
AcDbEntity
8
0
100
AcDbSpline
70
4
71
5
72
13
73
7
74
0
42
0.000000001
43
0.0000000001
44
0.0000000001
40
-0.23048492457131964
40
-0.23048492457131964
40
-0.23048492457131964
40
-0.23048492457131964
40
-0.23048492457131964
40
-0.23048492457131964
40
-0.20000000000000001
40
0
40
0
40
0
40
0
40
0
40
0
41
1
41
1
41
1
41
1
41
1
41
1
41
1
10
92.334592502302115
20
50.702366539387356
30
0
10
92.400277035087228
20
50.683537907497239
30
0
10
92.894239288327157
20
50.528477045968629
30
0
10
93.367572779100783
20
50.275595616961695
30
0
10
93.816131809838538
20
49.911835634862513
30
0
10
94.236963501311834
20
49.426919299773211
30
0
10
94.581235403468497
20
48.91482945660826
30
0
0
SPLINE
5
152
100
AcDbEntity
8
0
100
AcDbSpline
70
4
71
5
72
14
73
8
74
0
42
0.000000001
43
0.0000000001
44
0.0000000001
40
-0.75008033556923359
40
-0.75008033556923359
40
-0.75008033556923359
40
-0.75008033556923359
40
-0.75008033556923359
40
-0.75008033556923359
40
-0.60000000000000009
40
-0.40000000000000002
40
-0.23048492457144729
40
-0.23048492457144729
40
-0.23048492457144729
40
-0.23048492457144729
40
-0.23048492457144729
40
-0.23048492457144729
41
1
41
1
41
1
41
1
41
1
41
1
41
1
41
1
10
86.27730917024391
20
48.985940963308451
30
0
10
86.620539692075496
20
49.195576616004608
30
0
10
87.434016949136307
20
49.669537621544038
30
0
10
88.676789807378213
20
50.305337390622668
30
0
10
89.935573997502161
20
50.771996101611101
30
0
10
91.149512102413468
20
50.92203127430048
30
0
10
91.969345788190935
20
50.807065402840678
30
0
10
92.334592502300723
20
50.702366539387768
30
0
0
SPLINE
5
153
100
AcDbEntity
8
0
100
AcDbSpline
70
4
71
5
72
13
73
7
74
0
42
0.000000001
43
0.0000000001
44
0.0000000001
40
-1
40
-1
40
-1
40
-1
40
-1
40
-1
40
-0.80000000000000004
40
-0.75008033556923448
40
-0.75008033556923448
40
-0.75008033556923448
40
-0.75008033556923448
40
-0.75008033556923448
40
-0.75008033556923448
41
1
41
1
41
1
41
1
41
1
41
1
41
1
10
83.615444886771769
20
47.129834576059352
30
0
10
84.005034019469264
20
47.437201651852348
30
0
10
84.511489069988613
20
47.818032723117867
30
0
10
85.042441347170808
20
48.194785104758751
30
0
10
85.594634560186549
20
48.563547381592322
30
0
10
86.16314396394128
20
48.916212031829019
30
0
10
86.27730917024391
20
48.985940963308451
30
0
0
SPLINE
5
154
100
AcDbEntity
8
0
100
AcDbSpline
70
4
71
5
72
14
73
8
74
0
42
0.000000001
43
0.0000000001
44
0.0000000001
40
0
40
0
40
0
40
0
40
0
40
0
40
0.20000000000000001
40
0.40000000000000002
40
0.53793943271613431
40
0.53793943271613431
40
0.53793943271613431
40
0.53793943271613431
40
0.53793943271613431
40
0.53793943271613431
41
1
41
1
41
1
41
1
41
1
41
1
41
1
41
1
10
83.615444886771797
20
47.129834576059359
30
0
10
82.824905250947126
20
46.506136849997347
30
0
10
81.239580988552703
20
45.256714653626815
30
0
10
79.09617699628555
20
43.570964732622159
30
0
10
76.953871185726172
20
41.867338117497766
30
0
10
74.866752738555903
20
40.10726404492415
30
0
10
73.595957607584793
20
38.965310715493374
30
0
10
73.085320703368723
20
38.492119662090438
30
0
0
SPLINE
5
155
100
AcDbEntity
8
0
100
AcDbSpline
70
4
71
3
72
8
73
4
74
0
42
0.000000001
43
0.0000000001
44
0.0000000001
40
0.94943589710743947
40
0.94943589710743947
40
0.94943589710743947
40
0.94943589710743947
40
1
40
1
40
1
40
1
41
1
41
1
41
1
41
1
10
65.734594497026904
20
15.570257391025972
30
0
10
65.9407454517643
20
15.313555551630165
30
0
10
66.157334495835926
20
15.043133229097535
30
0
10
66.385458421560116
20
14.758309026266669
30
0
0
SPLINE
5
156
100
AcDbEntity
8
0
100
AcDbSpline
70
4
71
3
72
8
73
4
74
0
42
0.000000001
43
0.0000000001
44
0.0000000001
40
0
40
0
40
0
40
0
40
1
40
1
40
1
40
1
41
1
41
1
41
1
41
1
10
66.385458421560116
20
14.758309026266669
30
0
10
70.897037045013889
20
9.1253760454113753
30
0
10
70.897037045013889
20
9.1253760454113753
30
0
10
68.510683997325089
20
5.2187992530122784
30
0
0
SPLINE
5
157
100
AcDbEntity
8
0
100
AcDbSpline
70
4
71
3
72
8
73
4
74
0
42
0.000000001
43
0.0000000001
44
0.0000000001
40
0
40
0
40
0
40
0
40
1
40
1
40
1
40
1
41
1
41
1
41
1
41
1
10
68.510683997325089
20
5.2187992530122784
30
0
10
66.124330949636288
20
1.3122143861706448
30
0
10
66.124330949636288
20
1.3122143861706448
30
0
10
61.064957920563202
20
1.2380021847342881
30
0
0
SPLINE
5
158
100
AcDbEntity
8
0
100
AcDbSpline
70
4
71
3
72
8
73
4
74
0
42
0.000000001
43
0.0000000001
44
0.0000000001
40
0
40
0
40
0
40
0
40
0.46129847271578012
40
0.46129847271578012
40
0.46129847271578012
40
0.46129847271578012
41
1
41
1
41
1
41
1
10
61.064957920563202
20
1.2380021847342881
30
0
10
58.731076869352385
20
1.203768209554821
30
0
10
57.473811582565411
20
1.1853263148406332
30
0
10
56.477101305213878
20
1.7280211087224642
30
0
0
SPLINE
5
159
100
AcDbEntity
8
0
100
AcDbSpline
70
0
71
3
72
14
73
10
74
0
42
0.000000001
43
0.0000000001
44
0.0000000001
40
0.49892254052951623
40
0.49892254052951623
40
0.49892254052951623
40
0.49892254052951623
40
0.60891253885365515
40
0.60891253885365515
40
0.60891253885365515
40
0.80445626942682757
40
0.80445626942682757
40
0.80445626942682757
40
0.86631655352351378
40
0.86631655352351378
40
0.86631655352351378
40
0.86631655352351378
10
65.734594497026904
20
15.570257391025972
30
0
10
64.924432381336757
20
13.938024164394388
30
0
10
64.084933848113053
20
12.305698992005393
30
0
10
63.22449266642613
20
10.748905436652816
30
0
10
61.69477286308539
20
7.981188151588487
30
0
10
60.120257821575159
20
5.4575064799301494
30
0
10
58.307525377727472
20
3.4613742990789143
30
0
10
57.734067238011079
20
2.8298976291798068
30
0
10
57.133124563319946
20
2.2438824811002487
30
0
10
56.477101305213864
20
1.7280211087224651
30
0
0
SPLINE
5
160
100
AcDbEntity
8
0
100
AcDbSpline
70
4
71
3
72
8
73
4
74
0
42
0.000000001
43
0.0000000001
44
0.0000000001
40
0.42846741546310946
40
0.42846741546310946
40
0.42846741546310946
40
0.42846741546310946
40
1
40
1
40
1
40
1
41
1
41
1
41
1
41
1
10
51.868304064609376
20
-0.20370416249584952
30
0
10
52.110481795816426
20
-1.7812729995680732
30
0
10
51.257878367183409
20
-3.0101852186618245
30
0
10
49.267987425974994
20
-5.8783431572660483
30
0
0
SPLINE
5
161
100
AcDbEntity
8
0
100
AcDbSpline
70
4
71
3
72
8
73
4
74
0
42
0.000000001
43
0.0000000001
44
0.0000000001
40
0
40
0
40
0
40
0
40
1
40
1
40
1
40
1
41
1
41
1
41
1
41
1
10
49.267987425974994
20
-5.8783431572660483
30
0
10
45.78631202365159
20
-10.896706092650152
30
0
10
45.78631202365159
20
-10.896706092650152
30
0
10
42.946328719309946
20
-11.03308342724489
30
0
0
SPLINE
5
162
100
AcDbEntity
8
0
100
AcDbSpline
70
4
71
3
72
8
73
4
74
0
42
0.000000001
43
0.0000000001
44
0.0000000001
40
0
40
0
40
0
40
0
40
1
40
1
40
1
40
1
41
1
41
1
41
1
41
1
10
42.946328719309946
20
-11.03308342724489
30
0
10
40.106345414968331
20
-11.169460761839609
30
0
10
40.106345414968331
20
-11.169460761839609
30
0
10
35.802982441437251
20
-5.1734846952502522
30
0
0
SPLINE
5
163
100
AcDbEntity
8
0
100
AcDbSpline
70
4
71
3
72
8
73
4
74
0
42
0.000000001
43
0.0000000001
44
0.0000000001
40
0
40
0
40
0
40
0
40
0.61138335866041749
40
0.61138335866041749
40
0.61138335866041749
40
0.61138335866041749
41
1
41
1
41
1
41
1
10
35.802982441437251
20
-5.1734846952502522
30
0
10
33.171982869724737
20
-1.5076447092113721
30
0
10
32.149532652799941
20
-0.083038286148600371
30
0
10
32.17501582739628
20
1.374162009449194
30
0
0
SPLINE
5
164
100
AcDbEntity
8
0
100
AcDbSpline
70
0
71
3
72
17
73
13
74
0
42
0.000000001
43
0.0000000001
44
0.0000000001
40
-1.0733071338761437
40
-1.0733071338761437
40
-1.0733071338761437
40
-1.0733071338761437
40
-1.0437001943648592
40
-1.0437001943648592
40
-1.0437001943648592
40
-1
40
-1
40
-1
40
-0.88073818062426534
40
-0.88073818062426534
40
-0.88073818062426534
40
-0.77945284058493558
40
-0.77945284058493558
40
-0.77945284058493558
40
-0.77945284058493558
10
35.180619654084225
20
-0.14505196138842213
30
0
10
35.149959029456788
20
-0.14085218354419055
30
0
10
35.119298404829266
20
-0.13665240569994705
30
0
10
35.088637780201807
20
-0.13245262785571366
30
0
10
35.043382334090822
20
-0.12625370587623733
30
0
10
34.998126887979808
20
-0.12005478389675153
30
0
10
34.952871441868602
20
-0.11385586191723973
30
0
10
34.12414389520697
20
-0.00033985786760981282
30
0
10
33.504833219062455
20
0.32912743448938853
30
0
10
33.06352327603787
20
0.63075736502975766
30
0
10
32.688732518392612
20
0.88692224865081548
30
0
10
32.40751755344278
20
1.1352737212965733
30
0
10
32.17501582739628
20
1.3741620094492086
30
0
0
LINE
5
165
100
AcDbEntity
8
0
100
AcDbLine
10
35.180619654084225
20
-0.14505196138842213
30
0
11
51.297213023891075
21
-0.22499807802971006
31
0
0
SPLINE
5
166
100
AcDbEntity
8
0
100
AcDbSpline
70
0
71
3
72
8
73
4
74
0
42
0.000000001
43
0.0000000001
44
0.0000000001
40
0.98701668454346569
40
0.98701668454346569
40
0.98701668454346569
40
0.98701668454346569
40
1
40
1
40
1
40
1
10
51.868304064609362
20
-0.20370416249584899
30
0
10
51.679046688830766
20
-0.2186547404380435
30
0
10
51.488512387942123
20
-0.22594701561973868
30
0
10
51.297213023891075
20
-0.22499807802971006
30
0
0
SPLINE
5
167
100
AcDbEntity
8
0
100
AcDbSpline
70
4
71
3
72
8
73
4
74
0
42
0.000000001
43
0.0000000001
44
0.0000000001
40
0.44174982580430672
40
0.44174982580430672
40
0.44174982580430672
40
0.44174982580430672
40
1
40
1
40
1
40
1
41
1
41
1
41
1
41
1
10
27.431776812909334
20
3.4314369046472963
30
0
10
26.484640556738558
20
2.585910235521045
30
0
10
25.069252232534886
20
2.2290310342891488
30
0
10
21.865202696971089
20
1.4211547649955136
30
0
0
SPLINE
5
168
100
AcDbEntity
8
0
100
AcDbSpline
70
4
71
3
72
8
73
4
74
0
42
0.000000001
43
0.0000000001
44
0.0000000001
40
0
40
0
40
0
40
0
40
0.97479639089397874
40
0.97479639089397874
40
0.97479639089397874
40
0.97479639089397874
41
1
41
1
41
1
41
1
10
21.865202696971089
20
1.4211547649955136
30
0
10
16.270398679282692
20
0.010478129240342554
30
0
10
16.129389425796077
20
-0.02507601326222797
30
0
10
13.047073778561291
20
2.8534842724231115
30
0
0
SPLINE
5
169
100
AcDbEntity
8
0
100
AcDbSpline
70
4
71
5
72
13
73
7
74
0
42
0.000000001
43
0.0000000001
44
0.0000000001
40
-0.46307846031156497
40
-0.46307846031156497
40
-0.46307846031156497
40
-0.46307846031156497
40
-0.46307846031156497
40
-0.46307846031156497
40
-0.40000000000000002
40
-0.35741720667684307
40
-0.35741720667684307
40
-0.35741720667684307
40
-0.35741720667684307
40
-0.35741720667684307
40
-0.35741720667684307
41
1
41
1
41
1
41
1
41
1
41
1
41
1
10
14.675773354934488
20
3.7256511861352557
30
0
10
14.477980874107326
20
3.6281285207613578
30
0
10
14.148199365658098
20
3.4617204716186878
30
0
10
13.82111445174729
20
3.2899578333772976
30
0
10
13.496944265566086
20
3.1124074620880551
30
0
10
13.175922590133533
20
2.9286051381631051
30
0
10
13.047073778561293
20
2.8534842724231106
30
0
0
SPLINE
5
170
100
AcDbEntity
8
0
100
AcDbSpline
70
0
71
3
72
8
73
4
74
0
42
0.000000001
43
0.0000000001
44
0.0000000001
40
-1
40
-1
40
-1
40
-1
40
-0.95346866037023503
40
-0.95346866037023503
40
-0.95346866037023503
40
-0.95346866037023503
10
16.187087397447719
20
3.4861383911017665
30
0
10
15.693075597738309
20
3.4885415859586164
30
0
10
15.173517838923338
20
3.5721909744209066
30
0
10
14.675773354946431
20
3.7256511861411399
30
0
0
LINE
5
171
100
AcDbEntity
8
0
100
AcDbLine
10
16.187087397447719
20
3.4861383911017665
30
0
11
27.431776812909334
21
3.4314369046472963
31
0
0
SPLINE
5
172
100
AcDbEntity
8
0
100
AcDbSpline
70
0
71
3
72
8
73
4
74
0
42
0.000000001
43
0.0000000001
44
0.0000000001
40
0.038303244364169847
40
0.038303244364169847
40
0.038303244364169847
40
0.038303244364169847
40
0.19811435617616577
40
0.19811435617616577
40
0.19811435617616577
40
0.19811435617616577
10
79.240175927398994
20
35.682620007366204
30
0
10
78.526021813971269
20
35.077370574412008
30
0
10
77.818089767496517
20
34.44358726190076
30
0
10
77.101776502625881
20
33.790643498362989
30
0
0
SPLINE
5
173
100
AcDbEntity
8
0
100
AcDbSpline
70
0
71
3
72
8
73
4
74
0
42
0.000000001
43
0.0000000001
44
0.0000000001
40
0
40
0
40
0
40
0
40
0.038303244364169847
40
0.038303244364169847
40
0.038303244364169847
40
0.038303244364169847
10
79.754786898944246
20
36.114201624568885
30
0
10
79.582816332255334
20
35.971501194564283
30
0
10
79.411343121032417
20
35.827685119978604
30
0
10
79.24017592739915
20
35.682620007366332
30
0
0
LINE
5
174
100
AcDbEntity
8
0
100
AcDbLine
10
79.754786898944246
20
36.114201624568885
30
0
11
82.753748999990378
21
38.602727362586137
31
0
0
SPLINE
5
175
100
AcDbEntity
8
0
100
AcDbSpline
70
4
71
5
72
13
73
7
74
0
42
0.000000001
43
0.0000000001
44
0.0000000001
40
0
40
0
40
0
40
0
40
0
40
0
40
0.20000000000000001
40
0.33823313100122998
40
0.33823313100122998
40
0.33823313100122998
40
0.33823313100122998
40
0.33823313100122998
40
0.33823313100122998
41
1
41
1
41
1
41
1
41
1
41
1
41
1
10
85.695270380989911
20
35.32977365410111
30
0
10
85.449396138055135
20
36.031571416358958
30
0
10
84.97859253002062
20
37.048742496463461
30
0
10
84.414876170881413
20
37.779205958099965
30
0
10
83.769085028606838
20
38.256405305511009
30
0
10
83.055658019524316
20
38.524895750594524
30
0
10
82.753748999990393
20
38.602727362586137
30
0
0
ARC
5
176
100
AcDbEntity
8
0
100
AcDbCircle
10
92.537498265087635
20
37.726942313598194
30
0
40
7.2499999999999529
210
0
220
0
230
1
100
AcDbArc
50
199.30786546996626
51
242.63111537971551
0
SPLINE
5
177
100
AcDbEntity
8
0
100
AcDbSpline
70
4
71
3
72
8
73
4
74
0
42
0.000000001
43
0.0000000001
44
0.0000000001
40
0.36076446350770291
40
0.36076446350770291
40
0.36076446350770291
40
0.36076446350770291
40
1
40
1
40
1
40
1
41
1
41
1
41
1
41
1
10
89.20454584813092
20
31.288469809478762
30
0
10
88.448349369984371
20
30.241917962882479
30
0
10
88.059400969207331
20
30.125532678130217
30
0
10
86.981278149139882
20
29.802925280437407
30
0
0
SPLINE
5
178
100
AcDbEntity
8
0
100
AcDbSpline
70
4
71
3
72
8
73
4
74
0
42
0.000000001
43
0.0000000001
44
0.0000000001
40
0
40
0
40
0
40
0
40
1
40
1
40
1
40
1
41
1
41
1
41
1
41
1
10
86.981278149139882
20
29.802925280437407
30
0
10
85.294696664663149
20
29.298240323568912
30
0
10
85.294696664663149
20
29.298240323568912
30
0
10
79.436438290131093
20
32.506490877971601
30
0
0
SPLINE
5
179
100
AcDbEntity
8
0
100
AcDbSpline
70
4
71
3
72
8
73
4
74
0
42
0.000000001
43
0.0000000001
44
0.0000000001
40
0
40
0
40
0
40
0
40
0.15577038825466466
40
0.15577038825466466
40
0.15577038825466466
40
0.15577038825466466
41
1
41
1
41
1
41
1
10
79.436438290131093
20
32.506490877971601
30
0
10
78.523895108634093
20
33.006241312449148
30
0
10
77.753499132818021
20
33.428145427717688
30
0
10
77.10177650262591
20
33.790643498362989
30
0
0
SPLINE
5
180
100
AcDbEntity
8
0
100
AcDbSpline
70
4
71
3
72
8
73
4
74
0
42
0.000000001
43
0.0000000001
44
0.0000000001
40
0.32658688732068403
40
0.32658688732068403
40
0.32658688732068403
40
0.32658688732068403
40
1
40
1
40
1
40
1
41
1
41
1
41
1
41
1
10
-1.107028190272344
20
-23.171205004866401
30
0
10
0.62506515378914262
20
-24.77380294470376
30
0
10
0.43727481869053608
20
-26.196926050549507
30
0
10
-0.1377339841405778
20
-30.554489569161767
30
0
0
SPLINE
5
181
100
AcDbEntity
8
0
100
AcDbSpline
70
4
71
3
72
8
73
4
74
0
42
0.000000001
43
0.0000000001
44
0.0000000001
40
0
40
0
40
0
40
0
40
0.30617210188240784
40
0.30617210188240784
40
0.30617210188240784
40
0.30617210188240784
41
1
41
1
41
1
41
1
10
-0.1377339841405778
20
-30.554489569161767
30
0
10
-0.39917080506216884
20
-32.535688314560232
30
0
10
-0.5805629650127424
20
-33.910299275833268
30
0
10
-0.88783814412893181
20
-34.909641332780346
30
0
0
SPLINE
5
182
100
AcDbEntity
8
0
100
AcDbSpline
70
4
71
5
72
12
73
6
74
0
42
0.000000001
43
0.0000000001
44
0.0000000001
40
-0.34614167569538495
40
-0.34614167569538495
40
-0.34614167569538495
40
-0.34614167569538495
40
-0.34614167569538495
40
-0.34614167569538495
40
-0.31613789896011418
40
-0.31613789896011418
40
-0.31613789896011418
40
-0.31613789896011418
40
-0.31613789896011418
40
-0.31613789896011418
41
1
41
1
41
1
41
1
41
1
41
1
10
-1.1070281902723438
20
-34.753798994043258
30
0
10
-1.063970735299602
20
-34.786049497198022
30
0
10
-1.0205308334966383
20
-34.817769837319815
30
0
10
-0.97670067886382017
20
-34.84894919342095
30
0
10
-0.93247240710532164
20
-34.879576663701236
30
0
10
-0.8878381441289338
20
-34.909641332780346
30
0
0
LINE
5
183
100
AcDbEntity
8
0
100
AcDbLine
10
-1.1070281902723438
20
-34.753798994043258
30
0
11
-1.107028190272344
21
-23.171205004866401
31
0
0
SPLINE
5
184
100
AcDbEntity
8
0
100
AcDbSpline
70
4
71
3
72
8
73
4
74
0
42
0.000000001
43
0.0000000001
44
0.0000000001
40
0.84779265132197201
40
0.84779265132197201
40
0.84779265132197201
40
0.84779265132197201
40
1
40
1
40
1
40
1
41
1
41
1
41
1
41
1
10
8.4169656304747491
20
17.483215073768875
30
0
10
8.2052077644243973
20
16.664981945853569
30
0
10
7.9461739797562094
20
15.70970148206934
30
0
10
7.6406349021712927
20
14.582915985291738
30
0
0
SPLINE
5
185
100
AcDbEntity
8
0
100
AcDbSpline
70
4
71
3
72
8
73
4
74
0
42
0.000000001
43
0.0000000001
44
0.0000000001
40
0
40
0
40
0
40
0
40
0.14219938898040579
40
0.14219938898040579
40
0.14219938898040579
40
0.14219938898040579
41
1
41
1
41
1
41
1
10
7.6406349021712927
20
14.582915985291738
30
0
10
7.3551856743937361
20
13.530220200338924
30
0
10
7.1103271523910756
20
12.627217112788649
30
0
10
6.8829273296621825
20
11.850272997187929
30
0
0
SPLINE
5
186
100
AcDbEntity
8
0
100
AcDbSpline
70
4
71
5
72
13
73
7
74
0
42
0.000000001
43
0.0000000001
44
0.0000000001
40
0
40
0
40
0
40
0
40
0
40
0
40
0.20000000000000001
40
0.32897158158287071
40
0.32897158158287071
40
0.32897158158287071
40
0.32897158158287071
40
0.32897158158287071
40
0.32897158158287071
41
1
41
1
41
1
41
1
41
1
41
1
41
1
10
3.046594384152415
20
10.755305074372162
30
0
10
3.4072362359523152
20
10.733316954910933
30
0
10
4.0628844178626631
20
10.780796247558904
30
0
10
4.8211198573600971
20
10.965736896780555
30
0
10
5.6592131444836022
20
11.271944049302686
30
0
10
6.536008437986899
20
11.677390409297432
30
0
10
6.8829273296621842
20
11.850272997187929
30
0
0
ARC
5
187
100
AcDbEntity
8
0
100
AcDbCircle
10
2.6053786953980156
20
3.5187431340566322
30
0
40
7.2500000000018128
210
0
220
-0
230
1
100
AcDbArc
50
86.510975541296176
51
91.381615763130995
0
LINE
5
188
100
AcDbEntity
8
0
100
AcDbLine
10
2.4305709930657247
20
10.766635397827013
30
0
11
-4.5961258785448305
21
11.000000163913068
31
0
0
SPLINE
5
189
100
AcDbEntity
8
0
100
AcDbSpline
70
4
71
5
72
16
73
10
74
0
42
0.000000001
43
0.0000000001
44
0.0000000001
40
-0.92252504657097423
40
-0.92252504657097423
40
-0.92252504657097423
40
-0.92252504657097423
40
-0.92252504657097423
40
-0.92252504657097423
40
-0.80000000000000004
40
-0.60000000000000009
40
-0.40000000000000002
40
-0.20000000000000001
40
-0.063848091265463647
40
-0.063848091265463647
40
-0.063848091265463647
40
-0.063848091265463647
40
-0.063848091265463647
40
-0.063848091265463647
41
1
41
1
41
1
41
1
41
1
41
1
41
1
41
1
41
1
41
1
10
4.4209995238307318
20
19.981274808576238
30
0
10
3.6211227838306712
20
19.994057348084841
30
0
10
1.67728502103182
20
20.039089639415533
30
0
10
-0.80340215054780229
20
20.147889978150562
30
0
10
-2.9392597822412387
20
20.248307056347713
30
0
10
-4.07510137319517
20
19.625581177026355
30
0
10
-4.433601324461157
20
17.485791930666611
30
0
10
-4.5501686126831036
20
14.562617449284286
30
0
10
-4.5866811285700173
20
12.102512057874591
30
0
10
-4.5961258785448269
20
11.000000163913359
30
0
0
SPLINE
5
190
100
AcDbEntity
8
0
100
AcDbSpline
70
4
71
5
72
14
73
8
74
0
42
0.000000001
43
0.0000000001
44
0.0000000001
40
0.42353861179030494
40
0.42353861179030494
40
0.42353861179030494
40
0.42353861179030494
40
0.42353861179030494
40
0.42353861179030494
40
0.60000000000000009
40
0.80000000000000004
40
1
40
1
40
1
40
1
40
1
40
1
41
1
41
1
41
1
41
1
41
1
41
1
41
1
41
1
10
8.4169656304747473
20
17.483215073768875
30
0
10
8.2649204846732456
20
17.743271426580431
30
0
10
7.9160355167556293
20
18.275918779571064
30
0
10
7.2988679406137482
20
19.009021237990861
30
0
10
6.538247418323289
20
19.574584854628412
30
0
10
5.5892213903281842
20
19.892531761765479
30
0
10
4.8276046400024262
20
19.974776999974051
30
0
10
4.4209995238307345
20
19.981274808576238
30
0
0
LINE
5
191
100
AcDbEntity
8
0
100
AcDbLine
10
-1.1070281902723438
20
-17.956950587208873
30
0
11
-1.1070281902723442
21
-4.9179397844089179
31
0
0
SPLINE
5
192
100
AcDbEntity
8
0
100
AcDbSpline
70
4
71
5
72
13
73
7
74
0
42
0.000000001
43
0.0000000001
44
0.0000000001
40
0
40
0
40
0
40
0
40
0
40
0
40
0.20000000000000001
40
0.37741854579893325
40
0.37741854579893325
40
0.37741854579893325
40
0.37741854579893325
40
0.37741854579893325
40
0.37741854579893325
41
1
41
1
41
1
41
1
41
1
41
1
41
1
10
2.4305709930657389
20
-3.729149129711379
30
0
10
1.961080868342636
20
-3.7178257701768009
30
0
10
1.1268773766339473
20
-3.7716288059110674
30
0
10
0.39027684814848362
20
-3.9671593785262793
30
0
10
-0.26142478008527031
20
-4.2859701428406947
30
0
10
-0.84564154773854983
20
-4.702774479798455
30
0
10
-1.1070281902723442
20
-4.917939784408917
30
0
0
ARC
5
193
100
AcDbEntity
8
0
100
AcDbCircle
10
2.6053786953980156
20
3.5187431340566322
30
0
40
7.2499999999988187
210
0
220
0
230
1
100
AcDbArc
50
268.61838423686868
51
319.26924917651615
0
SPLINE
5
194
100
AcDbEntity
8
0
100
AcDbSpline
70
4
71
5
72
12
73
6
74
0
42
0.000000001
43
0.0000000001
44
0.0000000001
40
-0.081978658193053958
40
-0.081978658193053958
40
-0.081978658193053958
40
-0.081978658193053958
40
-0.081978658193053958
40
-0.081978658193053958
40
0
40
0
40
0
40
0
40
0
40
0
41
1
41
1
41
1
41
1
41
1
41
1
10
9.1420059746802131
20
-0.096487899797585513
30
0
10
8.9274639806488523
20
-0.30765279290402281
30
0
10
8.7158772667821722
20
-0.52468594344699104
30
0
10
8.5073052557653455
20
-0.74770534620015205
30
0
10
8.3017839459953446
20
-0.97678248266407131
30
0
10
8.099314462786646
20
-1.2119195873595581
30
0
0
SPLINE
5
195
100
AcDbEntity
8
0
100
AcDbSpline
70
4
71
3
72
8
73
4
74
0
42
0.000000001
43
0.0000000001
44
0.0000000001
40
0.96133552664638389
40
0.96133552664638389
40
0.96133552664638389
40
0.96133552664638389
40
1
40
1
40
1
40
1
41
1
41
1
41
1
41
1
10
9.1420059746802096
20
-0.09648789979758296
30
0
10
9.2611221228442293
20
-0.20751913624271062
30
0
10
9.3846660577203203
20
-0.3230650866455359
30
0
10
9.513178872915109
20
-0.44325824210490694
30
0
0
SPLINE
5
196
100
AcDbEntity
8
0
100
AcDbSpline
70
4
71
3
72
8
73
4
74
0
42
0.000000001
43
0.0000000001
44
0.0000000001
40
0
40
0
40
0
40
0
40
1
40
1
40
1
40
1
41
1
41
1
41
1
41
1
10
9.513178872915109
20
-0.44325824210490694
30
0
10
12.836974700144932
20
-3.5518782499377544
30
0
10
12.836974700144932
20
-3.5518782499377544
30
0
10
11.7868450004379
20
-9.9469174904569613
30
0
0
SPLINE
5
197
100
AcDbEntity
8
0
100
AcDbSpline
70
4
71
3
72
8
73
4
74
0
42
0.000000001
43
0.0000000001
44
0.0000000001
40
0
40
0
40
0
40
0
40
1
40
1
40
1
40
1
41
1
41
1
41
1
41
1
10
11.7868450004379
20
-9.9469174904569613
30
0
10
10.736699151845777
20
-16.34195673097615
30
0
10
10.736699151845777
20
-16.34195673097615
30
0
10
6.8456252891341762
20
-18.441368313922926
30
0
0
SPLINE
5
198
100
AcDbEntity
8
0
100
AcDbSpline
70
4
71
3
72
8
73
4
74
0
42
0.000000001
43
0.0000000001
44
0.0000000001
40
0
40
0
40
0
40
0
40
0.88477123843115435
40
0.88477123843115435
40
0.88477123843115435
40
0.88477123843115435
41
1
41
1
41
1
41
1
10
6.8456252891341762
20
-18.441368313922926
30
0
10
3.4029150487957538
20
-20.298867300143453
30
0
10
3.0062158113611748
20
-20.512904607941032
30
0
10
-1.1070281902723447
20
-17.956950587208873
30
0
0
CIRCLE
5
199
100
AcDbEntity
8
0
100
AcDbCircle
10
2.0000000298023224
20
-43.000000640749946
30
0
40
2
210
-0
220
0
230
1
0
SPLINE
5
200
100
AcDbEntity
8
0
100
AcDbSpline
70
4
71
3
72
8
73
4
74
0
42
0.000000001
43
0.0000000001
44
0.0000000001
40
0.89138518853818582
40
0.89138518853818582
40
0.89138518853818582
40
0.89138518853818582
40
1
40
1
40
1
40
1
41
1
41
1
41
1
41
1
10
8.9749972316156139
20
-56.779714398658655
30
0
10
9.0355006097949637
20
-56.15291098770102
30
0
10
9.1111488413552806
20
-55.454675183724611
30
0
10
9.1960147697250072
20
-54.671359718138426
30
0
0
SPLINE
5
201
100
AcDbEntity
8
0
100
AcDbSpline
70
4
71
3
72
8
73
4
74
0
42
0.000000001
43
0.0000000001
44
0.0000000001
40
0
40
0
40
0
40
0
40
1
40
1
40
1
40
1
41
1
41
1
41
1
41
1
10
9.1960147697250072
20
-54.671359718138426
30
0
10
9.9773624259750093
20
-47.459497758045245
30
0
10
9.9773624259750093
20
-47.459497758045245
30
0
10
17.557584492218492
20
-46.376020610625005
30
0
0
SPLINE
5
202
100
AcDbEntity
8
0
100
AcDbSpline
70
4
71
3
72
8
73
4
74
0
42
0.000000001
43
0.0000000001
44
0.0000000001
40
0
40
0
40
0
40
0
40
1
40
1
40
1
40
1
41
1
41
1
41
1
41
1
10
17.557584492218492
20
-46.376020610625005
30
0
10
25.137806558461975
20
-45.292547500426025
30
0
10
25.137806558461975
20
-45.292547500426025
30
0
10
27.518329858632882
20
-52.946521524880779
30
0
0
SPLINE
5
203
100
AcDbEntity
8
0
100
AcDbSpline
70
4
71
3
72
8
73
4
74
0
42
0.000000001
43
0.0000000001
44
0.0000000001
40
0
40
0
40
0
40
0
40
0.51473206300850038
40
0.51473206300850038
40
0.51473206300850038
40
0.51473206300850038
41
1
41
1
41
1
41
1
10
27.518329858632882
20
-52.946521524880779
30
0
10
28.743669840318589
20
-56.886267364701837
30
0
10
29.338288045344409
20
-58.798099700662647
30
0
10
28.899255852092779
20
-60.282300623796289
30
0
0
LINE
5
204
100
AcDbEntity
8
0
100
AcDbLine
10
28.899255852092779
20
-60.282300623796282
30
0
11
20.336745081150539
21
-59.333432098713047
31
0
0
SPLINE
5
205
100
AcDbEntity
8
0
100
AcDbSpline
70
0
71
3
72
8
73
4
74
0
42
0.000000001
43
0.0000000001
44
0.0000000001
40
0.95310222845069914
40
0.95310222845069914
40
0.95310222845069914
40
0.95310222845069914
40
1
40
1
40
1
40
1
10
20.249046629140896
20
-59.319234546675048
30
0
10
20.265530883799482
20
-59.323112040353294
30
0
10
20.293480572761496
20
-59.328637672012547
30
0
10
20.336745081150539
20
-59.333432098713047
30
0
0
SPLINE
5
206
100
AcDbEntity
8
0
100
AcDbSpline
70
4
71
5
72
16
73
10
74
0
42
0.000000001
43
0.0000000001
44
0.0000000001
40
-1
40
-1
40
-1
40
-1
40
-1
40
-1
40
-0.80000000000000004
40
-0.60000000000000009
40
-0.40000000000000002
40
-0.20000000000000001
40
0
40
0
40
0
40
0
40
0
40
0
41
1
41
1
41
1
41
1
41
1
41
1
41
1
41
1
41
1
41
1
10
11.228639172907808
20
-59.319234546674799
30
0
10
11.532112869929929
20
-59.589780102087211
30
0
10
12.159653185667811
20
-60.025115316978244
30
0
10
13.16268317846159
20
-60.361161360726108
30
0
10
14.603290498060055
20
-60.284826184319876
30
0
10
16.496097123634939
20
-59.76381670896366
30
0
10
18.022452002597738
20
-59.367842242960798
30
0
10
19.147016917241171
20
-59.250845233714607
30
0
10
19.883851958337829
20
-59.278764906644767
30
0
10
20.249046629141073
20
-59.319234546674799
30
0
0
SPLINE
5
207
100
AcDbEntity
8
0
100
AcDbSpline
70
4
71
5
72
13
73
7
74
0
42
0.000000001
43
0.0000000001
44
0.0000000001
40
-0.4880019111371573
40
-0.4880019111371573
40
-0.4880019111371573
40
-0.4880019111371573
40
-0.4880019111371573
40
-0.4880019111371573
40
-0.40000000000000002
40
-0.3336848341941781
40
-0.3336848341941781
40
-0.3336848341941781
40
-0.3336848341941781
40
-0.3336848341941781
40
-0.3336848341941781
41
1
41
1
41
1
41
1
41
1
41
1
41
1
10
8.9749972316156157
20
-56.779714398658648
30
0
10
9.1910688618097574
20
-57.077982644322859
30
0
10
9.5867627561564923
20
-57.601075539616879
30
0
10
10.015477724045475
20
-58.119856281318206
30
0
10
10.483742180416078
20
-58.626617147151627
30
0
10
10.998380339787415
20
-59.113959741950538
30
0
10
11.228639172907799
20
-59.319234546674821
30
0
0
SPLINE
5
208
100
AcDbEntity
8
0
100
AcDbSpline
70
4
71
3
72
8
73
4
74
0
42
0.000000001
43
0.0000000001
44
0.0000000001
40
0.79150808761304048
40
0.79150808761304048
40
0.79150808761304048
40
0.79150808761304048
40
1
40
1
40
1
40
1
41
1
41
1
41
1
41
1
10
50.851876662815883
20
-60.757700031865305
30
0
10
51.290024976961945
20
-59.874897086763681
30
0
10
51.849274214208769
20
-58.770009117009884
30
0
10
52.555835834991896
20
-57.374081536426559
30
0
0
SPLINE
5
209
100
AcDbEntity
8
0
100
AcDbSpline
70
4
71
3
72
8
73
4
74
0
42
0.000000001
43
0.0000000001
44
0.0000000001
40
0
40
0
40
0
40
0
40
1
40
1
40
1
40
1
41
1
41
1
41
1
41
1
10
52.555835834991896
20
-57.374081536426559
30
0
10
55.944752041351776
20
-50.678725517088608
30
0
10
55.944752041351776
20
-50.678725517088608
30
0
10
64.34775980298916
20
-52.327922332579334
30
0
0
SPLINE
5
210
100
AcDbEntity
8
0
100
AcDbSpline
70
4
71
3
72
8
73
4
74
0
42
0.000000001
43
0.0000000001
44
0.0000000001
40
0
40
0
40
0
40
0
40
0.89603455525170306
40
0.89603455525170306
40
0.89603455525170306
40
0.89603455525170306
41
1
41
1
41
1
41
1
10
64.34775980298916
20
-52.327922332579334
30
0
10
71.87713789048496
20
-53.805659667670092
30
0
10
72.659933032029556
20
-53.959293286933971
30
0
10
73.267699000355805
20
-57.277815686306255
30
0
0
SPLINE
5
211
100
AcDbEntity
8
0
100
AcDbSpline
70
4
71
5
72
14
73
8
74
0
42
0.000000001
43
0.0000000001
44
0.0000000001
40
-0.40058437723281515
40
-0.40058437723281515
40
-0.40058437723281515
40
-0.40058437723281515
40
-0.40058437723281515
40
-0.40058437723281515
40
-0.40000000000000002
40
-0.20000000000000001
40
-0.1840193323479978
40
-0.1840193323479978
40
-0.1840193323479978
40
-0.1840193323479978
40
-0.1840193323479978
40
-0.1840193323479978
41
1
41
1
41
1
41
1
41
1
41
1
41
1
41
1
10
71.809788881942367
20
-59.166255363326449
30
0
10
71.81066928342392
20
-59.165365481167967
30
0
10
72.112825147834002
20
-58.859866701465236
30
0
10
72.425239160501192
20
-58.510949377068542
30
0
10
72.72056266307429
20
-58.138428717522245
30
0
10
72.996140434327558
20
-57.738637654017815
30
0
10
73.249102654184512
20
-57.309718525568996
30
0
10
73.267699000355833
20
-57.277815686306248
30
0
0
LINE
5
212
100
AcDbEntity
8
0
100
AcDbLine
10
71.809788881942367
20
-59.166255363326449
30
0
11
55.158142394564393
21
-59.166255363326457
31
0
0
SPLINE
5
213
100
AcDbEntity
8
0
100
AcDbSpline
70
0
71
3
72
11
73
7
74
0
42
0.000000001
43
0.0000000001
44
0.0000000001
40
-0.32428978894946942
40
-0.32428978894946942
40
-0.32428978894946942
40
-0.32428978894946942
40
-0.13633244679135975
40
-0.13633244679135975
40
-0.13633244679135975
40
0
40
0
40
0
40
0
10
50.851876662815904
20
-60.757700031865284
30
0
10
51.416414272847604
20
-60.317086473966654
30
0
10
52.128671588928682
20
-59.849927804556188
30
0
10
53.030639743033689
20
-59.531413533035611
30
0
10
53.684870772080586
20
-59.300383292472631
30
0
10
54.430660539808173
20
-59.166255363326457
30
0
10
55.158142394564393
20
-59.166255363326457
30
0
0
SPLINE
5
214
100
AcDbEntity
8
0
100
AcDbSpline
70
4
71
3
72
8
73
4
74
0
42
0.000000001
43
0.0000000001
44
0.0000000001
40
0.97270235922239445
40
0.97270235922239445
40
0.97270235922239445
40
0.97270235922239445
40
1
40
1
40
1
40
1
41
1
41
1
41
1
41
1
10
79.835419386394918
20
-50.210409781897312
30
0
10
79.8936220499981
20
-50.123263170424551
30
0
10
79.953473397595289
20
-50.033766901207372
30
0
10
80.015004396291559
20
-49.941759034290371
30
0
0
SPLINE
5
215
100
AcDbEntity
8
0
100
AcDbSpline
70
4
71
3
72
8
73
4
74
0
42
0.000000001
43
0.0000000001
44
0.0000000001
40
0
40
0
40
0
40
0
40
0.6931534268781494
40
0.6931534268781494
40
0.6931534268781494
40
0.6931534268781494
41
1
41
1
41
1
41
1
10
80.015004396291559
20
-49.941759034290371
30
0
10
81.577425960595775
20
-47.605458531885994
30
0
10
82.056849663374209
20
-46.88857272894036
30
0
10
84.782911313281545
20
-47.14141773738838
30
0
0
LINE
5
216
100
AcDbEntity
8
0
100
AcDbLine
10
84.782911313281545
20
-47.141417737388373
30
0
11
84.547944707464353
21
-49.402384956040642
31
0
0
SPLINE
5
217
100
AcDbEntity
8
0
100
AcDbSpline
70
4
71
5
72
13
73
7
74
0
42
0.000000001
43
0.0000000001
44
0.0000000001
40
0
40
0
40
0
40
0
40
0
40
0
40
0.20000000000000001
40
0.39472468461863708
40
0.39472468461863708
40
0.39472468461863708
40
0.39472468461863708
40
0.39472468461863708
40
0.39472468461863708
41
1
41
1
41
1
41
1
41
1
41
1
41
1
10
81.471924190905071
20
-50.11062902824812
30
0
10
81.821752057818387
20
-50.128983066930665
30
0
10
82.491168342675479
20
-50.115522382465883
30
0
10
83.119151788450282
20
-50.004091131048725
30
0
10
83.711342606481821
20
-49.808025948908174
30
0
10
84.275567976712779
20
-49.545834697769124
30
0
10
84.547944707464353
20
-49.402384956040649
30
0
0
ARC
5
218
100
AcDbEntity
8
0
100
AcDbCircle
10
81.092068765860489
20
-57.350671145257181
30
0
40
7.2500000000000533
210
0
220
-0
230
1
100
AcDbArc
50
86.996678275573302
51
99.981544261752262
0
CIRCLE
5
219
100
AcDbEntity
8
0
100
AcDbCircle
10
81.092068765860489
20
-57.350671145257181
30
0
40
2.0000000000000018
210
-0
220
0
230
1
0
SPLINE
5
220
100
AcDbEntity
8
0
100
AcDbSpline
70
4
71
3
72
8
73
4
74
0
42
0.000000001
43
0.0000000001
44
0.0000000001
40
0.34845133532239769
40
0.34845133532239769
40
0.34845133532239769
40
0.34845133532239769
40
1
40
1
40
1
40
1
41
1
41
1
41
1
41
1
10
85.188027753392603
20
-43.243182974866869
30
0
10
83.009002636452621
20
-42.600367920981398
30
0
10
82.902416927782809
20
-41.882539029881549
30
0
10
82.596532869191947
20
-39.82248410015746
30
0
0
SPLINE
5
221
100
AcDbEntity
8
0
100
AcDbSpline
70
4
71
3
72
8
73
4
74
0
42
0.000000001
43
0.0000000001
44
0.0000000001
40
0
40
0
40
0
40
0
40
1
40
1
40
1
40
1
41
1
41
1
41
1
41
1
10
82.596532869191947
20
-39.82248410015746
30
0
10
82.127060556264695
20
-36.660705999825836
30
0
10
82.127060556264695
20
-36.660705999825836
30
0
10
86.01738349581953
20
-31.935203095569662
30
0
0
SPLINE
5
222
100
AcDbEntity
8
0
100
AcDbSpline
70
4
71
3
72
8
73
4
74
0
42
0.000000001
43
0.0000000001
44
0.0000000001
40
0
40
0
40
0
40
0
40
0.028470295846702895
40
0.028470295846702895
40
0.028470295846702895
40
0.028470295846702895
41
1
41
1
41
1
41
1
10
86.01738349581953
20
-31.935203095569662
30
0
10
86.128142140847871
20
-31.800666744801916
30
0
10
86.235747454484667
20
-31.669960683742666
30
0
10
86.340467980171525
20
-31.543038323596853
30
0
0
SPLINE
5
223
100
AcDbEntity
8
0
100
AcDbSpline
70
0
71
3
72
8
73
4
74
0
42
0.000000001
43
0.0000000001
44
0.0000000001
40
-1
40
-1
40
-1
40
-1
40
-0.84319284543996798
40
-0.84319284543996798
40
-0.84319284543996798
40
-0.84319284543996798
10
86.097031246774407
20
-34.496292781561039
30
0
10
86.198933544001875
20
-33.515737469305733
30
0
10
86.279140944594218
20
-32.531212004648644
30
0
10
86.340467980171582
20
-31.543038323596846
30
0
0
LINE
5
224
100
AcDbEntity
8
0
100
AcDbLine
10
86.097031246774407
20
-34.496292781561039
30
0
11
85.188027753392603
21
-43.243182974866869
31
0
0
SPLINE
5
225
100
AcDbEntity
8
0
100
AcDbSpline
70
4
71
3
72
8
73
4
74
0
42
0.000000001
43
0.0000000001
44
0.0000000001
40
0.09986703796324263
40
0.09986703796324263
40
0.09986703796324263
40
0.09986703796324263
40
1
40
1
40
1
40
1
41
1
41
1
41
1
41
1
10
85.25538140263086
20
9.6962962051918957
30
0
10
82.051423567807745
20
11.657427306461791
30
0
10
82.271469468038077
20
12.268202751126394
30
0
10
84.474858140798403
20
18.384089004700925
30
0
0
SPLINE
5
226
100
AcDbEntity
8
0
100
AcDbSpline
70
4
71
3
72
8
73
4
74
0
42
0.000000001
43
0.0000000001
44
0.0000000001
40
0
40
0
40
0
40
0
40
1
40
1
40
1
40
1
41
1
41
1
41
1
41
1
10
84.474858140798403
20
18.384089004700925
30
0
10
86.922714217356827
20
25.178514396851792
30
0
10
86.922714217356827
20
25.178514396851792
30
0
10
88.60929570183356
20
25.683199353720283
30
0
0
SPLINE
5
227
100
AcDbEntity
8
0
100
AcDbSpline
70
4
71
3
72
8
73
4
74
0
42
0.000000001
43
0.0000000001
44
0.0000000001
40
0
40
0
40
0
40
0
40
0.7286617412312143
40
0.7286617412312143
40
0.7286617412312143
40
0.7286617412312143
41
1
41
1
41
1
41
1
10
88.60929570183356
20
25.683199353720283
30
0
10
89.838243103040696
20
26.050943973165275
30
0
10
90.171703551002651
20
26.150727157877071
30
0
10
92.415624002217527
20
24.216894650095195
30
0
0
LINE
5
228
100
AcDbEntity
8
0
100
AcDbLine
10
92.415624002217527
20
24.216894650095195
30
0
11
91.871097418971445
21
23.639093814065532
31
0
0
SPLINE
5
229
100
AcDbEntity
8
0
100
AcDbSpline
70
0
71
3
72
14
73
10
74
0
42
0.000000001
43
0.0000000001
44
0.0000000001
40
-0.66279793609324245
40
-0.66279793609324245
40
-0.66279793609324245
40
-0.66279793609324245
40
-0.44325351539139318
40
-0.44325351539139318
40
-0.44325351539139318
40
-0.049978447618693189
40
-0.049978447618693189
40
-0.049978447618693189
40
0
40
0
40
0
40
0
10
85.255381402630832
20
9.6962962051918922
30
0
10
85.569606214834621
20
11.391434548560539
30
0
10
86.016893779968115
20
13.048044737675646
30
0
10
86.582891678057123
20
14.659661283233245
30
0
10
87.596776982081536
20
17.546587783809223
30
0
10
89.033162696904327
20
20.324792070679042
30
0
10
91.068407792729147
20
22.738767593917935
30
0
10
91.32705218376303
20
23.045542060767005
30
0
10
91.594792354406067
20
23.345904643477397
30
0
10
91.871097418971445
20
23.639093814065532
30
0
0
SPLINE
5
230
100
AcDbEntity
8
0
100
AcDbSpline
70
4
71
3
72
8
73
4
74
0
42
0.000000001
43
0.0000000001
44
0.0000000001
40
0.27522436546137341
40
0.27522436546137341
40
0.27522436546137341
40
0.27522436546137341
40
0.86357402211834489
40
0.86357402211834489
40
0.86357402211834489
40
0.86357402211834489
41
1
41
1
41
1
41
1
10
94.339022733885884
20
26.257826037781285
30
0
10
92.723829373620021
20
27.995692346197298
30
0
10
92.729730019519423
20
28.828346065830203
30
0
10
93.703316399781841
20
30.571289437946831
30
0
0
ARC
5
231
100
AcDbEntity
8
0
100
AcDbCircle
10
92.537498265087635
20
37.726942313598194
30
0
40
7.2499999999999707
210
0
220
0
230
1
100
AcDbArc
50
279.25347932541632
51
280.60055924812559
0
SPLINE
5
232
100
AcDbEntity
8
0
100
AcDbSpline
70
4
71
5
72
13
73
7
74
0
42
0.000000001
43
0.0000000001
44
0.0000000001
40
-0.39098428679905628
40
-0.39098428679905628
40
-0.39098428679905628
40
-0.39098428679905628
40
-0.39098428679905628
40
-0.39098428679905628
40
-0.20000000000000001
40
0
40
0
40
0
40
0
40
0
40
0
41
1
41
1
41
1
41
1
41
1
41
1
41
1
10
97.21488435226
20
29.459532030128596
30
0
10
97.135343569444586
20
29.762384129409668
30
0
10
96.876088813041264
20
30.307717536997426
30
0
10
96.392282717103967
20
30.679155976859299
30
0
10
95.622163719950919
20
30.828870632664575
30
0
10
94.521108724088236
20
30.722304898717134
30
0
10
93.871215114610607
20
30.60067404996272
30
0
0
SPLINE
5
233
100
AcDbEntity
8
0
100
AcDbSpline
70
0
71
3
72
8
73
4
74
0
42
0.000000001
43
0.0000000001
44
0.0000000001
40
0
40
0
40
0
40
0
40
0.15752804239562274
40
0.15752804239562274
40
0.15752804239562274
40
0.15752804239562274
10
96.376253074498251
20
28.419544914706883
30
0
10
96.692643718555914
20
28.755269164492251
30
0
10
96.971894266504904
20
29.103753691443295
30
0
10
97.21488435226081
20
29.459532030126063
30
0
0
LINE
5
234
100
AcDbEntity
8
0
100
AcDbLine
10
96.376253074498251
20
28.419544914706883
30
0
11
94.339022733885884
21
26.257826037781285
31
0
0
CIRCLE
5
235
100
AcDbEntity
8
0
100
AcDbCircle
10
2.6053786953980156
20
3.5187431340566322
30
0
40
2
210
-0
220
0
230
1
0
SPLINE
5
236
100
AcDbEntity
8
0
100
AcDbSpline
70
4
71
3
72
8
73
4
74
0
42
0.000000001
43
0.0000000001
44
0.0000000001
40
0.73195344834096232
40
0.73195344834096232
40
0.73195344834096232
40
0.73195344834096232
40
1
40
1
40
1
40
1
41
1
41
1
41
1
41
1
10
74.192344347573155
20
31.130496878457038
30
0
10
75.10661922793625
20
30.767554585961925
30
0
10
76.255995448327212
20
30.13810353403883
30
0
10
77.826281404348208
20
29.278143036072997
30
0
0
SPLINE
5
237
100
AcDbEntity
8
0
100
AcDbSpline
70
4
71
3
72
8
73
4
74
0
42
0.000000001
43
0.0000000001
44
0.0000000001
40
0
40
0
40
0
40
0
40
1
40
1
40
1
40
1
41
1
41
1
41
1
41
1
10
77.826281404348208
20
29.278143036072997
30
0
10
83.684539778880264
20
26.069892481670315
30
0
10
83.684539778880264
20
26.069892481670315
30
0
10
81.236683702321841
20
19.275467089519438
30
0
0
SPLINE
5
238
100
AcDbEntity
8
0
100
AcDbSpline
70
4
71
3
72
8
73
4
74
0
42
0.000000001
43
0.0000000001
44
0.0000000001
40
0
40
0
40
0
40
0
40
1
40
1
40
1
40
1
41
1
41
1
41
1
41
1
10
81.236683702321841
20
19.275467089519438
30
0
10
78.788827625763403
20
12.481041697368571
30
0
10
78.788827625763403
20
12.481041697368571
30
0
10
76.100328938019274
20
11.773300659364008
30
0
0
SPLINE
5
239
100
AcDbEntity
8
0
100
AcDbSpline
70
4
71
3
72
8
73
4
74
0
42
0.000000001
43
0.0000000001
44
0.0000000001
40
0
40
0
40
0
40
0
40
1
40
1
40
1
40
1
41
1
41
1
41
1
41
1
10
76.100328938019274
20
11.773300659364008
30
0
10
73.411830250275116
20
11.065559621359444
30
0
10
73.411830250275116
20
11.065559621359444
30
0
10
68.900235477936249
20
16.698492602214756
30
0
0
SPLINE
5
240
100
AcDbEntity
8
0
100
AcDbSpline
70
4
71
3
72
8
73
4
74
0
42
0.000000001
43
0.0000000001
44
0.0000000001
40
0
40
0
40
0
40
0
40
0.13869746927770493
40
0.13869746927770493
40
0.13869746927770493
40
0.13869746927770493
41
1
41
1
41
1
41
1
10
68.900235477936249
20
16.698492602214756
30
0
10
68.274490940415816
20
17.479766151270304
30
0
10
67.735535586663801
20
18.152679036258238
30
0
10
67.281443311644423
20
18.745807951543604
30
0
0
SPLINE
5
241
100
AcDbEntity
8
0
100
AcDbSpline
70
0
71
3
72
14
73
10
74
0
42
0.000000001
43
0.0000000001
44
0.0000000001
40
0.010589854481883704
40
0.010589854481883704
40
0.010589854481883704
40
0.010589854481883704
40
0.10396025685678947
40
0.10396025685678947
40
0.10396025685678947
40
0.3046044238785377
40
0.3046044238785377
40
0.3046044238785377
40
0.42711785622501691
40
0.42711785622501691
40
0.42711785622501691
40
0.42711785622501691
10
73.48228860609656
20
30.497678951817253
30
0
10
73.458562140766787
20
30.475219783365631
30
0
10
73.168041397632507
20
30.149018860616469
30
0
10
72.815838612950117
20
29.612386020221692
30
0
10
72.058988127594063
20
28.459212782034371
30
0
10
70.948548066389037
20
26.349696915473274
30
0
10
69.707529637955346
20
23.803340439516294
30
0
10
68.94976314252483
20
22.2485338559122
30
0
10
68.137201117774396
20
20.527853762799786
30
0
10
67.281443311644438
20
18.745807951543604
30
0
0
ARC
5
242
100
AcDbEntity
8
0
100
AcDbCircle
10
71.194736001907643
20
33.146660470198839
30
0
40
3.5000000002369558
210
0
220
0
230
1
100
AcDbArc
50
310.81255444200974
51
311.46559196910954
0
SPLINE
5
243
100
AcDbEntity
8
0
100
AcDbSpline
70
0
71
3
72
8
73
4
74
0
42
0.000000001
43
0.0000000001
44
0.0000000001
40
0.40874660168675941
40
0.40874660168675941
40
0.40874660168675941
40
0.40874660168675941
40
0.45565118992665021
40
0.45565118992665021
40
0.45565118992665021
40
0.45565118992665021
10
74.192344347573155
20
31.130496878457045
30
0
10
73.968176465084284
20
30.92881295263453
30
0
10
73.741628602313909
20
30.726542724599248
30
0
10
73.512331547408095
20
30.523923180813
30
0
0
SPLINE
5
244
100
AcDbEntity
8
0
100
AcDbSpline
70
4
71
3
72
8
73
4
74
0
42
0.000000001
43
0.0000000001
44
0.0000000001
40
0.64059821966228947
40
0.64059821966228947
40
0.64059821966228947
40
0.64059821966228947
40
1
40
1
40
1
40
1
41
1
41
1
41
1
41
1
10
4.0987469187028589
20
-36.06042129497326
30
0
10
4.0922325778722488
20
-34.982475216029599
30
0
10
4.2888251431309214
20
-33.492673809050387
30
0
10
4.5957141715804717
20
-31.167032929554033
30
0
0
SPLINE
5
245
100
AcDbEntity
8
0
100
AcDbSpline
70
4
71
3
72
8
73
4
74
0
42
0.000000001
43
0.0000000001
44
0.0000000001
40
0
40
0
40
0
40
0
40
1
40
1
40
1
40
1
41
1
41
1
41
1
41
1
10
4.5957141715804717
20
-31.167032929554033
30
0
10
5.449602619659899
20
-24.696162561868071
30
0
10
5.449602619659899
20
-24.696162561868071
30
0
10
9.3406764823714816
20
-22.596759053363851
30
0
0
SPLINE
5
246
100
AcDbEntity
8
0
100
AcDbSpline
70
4
71
3
72
8
73
4
74
0
42
0.000000001
43
0.0000000001
44
0.0000000001
40
0
40
0
40
0
40
0
40
1
40
1
40
1
40
1
41
1
41
1
41
1
41
1
10
9.3406764823714816
20
-22.596759053363851
30
0
10
13.231750345083082
20
-20.497347470417058
30
0
10
13.231750345083082
20
-20.497347470417058
30
0
10
19.953626870961987
20
-23.950237485065511
30
0
0
SPLINE
5
247
100
AcDbEntity
8
0
100
AcDbSpline
70
4
71
3
72
8
73
4
74
0
42
0.000000001
43
0.0000000001
44
0.0000000001
40
0
40
0
40
0
40
0
40
1
40
1
40
1
40
1
41
1
41
1
41
1
41
1
10
19.953626870961987
20
-23.950237485065511
30
0
10
26.675503396840892
20
-27.403119425271392
30
0
10
26.675503396840892
20
-27.403119425271392
30
0
10
27.418594344309959
20
-31.474447143370359
30
0
0
SPLINE
5
248
100
AcDbEntity
8
0
100
AcDbSpline
70
4
71
3
72
8
73
4
74
0
42
0.000000001
43
0.0000000001
44
0.0000000001
40
0
40
0
40
0
40
0
40
1
40
1
40
1
40
1
41
1
41
1
41
1
41
1
10
27.418594344309959
20
-31.474447143370359
30
0
10
28.161685291779044
20
-35.545766787026771
30
0
10
28.161685291779044
20
-35.545766787026771
30
0
10
26.385049549591546
20
-38.170392597014157
30
0
0
SPLINE
5
249
100
AcDbEntity
8
0
100
AcDbSpline
70
4
71
3
72
8
73
4
74
0
42
0.000000001
43
0.0000000001
44
0.0000000001
40
0
40
0
40
0
40
0
40
1
40
1
40
1
40
1
41
1
41
1
41
1
41
1
10
26.385049549591546
20
-38.170392597014157
30
0
10
24.60842995628914
20
-40.79502648144409
30
0
10
24.60842995628914
20
-40.79502648144409
30
0
10
17.028207890045639
20
-41.87850362886433
30
0
0
SPLINE
5
250
100
AcDbEntity
8
0
100
AcDbSpline
70
4
71
3
72
8
73
4
74
0
42
0.000000001
43
0.0000000001
44
0.0000000001
40
0
40
0
40
0
40
0
40
0.61541904964516814
40
0.61541904964516814
40
0.61541904964516814
40
0.61541904964516814
41
1
41
1
41
1
41
1
10
17.028207890045639
20
-41.87850362886433
30
0
10
12.363194829938742
20
-42.545293620659081
30
0
10
10.569119673865131
20
-42.801728349390594
30
0
10
9.2141465913654166
20
-42.27986913311581
30
0
0
ARC
5
251
100
AcDbEntity
8
0
100
AcDbCircle
10
2.0000000298023224
20
-43.000000640749946
30
0
40
7.2500000000000044
210
0
220
-0
230
1
100
AcDbArc
50
5.7005029120651196
51
73.173033611712611
0
SPLINE
5
252
100
AcDbEntity
8
0
100
AcDbSpline
70
4
71
3
72
8
73
4
74
0
42
0.000000001
43
0.0000000001
44
0.0000000001
40
0.40439790840201212
40
0.40439790840201212
40
0.40439790840201212
40
0.40439790840201212
40
1
40
1
40
1
40
1
41
1
41
1
41
1
41
1
10
85.68245542275605
20
-11.217765266001411
30
0
10
84.6646089773798
20
-11.636627977721059
30
0
10
83.292127801601083
20
-11.395663805038986
30
0
10
79.898239882640041
20
-10.799804707660741
30
0
0
SPLINE
5
253
100
AcDbEntity
8
0
100
AcDbSpline
70
4
71
3
72
8
73
4
74
0
42
0.000000001
43
0.0000000001
44
0.0000000001
40
0
40
0
40
0
40
0
40
1
40
1
40
1
40
1
41
1
41
1
41
1
41
1
10
79.898239882640041
20
-10.799804707660741
30
0
10
74.199984661591031
20
-9.7993651273791649
30
0
10
74.199984661591031
20
-9.7993651273791649
30
0
10
71.949855534088584
20
-5.3600446902657062
30
0
0
SPLINE
5
254
100
AcDbEntity
8
0
100
AcDbSpline
70
4
71
3
72
8
73
4
74
0
42
0.000000001
43
0.0000000001
44
0.0000000001
40
0
40
0
40
0
40
0
40
1
40
1
40
1
40
1
41
1
41
1
41
1
41
1
10
71.949855534088584
20
-5.3600446902657062
30
0
10
69.699718332143604
20
-0.92072425315226525
30
0
10
69.699718332143604
20
-0.92072425315226525
30
0
10
72.086071379832418
20
2.9858606136893684
30
0
0
SPLINE
5
255
100
AcDbEntity
8
0
100
AcDbSpline
70
4
71
3
72
8
73
4
74
0
42
0.000000001
43
0.0000000001
44
0.0000000001
40
0
40
0
40
0
40
0
40
1
40
1
40
1
40
1
41
1
41
1
41
1
41
1
10
72.086071379832418
20
2.9858606136893684
30
0
10
74.472424427521219
20
6.892445480531002
30
0
10
74.472424427521219
20
6.892445480531002
30
0
10
77.160931189707895
20
7.6001784440930109
30
0
0
SPLINE
5
256
100
AcDbEntity
8
0
100
AcDbSpline
70
4
71
3
72
8
73
4
74
0
42
0.000000001
43
0.0000000001
44
0.0000000001
40
0
40
0
40
0
40
0
40
1
40
1
40
1
40
1
41
1
41
1
41
1
41
1
10
77.160931189707895
20
7.6001784440930109
30
0
10
79.849437951894586
20
8.3079194820975744
30
0
10
79.849437951894586
20
8.3079194820975744
30
0
10
84.272625652801992
20
5.7025794781302785
30
0
0
SPLINE
5
257
100
AcDbEntity
8
0
100
AcDbSpline
70
4
71
3
72
8
73
4
74
0
42
0.000000001
43
0.0000000001
44
0.0000000001
40
0
40
0
40
0
40
0
40
0.037920431621424437
40
0.037920431621424437
40
0.037920431621424437
40
0.037920431621424437
41
1
41
1
41
1
41
1
10
84.272625652801992
20
5.7025794781302785
30
0
10
84.440354839562985
20
5.6037838606592763
30
0
10
84.601723663166482
20
5.508734615645082
30
0
10
84.757008254425003
20
5.4170167618435379
30
0
0
SPLINE
5
258
100
AcDbEntity
8
0
100
AcDbSpline
70
0
71
3
72
8
73
4
74
0
42
0.000000001
43
0.0000000001
44
0.0000000001
40
-0.89537870350125115
40
-0.89537870350125115
40
-0.89537870350125115
40
-0.89537870350125115
40
-0.84428803304957556
40
-0.84428803304957556
40
-0.84428803304957556
40
-0.84428803304957556
10
84.721798374718063
20
4.1868822649616977
30
0
10
84.72556587520765
20
4.5986698198103637
30
0
10
84.737362794023738
20
5.0087418126026471
30
0
10
84.757008254424989
20
5.4170167618435467
30
0
0
LINE
5
259
100
AcDbEntity
8
0
100
AcDbLine
10
84.721798374718063
20
4.1868822649616977
30
0
11
84.791338327849601
21
0.064523914568859198
31
0
0
SPLINE
5
260
100
AcDbEntity
8
0
100
AcDbSpline
70
0
71
3
72
10
73
6
74
0
42
0.000000001
43
0.0000000001
44
0.0000000001
40
0
40
0
40
0
40
0
40
0.093062052178543075
40
0.093062052178543075
40
0.18613330109283754
40
0.18613330109283754
40
0.18613330109283754
40
0.18613330109283754
10
84.886711443995111
20
-1.7939944758144515
30
0
10
84.867968651687193
20
-1.4843543755552591
30
0
10
84.850568099027385
20
-1.1747917644540564
30
0
10
84.818684960027639
20
-0.55517012743058636
30
0
10
84.804220035729429
20
-0.24544851432993345
30
0
10
84.791338327849601
20
0.064523914568859059
30
0
0
SPLINE
5
261
100
AcDbEntity
8
0
100
AcDbSpline
70
4
71
5
72
13
73
7
74
0
42
0.000000001
43
0.0000000001
44
0.0000000001
40
-0.57324925049944153
40
-0.57324925049944153
40
-0.57324925049944153
40
-0.57324925049944153
40
-0.57324925049944153
40
-0.57324925049944153
40
-0.40000000000000002
40
-0.24229935580194692
40
-0.24229935580194692
40
-0.24229935580194692
40
-0.24229935580194692
40
-0.24229935580194692
40
-0.24229935580194692
41
1
41
1
41
1
41
1
41
1
41
1
41
1
10
85.584427132818945
20
-9.935476085430814
30
0
10
85.50133037288775
20
-9.0835799597343012
30
0
10
85.341928211845868
20
-7.4563550583401064
30
0
10
85.186800907379435
20
-5.8289874224219922
30
0
10
85.047125068438277
20
-4.2007637712874955
30
0
10
84.933744476130371
20
-2.5710031811660961
30
0
10
84.886711443995097
20
-1.7939944758144544
30
0
0
LINE
5
262
100
AcDbEntity
8
0
100
AcDbLine
10
85.584427132818945
20
-9.935476085430814
30
0
11
85.68245542275605
21
-11.217765266001411
31
0
0
CIRCLE
5
263
100
AcDbEntity
8
0
100
AcDbCircle
10
92.537498265087635
20
37.726942313598194
30
0
40
1.9999999999999929
210
-0
220
0
230
1
0
SPLINE
5
264
100
AcDbEntity
8
0
100
AcDbSpline
70
4
71
3
72
8
73
4
74
0
42
0.000000001
43
0.0000000001
44
0.0000000001
40
0
40
0
40
0
40
0
40
1
40
1
40
1
40
1
41
1
41
1
41
1
41
1
10
70.31583867058356
20
-32.985223790302314
30
0
10
77.158379665863507
20
-37.146936818256421
30
0
10
77.158379665863507
20
-37.146936818256421
30
0
10
77.627851978790744
20
-40.308718955809312
30
0
0
SPLINE
5
265
100
AcDbEntity
8
0
100
AcDbSpline
70
4
71
3
72
8
73
4
74
0
42
0.000000001
43
0.0000000001
44
0.0000000001
40
0
40
0
40
0
40
0
40
1
40
1
40
1
40
1
41
1
41
1
41
1
41
1
10
77.627851978790744
20
-40.308718955809312
30
0
10
78.097324291717996
20
-43.470497056140957
30
0
10
78.097324291717996
20
-43.470497056140957
30
0
10
75.843246761810761
20
-46.841039868488359
30
0
0
SPLINE
5
266
100
AcDbEntity
8
0
100
AcDbSpline
70
4
71
3
72
8
73
4
74
0
42
0.000000001
43
0.0000000001
44
0.0000000001
40
0
40
0
40
0
40
0
40
1
40
1
40
1
40
1
41
1
41
1
41
1
41
1
10
75.843246761810761
20
-46.841039868488359
30
0
10
73.589169231903526
20
-50.211578643614502
30
0
10
73.589169231903526
20
-50.211578643614502
30
0
10
65.186169544708719
20
-48.562385865345057
30
0
0
SPLINE
5
267
100
AcDbEntity
8
0
100
AcDbSpline
70
4
71
3
72
8
73
4
74
0
42
0.000000001
43
0.0000000001
44
0.0000000001
40
0
40
0
40
0
40
0
40
1
40
1
40
1
40
1
41
1
41
1
41
1
41
1
10
65.186169544708719
20
-48.562385865345057
30
0
10
56.783169857513883
20
-46.913189049854331
30
0
10
56.783169857513883
20
-46.913189049854331
30
0
10
55.543193864675345
20
-43.215800877704673
30
0
0
SPLINE
5
268
100
AcDbEntity
8
0
100
AcDbSpline
70
4
71
3
72
8
73
4
74
0
42
0.000000001
43
0.0000000001
44
0.0000000001
40
0
40
0
40
0
40
0
40
1
40
1
40
1
40
1
41
1
41
1
41
1
41
1
10
55.543193864675345
20
-43.215800877704673
30
0
10
54.303217871836807
20
-39.518408668333734
30
0
10
54.303217871836807
20
-39.518408668333734
30
0
10
57.354210583221899
20
-34.485531922473953
30
0
0
SPLINE
5
269
100
AcDbEntity
8
0
100
AcDbSpline
70
4
71
3
72
8
73
4
74
0
42
0.000000001
43
0.0000000001
44
0.0000000001
40
0
40
0
40
0
40
0
40
1
40
1
40
1
40
1
41
1
41
1
41
1
41
1
10
57.354210583221899
20
-34.485531922473953
30
0
10
60.405203294606991
20
-29.452655176614169
30
0
10
60.405203294606991
20
-29.452655176614169
30
0
10
61.939242410512762
20
-29.138087006702467
30
0
0
SPLINE
5
270
100
AcDbEntity
8
0
100
AcDbSpline
70
4
71
3
72
8
73
4
74
0
42
0.000000001
43
0.0000000001
44
0.0000000001
40
0
40
0
40
0
40
0
40
1
40
1
40
1
40
1
41
1
41
1
41
1
41
1
10
61.939242410512762
20
-29.138087006702467
30
0
10
63.473289600861058
20
-28.823514799569487
30
0
10
63.473289600861058
20
-28.823514799569487
30
0
10
70.31583867058356
20
-32.985223790302314
30
0
0
SPLINE
5
271
100
AcDbEntity
8
0
100
AcDbSpline
70
4
71
3
72
8
73
4
74
0
42
0.000000001
43
0.0000000001
44
0.0000000001
40
0
40
0
40
0
40
0
40
1
40
1
40
1
40
1
41
1
41
1
41
1
41
1
10
82.878161350738992
20
-29.618205472126053
30
0
10
78.987838411184143
20
-34.343704339160972
30
0
10
78.987838411184143
20
-34.343704339160972
30
0
10
72.145297415904196
20
-30.181991311206868
30
0
0
SPLINE
5
272
100
AcDbEntity
8
0
100
AcDbSpline
70
4
71
3
72
8
73
4
74
0
42
0.000000001
43
0.0000000001
44
0.0000000001
40
0
40
0
40
0
40
0
40
1
40
1
40
1
40
1
41
1
41
1
41
1
41
1
10
72.145297415904196
20
-30.181991311206868
30
0
10
65.302756420624235
20
-26.020274246031487
30
0
10
65.302756420624235
20
-26.020274246031487
30
0
10
69.435587167592828
20
-19.89362140128458
30
0
0
SPLINE
5
273
100
AcDbEntity
8
0
100
AcDbSpline
70
4
71
3
72
8
73
4
74
0
42
0.000000001
43
0.0000000001
44
0.0000000001
40
0
40
0
40
0
40
0
40
1
40
1
40
1
40
1
41
1
41
1
41
1
41
1
10
69.435587167592828
20
-19.89362140128458
30
0
10
73.568409840118875
20
-13.766968556537691
30
0
10
73.568409840118875
20
-13.766968556537691
30
0
10
79.266656986725309
20
-14.767400062376712
30
0
0
SPLINE
5
274
100
AcDbEntity
8
0
100
AcDbSpline
70
4
71
3
72
8
73
4
74
0
42
0.000000001
43
0.0000000001
44
0.0000000001
40
0
40
0
40
0
40
0
40
1
40
1
40
1
40
1
41
1
41
1
41
1
41
1
10
79.266656986725309
20
-14.767400062376712
30
0
10
84.964912207774304
20
-15.767839642658288
30
0
10
84.964912207774304
20
-15.767839642658288
30
0
10
85.866698249034073
20
-20.330271105264064
30
0
0
SPLINE
5
275
100
AcDbEntity
8
0
100
AcDbSpline
70
4
71
3
72
8
73
4
74
0
42
0.000000001
43
0.0000000001
44
0.0000000001
40
0
40
0
40
0
40
0
40
1
40
1
40
1
40
1
41
1
41
1
41
1
41
1
10
85.866698249034073
20
-20.330271105264064
30
0
10
86.768484290293841
20
-24.892710642312412
30
0
10
86.768484290293841
20
-24.892710642312412
30
0
10
82.878161350738992
20
-29.618205472126053
30
0
0
SPLINE
5
276
100
AcDbEntity
8
0
100
AcDbSpline
70
4
71
3
72
8
73
4
74
0
42
0.000000001
43
0.0000000001
44
0.0000000001
40
0
40
0
40
0
40
0
40
1
40
1
40
1
40
1
41
1
41
1
41
1
41
1
10
60.792857281219952
20
-24.565405039285064
30
0
10
59.258810090871634
20
-24.879977246418044
30
0
10
59.258810090871634
20
-24.879977246418044
30
0
10
54.134502394847068
20
-19.09199881980264
30
0
0
SPLINE
5
277
100
AcDbEntity
8
0
100
AcDbSpline
70
4
71
3
72
8
73
4
74
0
42
0.000000001
43
0.0000000001
44
0.0000000001
40
0
40
0
40
0
40
0
40
1
40
1
40
1
40
1
41
1
41
1
41
1
41
1
10
54.134502394847068
20
-19.09199881980264
30
0
10
49.010194698822488
20
-13.304020393187272
30
0
10
49.010194698822488
20
-13.304020393187272
30
0
10
52.491870101145892
20
-8.2856655322456874
30
0
0
SPLINE
5
278
100
AcDbEntity
8
0
100
AcDbSpline
70
4
71
3
72
8
73
4
74
0
42
0.000000001
43
0.0000000001
44
0.0000000001
40
0
40
0
40
0
40
0
40
1
40
1
40
1
40
1
41
1
41
1
41
1
41
1
10
52.491870101145892
20
-8.2856655322456874
30
0
10
55.973545503469296
20
-3.2673025968615832
30
0
10
55.973545503469296
20
-3.2673025968615832
30
0
10
61.032918532542375
20
-3.1930984698677634
30
0
0
SPLINE
5
279
100
AcDbEntity
8
0
100
AcDbSpline
70
4
71
3
72
8
73
4
74
0
42
0.000000001
43
0.0000000001
44
0.0000000001
40
0
40
0
40
0
40
0
40
1
40
1
40
1
40
1
41
1
41
1
41
1
41
1
10
61.032918532542375
20
-3.1930984698677634
30
0
10
66.092291561615454
20
-3.1188862684314067
30
0
10
66.092291561615454
20
-3.1188862684314067
30
0
10
68.342420689117901
20
-7.5582067055448476
30
0
0
SPLINE
5
280
100
AcDbEntity
8
0
100
AcDbSpline
70
4
71
3
72
8
73
4
74
0
42
0.000000001
43
0.0000000001
44
0.0000000001
40
0
40
0
40
0
40
0
40
1
40
1
40
1
40
1
41
1
41
1
41
1
41
1
10
68.342420689117901
20
-7.5582067055448476
30
0
10
70.592557891062881
20
-11.997527142658289
30
0
10
70.592557891062881
20
-11.997527142658289
30
0
10
66.459727144094302
20
-18.124179987405178
30
0
0
SPLINE
5
281
100
AcDbEntity
8
0
100
AcDbSpline
70
4
71
3
72
8
73
4
74
0
42
0.000000001
43
0.0000000001
44
0.0000000001
40
0
40
0
40
0
40
0
40
1
40
1
40
1
40
1
41
1
41
1
41
1
41
1
10
66.459727144094302
20
-18.124179987405178
30
0
10
62.326904471568255
20
-24.250832832152085
30
0
10
62.326904471568255
20
-24.250832832152085
30
0
10
60.792857281219952
20
-24.565405039285064
30
0
0
SPLINE
5
282
100
AcDbEntity
8
0
100
AcDbSpline
70
4
71
3
72
8
73
4
74
0
42
0.000000001
43
0.0000000001
44
0.0000000001
40
0
40
0
40
0
40
0
40
1
40
1
40
1
40
1
41
1
41
1
41
1
41
1
10
21.722688786041733
20
-20.448061073118886
30
0
10
15.000812260162828
20
-16.995179132913005
30
0
10
15.000812260162828
20
-16.995179132913005
30
0
10
16.050958108754951
20
-10.600131817951262
30
0
0
SPLINE
5
283
100
AcDbEntity
8
0
100
AcDbSpline
70
4
71
3
72
8
73
4
74
0
42
0.000000001
43
0.0000000001
44
0.0000000001
40
0
40
0
40
0
40
0
40
1
40
1
40
1
40
1
41
1
41
1
41
1
41
1
10
16.050958108754951
20
-10.600131817951262
30
0
10
17.101103957347075
20
-4.2050925774320547
30
0
10
17.101103957347075
20
-4.2050925774320547
30
0
10
22.840546909821029
20
-2.7579425377592059
30
0
0
SPLINE
5
284
100
AcDbEntity
8
0
100
AcDbSpline
70
4
71
3
72
8
73
4
74
0
42
0.000000001
43
0.0000000001
44
0.0000000001
40
0
40
0
40
0
40
0
40
1
40
1
40
1
40
1
41
1
41
1
41
1
41
1
10
22.840546909821029
20
-2.7579425377592059
30
0
10
28.580006011180075
20
-1.3107924980863572
30
0
10
28.580006011180075
20
-1.3107924980863572
30
0
10
32.883360910268621
20
-7.3067685646757141
30
0
0
SPLINE
5
285
100
AcDbEntity
8
0
100
AcDbSpline
70
4
71
3
72
8
73
4
74
0
42
0.000000001
43
0.0000000001
44
0.0000000001
40
0
40
0
40
0
40
0
40
1
40
1
40
1
40
1
41
1
41
1
41
1
41
1
10
32.883360910268621
20
-7.3067685646757141
30
0
10
37.18671580935716
20
-13.302744631265071
30
0
10
37.18671580935716
20
-13.302744631265071
30
0
10
32.815640560638911
20
-18.601847859516187
30
0
0
SPLINE
5
286
100
AcDbEntity
8
0
100
AcDbSpline
70
4
71
3
72
8
73
4
74
0
42
0.000000001
43
0.0000000001
44
0.0000000001
40
0
40
0
40
0
40
0
40
1
40
1
40
1
40
1
41
1
41
1
41
1
41
1
10
32.815640560638911
20
-18.601847859516187
30
0
10
28.444565311920638
20
-23.900943013324785
30
0
10
28.444565311920638
20
-23.900943013324785
30
0
10
21.722688786041733
20
-20.448061073118886
30
0
0
SPLINE
5
287
100
AcDbEntity
8
0
100
AcDbSpline
70
4
71
3
72
8
73
4
74
0
42
0.000000001
43
0.0000000001
44
0.0000000001
40
0
40
0
40
0
40
0
40
1
40
1
40
1
40
1
41
1
41
1
41
1
41
1
10
31.420514154287176
20
-51.804149393533123
30
0
10
29.039974705231195
20
-44.150175369078362
30
0
10
29.039974705231195
20
-44.150175369078362
30
0
10
30.816602372976138
20
-41.525545521869702
30
0
0
SPLINE
5
288
100
AcDbEntity
8
0
100
AcDbSpline
70
4
71
3
72
8
73
4
74
0
42
0.000000001
43
0.0000000001
44
0.0000000001
40
0
40
0
40
0
40
0
40
1
40
1
40
1
40
1
41
1
41
1
41
1
41
1
10
30.816602372976138
20
-41.525545521869702
30
0
10
32.593221966278549
20
-38.900911637439762
30
0
10
32.593221966278549
20
-38.900911637439762
30
0
10
41.134504556508844
20
-40.21496660341267
30
0
0
SPLINE
5
289
100
AcDbEntity
8
0
100
AcDbSpline
70
4
71
3
72
8
73
4
74
0
42
0.000000001
43
0.0000000001
44
0.0000000001
40
0
40
0
40
0
40
0
40
1
40
1
40
1
40
1
41
1
41
1
41
1
41
1
10
41.134504556508844
20
-40.21496660341267
30
0
10
49.675795221181701
20
-41.529021569385577
30
0
10
49.675795221181701
20
-41.529021569385577
30
0
10
50.915763139577699
20
-45.226409741535235
30
0
0
SPLINE
5
290
100
AcDbEntity
8
0
100
AcDbSpline
70
4
71
3
72
8
73
4
74
0
42
0.000000001
43
0.0000000001
44
0.0000000001
40
0
40
0
40
0
40
0
40
1
40
1
40
1
40
1
41
1
41
1
41
1
41
1
10
50.915763139577699
20
-45.226409741535235
30
0
10
52.155739132416237
20
-48.923801950906167
30
0
10
52.155739132416237
20
-48.923801950906167
30
0
10
48.76681485161383
20
-55.619153933022858
30
0
0
SPLINE
5
291
100
AcDbEntity
8
0
100
AcDbSpline
70
4
71
3
72
8
73
4
74
0
42
0.000000001
43
0.0000000001
44
0.0000000001
40
0
40
0
40
0
40
0
40
1
40
1
40
1
40
1
41
1
41
1
41
1
41
1
10
48.76681485161383
20
-55.619153933022858
30
0
10
45.377898645253936
20
-62.314509952360822
30
0
10
45.377898645253936
20
-62.314509952360822
30
0
10
39.589476124298564
20
-60.88631466656372
30
0
0
SPLINE
5
292
100
AcDbEntity
8
0
100
AcDbSpline
70
4
71
3
72
8
73
4
74
0
42
0.000000001
43
0.0000000001
44
0.0000000001
40
0
40
0
40
0
40
0
40
1
40
1
40
1
40
1
41
1
41
1
41
1
41
1
10
39.589476124298564
20
-60.88631466656372
30
0
10
33.801045528900602
20
-59.458119380766576
30
0
10
33.801045528900602
20
-59.458119380766576
30
0
10
31.420514154287176
20
-51.804149393533123
30
0
0
SPLINE
5
293
100
AcDbEntity
8
0
100
AcDbSpline
70
4
71
3
72
8
73
4
74
0
42
0.000000001
43
0.0000000001
44
0.0000000001
40
0
40
0
40
0
40
0
40
1
40
1
40
1
40
1
41
1
41
1
41
1
41
1
10
53.282099644196009
20
-32.099917686278076
30
0
10
50.231106932810917
20
-37.132794432137857
30
0
10
50.231106932810917
20
-37.132794432137857
30
0
10
41.689824342580621
20
-35.81874350338623
30
0
0
SPLINE
5
294
100
AcDbEntity
8
0
100
AcDbSpline
70
4
71
3
72
8
73
4
74
0
42
0.000000001
43
0.0000000001
44
0.0000000001
40
0
40
0
40
0
40
0
40
1
40
1
40
1
40
1
41
1
41
1
41
1
41
1
10
41.689824342580621
20
-35.81874350338623
30
0
10
33.148541752350326
20
-34.50468853741333
30
0
10
33.148541752350326
20
-34.50468853741333
30
0
10
32.4054427304387
20
-30.433368893756914
30
0
0
SPLINE
5
295
100
AcDbEntity
8
0
100
AcDbSpline
70
4
71
3
72
8
73
4
74
0
42
0.000000001
43
0.0000000001
44
0.0000000001
40
0
40
0
40
0
40
0
40
1
40
1
40
1
40
1
41
1
41
1
41
1
41
1
10
32.4054427304387
20
-30.433368893756914
30
0
10
31.662351782969633
20
-26.362049250100501
30
0
10
31.662351782969633
20
-26.362049250100501
30
0
10
36.033427031687907
20
-21.062946021849349
30
0
0
SPLINE
5
296
100
AcDbEntity
8
0
100
AcDbSpline
70
4
71
3
72
8
73
4
74
0
42
0.000000001
43
0.0000000001
44
0.0000000001
40
0
40
0
40
0
40
0
40
1
40
1
40
1
40
1
41
1
41
1
41
1
41
1
10
36.033427031687907
20
-21.062946021849349
30
0
10
40.404502280406156
20
-15.763850868040787
30
0
10
40.404502280406156
20
-15.763850868040787
30
0
10
43.244485584747778
20
-15.62747353344605
30
0
0
SPLINE
5
297
100
AcDbEntity
8
0
100
AcDbSpline
70
4
71
3
72
8
73
4
74
0
42
0.000000001
43
0.0000000001
44
0.0000000001
40
0
40
0
40
0
40
0
40
1
40
1
40
1
40
1
41
1
41
1
41
1
41
1
10
43.244485584747778
20
-15.62747353344605
30
0
10
46.084468889089401
20
-15.491096198851331
30
0
10
46.084468889089401
20
-15.491096198851331
30
0
10
51.208784659556542
20
-21.279066551024162
30
0
0
SPLINE
5
298
100
AcDbEntity
8
0
100
AcDbSpline
70
4
71
3
72
8
73
4
74
0
42
0.000000001
43
0.0000000001
44
0.0000000001
40
0
40
0
40
0
40
0
40
1
40
1
40
1
40
1
41
1
41
1
41
1
41
1
10
51.208784659556542
20
-21.279066551024162
30
0
10
56.333092355581101
20
-27.067044977639565
30
0
10
56.333092355581101
20
-27.067044977639565
30
0
10
53.282099644196009
20
-32.099917686278076
30
0
0
ENDSEC
0
SECTION
2
OBJECTS
0
DICTIONARY
5
C
100
AcDbDictionary
3
ACAD_GROUP
350
D
3
ACAD_MLINESTYLE
350
17
0
DICTIONARY
5
D
100
AcDbDictionary
0
DICTIONARY
5
1A
330
C
100
AcDbDictionary
0
DICTIONARY
5
17
100
AcDbDictionary
0
ENDSEC
0
EOF
